<svg xmlns="http://www.w3.org/2000/svg" xmlns:xlink="http://www.w3.org/1999/xlink" width="106" height="106" viewBox="0 0 106 106">
  <defs>
    <filter id="Trazado_982547" x="0" y="0" width="106" height="106" filterUnits="userSpaceOnUse">
      <feOffset dy="3" input="SourceAlpha"/>
      <feGaussianBlur stdDeviation="3" result="blur"/>
      <feFlood flood-opacity="0.161"/>
      <feComposite operator="in" in2="blur"/>
      <feComposite in="SourceGraphic"/>
    </filter>
  </defs>
  <g id="Grupo_1241678" data-name="Grupo 1241678" transform="translate(-171 -802)">
    <g id="Grupo_1174813" data-name="Grupo 1174813" transform="translate(0 -580)">
      <g id="Grupo_1173169" data-name="Grupo 1173169" transform="translate(0 -2329)">
        <g id="Grupo_1172017" data-name="Grupo 1172017" transform="translate(0 2654)">
          <g id="Grupo_1167337" data-name="Grupo 1167337" transform="translate(180 1063)">
            <g id="Grupo_1166720" data-name="Grupo 1166720" transform="translate(0)">
              <g id="Grupo_1164305" data-name="Grupo 1164305">
                <g id="Grupo_1163948" data-name="Grupo 1163948">
                  <g id="Grupo_1158168" data-name="Grupo 1158168">
                    <g id="Grupo_1152576" data-name="Grupo 1152576">
                      <g id="Grupo_1148633" data-name="Grupo 1148633">
                        <g id="Grupo_1148525" data-name="Grupo 1148525">
                          <g transform="matrix(1, 0, 0, 1, -9, -6)" filter="url(#Trazado_982547)">
                            <g id="Trazado_982547-2" data-name="Trazado 982547" transform="translate(9 6)" fill="#ebe9f0">
                              <path d="M 44 86.5 C 38.26187515258789 86.5 32.69618606567383 85.37651062011719 27.45755004882812 83.16075897216797 C 22.3968505859375 81.020263671875 17.85157585144043 77.95565032958984 13.94796276092529 74.05204010009766 C 10.04434967041016 70.1484375 6.979737281799316 65.6031494140625 4.839250087738037 60.54246139526367 C 2.62348747253418 55.30381393432617 1.5 49.73812484741211 1.5 44 C 1.5 38.26187515258789 2.62348747253418 32.69618606567383 4.839250087738037 27.45755004882812 C 6.979737281799316 22.3968505859375 10.04434967041016 17.85157585144043 13.94796276092529 13.94796276092529 C 17.85157585144043 10.04434967041016 22.3968505859375 6.979737281799316 27.45755004882812 4.839250087738037 C 32.69618606567383 2.62348747253418 38.26187515258789 1.5 44 1.5 C 49.73812484741211 1.5 55.30381393432617 2.62348747253418 60.54246139526367 4.839250087738037 C 65.6031494140625 6.979737281799316 70.1484375 10.04434967041016 74.05204010009766 13.94796276092529 C 77.95565032958984 17.85157585144043 81.020263671875 22.3968505859375 83.16075897216797 27.45755004882812 C 85.37651062011719 32.69618606567383 86.5 38.26187515258789 86.5 44 C 86.5 49.73812484741211 85.37651062011719 55.30381393432617 83.16075897216797 60.54246139526367 C 81.020263671875 65.6031494140625 77.95565032958984 70.1484375 74.05204010009766 74.05204010009766 C 70.1484375 77.95565032958984 65.6031494140625 81.020263671875 60.54246139526367 83.16075897216797 C 55.30381393432617 85.37651062011719 49.73812484741211 86.5 44 86.5 Z" stroke="none"/>
                              <path d="M 44 3 C 38.46371459960938 3 33.09462738037109 4.083610534667969 28.0418701171875 6.220756530761719 C 23.15997314453125 8.285614013671875 18.77495574951172 11.24228668212891 15.00862884521484 15.00862884521484 C 11.24228668212891 18.77495574951172 8.285614013671875 23.15997314453125 6.220756530761719 28.0418701171875 C 4.083610534667969 33.09462738037109 3 38.46371459960938 3 44 C 3 49.53628540039062 4.083610534667969 54.9053840637207 6.220756530761719 59.9581298828125 C 8.285614013671875 64.84002685546875 11.24228668212891 69.22504425048828 15.00862884521484 72.99138641357422 C 18.77495574951172 76.75771331787109 23.15997314453125 79.71438598632812 28.0418701171875 81.77925872802734 C 33.09462738037109 83.9163818359375 38.46371459960938 85 44 85 C 49.53628540039062 85 54.9053840637207 83.9163818359375 59.95814514160156 81.77925872802734 C 64.84002685546875 79.71438598632812 69.22504425048828 76.75771331787109 72.99138641357422 72.99138641357422 C 76.75771331787109 69.22504425048828 79.71438598632812 64.84002685546875 81.77925872802734 59.95814514160156 C 83.9163818359375 54.9053840637207 85 49.53628540039062 85 44 C 85 38.46371459960938 83.9163818359375 33.09462738037109 81.77925872802734 28.0418701171875 C 79.71438598632812 23.15997314453125 76.75771331787109 18.77495574951172 72.99138641357422 15.00862884521484 C 69.22504425048828 11.24228668212891 64.84002685546875 8.285614013671875 59.9581298828125 6.220756530761719 C 54.9053840637207 4.083610534667969 49.53628540039062 3 44 3 M 44 0 C 68.30054473876953 0 88 19.69947052001953 88 44 C 88 68.30054473876953 68.30054473876953 88 44 88 C 19.69947052001953 88 0 68.30054473876953 0 44 C 0 19.69947052001953 19.69947052001953 0 44 0 Z" stroke="none" fill="#c6c0d6"/>
                            </g>
                          </g>
                        </g>
                      </g>
                    </g>
                  </g>
                </g>
              </g>
            </g>
          </g>
        </g>
      </g>
    </g>
    <g id="rompecabezas_5_" data-name="rompecabezas (5)" transform="translate(192.223 802.734)">
      <g id="Grupo_1241676" data-name="Grupo 1241676" transform="translate(0.931 20.328)">
        <path id="Trazado_1219748" data-name="Trazado 1219748" d="M364.833,57.03a8.951,8.951,0,0,0-5.112-7.245,1.148,1.148,0,0,1-.626-1.259,7.917,7.917,0,0,0-7.832-9.367,1.154,1.154,0,0,1-1.084-.754,5.666,5.666,0,0,0-1.914-2.532H346.47l-1.427,3.433v6.072l3.1.941-3.1,3.538v6.7l.858,1.329h.109a.791.791,0,0,1,.6.27h5.89a.792.792,0,0,1,.6-.27h10.95a.791.791,0,0,0,.792-.858Z" transform="translate(-303.145 -34.759)" fill="#ff636e"/>
        <path id="Trazado_1219749" data-name="Trazado 1219749" d="M88.735,137.727a2.789,2.789,0,0,0-2.81-2.646H84.9a.794.794,0,0,1-.794-.794v-3.544a5.789,5.789,0,0,0-1.568-3.963H80.109l-5.462,3.175s-3.469,6.713-4.134,6.915-2.238,4.226-2.321,4.448S65.71,144.7,65.71,144.7l.967,3.432-.967.611H82.591l1.518-.611v-6.761a.794.794,0,0,1,.794-.794h1.087a2.746,2.746,0,0,0,2.744-2.846Z" transform="translate(-58.485 -114.381)" fill="#ffe02f"/>
        <path id="Trazado_1219750" data-name="Trazado 1219750" d="M20.849,127.468a1.148,1.148,0,0,0,.626-1.259,7.917,7.917,0,0,1,7.832-9.367,1.154,1.154,0,0,0,1.084-.754,5.652,5.652,0,0,1,1.168-1.867,5.573,5.573,0,0,0-3.956-1.778,5.647,5.647,0,0,0-5.405,3.645,1.154,1.154,0,0,1-1.084.754,7.917,7.917,0,0,0-7.832,9.367,1.148,1.148,0,0,1-.626,1.259,8.946,8.946,0,0,0-5.153,8.1l1.184.611H16.88l-1.184-.611A8.946,8.946,0,0,1,20.849,127.468Z" transform="translate(-7.503 -101.824)" fill="#fbc700"/>
        <path id="Trazado_1219751" data-name="Trazado 1219751" d="M311.83,50.028h-5.967a.794.794,0,0,1-.794-.794V43.267a.794.794,0,0,1,.794-.794h1.087a2.746,2.746,0,0,0,2.744-2.846,2.789,2.789,0,0,0-2.81-2.646h-1.021a.794.794,0,0,1-.794-.794V32.642a5.787,5.787,0,0,1,2.312-4.629A5.619,5.619,0,0,0,303.89,26.9a5.71,5.71,0,0,0-5.524,5.742v3.544a.794.794,0,0,0,.794.794h1.021a2.789,2.789,0,0,1,2.81,2.646,2.746,2.746,0,0,1-2.744,2.846H299.16a.794.794,0,0,0-.794.794v5.967a.794.794,0,0,0,.794.794h5.967a.794.794,0,0,1,.794.794v1.021a2.789,2.789,0,0,0,2.646,2.81,2.746,2.746,0,0,0,2.846-2.744V50.822a.794.794,0,0,1,.605-.771.8.8,0,0,0-.189-.023Z" transform="translate(-262.262 -26.899)" fill="#ff4654"/>
        <path id="Trazado_1219752" data-name="Trazado 1219752" d="M200.868,298.772h-10.95a.794.794,0,0,0-.794.794v1.021a2.789,2.789,0,0,1-2.646,2.81,2.746,2.746,0,0,1-2.846-2.744v-1.087a.794.794,0,0,0-.794-.794h-6.761l-.856.885v5.684H172.78l-2.069,2.682v2.314l2.11,2.08h2.358v2.731l.9,1.011A5.71,5.71,0,0,0,181.6,321.9a5.647,5.647,0,0,0,5.405-3.645,1.154,1.154,0,0,1,1.084-.754,7.918,7.918,0,0,0,7.832-9.367,1.148,1.148,0,0,1,.626-1.259,8.952,8.952,0,0,0,5.113-7.245A.791.791,0,0,0,200.868,298.772Z" transform="translate(-150.452 -265.025)" fill="#60b9fe"/>
        <path id="Trazado_1219753" data-name="Trazado 1219753" d="M76.553,265.328v-1.021a2.789,2.789,0,0,0-2.646-2.81,2.746,2.746,0,0,0-2.846,2.744v1.087a.794.794,0,0,1-.794.794h-3.59l-.967.611s1.9,6.455,2.4,7.365,4.469,7.2,4.469,7.7,3.145,3.807,3.145,3.807l6.818,1.871a5.789,5.789,0,0,0,1.568-3.963v-3.544a.794.794,0,0,0-.794-.794H82.228a2.746,2.746,0,0,1-2.744-2.846,2.789,2.789,0,0,1,2.81-2.646h1.021a.794.794,0,0,0,.794-.794v-6.761H77.348a.8.8,0,0,1-.794-.794Z" transform="translate(-58.485 -232.375)" fill="#73d578"/>
        <g id="Grupo_1241675" data-name="Grupo 1241675" transform="translate(0 33.747)">
          <path id="Trazado_1219754" data-name="Trazado 1219754" d="M30.391,318.254a1.154,1.154,0,0,0-1.084-.754,7.918,7.918,0,0,1-7.832-9.367,1.148,1.148,0,0,0-.626-1.259,8.946,8.946,0,0,1-5.153-8.1H7.5a8.946,8.946,0,0,0,5.153,8.1,1.148,1.148,0,0,1,.626,1.259,7.918,7.918,0,0,0,7.832,9.367,1.154,1.154,0,0,1,1.084.754A5.647,5.647,0,0,0,27.6,321.9a5.572,5.572,0,0,0,3.956-1.778A5.653,5.653,0,0,1,30.391,318.254Z" transform="translate(-7.503 -298.771)" fill="#00c63a"/>
        </g>
      </g>
      <g id="Grupo_1241677" data-name="Grupo 1241677" transform="translate(0 19.397)">
        <path id="Trazado_1219755" data-name="Trazado 1219755" d="M318.3,42.51a9.915,9.915,0,0,0-5.644-8,.219.219,0,0,1-.107-.242A8.848,8.848,0,0,0,303.887,23.8h-.094a.225.225,0,0,1-.2-.153,6.593,6.593,0,0,0-6.154-4.247l-.142,0a6.664,6.664,0,0,0-6.435,6.672v3.544a1.727,1.727,0,0,0,1.725,1.725h1.021a1.865,1.865,0,0,1,1.88,1.748,1.813,1.813,0,0,1-1.814,1.882h-1.087a1.727,1.727,0,0,0-1.725,1.725v5.967a1.727,1.727,0,0,0,1.725,1.725h5.831v.885a3.742,3.742,0,0,0,3.544,3.74,3.674,3.674,0,0,0,3.81-3.675v-.95h2.816a.931.931,0,0,0,0-1.862h-2.953a1.727,1.727,0,0,0-1.725,1.725v1.087a1.814,1.814,0,0,1-1.882,1.814,1.864,1.864,0,0,1-1.748-1.88V44.251a1.727,1.727,0,0,0-1.725-1.725h-5.831V36.832h.95a3.674,3.674,0,0,0,3.675-3.81,3.742,3.742,0,0,0-3.74-3.544h-.885V26.071a4.792,4.792,0,0,1,4.613-4.811A4.734,4.734,0,0,1,301.85,24.3a2.092,2.092,0,0,0,1.943,1.355h.093a6.986,6.986,0,0,1,6.835,8.262,2.076,2.076,0,0,0,1.146,2.276,8.048,8.048,0,0,1,4.564,6.329h-3.5a.931.931,0,0,0,0,1.862h3.652A1.723,1.723,0,0,0,318.3,42.51Z" transform="translate(-254.757 -19.397)"/>
        <path id="Trazado_1219756" data-name="Trazado 1219756" d="M51.347,128.067H40.4a1.727,1.727,0,0,0-1.725,1.725v1.021a1.865,1.865,0,0,1-1.748,1.88,1.814,1.814,0,0,1-1.882-1.814v-1.087a1.727,1.727,0,0,0-1.725-1.725h-5.83v-5.694h.95a3.677,3.677,0,0,0,3.674-3.81,3.742,3.742,0,0,0-3.74-3.544h-.885v-3.407a6.664,6.664,0,0,0-6.435-6.672,6.583,6.583,0,0,0-6.3,4.246.225.225,0,0,1-.2.153h-.094A8.848,8.848,0,0,0,5.8,119.81a.219.219,0,0,1-.107.242,9.878,9.878,0,0,0,0,17.891.219.219,0,0,1,.107.242,8.849,8.849,0,0,0,8.665,10.473h.093a.225.225,0,0,1,.2.153,6.547,6.547,0,0,0,11.8.976,6.547,6.547,0,0,0,11.8-.975.225.225,0,0,1,.2-.153h.092a8.768,8.768,0,0,0,4.19-1.064.931.931,0,1,0-.892-1.635,6.8,6.8,0,0,1-3.295.837h-.1a2.093,2.093,0,0,0-1.944,1.355,4.736,4.736,0,0,1-4.515,3.044,4.792,4.792,0,0,1-4.613-4.811v-3.544h0a1.727,1.727,0,0,0-1.725-1.725H24.674a1.814,1.814,0,0,1-1.814-1.882,1.865,1.865,0,0,1,1.88-1.748h1.021a1.728,1.728,0,0,0,1.716-1.549,1.758,1.758,0,0,0,.009-.176v-5.83H33.18v.95a3.674,3.674,0,0,0,3.81,3.674,3.742,3.742,0,0,0,3.544-3.74v-.885H51.2a8.047,8.047,0,0,1-4.564,6.329,2.076,2.076,0,0,0-1.145,2.276,6.928,6.928,0,0,1-.8,4.735.931.931,0,1,0,1.616.925,8.792,8.792,0,0,0,1.015-6.009.219.219,0,0,1,.107-.242,9.915,9.915,0,0,0,5.644-8,1.712,1.712,0,0,0-.438-1.311,1.736,1.736,0,0,0-1.281-.567Zm-25.722,7.556H24.74A3.742,3.742,0,0,0,21,139.166a3.674,3.674,0,0,0,3.675,3.81h.95v3.407a4.792,4.792,0,0,1-4.613,4.811A4.73,4.73,0,0,1,16.5,148.15a2.093,2.093,0,0,0-1.943-1.354h-.021a6.987,6.987,0,0,1-6.907-8.262,2.076,2.076,0,0,0-1.146-2.276,8.059,8.059,0,0,1-4.563-6.329h10.8a1.727,1.727,0,0,0,1.725-1.725v-1.021a1.816,1.816,0,1,1,3.63,0V128.2a1.727,1.727,0,0,0,1.725,1.725h5.831v5.694Zm1.725-15.111a1.727,1.727,0,0,0-1.725,1.725v5.83H19.93v-.95a3.677,3.677,0,1,0-7.354.066v.885H1.917a8.059,8.059,0,0,1,4.562-6.329,2.076,2.076,0,0,0,1.146-2.276A6.986,6.986,0,0,1,14.46,111.2h.093a2.093,2.093,0,0,0,1.944-1.355,4.732,4.732,0,0,1,4.515-3.044,4.792,4.792,0,0,1,4.613,4.811v3.544a1.727,1.727,0,0,0,1.725,1.725h1.021a1.865,1.865,0,0,1,1.88,1.748,1.815,1.815,0,0,1-1.814,1.882H27.35Z" transform="translate(0 -94.32)"/>
      </g>
    </g>
  </g>
</svg>
