<svg xmlns="http://www.w3.org/2000/svg" xmlns:xlink="http://www.w3.org/1999/xlink" width="113" height="113" viewBox="0 0 113 113">
  <defs>
    <filter id="Trazado_982547" x="0" y="0" width="113" height="113" filterUnits="userSpaceOnUse">
      <feOffset dy="3" input="SourceAlpha"/>
      <feGaussianBlur stdDeviation="3" result="blur"/>
      <feFlood flood-opacity="0.161"/>
      <feComposite operator="in" in2="blur"/>
      <feComposite in="SourceGraphic"/>
    </filter>
  </defs>
  <g id="Grupo_1241754" data-name="Grupo 1241754" transform="translate(-796 -6864.149)">
    <g id="Grupo_1241232" data-name="Grupo 1241232" transform="translate(805 6870.149)">
      <g id="Grupo_1240425" data-name="Grupo 1240425" transform="translate(0 0)">
        <g id="Grupo_1239772" data-name="Grupo 1239772">
          <g id="Grupo_1236602" data-name="Grupo 1236602">
            <g id="Grupo_1236144" data-name="Grupo 1236144">
              <g id="Grupo_1235105" data-name="Grupo 1235105">
                <g id="Grupo_1223793" data-name="Grupo 1223793">
                  <g id="Grupo_1208028" data-name="Grupo 1208028">
                    <g id="Grupo_1177675" data-name="Grupo 1177675">
                      <g id="Grupo_1176928" data-name="Grupo 1176928" transform="translate(0)">
                        <g id="Grupo_1172322" data-name="Grupo 1172322">
                          <g id="Grupo_1164700" data-name="Grupo 1164700">
                            <g id="Grupo_1160931" data-name="Grupo 1160931">
                              <g id="Grupo_1160749" data-name="Grupo 1160749">
                                <g id="Grupo_1158891" data-name="Grupo 1158891">
                                  <g id="Grupo_1157406" data-name="Grupo 1157406">
                                    <g id="Grupo_1155793" data-name="Grupo 1155793">
                                      <g id="Grupo_1154704" data-name="Grupo 1154704">
                                        <g id="Grupo_1150790" data-name="Grupo 1150790">
                                          <g id="Grupo_1154214" data-name="Grupo 1154214" transform="translate(0)">
                                            <g id="Grupo_1152583" data-name="Grupo 1152583">
                                              <g id="Grupo_1146973" data-name="Grupo 1146973">
                                                <g id="Grupo_1146954" data-name="Grupo 1146954">
                                                  <g transform="matrix(1, 0, 0, 1, -9, -6)" filter="url(#Trazado_982547)">
                                                    <g id="Trazado_982547-2" data-name="Trazado 982547" transform="translate(9 6)" fill="#d9d5e3">
                                                      <path d="M 47.50000762939453 93.49986267089844 C 41.28937911987305 93.49986267089844 35.26534271240234 92.28383636474609 29.59519386291504 89.88558197021484 C 24.11772727966309 87.56880950927734 19.19814109802246 84.25183868408203 14.97310066223145 80.02679443359375 C 10.74804782867432 75.8017578125 7.431074142456055 70.88218688964844 5.114300727844238 65.40471649169922 C 2.716034412384033 59.73458480834961 1.500007629394531 53.71054458618164 1.500007629394531 47.49993133544922 C 1.500007629394531 41.2893180847168 2.716034412384033 35.26527786254883 5.114300727844238 29.59514427185059 C 7.431074142456055 24.11767768859863 10.74804782867432 19.19810485839844 14.97310066223145 14.97306442260742 C 19.19814109802246 10.74802494049072 24.11772727966309 7.431051254272461 29.59519386291504 5.114277839660645 C 35.26534271240234 2.71602463722229 41.28937911987305 1.499997973442078 47.50000762939453 1.499997973442078 C 53.71063613891602 1.499997973442078 59.73467254638672 2.71602463722229 65.40482330322266 5.114277839660645 C 70.88228607177734 7.431051254272461 75.80187225341797 10.74802494049072 80.02691650390625 14.97306442260742 C 84.25196838378906 19.19810485839844 87.56893920898438 24.11767768859863 89.88571166992188 29.59514427185059 C 92.28398132324219 35.26527786254883 93.50000762939453 41.2893180847168 93.50000762939453 47.49993133544922 C 93.50000762939453 53.71054458618164 92.28398132324219 59.73458480834961 89.88571166992188 65.40471649169922 C 87.56893920898438 70.88218688964844 84.25196838378906 75.8017578125 80.02691650390625 80.02679443359375 C 75.80187225341797 84.25183868408203 70.88228607177734 87.56880950927734 65.40482330322266 89.88558197021484 C 59.73467254638672 92.28383636474609 53.71063613891602 93.49986267089844 47.50000762939453 93.49986267089844 Z" stroke="none"/>
                                                      <path d="M 47.50000762939453 2.999992370605469 C 41.4912223815918 2.999992370605469 35.66377639770508 4.1761474609375 30.17951202392578 6.495796203613281 C 24.88085174560547 8.736930847167969 20.12152862548828 11.94596099853516 16.03376007080078 16.03372955322266 C 11.94597625732422 20.12148284912109 8.736961364746094 24.88080596923828 6.495803833007812 30.17946624755859 C 4.176162719726562 35.66371536254883 3.000007629394531 41.49116134643555 3.000007629394531 47.49993133544922 C 3.000007629394531 53.50870132446289 4.176162719726562 59.33614730834961 6.495803833007812 64.82038879394531 C 8.736961364746094 70.11905670166016 11.94597625732422 74.87836456298828 16.03376007080078 78.96613311767578 C 20.12152862548828 83.05390167236328 24.88085174560547 86.26291656494141 30.17951202392578 88.50406646728516 C 35.66377639770508 90.82369995117188 41.4912223815918 91.99985504150391 47.50000762939453 91.99985504150391 C 53.50879287719727 91.99985504150391 59.33623886108398 90.82369995117188 64.82049560546875 88.50406646728516 C 70.11916351318359 86.26291656494141 74.87848663330078 83.05390167236328 78.96625518798828 78.96613311767578 C 83.05403900146484 74.87836456298828 86.26305389404297 70.11905670166016 88.50421142578125 64.82038879394531 C 90.8238525390625 59.33614730834961 92.00000762939453 53.50870132446289 92.00000762939453 47.49993133544922 C 92.00000762939453 41.49116134643555 90.8238525390625 35.66371536254883 88.50421142578125 30.17946624755859 C 86.26305389404297 24.88080596923828 83.05403900146484 20.12148284912109 78.96625518798828 16.03372955322266 C 74.87848663330078 11.94596099853516 70.11916351318359 8.736930847167969 64.82049560546875 6.495796203613281 C 59.33623886108398 4.1761474609375 53.50879287719727 2.999992370605469 47.50000762939453 2.999992370605469 M 47.50000762939453 -7.62939453125e-06 C 73.73352813720703 -7.62939453125e-06 95.00000762939453 21.26644134521484 95.00000762939453 47.49993133544922 C 95.00000762939453 73.73342132568359 73.73352813720703 94.99985504150391 47.50000762939453 94.99985504150391 C 21.26648712158203 94.99985504150391 7.62939453125e-06 73.73342132568359 7.62939453125e-06 47.49993133544922 C 7.62939453125e-06 21.26644134521484 21.26648712158203 -7.62939453125e-06 47.50000762939453 -7.62939453125e-06 Z" stroke="none" fill="#453179"/>
                                                    </g>
                                                  </g>
                                                </g>
                                              </g>
                                            </g>
                                          </g>
                                        </g>
                                      </g>
                                    </g>
                                  </g>
                                </g>
                              </g>
                            </g>
                          </g>
                        </g>
                      </g>
                    </g>
                  </g>
                </g>
              </g>
            </g>
          </g>
        </g>
      </g>
    </g>
    <g id="presentacion_3_" data-name="presentacion (3)" transform="translate(823.559 6888.708)">
      <path id="Trazado_1220059" data-name="Trazado 1220059" d="M184.9,29.706a6.326,6.326,0,0,0,6.331-6.331,1.809,1.809,0,1,0-3.618,0,2.709,2.709,0,0,1-2.713,2.713H184V8h36.177V35.133H184V29.706Zm0,0" transform="translate(-163.198 -7.096)" fill="#656d78"/>
      <path id="Trazado_1220060" data-name="Trazado 1220060" d="M385.949,288v2.713a2.709,2.709,0,0,1,2.713,2.713v4.522a7.348,7.348,0,0,1-12.662,0v-4.522A5.419,5.419,0,0,1,381.427,288Zm0,0" transform="translate(-333.492 -255.441)" fill="#965353"/>
      <path id="Trazado_1220061" data-name="Trazado 1220061" d="M382.331,379.618A7.184,7.184,0,0,0,388.662,376a6.291,6.291,0,0,1-3.618,5.707,6.284,6.284,0,0,1-5.427,0A6.29,6.29,0,0,1,376,376,7.184,7.184,0,0,0,382.331,379.618Zm0,0" transform="translate(-333.492 -333.492)" fill="#eac6bb"/>
      <path id="Trazado_1220062" data-name="Trazado 1220062" d="M419.513,379.427a6.284,6.284,0,0,1-2.609,2.279,6.2,6.2,0,0,1-.9.342,6.72,6.72,0,0,0,.823.188c.033.005.066.013.1.017a5.984,5.984,0,0,0,.885.069,6.209,6.209,0,0,0,2.713-.616A6.29,6.29,0,0,0,424.139,376,7.186,7.186,0,0,1,419.513,379.427Zm0,0" transform="translate(-368.97 -333.492)" fill="#d3b1a9"/>
      <path id="Trazado_1220063" data-name="Trazado 1220063" d="M435.618,290.713V288H432v4.522a2.71,2.71,0,0,1,2.713,2.713v2.713a6.288,6.288,0,0,1-1.009,3.428,7.192,7.192,0,0,0,4.626-3.428v-4.522A2.709,2.709,0,0,0,435.618,290.713Zm0,0" transform="translate(-383.161 -255.441)" fill="#844747"/>
      <path id="Trazado_1220064" data-name="Trazado 1220064" d="M410.713,427.089a6.208,6.208,0,0,0,2.713-.616v3.338H408v-3.337A6.22,6.22,0,0,0,410.713,427.089Zm0,0" transform="translate(-361.875 -378.259)" fill="#f5f7fa"/>
      <path id="Trazado_1220065" data-name="Trazado 1220065" d="M376.279,458.713v2.713H360v-2.713A2.709,2.709,0,0,1,362.713,456h10.853A2.709,2.709,0,0,1,376.279,458.713Zm0,0" transform="translate(-319.301 -404.448)" fill="#e6e9ed"/>
      <path id="Trazado_1220066" data-name="Trazado 1220066" d="M451.618,456H448a2.709,2.709,0,0,1,2.713,2.713v2.713h3.618v-2.713A2.709,2.709,0,0,0,451.618,456Zm0,0" transform="translate(-397.353 -404.448)" fill="#ccd1d9"/>
      <path id="Trazado_1220067" data-name="Trazado 1220067" d="M232,434.713V432h5.426v2.713l-2.713.9Zm0,0" transform="translate(-205.772 -383.161)" fill="#eac6bb"/>
      <path id="Trazado_1220068" data-name="Trazado 1220068" d="M200.28,288.46v9.008H184V288.46a8.14,8.14,0,1,1,16.28,0Zm0,0" transform="translate(-163.198 -248.629)" fill="#ffce54"/>
      <path id="Trazado_1220069" data-name="Trazado 1220069" d="M241.809,280.32a8.171,8.171,0,0,0-1.809.208,8.14,8.14,0,0,1,6.331,7.932v9.008h3.618V288.46A8.14,8.14,0,0,0,241.809,280.32Zm0,0" transform="translate(-212.867 -248.629)" fill="#f6bb42"/>
      <path id="Trazado_1220070" data-name="Trazado 1220070" d="M200.28,458.713v2.713H184v-2.713A2.709,2.709,0,0,1,186.713,456h2.713l2.713.9,2.713-.9h2.713A2.709,2.709,0,0,1,200.28,458.713Zm0,0" transform="translate(-163.198 -404.448)" fill="#48cfad"/>
      <path id="Trazado_1220071" data-name="Trazado 1220071" d="M280.7,456h-2.713l-.257.086a2.7,2.7,0,0,1,2.066,2.627v2.713h3.618v-2.713A2.709,2.709,0,0,0,280.7,456Zm0,0" transform="translate(-246.329 -404.448)" fill="#37bc9b"/>
      <path id="Trazado_1220072" data-name="Trazado 1220072" d="M24.28,461.427H8v-2.713A2.709,2.709,0,0,1,10.713,456H21.566a2.709,2.709,0,0,1,2.713,2.713Zm0,0" transform="translate(-7.096 -404.448)" fill="#5d9cec"/>
      <path id="Trazado_1220073" data-name="Trazado 1220073" d="M99.618,456H96a2.709,2.709,0,0,1,2.713,2.713v2.713h3.618v-2.713A2.709,2.709,0,0,0,99.618,456Zm0,0" transform="translate(-85.147 -404.448)" fill="#4a89dc"/>
      <path id="Trazado_1220074" data-name="Trazado 1220074" d="M58.713,427.089a6.208,6.208,0,0,0,2.713-.616v3.338H56v-3.337A6.22,6.22,0,0,0,58.713,427.089Zm0,0" transform="translate(-49.669 -378.259)" fill="#f5f7fa"/>
      <path id="Trazado_1220075" data-name="Trazado 1220075" d="M30.331,382.322a6.209,6.209,0,0,1-2.713-.616A6.288,6.288,0,0,1,24,376a7.348,7.348,0,0,0,12.662,0,6.291,6.291,0,0,1-3.618,5.707A6.221,6.221,0,0,1,30.331,382.322Zm0,0" transform="translate(-21.287 -333.493)" fill="#eac6bb"/>
      <path id="Trazado_1220076" data-name="Trazado 1220076" d="M36.662,294.331v3.618a7.348,7.348,0,0,1-12.662,0v-3.618a6.331,6.331,0,0,1,12.662,0Zm0,0" transform="translate(-21.287 -255.441)" fill="#656d78"/>
      <path id="Trazado_1220077" data-name="Trazado 1220077" d="M67.513,379.421A6.284,6.284,0,0,1,64.9,381.7a6.206,6.206,0,0,1-.9.342,6.7,6.7,0,0,0,.823.188c.033.005.066.013.1.017a6.126,6.126,0,0,0,.886.068,6.209,6.209,0,0,0,2.713-.616,6.29,6.29,0,0,0,3.618-5.707A7.189,7.189,0,0,1,67.513,379.421Zm0,0" transform="translate(-56.765 -333.485)" fill="#d3b1a9"/>
      <path id="Trazado_1220078" data-name="Trazado 1220078" d="M65.809,288a6.2,6.2,0,0,0-.845.062l-.171.026a6.37,6.37,0,0,0-.792.176h0a6.324,6.324,0,0,1,4.522,6.066v3.618a6.288,6.288,0,0,1-1.009,3.428,7.189,7.189,0,0,0,4.626-3.427v-3.618A6.326,6.326,0,0,0,65.809,288Zm0,0" transform="translate(-56.765 -255.441)" fill="#434a54"/>
      <path id="Trazado_1220079" data-name="Trazado 1220079" d="M74.713,147.089a6.209,6.209,0,0,0,2.713-.616v2.434l-.9.9-1.809-.9-1.809.9-.9-.9v-2.433a6.221,6.221,0,0,0,2.713.615Zm0,0" transform="translate(-63.86 -129.914)" fill="#f5f7fa"/>
      <path id="Trazado_1220080" data-name="Trazado 1220080" d="M17.949,132.522l1.809.9.9-.9H28.8a2.709,2.709,0,0,0,2.713-2.713,1.809,1.809,0,1,1,3.618,0A6.326,6.326,0,0,1,28.8,136.14H24.28v5.426H8V136.14a3.617,3.617,0,0,1,3.618-3.618h3.618l.9.9Zm0,0" transform="translate(-7.096 -113.529)" fill="#e6e9ed"/>
      <path id="Trazado_1220081" data-name="Trazado 1220081" d="M344,40a6.331,6.331,0,0,1,4.477,10.808l-3.2-3.2A1.8,1.8,0,0,0,344,44.522Zm0,0" transform="translate(-305.11 -35.478)" fill="#a0d468"/>
      <path id="Trazado_1220082" data-name="Trazado 1220082" d="M295.606,47.606l3.2,3.2A6.331,6.331,0,1,1,294.331,40v4.522a1.809,1.809,0,1,0,1.275,3.084Zm0,0" transform="translate(-255.441 -35.478)" fill="#5d9cec"/>
      <path id="Trazado_1220083" data-name="Trazado 1220083" d="M123.618,31.885v1.239c-1.556-2.026-2.5-2.4-3.618-2.162l1.8-3.681A6.711,6.711,0,0,1,123.618,31.885Zm0,0" transform="translate(-106.434 -24.197)" fill="#edab37"/>
      <path id="Trazado_1220084" data-name="Trazado 1220084" d="M32.9,15.362c-.289-.036-.588-.072-.9-.127v-.452A6.785,6.785,0,0,1,38.783,8a6.7,6.7,0,0,1,4.965,2.18l-1.8,3.681c-1.691.353-3.789,2.107-9.044,1.5Zm0,0" transform="translate(-28.382 -7.096)" fill="#ffce54"/>
      <path id="Trazado_1220085" data-name="Trazado 1220085" d="M77.781,8a6.471,6.471,0,0,0-.874.062c-.043.006-.083.014-.125.019a7.418,7.418,0,0,0-.812.171h0a6.8,6.8,0,0,1,4.91,5.626c.023,0,.046-.013.068-.017l1.8-3.681A6.7,6.7,0,0,0,77.781,8Zm0,0" transform="translate(-67.38 -7.096)" fill="#f6bb42"/>
      <path id="Trazado_1220086" data-name="Trazado 1220086" d="M40,60.858c5.255.606,7.353-1.149,9.044-1.5,1.122-.236,2.062.135,3.618,2.162v1.925a6.291,6.291,0,0,1-3.618,5.707,6.283,6.283,0,0,1-5.427,0A6.291,6.291,0,0,1,40,63.444Zm0,0" transform="translate(-35.478 -52.591)" fill="#eac6bb"/>
      <path id="Trazado_1220087" data-name="Trazado 1220087" d="M84.522,59.352V63.44A6.291,6.291,0,0,1,80.9,69.147a6.209,6.209,0,0,1-.9.342,6.282,6.282,0,0,0,1.809.274,6.209,6.209,0,0,0,2.713-.616A6.29,6.29,0,0,0,88.14,63.44V61.514C86.584,59.488,85.644,59.117,84.522,59.352Zm0,0" transform="translate(-70.956 -52.587)" fill="#d3b1a9"/>
      <path id="Trazado_1220088" data-name="Trazado 1220088" d="M312.14,201.809H304.9a.9.9,0,1,1,0-1.809h7.235a.9.9,0,0,1,0,1.809Zm0,0" transform="translate(-269.632 -177.39)"/>
      <path id="Trazado_1220089" data-name="Trazado 1220089" d="M287.375,177.809H272.9a.9.9,0,1,1,0-1.809h14.471a.9.9,0,0,1,0,1.809Zm0,0" transform="translate(-241.25 -156.103)"/>
      <path id="Trazado_1220090" data-name="Trazado 1220090" d="M351.412,104.316a.9.9,0,0,1-.639-.265l-3.2-3.2a.9.9,0,1,1,1.279-1.279l3.2,3.2a.9.9,0,0,1-.639,1.544Zm0,0" transform="translate(-308.046 -88.083)"/>
      <path id="Trazado_1220091" data-name="Trazado 1220091" d="M336.9,38.331a.9.9,0,0,1-.9-.9V32.9a.9.9,0,1,1,1.809,0v4.522A.9.9,0,0,1,336.9,38.331Zm0,0" transform="translate(-298.014 -28.382)"/>
      <path id="Trazado_1220092" data-name="Trazado 1220092" d="M322.713,77.427a2.713,2.713,0,1,1,2.713-2.713A2.717,2.717,0,0,1,322.713,77.427Zm0-3.618a.9.9,0,1,0,.9.9A.9.9,0,0,0,322.713,73.809Zm0,0" transform="translate(-283.823 -63.86)"/>
      <path id="Trazado_1220093" data-name="Trazado 1220093" d="M287.235,46.471a7.235,7.235,0,1,1,7.235-7.235A7.244,7.244,0,0,1,287.235,46.471Zm0-12.662a5.427,5.427,0,1,0,5.427,5.427A5.432,5.432,0,0,0,287.235,33.809Zm0,0" transform="translate(-248.345 -28.382)"/>
      <path id="Trazado_1220094" data-name="Trazado 1220094" d="M213.081,28.941H176.9a.9.9,0,0,1-.9-.9V22.61a.9.9,0,0,1,1.809,0v4.522h34.368V1.809H177.809V18.993a.9.9,0,0,1-1.809,0V.9a.9.9,0,0,1,.9-.9h36.177a.9.9,0,0,1,.9.9V28.037A.9.9,0,0,1,213.081,28.941Zm0,0" transform="translate(-156.103)"/>
      <path id="Trazado_1220095" data-name="Trazado 1220095" d="M32.9,206.331a.9.9,0,0,1-.9-.9V200.9a.9.9,0,0,1,1.809,0v4.522A.9.9,0,0,1,32.9,206.331Zm0,0" transform="translate(-28.382 -177.39)"/>
      <path id="Trazado_1220096" data-name="Trazado 1220096" d="M36.522,161.825H32.9a.9.9,0,1,1,0-1.809h3.618a.9.9,0,1,1,0,1.809Zm0,0" transform="translate(-28.382 -141.926)"/>
      <path id="Trazado_1220097" data-name="Trazado 1220097" d="M.9,165.427a.9.9,0,0,1-.9-.9A4.527,4.527,0,0,1,4.522,160a.9.9,0,0,1,0,1.809,2.717,2.717,0,0,0-2.713,2.713A.9.9,0,0,1,.9,165.427Zm0,0" transform="translate(0 -141.912)"/>
      <path id="Trazado_1220098" data-name="Trazado 1220098" d="M.9,199.235a.9.9,0,0,1-.9-.9V192.9a.9.9,0,1,1,1.809,0v5.426A.9.9,0,0,1,.9,199.235Zm0,0" transform="translate(0 -170.294)"/>
      <path id="Trazado_1220099" data-name="Trazado 1220099" d="M144.9,199.235a.9.9,0,0,1-.9-.9V192.9a.9.9,0,1,1,1.809,0v5.426A.9.9,0,0,1,144.9,199.235Zm0,0" transform="translate(-127.721 -170.294)"/>
      <path id="Trazado_1220100" data-name="Trazado 1220100" d="M149.427,193.809H144.9a.9.9,0,1,1,0-1.809h4.522a.9.9,0,0,1,0,1.809Zm0,0" transform="translate(-127.721 -170.294)"/>
      <path id="Trazado_1220101" data-name="Trazado 1220101" d="M212.522,123.618a.9.9,0,0,1-.9-.9.9.9,0,1,0-1.809,0,.9.9,0,0,1-1.809,0,2.713,2.713,0,1,1,5.426,0A.9.9,0,0,1,212.522,123.618Zm0,0" transform="translate(-184.485 -106.434)"/>
      <path id="Trazado_1220102" data-name="Trazado 1220102" d="M184.9,144.14a.9.9,0,1,1,0-1.809,5.432,5.432,0,0,0,5.427-5.426.9.9,0,1,1,1.809,0A7.244,7.244,0,0,1,184.9,144.14Zm0,0" transform="translate(-163.198 -120.625)"/>
      <path id="Trazado_1220103" data-name="Trazado 1220103" d="M184.9,140.522a.9.9,0,1,1,0-1.809,1.811,1.811,0,0,0,1.809-1.809.9.9,0,1,1,1.809,0A3.621,3.621,0,0,1,184.9,140.522Zm0,0" transform="translate(-163.198 -120.625)"/>
      <path id="Trazado_1220104" data-name="Trazado 1220104" d="M459.62,308.523a.9.9,0,0,1-.9-.9,1.812,1.812,0,0,0-1.811-1.81.9.9,0,0,1,0-1.809,3.623,3.623,0,0,1,3.619,3.619A.9.9,0,0,1,459.62,308.523Zm0,0" transform="translate(-404.449 -269.632)"/>
      <path id="Trazado_1220105" data-name="Trazado 1220105" d="M456.9,284.522a.9.9,0,0,1-.9-.9V280.9a.9.9,0,1,1,1.809,0v2.713A.9.9,0,0,1,456.9,284.522Zm0,0" transform="translate(-404.448 -248.345)"/>
      <path id="Trazado_1220106" data-name="Trazado 1220106" d="M368.9,287.235a.9.9,0,0,1-.9-.9A6.339,6.339,0,0,1,374.331,280a.9.9,0,0,1,0,1.809,4.527,4.527,0,0,0-4.522,4.522A.9.9,0,0,1,368.9,287.235Zm0,0" transform="translate(-326.397 -248.345)"/>
      <path id="Trazado_1220107" data-name="Trazado 1220107" d="M421.427,281.809H416.9a.9.9,0,1,1,0-1.809h4.522a.9.9,0,1,1,0,1.809Zm0,0" transform="translate(-368.97 -248.345)"/>
      <path id="Trazado_1220108" data-name="Trazado 1220108" d="M375.229,373.427a8.049,8.049,0,0,1-7.14-4.118.9.9,0,0,1,1.616-.813,6.448,6.448,0,0,0,11.046,0,.9.9,0,1,1,1.618.81A8.048,8.048,0,0,1,375.229,373.427Zm0,0" transform="translate(-326.391 -326.398)"/>
      <path id="Trazado_1220109" data-name="Trazado 1220109" d="M368.9,334.3a.9.9,0,0,1-.9-.9v-4.526a.9.9,0,0,1,1.809,0V333.4A.9.9,0,0,1,368.9,334.3Zm0,0" transform="translate(-326.397 -290.891)"/>
      <path id="Trazado_1220110" data-name="Trazado 1220110" d="M480.9,334.3a.9.9,0,0,1-.9-.9v-4.526a.9.9,0,0,1,1.809,0V333.4A.9.9,0,0,1,480.9,334.3Zm0,0" transform="translate(-425.735 -290.891)"/>
      <path id="Trazado_1220111" data-name="Trazado 1220111" d="M352.9,452.49a.9.9,0,0,1-.9-.9,3.621,3.621,0,0,1,3.618-3.617.9.9,0,0,1,0,1.809,1.81,1.81,0,0,0-1.809,1.808A.9.9,0,0,1,352.9,452.49Zm0,0" transform="translate(-312.206 -397.325)"/>
      <path id="Trazado_1220112" data-name="Trazado 1220112" d="M379.618,449.825H376.9a.9.9,0,1,1,0-1.809h2.713a.9.9,0,1,1,0,1.809Zm0,0" transform="translate(-333.492 -397.367)"/>
      <path id="Trazado_1220113" data-name="Trazado 1220113" d="M352.9,476.487a.9.9,0,0,1-.9-.9v-2.718a.9.9,0,0,1,1.809,0v2.718A.9.9,0,0,1,352.9,476.487Zm0,0" transform="translate(-312.206 -418.605)"/>
      <path id="Trazado_1220114" data-name="Trazado 1220114" d="M475.618,452.49a.9.9,0,0,1-.9-.9,1.81,1.81,0,0,0-1.809-1.808.9.9,0,1,1,0-1.809,3.621,3.621,0,0,1,3.618,3.617A.9.9,0,0,1,475.618,452.49Zm0,0" transform="translate(-418.639 -397.325)"/>
      <path id="Trazado_1220115" data-name="Trazado 1220115" d="M451.618,449.825H448.9a.9.9,0,1,1,0-1.809h2.713a.9.9,0,1,1,0,1.809Zm0,0" transform="translate(-397.353 -397.367)"/>
      <path id="Trazado_1220116" data-name="Trazado 1220116" d="M496.9,476.487a.9.9,0,0,1-.9-.9v-2.718a.9.9,0,1,1,1.809,0v2.718A.9.9,0,0,1,496.9,476.487Zm0,0" transform="translate(-439.926 -418.605)"/>
      <path id="Trazado_1220117" data-name="Trazado 1220117" d="M369.184,497.809H352.9a.9.9,0,1,1,0-1.809h16.28a.9.9,0,1,1,0,1.809Zm0,0" transform="translate(-312.206 -439.926)"/>
      <path id="Trazado_1220118" data-name="Trazado 1220118" d="M400.9,423.684a.9.9,0,0,1-.9-.9v-3.332a.9.9,0,0,1,1.809,0v3.332A.9.9,0,0,1,400.9,423.684Zm0,0" transform="translate(-354.779 -371.226)"/>
      <path id="Trazado_1220119" data-name="Trazado 1220119" d="M448.9,423.678a.9.9,0,0,1-.9-.9v-3.326a.9.9,0,0,1,1.809,0v3.326A.9.9,0,0,1,448.9,423.678Zm0,0" transform="translate(-397.353 -371.226)"/>
      <path id="Trazado_1220120" data-name="Trazado 1220120" d="M375.235,376.1A7.243,7.243,0,0,1,368,368.866a.9.9,0,1,1,1.809,0,5.427,5.427,0,0,0,10.853,0,.9.9,0,1,1,1.809,0A7.243,7.243,0,0,1,375.235,376.1Zm0,0" transform="translate(-326.397 -326.363)"/>
      <path id="Trazado_1220121" data-name="Trazado 1220121" d="M406.331,449.77H400.9a.9.9,0,0,1,0-1.809h5.427a.9.9,0,0,1,0,1.809Zm0,0" transform="translate(-354.779 -397.318)"/>
      <path id="Trazado_1220122" data-name="Trazado 1220122" d="M23.229,373.427a8.049,8.049,0,0,1-7.14-4.118A.9.9,0,0,1,17.7,368.5a6.448,6.448,0,0,0,11.046,0,.9.9,0,1,1,1.618.81,8.048,8.048,0,0,1-7.14,4.117Zm0,0" transform="translate(-14.185 -326.398)"/>
      <path id="Trazado_1220123" data-name="Trazado 1220123" d="M16.9,341.4a.9.9,0,0,1-.9-.9v-3.621a.9.9,0,1,1,1.809,0v3.621A.9.9,0,0,1,16.9,341.4Zm0,0" transform="translate(-14.191 -297.987)"/>
      <path id="Trazado_1220124" data-name="Trazado 1220124" d="M128.9,341.4a.9.9,0,0,1-.9-.9v-3.621a.9.9,0,0,1,1.809,0v3.621A.9.9,0,0,1,128.9,341.4Zm0,0" transform="translate(-113.529 -297.987)"/>
      <path id="Trazado_1220125" data-name="Trazado 1220125" d="M.9,452.49a.9.9,0,0,1-.9-.9,3.621,3.621,0,0,1,3.618-3.617.9.9,0,0,1,0,1.809,1.81,1.81,0,0,0-1.809,1.808A.9.9,0,0,1,.9,452.49Zm0,0" transform="translate(0 -397.325)"/>
      <path id="Trazado_1220126" data-name="Trazado 1220126" d="M27.618,449.825H24.9a.9.9,0,0,1,0-1.809h2.713a.9.9,0,0,1,0,1.809Zm0,0" transform="translate(-21.287 -397.367)"/>
      <path id="Trazado_1220127" data-name="Trazado 1220127" d="M.9,476.487a.9.9,0,0,1-.9-.9v-2.718a.9.9,0,1,1,1.809,0v2.718A.9.9,0,0,1,.9,476.487Zm0,0" transform="translate(0 -418.605)"/>
      <path id="Trazado_1220128" data-name="Trazado 1220128" d="M123.618,452.49a.9.9,0,0,1-.9-.9,1.81,1.81,0,0,0-1.809-1.808.9.9,0,1,1,0-1.809,3.621,3.621,0,0,1,3.618,3.617A.9.9,0,0,1,123.618,452.49Zm0,0" transform="translate(-106.434 -397.325)"/>
      <path id="Trazado_1220129" data-name="Trazado 1220129" d="M99.618,449.825H96.9a.9.9,0,0,1,0-1.809h2.713a.9.9,0,0,1,0,1.809Zm0,0" transform="translate(-85.147 -397.367)"/>
      <path id="Trazado_1220130" data-name="Trazado 1220130" d="M144.9,476.487a.9.9,0,0,1-.9-.9v-2.718a.9.9,0,1,1,1.809,0v2.718A.9.9,0,0,1,144.9,476.487Zm0,0" transform="translate(-127.721 -418.605)"/>
      <path id="Trazado_1220131" data-name="Trazado 1220131" d="M17.184,497.809H.9A.9.9,0,0,1,.9,496h16.28a.9.9,0,0,1,0,1.809Zm0,0" transform="translate(0 -439.926)"/>
      <path id="Trazado_1220132" data-name="Trazado 1220132" d="M48.9,423.684a.9.9,0,0,1-.9-.9v-3.332a.9.9,0,0,1,1.809,0v3.332A.9.9,0,0,1,48.9,423.684Zm0,0" transform="translate(-42.573 -371.226)"/>
      <path id="Trazado_1220133" data-name="Trazado 1220133" d="M96.9,423.678a.9.9,0,0,1-.9-.9v-3.326a.9.9,0,1,1,1.809,0v3.326A.9.9,0,0,1,96.9,423.678Zm0,0" transform="translate(-85.147 -371.226)"/>
      <path id="Trazado_1220134" data-name="Trazado 1220134" d="M23.235,376.1A7.243,7.243,0,0,1,16,368.866a.9.9,0,1,1,1.809,0,5.427,5.427,0,0,0,10.853,0,.9.9,0,1,1,1.809,0A7.243,7.243,0,0,1,23.235,376.1Zm0,0" transform="translate(-14.191 -326.363)"/>
      <path id="Trazado_1220135" data-name="Trazado 1220135" d="M29.566,288.136a.9.9,0,0,1-.9-.9,5.427,5.427,0,0,0-10.853,0,.9.9,0,1,1-1.809,0,7.235,7.235,0,0,1,14.471,0A.9.9,0,0,1,29.566,288.136Zm0,0" transform="translate(-14.191 -248.346)"/>
      <path id="Trazado_1220136" data-name="Trazado 1220136" d="M54.331,449.77H48.9a.9.9,0,1,1,0-1.809h5.427a.9.9,0,1,1,0,1.809Zm0,0" transform="translate(-42.573 -397.318)"/>
      <path id="Trazado_1220137" data-name="Trazado 1220137" d="M320.9,355.151a.9.9,0,0,1-.9-.9V345.24a.9.9,0,1,1,1.809,0v9.006A.9.9,0,0,1,320.9,355.151Zm0,0" transform="translate(-283.823 -305.408)"/>
      <path id="Trazado_1220138" data-name="Trazado 1220138" d="M193.184,425.809H176.9a.9.9,0,1,1,0-1.809h16.279a.9.9,0,0,1,0,1.809Zm0,0" transform="translate(-156.103 -376.066)"/>
      <path id="Trazado_1220139" data-name="Trazado 1220139" d="M176.9,355.151a.9.9,0,0,1-.9-.9V345.24a.9.9,0,1,1,1.809,0v9.006A.9.9,0,0,1,176.9,355.151Zm0,0" transform="translate(-156.103 -305.408)"/>
      <path id="Trazado_1220140" data-name="Trazado 1220140" d="M193.184,282.285a.9.9,0,0,1-.9-.9,7.235,7.235,0,1,0-14.471,0,.9.9,0,1,1-1.809,0,9.044,9.044,0,0,1,18.088,0A.9.9,0,0,1,193.184,282.285Zm0,0" transform="translate(-156.103 -241.548)"/>
      <path id="Trazado_1220141" data-name="Trazado 1220141" d="M176.9,452.49a.9.9,0,0,1-.9-.9,3.621,3.621,0,0,1,3.618-3.617.9.9,0,1,1,0,1.809,1.81,1.81,0,0,0-1.809,1.808A.9.9,0,0,1,176.9,452.49Zm0,0" transform="translate(-156.103 -397.325)"/>
      <path id="Trazado_1220142" data-name="Trazado 1220142" d="M203.618,449.825H200.9a.9.9,0,0,1,0-1.809h2.713a.9.9,0,0,1,0,1.809Zm0,0" transform="translate(-177.39 -397.367)"/>
      <path id="Trazado_1220143" data-name="Trazado 1220143" d="M176.9,476.487a.9.9,0,0,1-.9-.9v-2.718a.9.9,0,1,1,1.809,0v2.718A.9.9,0,0,1,176.9,476.487Zm0,0" transform="translate(-156.103 -418.605)"/>
      <path id="Trazado_1220144" data-name="Trazado 1220144" d="M299.618,452.49a.9.9,0,0,1-.9-.9,1.81,1.81,0,0,0-1.809-1.808.9.9,0,0,1,0-1.809,3.621,3.621,0,0,1,3.618,3.617A.9.9,0,0,1,299.618,452.49Zm0,0" transform="translate(-262.536 -397.325)"/>
      <path id="Trazado_1220145" data-name="Trazado 1220145" d="M275.618,449.825H272.9a.9.9,0,1,1,0-1.809h2.713a.9.9,0,0,1,0,1.809Zm0,0" transform="translate(-241.25 -397.367)"/>
      <path id="Trazado_1220146" data-name="Trazado 1220146" d="M320.9,476.487a.9.9,0,0,1-.9-.9v-2.718a.9.9,0,1,1,1.809,0v2.718A.9.9,0,0,1,320.9,476.487Zm0,0" transform="translate(-283.823 -418.605)"/>
      <path id="Trazado_1220147" data-name="Trazado 1220147" d="M193.184,497.809H176.9a.9.9,0,1,1,0-1.809h16.279a.9.9,0,0,1,0,1.809Zm0,0" transform="translate(-156.103 -439.926)"/>
      <path id="Trazado_1220148" data-name="Trazado 1220148" d="M224.9,437.875a.9.9,0,0,1-.9-.9v-1.523a.9.9,0,1,1,1.809,0v1.523A.9.9,0,0,1,224.9,437.875Zm0,0" transform="translate(-198.676 -385.417)"/>
      <path id="Trazado_1220149" data-name="Trazado 1220149" d="M272.9,437.869a.9.9,0,0,1-.9-.9v-1.517a.9.9,0,1,1,1.809,0v1.517A.9.9,0,0,1,272.9,437.869Zm0,0" transform="translate(-241.25 -385.417)"/>
      <path id="Trazado_1220150" data-name="Trazado 1220150" d="M227.619,450.663a.9.9,0,0,1-.286-.047l-2.713-.9a.9.9,0,1,1,.572-1.716l2.713.9a.9.9,0,0,1-.287,1.763Zm0,0" transform="translate(-198.678 -397.307)"/>
      <path id="Trazado_1220151" data-name="Trazado 1220151" d="M248.905,450.662a.9.9,0,0,1-.286-1.763l2.713-.9a.9.9,0,1,1,.572,1.716l-2.713.9A.888.888,0,0,1,248.905,450.662Zm0,0" transform="translate(-219.964 -397.306)"/>
      <path id="Trazado_1220152" data-name="Trazado 1220152" d="M32.9,69.458a.9.9,0,0,1-.9-.9V65.959a.9.9,0,1,1,1.809,0v2.594A.9.9,0,0,1,32.9,69.458Zm0,0" transform="translate(-28.382 -57.7)"/>
      <path id="Trazado_1220153" data-name="Trazado 1220153" d="M144.9,64.967a.9.9,0,0,1-.9-.9V60.9a.9.9,0,1,1,1.809,0v3.166A.9.9,0,0,1,144.9,64.967Zm0,0" transform="translate(-127.721 -53.21)"/>
      <path id="Trazado_1220154" data-name="Trazado 1220154" d="M38.471,8.591a.9.9,0,0,1-.9-.9,5.879,5.879,0,0,0-11.757,0,.9.9,0,1,1-1.809,0,7.688,7.688,0,0,1,15.375,0A.9.9,0,0,1,38.471,8.591Zm0,0" transform="translate(-21.287)"/>
      <path id="Trazado_1220155" data-name="Trazado 1220155" d="M38.475,55.356A.9.9,0,0,1,37.756,55c-1.747-2.281-2.22-2.093-3.992-1.391a15.227,15.227,0,0,1-9,.942.9.9,0,1,1,.283-1.785,13.485,13.485,0,0,0,8.048-.838c2.18-.865,3.642-1.229,6.094,1.973a.9.9,0,0,1-.717,1.454Zm0,0" transform="translate(-21.29 -45.525)"/>
      <path id="Trazado_1220156" data-name="Trazado 1220156" d="M112.907,24.725a.9.9,0,0,1-.81-1.3l1.809-3.682a.9.9,0,1,1,1.623.8l-1.809,3.682A.9.9,0,0,1,112.907,24.725Zm0,0" transform="translate(-99.341 -17.059)"/>
      <path id="Trazado_1220157" data-name="Trazado 1220157" d="M121.044,161.774l-8.141,0a.9.9,0,0,1,0-1.809h0l8.14,0a.9.9,0,0,1,0,1.809Zm0,0" transform="translate(-99.338 -141.877)"/>
      <path id="Trazado_1220158" data-name="Trazado 1220158" d="M64.9,142.78a.9.9,0,0,1-.9-.9v-2.428a.9.9,0,0,1,1.809,0v2.428A.9.9,0,0,1,64.9,142.78Zm0,0" transform="translate(-56.765 -122.881)"/>
      <path id="Trazado_1220159" data-name="Trazado 1220159" d="M112.9,142.773a.9.9,0,0,1-.9-.9v-2.421a.9.9,0,0,1,1.809,0v2.421A.9.9,0,0,1,112.9,142.773Zm0,0" transform="translate(-99.338 -122.88)"/>
      <path id="Trazado_1220160" data-name="Trazado 1220160" d="M39.235,96.1A7.243,7.243,0,0,1,32,88.866a.9.9,0,0,1,1.809,0,5.427,5.427,0,0,0,10.853,0,.9.9,0,0,1,1.809,0A7.243,7.243,0,0,1,39.235,96.1Zm0,0" transform="translate(-28.382 -78.017)"/>
      <path id="Trazado_1220161" data-name="Trazado 1220161" d="M72.9,162.674a.9.9,0,0,1-.406-1.714l1.809-.9a.9.9,0,1,1,.809,1.618l-1.809.9A.9.9,0,0,1,72.9,162.674Zm0,0" transform="translate(-63.854 -141.877)"/>
      <path id="Trazado_1220162" data-name="Trazado 1220162" d="M104.9,162.672a.9.9,0,0,1-.639-1.544l.9-.9a.9.9,0,0,1,1.279,1.279l-.9.9A.9.9,0,0,1,104.9,162.672Zm0,0" transform="translate(-92.24 -141.874)"/>
      <path id="Trazado_1220163" data-name="Trazado 1220163" d="M65.806,162.672a.9.9,0,0,1-.639-.265l-.9-.9a.9.9,0,0,1,1.279-1.279l.9.9a.9.9,0,0,1-.639,1.544Zm0,0" transform="translate(-56.762 -141.874)"/>
      <path id="Trazado_1220164" data-name="Trazado 1220164" d="M90.713,162.681a.908.908,0,0,1-.4-.095l-1.809-.9a.9.9,0,1,1,.809-1.618l1.809.9a.9.9,0,0,1-.406,1.713Zm0,0" transform="translate(-78.052 -141.884)"/>
      <path id="Trazado_1220165" data-name="Trazado 1220165" d="M24.9,62.25a.9.9,0,0,1-.9-.9V60.9a.9.9,0,1,1,1.809,0v.449A.9.9,0,0,1,24.9,62.25Zm0,0" transform="translate(-21.287 -53.21)"/>
    </g>
  </g>
</svg>
