<svg xmlns="http://www.w3.org/2000/svg" xmlns:xlink="http://www.w3.org/1999/xlink" width="295" height="309" viewBox="0 0 295 309">
  <defs>
    <clipPath id="clip-path">
      <rect id="Rectángulo_424200" data-name="Rectángulo 424200" width="295" height="309" fill="#fff" stroke="#707070" stroke-width="1"/>
    </clipPath>
    <clipPath id="clip-path-2">
      <path id="Trazado_1219766" data-name="Trazado 1219766" d="M183.382,372.262C166.942,386.451,138.119,380,138.119,380s-2.169-29.457,14.271-43.646,45.263-7.736,45.263-7.736S199.822,358.073,183.382,372.262Z" transform="translate(-138.024 -327.153)"/>
    </clipPath>
    <clipPath id="clip-path-3">
      <path id="Trazado_1219768" data-name="Trazado 1219768" d="M323,330.273c13.567,16.711,42.116,16.008,42.116,16.008s6.552-27.8-7.015-44.506-42.116-16.008-42.116-16.008S309.431,313.562,323,330.273Z" transform="translate(-314.402 -285.762)"/>
    </clipPath>
    <clipPath id="clip-path-4">
      <path id="Trazado_1219771" data-name="Trazado 1219771" d="M351.613,349.487c13.533,5.3,18.716,24.376,18.716,24.376s-16.758,10.484-30.292,5.184-18.716-24.376-18.716-24.376S338.079,344.187,351.613,349.487Z" transform="translate(-321.321 -347.991)"/>
    </clipPath>
  </defs>
  <g id="Enmascarar_grupo_1211477" data-name="Enmascarar grupo 1211477" clip-path="url(#clip-path)">
    <g id="Grupo_1241738" data-name="Grupo 1241738" transform="translate(2.079 1.262)">
      <g id="OBJECTS" transform="translate(0)">
        <g id="Grupo_1241681" data-name="Grupo 1241681" transform="translate(0 0)">
          <path id="Trazado_1219757" data-name="Trazado 1219757" d="M34.753,127.342H88.3c8.074,0,8.069-9.274,1.086-11.726C82.638,113.247,76.7,118.76,76.7,118.76S74.757,96.194,56.324,98.843c-14.532,2.089-13.687,16.6-13.687,16.6s-2.991-5.97-10.83-3.711C23.629,114.084,24.515,127.342,34.753,127.342Z" transform="translate(198.425 -61.117)" fill="#a6dfe2"/>
          <path id="Trazado_1219758" data-name="Trazado 1219758" d="M112.544,239.944h45.391c6.845,0,6.839-7.861.92-9.94-5.719-2.009-10.751,2.665-10.751,2.665s-1.648-19.129-17.273-16.883c-12.318,1.77-11.6,14.068-11.6,14.068s-2.536-5.061-9.18-3.146C103.114,228.705,103.866,239.944,112.544,239.944Z" transform="translate(71.596 -92.094)" fill="#a6dfe2"/>
          <path id="Trazado_1219759" data-name="Trazado 1219759" d="M295.188,60.083h36.875c5.56,0,5.63-6.323.694-7.594a10.286,10.286,0,0,0-8.681,1.684s-1.339-15.54-14.033-13.716c-10.007,1.439-9.426,11.428-9.426,11.428s-2.06-4.111-7.458-2.555C287.528,50.953,288.139,60.083,295.188,60.083Z" transform="translate(-241.834 -40.308)" fill="#a6dfe2"/>
          <path id="Trazado_1219760" data-name="Trazado 1219760" d="M362.5,116.44h70.591c10.644,0,10.777-12.1,1.329-14.538a19.693,19.693,0,0,0-16.619,3.224S415.24,75.376,390.94,78.869c-19.157,2.753-18.044,21.878-18.044,21.878s-3.943-7.87-14.277-4.893C347.837,98.961,349.006,116.44,362.5,116.44Z" transform="translate(-351.358 -41.074)" fill="#a6dfe2"/>
        </g>
        <g id="Grupo_1241735" data-name="Grupo 1241735" transform="translate(16.146 4.522)">
          <g id="Grupo_1241683" data-name="Grupo 1241683" transform="translate(0 278.784)">
            <g id="Grupo_1241682" data-name="Grupo 1241682">
              <ellipse id="Elipse_11551" data-name="Elipse 11551" cx="31.094" cy="6.449" rx="31.094" ry="6.449" transform="translate(168.942)" fill="#66aaad"/>
              <ellipse id="Elipse_11552" data-name="Elipse 11552" cx="122.443" cy="8.765" rx="122.443" ry="8.765" transform="translate(0 6.821)" fill="#66aaad"/>
            </g>
          </g>
          <g id="Grupo_1241701" data-name="Grupo 1241701" transform="translate(10.873)">
            <ellipse id="Elipse_11553" data-name="Elipse 11553" cx="71.964" cy="14.474" rx="71.964" ry="14.474" transform="translate(26.925 58.162)" fill="#d6a92b"/>
            <g id="Grupo_1241684" data-name="Grupo 1241684" transform="translate(50.784)">
              <path id="Trazado_1219761" data-name="Trazado 1219761" d="M217.1,126.547a9.35,9.35,0,0,1,1.786-9.026l-16.264,2.315,2.317,16.278a9.367,9.367,0,1,0,1.751,12.308l2.317,16.278,36.722-5.226a8.223,8.223,0,0,0,6.983-9.3l-5.226-36.722-16.355,2.328a9.366,9.366,0,1,1-14.03,10.767Z" transform="translate(-157.675 -69.565)" fill="#5fa29c"/>
              <path id="Trazado_1219762" data-name="Trazado 1219762" d="M287.35,131.911a9.35,9.35,0,0,1,9.026,1.786l-2.315-16.265-16.278,2.317a9.367,9.367,0,1,0-12.307,1.751L249.2,123.816l5.226,36.722a8.223,8.223,0,0,0,9.3,6.983l36.722-5.226-2.328-16.355a9.366,9.366,0,1,1-10.767-14.029Z" transform="translate(-249.197 -67.15)" fill="#fff"/>
              <path id="Trazado_1219763" data-name="Trazado 1219763" d="M209.857,89.451a9.35,9.35,0,0,1-9.026-1.786l2.314,16.264,16.278-2.317a9.367,9.367,0,1,0,12.308-1.751l16.278-2.317-5.226-36.722a8.223,8.223,0,0,0-9.3-6.983l-36.722,5.226,2.328,16.355a9.366,9.366,0,1,1,10.768,14.03Z" transform="translate(-158.212 -53.757)" fill="#fff"/>
            </g>
            <path id="Trazado_1219764" data-name="Trazado 1219764" d="M307.235,165.445l-2.347,8.916-30.049-3.1,2.644-13.045Z" transform="translate(-224.054 -81.42)" fill="#d58136"/>
            <g id="Grupo_1241700" data-name="Grupo 1241700" transform="translate(0 69.778)">
              <g id="Grupo_1241694" data-name="Grupo 1241694" transform="translate(0 100.788)">
                <g id="Grupo_1241687" data-name="Grupo 1241687" transform="translate(124.041 30.43)">
                  <path id="Trazado_1219765" data-name="Trazado 1219765" d="M183.382,372.262C166.942,386.451,138.119,380,138.119,380s-2.169-29.457,14.271-43.646,45.263-7.736,45.263-7.736S199.822,358.073,183.382,372.262Z" transform="translate(-138.024 -327.153)" fill="#5fa29c"/>
                  <g id="Grupo_1241686" data-name="Grupo 1241686">
                    <g id="Grupo_1241685" data-name="Grupo 1241685" clip-path="url(#clip-path-2)">
                      <line id="Línea_709" data-name="Línea 709" y1="54.081" x2="62.663" transform="translate(-1.419 0.173)" fill="none" stroke="#77bcb4" stroke-miterlimit="10" stroke-width="1.137"/>
                      <line id="Línea_710" data-name="Línea 710" x2="1.917" y2="30.92" transform="translate(10.479 11.411)" fill="none" stroke="#77bcb4" stroke-miterlimit="10" stroke-width="1.137"/>
                      <line id="Línea_711" data-name="Línea 711" x2="1.917" y2="30.921" transform="translate(32.274 -7.4)" fill="none" stroke="#77bcb4" stroke-miterlimit="10" stroke-width="1.137"/>
                      <line id="Línea_712" data-name="Línea 712" x2="31.498" y2="1.285" transform="translate(23.872 32.426)" fill="none" stroke="#77bcb4" stroke-miterlimit="10" stroke-width="1.137"/>
                      <line id="Línea_713" data-name="Línea 713" x2="21.287" y2="0.574" transform="translate(38.416 19.772)" fill="none" stroke="#77bcb4" stroke-miterlimit="10" stroke-width="1.137"/>
                    </g>
                  </g>
                </g>
                <g id="Grupo_1241690" data-name="Grupo 1241690" transform="translate(1.8)">
                  <path id="Trazado_1219767" data-name="Trazado 1219767" d="M323,330.273c13.567,16.711,42.116,16.008,42.116,16.008s6.552-27.8-7.015-44.506-42.116-16.008-42.116-16.008S309.431,313.562,323,330.273Z" transform="translate(-314.402 -285.762)" fill="#4e938b"/>
                  <g id="Grupo_1241689" data-name="Grupo 1241689" transform="translate(0)">
                    <g id="Grupo_1241688" data-name="Grupo 1241688" clip-path="url(#clip-path-3)">
                      <line id="Línea_714" data-name="Línea 714" x1="51.714" y1="63.695" transform="translate(0.233 -1.54)" fill="none" stroke="#72bfbb" stroke-miterlimit="10" stroke-width="1.217"/>
                      <line id="Línea_715" data-name="Línea 715" x1="6.534" y2="29.245" transform="translate(40.546 18.868)" fill="none" stroke="#72bfbb" stroke-miterlimit="10" stroke-width="1.217"/>
                      <line id="Línea_716" data-name="Línea 716" x1="6.534" y2="29.245" transform="translate(22.558 -3.286)" fill="none" stroke="#72bfbb" stroke-miterlimit="10" stroke-width="1.217"/>
                      <line id="Línea_717" data-name="Línea 717" x1="30.323" y1="4.754" transform="translate(0.752 31.693)" fill="none" stroke="#72bfbb" stroke-miterlimit="10" stroke-width="1.217"/>
                      <line id="Línea_718" data-name="Línea 718" x1="20.447" y1="3.494" transform="translate(-1.36 18.072)" fill="none" stroke="#72bfbb" stroke-miterlimit="10" stroke-width="1.217"/>
                    </g>
                  </g>
                </g>
                <g id="Grupo_1241693" data-name="Grupo 1241693" transform="translate(0 45.749)">
                  <path id="Trazado_1219769" data-name="Trazado 1219769" d="M351.613,349.487c13.533,5.3,18.716,24.376,18.716,24.376s-16.758,10.484-30.292,5.184-18.716-24.376-18.716-24.376S338.079,344.187,351.613,349.487Z" transform="translate(-321.321 -347.991)" fill="#243f5e"/>
                  <g id="Grupo_1241692" data-name="Grupo 1241692">
                    <path id="Trazado_1219770" data-name="Trazado 1219770" d="M351.613,349.487c13.533,5.3,18.716,24.376,18.716,24.376s-16.758,10.484-30.292,5.184-18.716-24.376-18.716-24.376S338.079,344.187,351.613,349.487Z" transform="translate(-321.321 -347.991)" fill="#5fa29c"/>
                    <g id="Grupo_1241691" data-name="Grupo 1241691" clip-path="url(#clip-path-4)">
                      <line id="Línea_719" data-name="Línea 719" x1="51.583" y1="20.2" transform="translate(-1.269 6.128)" fill="none" stroke="#77bcb4" stroke-miterlimit="10" stroke-width="1.137"/>
                      <line id="Línea_720" data-name="Línea 720" y1="10.792" x2="17.704" transform="translate(21.239 21.874)" fill="none" stroke="#77bcb4" stroke-miterlimit="10" stroke-width="1.137"/>
                      <line id="Línea_721" data-name="Línea 721" y1="10.792" x2="17.703" transform="translate(3.297 14.848)" fill="none" stroke="#77bcb4" stroke-miterlimit="10" stroke-width="1.137"/>
                      <line id="Línea_722" data-name="Línea 722" x1="9.077" y1="19.046" transform="translate(20.417 -0.871)" fill="none" stroke="#77bcb4" stroke-miterlimit="10" stroke-width="1.137"/>
                      <line id="Línea_723" data-name="Línea 723" x1="6.309" y1="12.78" transform="translate(11.153 0.739)" fill="none" stroke="#77bcb4" stroke-miterlimit="10" stroke-width="1.137"/>
                    </g>
                  </g>
                </g>
              </g>
              <g id="Grupo_1241699" data-name="Grupo 1241699" transform="translate(15.954)">
                <path id="Trazado_1219772" data-name="Trazado 1219772" d="M168.378,268.462l-12.852,95.024h107.1s-3.832-23.959-6.527-44.3c-1.122-8.537-2.056-16.434-2.414-21.669,0-.078-.015-.156-.015-.234,21.809-1.558,29.6-5.452,29.6-5.452V241.98l22.588-6.231s-10.515-33.1-10.126-40.892c0-7.4-3.5-42.9-3.5-42.9-10.1,19.637-148.314,18.058-141.768-3.284C117.593,200.807,159.661,259.116,168.378,268.462Z" transform="translate(-138.092 -148.669)" fill="#ffdb69"/>
                <g id="Grupo_1241695" data-name="Grupo 1241695" transform="translate(31.603 48.035)">
                  <path id="Trazado_1219773" data-name="Trazado 1219773" d="M315.164,216.007a33.328,33.328,0,0,1-3.575-.637c-1.17-.262-2.311-.616-3.508-.911a17.57,17.57,0,0,0-1.887-.392,5.323,5.323,0,0,0-2.245.135,3.959,3.959,0,0,0-2.07,1.5,6.805,6.805,0,0,0-.973,2,18.924,18.924,0,0,0-.727,3.842c-.115,1.238-.2,2.479-.237,3.722a55.552,55.552,0,0,0,.3,7.451,47.093,47.093,0,0,0,1.375,7.371,22.085,22.085,0,0,0,3.341,6.9,18.985,18.985,0,0,0,2.562,2.838,21.332,21.332,0,0,0,2.977,2.3,33.215,33.215,0,0,0,6.606,3.261,56.7,56.7,0,0,1-5.765-4.362,23.079,23.079,0,0,1-4.5-5.3,22.3,22.3,0,0,1-2.487-6.357c-.14-.556-.23-1.13-.349-1.692-.1-.577-.19-1.166-.276-1.75-.176-1.169-.31-2.344-.421-3.52a67.708,67.708,0,0,1-.29-7.078q.012-1.772.132-3.542a21.273,21.273,0,0,1,.389-3.335,5.253,5.253,0,0,1,.462-1.323,1.51,1.51,0,0,1,.719-.725,3.314,3.314,0,0,1,1.347-.24,15.727,15.727,0,0,1,1.72.057A23.646,23.646,0,0,0,315.164,216.007Z" transform="translate(-299.923 -214.007)" fill="#5fa29c"/>
                </g>
                <g id="Grupo_1241696" data-name="Grupo 1241696" transform="translate(108.175 39.957)">
                  <path id="Trazado_1219774" data-name="Trazado 1219774" d="M209.882,211.2a61.1,61.1,0,0,1-7.387.553,26.322,26.322,0,0,1-6.925-.778,18.2,18.2,0,0,1-6.147-2.882,31.54,31.54,0,0,1-5.245-5.071,14.382,14.382,0,0,0,3.622,6.906,14.676,14.676,0,0,0,6.984,4.061,18.827,18.827,0,0,0,15.1-2.789Z" transform="translate(-184.179 -203.019)" fill="#5fa29c"/>
                </g>
                <g id="Grupo_1241697" data-name="Grupo 1241697" transform="translate(108.176 110.446)">
                  <path id="Trazado_1219775" data-name="Trazado 1219775" d="M205.813,309.025A48.162,48.162,0,0,1,195.62,310.6a33.136,33.136,0,0,1-9.868-1.018,30.636,30.636,0,0,1-9-4.085,55.881,55.881,0,0,1-7.938-6.6,26.069,26.069,0,0,0,6.454,8.549,24.305,24.305,0,0,0,9.682,5.146,25.652,25.652,0,0,0,10.934.434A24.534,24.534,0,0,0,205.813,309.025Z" transform="translate(-168.816 -298.899)" fill="#5fa29c"/>
                </g>
                <path id="Trazado_1219776" data-name="Trazado 1219776" d="M205.77,320.894c14.176,31.732,63.028,43.9,63.028,43.9-1.122-8.537-2.056-16.434-2.414-21.669C235.524,342.812,215.958,329.477,205.77,320.894Z" transform="translate(-150.793 -194.277)" fill="#f0d054"/>
                <g id="Grupo_1241698" data-name="Grupo 1241698" transform="translate(47.292 104.604)">
                  <path id="Trazado_1219777" data-name="Trazado 1219777" d="M277.359,334.961a165.862,165.862,0,0,1-22.087-3.6c-3.6-.879-7.183-1.839-10.669-3.051a81.644,81.644,0,0,1-10.208-4.163,54.315,54.315,0,0,1-17.475-12.915l-.46-.507-.421-.537-.842-1.077a13.1,13.1,0,0,1-2.476-4.6c-.249-.824-.454-1.786-.69-2.681-.945-3.634-1.881-7.27-2.956-10.878.4,3.744.931,7.461,1.456,11.179.148.939.257,1.828.457,2.824a15.323,15.323,0,0,0,.9,2.86,13.2,13.2,0,0,0,1.478,2.6l.815,1.195.41.6.448.567a49.733,49.733,0,0,0,18,14.178,78.527,78.527,0,0,0,10.669,4.163,89.963,89.963,0,0,0,11.087,2.624A92.422,92.422,0,0,0,277.359,334.961Z" transform="translate(-209.076 -290.953)" fill="#5fa29c"/>
                </g>
              </g>
            </g>
          </g>
          <g id="Grupo_1241734" data-name="Grupo 1241734" transform="translate(22.28 235.806)">
            <g id="Grupo_1241714" data-name="Grupo 1241714" transform="translate(0 20.778)">
              <g id="Grupo_1241707" data-name="Grupo 1241707" transform="translate(3.117 14.306)">
                <path id="Trazado_1219778" data-name="Trazado 1219778" d="M315.679,440.357c0,1.47-1.554,2.658-3.468,2.658H209.378a.5.5,0,0,0-.543.418V446.4a.5.5,0,0,0,.543.418H322.54c1.922,0,3.476-1.195,3.476-2.666v-19.27c0-1.47-1.554-2.658-3.476-2.658H209.378a.49.49,0,0,0-.543.418v2.966c0,.226.242.409.543.409H312.211c1.914,0,3.468,1.195,3.468,2.666Z" transform="translate(-208.835 -422.223)" fill="#599992"/>
                <path id="Trazado_1219779" data-name="Trazado 1219779" d="M216.565,427.389H319.956a3.652,3.652,0,0,1,3.652,3.652v9.692a3.652,3.652,0,0,1-3.652,3.652H216.565v-17Z" transform="translate(-212.11 -423.591)" fill="#cde4ed"/>
                <g id="Grupo_1241702" data-name="Grupo 1241702" transform="translate(63.264 14.962)">
                  <rect id="Rectángulo_424205" data-name="Rectángulo 424205" width="48.234" height="1.225" fill="#cde4ed"/>
                </g>
                <g id="Grupo_1241703" data-name="Grupo 1241703" transform="translate(32.112 11.592)">
                  <rect id="Rectángulo_424206" data-name="Rectángulo 424206" width="79.386" height="1.225" fill="#cde4ed"/>
                </g>
                <g id="Grupo_1241704" data-name="Grupo 1241704" transform="translate(11.267 8.508)">
                  <rect id="Rectángulo_424207" data-name="Rectángulo 424207" width="100.23" height="1.225" fill="#cde4ed"/>
                </g>
                <g id="Grupo_1241705" data-name="Grupo 1241705" transform="translate(20.578 5.214)">
                  <rect id="Rectángulo_424208" data-name="Rectángulo 424208" width="79.559" height="1.225" fill="#cde4ed"/>
                </g>
                <g id="Grupo_1241706" data-name="Grupo 1241706" transform="translate(18.216 14.962)">
                  <rect id="Rectángulo_424209" data-name="Rectángulo 424209" width="27.607" height="1.225" fill="#cde4ed"/>
                </g>
              </g>
              <g id="Grupo_1241713" data-name="Grupo 1241713" transform="translate(0)">
                <path id="Trazado_1219780" data-name="Trazado 1219780" d="M210.438,404.31v11.214c0,.852.877,1.546,2.674,1.546H329.048c.284,0,.509-.109.509-.243v-1.721c0-.134-.226-.243-.509-.243H222.78c-1.8,0-3.242-.693-3.242-1.546v-6.794c0-.861,1.445-1.554,3.242-1.554H329.048c.284,0,.509-.109.509-.243v-1.721c0-.134-.226-.243-.509-.243H213.112C211.316,402.764,210.438,403.458,210.438,404.31Z" transform="translate(-210.438 -402.764)" fill="#72bfbb"/>
                <path id="Trazado_1219781" data-name="Trazado 1219781" d="M216.109,408.865v3.694a3.037,3.037,0,0,0,.067.618,3.092,3.092,0,0,0,3.025,2.482H328.569v-9.894H219.2a3.082,3.082,0,0,0-3.008,2.423A2.582,2.582,0,0,0,216.109,408.865Z" transform="translate(-213.619 -403.559)" fill="#cde4ed"/>
                <g id="Grupo_1241708" data-name="Grupo 1241708" transform="translate(2.489 4.634)">
                  <rect id="Rectángulo_424210" data-name="Rectángulo 424210" width="46.153" height="1.225" fill="#cde4ed"/>
                </g>
                <g id="Grupo_1241709" data-name="Grupo 1241709" transform="translate(2.489 6.595)">
                  <rect id="Rectángulo_424211" data-name="Rectángulo 424211" width="75.961" height="1.225" fill="#cde4ed"/>
                </g>
                <g id="Grupo_1241710" data-name="Grupo 1241710" transform="translate(2.489 8.391)">
                  <rect id="Rectángulo_424212" data-name="Rectángulo 424212" width="105.943" height="1.225" fill="#cde4ed"/>
                </g>
                <g id="Grupo_1241711" data-name="Grupo 1241711" transform="translate(13.36 10.307)">
                  <rect id="Rectángulo_424213" data-name="Rectángulo 424213" width="86.164" height="1.225" fill="#cde4ed"/>
                </g>
                <g id="Grupo_1241712" data-name="Grupo 1241712" transform="translate(65.33 4.634)">
                  <rect id="Rectángulo_424214" data-name="Rectángulo 424214" width="36.452" height="1.225" fill="#cde4ed"/>
                </g>
              </g>
            </g>
            <g id="Grupo_1241733" data-name="Grupo 1241733" transform="translate(110.337)">
              <g id="Grupo_1241717" data-name="Grupo 1241717" transform="translate(0 14.677)">
                <g id="Grupo_1241715" data-name="Grupo 1241715" transform="translate(22.566 0.015)">
                  <path id="Trazado_1219782" data-name="Trazado 1219782" d="M183.961,394.486l-.016,13.867.71-1.333.712,1.334.71-1.333.707,1.335.71-1.333.712,1.334.709-1.333.707,1.334.016-13.867Z" transform="translate(-183.945 -394.486)" fill="#a1815d"/>
                </g>
                <g id="Grupo_1241716" data-name="Grupo 1241716">
                  <path id="Trazado_1219783" data-name="Trazado 1219783" d="M208.835,441.663h6.484c1.922,0,3.476-1.195,3.476-2.666v-19.27c0-1.47-1.554-2.658-3.476-2.658h1.788c.284,0,.509-.109.509-.243v-1.721c0-.134-.226-.243-.509-.243h-3.66v-9.894h3.66c.284,0,.509-.109.509-.243v-1.721c0-.134-.226-.243-.509-.243h-8.222v2.206l-.017,9.894v2.206l-.008,3.794V426.8l-.008,1.855v4.6l-.008,4.6Z" transform="translate(-208.835 -396.663)" fill="#cde4ed"/>
                  <path id="Trazado_1219784" data-name="Trazado 1219784" d="M164.79,441.717l32.088.033,5.95.009.033-33.417.017-12.56-38.03-.042Z" transform="translate(-160.537 -394.803)" fill="#b0dee3"/>
                  <rect id="Rectángulo_424215" data-name="Rectángulo 424215" width="38.032" height="8.315" transform="matrix(-1, -0.001, 0.001, -1, 42.335, 9.297)" fill="#cde4ed"/>
                  <rect id="Rectángulo_424216" data-name="Rectángulo 424216" width="39.285" height="8.311" transform="matrix(-1, -0.001, 0.001, -1, 43.286, 8.354)" fill="#b0dee3"/>
                  <path id="Trazado_1219785" data-name="Trazado 1219785" d="M187.1,394.482l-.015,13.868.71-1.334.712,1.334.709-1.332.707,1.334.71-1.333.712,1.334.709-1.333.707,1.334.015-13.867Z" transform="translate(-166.829 -394.47)" fill="#72bfbb"/>
                </g>
              </g>
              <g id="Grupo_1241732" data-name="Grupo 1241732" transform="translate(36.325)">
                <g id="Grupo_1241718" data-name="Grupo 1241718" transform="translate(0 28.216)">
                  <path id="Trazado_1219786" data-name="Trazado 1219786" d="M164.813,412.889l.017,33.4,5.95.009.033-33.417Z" transform="translate(-164.813 -412.881)" fill="#cde4ed"/>
                </g>
                <g id="Grupo_1241730" data-name="Grupo 1241730" transform="translate(4.877)">
                  <g id="Grupo_1241729" data-name="Grupo 1241729">
                    <g id="Grupo_1241719" data-name="Grupo 1241719" transform="translate(1.543)">
                      <path id="Trazado_1219787" data-name="Trazado 1219787" d="M152.9,387.286a15.163,15.163,0,0,0-7.154-10.531,15.606,15.606,0,0,0-7.413-2.253,17.168,17.168,0,0,0-6.658,1.378,15.082,15.082,0,0,0-8.207,7.978,16.12,16.12,0,0,0-.507,9.572c.7,3.076,2.425,6.234,1.29,9.44-.324.915-1.264,1.917-.982,2.939.335,1.217,1.732,1.607,2.719,2.127q1.76.929,3.518,1.862c.84.446,2.054,1.4,3.075,1.015,1.008-.329,1.325-1.666,1.909-2.442,1.542-2.046,4.252-2.919,6.634-3.511a16.313,16.313,0,0,0,7.314-3.742A14.783,14.783,0,0,0,152.9,387.286Z" transform="translate(-122.477 -374.502)" fill="#f0d054"/>
                    </g>
                    <path id="Trazado_1219788" data-name="Trazado 1219788" d="M137.63,414.18s3.908-7.972,5.608-12a17.237,17.237,0,0,0,1.277-3.98c.221-1.174.507-3.763-1.166-4.036-1.976-.323-1.8,2.551-.973,3.6a5.068,5.068,0,0,0,3.522,1.521,5.4,5.4,0,0,0,4.36-3.483,1.272,1.272,0,0,0-2.052-1.377c-.928.818-2.092,5-.182,6.165a4.724,4.724,0,0,0,3.4.521c2.076-.426,2.558-3.847-.085-2.894-1.879.678-3.4,2.681-4.393,4.318-2.709,4.482-4.715,8.072-7.339,12.6" transform="translate(-132.042 -379.692)" fill="none" stroke="#fff" stroke-miterlimit="10" stroke-width="1.043"/>
                    <rect id="Rectángulo_424217" data-name="Rectángulo 424217" width="8.992" height="0.887" transform="translate(2.714 32.107) rotate(28.254)" fill="#649de1"/>
                    <path id="Trazado_1219789" data-name="Trazado 1219789" d="M161.073,426.35a.523.523,0,0,1,.33-.58l.077-.026a.525.525,0,0,0,.332-.57l-.026-.143a.521.521,0,0,1,.357-.577.521.521,0,0,0,.359-.565l-.06-.4a.465.465,0,0,0-.24-.34l-7.871-4.229a.468.468,0,0,0-.416-.013l-.364.169a.522.522,0,0,0-.273.612.521.521,0,0,1-.285.616l-.134.057a.523.523,0,0,0-.292.591l.021.079a.524.524,0,0,1-.3.6l-.1.041a.521.521,0,0,0-.3.608l.015.051a.961.961,0,0,0,.459.582l7.6,4.085a.962.962,0,0,0,.739.062l.051-.015a.522.522,0,0,0,.343-.584Z" transform="translate(-151.869 -386.251)" fill="#87c0ec"/>
                    <g id="Grupo_1241727" data-name="Grupo 1241727" transform="translate(1.326 33.904)">
                      <g id="Grupo_1241720" data-name="Grupo 1241720" transform="translate(4.683 1.971)">
                        <path id="Trazado_1219790" data-name="Trazado 1219790" d="M156.683,425.533a.151.151,0,0,0,.04-.046.147.147,0,0,0-.06-.2L153,423.317a.147.147,0,1,0-.139.258l3.668,1.971A.146.146,0,0,0,156.683,425.533Z" transform="translate(-152.779 -423.3)" fill="#649de1"/>
                      </g>
                      <g id="Grupo_1241721" data-name="Grupo 1241721" transform="translate(1.015)">
                        <path id="Trazado_1219791" data-name="Trazado 1219791" d="M162.262,421.973a.151.151,0,0,0,.04-.046.147.147,0,0,0-.06-.2l-2.034-1.092a.147.147,0,0,0-.139.258l2.034,1.092A.148.148,0,0,0,162.262,421.973Z" transform="translate(-159.992 -420.618)" fill="#649de1"/>
                      </g>
                      <g id="Grupo_1241722" data-name="Grupo 1241722" transform="translate(0 0.612)">
                        <path id="Trazado_1219792" data-name="Trazado 1219792" d="M162.459,424.57a.163.163,0,0,0,.04-.046.147.147,0,0,0-.06-.2l-5.316-2.857a.147.147,0,1,0-.139.258l5.316,2.857A.146.146,0,0,0,162.459,424.57Z" transform="translate(-156.907 -421.451)" fill="#649de1"/>
                      </g>
                      <g id="Grupo_1241723" data-name="Grupo 1241723" transform="translate(6.313 4.005)">
                        <path id="Trazado_1219793" data-name="Trazado 1219793" d="M155.222,427.171a.161.161,0,0,0,.04-.046.147.147,0,0,0-.06-.2l-1.568-.843a.147.147,0,1,0-.139.258l1.568.843A.146.146,0,0,0,155.222,427.171Z" transform="translate(-153.418 -426.067)" fill="#649de1"/>
                      </g>
                      <g id="Grupo_1241724" data-name="Grupo 1241724" transform="translate(0.049 1.797)">
                        <path id="Trazado_1219794" data-name="Trazado 1219794" d="M163.283,424.853a.152.152,0,0,0,.04-.046.147.147,0,0,0-.06-.2l-2.844-1.528a.147.147,0,1,0-.139.258l2.844,1.528A.146.146,0,0,0,163.283,424.853Z" transform="translate(-160.203 -423.063)" fill="#649de1"/>
                      </g>
                      <g id="Grupo_1241725" data-name="Grupo 1241725" transform="translate(4.754 4.325)">
                        <path id="Trazado_1219795" data-name="Trazado 1219795" d="M157.5,427.378a.161.161,0,0,0,.04-.046.147.147,0,0,0-.06-.2l-1.143-.615a.147.147,0,0,0-.139.258l1.143.615A.148.148,0,0,0,157.5,427.378Z" transform="translate(-156.117 -426.501)" fill="#649de1"/>
                      </g>
                      <g id="Grupo_1241726" data-name="Grupo 1241726" transform="translate(3.558 1.367)">
                        <path id="Trazado_1219796" data-name="Trazado 1219796" d="M159.387,422.961a.151.151,0,0,0,.04-.046.147.147,0,0,0-.06-.2l-.412-.221a.147.147,0,1,0-.139.258l.412.221A.147.147,0,0,0,159.387,422.961Z" transform="translate(-158.739 -422.477)" fill="#649de1"/>
                      </g>
                    </g>
                    <g id="Grupo_1241728" data-name="Grupo 1241728" transform="translate(2.29 1.546)">
                      <path id="Trazado_1219797" data-name="Trazado 1219797" d="M152.155,387.843A15.162,15.162,0,0,0,145,377.312c-.443-.249-.9-.485-1.364-.707a14.022,14.022,0,0,1,4.849,18.613c-3.142,5.432-7.958,7.922-14.835,7.34a3.694,3.694,0,0,0-3.6,1.437c-.836,1.144-1.119,2.606-2.038,3.7a1.178,1.178,0,0,1-.506.393,1.282,1.282,0,0,1-.6.01,9.363,9.363,0,0,1-4.439-2.035,1.446,1.446,0,0,0,.046.3c.335,1.217,1.732,1.607,2.719,2.127q1.76.929,3.518,1.862c.84.445,2.054,1.4,3.075,1.015,1.008-.329,1.325-1.666,1.909-2.442,1.542-2.046,4.252-2.919,6.634-3.511a16.312,16.312,0,0,0,7.314-3.742A14.784,14.784,0,0,0,152.155,387.843Z" transform="translate(-122.477 -376.605)" fill="#f0d054"/>
                    </g>
                  </g>
                </g>
                <g id="Grupo_1241731" data-name="Grupo 1241731" transform="translate(2.012 28.841)">
                  <rect id="Rectángulo_424218" data-name="Rectángulo 424218" width="32.796" height="33.472" transform="matrix(-0.001, -1, 1, -0.001, 0.036, 32.833)" fill="#b0dee3"/>
                </g>
              </g>
            </g>
          </g>
        </g>
        <g id="Grupo_1241736" data-name="Grupo 1241736" transform="translate(58.353 58.682)">
          <path id="Trazado_1219798" data-name="Trazado 1219798" d="M293.546,151.92c15.965,1.178,36.53,15.393,25.537,43.268-.1,2.45-1.755,4.02-3.25,3.372s.387-5.1.387-5.1c-.246-21.67-4.782-25.924-13.2-26.791l-19.713-2.256c-4.954.171-14.195,2.583-17.446,19.543l-5.01.355C261.862,171.908,267.355,149.987,293.546,151.92Z" transform="translate(-260.057 -133.88)" fill="#5e749c" opacity="0.2"/>
          <path id="Trazado_1219799" data-name="Trazado 1219799" d="M293.164,148.514c15.965,1.178,36.53,15.394,25.537,43.268l-2.862-1.731c-.246-21.67-4.782-25.924-13.2-26.791L282.93,161c-4.954.171-14.535,3.473-17.785,20.434l-4.671-.534C261.48,168.5,266.972,146.582,293.164,148.514Z" transform="translate(-259.393 -132.978)" fill="#d58136"/>
          <path id="Trazado_1219800" data-name="Trazado 1219800" d="M297.444,149.691l1.778,5.455a3.136,3.136,0,0,1-3.472,2.508c-2.861-.383-3.1-1.751-3.1-1.751l.3-6Z" transform="translate(-260.475 -133.322)" fill="#ecb7a1"/>
          <path id="Trazado_1219801" data-name="Trazado 1219801" d="M290.606,139.433c2.157,5.061,3.183,6.675,6.622,7.786,4.454,1.438,9.91-1.061,8.385-8.9-1.243-6.4-4.282-5.773-7.181-5.863S288.276,133.965,290.606,139.433Z" transform="translate(-265.288 -128.756)" fill="#ecb7a1"/>
          <path id="Trazado_1219802" data-name="Trazado 1219802" d="M302.954,135.55a1.942,1.942,0,0,1,2.131.775,2.415,2.415,0,0,1,.346,2.362,2.1,2.1,0,0,1,1.717,2.414c.95-1.672.748-3.544,1.1-5.324a7.027,7.027,0,0,0-.637-5.264,5.885,5.885,0,0,0-1.595-1.542,9.086,9.086,0,0,0-8.1-1.026,4.954,4.954,0,0,1-3.72.23c-3.378-1.23-5.673.89-3.834,3.324a2.789,2.789,0,0,0-1.842.993.537.537,0,0,0-.073.519.6.6,0,0,0,.3.233,3.805,3.805,0,0,0,1.811.351c-.257.173-1.553.106-2.027.812-1.259,1.878,2.956,1.332,3.6,1.2-.729.054-2.77,1.338-2.286,2.431.1.215,2.459,1.974,5.465-.816a4.88,4.88,0,0,1,2.489-1.367,3.65,3.65,0,0,1,2.128.579c.486.248,1.695,1.183,2.119.755C302.516,136.724,302.079,135.869,302.954,135.55Z" transform="translate(-266.515 -127.426)" fill="#1b2841"/>
          <path id="Trazado_1219803" data-name="Trazado 1219803" d="M342.572,193.11c.432,2.5,1.118,2.825.22,3.116s-1.436-1.147-1.436-1.147l-4.032.341s1.177-2.461,1.834-2.7S342.572,193.11,342.572,193.11Z" transform="translate(-337.325 -144.702)" fill="#ecb7a1"/>
          <path id="Trazado_1219804" data-name="Trazado 1219804" d="M266.915,205.057c-.659,1.222-.8,1.214-1.692,2.672-1.7,2.786.989,7.794,3.554,2.944a14.3,14.3,0,0,0,1-3.885Z" transform="translate(-210.469 -147.984)" fill="#ecb7a1"/>
        </g>
        <path id="Trazado_1219805" data-name="Trazado 1219805" d="M315.884,200.037a8.376,8.376,0,0,1,1.137-8.163l-14.428,2.9,2.9,14.44a8.391,8.391,0,1,0,2.195,10.918l2.9,14.44,31.372-6.306a8.594,8.594,0,0,0,6.732-10.119l-6.306-31.372-14.508,2.916a8.39,8.39,0,1,1-12,10.346Z" transform="translate(-251.322 -84.46)" fill="#5fa29c"/>
        <g id="Grupo_1241737" data-name="Grupo 1241737" transform="translate(25.071 143.47)">
          <path id="Trazado_1219806" data-name="Trazado 1219806" d="M357.936,271.764l1.783,3.583-4.355,1.781L354.9,273Z" transform="translate(-333.448 -250.438)" fill="#ecb7a1"/>
          <path id="Trazado_1219807" data-name="Trazado 1219807" d="M357.369,255.9c9.879,4.3,5.831,14.723-.182,13.5-2.927-.6-4.409-10.021-4.409-10.021Z" transform="translate(-335.511 -246.235)" fill="#ecb7a1"/>
          <path id="Trazado_1219808" data-name="Trazado 1219808" d="M366.928,253.133a5.166,5.166,0,0,1,1.168-1.678,1.5,1.5,0,0,1,1.886-.1c.665.618.275,1.775-.4,2.383.579.071,1.267-.33,1.694.068.323.3.211.837.026,1.238a5.515,5.515,0,0,1-2.024,2.32c.5.285,1.081.834.781,1.326-.083.136-.223.23-.305.367-.191.319-.007.725.187,1.043q.468.771,1.007,1.5a.882.882,0,0,0-1.416.246,1.507,1.507,0,0,0,.352,1.592,1.582,1.582,0,0,0,.8.509c.272.063,1.468,3.764.534,4.489-1.154.9-5.08.118-5.648-.895a2.51,2.51,0,0,1-2.222.92,1.366,1.366,0,0,1-1.006-1.888,2.31,2.31,0,0,1-2.787-3.345c-.484-.146-.582-.8-.458-1.292a2.985,2.985,0,0,1,2.045-2.1,1.012,1.012,0,0,1-.921-.995,2.084,2.084,0,0,1,.551-1.359,4.626,4.626,0,0,1,3.4-1.623C365.553,255.682,366.316,254.272,366.928,253.133Z" transform="translate(-348.352 -244.955)" fill="#243f5e"/>
          <path id="Trazado_1219809" data-name="Trazado 1219809" d="M349.741,397.716s5.78,2.775,6.556,3.641c0,0-11.373.512-12.263-.025s1.821-3.623,1.821-3.623Z" transform="translate(-321.907 -283.79)" fill="#1b2841"/>
          <path id="Trazado_1219810" data-name="Trazado 1219810" d="M380.651,393.157s5.08,3.912,5.66,4.918c0,0-11.992-1.781-11.992-2.564s2.531-3.168,2.531-3.168Z" transform="translate(-374.32 -282.369)" fill="#1b2841"/>
          <path id="Trazado_1219811" data-name="Trazado 1219811" d="M379.394,323.635c.213,1.176,8.127,32.417-14.515,51.147l-6.559-1.5a46.514,46.514,0,0,0,11.231-20.044c3.4-12.183.7-13.379-1.34-20.09a23.573,23.573,0,0,1-.578-12.819Z" transform="translate(-357.149 -263.297)" fill="#2c635b"/>
          <path id="Trazado_1219812" data-name="Trazado 1219812" d="M353.812,324.447c3.589,8.578,9.752,37.814-3.679,54.276l-6.708-.014s5.284-5.791,5.874-19.226-2.825-19.332-5.234-23.765a78.05,78.05,0,0,1-4.638-11.967Z" transform="translate(-320.744 -264.205)" fill="#37756e"/>
          <path id="Trazado_1219813" data-name="Trazado 1219813" d="M350.281,252.357c1.782,6.283,2.368,17.89-6.557,22.566l-5.974-1.456s10.769-5.646,8.462-19.916Z" transform="translate(-312.481 -245.298)" fill="#e8e8e8"/>
          <path id="Trazado_1219814" data-name="Trazado 1219814" d="M361.8,247.777l-4.638-.572s.558,19.472-21.93,21.112c-17.166,1.252-18.516,33.466-18.516,33.466,5.535,3.726,14.824,4.855,26.726,4,0,0-.762-22.982,1.129-29.273C344.574,276.511,363.258,270.632,361.8,247.777Z" transform="translate(-307.545 -243.934)" fill="#fff"/>
          <path id="Trazado_1219815" data-name="Trazado 1219815" d="M318.716,243.065c.785.909-2.492,2.064-5.67,3.534l-4.07-.5a16.067,16.067,0,0,1,0-1.66c.051-.847.476-1.331.958-.6s2.54.973,3.51.31S317.931,242.154,318.716,243.065Z" transform="translate(-258.789 -242.755)" fill="#ecb7a1"/>
          <path id="Trazado_1219816" data-name="Trazado 1219816" d="M343.226,251.409c1.491-1.466,1.095-1.377,1.095-1.377l-4.548,1.028s-1-2.219-1.848-2.281.638,1.53.3,2.119.933,1.7.933,1.7Z" transform="translate(-305.425 -244.35)" fill="#ecb7a1"/>
        </g>
      </g>
    </g>
  </g>
</svg>
