<svg xmlns="http://www.w3.org/2000/svg" xmlns:xlink="http://www.w3.org/1999/xlink" width="113" height="113" viewBox="0 0 113 113">
  <defs>
    <filter id="Trazado_982547" x="0" y="0" width="113" height="113" filterUnits="userSpaceOnUse">
      <feOffset dy="3" input="SourceAlpha"/>
      <feGaussianBlur stdDeviation="3" result="blur"/>
      <feFlood flood-opacity="0.161"/>
      <feComposite operator="in" in2="blur"/>
      <feComposite in="SourceGraphic"/>
    </filter>
  </defs>
  <g id="Grupo_1242204" data-name="Grupo 1242204" transform="translate(-270.604 -5862.899)">
    <g id="Grupo_1241427" data-name="Grupo 1241427" transform="translate(-84.74 -6820.269)">
      <g id="Grupo_1240425" data-name="Grupo 1240425" transform="translate(364.344 12689.168)">
        <g id="Grupo_1239772" data-name="Grupo 1239772" transform="translate(0 0)">
          <g id="Grupo_1236602" data-name="Grupo 1236602">
            <g id="Grupo_1236144" data-name="Grupo 1236144">
              <g id="Grupo_1235105" data-name="Grupo 1235105">
                <g id="Grupo_1223793" data-name="Grupo 1223793">
                  <g id="Grupo_1208028" data-name="Grupo 1208028">
                    <g id="Grupo_1177675" data-name="Grupo 1177675">
                      <g id="Grupo_1176928" data-name="Grupo 1176928" transform="translate(0)">
                        <g id="Grupo_1172322" data-name="Grupo 1172322">
                          <g id="Grupo_1164700" data-name="Grupo 1164700">
                            <g id="Grupo_1160931" data-name="Grupo 1160931">
                              <g id="Grupo_1160749" data-name="Grupo 1160749">
                                <g id="Grupo_1158891" data-name="Grupo 1158891">
                                  <g id="Grupo_1157406" data-name="Grupo 1157406">
                                    <g id="Grupo_1155793" data-name="Grupo 1155793">
                                      <g id="Grupo_1154704" data-name="Grupo 1154704">
                                        <g id="Grupo_1150790" data-name="Grupo 1150790">
                                          <g id="Grupo_1154214" data-name="Grupo 1154214" transform="translate(0)">
                                            <g id="Grupo_1152583" data-name="Grupo 1152583">
                                              <g id="Grupo_1146973" data-name="Grupo 1146973">
                                                <g id="Grupo_1146954" data-name="Grupo 1146954">
                                                  <g transform="matrix(1, 0, 0, 1, -9, -6)" filter="url(#Trazado_982547)">
                                                    <g id="Trazado_982547-2" data-name="Trazado 982547" transform="translate(9 6)" fill="#d9d5e3">
                                                      <path d="M 47.50000762939453 93.49986267089844 C 41.28937911987305 93.49986267089844 35.26534271240234 92.28383636474609 29.59519386291504 89.88558197021484 C 24.11772727966309 87.56880950927734 19.19814109802246 84.25183868408203 14.97310066223145 80.02679443359375 C 10.74804782867432 75.8017578125 7.431074142456055 70.88218688964844 5.114300727844238 65.40471649169922 C 2.716034412384033 59.73458480834961 1.500007629394531 53.71054458618164 1.500007629394531 47.49993133544922 C 1.500007629394531 41.2893180847168 2.716034412384033 35.26527786254883 5.114300727844238 29.59514427185059 C 7.431074142456055 24.11767768859863 10.74804782867432 19.19810485839844 14.97310066223145 14.97306442260742 C 19.19814109802246 10.74802494049072 24.11772727966309 7.431051254272461 29.59519386291504 5.114277839660645 C 35.26534271240234 2.71602463722229 41.28937911987305 1.499997973442078 47.50000762939453 1.499997973442078 C 53.71063613891602 1.499997973442078 59.73467254638672 2.71602463722229 65.40482330322266 5.114277839660645 C 70.88228607177734 7.431051254272461 75.80187225341797 10.74802494049072 80.02691650390625 14.97306442260742 C 84.25196838378906 19.19810485839844 87.56893920898438 24.11767768859863 89.88571166992188 29.59514427185059 C 92.28398132324219 35.26527786254883 93.50000762939453 41.2893180847168 93.50000762939453 47.49993133544922 C 93.50000762939453 53.71054458618164 92.28398132324219 59.73458480834961 89.88571166992188 65.40471649169922 C 87.56893920898438 70.88218688964844 84.25196838378906 75.8017578125 80.02691650390625 80.02679443359375 C 75.80187225341797 84.25183868408203 70.88228607177734 87.56880950927734 65.40482330322266 89.88558197021484 C 59.73467254638672 92.28383636474609 53.71063613891602 93.49986267089844 47.50000762939453 93.49986267089844 Z" stroke="none"/>
                                                      <path d="M 47.50000762939453 2.999992370605469 C 41.4912223815918 2.999992370605469 35.66377639770508 4.1761474609375 30.17951202392578 6.495796203613281 C 24.88085174560547 8.736930847167969 20.12152862548828 11.94596099853516 16.03376007080078 16.03372955322266 C 11.94597625732422 20.12148284912109 8.736961364746094 24.88080596923828 6.495803833007812 30.17946624755859 C 4.176162719726562 35.66371536254883 3.000007629394531 41.49116134643555 3.000007629394531 47.49993133544922 C 3.000007629394531 53.50870132446289 4.176162719726562 59.33614730834961 6.495803833007812 64.82038879394531 C 8.736961364746094 70.11905670166016 11.94597625732422 74.87836456298828 16.03376007080078 78.96613311767578 C 20.12152862548828 83.05390167236328 24.88085174560547 86.26291656494141 30.17951202392578 88.50406646728516 C 35.66377639770508 90.82369995117188 41.4912223815918 91.99985504150391 47.50000762939453 91.99985504150391 C 53.50879287719727 91.99985504150391 59.33623886108398 90.82369995117188 64.82049560546875 88.50406646728516 C 70.11916351318359 86.26291656494141 74.87848663330078 83.05390167236328 78.96625518798828 78.96613311767578 C 83.05403900146484 74.87836456298828 86.26305389404297 70.11905670166016 88.50421142578125 64.82038879394531 C 90.8238525390625 59.33614730834961 92.00000762939453 53.50870132446289 92.00000762939453 47.49993133544922 C 92.00000762939453 41.49116134643555 90.8238525390625 35.66371536254883 88.50421142578125 30.17946624755859 C 86.26305389404297 24.88080596923828 83.05403900146484 20.12148284912109 78.96625518798828 16.03372955322266 C 74.87848663330078 11.94596099853516 70.11916351318359 8.736930847167969 64.82049560546875 6.495796203613281 C 59.33623886108398 4.1761474609375 53.50879287719727 2.999992370605469 47.50000762939453 2.999992370605469 M 47.50000762939453 -7.62939453125e-06 C 73.73352813720703 -7.62939453125e-06 95.00000762939453 21.26644134521484 95.00000762939453 47.49993133544922 C 95.00000762939453 73.73342132568359 73.73352813720703 94.99985504150391 47.50000762939453 94.99985504150391 C 21.26648712158203 94.99985504150391 7.62939453125e-06 73.73342132568359 7.62939453125e-06 47.49993133544922 C 7.62939453125e-06 21.26644134521484 21.26648712158203 -7.62939453125e-06 47.50000762939453 -7.62939453125e-06 Z" stroke="none" fill="#453179"/>
                                                    </g>
                                                  </g>
                                                </g>
                                              </g>
                                            </g>
                                          </g>
                                        </g>
                                      </g>
                                    </g>
                                  </g>
                                </g>
                              </g>
                            </g>
                          </g>
                        </g>
                      </g>
                    </g>
                  </g>
                </g>
              </g>
            </g>
          </g>
        </g>
      </g>
    </g>
    <g id="leer_4_" data-name="leer (4)" transform="translate(271.715 5884.774)">
      <g id="Grupo_1242202" data-name="Grupo 1242202" transform="translate(28.04 0.926)">
        <g id="Grupo_1242198" data-name="Grupo 1242198" transform="translate(8.87)">
          <path id="Trazado_1221065" data-name="Trazado 1221065" d="M141.21,169.943h.021a3.215,3.215,0,0,0,0-6.43H111.66a3.215,3.215,0,0,0,0,6.43h.021" transform="translate(-108.195 -144.241)" fill="#f1b986"/>
          <path id="Trazado_1221066" data-name="Trazado 1221066" d="M163.194,90.748a145.006,145.006,0,0,0-28.051,0,99.447,99.447,0,0,0-.641,17.441,8.228,8.228,0,0,0,7.836,7.8q6.83.322,13.66,0a8.228,8.228,0,0,0,7.836-7.8A99.411,99.411,0,0,0,163.194,90.748Z" transform="translate(-130.918 -79.868)" fill="#f1d0a5"/>
          <path id="Trazado_1221067" data-name="Trazado 1221067" d="M135.149,90.744q7.011-.68,14.026-.679a37.348,37.348,0,0,0-7.1.686q-.552,8.8-.325,17.608c.1,3.862,1.511,7.012,3.363,7.73q-1.383-.038-2.767-.1a8.229,8.229,0,0,1-7.836-7.8A99.552,99.552,0,0,1,135.149,90.744Z" transform="translate(-130.923 -79.865)" fill="#f1b986"/>
          <path id="Trazado_1221068" data-name="Trazado 1221068" d="M132.456,23.214c-5.374,2.076-13.008,1.161-16.856-2.687,0,0-.914,6.247-5.647,6.247l-2.064.694c-5.513-21.64,6.246-15.858,6.246-15.858a5.593,5.593,0,0,1,4.417-3.257c.149-.018.3-.032.447-.041l.036,0a9.8,9.8,0,0,1,3.465.522c.373.12.73.253,1.064.389a16.3,16.3,0,0,1,2.531,1.3l.04.028c1.21-1.6,2.364-3.05,3.633-3.05a1.324,1.324,0,0,1,1.122.518c.916,1.2.163,4.086.1,4.313l0,.01,0-.01.006-.017c.163-.41,1.981-4.814,5.241-4.814a2.548,2.548,0,0,1,.555.056c2.431.537.528,4.788.319,5.238l-.006.013-.011.023c.1-.132,4.174-5.3,5.983-2.929l0,0C144.908,12.309,137.827,21.139,132.456,23.214Z" transform="translate(-106.418 -7.5)" fill="#f4dd45"/>
          <g id="Grupo_1242197" data-name="Grupo 1242197">
            <path id="Trazado_1221069" data-name="Trazado 1221069" d="M360.736,22.528h0c-.915-.914-4.082,3.4-5.985,2.932l.014-.026-.011.023C354.856,25.325,358.927,20.157,360.736,22.528Z" transform="translate(-324.072 -20.127)" fill="#ecc32e"/>
            <path id="Trazado_1221070" data-name="Trazado 1221070" d="M311.122,7.555c-1.374-.312-2.647,2.3-3.367,4.16a1.538,1.538,0,0,1-2.244.751l-.2-.122,0,0,0-.01h0l.006-.017c.163-.41,1.981-4.814,5.241-4.814A2.557,2.557,0,0,1,311.122,7.555Z" transform="translate(-280.743 -7.499)" fill="#ecc32e"/>
            <path id="Trazado_1221071" data-name="Trazado 1221071" d="M118.549,14.413c-3.932.693-5.418,9.707-2.951,12.174,0,0-.914,6.247-5.647,6.247l-2.064.694c-5.513-21.64,6.246-15.858,6.246-15.858a5.593,5.593,0,0,1,4.417-3.257Z" transform="translate(-106.415 -13.559)" fill="#ecc32e"/>
            <path id="Trazado_1221072" data-name="Trazado 1221072" d="M241.971,8.018c-1.382-1.382-2.3,5.7-5.414,6.84s-3.4-.316-3.4-.316h0c1.532-.567,2.824-2.357,4.059-3.992h0l.113-.15c.047-.063.1-.127.143-.189,1.118-1.461,2.2-2.711,3.377-2.711a1.323,1.323,0,0,1,1.122.518Z" transform="translate(-217.498 -7.5)" fill="#ecc32e"/>
            <path id="Trazado_1221073" data-name="Trazado 1221073" d="M208.292,14.065h-.039l.036,0Z" transform="translate(-195.672 -13.253)" fill="#ecc32e"/>
          </g>
        </g>
        <path id="Trazado_1221074" data-name="Trazado 1221074" d="M279.9,260.3v20.882a2.841,2.841,0,0,1-2.238,2.776l-18.549,4.02H256.72V261.283h2.394l17.346-3.759A2.84,2.84,0,0,1,279.9,260.3Z" transform="translate(-229.282 -226.579)" fill="#da4a54"/>
        <path id="Trazado_1221075" data-name="Trazado 1221075" d="M90.989,261.283v26.693H88.417l-18.549-4.02a2.841,2.841,0,0,1-2.238-2.776V260.3a2.84,2.84,0,0,1,3.442-2.775l17.346,3.759Z" transform="translate(-63.551 -226.579)" fill="#c32430"/>
        <path id="Trazado_1221076" data-name="Trazado 1221076" d="M235.9,315.113V288.419h4.966v26.694" transform="translate(-211.036 -253.715)" fill="#dd636e"/>
        <g id="Grupo_1242201" data-name="Grupo 1242201" transform="translate(0 36.282)">
          <g id="Grupo_1242199" data-name="Grupo 1242199">
            <path id="Trazado_1221077" data-name="Trazado 1221077" d="M38.183,308.727h-.971a2.6,2.6,0,0,1-2.6-2.6V303.8a2.6,2.6,0,0,1,2.6-2.6h.971a2.6,2.6,0,0,1,2.6,2.6v2.332A2.6,2.6,0,0,1,38.183,308.727Z" transform="translate(-34.614 -301.2)" fill="#f1d0a5"/>
            <path id="Trazado_1221078" data-name="Trazado 1221078" d="M38.683,308.678a2.462,2.462,0,0,1-.5.049h-.972a2.6,2.6,0,0,1-2.6-2.6V303.8a2.6,2.6,0,0,1,2.6-2.6h.972a2.46,2.46,0,0,1,.5.049,2.6,2.6,0,0,0-2.1,2.549v2.331A2.6,2.6,0,0,0,38.683,308.678Z" transform="translate(-34.615 -301.2)" fill="#f1b986"/>
          </g>
          <g id="Grupo_1242200" data-name="Grupo 1242200" transform="translate(48.531)">
            <path id="Trazado_1221079" data-name="Trazado 1221079" d="M431.038,308.727h-.971a2.6,2.6,0,0,1-2.6-2.6V303.8a2.6,2.6,0,0,1,2.6-2.6h.971a2.6,2.6,0,0,1,2.6,2.6v2.332A2.6,2.6,0,0,1,431.038,308.727Z" transform="translate(-427.469 -301.2)" fill="#f1d0a5"/>
            <path id="Trazado_1221080" data-name="Trazado 1221080" d="M431.538,308.678a2.462,2.462,0,0,1-.5.049h-.972a2.6,2.6,0,0,1-2.6-2.6V303.8a2.6,2.6,0,0,1,2.6-2.6h.972a2.46,2.46,0,0,1,.5.049,2.6,2.6,0,0,0-2.1,2.549v2.331A2.6,2.6,0,0,0,431.538,308.678Z" transform="translate(-427.47 -301.2)" fill="#f1b986"/>
          </g>
        </g>
      </g>
      <g id="Grupo_1242203" data-name="Grupo 1242203" transform="translate(27.113 0)">
        <path id="Trazado_1221081" data-name="Trazado 1221081" d="M230.082,233.022a.926.926,0,0,0-1.674-.794,2.4,2.4,0,0,1-4.341,0,.927.927,0,0,0-1.674.794,4.255,4.255,0,0,0,7.689,0Z" transform="translate(-198.191 -203.075)"/>
        <ellipse id="Elipse_11605" data-name="Elipse 11605" cx="1.338" cy="1.992" rx="1.338" ry="1.992" transform="translate(19.865 22.147)"/>
        <ellipse id="Elipse_11606" data-name="Elipse 11606" cx="1.338" cy="1.992" rx="1.338" ry="1.992" transform="translate(33.553 22.147)"/>
        <path id="Trazado_1221082" data-name="Trazado 1221082" d="M331.391,313.309a.926.926,0,0,0-1.1-.709l-10.26,2.224a.926.926,0,1,0,.392,1.811l10.26-2.224A.926.926,0,0,0,331.391,313.309Z" transform="translate(-283.204 -273.964)"/>
        <path id="Trazado_1221083" data-name="Trazado 1221083" d="M330.288,340.47l-10.26,2.224a.926.926,0,1,0,.392,1.811l10.26-2.224a.926.926,0,0,0-.392-1.811Z" transform="translate(-283.203 -298.391)"/>
        <path id="Trazado_1221084" data-name="Trazado 1221084" d="M80.14,36.282h-.555V34.645a3.766,3.766,0,0,0-4.564-3.68l-4.829,1.047a9.193,9.193,0,0,0,.561-2.718q.047-.916.076-1.834a4.141,4.141,0,0,0-.063-8.105q-.168-3.481-.576-6.945A19.081,19.081,0,0,0,74.6,5.625a3.145,3.145,0,0,0-.287-2.859,2.376,2.376,0,0,0-1.929-.986,4.89,4.89,0,0,0-2.952,1.3,3.3,3.3,0,0,0-.418-1.959A2.5,2.5,0,0,0,66.733,0a5.511,5.511,0,0,0-4.088,2.1A3.051,3.051,0,0,0,62.121.885,2.245,2.245,0,0,0,60.26,0c-1.5,0-2.686,1.245-3.865,2.755a17.917,17.917,0,0,0-1.99-.965c-.368-.15-.747-.288-1.13-.413a10.679,10.679,0,0,0-3.8-.566l-.031,0h-.009c-.171.01-.338.025-.511.047a6.333,6.333,0,0,0-4.7,3.011c-2.011-.7-5.255-.958-7.023,1.908a.927.927,0,1,0,1.577.973c1.652-2.678,5.281-.957,5.433-.883a.926.926,0,0,0,1.232-.406A4.678,4.678,0,0,1,49.159,2.7c.126-.016.249-.027.375-.034l.059,0a8.859,8.859,0,0,1,3.113.479c.337.11.674.233,1,.366a16.066,16.066,0,0,1,1.556.74A8.35,8.35,0,0,1,52.244,7.1a.927.927,0,0,0,.642,1.738c1.711-.632,3.025-2.374,4.3-4.059,1.034-1.372,2.207-2.926,3.078-2.926.249,0,.329.079.386.153.456.6.235,2.453-.057,3.517a.927.927,0,0,0,1.759.575c.016-.042,1.681-4.245,4.385-4.245.552,0,.67.188.709.25.43.682-.158,2.644-.689,3.754a.927.927,0,0,0,1.566.971,16.7,16.7,0,0,1,1.543-1.675c1.457-1.371,2.236-1.521,2.506-1.521h0a.534.534,0,0,1,.464.257,1.634,1.634,0,0,1-.023,1.232c-.909,3.221-6.119,9.078-10.2,10.655-5.325,2.057-12.442.946-15.866-2.478a.926.926,0,0,0-1.572.521,9.984,9.984,0,0,1-.952,2.827,4.209,4.209,0,0,1-3.779,2.628h-.069A4.12,4.12,0,0,0,39,19.51a31.6,31.6,0,0,1-1.1-9.66.926.926,0,1,0-1.845-.173,34.635,34.635,0,0,0,1.3,10.913,4.137,4.137,0,0,0,2.142,6.871q.03.919.076,1.834a9.181,9.181,0,0,0,.52,2.61l-4.333-.939a3.766,3.766,0,0,0-4.565,3.68v1.637h-.555a3.528,3.528,0,0,0-3.524,3.524v2.331a3.528,3.528,0,0,0,3.524,3.524h.555v9.866a3.788,3.788,0,0,0,2.969,3.681l18.549,4.02h0c.026.005.052.009.078.013l.018,0a.93.93,0,0,0,.093,0h4.974a.93.93,0,0,0,.093,0l.018,0c.026,0,.052-.007.078-.013h0l18.549-4.02a3.788,3.788,0,0,0,2.969-3.681V54.264a.927.927,0,0,0-1.853,0v1.264a1.924,1.924,0,0,1-1.508,1.87L58.8,61.175v-24.8l16.616-3.6a1.914,1.914,0,0,1,2.319,1.869V36.59a3.528,3.528,0,0,0-2.088,3.217v2.332a3.528,3.528,0,0,0,2.088,3.217v5.2a.927.927,0,1,0,1.853,0v-4.9h.555a3.528,3.528,0,0,0,3.524-3.524V39.806a3.528,3.528,0,0,0-3.524-3.524ZM72.233,23.415a2.29,2.29,0,0,1-1.36,2.089q.027-2.1-.033-4.2A2.292,2.292,0,0,1,72.233,23.415Zm-34.146,0a2.292,2.292,0,0,1,1.391-2.105c-.04,1.4-.049,2.8-.031,4.195A2.289,2.289,0,0,1,38.087,23.415ZM41.419,29.2c-.139-2.692-.164-5.425-.078-8.139a6.164,6.164,0,0,0,4.522-3.552,11.408,11.408,0,0,0,.769-1.869,15.926,15.926,0,0,0,7.179,2.8,19.026,19.026,0,0,0,9.469-.93,17.908,17.908,0,0,0,5.227-3.444A98.847,98.847,0,0,1,68.9,29.2a7.327,7.327,0,0,1-.985,3.306L57.772,34.7H53L42.338,32.392a7.317,7.317,0,0,1-.919-3.193Zm12.413,7.357h3.113V61.4H53.832ZM28.966,42.138V39.806a1.673,1.673,0,0,1,1.671-1.671h.971a1.673,1.673,0,0,1,1.671,1.671v2.332a1.673,1.673,0,0,1-1.671,1.671h-.971A1.673,1.673,0,0,1,28.966,42.138Zm4.079,13.39V45.355a3.528,3.528,0,0,0,2.088-3.217V39.806a3.528,3.528,0,0,0-2.088-3.217V34.645a1.913,1.913,0,0,1,2.319-1.869l16.615,3.6v24.8L34.553,57.4a1.924,1.924,0,0,1-1.508-1.87Zm48.766-13.39a1.673,1.673,0,0,1-1.671,1.671h-.971A1.673,1.673,0,0,1,77.5,42.138V39.806a1.673,1.673,0,0,1,1.671-1.671h.971a1.673,1.673,0,0,1,1.671,1.671Z" transform="translate(-27.113 0)"/>
      </g>
    </g>
  </g>
</svg>
