<svg xmlns="http://www.w3.org/2000/svg" xmlns:xlink="http://www.w3.org/1999/xlink" width="97.533" height="97.533" viewBox="0 0 97.533 97.533">
  <defs>
    <filter id="Trazado_982547" x="0" y="0" width="97.533" height="97.533" filterUnits="userSpaceOnUse">
      <feOffset dy="3" input="SourceAlpha"/>
      <feGaussianBlur stdDeviation="3" result="blur"/>
      <feFlood flood-opacity="0.161"/>
      <feComposite operator="in" in2="blur"/>
      <feComposite in="SourceGraphic"/>
    </filter>
  </defs>
  <g id="Grupo_1242229" data-name="Grupo 1242229" transform="translate(-819.717 -8015.867)">
    <g id="Grupo_1241607" data-name="Grupo 1241607" transform="translate(-1.249 3394.144)">
      <g id="Grupo_1226148" data-name="Grupo 1226148" transform="translate(629.999 3721.724)">
        <g id="Grupo_1203701" data-name="Grupo 1203701" transform="translate(199.967 906)">
          <g id="Grupo_1203355" data-name="Grupo 1203355" transform="translate(0)">
            <g id="Grupo_1202156" data-name="Grupo 1202156">
              <g id="Grupo_1177900" data-name="Grupo 1177900">
                <g id="Grupo_1172010" data-name="Grupo 1172010">
                  <g id="Grupo_1171046" data-name="Grupo 1171046">
                    <g id="Grupo_1148525" data-name="Grupo 1148525">
                      <g transform="matrix(1, 0, 0, 1, -9, -6)" filter="url(#Trazado_982547)">
                        <g id="Trazado_982547-2" data-name="Trazado 982547" transform="translate(9 6)" fill="#fdfbec">
                          <path d="M 39.7666015625 78.033203125 C 34.59997940063477 78.033203125 29.58870124816895 77.02164459228516 24.87196731567383 75.02663421630859 C 20.31538963317871 73.099365234375 16.22284507751465 70.34000396728516 12.70802402496338 66.82518005371094 C 9.193202018737793 63.31035614013672 6.433835029602051 59.21781158447266 4.506568431854248 54.66123580932617 C 2.511557102203369 49.94449996948242 1.500001549720764 44.93322372436523 1.500001549720764 39.7666015625 C 1.500001549720764 34.59997940063477 2.511557102203369 29.58870124816895 4.506568431854248 24.87196731567383 C 6.433835029602051 20.31538963317871 9.193202018737793 16.22284507751465 12.70802402496338 12.70802402496338 C 16.22284507751465 9.193202018737793 20.31538963317871 6.433835029602051 24.87196731567383 4.506568431854248 C 29.58870124816895 2.511557102203369 34.59997940063477 1.500001549720764 39.7666015625 1.500001549720764 C 44.93322372436523 1.500001549720764 49.94449996948242 2.511557102203369 54.66123580932617 4.506568431854248 C 59.21781158447266 6.433835029602051 63.31035614013672 9.193202018737793 66.82518005371094 12.70802402496338 C 70.34000396728516 16.22284507751465 73.099365234375 20.31538963317871 75.02663421630859 24.87196731567383 C 77.02164459228516 29.58870124816895 78.033203125 34.59997940063477 78.033203125 39.7666015625 C 78.033203125 44.93322372436523 77.02164459228516 49.94449996948242 75.02663421630859 54.66123580932617 C 73.099365234375 59.21781158447266 70.34000396728516 63.31035614013672 66.82518005371094 66.82518005371094 C 63.31035614013672 70.34000396728516 59.21781158447266 73.099365234375 54.66123580932617 75.02663421630859 C 49.94449996948242 77.02164459228516 44.93322372436523 78.033203125 39.7666015625 78.033203125 Z" stroke="none"/>
                          <path d="M 39.7666015625 3 C 34.80181503295898 3 29.98714065551758 3.971687316894531 25.45630264282227 5.888076782226562 C 21.07851409912109 7.739715576171875 17.146240234375 10.39113616943359 13.76869201660156 13.76869201660156 C 10.39113616943359 17.146240234375 7.739715576171875 21.07851409912109 5.888076782226562 25.45630264282227 C 3.971687316894531 29.98714065551758 3 34.80181503295898 3 39.7666015625 C 3 44.73138809204102 3.971687316894531 49.54606628417969 5.888076782226562 54.076904296875 C 7.739715576171875 58.45468902587891 10.39113616943359 62.386962890625 13.76869201660156 65.76451110839844 C 17.146240234375 69.14206695556641 21.07851409912109 71.79348754882812 25.45630264282227 73.64512634277344 C 29.98714065551758 75.56151580810547 34.80181503295898 76.533203125 39.7666015625 76.533203125 C 44.73138809204102 76.533203125 49.54606628417969 75.56151580810547 54.076904296875 73.64512634277344 C 58.45468902587891 71.79348754882812 62.386962890625 69.14206695556641 65.76451110839844 65.76451110839844 C 69.14206695556641 62.386962890625 71.79348754882812 58.45468902587891 73.64512634277344 54.076904296875 C 75.56151580810547 49.54606628417969 76.533203125 44.73138809204102 76.533203125 39.7666015625 C 76.533203125 34.80181503295898 75.56151580810547 29.98714065551758 73.64512634277344 25.45630264282227 C 71.79348754882812 21.07851409912109 69.14206695556641 17.146240234375 65.76451110839844 13.76869201660156 C 62.386962890625 10.39113616943359 58.45468902587891 7.739715576171875 54.076904296875 5.888076782226562 C 49.54606628417969 3.971687316894531 44.73138809204102 3 39.7666015625 3 M 39.7666015625 0 C 61.72908782958984 0 79.533203125 17.80411529541016 79.533203125 39.7666015625 C 79.533203125 61.72908782958984 61.72908782958984 79.533203125 39.7666015625 79.533203125 C 17.80411529541016 79.533203125 0 61.72908782958984 0 39.7666015625 C 0 17.80411529541016 17.80411529541016 0 39.7666015625 0 Z" stroke="none" fill="#83793c"/>
                        </g>
                      </g>
                    </g>
                  </g>
                </g>
              </g>
            </g>
          </g>
        </g>
      </g>
    </g>
    <g id="gato-de-salto" transform="translate(812.749 8034.551)">
      <g id="Grupo_1242227" data-name="Grupo 1242227" transform="translate(35.308 0.793)">
        <g id="Grupo_1242216" data-name="Grupo 1242216" transform="translate(7.245 30.951)">
          <path id="Trazado_1221121" data-name="Trazado 1221121" d="M281.688,370.933l4.673-1.252L283.4,358.615l-4.752.956Z" transform="translate(-263.067 -352.421)" fill="#fed2a4"/>
          <path id="Trazado_1221122" data-name="Trazado 1221122" d="M281.688,375.457l2.058-.551-3.009-11.231-2.093.421Z" transform="translate(-263.067 -356.945)" fill="#ffbd86"/>
          <g id="Grupo_1242212" data-name="Grupo 1242212" transform="translate(18.621 16.926)">
            <path id="Trazado_1221123" data-name="Trazado 1221123" d="M308.255,464.764l-.835-3.115,5.711-1.53a1.613,1.613,0,0,1,.835,3.115Z" transform="translate(-307.42 -460.063)" fill="#01d0fb"/>
          </g>
          <g id="Grupo_1242213" data-name="Grupo 1242213" transform="translate(18.621 17.973)">
            <path id="Trazado_1221124" data-name="Trazado 1221124" d="M309.747,471.149l-.318-1.186-2.009.538.835,3.115,5.711-1.53a1.612,1.612,0,0,0,1.17-1.834l-4.742,1.271A.529.529,0,0,1,309.747,471.149Z" transform="translate(-307.42 -469.963)" fill="#01c0fa"/>
          </g>
          <path id="Trazado_1221125" data-name="Trazado 1221125" d="M165.08,370.933l3.044-11.362-4.752-.956-2.965,11.066Z" transform="translate(-157.338 -352.421)" fill="#fed2a4"/>
          <path id="Trazado_1221126" data-name="Trazado 1221126" d="M162.278,370.182l3-11.184-1.9-.383-2.965,11.066Z" transform="translate(-157.338 -352.422)" fill="#ffbd86"/>
          <path id="Trazado_1221127" data-name="Trazado 1221127" d="M200.047,300.07a.215.215,0,0,1-.07.013H186.619a.217.217,0,0,1-.07-.013l-.669,6.139,5.483,1.1L193,303.466a.323.323,0,0,1,.593,0l1.638,3.847,5.483-1.1Z" transform="translate(-180.116 -300.07)" fill="#54469c"/>
          <path id="Trazado_1221128" data-name="Trazado 1221128" d="M189.517,304.842l.408-3.742h-3.306a.322.322,0,0,1-.081-.011l-.657,6.031,5.483,1.1.988-2.321-2.413-.486A.529.529,0,0,1,189.517,304.842Z" transform="translate(-180.116 -300.981)" fill="#463b84"/>
          <g id="Grupo_1242214" data-name="Grupo 1242214" transform="translate(0 16.926)">
            <path id="Trazado_1221129" data-name="Trazado 1221129" d="M138.307,464.764l.835-3.115-5.711-1.53a1.613,1.613,0,1,0-.835,3.115Z" transform="translate(-131.4 -460.063)" fill="#01d0fb"/>
          </g>
          <g id="Grupo_1242215" data-name="Grupo 1242215" transform="translate(0 16.926)">
            <path id="Trazado_1221130" data-name="Trazado 1221130" d="M134.668,462.334a1.6,1.6,0,0,1-1.072-2.171l-.166-.045a1.613,1.613,0,0,0-.835,3.115l5.711,1.53.364-1.357Z" transform="translate(-131.399 -460.063)" fill="#01c0fa"/>
          </g>
        </g>
        <g id="Grupo_1242217" data-name="Grupo 1242217" transform="translate(0 4.684)">
          <path id="Trazado_1221131" data-name="Trazado 1221131" d="M76.334,63.28l-7.2-7.2V52.853a1.082,1.082,0,0,0-2.163,0v.43l-.747-.746a1.385,1.385,0,0,0-1.958,0l-.941.941a1.385,1.385,0,0,0,0,1.958l1.9,1.9a1.379,1.379,0,0,0,1.032.4l11.2,11.2Z" transform="translate(-62.915 -51.771)" fill="#fed2a4"/>
          <path id="Trazado_1221132" data-name="Trazado 1221132" d="M76.885,75.55l-9.659-9.659a1.38,1.38,0,0,1-1.032-.4l-1.9-1.9A1.381,1.381,0,0,1,63.9,62.4l-.581.581a1.385,1.385,0,0,0,0,1.958l1.9,1.9a1.379,1.379,0,0,0,1.032.4l11.2,11.2Z" transform="translate(-62.916 -61.273)" fill="#ffbd86"/>
          <path id="Trazado_1221133" data-name="Trazado 1221133" d="M325.736,53.476l-.941-.941a1.385,1.385,0,0,0-1.958,0l-.746.746v-.43a1.082,1.082,0,0,0-2.163,0v3.222l-7.2,7.2L311.6,68.944l11.2-11.2a1.379,1.379,0,0,0,1.032-.4l1.9-1.9A1.385,1.385,0,0,0,325.736,53.476Z" transform="translate(-285.289 -51.771)" fill="#fed2a4"/>
          <path id="Trazado_1221134" data-name="Trazado 1221134" d="M325.411,51.771a1.082,1.082,0,0,0-1.082,1.082v3.222l-7.2,7.2-.605,3.046,9.38-9.38V53.723a1.081,1.081,0,0,1,.589-.962A1.081,1.081,0,0,0,325.411,51.771Z" transform="translate(-289.69 -51.771)" fill="#ffbd86"/>
        </g>
        <g id="Grupo_1242218" data-name="Grupo 1242218" transform="translate(13.869 0)">
          <path id="Trazado_1221135" data-name="Trazado 1221135" d="M207.126,23.25v-10.1A5.651,5.651,0,0,0,201.474,7.5h-1.813a5.652,5.652,0,0,0-5.652,5.652v10.1Z" transform="translate(-194.01 -7.5)" fill="#bb5d4c"/>
        </g>
        <path id="Trazado_1221136" data-name="Trazado 1221136" d="M195.883,17.587V14.279a.538.538,0,0,1,.428-.526l1.295-.269v-.333a5.653,5.653,0,0,1,4.76-5.581,5.694,5.694,0,0,0-.892-.071h-1.813a5.652,5.652,0,0,0-5.652,5.652v10.1h3.6V21.107A4.45,4.45,0,0,1,195.883,17.587Z" transform="translate(-180.141 -7.499)" fill="#a44f3e"/>
        <g id="Grupo_1242219" data-name="Grupo 1242219" transform="translate(13.401 15.75)">
          <path id="Trazado_1221137" data-name="Trazado 1221137" d="M203.3,171.7H189.939a.323.323,0,0,1-.312-.4l1.31-5.075A5.375,5.375,0,0,0,191,163.83l-1.4-7.066a.323.323,0,0,1,.316-.385h13.405a.323.323,0,0,1,.316.385l-1.4,7.066a5.375,5.375,0,0,0,.067,2.391l1.31,5.075A.323.323,0,0,1,203.3,171.7Z" transform="translate(-189.593 -156.379)" fill="#fe7701"/>
        </g>
        <g id="Grupo_1242220" data-name="Grupo 1242220" transform="translate(13.401 15.75)">
          <path id="Trazado_1221138" data-name="Trazado 1221138" d="M193.181,171.295l1.31-5.075a5.376,5.376,0,0,0,.067-2.391l-1.4-7.066a.323.323,0,0,1,.316-.385h-3.554a.322.322,0,0,0-.316.385l1.4,7.066a5.375,5.375,0,0,1-.067,2.391l-1.31,5.075a.322.322,0,0,0,.312.4h3.554A.322.322,0,0,1,193.181,171.295Z" transform="translate(-189.593 -156.378)" fill="#f46700"/>
        </g>
        <g id="Grupo_1242221" data-name="Grupo 1242221" transform="translate(18.793 14.415)">
          <path id="Trazado_1221139" data-name="Trazado 1221139" d="M243.431,143.787h-2.473a3.363,3.363,0,0,1-.4-.024v1.7a1.623,1.623,0,0,0,1.623,1.623h.021a1.623,1.623,0,0,0,1.623-1.623v-1.7a3.361,3.361,0,0,1-.4.024Z" transform="translate(-240.561 -143.763)" fill="#fed2a4"/>
        </g>
        <g id="Grupo_1242226" data-name="Grupo 1242226" transform="translate(13.023 4.755)">
          <g id="Grupo_1242222" data-name="Grupo 1242222" transform="translate(0 2.563)">
            <path id="Trazado_1221140" data-name="Trazado 1221140" d="M188.733,79.438V76.667h-.948a1.771,1.771,0,0,0,0,3.541H188.8A4.479,4.479,0,0,1,188.733,79.438Z" transform="translate(-186.014 -76.667)" fill="#fed2a4"/>
            <path id="Trazado_1221141" data-name="Trazado 1221141" d="M300.665,76.667h-.948v2.77a4.474,4.474,0,0,1-.068.771h1.016a1.771,1.771,0,1,0,0-3.541Z" transform="translate(-287.627 -76.667)" fill="#fed2a4"/>
          </g>
          <g id="Grupo_1242223" data-name="Grupo 1242223" transform="translate(2.718)">
            <path id="Trazado_1221142" data-name="Trazado 1221142" d="M219.181,52.48l-7.042,1.464a.538.538,0,0,0-.428.526v3.307a4.459,4.459,0,0,0,4.46,4.459h.452a4.459,4.459,0,0,0,4.459-4.459V54.033a1.611,1.611,0,0,0-.713-1.338,1.558,1.558,0,0,0-1.188-.214Z" transform="translate(-211.711 -52.444)" fill="#fed2a4"/>
          </g>
          <g id="Grupo_1242225" data-name="Grupo 1242225" transform="translate(2.719 1.032)">
            <g id="Grupo_1242224" data-name="Grupo 1242224">
              <path id="Trazado_1221143" data-name="Trazado 1221143" d="M214.387,66.5V62.2l-2.247.467a.538.538,0,0,0-.428.526V66.5a4.459,4.459,0,0,0,4.46,4.459h.452a4.468,4.468,0,0,0,1.112-.14A4.461,4.461,0,0,1,214.387,66.5Z" transform="translate(-211.712 -62.201)" fill="#ffbd86"/>
            </g>
          </g>
        </g>
      </g>
      <g id="Grupo_1242228" data-name="Grupo 1242228" transform="translate(32.042 0)">
        <path id="Trazado_1221144" data-name="Trazado 1221144" d="M78.634,52.578H68.026a2.406,2.406,0,0,0-1.345-4.619l-.272.073-.5-1.87a.793.793,0,0,0-1.533.411l.5,1.87-3.14.841-2.62-9.779,3.194-.643L63.416,43a.793.793,0,0,0,1.533-.411l-1.141-4.257a.791.791,0,0,0,.133-.531l-.055-.509a18.681,18.681,0,0,0,6.548-5.4A18.28,18.28,0,0,0,74.2,20.735a18.475,18.475,0,0,0-.537-4.422.793.793,0,1,0-1.541.38,16.887,16.887,0,0,1,.49,4.042,16.706,16.706,0,0,1-3.437,10.2A17.08,17.08,0,0,1,63.7,35.6l-.373-3.423a1.126,1.126,0,0,0,.136-.268,13.588,13.588,0,0,0,5.863-11.174.793.793,0,1,0-1.587,0,11.989,11.989,0,0,1-4.54,9.394l-1.017-3.941a4.609,4.609,0,0,1-.057-2.038l.22-1.108L73.168,12.22a2.182,2.182,0,0,0,1.246-.616l1.9-1.9a2.181,2.181,0,0,0,0-3.08l-.941-.941a2.182,2.182,0,0,0-2.826-.218,1.875,1.875,0,0,0-3.4,1.1V9.452L63.086,15.52V11.783a2.56,2.56,0,0,0,0-3.8V6.445A6.452,6.452,0,0,0,56.641,0H54.828a6.452,6.452,0,0,0-6.445,6.445V7.98a2.56,2.56,0,0,0,0,3.8V15.52l-2.815-2.815a.793.793,0,0,0-1.122,1.122L48,17.376l.569,2.864L39.21,10.885a.79.79,0,0,0-.591-.232.583.583,0,0,1-.441-.171l-1.9-1.9a.592.592,0,0,1,0-.836l.941-.941a.591.591,0,0,1,.836,0l.746.746a.794.794,0,0,0,1.355-.561v-.43a.288.288,0,1,1,.577,0V9.781a.794.794,0,0,0,.232.561l.867.867a.793.793,0,0,0,1.122-1.122l-.635-.635V6.559a1.875,1.875,0,0,0-3.4-1.1,2.179,2.179,0,0,0-2.827.218l-.941.941a2.181,2.181,0,0,0,0,3.08l1.9,1.9a2.182,2.182,0,0,0,1.245.616L49.121,23.041l.22,1.108a4.609,4.609,0,0,1-.057,2.038l-1.017,3.941a11.989,11.989,0,0,1-4.54-9.394.793.793,0,0,0-1.587,0A13.587,13.587,0,0,0,48,31.908a1.125,1.125,0,0,0,.136.268l-.374,3.429a16.873,16.873,0,0,1-8.415-18.912.793.793,0,1,0-1.541-.38A18.483,18.483,0,0,0,47.582,37.3l-.055.5a.79.79,0,0,0,.133.531l-2.6,9.7-.272-.073a2.406,2.406,0,0,0-1.345,4.619H32.835a.793.793,0,0,0,0,1.587h45.8a.793.793,0,0,0,0-1.587Zm-15.16-35.2,7.035-7.035a.794.794,0,0,0,.232-.561V6.559a.288.288,0,1,1,.577,0v.43a.794.794,0,0,0,1.355.561l.746-.746a.591.591,0,0,1,.836,0l.941.941a.592.592,0,0,1,0,.836l-1.9,1.9a.582.582,0,0,1-.441.171.788.788,0,0,0-.591.232L62.9,20.24Zm-1.128-7.5a.978.978,0,0,1-.977.977h-.155V8.9h.155A.978.978,0,0,1,62.345,9.881ZM55.96,14.547h-.452a3.67,3.67,0,0,1-3.666-3.666v-3.1L58.681,6.36h0a.768.768,0,0,1,.583.1.82.82,0,0,1,.363.68v3.745a3.67,3.67,0,0,1-3.666,3.666Zm.614,1.55v.812a.831.831,0,0,1-.83.83h-.021a.831.831,0,0,1-.83-.83V16.1a5.274,5.274,0,0,0,.614.037h.452A5.251,5.251,0,0,0,56.574,16.1Zm-3.266-.448v.1H49.97V12.442q.065,0,.131,0h.393A5.278,5.278,0,0,0,53.308,15.649Zm4.853,0a5.279,5.279,0,0,0,2.814-3.2h.393q.066,0,.131,0V15.75H58.161Zm-8.191-9.2a4.864,4.864,0,0,1,4.858-4.858h1.813A4.864,4.864,0,0,1,61.5,6.445v.876q-.065,0-.131,0h-.155V7.137a2.4,2.4,0,0,0-1.063-2,2.36,2.36,0,0,0-1.792-.333h0L51.316,6.271a1.337,1.337,0,0,0-1.034,1.047H50.1q-.066,0-.131,0V6.445Zm-.846,3.436A.978.978,0,0,1,50.1,8.9h.155v1.954H50.1A.978.978,0,0,1,49.124,9.881Zm.56,22.775h5.627a.793.793,0,1,0,0-1.587H49.663l1.158-4.486A6.2,6.2,0,0,0,50.9,23.84l-1.293-6.5h3.741a2.42,2.42,0,0,0,2.378,1.989h.021a2.42,2.42,0,0,0,2.378-1.989h3.741l-1.293,6.5a6.207,6.207,0,0,0,.077,2.744l1.158,4.486H59.014a.793.793,0,1,0,0,1.587h2.771l.5,4.592-4.139.833-1.385-3.253a1.116,1.116,0,0,0-2.053,0l-1.385,3.253-4.139-.833ZM48.9,52.4l-4.945-1.325a.819.819,0,1,1,.424-1.583l4.945,1.325Zm-2.305-3.957,2.567-9.58,3.193.643-2.62,9.779Zm3.9,4.135L53.926,39.77a.793.793,0,0,0,.6-.472l1.205-2.83L56.94,39.3a.793.793,0,0,0,.6.472l3.432,12.808Zm17.021-1.5L62.57,52.4l-.424-1.583,4.945-1.325a.819.819,0,1,1,.424,1.583Z" transform="translate(-32.042 0)"/>
        <path id="Trazado_1221145" data-name="Trazado 1221145" d="M227.73,75.839v-.86a.793.793,0,1,0-1.587,0v.86a.793.793,0,0,0,1.587,0Z" transform="translate(-205.609 -66.337)"/>
        <path id="Trazado_1221146" data-name="Trazado 1221146" d="M272.444,75.839v-.86a.793.793,0,0,0-1.587,0v.86a.793.793,0,0,0,1.587,0Z" transform="translate(-245.593 -66.337)"/>
        <path id="Trazado_1221147" data-name="Trazado 1221147" d="M242.728,83.556l.645.469a.793.793,0,0,0,.954-1.268l.136-.174a.793.793,0,0,0-1.248-.98l-.645.821a.793.793,0,0,0,.157,1.132Z" transform="translate(-220.147 -72.699)"/>
        <path id="Trazado_1221148" data-name="Trazado 1221148" d="M237.967,110.423a1.248,1.248,0,0,1-1.767,0,.793.793,0,1,0-1.122,1.122,2.835,2.835,0,0,0,4.011,0,.793.793,0,0,0-1.122-1.122Z" transform="translate(-213.391 -98.534)"/>
      </g>
    </g>
  </g>
</svg>
