<svg xmlns="http://www.w3.org/2000/svg" xmlns:xlink="http://www.w3.org/1999/xlink" width="97.533" height="97.533" viewBox="0 0 97.533 97.533">
  <defs>
    <filter id="Trazado_982547" x="0" y="0" width="97.533" height="97.533" filterUnits="userSpaceOnUse">
      <feOffset dy="3" input="SourceAlpha"/>
      <feGaussianBlur stdDeviation="3" result="blur"/>
      <feFlood flood-opacity="0.161"/>
      <feComposite operator="in" in2="blur"/>
      <feComposite in="SourceGraphic"/>
    </filter>
  </defs>
  <g id="Grupo_1242269" data-name="Grupo 1242269" transform="translate(-609.717 -9406.143)">
    <g id="Grupo_1241614" data-name="Grupo 1241614" transform="translate(-0.25 3552.91)">
      <g id="Grupo_1226209" data-name="Grupo 1226209" transform="translate(419 4953.233)">
        <g id="Grupo_1203701" data-name="Grupo 1203701" transform="translate(199.967 906)">
          <g id="Grupo_1203355" data-name="Grupo 1203355" transform="translate(0)">
            <g id="Grupo_1202156" data-name="Grupo 1202156">
              <g id="Grupo_1177900" data-name="Grupo 1177900">
                <g id="Grupo_1172010" data-name="Grupo 1172010">
                  <g id="Grupo_1171046" data-name="Grupo 1171046">
                    <g id="Grupo_1148525" data-name="Grupo 1148525">
                      <g transform="matrix(1, 0, 0, 1, -9, -6)" filter="url(#Trazado_982547)">
                        <g id="Trazado_982547-2" data-name="Trazado 982547" transform="translate(9 6)" fill="#fdfbec">
                          <path d="M 39.7666015625 78.033203125 C 34.59997940063477 78.033203125 29.58870124816895 77.02164459228516 24.87196731567383 75.02663421630859 C 20.31538963317871 73.099365234375 16.22284507751465 70.34000396728516 12.70802402496338 66.82518005371094 C 9.193202018737793 63.31035614013672 6.433835029602051 59.21781158447266 4.506568431854248 54.66123580932617 C 2.511557102203369 49.94449996948242 1.500001549720764 44.93322372436523 1.500001549720764 39.7666015625 C 1.500001549720764 34.59997940063477 2.511557102203369 29.58870124816895 4.506568431854248 24.87196731567383 C 6.433835029602051 20.31538963317871 9.193202018737793 16.22284507751465 12.70802402496338 12.70802402496338 C 16.22284507751465 9.193202018737793 20.31538963317871 6.433835029602051 24.87196731567383 4.506568431854248 C 29.58870124816895 2.511557102203369 34.59997940063477 1.500001549720764 39.7666015625 1.500001549720764 C 44.93322372436523 1.500001549720764 49.94449996948242 2.511557102203369 54.66123580932617 4.506568431854248 C 59.21781158447266 6.433835029602051 63.31035614013672 9.193202018737793 66.82518005371094 12.70802402496338 C 70.34000396728516 16.22284507751465 73.099365234375 20.31538963317871 75.02663421630859 24.87196731567383 C 77.02164459228516 29.58870124816895 78.033203125 34.59997940063477 78.033203125 39.7666015625 C 78.033203125 44.93322372436523 77.02164459228516 49.94449996948242 75.02663421630859 54.66123580932617 C 73.099365234375 59.21781158447266 70.34000396728516 63.31035614013672 66.82518005371094 66.82518005371094 C 63.31035614013672 70.34000396728516 59.21781158447266 73.099365234375 54.66123580932617 75.02663421630859 C 49.94449996948242 77.02164459228516 44.93322372436523 78.033203125 39.7666015625 78.033203125 Z" stroke="none"/>
                          <path d="M 39.7666015625 3 C 34.80181503295898 3 29.98714065551758 3.971687316894531 25.45630264282227 5.888076782226562 C 21.07851409912109 7.739715576171875 17.146240234375 10.39113616943359 13.76869201660156 13.76869201660156 C 10.39113616943359 17.146240234375 7.739715576171875 21.07851409912109 5.888076782226562 25.45630264282227 C 3.971687316894531 29.98714065551758 3 34.80181503295898 3 39.7666015625 C 3 44.73138809204102 3.971687316894531 49.54606628417969 5.888076782226562 54.076904296875 C 7.739715576171875 58.45468902587891 10.39113616943359 62.386962890625 13.76869201660156 65.76451110839844 C 17.146240234375 69.14206695556641 21.07851409912109 71.79348754882812 25.45630264282227 73.64512634277344 C 29.98714065551758 75.56151580810547 34.80181503295898 76.533203125 39.7666015625 76.533203125 C 44.73138809204102 76.533203125 49.54606628417969 75.56151580810547 54.076904296875 73.64512634277344 C 58.45468902587891 71.79348754882812 62.386962890625 69.14206695556641 65.76451110839844 65.76451110839844 C 69.14206695556641 62.386962890625 71.79348754882812 58.45468902587891 73.64512634277344 54.076904296875 C 75.56151580810547 49.54606628417969 76.533203125 44.73138809204102 76.533203125 39.7666015625 C 76.533203125 34.80181503295898 75.56151580810547 29.98714065551758 73.64512634277344 25.45630264282227 C 71.79348754882812 21.07851409912109 69.14206695556641 17.146240234375 65.76451110839844 13.76869201660156 C 62.386962890625 10.39113616943359 58.45468902587891 7.739715576171875 54.076904296875 5.888076782226562 C 49.54606628417969 3.971687316894531 44.73138809204102 3 39.7666015625 3 M 39.7666015625 0 C 61.72908782958984 0 79.533203125 17.80411529541016 79.533203125 39.7666015625 C 79.533203125 61.72908782958984 61.72908782958984 79.533203125 39.7666015625 79.533203125 C 17.80411529541016 79.533203125 0 61.72908782958984 0 39.7666015625 C 0 17.80411529541016 17.80411529541016 0 39.7666015625 0 Z" stroke="none" fill="#83793c"/>
                        </g>
                      </g>
                    </g>
                  </g>
                </g>
              </g>
            </g>
          </g>
        </g>
      </g>
    </g>
    <g id="votacion_2_" data-name="votacion (2)" transform="translate(633.875 9427.338)">
      <g id="Grupo_1242268" data-name="Grupo 1242268" transform="translate(0.761 0.72)">
        <g id="Grupo_1242262" data-name="Grupo 1242262" transform="translate(0.215 0.121)">
          <path id="Trazado_1221197" data-name="Trazado 1221197" d="M300.329,30.188H291.89a.958.958,0,0,1-.936-.75,13.576,13.576,0,0,0-3.331-6.3q-.307-.333-.638-.642a13.734,13.734,0,0,0-6.291-3.391.959.959,0,0,1-.743-.934V9.717a.962.962,0,0,1,1.1-.95,23.827,23.827,0,0,1,20.226,20.325.961.961,0,0,1-.95,1.1Z" transform="translate(-254.024 -8.757)" fill="#98d5b9"/>
          <path id="Trazado_1221198" data-name="Trazado 1221198" d="M31.119,9.717v8.446a.959.959,0,0,1-.746.935A13.579,13.579,0,0,0,24.2,22.356q-.461.422-.881.887a13.588,13.588,0,0,0-3.2,6.194.959.959,0,0,1-.937.752H10.742a.961.961,0,0,1-.95-1.1,23.637,23.637,0,0,1,1.174-4.779A23.835,23.835,0,0,1,30.019,8.767a.962.962,0,0,1,1.1.95Z" transform="translate(-9.783 -8.757)" fill="#fd9468"/>
        </g>
        <g id="Grupo_1242263" data-name="Grupo 1242263" transform="translate(0.215 26.143)">
          <path id="Trazado_1221199" data-name="Trazado 1221199" d="M301.279,281.016a23.645,23.645,0,0,1-1.174,4.78,23.835,23.835,0,0,1-19.053,15.545.962.962,0,0,1-1.1-.95v-8.453a.959.959,0,0,1,.743-.934,13.734,13.734,0,0,0,6.291-3.391q.331-.309.638-.642a13.576,13.576,0,0,0,3.331-6.3.958.958,0,0,1,.936-.75h8.439A.961.961,0,0,1,301.279,281.016Z" transform="translate(-254.024 -279.92)" fill="#fe646f"/>
          <path id="Trazado_1221200" data-name="Trazado 1221200" d="M31.119,291.945v8.446a.962.962,0,0,1-1.1.95A23.827,23.827,0,0,1,9.792,281.016a.961.961,0,0,1,.95-1.1h8.436a.958.958,0,0,1,.937.752,13.588,13.588,0,0,0,3.2,6.194q.42.463.881.887a13.579,13.579,0,0,0,6.173,3.258A.959.959,0,0,1,31.119,291.945Z" transform="translate(-9.783 -279.92)" fill="#fee45a"/>
        </g>
        <g id="Grupo_1242264" data-name="Grupo 1242264" transform="translate(31.887 31.887)">
          <path id="Trazado_1221201" data-name="Trazado 1221201" d="M354.23,339.911a23.911,23.911,0,0,1-14.263,14.342,5.492,5.492,0,0,1-.146-1.258v-7.744a5.448,5.448,0,0,1,1.289-3.523,5.522,5.522,0,0,1,.638-.642,5.451,5.451,0,0,1,3.544-1.306h7.744A5.444,5.444,0,0,1,354.23,339.911Z" transform="translate(-339.821 -339.78)" fill="#fd4755"/>
          <path id="Trazado_1221202" data-name="Trazado 1221202" d="M380.161,382.712h-7.744a2.592,2.592,0,0,1-2.592-2.592v-7.744a2.592,2.592,0,0,1,2.592-2.592h7.744a2.592,2.592,0,0,1,2.592,2.592v7.744A2.592,2.592,0,0,1,380.161,382.712Z" transform="translate(-366.946 -366.905)" fill="#918291"/>
          <circle id="Elipse_11623" data-name="Elipse 11623" cx="3.13" cy="3.13" r="3.13" transform="translate(6.213 5.471)" fill="#ffcebf"/>
          <path id="Trazado_1221203" data-name="Trazado 1221203" d="M390.141,466.1h7.744a2.589,2.589,0,0,0,.711-.1,4.629,4.629,0,0,0-9.165,0A2.589,2.589,0,0,0,390.141,466.1Z" transform="translate(-384.669 -450.297)" fill="#8ac9fe"/>
        </g>
        <g id="Grupo_1242265" data-name="Grupo 1242265" transform="translate(0 31.887)">
          <path id="Trazado_1221204" data-name="Trazado 1221204" d="M36.52,345.251V353a5.491,5.491,0,0,1-.146,1.258,23.911,23.911,0,0,1-14.263-14.342,5.444,5.444,0,0,1,1.194-.131h7.744a5.478,5.478,0,0,1,5.471,5.471Z" transform="translate(-20.713 -339.78)" fill="#fedf30"/>
          <path id="Trazado_1221205" data-name="Trazado 1221205" d="M17.877,382.712H10.133a2.592,2.592,0,0,1-2.592-2.592v-7.744a2.592,2.592,0,0,1,2.592-2.592h7.744a2.592,2.592,0,0,1,2.592,2.592v7.744A2.592,2.592,0,0,1,17.877,382.712Z" transform="translate(-7.541 -366.905)" fill="#918291"/>
          <circle id="Elipse_11624" data-name="Elipse 11624" cx="3.13" cy="3.13" r="3.13" transform="translate(3.334 5.471)" fill="#ffcebf"/>
          <path id="Trazado_1221206" data-name="Trazado 1221206" d="M27.857,466.1H35.6a2.589,2.589,0,0,0,.711-.1,4.629,4.629,0,0,0-9.165,0A2.589,2.589,0,0,0,27.857,466.1Z" transform="translate(-25.265 -450.297)" fill="#8ac9fe"/>
        </g>
        <g id="Grupo_1242266" data-name="Grupo 1242266" transform="translate(31.887)">
          <path id="Trazado_1221207" data-name="Trazado 1221207" d="M354.23,35.742a5.444,5.444,0,0,1-1.194.131h-7.744a5.451,5.451,0,0,1-3.544-1.306,5.522,5.522,0,0,1-.638-.642,5.448,5.448,0,0,1-1.289-3.523V22.658a5.491,5.491,0,0,1,.146-1.258A23.911,23.911,0,0,1,354.23,35.742Z" transform="translate(-339.821 -20.066)" fill="#57be92"/>
          <path id="Trazado_1221208" data-name="Trazado 1221208" d="M380.161,20.428h-7.744a2.592,2.592,0,0,1-2.592-2.592V10.092A2.592,2.592,0,0,1,372.417,7.5h7.744a2.592,2.592,0,0,1,2.592,2.592v7.744A2.592,2.592,0,0,1,380.161,20.428Z" transform="translate(-366.946 -7.5)" fill="#918291"/>
          <circle id="Elipse_11625" data-name="Elipse 11625" cx="3.13" cy="3.13" r="3.13" transform="translate(6.213 2.592)" fill="#ffcebf"/>
          <path id="Trazado_1221209" data-name="Trazado 1221209" d="M390.141,103.82h7.744a2.589,2.589,0,0,0,.711-.1,4.629,4.629,0,0,0-9.165,0A2.593,2.593,0,0,0,390.141,103.82Z" transform="translate(-384.669 -90.892)" fill="#8ac9fe"/>
        </g>
        <g id="Grupo_1242267" data-name="Grupo 1242267">
          <path id="Trazado_1221210" data-name="Trazado 1221210" d="M36.52,22.658V30.4a5.48,5.48,0,0,1-5.471,5.471H23.3a5.444,5.444,0,0,1-1.194-.131A23.911,23.911,0,0,1,36.374,21.4a5.491,5.491,0,0,1,.146,1.258Z" transform="translate(-20.713 -20.066)" fill="#fe7d43"/>
          <path id="Trazado_1221211" data-name="Trazado 1221211" d="M17.877,20.428H10.133a2.592,2.592,0,0,1-2.592-2.592V10.092A2.592,2.592,0,0,1,10.133,7.5h7.744a2.592,2.592,0,0,1,2.592,2.592v7.744A2.592,2.592,0,0,1,17.877,20.428Z" transform="translate(-7.541 -7.5)" fill="#918291"/>
          <circle id="Elipse_11626" data-name="Elipse 11626" cx="3.13" cy="3.13" r="3.13" transform="translate(3.334 2.592)" fill="#ffcebf"/>
          <path id="Trazado_1221212" data-name="Trazado 1221212" d="M27.857,103.82H35.6a2.589,2.589,0,0,0,.711-.1,4.629,4.629,0,0,0-9.165,0A2.593,2.593,0,0,0,27.857,103.82Z" transform="translate(-25.265 -90.892)" fill="#8ac9fe"/>
        </g>
      </g>
      <path id="Trazado_1221213" data-name="Trazado 1221213" d="M21.775,31.386A.719.719,0,0,0,22.717,31L28,18.419a.72.72,0,0,0-1.327-.557l-5.28,12.582A.72.72,0,0,0,21.775,31.386ZM17.989,20.266A3.262,3.262,0,0,0,21.042,23.7,3.262,3.262,0,0,0,24.1,20.266a3.262,3.262,0,0,0-3.053-3.431A3.262,3.262,0,0,0,17.989,20.266Zm4.666,0a1.835,1.835,0,0,1-1.613,1.991,1.835,1.835,0,0,1-1.613-1.991,1.835,1.835,0,0,1,1.613-1.992A1.835,1.835,0,0,1,22.656,20.266ZM2.285,14.189a24.361,24.361,0,0,0-2.014,6.9,1.7,1.7,0,0,0,1.665,1.9h8.437a1.668,1.668,0,0,0,1.639-1.317,12.957,12.957,0,0,1,9.717-9.792,1.67,1.67,0,0,0,1.3-1.636V1.8A1.7,1.7,0,0,0,21.122.137a24.347,24.347,0,0,0-6.908,2.057A3.317,3.317,0,0,0,11.1,0H3.353A3.316,3.316,0,0,0,.041,3.312v7.744a3.316,3.316,0,0,0,2.244,3.133Zm12.124-3.133V3.7a22.914,22.914,0,0,1,6.916-2.134.23.23,0,0,1,.185.055.24.24,0,0,1,.084.183v8.446a.238.238,0,0,1-.186.233,14.4,14.4,0,0,0-10.8,10.884.238.238,0,0,1-.233.188H1.935a.224.224,0,0,1-.239-.268,22.928,22.928,0,0,1,2.1-6.917h7.3a3.33,3.33,0,0,0,3.312-3.312Zm-7.184-.764a3.929,3.929,0,0,1,3.7,2.636H3.686a.711.711,0,0,0-.139-.048,3.929,3.929,0,0,1,3.678-2.588Zm-2.41-3.85a2.41,2.41,0,1,1,2.41,2.41A2.413,2.413,0,0,1,4.814,6.442ZM1.48,3.312A1.874,1.874,0,0,1,3.353,1.439H11.1a1.874,1.874,0,0,1,1.872,1.872v7.744a1.869,1.869,0,0,1-.676,1.438A5.388,5.388,0,0,0,9.641,9.436a3.85,3.85,0,1,0-4.832,0,5.387,5.387,0,0,0-2.653,3.058,1.869,1.869,0,0,1-.676-1.438V3.312ZM21.728,37.251a12.939,12.939,0,0,1-9.853-10.5.72.72,0,0,0-.71-.6H.86a.72.72,0,0,0-.717.785A24.455,24.455,0,0,0,1.6,33.3a.72.72,0,1,0,1.348-.505,23.005,23.005,0,0,1-1.283-5.21h8.9A14.382,14.382,0,0,0,21.407,38.655a.238.238,0,0,1,.186.233v8.446a.222.222,0,0,1-.269.239,22.923,22.923,0,0,1-6.915-2.134v-7.36A3.316,3.316,0,0,0,11.1,34.766H3.353A3.316,3.316,0,0,0,.041,38.078v7.744a3.311,3.311,0,0,0,3.312,3.312H11.1a3.477,3.477,0,0,0,3.117-2.193A24.358,24.358,0,0,0,21.121,49a1.678,1.678,0,0,0,1.911-1.664V38.887a1.67,1.67,0,0,0-1.3-1.636ZM3.529,47.694a3.909,3.909,0,0,1,7.392,0Zm1.286-6.486a2.41,2.41,0,1,1,2.41,2.41,2.413,2.413,0,0,1-2.41-2.41Zm8.155,4.614a1.869,1.869,0,0,1-.676,1.438A5.388,5.388,0,0,0,9.641,44.2a3.85,3.85,0,1,0-4.832,0A5.387,5.387,0,0,0,2.156,47.26a1.869,1.869,0,0,1-.676-1.438V38.078a1.875,1.875,0,0,1,1.872-1.872H11.1a1.874,1.874,0,0,1,1.872,1.872v7.744ZM46.932,34.944a24.342,24.342,0,0,0,2.014-6.9,1.678,1.678,0,0,0-1.665-1.9H38.842A1.668,1.668,0,0,0,37.2,27.456a13.026,13.026,0,0,1-9.722,9.789,1.671,1.671,0,0,0-1.3,1.635v8.454A1.678,1.678,0,0,0,28.094,49,24.36,24.36,0,0,0,35,46.941a3.335,3.335,0,0,0,3.116,2.193h7.744a3.331,3.331,0,0,0,3.312-3.312V38.078a3.317,3.317,0,0,0-2.243-3.134ZM34.807,38.078v7.36a22.924,22.924,0,0,1-6.916,2.133.229.229,0,0,1-.185-.055.24.24,0,0,1-.084-.183V38.88a.238.238,0,0,1,.186-.233,14.473,14.473,0,0,0,10.8-10.878.238.238,0,0,1,.233-.187h8.439a.24.24,0,0,1,.183.083.231.231,0,0,1,.056.184,22.906,22.906,0,0,1-2.1,6.917h-7.3a3.316,3.316,0,0,0-3.312,3.312ZM38.3,47.694a3.908,3.908,0,0,1,7.391,0Zm1.285-6.486a2.41,2.41,0,1,1,2.41,2.41A2.413,2.413,0,0,1,39.581,41.208Zm8.154,4.614a1.869,1.869,0,0,1-.676,1.438A5.388,5.388,0,0,0,44.407,44.2a3.85,3.85,0,1,0-4.832,0,5.387,5.387,0,0,0-2.653,3.058,1.869,1.869,0,0,1-.676-1.438V38.078a1.875,1.875,0,0,1,1.872-1.872h7.692a.72.72,0,0,0,.084,0,1.874,1.874,0,0,1,1.84,1.871v7.744ZM45.863,0H38.119A3.317,3.317,0,0,0,35,2.192,24.36,24.36,0,0,0,28.094.137,1.694,1.694,0,0,0,26.184,1.8v8.454a1.672,1.672,0,0,0,1.3,1.635A13.026,13.026,0,0,1,37.2,21.677a1.668,1.668,0,0,0,1.638,1.314h8.439a1.7,1.7,0,0,0,1.665-1.9,24.467,24.467,0,0,0-1.21-4.937.72.72,0,1,0-1.355.487,23.029,23.029,0,0,1,1.139,4.646.222.222,0,0,1-.239.268H38.842a.238.238,0,0,1-.233-.187,14.473,14.473,0,0,0-10.8-10.878.238.238,0,0,1-.185-.233V1.8a.224.224,0,0,1,.269-.239,22.923,22.923,0,0,1,6.916,2.133v7.36a3.332,3.332,0,0,0,3.312,3.312h7.744a3.365,3.365,0,0,0,3.312-3.312V3.312A3.316,3.316,0,0,0,45.863,0ZM38.3,12.928a3.908,3.908,0,0,1,7.391,0Zm1.285-6.486a2.41,2.41,0,1,1,2.41,2.41A2.413,2.413,0,0,1,39.581,6.442Zm8.154,4.614a1.869,1.869,0,0,1-.676,1.438,5.388,5.388,0,0,0-2.653-3.058,3.85,3.85,0,1,0-4.832,0,5.387,5.387,0,0,0-2.653,3.058,1.869,1.869,0,0,1-.676-1.438V3.312a1.875,1.875,0,0,1,1.872-1.872h7.744a1.874,1.874,0,0,1,1.872,1.872v7.744ZM31.227,28.868a3.262,3.262,0,0,0-3.053-3.431,3.262,3.262,0,0,0-3.053,3.431A3.262,3.262,0,0,0,28.174,32.3,3.262,3.262,0,0,0,31.227,28.868Zm-4.666,0a1.835,1.835,0,0,1,1.613-1.991,1.835,1.835,0,0,1,1.613,1.991,1.835,1.835,0,0,1-1.613,1.992A1.835,1.835,0,0,1,26.56,28.868Z"/>
    </g>
  </g>
</svg>
