<svg xmlns="http://www.w3.org/2000/svg" xmlns:xlink="http://www.w3.org/1999/xlink" width="1328" height="629.529" viewBox="0 0 1328 629.529">
  <defs>
    <clipPath id="clip-path">
      <rect id="Rectángulo_418093" data-name="Rectángulo 418093" width="1328" height="628.608" fill="#f5f2ed"/>
    </clipPath>
  </defs>
  <g id="Grupo_1241215" data-name="Grupo 1241215" transform="translate(-136 -842.783)">
    <path id="Trazado_1174971" data-name="Trazado 1174971" d="M0,0H1328V629.08H0Z" transform="translate(136 843.232)" fill="#5da4d9"/>
    <g id="Grupo_1206106" data-name="Grupo 1206106" transform="translate(206.165 866.911)" opacity="0.15">
      <path id="Trazado_1042774" data-name="Trazado 1042774" d="M177.84,719.46l-7.93,12.67h17.07Z" transform="translate(-139.24 -383.462)" fill="#914d86"/>
      <path id="Trazado_1043063" data-name="Trazado 1043063" d="M177.84,732.13l-7.93-12.67h17.07Z" transform="translate(904.74 -691.77)" fill="#914d86"/>
      <path id="Trazado_1043061" data-name="Trazado 1043061" d="M177.84,719.46l-7.93,12.67h17.07Z" transform="translate(1023.371 -149.381)" fill="#914d86"/>
      <path id="Trazado_1042776" data-name="Trazado 1042776" d="M506.98,822.58l-9.85,15.72h21.18Z" transform="translate(-342.24 -363.521)" fill="#914d86"/>
      <path id="Trazado_1042777" data-name="Trazado 1042777" d="M664.51,413.88l-20.56,32.83h44.22Z" transform="translate(395.015 88.357)" fill="#914d86"/>
      <path id="Trazado_1042778" data-name="Trazado 1042778" d="M364.15,863.69h-8.48v-8.48a1.65,1.65,0,1,0-3.3,0v8.48h-8.48a1.65,1.65,0,0,0,0,3.3h8.48v8.48a1.65,1.65,0,1,0,3.3,0v-8.48h8.48a1.65,1.65,0,0,0,0-3.3Z" transform="translate(-342.24 -340.871)" fill="#914d86"/>
      <path id="Trazado_1042779" data-name="Trazado 1042779" d="M180.82,627.48h-9.96v-9.97a1.94,1.94,0,0,0-3.88,0v9.97h-9.96a1.94,1.94,0,0,0,0,3.88h9.96v9.96a1.94,1.94,0,0,0,3.88,0v-9.96h9.96a1.94,1.94,0,0,0,0-3.88Z" transform="translate(-15.24 -615.57)" fill="#914d86"/>
      <path id="Trazado_1043062" data-name="Trazado 1043062" d="M180.82,627.48h-9.96v-9.97a1.94,1.94,0,0,0-3.88,0v9.97h-9.96a1.94,1.94,0,0,0,0,3.88h9.96v9.96a1.94,1.94,0,0,0,3.88,0v-9.96h9.96a1.94,1.94,0,0,0,0-3.88Z" transform="translate(1023.371 -173.621)" fill="#914d86"/>
      <g id="Grupo_1206062" data-name="Grupo 1206062" transform="translate(154.295 170.964)">
        <path id="Trazado_1042780" data-name="Trazado 1042780" d="M144.86,253.25l-4.04,6.44h8.68Z" transform="translate(240.72 -155.87)" fill="#914d86"/>
        <path id="Trazado_1042781" data-name="Trazado 1042781" d="M688.39,243.71l-4.03,6.44h8.68Z" transform="translate(240.72 -155.87)" fill="#914d86"/>
        <path id="Trazado_1042782" data-name="Trazado 1042782" d="M207.6,214.04H197.52V203.96a1.96,1.96,0,0,0-3.92,0v10.08H183.52a1.96,1.96,0,0,0,0,3.92H193.6v10.08a1.96,1.96,0,1,0,3.92,0V217.96H207.6a1.96,1.96,0,1,0,0-3.92Z" transform="translate(240.72 -155.87)" fill="#914d86"/>
        <path id="Trazado_1042783" data-name="Trazado 1042783" d="M687.86,165.41h-4.32v-4.32a.84.84,0,0,0-1.68,0v4.32h-4.32a.84.84,0,1,0,0,1.68h4.32v4.32a.84.84,0,0,0,1.68,0v-4.32h4.32a.84.84,0,1,0,0-1.68Z" transform="translate(240.72 -155.87)" fill="#914d86"/>
        <path id="Trazado_1042784" data-name="Trazado 1042784" d="M640.51,282.17h-7.16v-7.16a1.39,1.39,0,0,0-2.78,0v7.16h-7.16a1.39,1.39,0,0,0,0,2.78h7.16v7.16a1.39,1.39,0,0,0,2.78,0v-7.16h7.16a1.39,1.39,0,0,0,0-2.78Z" transform="translate(240.72 -155.87)" fill="#914d86"/>
        <path id="Trazado_1042785" data-name="Trazado 1042785" d="M148.93,159.64a3.77,3.77,0,1,1-3.77-3.77A3.773,3.773,0,0,1,148.93,159.64Z" transform="translate(240.72 -155.87)" fill="#914d86"/>
        <path id="Trazado_1042786" data-name="Trazado 1042786" d="M618.82,194a3.77,3.77,0,1,1-3.77-3.77A3.773,3.773,0,0,1,618.82,194Z" transform="translate(240.72 -155.87)" fill="#914d86"/>
        <path id="Trazado_1042787" data-name="Trazado 1042787" d="M246.77,166.25a3.77,3.77,0,1,1-3.77-3.77A3.773,3.773,0,0,1,246.77,166.25Z" transform="translate(240.72 -155.87)" fill="#914d86"/>
        <path id="Trazado_1219739" data-name="Trazado 1219739" d="M688.39,243.71l-4.03,6.44h8.68Z" transform="translate(-611.28 -155.87)" fill="#914d86"/>
        <path id="Trazado_1219740" data-name="Trazado 1219740" d="M687.86,165.41h-4.32v-4.32a.84.84,0,0,0-1.68,0v4.32h-4.32a.84.84,0,1,0,0,1.68h4.32v4.32a.84.84,0,0,0,1.68,0v-4.32h4.32a.84.84,0,1,0,0-1.68Z" transform="translate(-611.28 -155.87)" fill="#914d86"/>
        <path id="Trazado_1219741" data-name="Trazado 1219741" d="M640.51,282.17h-7.16v-7.16a1.39,1.39,0,0,0-2.78,0v7.16h-7.16a1.39,1.39,0,0,0,0,2.78h7.16v7.16a1.39,1.39,0,0,0,2.78,0v-7.16h7.16a1.39,1.39,0,0,0,0-2.78Z" transform="translate(-611.28 -155.87)" fill="#914d86"/>
        <path id="Trazado_1219742" data-name="Trazado 1219742" d="M618.82,194a3.77,3.77,0,1,1-3.77-3.77A3.773,3.773,0,0,1,618.82,194Z" transform="translate(-611.28 -155.87)" fill="#914d86"/>
      </g>
      <path id="Trazado_1219747" data-name="Trazado 1219747" d="M189.073,750.077,169.91,719.46h41.25Z" transform="translate(-163.42 -606.77)" fill="#914d86"/>
    </g>
  </g>
</svg>
