<svg xmlns="http://www.w3.org/2000/svg" width="38.723" height="38.728" viewBox="0 0 38.723 38.728">
  <g id="idea-creativa_1_" data-name="idea-creativa (1)" transform="translate(-2 -1.997)">
    <g id="Grupo_1241743" data-name="Grupo 1241743" transform="translate(2 1.996)">
      <path id="Trazado_1220049" data-name="Trazado 1220049" d="M54.779,49.688a.587.587,0,1,0-.83.83l1.536,1.536a.587.587,0,0,0,.83-.83Z" transform="translate(-22.45 -20.765)" fill="#0b0a0a"/>
      <path id="Trazado_1220050" data-name="Trazado 1220050" d="M55.486,9.913l-1.536,1.536a.587.587,0,1,0,.83.83l1.536-1.536a.587.587,0,0,0-.83-.83Z" transform="translate(-22.45 -5.055)" fill="#0b0a0a"/>
      <path id="Trazado_1220051" data-name="Trazado 1220051" d="M42.409,5.249a.585.585,0,0,0,.719-.415l.562-2.1a.587.587,0,0,0-1.133-.3l-.562,2.1A.587.587,0,0,0,42.409,5.249Z" transform="translate(-17.788 -1.996)" fill="#0b0a0a"/>
      <path id="Trazado_1220052" data-name="Trazado 1220052" d="M28,4.834a.587.587,0,0,0,1.133-.3l-.563-2.1a.587.587,0,0,0-1.133.3Z" transform="translate(-12.038 -1.996)" fill="#0b0a0a"/>
      <path id="Trazado_1220053" data-name="Trazado 1220053" d="M15.71,12.279a.587.587,0,0,0,.83-.83L15,9.913a.587.587,0,1,0-.83.83Z" transform="translate(-6.74 -5.055)" fill="#0b0a0a"/>
      <path id="Trazado_1220054" data-name="Trazado 1220054" d="M6.693,24.308l2.1.562a.587.587,0,1,0,.3-1.133L7,23.175a.587.587,0,0,0-.3,1.133Z" transform="translate(-3.682 -10.353)" fill="#0b0a0a"/>
      <path id="Trazado_1220055" data-name="Trazado 1220055" d="M43.128,56.766a.587.587,0,1,0-1.133.3l.562,2.1a.587.587,0,0,0,1.133-.3Z" transform="translate(-17.788 -23.456)" fill="#0b0a0a"/>
      <path id="Trazado_1220056" data-name="Trazado 1220056" d="M63.429,38.3l-2.1-.562a.587.587,0,1,0-.3,1.133l2.1.562a.587.587,0,0,0,.3-1.133Z" transform="translate(-25.141 -16.103)" fill="#0b0a0a"/>
      <path id="Trazado_1220057" data-name="Trazado 1220057" d="M61.178,24.89a.585.585,0,0,0,.152-.02l2.1-.562a.587.587,0,0,0-.3-1.133l-2.1.562a.587.587,0,0,0,.151,1.154Z" transform="translate(-25.141 -10.353)" fill="#0b0a0a"/>
      <path id="Trazado_1220058" data-name="Trazado 1220058" d="M34.557,24.087a.59.59,0,0,0-.669.493A10.629,10.629,0,0,1,22.4,33.57a7.891,7.891,0,0,0-5.164,1.3l-1.508-1.508,6.76-6.76,1.074,1.074a2.692,2.692,0,0,0,3.8,0A2.693,2.693,0,0,0,23.56,23.87l-1.068,1.074-1.1-1.1,1.074-1.074a2.693,2.693,0,1,0-3.808-.006l1.074,1.08L12.974,30.6l-1.5-1.5a7.792,7.792,0,0,0,1.291-5.146,10.647,10.647,0,0,1,21.143-2.482.586.586,0,1,0,1.162-.158A11.82,11.82,0,0,0,11.6,24.063a6.656,6.656,0,0,1-1,4.2,1.568,1.568,0,0,0-2.019.153L7.218,29.773a1.9,1.9,0,0,0-.123,2.535L3.562,35.847a.555.555,0,0,0-.158.293l-.241,1.144-1.138,5.4a1.38,1.38,0,0,0,.082.786,1.383,1.383,0,0,0,.745.769,1.456,1.456,0,0,0,.528.1,1.5,1.5,0,0,0,.276-.023l5.5-1.162,1.044-.217a.578.578,0,0,0,.293-.158l3.533-3.533a1.91,1.91,0,0,0,1.191.428,1.886,1.886,0,0,0,1.344-.557l1.361-1.361a1.562,1.562,0,0,0,.141-2.03,6.784,6.784,0,0,1,4.237-.986A11.807,11.807,0,0,0,35.05,24.756a.6.6,0,0,0-.493-.669ZM24.394,24.7a1.519,1.519,0,1,1,0,2.148l-1.074-1.08Zm-4.912-2.764a1.514,1.514,0,0,1,1.074-2.588,1.517,1.517,0,0,1,1.074,2.588l-1.068,1.074Zm1.08,2.734,1.1,1.1-6.76,6.76-1.1-1.1ZM7.91,33.153l1.256,1.256L6.021,37.548,4.771,36.3Zm2.083,2.083,1.1,1.1-3.1,3.1-1.1-1.1ZM3.415,43.158a.2.2,0,0,1-.117-.006.373.373,0,0,1-.065-.047.363.363,0,0,1-.047-.07.173.173,0,0,1-.006-.112L4.313,37.5l4.524,4.524Zm6.625-1.59L8.784,40.312l3.139-3.145,1.262,1.262Zm7.048-4.642-1.356,1.356a.748.748,0,0,1-1.033,0L8.051,31.633a.726.726,0,0,1,0-1.033l1.356-1.356a.39.39,0,0,1,.546,0l7.136,7.136A.383.383,0,0,1,17.088,36.926Z" transform="translate(-2 -5.61)" fill="#0b0a0a"/>
    </g>
  </g>
</svg>
