<svg xmlns="http://www.w3.org/2000/svg" xmlns:xlink="http://www.w3.org/1999/xlink" width="295" height="306" viewBox="0 0 295 306">
  <defs>
    <clipPath id="clip-path">
      <rect id="Rect치ngulo_424219" data-name="Rect치ngulo 424219" width="295" height="306" transform="translate(180 3360)" fill="#fff" stroke="#707070" stroke-width="1"/>
    </clipPath>
  </defs>
  <g id="Grupo_1241741" data-name="Grupo 1241741" transform="translate(-180 -3360)">
    <rect id="Rect치ngulo_424220" data-name="Rect치ngulo 424220" width="210" height="230" transform="translate(265 3425)" fill="#edf3fc"/>
    <g id="Enmascarar_grupo_1211478" data-name="Enmascarar grupo 1211478" clip-path="url(#clip-path)">
      <g id="_16748302_Women_working_and_thinking_business_idea_web_illustration" data-name="16748302_Women_working_and_thinking_business_idea_web_illustration" transform="translate(-520.882 3190.657)">
        <path id="Trazado_1219817" data-name="Trazado 1219817" d="M1933.2,651.351a5.991,5.991,0,0,0-4.7-7.047l-4.223-.845a5.991,5.991,0,0,0-7.047,4.7l-.55,2.747a5.991,5.991,0,0,0,4.7,7.047l4.223.845a5.991,5.991,0,0,0,7.047-4.7l.55-2.747Z" transform="translate(-999.445 -383.632)" fill="#8a8a8a" fill-rule="evenodd"/>
        <path id="Trazado_1219818" data-name="Trazado 1219818" d="M1873.32,267.062s8.64,2.914,9.931-2.478c3.3-13.779,24.382-11.842,30.69-36.738,4.391-17.332-7.814-34.337-25.205-37.818a32.152,32.152,0,0,0-37.817,25.205c-5.008,25.025,14.747,28.777,14.373,45.571-.107,4.841,8.028,6.257,8.028,6.257Z" transform="translate(-945.2 -13.104)" fill="orange" fill-rule="evenodd"/>
        <path id="Trazado_1219819" data-name="Trazado 1219819" d="M1881.049,189.557a32.168,32.168,0,0,0-30.123,25.806c-5.009,25.025,14.747,28.777,14.373,45.571-.108,4.841,8.028,6.258,8.028,6.258s.459.155,1.182.327a3.978,3.978,0,0,0,3.2-3.051c3.3-13.779-5.066-24.66,16.983-37.831,18.5-11.052,6.215-33.407-11.5-36.724-.717-.134-1.428-.261-2.143-.355Z" transform="translate(-945.206 -13.234)" fill="#ffc216" fill-rule="evenodd"/>
        <path id="Trazado_1219820" data-name="Trazado 1219820" d="M1873.788,267.6a4.794,4.794,0,0,1-2.349-4.008c.374-16.795-17.177-20.2-14.373-45.571,1.963-17.761,33.753-27.219,31.681-27.593-17.454-3.153-34.337,7.814-37.817,25.205-5.009,25.025,14.747,28.777,14.373,45.571-.108,4.841,8.028,6.257,8.028,6.257s.165.056.458.139Z" transform="translate(-945.209 -13.506)" fill="#ffce45" fill-rule="evenodd"/>
        <path id="Trazado_1219821" data-name="Trazado 1219821" d="M1959.09,443.53c.07.182.108,1.974-.25,1.547a4.951,4.951,0,0,1-.66-2.064,79.477,79.477,0,0,1-.88-8.12c-.6-6.919-1.618-15.764,3.226-21.664a3.36,3.36,0,0,1,5.322.046,6.754,6.754,0,0,1,1.045,4.074c.006.816.084,2.928-1.182,3.086-1.441.18-2.038-1.739-2.094-2.812-.112-2.147,1.334-5.631,3.775-6.083,2.142-.4,1.578,3.874,1.385,4.969-.065.369-.133.737-.22,1.1-.08.331-.353,1.229-.468.908-.211-.592.25-1.644.443-2.214.826-2.435,2.611-4.7,5.435-3.834.9.276,1.091,1.337,1.127,2.154a22.034,22.034,0,0,1-1.446,7.94,97.949,97.949,0,0,1-4.667,10.8c-1.12,2.414-1.883,4.982-2.919,7.431a49.332,49.332,0,0,0-3.373,9.343" transform="translate(-1032.272 -194.406)" fill="none" stroke="#000" stroke-linecap="round" stroke-linejoin="round" stroke-miterlimit="10" stroke-width="1.5"/>
        <path id="Trazado_1219822" data-name="Trazado 1219822" d="M1932.368,575.564a1.234,1.234,0,0,0-.968-1.452l-16.067-3.216a1.235,1.235,0,0,0-1.453.968l-3.776,18.868a1.235,1.235,0,0,0,.968,1.452l16.068,3.216a1.234,1.234,0,0,0,1.452-.968l3.776-18.868Z" transform="translate(-994.154 -324.48)" fill="#a0a0a0" fill-rule="evenodd"/>
        <path id="Trazado_1219823" data-name="Trazado 1219823" d="M1947.958,580.8a.091.091,0,0,0-.071-.107l-18.31-3.664a.091.091,0,0,0-.107.071l-.237,1.183a.091.091,0,0,0,.071.107l18.31,3.664a.091.091,0,0,0,.107-.071l.236-1.183Z" transform="translate(-1009.786 -329.5)" fill="#686868" fill-rule="evenodd"/>
        <path id="Trazado_1219824" data-name="Trazado 1219824" d="M1944.088,599.075a.091.091,0,0,0-.071-.107l-18.309-3.664a.091.091,0,0,0-.107.071l-.237,1.184a.091.091,0,0,0,.071.107l18.31,3.664a.091.091,0,0,0,.107-.071l.237-1.184Z" transform="translate(-1006.628 -344.42)" fill="#686868" fill-rule="evenodd"/>
        <path id="Trazado_1219825" data-name="Trazado 1219825" d="M1940.958,614.81a.091.091,0,0,0-.072-.107l-18.31-3.664a.091.091,0,0,0-.107.071l-.236,1.183a.091.091,0,0,0,.071.107l18.31,3.664a.091.091,0,0,0,.107-.071l.237-1.183Z" transform="translate(-1004.073 -357.264)" fill="#686868" fill-rule="evenodd"/>
        <path id="Trazado_1219826" data-name="Trazado 1219826" d="M1937.789,630.875a.091.091,0,0,0-.071-.107l-18.31-3.664a.091.091,0,0,0-.107.071l-.237,1.183a.091.091,0,0,0,.072.107l18.31,3.664a.091.091,0,0,0,.107-.071l.236-1.183Z" transform="translate(-1001.486 -370.377)" fill="#686868" fill-rule="evenodd"/>
        <path id="Trazado_1219827" data-name="Trazado 1219827" d="M1935.458,644.443a.091.091,0,0,0-.071-.107l-18.31-3.664a.091.091,0,0,0-.107.071l-.237,1.183a.091.091,0,0,0,.072.107l18.31,3.664a.091.091,0,0,0,.107-.071l.237-1.183Z" transform="translate(-999.583 -381.452)" fill="#686868" fill-rule="evenodd"/>
        <path id="Trazado_1219828" data-name="Trazado 1219828" d="M1932.238,660.1a.091.091,0,0,0-.071-.107l-18.309-3.664a.091.091,0,0,0-.107.071l-.237,1.183a.091.091,0,0,0,.072.107l18.309,3.664a.091.091,0,0,0,.107-.071l.237-1.183Z" transform="translate(-996.955 -394.229)" fill="#686868" fill-rule="evenodd"/>
        <path id="Trazado_1219829" data-name="Trazado 1219829" d="M1929.529,674.406a.091.091,0,0,0-.071-.107l-18.31-3.664a.091.091,0,0,0-.107.071l-.237,1.183a.091.091,0,0,0,.072.107l18.31,3.664a.091.091,0,0,0,.107-.071l.236-1.183Z" transform="translate(-994.744 -405.909)" fill="#686868" fill-rule="evenodd"/>
        <path id="Trazado_1219832" data-name="Trazado 1219832" d="M1878.171,1719.759c-.092.01.254-.094.289-.1a5.291,5.291,0,0,1,.6-.089c.58-.073,1.212-.106,1.809-.133.194-.009.4,0,.6.007.114,0,.344.008.344.008s-.193.007-.29.007c-.234,0-.456.015-.687.03-.76.048-1.507.089-2.207.185-.1.014-.452.034-.452.089Z" transform="translate(-968.097 -1261.982)" fill="#74b0f5" fill-rule="evenodd"/>
        <path id="Trazado_1219833" data-name="Trazado 1219833" d="M1867.44,1708.995a2.228,2.228,0,0,1,.769-.143c.607-.053,1.227-.094,1.844-.12a66.994,66.994,0,0,1,7.987.2c.739.057,1.468.151,2.18.248.118.016.754.087.754.154,0,.046-.224.006-.335,0-.3-.017-.587-.044-.88-.068-1.24-.1-2.448-.253-3.689-.351a58.587,58.587,0,0,0-6.142-.1c-.792.021-1.733.187-2.488.187Z" transform="translate(-959.35 -1253.211)" fill="#74b0f5" fill-rule="evenodd"/>
        <path id="Trazado_1219834" data-name="Trazado 1219834" d="M1943.443,1649.105c.271-1.726,6.116-2.569,7.494-2.155,3.133.941,3.55,3.375,3.031,6.234-.765,4.216-5.035,4.64-8.669,4.355a7.325,7.325,0,0,1-1.855-.842c-.849-.446-.745-8.855,0-7.593Zm.167.684c.256-.831,4.239-1.128,5.341-1.168,2.724-.1,2.909,2.167,2.5,4.4-.608,3.294-3.521,3.039-6.5,2.805-.328-.026-.695.2-1.3-.1-.7-.351-.652-6.927-.036-5.937Z" transform="translate(-1020.899 -1202.735)" fill="#c46793" fill-rule="evenodd"/>
        <path id="Trazado_1219835" data-name="Trazado 1219835" d="M1943.232,1650.457c-.2,1.566-.084,5.023.418,5.276.6.3.971.076,1.3.1,2.2.172,4.365.356,5.592-.884-.976,2.25-3.566,2.025-6.212,1.818-.191-.015-.395.056-.651.058l-.23-.122c-.548-.288-.7-3.884-.537-6.065a.252.252,0,0,1,.084.091.549.549,0,0,1,.238-.274Zm-.2-.858c.1-.544.24-.783.415-.485.271-1.726,6.116-2.569,7.494-2.155,3.133.941,3.55,3.375,3.031,6.234a5,5,0,0,1-1.1,2.428,5.529,5.529,0,0,0,.484-1.493c.519-2.86.1-5.293-3.031-6.234-1.253-.378-6.2.285-7.289,1.706Z" transform="translate(-1020.902 -1202.742)" fill="#882554" fill-rule="evenodd"/>
        <path id="Trazado_1219836" data-name="Trazado 1219836" d="M1884.335,1720.77H1870.66v1.4h13.675Z" transform="translate(-961.978 -1263.075)" fill="#882554" fill-rule="evenodd"/>
        <path id="Trazado_1219837" data-name="Trazado 1219837" d="M1842.915,1630.49a2.6,2.6,0,0,1,1.641-2.273c1.376-.463,4.286-.882,9.2-.852a42.9,42.9,0,0,1,11,1.148,2.1,2.1,0,0,1,1.569,1.417,12.182,12.182,0,0,1-.225,6.105c-1.769,7.4-4.627,9.019-4.627,9.019h-13.48s-2.693-.223-4.538-8.73a17.618,17.618,0,0,1-.534-5.834Z" transform="translate(-939.273 -1186.832)" fill="#c46793" fill-rule="evenodd"/>
        <path id="Trazado_1219838" data-name="Trazado 1219838" d="M1848.608,1645.055h-.615s-2.693-.224-4.538-8.73a17.541,17.541,0,0,1-.535-5.835,2.6,2.6,0,0,1,1.641-2.273c1.375-.463,4.286-.882,9.2-.852a46.312,46.312,0,0,1,11,1.148,57.985,57.985,0,0,0-8.539.38c-4.843.814-7.822.389-9.2.852a2.6,2.6,0,0,0-1.642,2.273,17.559,17.559,0,0,0,.535,5.835,19.875,19.875,0,0,0,2.7,7.2Z" transform="translate(-939.277 -1186.832)" fill="#882554" fill-rule="evenodd"/>
        <path id="Trazado_1219839" data-name="Trazado 1219839" d="M1862.926,1630.793c5.636.131,10.195.985,10.174,1.906s-4.615,1.562-10.251,1.431-10.2-.985-10.174-1.906,4.615-1.563,10.251-1.431Z" transform="translate(-947.297 -1189.618)" fill="#fff" fill-rule="evenodd"/>
        <path id="Trazado_1219840" data-name="Trazado 1219840" d="M1887.36,1584.95a2.533,2.533,0,0,1-.6-1.465c-.141-.965.182-3.072.159-4.2-.015-.718-.08-1.434-.154-2.149-.008-.087-.1-1.086-.076-1.075.252.11.39,1.312.443,1.581a17.744,17.744,0,0,1,.581,2.713c.035.805-.44,1.5-.431,2.333a8.77,8.77,0,0,0,.078,2.266Z" transform="translate(-975.059 -1144.955)" fill="gray" fill-rule="evenodd"/>
        <path id="Trazado_1219841" data-name="Trazado 1219841" d="M1905.087,1585.814c-.207-.075-.307-.88-.365-1.092-.365-1.338-.116-1.347.12-2.607.142-.757.152-1.547.23-2.316.052-.522.138-1.056.24-1.567.031-.153.072-.3.1-.457.02-.119.046-.48.048-.359.026,1.8.079,3.649-.026,5.44-.052.879-.359,2.031-.344,2.959Z" transform="translate(-989.63 -1146.043)" fill="gray" fill-rule="evenodd"/>
        <path id="Trazado_1219842" data-name="Trazado 1219842" d="M1922.572,1588.77c-.185-.152-.262-1.055-.3-1.325a5.776,5.776,0,0,1,.328-2.3,14.616,14.616,0,0,0,.161-2.423,6.75,6.75,0,0,1,.072-1.864c.015-.028.078.668.082.713.042.477.124.948.163,1.426a21.274,21.274,0,0,1,.185,4.23c-.088.618-.728.93-.693,1.546Z" transform="translate(-1004.079 -1148.87)" fill="gray" fill-rule="evenodd"/>
        <path id="Trazado_1219843" data-name="Trazado 1219843" d="M1045.973,1518.97s3.526-1.256,3.578-3.439a2.924,2.924,0,0,0-3.43-2.824,3.822,3.822,0,0,0-3.578,3.439c-.053,2.185,3.43,2.824,3.43,2.824Z" transform="translate(-286.034 -1093.233)" fill="#619d58" fill-rule="evenodd"/>
        <path id="Trazado_1219844" data-name="Trazado 1219844" d="M1061.74,1512.664a5.2,5.2,0,0,0-1.584,0,1.515,1.515,0,0,1,.86.321c.271.3.184.751.406,1.052.175.239.5.378.653.644a2.229,2.229,0,0,1-.1,1.76c-.094.32-.093.635-.2.96a1.127,1.127,0,0,0-.117.76c.008.027-.015.168.02.182.094.04.269-.07.368-.091a2.259,2.259,0,0,0,1.021-.513,6.807,6.807,0,0,0,.383-.935c.1-.227.274-.438.364-.667a2.927,2.927,0,0,0,.165-1.539,2.394,2.394,0,0,0-1.066-1.464,9,9,0,0,0-1.166-.475Z" transform="translate(-300.409 -1093.159)" fill="#4d7c45" fill-rule="evenodd"/>
        <path id="Trazado_1219845" data-name="Trazado 1219845" d="M1046.968,1523.347a1.109,1.109,0,0,0-.117-.039.045.045,0,0,0-.051.018.026.026,0,0,0,.016.039.723.723,0,0,1,.135.048c.005,0,.026.022.036.029a.058.058,0,0,0,.019.008.046.046,0,0,0,.033-.005.036.036,0,0,0,.018-.021.1.1,0,0,0,0-.048c-.005-.019-.013-.039-.014-.049s0-.036,0-.054a.607.607,0,0,0,0-.062c0-.009-.009-.037-.012-.062a.15.15,0,0,1,0-.023.025.025,0,0,0-.012-.039.047.047,0,0,0-.052.015.077.077,0,0,0-.011.046c0,.028.012.065.013.076s0,.039,0,.058,0,.037,0,.055c0,0,0,.005,0,.009Z" transform="translate(-289.505 -1101.717)" fill="#e9f1e0" fill-rule="evenodd"/>
        <path id="Trazado_1219846" data-name="Trazado 1219846" d="M1046.945,1529.431l-.017-.007a.728.728,0,0,1-.113-.068.348.348,0,0,0-.08-.043.111.111,0,0,0-.066,0,.031.031,0,1,0,.015.058.017.017,0,0,1,.009,0,.117.117,0,0,1,.027.011.855.855,0,0,1,.076.048.475.475,0,0,0,.107.058.149.149,0,0,0,.088,0,.045.045,0,0,0,.033-.036.243.243,0,0,0,0-.054c0-.016-.006-.083-.005-.133a.284.284,0,0,1,0-.038.028.028,0,0,0,.008-.027.035.035,0,0,0-.045-.018.052.052,0,0,0-.027.018.077.077,0,0,0-.012.031,1.045,1.045,0,0,0,0,.18l0,.019Z" transform="translate(-289.376 -1106.693)" fill="#e9f1e0" fill-rule="evenodd"/>
        <path id="Trazado_1219847" data-name="Trazado 1219847" d="M1054.087,1526.925l-.087-.037a.508.508,0,0,0-.059-.024.044.044,0,0,0-.049.021.026.026,0,0,0,.018.039h0l.04.017c.011.006.121.055.146.062a.049.049,0,0,0,.051-.016.076.076,0,0,0,.011-.039c0-.027,0-.071.006-.108a.182.182,0,0,1,.007-.034l.005-.011a.033.033,0,0,0,.023-.037.035.035,0,0,0-.045-.018.075.075,0,0,0-.039.026.121.121,0,0,0-.021.048.989.989,0,0,0-.012.112Zm-.152,0a.04.04,0,0,0,.027-.02.057.057,0,0,1-.027.02Z" transform="translate(-295.295 -1104.697)" fill="#e9f1e0" fill-rule="evenodd"/>
        <path id="Trazado_1219848" data-name="Trazado 1219848" d="M1059.858,1518.169l-.008,0a.129.129,0,0,1-.031-.016.5.5,0,0,1-.066-.04,1.226,1.226,0,0,0-.1-.093.046.046,0,0,0-.053.009.026.026,0,0,0,0,.042c.037.022.062.063.1.089a.57.57,0,0,0,.07.043.125.125,0,0,0,.116.022.1.1,0,0,0,.049-.047.494.494,0,0,0,.031-.108.246.246,0,0,1,.033-.093.026.026,0,0,0-.011-.041.047.047,0,0,0-.052.015.629.629,0,0,0-.06.186.119.119,0,0,1-.011.027l0,.006Z" transform="translate(-299.948 -1097.51)" fill="#e9f1e0" fill-rule="evenodd"/>
        <path id="Trazado_1219849" data-name="Trazado 1219849" d="M1052.057,1517.205l-.016-.007c-.035-.017-.077-.039-.1-.05a.1.1,0,0,0-.034-.008.047.047,0,0,0-.025.008.029.029,0,0,0-.012.043.034.034,0,0,0,.026.012l.094.045a.355.355,0,0,0,.072.03.05.05,0,0,0,.051-.018.267.267,0,0,0,.026-.088c.008-.042.023-.107.026-.119a.03.03,0,0,0,.012-.031.035.035,0,0,0-.045-.018.053.053,0,0,0-.025.016.083.083,0,0,0-.017.031,1.259,1.259,0,0,0-.026.131.079.079,0,0,0,0,.024Z" transform="translate(-293.641 -1096.751)" fill="#e9f1e0" fill-rule="evenodd"/>
        <path id="Trazado_1219850" data-name="Trazado 1219850" d="M1067.9,1518.792c.047.019.083.036.113.044a.14.14,0,0,0,.074,0,.164.164,0,0,0,.1-.094.721.721,0,0,1,.054-.094.026.026,0,0,0-.011-.041.046.046,0,0,0-.052.015.766.766,0,0,0-.059.1.213.213,0,0,1-.03.044.031.031,0,0,1-.013.01.071.071,0,0,1-.039-.007c-.025-.009-.055-.023-.092-.038a.047.047,0,0,0-.052.015.025.025,0,0,0,.012.041Z" transform="translate(-306.716 -1098.062)" fill="#e9f1e0" fill-rule="evenodd"/>
        <path id="Trazado_1219851" data-name="Trazado 1219851" d="M1069.3,1537.376l.077.045a1.4,1.4,0,0,0,.147.081.071.071,0,0,0,.051,0,.078.078,0,0,0,.046-.062.248.248,0,0,0,0-.077c-.005-.035-.014-.075-.018-.11a.157.157,0,0,1,0-.038.026.026,0,0,1,.006-.015.04.04,0,0,0,0-.056.04.04,0,0,0-.056,0,.1.1,0,0,0-.026.072.649.649,0,0,0,.015.115.364.364,0,0,1,.009.078.044.044,0,0,1,0,.019l-.025-.011c-.041-.021-.094-.054-.107-.062l-.085-.049a.035.035,0,0,0-.047.009.033.033,0,0,0,0,.029.042.042,0,0,0,.015.024.034.034,0,0,0,.013.009Zm.035-.062a.046.046,0,0,1,.012.019.045.045,0,0,0-.012-.019Z" transform="translate(-307.849 -1113.183)" fill="#e9f1e0" fill-rule="evenodd"/>
        <path id="Trazado_1219852" data-name="Trazado 1219852" d="M1068.193,1513.778l.04.052a.722.722,0,0,0,.079.1.068.068,0,0,0,.041.017.119.119,0,0,0,.076-.03.233.233,0,0,0,.043-.052c.016-.026.031-.056.048-.08a.136.136,0,0,1,.021-.026.032.032,0,0,1,.013-.009.031.031,0,1,0-.016-.057.133.133,0,0,0-.063.042.51.51,0,0,0-.054.083.312.312,0,0,1-.038.056.043.043,0,0,1-.015.012l-.015-.015a.857.857,0,0,1-.056-.072c-.006-.008-.039-.051-.044-.057a.041.041,0,0,0-.046-.007.039.039,0,0,0-.021.018.022.022,0,0,0,0,.021.041.041,0,0,1,.006.01Zm.066-.033a.025.025,0,0,1,0,.016.022.022,0,0,0,0-.016Z" transform="translate(-306.964 -1094.043)" fill="#e9f1e0" fill-rule="evenodd"/>
        <path id="Trazado_1219853" data-name="Trazado 1219853" d="M1063.8,1527.014l-.01,0-.029-.013a1.048,1.048,0,0,0-.125-.039.27.27,0,0,0-.1,0,.037.037,0,0,0-.034.036.032.032,0,0,0,.041.023.208.208,0,0,1,.087.008c.034.009.068.022.1.032a.292.292,0,0,0,.059.022.07.07,0,0,0,.061-.015.127.127,0,0,0,.035-.06.4.4,0,0,0,.01-.091.263.263,0,0,1,.008-.066.074.074,0,0,1,.025-.04.027.027,0,0,0,.005-.043.044.044,0,0,0-.053,0,.188.188,0,0,0-.061.154.486.486,0,0,1-.005.068.058.058,0,0,1-.01.029Z" transform="translate(-303.14 -1104.711)" fill="#e9f1e0" fill-rule="evenodd"/>
        <path id="Trazado_1219854" data-name="Trazado 1219854" d="M1073.719,1524.053a.041.041,0,0,1,0,.009.108.108,0,0,1-.009.016c-.017.028-.043.058-.052.076a.221.221,0,0,0-.014.049.927.927,0,0,1-.1-.087.042.042,0,0,0-.052,0,.028.028,0,0,0-.01.043,1.062,1.062,0,0,0,.11.1.439.439,0,0,0,.037.035.051.051,0,0,0,.023.01.047.047,0,0,0,.032-.005.041.041,0,0,0,.017-.017.224.224,0,0,0,.015-.06.161.161,0,0,1,.011-.046c.009-.02.041-.054.056-.083a.071.071,0,0,0,.011-.052.035.035,0,0,0-.045-.018.035.035,0,0,0-.029.038Z" transform="translate(-311.28 -1102.473)" fill="#e9f1e0" fill-rule="evenodd"/>
        <path id="Trazado_1219855" data-name="Trazado 1219855" d="M1075.745,1519.473l-.031-.02a.317.317,0,0,0-.036-.016.025.025,0,0,0-.006-.029.042.042,0,0,0-.052,0c-.027.02-.031.036-.031.046a.035.035,0,0,0,.022.028c.011.005.032.011.057.023a.429.429,0,0,0,.07.043.051.051,0,0,0,.06-.016.158.158,0,0,0,.023-.057c.006-.028.01-.061.018-.09a.112.112,0,0,1,.011-.029c0-.006.006-.012.013-.013a.031.031,0,1,0-.016-.058.125.125,0,0,0-.081.094c-.009.03-.013.064-.019.093v0Z" transform="translate(-313.007 -1098.612)" fill="#e9f1e0" fill-rule="evenodd"/>
        <path id="Trazado_1219856" data-name="Trazado 1219856" d="M1054.856,1532.2l-.029-.025a.46.46,0,0,1-.033-.036.025.025,0,0,0-.015-.022.045.045,0,0,0-.052.011.032.032,0,0,0-.009.026.106.106,0,0,0,.027.043.6.6,0,0,0,.114.094.049.049,0,0,0,.033,0,.049.049,0,0,0,.033-.03.188.188,0,0,0,0-.053c0-.018.019-.09.035-.14a.321.321,0,0,1,.013-.034l.009-.009a.026.026,0,0,0-.011-.041.041.041,0,0,0-.026,0,.05.05,0,0,0-.031.018.227.227,0,0,0-.026.059c-.015.048-.03.11-.035.139Zm.083-.158h0Zm0,0h0Zm0,0h0Z" transform="translate(-295.971 -1108.979)" fill="#e9f1e0" fill-rule="evenodd"/>
        <path id="Trazado_1219857" data-name="Trazado 1219857" d="M1063.033,1534.387a.024.024,0,0,0,.007.023.043.043,0,0,0,.053,0,.042.042,0,0,0,.01-.009l.013.007c.025.015.05.036.075.052a.186.186,0,0,0,.074.032.1.1,0,0,0,.067-.013.12.12,0,0,0,.042-.043.261.261,0,0,0,.025-.074.8.8,0,0,1,.022-.09.1.1,0,0,1,.04-.055.029.029,0,0,0,.013-.043.041.041,0,0,0-.052-.005.162.162,0,0,0-.058.059.34.34,0,0,0-.033.1.576.576,0,0,1-.017.071.053.053,0,0,1-.021.032.009.009,0,0,1-.008,0l-.011,0a.3.3,0,0,1-.056-.035.445.445,0,0,0-.082-.051.11.11,0,0,0-.075-.007.044.044,0,0,0-.029.022.033.033,0,0,0,0,.018.036.036,0,0,0,0,.011Z" transform="translate(-302.756 -1110.759)" fill="#e9f1e0" fill-rule="evenodd"/>
        <path id="Trazado_1219858" data-name="Trazado 1219858" d="M1071.988,1532.33l-.016-.01c-.048-.033-.108-.085-.125-.1a.044.044,0,0,0-.037-.008.04.04,0,0,0-.023.013.027.027,0,0,0-.008.027.028.028,0,0,0,.015.017,1.506,1.506,0,0,0,.164.121.084.084,0,0,0,.039.01.054.054,0,0,0,.033-.011.05.05,0,0,0,.01-.01s.007-.012.013-.024a1.868,1.868,0,0,1,.085-.174h.005a.035.035,0,0,0,.029-.04.036.036,0,0,0-.028-.026.06.06,0,0,0-.057.023,1.43,1.43,0,0,0-.1.19Zm-.134-.094a.026.026,0,0,1-.005.02.027.027,0,0,0,.005-.02Z" transform="translate(-309.897 -1109.088)" fill="#e9f1e0" fill-rule="evenodd"/>
        <path id="Trazado_1219859" data-name="Trazado 1219859" d="M1076.614,1530.124a.512.512,0,0,1-.043-.037c-.022-.023-.044-.047-.058-.06a.086.086,0,0,0-.026-.017.048.048,0,0,0-.039,0,.03.03,0,0,0-.016.043.03.03,0,0,0,.016.011l.049.049a.4.4,0,0,0,.08.069.066.066,0,0,0,.079-.006.16.16,0,0,0,.03-.044c.018-.034.034-.084.052-.125a.249.249,0,0,1,.023-.045l.009-.011a.034.034,0,0,0,.026-.038.035.035,0,0,0-.045-.018.088.088,0,0,0-.039.024.191.191,0,0,0-.031.046c-.019.036-.036.086-.053.126a.248.248,0,0,1-.014.031Zm-.138-.057h0Zm0,0h0Zm0,0h0Z" transform="translate(-313.692 -1107.275)" fill="#e9f1e0" fill-rule="evenodd"/>
        <path id="Trazado_1219860" data-name="Trazado 1219860" d="M1051.192,1537.38l-.026-.008a.253.253,0,0,1-.052-.026.069.069,0,0,1-.026-.027.115.115,0,0,0-.021-.028.043.043,0,0,0-.053,0,.027.027,0,0,0-.006.043.107.107,0,0,1,.016.023.114.114,0,0,0,.04.039.305.305,0,0,0,.061.03.185.185,0,0,0,.065.016.079.079,0,0,0,.045-.012.068.068,0,0,0,.031-.047c0-.022,0-.054,0-.085a.074.074,0,0,1,.023-.056.027.027,0,0,0,.005-.043.044.044,0,0,0-.053,0,.124.124,0,0,0-.04.054.236.236,0,0,0-.012.079c0,.014,0,.027,0,.039s0,.006,0,.008Z" transform="translate(-292.935 -1113.23)" fill="#e9f1e0" fill-rule="evenodd"/>
        <path id="Trazado_1219861" data-name="Trazado 1219861" d="M1055.292,1539.727a.17.17,0,0,1-.026-.009.261.261,0,0,1-.053-.026.069.069,0,0,1-.025-.027.115.115,0,0,0-.021-.028.043.043,0,0,0-.053,0,.028.028,0,0,0-.006.044.091.091,0,0,1,.016.023.122.122,0,0,0,.04.038.283.283,0,0,0,.061.03.175.175,0,0,0,.065.016.08.08,0,0,0,.045-.012.069.069,0,0,0,.031-.048c0-.022,0-.053,0-.084a.073.073,0,0,1,.023-.056.028.028,0,0,0,.005-.044.044.044,0,0,0-.053,0,.124.124,0,0,0-.04.054.237.237,0,0,0-.012.08.349.349,0,0,1,0,.039.021.021,0,0,0,0,.008Z" transform="translate(-296.282 -1115.145)" fill="#e9f1e0" fill-rule="evenodd"/>
        <path id="Trazado_1219862" data-name="Trazado 1219862" d="M1045.865,1535.068l-.02-.006c-.023-.005-.089-.028-.1-.034a.044.044,0,0,0-.068.013.025.025,0,0,0,.005.029.067.067,0,0,0,.022.013.99.99,0,0,0,.116.037.423.423,0,0,0,.071.016.061.061,0,0,0,.042-.015.039.039,0,0,0,.012-.027.532.532,0,0,1,.012-.215.026.026,0,0,0-.024-.036.045.045,0,0,0-.048.024.419.419,0,0,0-.016.2Zm-.129,0a.052.052,0,0,1-.013.008.089.089,0,0,0,.013-.008Z" transform="translate(-288.586 -1111.314)" fill="#e9f1e0" fill-rule="evenodd"/>
        <path id="Trazado_1219863" data-name="Trazado 1219863" d="M1060.822,1544.326s5.71,2.686,8.366.134c2.1-2.02,1.767-5.359-.748-7.453s-6.264-2.154-8.366-.134c-2.656,2.552.749,7.453.749,7.453Z" transform="translate(-299.516 -1111.766)" fill="#70aa67" fill-rule="evenodd"/>
        <path id="Trazado_1219864" data-name="Trazado 1219864" d="M1087.652,1544.052a8.775,8.775,0,0,0-1.9-1.877,2.55,2.55,0,0,1,.646,1.405c-.029.677-.672,1.118-.764,1.741-.073.494.15,1.048.017,1.547-.275,1.026-1.3,1.481-2.214,1.982-.492.27-.865.65-1.382.908-.472.236-.793.322-1.042.771-.023.041-.217.183-.193.242.066.16.406.236.548.328a3.79,3.79,0,0,0,1.83.6,11.508,11.508,0,0,0,1.569-.664c.391-.15.848-.2,1.226-.366a4.928,4.928,0,0,0,2.026-1.644,4.038,4.038,0,0,0,.464-3.018,15.582,15.582,0,0,0-.831-1.953Z" transform="translate(-317.275 -1117.296)" fill="#5b9453" fill-rule="evenodd"/>
        <path id="Trazado_1219865" data-name="Trazado 1219865" d="M1078.136,1539.892c-.026-.062-.062-.125-.094-.185a.077.077,0,0,0-.083-.038.043.043,0,0,0-.027.066,1.269,1.269,0,0,1,.1.218.761.761,0,0,0,.009.078.091.091,0,0,0,.012.032.077.077,0,0,0,.046.033.064.064,0,0,0,.048,0,.17.17,0,0,0,.054-.061.7.7,0,0,1,.042-.075c.02-.023.042-.044.063-.066s.048-.05.069-.077.033-.055.06-.089a.218.218,0,0,1,.027-.027.043.043,0,0,0,.03-.062.078.078,0,0,0-.079-.044.128.128,0,0,0-.068.042,1.027,1.027,0,0,0-.074.106c-.021.025-.044.049-.066.072s-.044.044-.064.068a.056.056,0,0,0-.009.012Z" transform="translate(-314.915 -1115.189)" fill="#e9f1e0" fill-rule="evenodd"/>
        <path id="Trazado_1219866" data-name="Trazado 1219866" d="M1071.383,1546.968a.282.282,0,0,1-.013-.028,1.311,1.311,0,0,1-.054-.216.616.616,0,0,0-.045-.146.2.2,0,0,0-.075-.083.06.06,0,0,0-.081.012.058.058,0,0,0,.031.076.027.027,0,0,1,.009.012.2.2,0,0,1,.02.045,1.455,1.455,0,0,1,.034.147.841.841,0,0,0,.058.2.247.247,0,0,0,.1.11.074.074,0,0,0,.082,0,.388.388,0,0,0,.059-.071c.017-.02.09-.107.152-.164a.483.483,0,0,1,.05-.041.048.048,0,0,0,.042-.023.059.059,0,0,0-.032-.075.082.082,0,0,0-.053-.01.124.124,0,0,0-.052.022,1.727,1.727,0,0,0-.212.217l-.02.024Z" transform="translate(-309.351 -1120.815)" fill="#e9f1e0" fill-rule="evenodd"/>
        <path id="Trazado_1219867" data-name="Trazado 1219867" d="M1082.918,1552.47c-.025-.061-.056-.138-.06-.149a1.01,1.01,0,0,0-.042-.1.075.075,0,0,0-.083-.033.044.044,0,0,0-.024.068l0,.006c0,.011.024.06.027.068s.08.21.1.247a.082.082,0,0,0,.08.042.144.144,0,0,0,.06-.034c.035-.03.085-.083.135-.122a.258.258,0,0,1,.048-.032l.019-.007a.056.056,0,0,0,.072-.017.059.059,0,0,0-.032-.075.126.126,0,0,0-.078-.016.207.207,0,0,0-.082.032,1.081,1.081,0,0,0-.147.121Zm-.182-.186a.065.065,0,0,0,.056.009.082.082,0,0,1-.056-.009Z" transform="translate(-318.813 -1125.47)" fill="#e9f1e0" fill-rule="evenodd"/>
        <path id="Trazado_1219868" data-name="Trazado 1219868" d="M1100.458,1548.6l-.008-.012a.228.228,0,0,1-.018-.056.979.979,0,0,1-.031-.125,2,2,0,0,0-.011-.232.078.078,0,0,0-.074-.053.044.044,0,0,0-.046.055,1.8,1.8,0,0,1,.008.219,1.088,1.088,0,0,0,.033.135.214.214,0,0,0,.113.166.162.162,0,0,0,.114,0,.825.825,0,0,0,.165-.093.417.417,0,0,1,.15-.072.043.043,0,0,0,.035-.062.078.078,0,0,0-.08-.044,1.079,1.079,0,0,0-.292.151.194.194,0,0,1-.045.02Z" transform="translate(-333.152 -1122.152)" fill="#e9f1e0" fill-rule="evenodd"/>
        <path id="Trazado_1219869" data-name="Trazado 1219869" d="M1091.955,1538.484c0-.009-.007-.018-.01-.027-.021-.063-.045-.139-.062-.18a.164.164,0,0,0-.031-.05.082.082,0,0,0-.039-.021.049.049,0,0,0-.066.036.06.06,0,0,0,.017.045c.007.018.039.106.058.165a.583.583,0,0,0,.051.122.083.083,0,0,0,.082.039.458.458,0,0,0,.137-.074c.059-.042.154-.1.172-.113a.051.051,0,0,0,.05-.022.059.059,0,0,0-.032-.075.091.091,0,0,0-.049-.012.143.143,0,0,0-.057.017c-.049.024-.124.082-.188.125l-.035.024Z" transform="translate(-326.196 -1114.057)" fill="#e9f1e0" fill-rule="evenodd"/>
        <path id="Trazado_1219870" data-name="Trazado 1219870" d="M1109.1,1559.138c.034.08.057.142.081.187a.231.231,0,0,0,.084.091.275.275,0,0,0,.228,0,1.226,1.226,0,0,1,.176-.048.043.043,0,0,0,.035-.062.078.078,0,0,0-.08-.044,1.307,1.307,0,0,0-.192.052.343.343,0,0,1-.087.018.053.053,0,0,1-.028,0,.118.118,0,0,1-.038-.055c-.019-.04-.039-.092-.065-.155a.078.078,0,0,0-.08-.044.043.043,0,0,0-.035.063Z" transform="translate(-340.356 -1131.093)" fill="#e9f1e0" fill-rule="evenodd"/>
        <path id="Trazado_1219871" data-name="Trazado 1219871" d="M1088.453,1583.222l.039.145a2.307,2.307,0,0,0,.08.272.125.125,0,0,0,.056.066.132.132,0,0,0,.129-.02.4.4,0,0,0,.09-.093c.036-.049.072-.107.108-.153a.29.29,0,0,1,.044-.047.043.043,0,0,1,.025-.011.072.072,0,0,0,0-.143.171.171,0,0,0-.116.055,1.105,1.105,0,0,0-.119.155.61.61,0,0,1-.082.1.068.068,0,0,1-.028.018c0-.011-.012-.029-.017-.043-.024-.075-.048-.176-.054-.2s-.038-.143-.044-.161a.059.059,0,0,0-.067-.045.057.057,0,0,0-.04.029.076.076,0,0,0-.011.046.066.066,0,0,0,.006.027Zm.116-.033a.083.083,0,0,1-.008.037.088.088,0,0,0,.008-.037Z" transform="translate(-323.503 -1150.719)" fill="#e9f1e0" fill-rule="evenodd"/>
        <path id="Trazado_1219872" data-name="Trazado 1219872" d="M1094.033,1564.51l-.007-.016c-.009-.022-.016-.043-.019-.049a1.86,1.86,0,0,0-.1-.2.454.454,0,0,0-.117-.125.063.063,0,0,0-.084,0,.054.054,0,0,0,.021.076.352.352,0,0,1,.094.113c.03.052.054.107.077.153a.569.569,0,0,0,.045.1.117.117,0,0,0,.091.054.212.212,0,0,0,.113-.03.661.661,0,0,0,.12-.1.479.479,0,0,1,.087-.069.121.121,0,0,1,.078-.018c.034,0,.06-.016.058-.045a.074.074,0,0,0-.064-.062.318.318,0,0,0-.256.112.788.788,0,0,1-.087.075.308.308,0,0,1-.047.023Z" transform="translate(-327.785 -1135.202)" fill="#e9f1e0" fill-rule="evenodd"/>
        <path id="Trazado_1219873" data-name="Trazado 1219873" d="M1109.99,1572.162l-.013.007a.184.184,0,0,1-.03.009c-.054.012-.121.018-.152.03a.327.327,0,0,0-.075.043,1.56,1.56,0,0,1-.016-.223.071.071,0,0,0-.059-.065.048.048,0,0,0-.063.04,1.688,1.688,0,0,0,.018.246.657.657,0,0,0,0,.086.1.1,0,0,0,.014.04.079.079,0,0,0,.045.031.066.066,0,0,0,.042,0,.355.355,0,0,0,.089-.054.282.282,0,0,1,.068-.042c.034-.013.113-.017.166-.033a.124.124,0,0,0,.075-.05.059.059,0,0,0-.032-.075.061.061,0,0,0-.08.012Z" transform="translate(-340.753 -1141.61)" fill="#e9f1e0" fill-rule="evenodd"/>
        <path id="Trazado_1219874" data-name="Trazado 1219874" d="M1077.48,1559.721c0-.022,0-.045-.005-.064a.7.7,0,0,1,0-.082.043.043,0,0,0,.009-.045.078.078,0,0,0-.076-.049.056.056,0,0,0-.041.021.168.168,0,0,0-.018.083,1,1,0,0,0,.026.248.085.085,0,0,0,.113.046.287.287,0,0,0,.066-.06,2.419,2.419,0,0,1,.209-.126c.02-.011.044-.021.056-.026a.079.079,0,0,0,.022,0,.043.043,0,0,0,.034-.062.074.074,0,0,0-.028-.033.092.092,0,0,0-.059-.015.376.376,0,0,0-.1.04c-.073.038-.167.1-.208.125Zm.285-.092h0Zm0,0h0Zm0,0v0a0,0,0,0,1,0,0Z" transform="translate(-314.446 -1131.424)" fill="#e9f1e0" fill-rule="evenodd"/>
        <path id="Trazado_1219875" data-name="Trazado 1219875" d="M1084.4,1572.267a.041.041,0,0,0-.019.036.072.072,0,0,0,.063.063.069.069,0,0,0,.024,0,.215.215,0,0,1,.007.024c.012.047.017.1.028.152a.321.321,0,0,0,.051.126.171.171,0,0,0,.095.064.194.194,0,0,0,.1,0,.433.433,0,0,0,.118-.058,1.1,1.1,0,0,1,.133-.081.165.165,0,0,1,.113-.018.049.049,0,0,0,.067-.036.069.069,0,0,0-.056-.067.268.268,0,0,0-.139,0,.564.564,0,0,0-.158.08.928.928,0,0,1-.1.064.093.093,0,0,1-.063.013s-.007-.005-.01-.009a.082.082,0,0,1-.009-.017.475.475,0,0,1-.026-.108.807.807,0,0,0-.036-.159.191.191,0,0,0-.082-.1.073.073,0,0,0-.061-.008.052.052,0,0,0-.025.017l-.01.019Z" transform="translate(-320.187 -1141.829)" fill="#e9f1e0" fill-rule="evenodd"/>
        <path id="Trazado_1219876" data-name="Trazado 1219876" d="M1098.057,1580.048c0-.01,0-.021-.007-.031-.018-.1-.029-.231-.034-.264a.078.078,0,0,0-.035-.053.072.072,0,0,0-.044-.012.046.046,0,0,0-.041.023.044.044,0,0,0,0,.038,2.435,2.435,0,0,0,.052.34.151.151,0,0,0,.034.058.09.09,0,0,0,.052.026.085.085,0,0,0,.025,0,.334.334,0,0,0,.043-.013c.072-.026.227-.09.308-.108l.008.005a.059.059,0,0,0,.081-.013.06.06,0,0,0,0-.065.1.1,0,0,0-.1-.039,2.064,2.064,0,0,0-.343.111Zm-.048-.274a.046.046,0,0,1-.03.019.04.04,0,0,0,.03-.019Z" transform="translate(-331.212 -1147.917)" fill="#e9f1e0" fill-rule="evenodd"/>
        <path id="Trazado_1219877" data-name="Trazado 1219877" d="M1106.133,1582.976a.758.758,0,0,1-.008-.1c0-.053,0-.107,0-.141a.139.139,0,0,0-.01-.051.078.078,0,0,0-.05-.042.05.05,0,0,0-.07.031.056.056,0,0,0,.006.033c0,.016,0,.071,0,.116a.707.707,0,0,0,.013.178.11.11,0,0,0,.1.086.28.28,0,0,0,.088-.017c.062-.021.139-.06.21-.089a.5.5,0,0,1,.082-.026l.024,0a.057.057,0,0,0,.076-.015.058.058,0,0,0-.031-.075.148.148,0,0,0-.075-.018.309.309,0,0,0-.093.018c-.066.021-.145.062-.214.089l-.052.02Zm-.1-.235h0Zm0,0h0Zm0,0h0Z" transform="translate(-337.827 -1150.329)" fill="#e9f1e0" fill-rule="evenodd"/>
        <path id="Trazado_1219878" data-name="Trazado 1219878" d="M1067.146,1561.357a.415.415,0,0,1-.022-.041.443.443,0,0,1-.032-.094.107.107,0,0,1,0-.062.188.188,0,0,0,.007-.059.073.073,0,0,0-.064-.062.046.046,0,0,0-.059.044.174.174,0,0,1-.008.047.188.188,0,0,0,0,.094.5.5,0,0,0,.037.109.3.3,0,0,0,.059.1.132.132,0,0,0,.067.039.119.119,0,0,0,.095-.02c.032-.021.066-.062.106-.1a.123.123,0,0,1,.094-.04.046.046,0,0,0,.058-.045.074.074,0,0,0-.064-.062.2.2,0,0,0-.113.017.405.405,0,0,0-.108.081c-.017.016-.032.032-.048.045l-.01.007Z" transform="translate(-305.968 -1132.696)" fill="#e9f1e0" fill-rule="evenodd"/>
        <path id="Trazado_1219879" data-name="Trazado 1219879" d="M1069.265,1569.036a.258.258,0,0,1-.022-.041.412.412,0,0,1-.032-.094.115.115,0,0,1,0-.062.192.192,0,0,0,.007-.059.074.074,0,0,0-.064-.062c-.034,0-.06.015-.058.045a.209.209,0,0,1-.008.047.188.188,0,0,0,0,.094.488.488,0,0,0,.037.109.3.3,0,0,0,.059.1.134.134,0,0,0,.067.039.118.118,0,0,0,.095-.02c.032-.022.066-.062.106-.1a.121.121,0,0,1,.094-.04.046.046,0,0,0,.058-.045.073.073,0,0,0-.064-.062.206.206,0,0,0-.112.017.4.4,0,0,0-.109.081c-.017.016-.032.033-.047.045s-.007.006-.01.008Z" transform="translate(-307.697 -1138.963)" fill="#e9f1e0" fill-rule="evenodd"/>
        <path id="Trazado_1219880" data-name="Trazado 1219880" d="M1063.141,1552.688l-.017-.031c-.021-.034-.073-.138-.085-.165a.074.074,0,0,0-.1-.064.041.041,0,0,0-.028.041.135.135,0,0,0,.011.043,1.623,1.623,0,0,0,.095.182.67.67,0,0,0,.064.1.1.1,0,0,0,.068.031.063.063,0,0,0,.046-.017c.094-.088.136-.184.27-.242a.045.045,0,0,0,.014-.071.075.075,0,0,0-.085-.027.712.712,0,0,0-.256.219Zm-.151-.156a.072.072,0,0,1-.026-.005.052.052,0,0,0,.026.005Z" transform="translate(-302.661 -1125.664)" fill="#e9f1e0" fill-rule="evenodd"/>
        <path id="Trazado_1219881" data-name="Trazado 1219881" d="M989.065,1562.4s7.871-3.215,8.076-13.417a9.318,9.318,0,0,0-7.622-9.162,6.726,6.726,0,0,0-7.942,6.731,20.241,20.241,0,0,0,7.487,15.849Z" transform="translate(-236.268 -1115.298)" fill="#5b9352" fill-rule="evenodd"/>
        <path id="Trazado_1219882" data-name="Trazado 1219882" d="M1026.534,1540.969a7.784,7.784,0,0,0-3.441-1,4,4,0,0,1,1.858,1.67c.58,1.21.379,2.741.852,3.935.375.946,1.078,1.641,1.4,2.666.665,2.11.121,4.126-.275,6.082-.214,1.056-.219,2.159-.467,3.225a5.612,5.612,0,0,0-.276,2.582c.016.1-.037.578.038.65.2.2.587-.074.8-.083.547-.025,1.937-.481,2.232-1.142a26.842,26.842,0,0,0,.858-3.024c.228-.726.609-1.354.809-2.1a15.182,15.182,0,0,0,.4-5.271,12.5,12.5,0,0,0-2.275-5.794,25.585,25.585,0,0,0-2.519-2.4Z" transform="translate(-270.156 -1115.496)" fill="#497742" fill-rule="evenodd"/>
        <path id="Trazado_1219883" data-name="Trazado 1219883" d="M991.183,1569.078a3.285,3.285,0,0,0-.259-.218.07.07,0,0,0-.113.033.14.14,0,0,0,.035.153,1.963,1.963,0,0,1,.3.264c.01.018.057.1.08.13a.173.173,0,0,0,.041.042.065.065,0,0,0,.074,0,.092.092,0,0,0,.041-.065.6.6,0,0,0-.005-.177c-.011-.071-.029-.15-.03-.187,0-.066,0-.131,0-.2s0-.149,0-.224c0-.033-.019-.139-.025-.233,0-.03,0-.075,0-.083a.14.14,0,0,0-.028-.148.069.069,0,0,0-.116.018.358.358,0,0,0-.026.16c0,.1.025.242.027.281,0,.071,0,.142,0,.212s0,.134,0,.2c0,.01,0,.021,0,.033Z" transform="translate(-243.801 -1138.498)" fill="#e9f1e0" fill-rule="evenodd"/>
        <path id="Trazado_1219884" data-name="Trazado 1219884" d="M991.015,1591.52l-.038-.035a2.907,2.907,0,0,1-.25-.324,1.211,1.211,0,0,0-.177-.208.193.193,0,0,0-.147-.057.1.1,0,0,0-.066.121c.009.061.053.1.1.1.006,0,.012,0,.02.01a.347.347,0,0,1,.06.057c.053.06.109.142.168.223a1.685,1.685,0,0,0,.236.283.251.251,0,0,0,.195.075c.025,0,.066-.03.073-.108a1.5,1.5,0,0,0-.009-.2c0-.057-.013-.3-.008-.484,0-.051.008-.112.01-.136a.127.127,0,0,0,.019-.093c-.009-.061-.054-.1-.1-.1a.084.084,0,0,0-.06.047.293.293,0,0,0-.028.1,6.224,6.224,0,0,0,0,.652l0,.068Z" transform="translate(-243.42 -1156.863)" fill="#e9f1e0" fill-rule="evenodd"/>
        <path id="Trazado_1219885" data-name="Trazado 1219885" d="M1006.936,1587.009c-.079-.078-.179-.178-.193-.193a1.6,1.6,0,0,0-.13-.126.069.069,0,0,0-.109.042.137.137,0,0,0,.039.151l.01.006c.015.015.078.078.088.089.025.028.268.281.322.319a.072.072,0,0,0,.114-.024.379.379,0,0,0,.026-.135c.005-.1,0-.253.015-.386a.855.855,0,0,1,.016-.118.253.253,0,0,1,.012-.036.107.107,0,0,0,.052-.12c-.009-.061-.054-.1-.1-.1a.128.128,0,0,0-.088.069.482.482,0,0,0-.048.159,3.738,3.738,0,0,0-.028.4Zm-.342-.11a.072.072,0,0,0,.061-.054.079.079,0,0,1-.061.054Z" transform="translate(-256.611 -1153.381)" fill="#e9f1e0" fill-rule="evenodd"/>
        <path id="Trazado_1219886" data-name="Trazado 1219886" d="M1019.907,1559.416l-.017-.012a.455.455,0,0,1-.069-.078,1.962,1.962,0,0,1-.145-.188c-.078-.123-.138-.293-.223-.4a.07.07,0,0,0-.118-.005.138.138,0,0,0,.007.156c.081.1.136.268.21.384a2.328,2.328,0,0,0,.154.2c.114.154.2.179.258.159a.2.2,0,0,0,.11-.137,2.312,2.312,0,0,0,.069-.371,1.075,1.075,0,0,1,.076-.313.14.14,0,0,0-.025-.156.069.069,0,0,0-.116.018,2.9,2.9,0,0,0-.137.632.468.468,0,0,1-.025.092.045.045,0,0,1-.009.018Z" transform="translate(-267.073 -1130.731)" fill="#e9f1e0" fill-rule="evenodd"/>
        <path id="Trazado_1219887" data-name="Trazado 1219887" d="M1002.6,1550.43l-.035-.037c-.078-.086-.17-.2-.224-.248a.2.2,0,0,0-.075-.051.068.068,0,0,0-.057.009.124.124,0,0,0-.028.148.1.1,0,0,0,.057.058c.023.025.134.144.207.226a1.1,1.1,0,0,0,.16.157.074.074,0,0,0,.114-.03,1.219,1.219,0,0,0,.061-.3c.018-.148.053-.372.059-.415a.121.121,0,0,0,.026-.1c-.009-.061-.054-.1-.1-.1a.086.086,0,0,0-.057.039.309.309,0,0,0-.038.1c-.023.1-.042.3-.062.458,0,.032-.007.06-.011.086Z" transform="translate(-253.077 -1123.478)" fill="#e9f1e0" fill-rule="evenodd"/>
        <path id="Trazado_1219888" data-name="Trazado 1219888" d="M1037.741,1566.884c.1.1.184.187.249.237a.226.226,0,0,0,.163.061c.073-.009.146-.08.218-.276a2.419,2.419,0,0,1,.121-.305.14.14,0,0,0-.025-.156.069.069,0,0,0-.116.018,2.691,2.691,0,0,0-.133.331.634.634,0,0,1-.066.14c-.01.015-.019.025-.031.026s-.052-.021-.086-.052c-.055-.049-.121-.119-.2-.2a.069.069,0,0,0-.116.018.142.142,0,0,0,.025.156Z" transform="translate(-282.083 -1137.089)" fill="#e9f1e0" fill-rule="evenodd"/>
        <path id="Trazado_1219889" data-name="Trazado 1219889" d="M1038.509,1548.69l.088.214a3.84,3.84,0,0,0,.173.4.182.182,0,0,0,.091.089.161.161,0,0,0,.168-.058.607.607,0,0,0,.1-.162c.037-.083.071-.18.108-.259a.386.386,0,0,1,.048-.081.054.054,0,0,1,.031-.023.1.1,0,0,0,.064-.123c-.009-.061-.054-.1-.1-.1a.224.224,0,0,0-.142.11,1.639,1.639,0,0,0-.122.264.929.929,0,0,1-.084.176.1.1,0,0,1-.033.035c-.009-.017-.023-.042-.033-.064-.051-.109-.108-.26-.122-.3s-.085-.212-.1-.237c-.038-.078-.095-.058-.1-.056a.081.081,0,0,0-.046.053.127.127,0,0,0,0,.074.175.175,0,0,0,.015.04Zm.147-.073a.131.131,0,0,1,0,.057.111.111,0,0,0,0-.057Z" transform="translate(-282.726 -1122.476)" fill="#e9f1e0" fill-rule="evenodd"/>
        <path id="Trazado_1219890" data-name="Trazado 1219890" d="M1028.479,1594.147l-.022-.019c-.029-.029-.053-.058-.063-.066a2.7,2.7,0,0,0-.276-.225.443.443,0,0,0-.225-.082c-.046,0-.081.048-.077.109a.109.109,0,0,0,.09.112.367.367,0,0,1,.192.088c.076.056.15.125.214.18a.867.867,0,0,0,.131.121.1.1,0,0,0,.135-.015.435.435,0,0,0,.08-.193,2.2,2.2,0,0,0,.023-.322,1.559,1.559,0,0,1,.019-.232.232.232,0,0,1,.057-.129.131.131,0,0,0,.013-.153c-.029-.051-.081-.065-.117-.032a.762.762,0,0,0-.138.517c0,.084,0,.168-.012.242a.481.481,0,0,1-.022.1Z" transform="translate(-274.012 -1159.004)" fill="#e9f1e0" fill-rule="evenodd"/>
        <path id="Trazado_1219891" data-name="Trazado 1219891" d="M1050.548,1589.663a.208.208,0,0,1-.006.028.367.367,0,0,1-.02.052c-.04.088-.1.181-.116.24a.9.9,0,0,0-.032.17,4.023,4.023,0,0,1-.22-.382c-.026-.053-.078-.073-.116-.044a.126.126,0,0,0-.022.15,4.758,4.758,0,0,0,.242.421c.008.014.056.11.082.15a.173.173,0,0,0,.051.054.064.064,0,0,0,.071,0,.086.086,0,0,0,.039-.053,1.057,1.057,0,0,0,.034-.207.814.814,0,0,1,.026-.16c.021-.065.092-.169.127-.263a.364.364,0,0,0,.024-.181c-.009-.061-.054-.1-.1-.1s-.072.061-.065.12Z" transform="translate(-292.121 -1155.961)" fill="#e9f1e0" fill-rule="evenodd"/>
        <path id="Trazado_1219892" data-name="Trazado 1219892" d="M1055.147,1574.393c-.031-.044-.064-.089-.069-.094a1.04,1.04,0,0,0-.08-.08.144.144,0,0,0-.012-.109c-.028-.052-.081-.067-.117-.034a.182.182,0,0,0-.069.148.187.187,0,0,0,.048.115c.024.027.072.06.125.12a1.663,1.663,0,0,0,.154.2c.064.053.111.024.133-.019a.65.65,0,0,0,.051-.194c.014-.1.024-.215.043-.315a.552.552,0,0,1,.026-.1c.008-.019.014-.038.029-.04a.1.1,0,0,0,.064-.123c-.01-.061-.054-.1-.1-.1-.091.014-.152.126-.183.286-.02.1-.03.225-.044.325v.006Z" transform="translate(-296.038 -1143.091)" fill="#e9f1e0" fill-rule="evenodd"/>
        <path id="Trazado_1219893" data-name="Trazado 1219893" d="M1008.533,1606.492c-.022-.037-.045-.076-.064-.11-.03-.055-.062-.129-.072-.153a.14.14,0,0,0-.032-.091.069.069,0,0,0-.117.005.14.14,0,0,0-.019.089.587.587,0,0,0,.059.173,2.587,2.587,0,0,0,.252.415.082.082,0,0,0,.073.03c.03,0,.061-.029.076-.087a1,1,0,0,0,.007-.189c.007-.066.044-.314.081-.484.009-.044.023-.092.03-.115a.084.084,0,0,0,.02-.026.14.14,0,0,0-.024-.156.081.081,0,0,0-.057-.025.079.079,0,0,0-.069.045.83.83,0,0,0-.061.2c-.035.157-.068.379-.081.48Zm.184-.518h0Zm0,0,0,0,0,0Zm0,0,0,0,0,0Z" transform="translate(-258.024 -1169.205)" fill="#e9f1e0" fill-rule="evenodd"/>
        <path id="Trazado_1219894" data-name="Trazado 1219894" d="M1026.626,1620.372a.144.144,0,0,0,.015.088c.027.052.08.069.117.038a.1.1,0,0,0,.023-.029c.01.011.019.023.029.036.054.071.111.163.166.239a.559.559,0,0,0,.164.165.138.138,0,0,0,.148,0,.267.267,0,0,0,.094-.128,1.177,1.177,0,0,0,.057-.251c.015-.1.026-.215.051-.311a.279.279,0,0,1,.09-.171.122.122,0,0,0,.03-.147c-.023-.055-.075-.079-.114-.053a.361.361,0,0,0-.13.175,1.5,1.5,0,0,0-.076.339c-.012.087-.022.174-.04.245a.173.173,0,0,1-.047.1c-.005,0-.011,0-.017,0a.139.139,0,0,1-.024-.02,1.061,1.061,0,0,1-.124-.161,1.707,1.707,0,0,0-.18-.241.2.2,0,0,0-.166-.075.082.082,0,0,0-.065.06.166.166,0,0,0-.008.06.3.3,0,0,0,.007.046Z" transform="translate(-273.035 -1180.687)" fill="#e9f1e0" fill-rule="evenodd"/>
        <path id="Trazado_1219895" data-name="Trazado 1219895" d="M1046.541,1618.683l-.035-.047c-.106-.151-.239-.381-.275-.435s-.076-.054-.081-.054a.07.07,0,0,0-.053.032.119.119,0,0,0-.017.092.129.129,0,0,0,.033.071,5.971,5.971,0,0,0,.361.548.208.208,0,0,0,.085.063.073.073,0,0,0,.073-.018.1.1,0,0,0,.022-.031.71.71,0,0,0,.028-.078c.044-.135.131-.441.191-.575h.012a.1.1,0,0,0,.065-.123.153.153,0,0,0-.062-.114c-.028-.018-.081-.025-.126.047a4.824,4.824,0,0,0-.221.623Zm-.3-.432a.132.132,0,0,1-.011.071.123.123,0,0,0,.011-.071Z" transform="translate(-288.919 -1179.191)" fill="#e9f1e0" fill-rule="evenodd"/>
        <path id="Trazado_1219896" data-name="Trazado 1219896" d="M1056.851,1613.719c-.027-.043-.068-.109-.1-.163-.049-.1-.1-.2-.128-.256a.315.315,0,0,0-.056-.08.07.07,0,0,0-.086-.015.129.129,0,0,0,0,.2c.015.029.066.127.107.21a1.8,1.8,0,0,0,.177.3c.071.083.134.078.174.029a.475.475,0,0,0,.068-.138c.039-.113.076-.28.117-.419a.992.992,0,0,1,.053-.149.263.263,0,0,1,.02-.032.1.1,0,0,0,.058-.121c-.009-.061-.054-.1-.1-.1a.136.136,0,0,0-.086.059.574.574,0,0,0-.072.147c-.042.121-.08.289-.119.424-.011.039-.021.074-.032.1Zm-.307-.3h0Zm.007,0h0Zm0,0h0Z" transform="translate(-297.377 -1175.098)" fill="#e9f1e0" fill-rule="evenodd"/>
        <path id="Trazado_1219897" data-name="Trazado 1219897" d="M1000.29,1622.92a.43.43,0,0,1-.059-.048.807.807,0,0,1-.117-.129.332.332,0,0,1-.056-.112.63.63,0,0,0-.047-.115c-.028-.051-.081-.066-.117-.033a.131.131,0,0,0-.014.153.6.6,0,0,1,.036.094.547.547,0,0,0,.089.166,1,1,0,0,0,.135.15.407.407,0,0,0,.144.1.108.108,0,0,0,.1-.012.217.217,0,0,0,.071-.153c.01-.078,0-.193.012-.3a.291.291,0,0,1,.052-.188.131.131,0,0,0,.013-.153c-.029-.051-.081-.065-.118-.031a.342.342,0,0,0-.091.169,1.263,1.263,0,0,0-.027.28c0,.05,0,.1,0,.14,0,.008,0,.017,0,.026Z" transform="translate(-251.196 -1182.689)" fill="#e9f1e0" fill-rule="evenodd"/>
        <path id="Trazado_1219898" data-name="Trazado 1219898" d="M988.5,1610.909c-.016-.013-.032-.026-.044-.034-.052-.035-.2-.16-.232-.192a.077.077,0,0,0-.15,0,.146.146,0,0,0,.011.109.293.293,0,0,0,.05.064,2.479,2.479,0,0,0,.255.21.91.91,0,0,0,.156.107.081.081,0,0,0,.092-.029.146.146,0,0,0,.028-.088,3.022,3.022,0,0,1,.031-.769.135.135,0,0,0-.052-.147.072.072,0,0,0-.106.056,2.388,2.388,0,0,0-.04.709Zm-.286-.092a.071.071,0,0,1-.03.023.068.068,0,0,0,.03-.023Z" transform="translate(-241.568 -1172.77)" fill="#e9f1e0" fill-rule="evenodd"/>
        <path id="Trazado_1219899" data-name="Trazado 1219899" d="M1046.1,1589.785s6.051-1.067,7.29-7.1a6.263,6.263,0,0,0-4.359-7.181,5.258,5.258,0,0,0-6.667,4.071c-1.238,6.037,3.737,10.214,3.737,10.214Z" transform="translate(-285.728 -1144.327)" fill="#70aa67" fill-rule="evenodd"/>
        <path id="Trazado_1219900" data-name="Trazado 1219900" d="M1078.522,1576.992a6.638,6.638,0,0,0-2.493-.979,2.729,2.729,0,0,1,1.21,1.247c.295.826-.042,1.778.173,2.583.17.638.621,1.15.743,1.833a6.545,6.545,0,0,1-.941,3.833c-.289.649-.426,1.348-.743,2a3.161,3.161,0,0,0-.52,1.611c0,.065-.1.363-.049.416.131.147.455.012.619.028a2.789,2.789,0,0,0,1.832-.5,16.053,16.053,0,0,0,1.015-1.833c.26-.438.625-.8.867-1.25a8.46,8.46,0,0,0,.941-3.305,6.96,6.96,0,0,0-1.03-3.906,17.143,17.143,0,0,0-1.623-1.777Z" transform="translate(-313.252 -1144.916)" fill="#5b9453" fill-rule="evenodd"/>
        <path id="Trazado_1219901" data-name="Trazado 1219901" d="M1051.363,1591.559a2.227,2.227,0,0,0-.163-.164.055.055,0,0,0-.085.01.08.08,0,0,0,.008.1,1.305,1.305,0,0,1,.187.2c.006.012.031.068.044.09a.1.1,0,0,0,.025.031.052.052,0,0,0,.053.009.063.063,0,0,0,.038-.037.329.329,0,0,0,.016-.113c0-.046,0-.1,0-.122.006-.042.014-.083.021-.125s.016-.095.022-.143c0-.021,0-.09.009-.15a.532.532,0,0,1,.01-.053.08.08,0,0,0,0-.1.055.055,0,0,0-.086,0,.212.212,0,0,0-.037.1c-.01.065-.01.156-.013.182-.005.045-.014.09-.021.135s-.016.085-.021.128c0,.006,0,.012,0,.021Z" transform="translate(-293.019 -1157.129)" fill="#e9f1e0" fill-rule="evenodd"/>
        <path id="Trazado_1219902" data-name="Trazado 1219902" d="M1048.888,1605.935c-.008-.008-.016-.017-.024-.026a1.708,1.708,0,0,1-.144-.23.787.787,0,0,0-.105-.15.147.147,0,0,0-.1-.051.066.066,0,0,0-.062.07.067.067,0,0,0,.06.073s.009,0,.014.008a.243.243,0,0,1,.037.043,1.821,1.821,0,0,1,.1.158,1.068,1.068,0,0,0,.139.2.19.19,0,0,0,.133.067c.019,0,.052-.012.066-.061a.828.828,0,0,0,.016-.128c.005-.036.026-.194.05-.308.007-.032.018-.07.023-.085a.076.076,0,0,0,.024-.057.067.067,0,0,0-.061-.071.065.065,0,0,0-.049.024.187.187,0,0,0-.032.064,3.645,3.645,0,0,0-.076.414l0,.045Z" transform="translate(-290.858 -1168.897)" fill="#e9f1e0" fill-rule="evenodd"/>
        <path id="Trazado_1219903" data-name="Trazado 1219903" d="M1060.94,1604.6c-.049-.057-.11-.131-.118-.142a1.059,1.059,0,0,0-.08-.094.055.055,0,0,0-.084.016.08.08,0,0,0,.012.1l.006,0,.054.066c.015.02.162.2.2.235a.058.058,0,0,0,.086,0,.236.236,0,0,0,.034-.083c.015-.061.032-.16.055-.244a.548.548,0,0,1,.025-.073c0-.008.01-.017.013-.022a.069.069,0,0,0,.052-.071.067.067,0,0,0-.061-.071.1.1,0,0,0-.072.035.293.293,0,0,0-.053.1,2.309,2.309,0,0,0-.066.25Zm-.235-.1a.054.054,0,0,0,.05-.028.06.06,0,0,1-.05.028Z" transform="translate(-300.81 -1167.945)" fill="#e9f1e0" fill-rule="evenodd"/>
        <path id="Trazado_1219904" data-name="Trazado 1219904" d="M1073.665,1588.35l-.011-.009a.31.31,0,0,1-.041-.057,1.342,1.342,0,0,1-.083-.134c-.043-.085-.066-.2-.116-.278a.055.055,0,0,0-.085-.015.08.08,0,0,0-.012.1c.047.074.068.183.108.265a1.345,1.345,0,0,0,.089.143c.065.109.125.134.169.127a.148.148,0,0,0,.1-.076,1.363,1.363,0,0,0,.093-.229.652.652,0,0,1,.091-.191.08.08,0,0,0,0-.1.054.054,0,0,0-.086,0,1.691,1.691,0,0,0-.172.388.293.293,0,0,1-.029.056.026.026,0,0,1-.009.011Z" transform="translate(-311.142 -1154.575)" fill="#e9f1e0" fill-rule="evenodd"/>
        <path id="Trazado_1219905" data-name="Trazado 1219905" d="M1061.985,1580.956l-.021-.027c-.046-.062-.1-.141-.134-.18a.141.141,0,0,0-.048-.04.054.054,0,0,0-.042,0,.075.075,0,0,0-.038.091.069.069,0,0,0,.035.043c.014.018.081.1.125.164a.688.688,0,0,0,.1.116.059.059,0,0,0,.086-.008.744.744,0,0,0,.079-.186c.03-.092.081-.231.091-.257a.074.074,0,0,0,.03-.062.062.062,0,0,0-.106-.052.184.184,0,0,0-.039.06c-.029.063-.065.186-.1.284-.006.019-.012.037-.018.054Z" transform="translate(-301.669 -1148.613)" fill="#e9f1e0" fill-rule="evenodd"/>
        <path id="Trazado_1219906" data-name="Trazado 1219906" d="M1085.66,1594.973c.064.075.112.137.153.175a.176.176,0,0,0,.112.055c.053,0,.115-.036.19-.153a1.627,1.627,0,0,1,.124-.182.08.08,0,0,0,0-.1.055.055,0,0,0-.086,0,1.748,1.748,0,0,0-.134.2.385.385,0,0,1-.064.082.043.043,0,0,1-.025.014c-.019,0-.035-.019-.057-.042s-.075-.088-.125-.147a.055.055,0,0,0-.086,0,.081.081,0,0,0,0,.1Z" transform="translate(-321.213 -1160.209)" fill="#e9f1e0" fill-rule="evenodd"/>
        <path id="Trazado_1219907" data-name="Trazado 1219907" d="M1075.681,1611.426l-.013-.014c-.017-.021-.032-.042-.039-.049a1.86,1.86,0,0,0-.175-.17.344.344,0,0,0-.154-.075.064.064,0,0,0-.068.062.069.069,0,0,0,.052.08.275.275,0,0,1,.13.075c.049.043.094.095.135.136a.581.581,0,0,0,.081.089.078.078,0,0,0,.1,0,.272.272,0,0,0,.08-.115,1.246,1.246,0,0,0,.054-.2.873.873,0,0,1,.04-.146.145.145,0,0,1,.056-.075.078.078,0,0,0,.027-.1.057.057,0,0,0-.082-.032.462.462,0,0,0-.159.314c-.012.053-.022.107-.037.152a.338.338,0,0,1-.028.061Z" transform="translate(-312.715 -1173.387)" fill="#e9f1e0" fill-rule="evenodd"/>
        <path id="Trazado_1219908" data-name="Trazado 1219908" d="M1092.389,1610.68a.106.106,0,0,1-.008.017.26.26,0,0,1-.021.031c-.039.052-.091.1-.112.141a.518.518,0,0,0-.042.1,2.436,2.436,0,0,1-.116-.265.059.059,0,0,0-.08-.04.077.077,0,0,0-.034.093,2.842,2.842,0,0,0,.128.292c0,.01.028.076.043.1a.116.116,0,0,0,.031.039.053.053,0,0,0,.052.008.062.062,0,0,0,.034-.03.624.624,0,0,0,.049-.128.474.474,0,0,1,.037-.1c.022-.039.086-.1.122-.155a.215.215,0,0,0,.039-.112.067.067,0,0,0-.061-.072.066.066,0,0,0-.06.07Z" transform="translate(-326.38 -1173.158)" fill="#e9f1e0" fill-rule="evenodd"/>
        <path id="Trazado_1219909" data-name="Trazado 1219909" d="M1097.4,1601.432l-.04-.067a.652.652,0,0,0-.049-.059.081.081,0,0,0,0-.071.057.057,0,0,0-.081-.034.116.116,0,0,0-.068.087.109.109,0,0,0,.021.078c.014.02.045.045.077.089a.972.972,0,0,0,.089.144.062.062,0,0,0,.1,0,.412.412,0,0,0,.06-.118c.021-.06.042-.134.067-.2a.327.327,0,0,1,.031-.059c.008-.012.015-.023.026-.023a.072.072,0,0,0,0-.143c-.068,0-.126.065-.166.163-.026.063-.047.14-.07.2v0Z" transform="translate(-330.622 -1165.365)" fill="#e9f1e0" fill-rule="evenodd"/>
        <path id="Trazado_1219910" data-name="Trazado 1219910" d="M1059.828,1617.088c-.012-.026-.024-.053-.034-.076-.015-.038-.03-.088-.035-.1a.08.08,0,0,0-.013-.061.055.055,0,0,0-.086-.008.085.085,0,0,0-.024.055.336.336,0,0,0,.023.116,1.554,1.554,0,0,0,.135.288.062.062,0,0,0,.049.026.073.073,0,0,0,.065-.048.582.582,0,0,0,.027-.12c.012-.041.068-.195.114-.3.012-.027.027-.056.035-.07a.07.07,0,0,0,.018-.014.08.08,0,0,0,0-.1.062.062,0,0,0-.038-.022.063.063,0,0,0-.056.022.519.519,0,0,0-.067.12c-.042.1-.092.233-.114.3Zm.195-.311h0Zm0,0v0Zm0,0,0,0s0,0,0,0Z" transform="translate(-299.986 -1178.087)" fill="#e9f1e0" fill-rule="evenodd"/>
        <path id="Trazado_1219911" data-name="Trazado 1219911" d="M1071.348,1627.886a.082.082,0,0,0,0,.057.058.058,0,0,0,.08.036.071.071,0,0,0,.02-.016c.006.008.011.016.017.026.031.05.062.115.093.168a.361.361,0,0,0,.1.122.114.114,0,0,0,.107.013.188.188,0,0,0,.084-.072.706.706,0,0,0,.071-.153,1.947,1.947,0,0,1,.073-.193.181.181,0,0,1,.085-.1.074.074,0,0,0,.038-.09.06.06,0,0,0-.077-.045.254.254,0,0,0-.115.1.917.917,0,0,0-.094.208,1.573,1.573,0,0,1-.057.151c-.013.028-.026.052-.046.06,0,0-.009,0-.012,0a.1.1,0,0,1-.016-.015.635.635,0,0,1-.071-.115,1.076,1.076,0,0,0-.1-.171.152.152,0,0,0-.112-.064.061.061,0,0,0-.054.032.087.087,0,0,0-.012.037.1.1,0,0,0,0,.03Z" transform="translate(-309.541 -1187.054)" fill="#e9f1e0" fill-rule="evenodd"/>
        <path id="Trazado_1219912" data-name="Trazado 1219912" d="M1086.149,1628.763c-.007-.01-.014-.022-.02-.033-.059-.107-.13-.266-.15-.3a.068.068,0,0,0-.053-.042.053.053,0,0,0-.041.015.07.07,0,0,0-.024.057.079.079,0,0,0,.016.048,3.819,3.819,0,0,0,.2.384.143.143,0,0,0,.054.048.061.061,0,0,0,.055,0,.079.079,0,0,0,.02-.017.465.465,0,0,0,.03-.047c.047-.081.146-.267.205-.345h.009a.066.066,0,0,0,.061-.072.092.092,0,0,0-.032-.079.071.071,0,0,0-.1.017,2.969,2.969,0,0,0-.232.373Zm-.165-.3a.077.077,0,0,1-.016.044.082.082,0,0,0,.016-.044Z" transform="translate(-321.392 -1187.646)" fill="#e9f1e0" fill-rule="evenodd"/>
        <path id="Trazado_1219913" data-name="Trazado 1219913" d="M1094.181,1626.628a1.225,1.225,0,0,1-.051-.113c-.024-.067-.047-.135-.063-.175a.206.206,0,0,0-.032-.057.055.055,0,0,0-.061-.018.077.077,0,0,0-.023.124c.008.019.033.087.054.144a1.073,1.073,0,0,0,.093.211c.042.06.089.063.124.036a.309.309,0,0,0,.065-.081c.041-.068.088-.17.133-.254a.657.657,0,0,1,.055-.089.157.157,0,0,1,.019-.018.068.068,0,0,0,.056-.071.067.067,0,0,0-.061-.072.11.11,0,0,0-.07.029.371.371,0,0,0-.069.086c-.045.073-.092.175-.135.257-.013.024-.025.044-.035.061Zm-.189-.222h0Zm.005,0h0Zm0,0h0Z" transform="translate(-327.977 -1185.879)" fill="#e9f1e0" fill-rule="evenodd"/>
        <path id="Trazado_1219914" data-name="Trazado 1219914" d="M1052.046,1626.72a.293.293,0,0,1-.037-.036.545.545,0,0,1-.07-.093.2.2,0,0,1-.027-.077.349.349,0,0,0-.021-.078.057.057,0,0,0-.081-.033.078.078,0,0,0-.028.1.364.364,0,0,1,.015.063.324.324,0,0,0,.045.114.619.619,0,0,0,.081.109.281.281,0,0,0,.093.079.09.09,0,0,0,.074,0,.14.14,0,0,0,.069-.09c.016-.048.026-.122.043-.191a.176.176,0,0,1,.06-.114.078.078,0,0,0,.027-.1.057.057,0,0,0-.082-.032.224.224,0,0,0-.085.1.733.733,0,0,0-.052.175c-.006.032-.012.063-.018.088l-.005.016Z" transform="translate(-293.57 -1185.993)" fill="#e9f1e0" fill-rule="evenodd"/>
        <path id="Trazado_1219915" data-name="Trazado 1219915" d="M1044.7,1617.9l-.028-.026c-.033-.027-.123-.122-.146-.145a.058.058,0,0,0-.11-.013.083.083,0,0,0,0,.07.169.169,0,0,0,.029.046,1.645,1.645,0,0,0,.161.159.624.624,0,0,0,.1.083.066.066,0,0,0,.071-.009.09.09,0,0,0,.03-.053,1.715,1.715,0,0,1,.112-.485.079.079,0,0,0-.021-.1.056.056,0,0,0-.084.024,1.34,1.34,0,0,0-.111.446Zm-.2-.088a.054.054,0,0,1-.024.012.067.067,0,0,0,.024-.012Z" transform="translate(-287.557 -1178.712)" fill="#e9f1e0" fill-rule="evenodd"/>
        <path id="Trazado_1219916" data-name="Trazado 1219916" d="M993.1,1641.54l20.033.175-3.043,17.183-14.247-.125Z" transform="translate(-245.68 -1198.404)" fill="#e686a7" fill-rule="evenodd"/>
        <path id="Trazado_1219917" data-name="Trazado 1219917" d="M1013.941,1633.98H994.3v2.865h19.638Z" transform="translate(-246.658 -1192.233)" fill="#e16d96" fill-rule="evenodd"/>
        <path id="Trazado_1219918" data-name="Trazado 1219918" d="M1011.7,1633.87h-21v2.751h21Z" transform="translate(-243.718 -1192.144)" fill="#e686a7" fill-rule="evenodd"/>
        <path id="Trazado_1219919" data-name="Trazado 1219919" d="M1154.968,983.046a24.008,24.008,0,0,1-6.109-4.51c-5.923-8.292-8.076-18.636-4.731-28.671,3.265-9.793,10.044-15.723,16.945-23.155,2.2-2.365,11.007-11.687,13.049-14.806,5.539-8.459,8.168-15.581,10.687-19.72,3.776-6.2,12.256-11.345,19.42-11.592a29.82,29.82,0,0,1,7.4.972c.514-.029,2.678-2.075,5.891-2.348,9.036-.766,17.122,7.57,21.682,15.466,7.027,12.169,8.858,24.61,22.653,36.338,16.613,14.124,18.608,31.414,16.036,40.3-4.259,14.716-12.479,15.7-16.411,17.907-4.233,2.381-101.819-7.356-106.516-6.182Z" transform="translate(-367.663 -576.122)" fill="#0a2953" fill-rule="evenodd"/>
        <path id="Trazado_1219920" data-name="Trazado 1219920" d="M1141.51,978.711c-.055-.063-.1-.122-.14-.176-5.923-8.292-8.076-18.636-4.731-28.671,3.265-9.793,10.044-15.723,16.945-23.155,2.2-2.365,11.007-11.687,13.049-14.806,5.538-8.459,8.168-15.581,10.687-19.72,3.776-6.2,12.256-11.345,19.419-11.592a29.819,29.819,0,0,1,7.405.972c.514-.029,2.678-2.075,5.891-2.348,9.036-.766,17.122,7.57,21.682,15.466l.061.105c-4.726-6.654-11.729-12.6-19.421-11.943-3.213.273-5.377,2.319-5.891,2.348a29.788,29.788,0,0,0-7.4-.972c-7.163.247-15.644,5.387-19.419,11.592-2.518,4.139-5.148,11.262-10.687,19.721-2.042,3.119-10.853,12.441-13.049,14.806-6.9,7.433-13.681,13.362-16.945,23.155a31.137,31.137,0,0,0,2.55,25.22ZM1245.132,920.9a52.535,52.535,0,0,0,9.236,10.121,51.487,51.487,0,0,1,11.4,13.472,53.317,53.317,0,0,0-9.081-9.845,52.553,52.553,0,0,1-11.558-13.748Z" transform="translate(-361.55 -576.121)" fill="#092144" fill-rule="evenodd"/>
        <path id="Trazado_1219921" data-name="Trazado 1219921" d="M1565.934,999.222c-1.773-.878-4.315.87-5.675,3.9s-1.024,6.207.749,7.085,4.315-.87,5.674-3.9,1.025-6.205-.749-7.086Z" transform="translate(-707.934 -673.931)" fill="#fe9276" fill-rule="evenodd"/>
        <path id="Trazado_1219922" data-name="Trazado 1219922" d="M1442.625,999.222c1.773-.878,4.315.87,5.675,3.9s1.024,6.207-.748,7.085-4.315-.87-5.675-3.9-1.025-6.205.748-7.086Z" transform="translate(-611.305 -673.931)" fill="#fe9276" fill-rule="evenodd"/>
        <path id="Trazado_1219923" data-name="Trazado 1219923" d="M1482.332,1087.308a28.931,28.931,0,0,1-5.291,14s-1.423,21.084,4.907,19.893,8.776-4.083,9.069-5.534.306-10.917.306-10.917-5.638-4.646-5.632-16.217-3.359-1.225-3.359-1.225Z" transform="translate(-640.578 -742.543)" fill="#fe9276" fill-rule="evenodd"/>
        <path id="Trazado_1219924" data-name="Trazado 1219924" d="M1474.594,912.632c-5.643.035-10.405,8.79-10.628,19.538s4.177,19.445,9.82,19.409,10.405-8.79,10.628-19.538-4.177-19.445-9.82-19.409Z" transform="translate(-630.01 -603.439)" fill="#fea28a" fill-rule="evenodd"/>
        <path id="Trazado_1219925" data-name="Trazado 1219925" d="M1471.908,916.382c-4.4,2.266-7.757,9.861-7.944,18.849-.223,10.748,4.177,19.445,9.82,19.409a6.9,6.9,0,0,0,4.738-2.2,5.9,5.9,0,0,1-2.684.689c-5.643.035-10.043-8.662-9.82-19.409.156-7.527,2.54-14.076,5.89-17.337Z" transform="translate(-630.009 -606.499)" fill="#fe9276" fill-rule="evenodd"/>
        <path id="Trazado_1219926" data-name="Trazado 1219926" d="M1546.073,1078.582c.015-.146-.21-.271-.3-.373-.308-.36-.68-.679-1.015-1.014a9.61,9.61,0,0,1-2.6-3.58,6.831,6.831,0,0,1-.209-1.432c-.237-2.615,2.13-3.8,3.282-5.817,1.017-1.781,2.212-4.4,4.714-4.087,2.043.255,1.792,3.153,1.611,4.594-.285,2.281-2.16,3.692-3.132,5.638-.834,1.666-.434,3.215-.03,4.833.18.72-1.243.726-1.641.806a2.665,2.665,0,0,0-.507.149c-.033.014-.246.284-.18.284Z" transform="translate(-693.664 -725.564)" fill="#fe9276" fill-rule="evenodd"/>
        <path id="Trazado_1219927" data-name="Trazado 1219927" d="M1472.379,902.3a5.161,5.161,0,0,0-5.487,5.147c-.456,5.519-3.155,7.795-7.275,8.537s-3,2.145-3,2.145l-1.645-5.023,1.055-9.075,3.85-4.693,10.7-.279,1.8,3.241Z" transform="translate(-622.679 -592.356)" fill="#0a2953" fill-rule="evenodd"/>
        <path id="Trazado_1219928" data-name="Trazado 1219928" d="M1248.135,1156.1s-.569,18.744,6.629,14.773c0,0,2.912-1.828,2.966-13.191,0,0,32.86-9.626,44.077,37.692l-33.411,20.812s-51.9-7.106-52.995-7.3-20.65-10.762-20.65-10.762,22.42-58.114,53.383-42.02Z" transform="translate(-410.273 -799.865)" fill="#c46793" fill-rule="evenodd"/>
        <path id="Trazado_1219929" data-name="Trazado 1219929" d="M1199.855,1200.854c-2.929-1.568-5.1-2.738-5.1-2.738s22.419-58.114,53.383-42.02c0,0-.018.576-.008,1.505-26.479-7.619-45.742,37.036-48.28,43.252Zm54.378-29.723a5.408,5.408,0,0,0,.539-.261s2.912-1.827,2.966-13.191a31.483,31.483,0,0,1,27.745,6.959,31.374,31.374,0,0,0-22.934-3.509c-.054,11.364-2.966,13.191-2.966,13.191-2.786,1.536-4.407-.326-5.35-3.189Z" transform="translate(-410.279 -799.865)" fill="#bf5b8a" fill-rule="evenodd"/>
        <path id="Trazado_1219930" data-name="Trazado 1219930" d="M1471.66,1169.74c-.034,1.9-.108,16.219,5.391,15.051-.392,3.09-2.994,8.1-6.637,5.73-4.28-2.782.233-16.669,1.246-20.781Zm10.256,1.213c2.639,5.839,4.7,19.941,1.173,19.008-2.49-.659-5.744-3.332-6.037-5.17a8.544,8.544,0,0,0,1.243-.485s2.912-1.828,2.966-13.191c0,0,.229-.067.656-.163Z" transform="translate(-633.802 -813.301)" fill="#b7477c" fill-rule="evenodd"/>
        <path id="Trazado_1219931" data-name="Trazado 1219931" d="M1375.28,1155.318a23.081,23.081,0,0,1,9.5-2.037c6.714,13.337,7.306,43.717,7.306,43.717s-8.417,18.846-7.277.051c.908-14.972-6.483-34.434-9.526-41.731Z" transform="translate(-557.628 -799.866)" fill="#5d3067" fill-rule="evenodd"/>
        <path id="Trazado_1219932" data-name="Trazado 1219932" d="M1387.9,1204.205c-1.918,2.226-3.658,2.064-3.1-7.156.908-14.972-6.482-34.434-9.526-41.731a23.081,23.081,0,0,1,9.5-2.037q.452.9.867,1.894a23.8,23.8,0,0,0-7.248,1.937c3.044,7.3,10.434,26.758,9.526,41.731a36.6,36.6,0,0,0-.017,5.362Z" transform="translate(-557.625 -799.866)" fill="#4e2856" fill-rule="evenodd"/>
        <path id="Trazado_1219933" data-name="Trazado 1219933" d="M1553.614,1140.656s1.851-1.669,3.209-1.759c0,0,14.112,10.67,19.33,45.687l-17.78,1.268s-10.069-19.413-4.76-45.2Z" transform="translate(-701.93 -788.126)" fill="#df7aaa" fill-rule="evenodd"/>
        <path id="Trazado_1219934" data-name="Trazado 1219934" d="M1559.843,1185.753l-1.465.1s-10.069-19.413-4.76-45.2c0,0,1.851-1.669,3.209-1.759a18.889,18.889,0,0,1,2.244,2.168,8.084,8.084,0,0,0-2.977,1.73,75.193,75.193,0,0,0,3.748,42.953Z" transform="translate(-701.933 -788.13)" fill="#dd6ea2" fill-rule="evenodd"/>
        <path id="Trazado_1219935" data-name="Trazado 1219935" d="M1273.967,1371.49H1153.22l10.274,63.948,100.727.068Z" transform="translate(-376.373 -977.978)" fill="#c8c8c8" fill-rule="evenodd"/>
        <path id="Trazado_1219936" data-name="Trazado 1219936" d="M1273.587,1374l.38-2.506H1153.22l10.274,63.948,100.727.068.625-4.1-95.554-.059L1159.019,1374Z" transform="translate(-376.373 -977.978)" fill="#aaa" fill-rule="evenodd"/>
        <path id="Trazado_1219937" data-name="Trazado 1219937" d="M1296.448,1708.9a2.406,2.406,0,0,0-2.405-2.406h-103.4a2.405,2.405,0,1,0,0,4.811h103.4a2.407,2.407,0,0,0,2.405-2.405Z" transform="translate(-404.953 -1251.427)" fill="gray" fill-rule="evenodd"/>
        <path id="Trazado_1219938" data-name="Trazado 1219938" d="M1150.828,1775.56H948.005l4.968,7.58h192.889Z" transform="translate(-208.868 -1307.797)" fill="#653718" fill-rule="evenodd"/>
        <path id="Trazado_1219939" data-name="Trazado 1219939" d="M957.336,1780.035l-2.932-4.474h-6.4l4.968,7.58h192.889l2.034-3.106Z" transform="translate(-208.868 -1307.797)" fill="#542e14" fill-rule="evenodd"/>
        <path id="Trazado_1219940" data-name="Trazado 1219940" d="M1140.74,1728.273a1.637,1.637,0,0,0-1.636-1.636H933.482a1.637,1.637,0,0,0-1.636,1.636v6.392a1.637,1.637,0,0,0,1.636,1.636H1139.1a1.637,1.637,0,0,0,1.636-1.636v-6.392Z" transform="translate(-195.678 -1267.864)" fill="#cd946d" fill-rule="evenodd"/>
        <path id="Trazado_1219941" data-name="Trazado 1219941" d="M979.061,1728.273a1.637,1.637,0,0,0-1.636-1.636H933.482a1.637,1.637,0,0,0-1.636,1.636v6.392a1.637,1.637,0,0,0,1.636,1.636h43.944a1.637,1.637,0,0,0,1.636-1.636v-6.392Z" transform="translate(-195.678 -1267.864)" fill="#c58457" fill-rule="evenodd"/>
        <path id="Trazado_1219942" data-name="Trazado 1219942" d="M1269.911,1728.273a1.637,1.637,0,0,0-1.636-1.636h-43.943a1.637,1.637,0,0,0-1.636,1.636v6.392a1.637,1.637,0,0,0,1.636,1.636h43.943a1.637,1.637,0,0,0,1.636-1.636v-6.392Z" transform="translate(-433.082 -1267.864)" fill="#c58457" fill-rule="evenodd"/>
        <path id="Trazado_1219943" data-name="Trazado 1219943" d="M1419.025,1727.85a1.212,1.212,0,0,0-1.211-1.211h-4.731a1.212,1.212,0,0,0-1.211,1.211v7.242a1.212,1.212,0,0,0,1.211,1.211h4.731a1.212,1.212,0,0,0,1.211-1.211v-7.242Z" transform="translate(-587.495 -1267.866)" fill="#b26d3d" fill-rule="evenodd"/>
        <path id="Trazado_1219944" data-name="Trazado 1219944" d="M1390.143,1727.105a.47.47,0,0,0-.469-.469h-1.833a.469.469,0,0,0-.469.469v8.726a.469.469,0,0,0,.469.469h1.833a.47.47,0,0,0,.469-.469v-8.726Z" transform="translate(-567.498 -1267.863)" fill="#b26d3d" fill-rule="evenodd"/>
        <path id="Trazado_1219945" data-name="Trazado 1219945" d="M1366.443,1727.105a.47.47,0,0,0-.469-.469h-1.832a.469.469,0,0,0-.469.469v8.726a.469.469,0,0,0,.469.469h1.832a.47.47,0,0,0,.469-.469v-8.726Z" transform="translate(-548.153 -1267.863)" fill="#b26d3d" fill-rule="evenodd"/>
        <path id="Trazado_1219946" data-name="Trazado 1219946" d="M1320.585,760.535a7.885,7.885,0,0,0-9.98-4.961l-5.373,1.805a7.885,7.885,0,0,0-4.961,9.98l1.174,3.495a7.885,7.885,0,0,0,9.98,4.961l5.373-1.805a7.884,7.884,0,0,0,4.961-9.98l-1.174-3.5Z" transform="translate(-496.066 -474.905)" fill="#8a8a8a" fill-rule="evenodd"/>
        <path id="Trazado_1219947" data-name="Trazado 1219947" d="M1054.238,273.62s11.77-2.341,9.707-9.341c-5.27-17.888,20.056-29.5,10.927-62.049-6.355-22.657-31.434-34.058-53.562-26.624a42.316,42.316,0,0,0-26.624,53.562c10.7,31.841,35.7,23.166,46.287,42.576,3.051,5.594,13.265,1.876,13.265,1.876Z" transform="translate(-245.167)" fill="orange" fill-rule="evenodd"/>
        <path id="Trazado_1219948" data-name="Trazado 1219948" d="M1012.14,196.537a42.338,42.338,0,0,0-17.45,49.2c10.7,31.841,35.7,23.166,46.287,42.576,3.052,5.594,13.264,1.876,13.264,1.876s.626-.125,1.564-.4a5.237,5.237,0,0,0,1.648-5.579c-5.27-17.888-21.953-24.818-5.431-54.306,13.865-24.746-14.817-42.2-37.2-34.367-.907.317-1.8.639-2.678,1Z" transform="translate(-245.17 -16.571)" fill="#ffc216" fill-rule="evenodd"/>
        <path id="Trazado_1219949" data-name="Trazado 1219949" d="M1054.918,283.44a6.31,6.31,0,0,1-5.309-3.032c-10.587-19.41-32.851-11.79-46.287-42.576-9.407-21.554,20.665-53.195,18.056-52.263-21.985,7.848-34.058,31.434-26.624,53.562,10.7,31.841,35.7,23.166,46.287,42.576,3.052,5.594,13.264,1.876,13.264,1.876s.227-.046.613-.143Z" transform="translate(-245.234 -9.962)" fill="#ffce45" fill-rule="evenodd"/>
        <path id="Trazado_1219950" data-name="Trazado 1219950" d="M1221.146,492.707c.2.162,1.419,2.182.73,1.929a6.525,6.525,0,0,1-2.108-1.922,104.738,104.738,0,0,1-6.328-8.688c-5.225-7.5-12.184-16.927-10.526-26.838a4.422,4.422,0,0,1,6.1-3.437,8.886,8.886,0,0,1,3.865,3.962c.541.927,2.015,3.287.676,4.3-1.526,1.151-3.466-.648-4.233-1.835-1.535-2.376-2.17-7.3.319-9.417,2.185-1.857,4.341,3.386,4.84,4.761.168.463.332.928.471,1.4.126.43.4,1.634.062,1.343-.63-.537-.793-2.039-.946-2.816-.654-3.321-.1-7.075,3.688-7.94,1.207-.276,2.121.811,2.7,1.719,1.971,3.1,2.809,6.446,3.557,10.009a128.952,128.952,0,0,1,1.759,15.387c.305,3.489,1.118,6.92,1.543,10.393.528,4.31.888,8.732,2.279,12.874" transform="translate(-416.732 -223.748)" fill="none" stroke="#000" stroke-linecap="round" stroke-linejoin="round" stroke-miterlimit="10" stroke-width="1.5"/>
        <path id="Trazado_1219951" data-name="Trazado 1219951" d="M1276.135,660.264a1.625,1.625,0,0,0-2.057-1.022l-20.443,6.868a1.625,1.625,0,0,0-1.022,2.057l8.064,24.006a1.625,1.625,0,0,0,2.057,1.023l20.443-6.868a1.625,1.625,0,0,0,1.023-2.057l-8.065-24.006Z" transform="translate(-457.432 -396.541)" fill="#a0a0a0" fill-rule="evenodd"/>
        <path id="Trazado_1219952" data-name="Trazado 1219952" d="M1276.975,666.282a.119.119,0,0,0-.151-.076l-23.3,7.826a.12.12,0,0,0-.076.151l.506,1.506a.12.12,0,0,0,.151.075l23.3-7.826a.12.12,0,0,0,.075-.152l-.506-1.505Z" transform="translate(-458.182 -402.29)" fill="#686868" fill-rule="evenodd"/>
        <path id="Trazado_1219953" data-name="Trazado 1219953" d="M1284.546,689.68a.119.119,0,0,0-.151-.075l-23.3,7.826a.12.12,0,0,0-.076.152l.506,1.506a.12.12,0,0,0,.151.075l23.3-7.826a.12.12,0,0,0,.076-.151l-.506-1.506Z" transform="translate(-464.361 -421.389)" fill="#686868" fill-rule="evenodd"/>
        <path id="Trazado_1219954" data-name="Trazado 1219954" d="M1291.3,709.682a.12.12,0,0,0-.151-.075l-23.3,7.826a.12.12,0,0,0-.075.152l.506,1.506a.12.12,0,0,0,.151.075l23.3-7.826a.12.12,0,0,0,.075-.151l-.506-1.506Z" transform="translate(-469.878 -437.715)" fill="#686868" fill-rule="evenodd"/>
        <path id="Trazado_1219955" data-name="Trazado 1219955" d="M1298.214,730.1a.12.12,0,0,0-.151-.075l-23.3,7.826a.12.12,0,0,0-.076.151l.506,1.505a.119.119,0,0,0,.151.076l23.3-7.826a.12.12,0,0,0,.076-.152l-.506-1.506Z" transform="translate(-475.517 -454.378)" fill="#686868" fill-rule="evenodd"/>
        <path id="Trazado_1219956" data-name="Trazado 1219956" d="M1304.454,747.108a.12.12,0,0,0-.151-.075l-23.3,7.826a.12.12,0,0,0-.075.152l.506,1.506a.119.119,0,0,0,.152.076l23.3-7.826a.119.119,0,0,0,.075-.152l-.506-1.505Z" transform="translate(-480.611 -468.264)" fill="#686868" fill-rule="evenodd"/>
        <path id="Trazado_1219957" data-name="Trazado 1219957" d="M1311.035,767.083a.119.119,0,0,0-.151-.076l-23.3,7.826a.12.12,0,0,0-.076.151l.506,1.505a.12.12,0,0,0,.151.075l23.3-7.826a.12.12,0,0,0,.075-.151l-.506-1.506Z" transform="translate(-485.983 -484.568)" fill="#686868" fill-rule="evenodd"/>
        <path id="Trazado_1219958" data-name="Trazado 1219958" d="M1317.344,785.18a.12.12,0,0,0-.151-.075l-23.3,7.826a.12.12,0,0,0-.075.151l.506,1.505a.119.119,0,0,0,.151.076l23.3-7.826a.12.12,0,0,0,.076-.151l-.505-1.506Z" transform="translate(-491.132 -499.341)" fill="#686868" fill-rule="evenodd"/>
        <path id="Trazado_1219959" data-name="Trazado 1219959" d="M807.559,640.176a21.268,21.268,0,1,1-21.268,21.268,21.278,21.278,0,0,1,21.268-21.268Z" transform="translate(-76.87 -381.048)" fill="#fff" stroke="#d74f4f" stroke-linecap="round" stroke-linejoin="round" stroke-miterlimit="10" stroke-width="1.5" fill-rule="evenodd"/>
        <path id="Trazado_1219960" data-name="Trazado 1219960" d="M901.088,638.259a.655.655,0,0,0-1.311,0v4.1a.655.655,0,1,0,1.311,0v-4.1Z" transform="translate(-169.502 -378.949)" fill="#d74f4f" fill-rule="evenodd"/>
        <path id="Trazado_1219961" data-name="Trazado 1219961" d="M864.725,710.545a.219.219,0,0,0-.322-.038.257.257,0,0,0-.039.344l6.578,8.927a.219.219,0,0,0,.322.038.257.257,0,0,0,.04-.344l-6.578-8.927Z" transform="translate(-140.556 -438.411)" fill="#d74f4f" fill-rule="evenodd"/>
        <path id="Trazado_1219962" data-name="Trazado 1219962" d="M911.2,689.295a.219.219,0,0,1,.322-.038.258.258,0,0,1,.039.345L902.1,702.433a.219.219,0,0,1-.322.038.258.258,0,0,1-.04-.344l9.456-12.832Z" transform="translate(-171.065 -421.066)" fill="#d74f4f" fill-rule="evenodd"/>
        <path id="Trazado_1219963" data-name="Trazado 1219963" d="M899.83,845.156a.655.655,0,1,0-1.311,0v4.1a.655.655,0,0,0,1.311,0v-4.1Z" transform="translate(-168.475 -547.827)" fill="#d74f4f" fill-rule="evenodd"/>
        <path id="Trazado_1219964" data-name="Trazado 1219964" d="M996.152,758.864a.7.7,0,1,0,0-1.405h-4.006a.7.7,0,1,0,0,1.405Z" transform="translate(-244.324 -476.78)" fill="#d74f4f" fill-rule="evenodd"/>
        <path id="Trazado_1219965" data-name="Trazado 1219965" d="M789.251,757.516a.7.7,0,0,0,0-1.405h-4.006a.7.7,0,0,0,0,1.405Z" transform="translate(-75.442 -475.679)" fill="#d74f4f" fill-rule="evenodd"/>
        <path id="Trazado_1219966" data-name="Trazado 1219966" d="M899.024,757.188a.759.759,0,1,1-.706.757.734.734,0,0,1,.706-.757Z" transform="translate(-168.311 -476.558)" fill="#d74f4f" fill-rule="evenodd"/>
        <path id="Trazado_1219967" data-name="Trazado 1219967" d="M1190.589,916.247a6.114,6.114,0,1,1-6.115,6.115,6.117,6.117,0,0,1,6.115-6.115Z" transform="translate(-401.885 -606.389)" fill="#f99" fill-rule="evenodd"/>
        <path id="Trazado_1219968" data-name="Trazado 1219968" d="M1593.87,653.233a6.114,6.114,0,1,1-6.115,6.114,6.117,6.117,0,0,1,6.115-6.114Z" transform="translate(-731.059 -391.706)" fill="#f7d365" fill-rule="evenodd"/>
        <path id="Trazado_1219969" data-name="Trazado 1219969" d="M1908.753,783.872a11.416,11.416,0,1,1-11.415,11.416,11.421,11.421,0,0,1,11.415-11.416Z" transform="translate(-983.754 -498.339)" fill="#30466d" fill-rule="evenodd"/>
        <path id="Trazado_1219970" data-name="Trazado 1219970" d="M1864.331,1002.81a7.816,7.816,0,1,1-7.816,7.816,7.82,7.82,0,0,1,7.816-7.816Z" transform="translate(-950.432 -677.046)" fill="#f48d64" fill-rule="evenodd"/>
        <path id="Trazado_1219971" data-name="Trazado 1219971" d="M890.811,1376.24a10.736,10.736,0,1,1-10.736,10.736,10.741,10.741,0,0,1,10.736-10.736Z" transform="translate(-153.421 -981.855)" fill="#d8564a" fill-rule="evenodd"/>
        <path id="Trazado_1219972" data-name="Trazado 1219972" d="M2017.21,1511.86a5.867,5.867,0,1,1-5.867,5.867,5.87,5.87,0,0,1,5.867-5.867Z" transform="translate(-1076.81 -1092.554)" fill="#c46793" fill-rule="evenodd"/>
        <path id="Trazado_1219973" data-name="Trazado 1219973" d="M2072.583,1554.8a4.223,4.223,0,1,1-4.223,4.223,4.225,4.225,0,0,1,4.223-4.223Z" transform="translate(-1123.349 -1127.603)" fill="#fcbc05" fill-rule="evenodd"/>
        <path id="Trazado_1219974" data-name="Trazado 1219974" d="M1490.764,586.047a10.272,10.272,0,1,1-10.272,10.272,10.277,10.277,0,0,1,10.272-10.272Z" transform="translate(-643.506 -336.866)" fill="#fff" fill-rule="evenodd"/>
        <path id="Trazado_1219975" data-name="Trazado 1219975" d="M790.411,566.686s-30.494,22.718.949,20.634S911.991,537.8,934.87,530.743c47.463-14.64,121.213-25.9,123.429-38.2s-26.3-5.6-26.3-5.6" transform="translate(-69.396 -254.486)" fill="none" stroke="#305595" stroke-linecap="round" stroke-linejoin="round" stroke-miterlimit="10" stroke-width="1.5" stroke-dasharray="24.215 13.008 0 0"/>
        <path id="Trazado_1219976" data-name="Trazado 1219976" d="M1424.5,202.639c2.983-3.392,4.01-1.653,9.847-11.693a1.691,1.691,0,1,0-2.923-1.7c-5.838,10.04-3.949,9.346-6.924,13.392Z" transform="translate(-597.803 -12.295)" fill="#f86c5f" fill-rule="evenodd"/>
        <path id="Trazado_1219977" data-name="Trazado 1219977" d="M1783.457,317.342s-2.987-.482-11.453-.983a1.3,1.3,0,0,0-1.363,1.19,1.243,1.243,0,0,0,1.17,1.34c8.467.5,11.646-1.546,11.646-1.546Z" transform="translate(-880.336 -116.733)" fill="#f86c5f" fill-rule="evenodd"/>
        <path id="Trazado_1219978" data-name="Trazado 1219978" d="M2209.18,259.885a87.058,87.058,0,0,0,10.255-5.522,1.245,1.245,0,0,0,.391-1.751,1.331,1.331,0,0,0-1.8-.4,32.236,32.236,0,0,0-8.845,7.674Z" transform="translate(-1238.292 -64.216)" fill="#f86c5f" fill-rule="evenodd"/>
        <path id="Trazado_1219979" data-name="Trazado 1219979" d="M941.516,499.944a46.043,46.043,0,0,1-11.039,3.5,1.32,1.32,0,0,1-1.535-.993,1.234,1.234,0,0,1,.967-1.492,47.019,47.019,0,0,1,11.608-1.014Z" transform="translate(-193.281 -266.55)" fill="#f86c5f" fill-rule="evenodd"/>
        <path id="Trazado_1219980" data-name="Trazado 1219980" d="M1437.29,242.828c1.957-.685,5.152-.623,11.611-4.366a1.517,1.517,0,0,0-1.521-2.626c-6.458,3.743-7.969,6.012-10.09,6.992Z" transform="translate(-608.243 -50.843)" fill="#f86c5f" fill-rule="evenodd"/>
        <path id="Trazado_1219981" data-name="Trazado 1219981" d="M1798.712,286.548c-2.385-1.124-2.661-2.193-7.3-5.2a1.185,1.185,0,0,0-1.615.325,1.12,1.12,0,0,0,.318,1.578c4.641,3.007,6.381,2.521,8.6,3.3Z" transform="translate(-895.811 -88.005)" fill="#f86c5f" fill-rule="evenodd"/>
        <path id="Trazado_1219982" data-name="Trazado 1219982" d="M2211.55,295.561s2.824,1.515,9.325,1.219a1.144,1.144,0,1,0-.111-2.286,45.967,45.967,0,0,0-9.215,1.066Z" transform="translate(-1240.227 -98.887)" fill="#f86c5f" fill-rule="evenodd"/>
        <path id="Trazado_1219983" data-name="Trazado 1219983" d="M967.239,510.869a30.449,30.449,0,0,1-5.949,6.712,1.2,1.2,0,0,1-1.666-.093,1.125,1.125,0,0,1,.091-1.619,31.2,31.2,0,0,1,7.524-5Z" transform="translate(-218.106 -275.502)" fill="#f86c5f" fill-rule="evenodd"/>
        <path id="Trazado_1219984" data-name="Trazado 1219984" d="M1446.97,280.8c1.723.149,5.252,1.546,13.195.84a1.7,1.7,0,0,0-.3-3.392c-7.941.706-10.929,2.525-12.893,2.552Z" transform="translate(-616.144 -85.62)" fill="#f86c5f" fill-rule="evenodd"/>
        <path id="Trazado_1219985" data-name="Trazado 1219985" d="M990.761,519.793a32.426,32.426,0,0,1-2.647,9.452,1.325,1.325,0,0,1-1.731.693,1.307,1.307,0,0,1-.689-1.721,32.593,32.593,0,0,1,5.068-8.424Z" transform="translate(-239.543 -282.787)" fill="#f86c5f" fill-rule="evenodd"/>
        <path id="Trazado_1219986" data-name="Trazado 1219986" d="M2140.344,740.034a.922.922,0,0,0-.922-.921h-14.231a.922.922,0,0,0-.922.921v14.89a.922.922,0,0,0,.922.922h14.231a.922.922,0,0,0,.922-.922v-14.89Z" transform="translate(-1184.724 -421.833)" fill="#5d3067" fill-rule="evenodd"/>
        <path id="Trazado_1219987" data-name="Trazado 1219987" d="M2140.344,841.5a.922.922,0,0,0-.922-.922h-14.231a.922.922,0,0,0-.922.922v14.89a.922.922,0,0,0,.922.921h14.231a.922.922,0,0,0,.922-.921V841.5Z" transform="translate(-1184.724 -498.292)" fill="#5d3067" fill-rule="evenodd"/>
        <path id="Trazado_1219988" data-name="Trazado 1219988" d="M2140.344,946.321a.922.922,0,0,0-.922-.922h-14.231a.922.922,0,0,0-.922.922v14.89a.922.922,0,0,0,.922.922h14.231a.922.922,0,0,0,.922-.922v-14.89Z" transform="translate(-1184.724 -577.278)" fill="#5d3067" fill-rule="evenodd"/>
        <path id="Trazado_1219989" data-name="Trazado 1219989" d="M2145.04,743.239l3.1,5.013s8.89-9.241,19.267-13.382M2145.375,768l3.1,5.013s8.889-9.241,19.266-13.383m-22.514,34.46,3.1,5.013s8.89-9.241,19.266-13.382" transform="translate(-1200.376 -418.636)" fill="none" stroke="#fd9c00" stroke-linecap="round" stroke-linejoin="round" stroke-miterlimit="10" stroke-width="1.5"/>
        <path id="Trazado_1219990" data-name="Trazado 1219990" d="M1710.061,925.927c-.22-3,5.189-5.321,13.047-12.573a6.476,6.476,0,0,0-.29-9.865c-2.453-1.825-5.623-.877-7.92,1.364-6.24,6.089-6.378,19.861-4.837,21.074Z" transform="translate(-830.222 -595.19)" fill="#fb0" fill-rule="evenodd"/>
        <path id="Trazado_1219992" data-name="Trazado 1219992" d="M1160.43,1025.879c1.823-2.955-2.791-7.8-7.442-18.779-2.1-4.956,1.908-9.171,5.517-9.9s6.528,1.689,7.824,5.023c3.521,9.058-3.6,23.132-5.9,23.658Z" transform="translate(-375.711 -672.358)" fill="#5f2f6b" fill-rule="evenodd"/>
        <path id="Trazado_1219993" data-name="Trazado 1219993" d="M983.207,1258.951c-3.278-5.777-10.475-11.7-23.482-14.275-7.265-1.437-11.991-10.824-9.541-14.993s10.044-7.159,14.919-5.642c12.5,3.888,19.891,30.048,18.1,34.91Z" transform="translate(-210.114 -857.297)" fill="#b667ca" fill-rule="evenodd"/>
        <path id="Trazado_1219994" data-name="Trazado 1219994" d="M1029.378,1380.056c-1.969-2.26-7.362-3.762-16.719-1.684-4.6,1.022-7.052-3.108-6.684-6.206s5.1-5.807,8.226-5.954c8.5-.4,15.362,11.848,15.176,13.843Z" transform="translate(-256.156 -973.663)" fill="#fb0" fill-rule="evenodd"/>
        <path id="Trazado_1219995" data-name="Trazado 1219995" d="M1077.17,1444.14c-1.644-.221-4.354,2.438-6.894,6.6-1.359,2.225-4.532,1.177-5.51-.246s-.346-4.39.9-5.593c3.39-3.268,10.849-1.656,11.5-.759Z" transform="translate(-303.783 -1036.3)" fill="#5f2f6b" fill-rule="evenodd"/>
        <path id="Trazado_1219997" data-name="Trazado 1219997" d="M945.414,1022.67c1.774-1.622,5.7.85,13.828,2.531,3.668.759,6.009-2.5,6.023-5.036s-2.031-4.181-4.482-4.613c-6.661-1.175-15.319,5.493-15.369,7.118Z" transform="translate(-206.753 -687.333)" fill="#fb0" fill-rule="evenodd"/>
        <path id="Trazado_1219998" data-name="Trazado 1219998" d="M1830.447,1397.388c1.307-4.487,10.322-4.338,25.515-9.743,6.856-2.439,7.445-10.226,4.911-14.451s-7.6-4.9-12.1-3.148c-12.245,4.768-19.88,24.589-18.322,27.342Z" transform="translate(-928.991 -976.063)" fill="#5f2f6b" fill-rule="evenodd"/>
        <path id="Trazado_1220003" data-name="Trazado 1220003" d="M1834.03,1510.946c1.588-1.016,4.416,1.321,10.659,3.56a4.04,4.04,0,0,0,5.339-3.092c.3-1.914-1.133-3.4-3.026-4.023-5.139-1.682-12.748,2.331-12.972,3.555Z" transform="translate(-932.079 -1088.575)" fill="#fb0" fill-rule="evenodd"/>
        <path id="Trazado_1220008" data-name="Trazado 1220008" d="M1260.107,1082.6s-1.274,13.216,3.885,15.013,5.444-9.244,5.444-9.244l.126-4.148a14.422,14.422,0,0,1,3.381-.483m4.084-6.49s-2.336.31-2.952,1.468c0,0-3.883,14.85-.508,28.286m-1.728-30.506s-2.667-3.827-.536-6.227a26.359,26.359,0,0,0,3.6-4.792c.762-1.3,2.648-3.422,4.811-1.423,0,0,1.126,1.462.268,4.119m-70.748,50.358s12.033-28.776,31.489-37.191m8.434-1.7s7.632.466,10.734,2.8m-17.413,6.545a92.854,92.854,0,0,1,6.8,27.261m.62-34.8s4.466,10.268,6.315,32.895m.741-16.954s-.632,7.905,4.124,6.724c0,0,3.1-1.077,4.174-6.033m21.39-7.6s7.658,13.835,9.372,29.159m-.706-30.267s11.984,7.729,18.038,30.66" transform="translate(-422.091 -726.362)" fill="none" stroke="#000" stroke-linecap="round" stroke-linejoin="round" stroke-miterlimit="10" stroke-width="1.5"/>
        <path id="Trazado_1220009" data-name="Trazado 1220009" d="M1466.657,1514.8a5.214,5.214,0,1,1-5.214,5.214,5.217,5.217,0,0,1,5.214-5.214Z" transform="translate(-627.958 -1094.954)" fill="#fff" fill-rule="evenodd"/>
      </g>
    </g>
  </g>
</svg>
