<svg xmlns="http://www.w3.org/2000/svg" xmlns:xlink="http://www.w3.org/1999/xlink" width="108" height="108" viewBox="0 0 108 108">
  <defs>
    <filter id="Trazado_904820" x="0" y="0" width="108" height="108" filterUnits="userSpaceOnUse">
      <feOffset dy="3" input="SourceAlpha"/>
      <feGaussianBlur stdDeviation="3" result="blur"/>
      <feFlood flood-opacity="0.161"/>
      <feComposite operator="in" in2="blur"/>
      <feComposite in="SourceGraphic"/>
    </filter>
  </defs>
  <g id="Grupo_1242131" data-name="Grupo 1242131" transform="translate(-619.809 -3810)">
    <g id="Grupo_1241248" data-name="Grupo 1241248" transform="translate(628.809 3816)">
      <g id="Grupo_1225969" data-name="Grupo 1225969" transform="translate(0 0)">
        <g id="Grupo_1223550" data-name="Grupo 1223550">
          <g id="Grupo_1223164" data-name="Grupo 1223164">
            <g id="Grupo_1203639" data-name="Grupo 1203639">
              <g id="Grupo_1202437" data-name="Grupo 1202437">
                <g id="Grupo_1177315" data-name="Grupo 1177315">
                  <g id="Grupo_1173585" data-name="Grupo 1173585">
                    <g id="Grupo_1173428" data-name="Grupo 1173428">
                      <g id="Grupo_1171958" data-name="Grupo 1171958">
                        <g id="Grupo_1167341" data-name="Grupo 1167341">
                          <g id="Grupo_1166792" data-name="Grupo 1166792">
                            <g transform="matrix(1, 0, 0, 1, -9, -6)" filter="url(#Trazado_904820)">
                              <g id="Trazado_904820-2" data-name="Trazado 904820" transform="translate(9 6)" fill="#effbfe">
                                <path d="M 44.99999618530273 88.49999237060547 C 39.12687301635742 88.49999237060547 33.43022155761719 87.35006713867188 28.06829643249512 85.08216857910156 C 22.88852119445801 82.89130401611328 18.23629570007324 79.75457763671875 14.24084663391113 75.75914001464844 C 10.24540901184082 71.76369476318359 7.108683586120605 67.11146545410156 4.917821407318115 61.93169403076172 C 2.649921178817749 56.56976699829102 1.499996185302734 50.87311553955078 1.499996185302734 44.99999237060547 C 1.499996185302734 39.12686920166016 2.649921178817749 33.43021774291992 4.917821407318115 28.06829261779785 C 7.108683586120605 22.88851737976074 10.24540901184082 18.23630523681641 14.24084663391113 14.24085521697998 C 18.23629570007324 10.24540519714355 22.88852119445801 7.108692169189453 28.06829643249512 4.917829990386963 C 33.43022155761719 2.649929761886597 39.12687301635742 1.500004887580872 44.99999618530273 1.500004887580872 C 50.87311935424805 1.500004887580872 56.56977081298828 2.649929761886597 61.93169784545898 4.917829990386963 C 67.11147308349609 7.108692169189453 71.76369476318359 10.24540519714355 75.75914764404297 14.24085521697998 C 79.75458526611328 18.23630523681641 82.89131164550781 22.88851737976074 85.08216857910156 28.06829261779785 C 87.35007476806641 33.43021774291992 88.5 39.12686920166016 88.5 44.99999237060547 C 88.5 50.87311553955078 87.35007476806641 56.56976699829102 85.08216857910156 61.93169403076172 C 82.89131164550781 67.11146545410156 79.75458526611328 71.76369476318359 75.75914764404297 75.75914001464844 C 71.76369476318359 79.75457763671875 67.11147308349609 82.89130401611328 61.93169784545898 85.08216857910156 C 56.56977081298828 87.35006713867188 50.87311935424805 88.49999237060547 44.99999618530273 88.49999237060547 Z" stroke="none"/>
                                <path d="M 44.99999618530273 2.999992370605469 C 39.32870864868164 2.999992370605469 33.82865142822266 4.11004638671875 28.65262603759766 6.299331665039062 C 23.65165710449219 8.414566040039062 19.15968322753906 11.44333648681641 15.301513671875 15.30150604248047 C 11.44333648681641 19.15967559814453 8.414566040039062 23.65164947509766 6.299339294433594 28.65262222290039 C 4.110054016113281 33.82864761352539 2.999992370605469 39.32870483398438 2.999992370605469 44.99999237060547 C 2.999992370605469 50.67127990722656 4.110054016113281 56.17132186889648 6.299339294433594 61.34736633300781 C 8.414566040039062 66.34833526611328 11.44333648681641 70.84029388427734 15.301513671875 74.69846343994141 C 19.15968322753906 78.55663299560547 23.65165710449219 81.58540344238281 28.65262603759766 83.70063781738281 C 33.82865142822266 85.88992309570312 39.32870864868164 86.99997711181641 44.99999618530273 86.99997711181641 C 50.67128372192383 86.99997711181641 56.17134094238281 85.88992309570312 61.34736633300781 83.70063781738281 C 66.34834289550781 81.58540344238281 70.84030914306641 78.55663299560547 74.69847869873047 74.69846343994141 C 78.55665588378906 70.84029388427734 81.58542633056641 66.34833526611328 83.70065307617188 61.34736633300781 C 85.88993835449219 56.17132186889648 87 50.67127990722656 87 44.99999237060547 C 87 39.32870483398438 85.88993835449219 33.82864761352539 83.70065307617188 28.65262222290039 C 81.58542633056641 23.65164947509766 78.55665588378906 19.15967559814453 74.69847869873047 15.30150604248047 C 70.84030914306641 11.44333648681641 66.34834289550781 8.414566040039062 61.34736633300781 6.299331665039062 C 56.17134094238281 4.11004638671875 50.67128372192383 2.999992370605469 44.99999618530273 2.999992370605469 M 44.99999618530273 -7.62939453125e-06 C 69.85281372070312 -7.62939453125e-06 90 20.14717864990234 90 44.99999237060547 C 90 69.85279083251953 69.85281372070312 89.99997711181641 44.99999618530273 89.99997711181641 C 20.14717864990234 89.99997711181641 -7.62939453125e-06 69.85279083251953 -7.62939453125e-06 44.99999237060547 C -7.62939453125e-06 20.14717864990234 20.14717864990234 -7.62939453125e-06 44.99999618530273 -7.62939453125e-06 Z" stroke="none" fill="#497f88"/>
                              </g>
                            </g>
                          </g>
                        </g>
                      </g>
                    </g>
                  </g>
                </g>
              </g>
            </g>
          </g>
        </g>
      </g>
    </g>
    <g id="estudiante_5_" data-name="estudiante (5)" transform="translate(645.154 3830.542)">
      <g id="Grupo_1242129" data-name="Grupo 1242129" transform="translate(0.778 2.868)">
        <g id="Grupo_1242114" data-name="Grupo 1242114" transform="translate(12.691 21.791)">
          <g id="Grupo_1242107" data-name="Grupo 1242107">
            <path id="Trazado_1220940" data-name="Trazado 1220940" d="M124.634,259.356a2.862,2.862,0,0,1-2.891,0,2.881,2.881,0,0,0-.389.275,12.011,12.011,0,0,1-.947,1.514,7.519,7.519,0,0,0-.084,1.913,2.866,2.866,0,0,0,5.732,0V261.83A2.864,2.864,0,0,0,124.634,259.356Z" transform="translate(-120.321 -253.182)" fill="#57697d"/>
            <path id="Trazado_1220941" data-name="Trazado 1220941" d="M124.634,204.2a2.862,2.862,0,0,1-2.891,0,2.881,2.881,0,0,0-.389.275,12.009,12.009,0,0,1-.947,1.514,7.519,7.519,0,0,0-.084,1.913,2.866,2.866,0,0,0,5.732,0v-1.228A2.864,2.864,0,0,0,124.634,204.2Z" transform="translate(-120.321 -204.201)" fill="#57697d"/>
            <path id="Trazado_1220942" data-name="Trazado 1220942" d="M126.059,318.238V317.01a2.864,2.864,0,0,0-1.421-2.474,2.868,2.868,0,0,1-2.891,0,2.875,2.875,0,0,0-1.421,2.507c0,.142,0,1.184,0,1.215a2.866,2.866,0,0,0,5.731-.02Z" transform="translate(-120.325 -302.186)" fill="#57697d"/>
            <path id="Trazado_1220943" data-name="Trazado 1220943" d="M124.634,259.356a2.862,2.862,0,0,1-2.891,0,2.881,2.881,0,0,0-.389.275,12.011,12.011,0,0,1-.947,1.514,7.519,7.519,0,0,0-.084,1.913,2.866,2.866,0,0,0,5.732,0V261.83A2.864,2.864,0,0,0,124.634,259.356Z" transform="translate(-120.321 -253.182)" fill="#57697d"/>
            <path id="Trazado_1220944" data-name="Trazado 1220944" d="M124.634,204.2a2.862,2.862,0,0,1-2.891,0,2.881,2.881,0,0,0-.389.275,12.009,12.009,0,0,1-.947,1.514,7.519,7.519,0,0,0-.084,1.913,2.866,2.866,0,0,0,5.732,0v-1.228A2.864,2.864,0,0,0,124.634,204.2Z" transform="translate(-120.321 -204.201)" fill="#57697d"/>
            <path id="Trazado_1220945" data-name="Trazado 1220945" d="M126.059,318.238V317.01a2.864,2.864,0,0,0-1.421-2.474,2.868,2.868,0,0,1-2.891,0,2.875,2.875,0,0,0-1.421,2.507c0,.142,0,1.184,0,1.215a2.866,2.866,0,0,0,5.731-.02Z" transform="translate(-120.325 -302.186)" fill="#57697d"/>
            <path id="Trazado_1220946" data-name="Trazado 1220946" d="M124.264,263.058V261.83a2.879,2.879,0,0,0-.9-2.088,2.86,2.86,0,0,1-1.615-.386,2.872,2.872,0,0,0-.389.275,12.011,12.011,0,0,1-.947,1.514,7.518,7.518,0,0,0-.084,1.913,2.866,2.866,0,0,0,1.933,2.71A2.8,2.8,0,0,0,124.264,263.058Z" transform="translate(-120.322 -253.182)" fill="#57697d"/>
            <path id="Trazado_1220947" data-name="Trazado 1220947" d="M123.362,204.59l0,0a2.859,2.859,0,0,1-1.615-.386,2.869,2.869,0,0,0-.389.275,12.009,12.009,0,0,1-.947,1.514,7.519,7.519,0,0,0-.084,1.913,2.866,2.866,0,0,0,1.964,2.72,2.854,2.854,0,0,0,1.977-2.72v-1.228A2.854,2.854,0,0,0,123.362,204.59Z" transform="translate(-120.322 -204.2)" fill="#57697d"/>
            <path id="Trazado_1220948" data-name="Trazado 1220948" d="M122.41,320.92a2.869,2.869,0,0,0,1.858-2.683c0-1.224.157-2.315-.9-3.313l0,0a2.862,2.862,0,0,1-1.614-.385,2.876,2.876,0,0,0-1.421,2.507c0,.143,0,1.184,0,1.215a2.867,2.867,0,0,0,1.984,2.708Z" transform="translate(-120.325 -302.185)" fill="#57697d"/>
          </g>
          <g id="Grupo_1242109" data-name="Grupo 1242109" transform="translate(1.86 0)">
            <g id="Grupo_1242108" data-name="Grupo 1242108">
              <path id="Trazado_1220949" data-name="Trazado 1220949" d="M139.394,204.2a2.858,2.858,0,0,1-1.5.39c1.059,1,.9,2.093.9,3.312a2.866,2.866,0,0,1-1.858,2.683,2.868,2.868,0,0,0,3.873-2.683v-1.228A2.863,2.863,0,0,0,139.394,204.2Z" transform="translate(-136.941 -204.201)" fill="#3d5168"/>
            </g>
          </g>
          <g id="Grupo_1242111" data-name="Grupo 1242111" transform="translate(1.86 6.174)">
            <g id="Grupo_1242110" data-name="Grupo 1242110">
              <path id="Trazado_1220950" data-name="Trazado 1220950" d="M139.394,259.356a2.859,2.859,0,0,1-1.5.39c1.059,1,.9,2.093.9,3.312a2.866,2.866,0,0,1-1.858,2.683,2.868,2.868,0,0,0,3.873-2.683V261.83A2.863,2.863,0,0,0,139.394,259.356Z" transform="translate(-136.941 -259.356)" fill="#3d5168"/>
            </g>
          </g>
          <g id="Grupo_1242113" data-name="Grupo 1242113" transform="translate(1.861 12.35)">
            <g id="Grupo_1242112" data-name="Grupo 1242112">
              <path id="Trazado_1220951" data-name="Trazado 1220951" d="M139.4,314.535a2.86,2.86,0,0,1-1.5.389c1.047.985.9,2.053.9,3.313a2.869,2.869,0,0,1-1.858,2.683,2.868,2.868,0,0,0,3.873-2.683v-1.228A2.864,2.864,0,0,0,139.4,314.535Z" transform="translate(-136.944 -314.535)" fill="#3d5168"/>
            </g>
          </g>
        </g>
        <g id="Grupo_1242122" data-name="Grupo 1242122" transform="translate(37.398 21.791)">
          <g id="Grupo_1242115" data-name="Grupo 1242115">
            <path id="Trazado_1220952" data-name="Trazado 1220952" d="M345.368,259.356a2.862,2.862,0,0,1-2.891,0,2.881,2.881,0,0,0-.389.275,12.016,12.016,0,0,1-.947,1.514,7.516,7.516,0,0,0-.084,1.913,2.866,2.866,0,0,0,5.732,0V261.83A2.864,2.864,0,0,0,345.368,259.356Z" transform="translate(-341.055 -253.182)" fill="#57697d"/>
            <path id="Trazado_1220953" data-name="Trazado 1220953" d="M345.368,204.2a2.862,2.862,0,0,1-2.891,0,2.881,2.881,0,0,0-.389.275,12.014,12.014,0,0,1-.947,1.514,7.516,7.516,0,0,0-.084,1.913,2.866,2.866,0,0,0,5.732,0v-1.228A2.864,2.864,0,0,0,345.368,204.2Z" transform="translate(-341.055 -204.201)" fill="#57697d"/>
            <path id="Trazado_1220954" data-name="Trazado 1220954" d="M346.793,318.238V317.01a2.864,2.864,0,0,0-1.421-2.474,2.868,2.868,0,0,1-2.891,0,2.875,2.875,0,0,0-1.421,2.507c0,.142,0,1.184,0,1.215a2.866,2.866,0,0,0,5.731-.02Z" transform="translate(-341.059 -302.186)" fill="#57697d"/>
            <path id="Trazado_1220955" data-name="Trazado 1220955" d="M345.368,259.356a2.862,2.862,0,0,1-2.891,0,2.881,2.881,0,0,0-.389.275,12.016,12.016,0,0,1-.947,1.514,7.516,7.516,0,0,0-.084,1.913,2.866,2.866,0,0,0,5.732,0V261.83A2.864,2.864,0,0,0,345.368,259.356Z" transform="translate(-341.055 -253.182)" fill="#57697d"/>
            <path id="Trazado_1220956" data-name="Trazado 1220956" d="M345.368,204.2a2.862,2.862,0,0,1-2.891,0,2.881,2.881,0,0,0-.389.275,12.014,12.014,0,0,1-.947,1.514,7.516,7.516,0,0,0-.084,1.913,2.866,2.866,0,0,0,5.732,0v-1.228A2.864,2.864,0,0,0,345.368,204.2Z" transform="translate(-341.055 -204.201)" fill="#57697d"/>
            <path id="Trazado_1220957" data-name="Trazado 1220957" d="M346.793,318.238V317.01a2.864,2.864,0,0,0-1.421-2.474,2.868,2.868,0,0,1-2.891,0,2.875,2.875,0,0,0-1.421,2.507c0,.142,0,1.184,0,1.215a2.866,2.866,0,0,0,5.731-.02Z" transform="translate(-341.059 -302.186)" fill="#57697d"/>
            <path id="Trazado_1220958" data-name="Trazado 1220958" d="M345,263.058V261.83a2.879,2.879,0,0,0-.9-2.088,2.86,2.86,0,0,1-1.615-.386,2.871,2.871,0,0,0-.389.275,12.009,12.009,0,0,1-.947,1.514,7.518,7.518,0,0,0-.084,1.913,2.866,2.866,0,0,0,1.933,2.71A2.8,2.8,0,0,0,345,263.058Z" transform="translate(-341.056 -253.182)" fill="#57697d"/>
            <path id="Trazado_1220959" data-name="Trazado 1220959" d="M344.1,204.59l0,0a2.859,2.859,0,0,1-1.615-.386,2.871,2.871,0,0,0-.389.275,12.007,12.007,0,0,1-.947,1.514,7.518,7.518,0,0,0-.084,1.913,2.074,2.074,0,1,0,3.941,0v-1.228A2.855,2.855,0,0,0,344.1,204.59Z" transform="translate(-341.057 -204.2)" fill="#57697d"/>
            <path id="Trazado_1220960" data-name="Trazado 1220960" d="M343.144,320.92A2.869,2.869,0,0,0,345,318.237c0-1.618.122-2.182-.906-3.317a2.862,2.862,0,0,1-1.614-.385,2.876,2.876,0,0,0-1.421,2.507c0,.143,0,1.184,0,1.215a2.867,2.867,0,0,0,1.984,2.708Z" transform="translate(-341.059 -302.185)" fill="#57697d"/>
          </g>
          <g id="Grupo_1242117" data-name="Grupo 1242117" transform="translate(1.86 0)">
            <g id="Grupo_1242116" data-name="Grupo 1242116">
              <path id="Trazado_1220961" data-name="Trazado 1220961" d="M360.128,204.2a2.858,2.858,0,0,1-1.5.39,2.854,2.854,0,0,1,.9,2.084V207.9a2.866,2.866,0,0,1-1.858,2.683,2.868,2.868,0,0,0,3.873-2.683v-1.228A2.863,2.863,0,0,0,360.128,204.2Z" transform="translate(-357.675 -204.201)" fill="#3d5168"/>
            </g>
          </g>
          <g id="Grupo_1242119" data-name="Grupo 1242119" transform="translate(1.86 6.174)">
            <g id="Grupo_1242118" data-name="Grupo 1242118">
              <path id="Trazado_1220962" data-name="Trazado 1220962" d="M360.128,259.356a2.859,2.859,0,0,1-1.5.39c1.059,1,.9,2.093.9,3.312a2.866,2.866,0,0,1-1.858,2.683,2.868,2.868,0,0,0,3.873-2.683V261.83A2.863,2.863,0,0,0,360.128,259.356Z" transform="translate(-357.675 -259.356)" fill="#3d5168"/>
            </g>
          </g>
          <g id="Grupo_1242121" data-name="Grupo 1242121" transform="translate(1.861 12.35)">
            <g id="Grupo_1242120" data-name="Grupo 1242120">
              <path id="Trazado_1220963" data-name="Trazado 1220963" d="M360.13,314.535a2.86,2.86,0,0,1-1.5.389c1.047.985.9,2.053.9,3.313a2.869,2.869,0,0,1-1.858,2.683,2.868,2.868,0,0,0,3.873-2.683v-1.228A2.864,2.864,0,0,0,360.13,314.535Z" transform="translate(-357.678 -314.535)" fill="#3d5168"/>
            </g>
          </g>
        </g>
        <path id="Trazado_1220964" data-name="Trazado 1220964" d="M136.471,348.02h-2.19l-4.318,5.3v3.712h-8.635v-3.712l-4.318-5.3h-2.19a5.533,5.533,0,0,0-5.535,5.613v8.807h32.72v-8.885A5.535,5.535,0,0,0,136.471,348.02Z" transform="translate(-97.831 -310.13)" fill="#eaf6ff"/>
        <path id="Trazado_1220965" data-name="Trazado 1220965" d="M136.471,348.02h-2.19l-4.318,5.3v3.712h-8.635v-3.712l-4.318-5.3h-2.19a5.533,5.533,0,0,0-5.535,5.613v8.807h32.72v-8.885A5.535,5.535,0,0,0,136.471,348.02Z" transform="translate(-97.831 -310.13)" fill="#eaf6ff"/>
        <g id="Grupo_1242123" data-name="Grupo 1242123" transform="translate(36.445 37.89)">
          <path id="Trazado_1220966" data-name="Trazado 1220966" d="M334.735,348.02h-2.19l-.006.007a5.535,5.535,0,0,1,5.268,5.529v8.885h2.463v-8.885A5.535,5.535,0,0,0,334.735,348.02Z" transform="translate(-332.54 -348.02)" fill="#d8ecfe"/>
        </g>
        <path id="Trazado_1220967" data-name="Trazado 1220967" d="M210.562,287.447v4.012l4.562,6.665a.56.56,0,0,0,.924,0l4.562-6.665v-4.012Z" transform="translate(-187.77 -256.337)" fill="#ffa78f"/>
        <path id="Trazado_1220968" data-name="Trazado 1220968" d="M115.145,162.606H112.8a4.071,4.071,0,0,0-1.8,3.382v.025a4.077,4.077,0,0,0,4.236,4.075h2.54v-7.483Z" transform="translate(-99.354 -145.47)" fill="#ffb09e"/>
        <path id="Trazado_1220969" data-name="Trazado 1220969" d="M338.747,162.606h-5.6v7.483h3.135a4.083,4.083,0,0,0,4.269-4.075v-.025A4.072,4.072,0,0,0,338.747,162.606Z" transform="translate(-296.631 -145.47)" fill="#f89580"/>
        <path id="Trazado_1220970" data-name="Trazado 1220970" d="M169.685,86.067H147.459v8.567h0c-.086.821-.066.879-.066,5.52,0,6.844,5.728,11.951,11.4,11.951a12,12,0,0,0,10.895-11.951C169.685,99.53,169.685,86.671,169.685,86.067Z" transform="translate(-131.667 -77.499)" fill="#ffcebf"/>
        <path id="Trazado_1220971" data-name="Trazado 1220971" d="M186.477,329.959l-4.562-6.665-3.611,2.768,4.317,5.3v9.116h8.635v-9.116l4.318-5.3-3.611-2.768-4.562,6.665A.56.56,0,0,1,186.477,329.959Z" transform="translate(-159.123 -288.172)" fill="#d8ecfe"/>
        <path id="Trazado_1220972" data-name="Trazado 1220972" d="M280.481,403.773v-8.058a1.12,1.12,0,0,0-1.091-1.119c-4.476-.116-21.321-.119-23.943,6.3v2.875Z" transform="translate(-227.631 -351.47)" fill="#fff3be"/>
        <path id="Trazado_1220973" data-name="Trazado 1220973" d="M280.387,456.858H255.446v-5.749h24.941a2.874,2.874,0,0,1,2.874,2.875h0A2.874,2.874,0,0,1,280.387,456.858Z" transform="translate(-227.63 -401.68)" fill="#fd8087"/>
        <path id="Trazado_1220974" data-name="Trazado 1220974" d="M256.141,109.713v11.441a12,12,0,0,1-10.9,11.951,12,12,0,0,0,13.135-11.951V109.713Z" transform="translate(-218.571 -98.498)" fill="#ffb09e"/>
        <path id="Trazado_1220975" data-name="Trazado 1220975" d="M140.622,10c-6.455,0-13.527,5.885-13.527,14.248v2.835h7.055a7.312,7.312,0,0,0,7.312-7.312,7.312,7.312,0,0,0,7.312,7.312h4.973V24.245A14.292,14.292,0,0,0,140.622,10Z" transform="translate(-113.646 -9.944)" fill="#57697d"/>
        <g id="Grupo_1242125" data-name="Grupo 1242125" transform="translate(26.528 0)">
          <g id="Grupo_1242124" data-name="Grupo 1242124">
            <path id="Trazado_1220976" data-name="Trazado 1220976" d="M243.942,9.573A14.292,14.292,0,0,1,257.067,23.82v2.835h2.463V23.82A14.308,14.308,0,0,0,243.942,9.573Z" transform="translate(-243.942 -9.519)" fill="#3d5168"/>
          </g>
        </g>
        <g id="Grupo_1242127" data-name="Grupo 1242127" transform="translate(29.671 35.122)">
          <g id="Grupo_1242126" data-name="Grupo 1242126">
            <path id="Trazado_1220977" data-name="Trazado 1220977" d="M275.187,323.293l-.847,1.238,2,1.53-4.318,5.3v9.116h2.463v-9.116l4.318-5.3Z" transform="translate(-272.018 -323.293)" fill="#c4e2ff"/>
          </g>
        </g>
        <path id="Trazado_1220978" data-name="Trazado 1220978" d="M100.477,259.388c-3.294-12.294-3.016-11.548-3.356-11.828l-.932.25a.966.966,0,0,0-.683,1.184l2.932,10.941Z" transform="translate(-85.564 -220.915)" fill="#5de1c4"/>
        <path id="Trazado_1220979" data-name="Trazado 1220979" d="M110.447,258.142l1.909-.512L109.319,246.3a.966.966,0,0,0-1.184-.683l-1.052.282c.23.251-.016-.483,3.257,11.734Z" transform="translate(-95.875 -219.157)" fill="#0ed2b3"/>
        <path id="Trazado_1220980" data-name="Trazado 1220980" d="M97.707,322.111V317.12a2.239,2.239,0,0,0-2.239-2.239h-3.2a2.239,2.239,0,0,0-2.239,2.239v4.992a2.239,2.239,0,0,0,2.239,2.239h3.2A2.239,2.239,0,0,0,97.707,322.111Z" transform="translate(-80.729 -280.701)" fill="#ffcebf"/>
        <path id="Trazado_1220981" data-name="Trazado 1220981" d="M136.864,314.881h-2.239a2.239,2.239,0,0,1,2.239,2.239v4.992a2.239,2.239,0,0,1-2.239,2.239h2.239a2.239,2.239,0,0,0,2.239-2.239V317.12A2.239,2.239,0,0,0,136.864,314.881Z" transform="translate(-120.333 -280.701)" fill="#ffb09e"/>
        <path id="Trazado_1220982" data-name="Trazado 1220982" d="M277.151,394.6c-1.019-.027-1.359-.024.292-.026-6.145-.01-19.67.63-22,6.328v2.875h22.8v-8.058A1.12,1.12,0,0,0,277.151,394.6Z" transform="translate(-227.631 -351.471)" fill="#ffe177"/>
        <path id="Trazado_1220983" data-name="Trazado 1220983" d="M443.05,394.521c-.7-.018-5.145-.07-2.463,0a1.12,1.12,0,0,1,1.091,1.119V403.7h2.463V395.64A1.12,1.12,0,0,0,443.05,394.521Z" transform="translate(-391.291 -351.395)" fill="#ffd15b"/>
        <path id="Trazado_1220984" data-name="Trazado 1220984" d="M278.148,456.858a2.875,2.875,0,0,0,0-5.749h-22.7v5.749h22.7Z" transform="translate(-227.63 -401.68)" fill="#fe646f"/>
        <path id="Trazado_1220985" data-name="Trazado 1220985" d="M458.729,451.109h-2.463a2.875,2.875,0,0,1,0,5.749h2.463a2.874,2.874,0,0,0,2.874-2.875h0A2.874,2.874,0,0,0,458.729,451.109Z" transform="translate(-405.972 -401.68)" fill="#fd4755"/>
        <path id="Trazado_1220986" data-name="Trazado 1220986" d="M31.795,403.83v-8.058a1.12,1.12,0,0,1,1.091-1.119c4.476-.116,21.321-.119,23.943,6.3v2.875Z" transform="translate(-29.014 -351.52)" fill="#fff0ad"/>
        <path id="Trazado_1220987" data-name="Trazado 1220987" d="M34.762,456.858H9.82a2.874,2.874,0,0,1-2.874-2.875h0a2.874,2.874,0,0,1,2.874-2.875H34.762Z" transform="translate(-6.946 -401.68)" fill="#fd8087"/>
        <g id="Grupo_1242128" data-name="Grupo 1242128" transform="translate(19.181 26.952)">
          <path id="Trazado_1220988" data-name="Trazado 1220988" d="M307.325,252.034h1.022a.889.889,0,0,0,.9-.838.865.865,0,0,0-.864-.891h-1.058a.865.865,0,0,0,0,1.73Z" transform="translate(-292.115 -250.304)" fill="#fe8f83"/>
          <path id="Trazado_1220989" data-name="Trazado 1220989" d="M180.227,252.034H179.2a.889.889,0,0,1-.9-.838.865.865,0,0,1,.864-.891h1.058a.865.865,0,0,1,0,1.73Z" transform="translate(-178.303 -250.304)" fill="#fe8f83"/>
        </g>
      </g>
      <g id="Grupo_1242130" data-name="Grupo 1242130" transform="translate(0 2.03)">
        <path id="Trazado_1220990" data-name="Trazado 1220990" d="M228.581,261.331a3.4,3.4,0,0,0,3.4-3.4.84.84,0,0,0-1.679,0,1.719,1.719,0,1,1-3.437,0,.84.84,0,0,0-1.679,0A3.4,3.4,0,0,0,228.581,261.331Z" transform="translate(-199.977 -228.544)"/>
        <path id="Trazado_1220991" data-name="Trazado 1220991" d="M301.4,216.866a.84.84,0,0,0,.84-.84v-1.378h.069a.84.84,0,0,0,0-1.679H301.4a.84.84,0,0,0-.839.839v2.218A.839.839,0,0,0,301.4,216.866Z" transform="translate(-266.917 -189.358)"/>
        <path id="Trazado_1220992" data-name="Trazado 1220992" d="M188.236,214.648h.069v1.378a.84.84,0,0,0,1.679,0v-2.218a.84.84,0,0,0-.84-.839h-.908a.84.84,0,1,0,0,1.679Z" transform="translate(-166.42 -189.358)"/>
        <path id="Trazado_1220993" data-name="Trazado 1220993" d="M54.529,51.576V47.114a1.949,1.949,0,0,0-1.909-1.958c-1.3-.034-3.861-.062-6.851.106A6.319,6.319,0,0,0,44.449,42.3a3.677,3.677,0,0,0,.361-1.592V39.484a3.716,3.716,0,0,0-.951-2.473,3.69,3.69,0,0,0,.951-2.475V33.308a3.717,3.717,0,0,0-.951-2.473,3.688,3.688,0,0,0,.951-2.476,8.053,8.053,0,0,0-.108-2.116,4.99,4.99,0,0,0,.893-2.832v-.025a4.908,4.908,0,0,0-1.8-3.8V17.169A15.188,15.188,0,0,0,18.256,6.1.84.84,0,1,0,19.4,7.331a13.509,13.509,0,0,1,22.714,9.838v2H35.967a6.479,6.479,0,0,1-6.472-6.472.84.84,0,1,0-1.679,0,6.479,6.479,0,0,1-6.472,6.472H15.128v-2a13.433,13.433,0,0,1,1.953-6.987.84.84,0,0,0-1.434-.873,15.112,15.112,0,0,0-2.2,7.86v2.417a4.908,4.908,0,0,0-1.8,3.8v.025a4.958,4.958,0,0,0,1.1,3.1,6.091,6.091,0,0,0-.056,1.15c0,.365,0,.651.01.9l-1.452.389a1.808,1.808,0,0,0-1.277,2.212l1.4,5.216A3.083,3.083,0,0,0,9.3,39.288V44.28a3.05,3.05,0,0,0,.136.9c-2.063-.063-3.766-.041-4.745-.015a1.949,1.949,0,0,0-1.909,1.958v4.456a3.714,3.714,0,0,0,.933,7.309H46.1a.84.84,0,0,0,0-1.679h-16.6v-4.07H53.6a2.035,2.035,0,0,1,0,4.07H50.014a.84.84,0,0,0,0,1.679H53.6a3.714,3.714,0,0,0,.933-7.31ZM33.812,47.31v-.949L37.689,41.6c1.872,0,3.545-.209,5.131,1.4a4.543,4.543,0,0,1,1.265,2.38A41.3,41.3,0,0,0,33.812,47.31Zm-4.317,2.422c0-6.8,0,2.658,0-4.142L33.872,39.2l2.222,1.7-3.772,4.634a.84.84,0,0,0-.188.53v1.944a11.032,11.032,0,0,0-2.638,1.726Zm-4.317-1.719v-1.95a.84.84,0,0,0-.188-.53L21.217,40.9l2.222-1.7,4.377,6.394c0,.374,0,3.774,0,4.149a11.055,11.055,0,0,0-2.638-1.726Zm-7.808-11.8h-.555L15.686,32a3.779,3.779,0,0,0,1.738-.078,12.85,12.85,0,0,0,1,1.486c0,.1,0,.064,0,1.131a2.02,2.02,0,0,1-.891,1.678c-.054,0-.108,0-.162,0Zm-2.23-6.261a1.9,1.9,0,0,0-.723-1.15,4.846,4.846,0,0,1-.049-.988,5.014,5.014,0,0,0,1.652.477,12.719,12.719,0,0,0,.645,2.081,2.035,2.035,0,0,1-1.526-.419Zm4.911,5.192A12.711,12.711,0,0,0,22.792,37v.578l-2.344,1.8a3.079,3.079,0,0,0-1.174-2.5A3.686,3.686,0,0,0,20.051,35.14Zm8.6,3.225a12.788,12.788,0,0,0,4.181-.7l.013,0v.068l-4.185,6.113-4.185-6.113V37.7a13.314,13.314,0,0,0,4.175.668Zm13.819-.383a2.035,2.035,0,0,1,.667,1.5,10.587,10.587,0,0,1-.027,1.557,6.639,6.639,0,0,0-4.026-1.128v-.429a2.035,2.035,0,0,1,.667-1.5A3.716,3.716,0,0,0,42.465,37.983Zm.667-3.447a2.026,2.026,0,1,1-4.053,0,12.645,12.645,0,0,1,.028-1.563,12.909,12.909,0,0,0,.723-1.135,3.721,3.721,0,0,0,2.635-.032,2.035,2.035,0,0,1,.667,1.5Zm-1.089-4.383a2.006,2.006,0,0,1-1.481.158l0-.013a12.618,12.618,0,0,0,.612-1.974l.009-.036a5,5,0,0,0,1.944-.614A2.334,2.334,0,0,1,42.043,30.152Zm-4.625,4.741a3.692,3.692,0,0,0,.933,2.118,3.716,3.716,0,0,0-.951,2.473v.3l-2.882-2.209v-.634a12.908,12.908,0,0,0,2.9-2.049Zm-16.97,9.386V42.613l3.05,3.747v.951a27.24,27.24,0,0,0-3.774-1.052A3.074,3.074,0,0,0,20.448,44.279ZM42.683,20.843a3.233,3.233,0,0,1,1.235,2.543v.025a3.214,3.214,0,0,1-2.469,3.123c.026-.333.04-.727.04-1.01,0-4.553,0-4.39-.008-4.68h1.2Zm-14.027-4.55a8.161,8.161,0,0,0,7.312,4.55H39.8c.014.338.01.034.01,4.68a11.2,11.2,0,0,1-22.407,0c0-3.074-.009-4.1.01-4.68h3.933a8.161,8.161,0,0,0,7.312-4.55ZM13.326,23.386a3.233,3.233,0,0,1,1.235-2.543h1.17c-.011.45-.011,1.147-.009,2.549,0,1.932-.015,2.423.041,3.139a3.208,3.208,0,0,1-2.435-3.12Zm-1.644,7.188,1.635-.438a.128.128,0,0,1,.122.032.29.29,0,0,1,.044.1l1.593,5.945H13.061l-1.468-5.48a.127.127,0,0,1,.09-.155Zm-.3,14.684a1.381,1.381,0,0,1-.4-.979V39.287a1.4,1.4,0,0,1,1.438-1.4c5.289,0,4.987-.009,5.171.02H17.6a1.4,1.4,0,0,1,1.169,1.379v4.992a1.4,1.4,0,0,1-1.4,1.4c-2.315,0-2.111-.213-5.989-.42ZM4.46,47.12a.279.279,0,0,1,.273-.28c5.762-.15,18.654.246,22.418,4.617H4.46ZM1.679,55.172a2.037,2.037,0,0,1,2.035-2.035h24.1v4.07H3.714a2.037,2.037,0,0,1-2.035-2.035Zm28.474-3.714c3.759-4.381,16.644-4.774,22.423-4.624a.279.279,0,0,1,.273.28v4.344Z" transform="translate(0 -2.03)"/>
      </g>
    </g>
  </g>
</svg>
