<svg xmlns="http://www.w3.org/2000/svg" width="62.818" height="92.213" viewBox="0 0 62.818 92.213">
  <g id="creatividad_2_" data-name="creatividad (2)" transform="translate(-0.499)">
    <path id="Trazado_1220010" data-name="Trazado 1220010" d="M230.405,150.186l7.476-15.122a3.138,3.138,0,0,0-1.443-4.2l-6-2.928a3.149,3.149,0,0,0-4.207,1.445l-10.378,21.166Zm0,0" transform="translate(-176.567 -104.631)" fill="#b8f9ff"/>
    <path id="Trazado_1220011" data-name="Trazado 1220011" d="M70.038,280.015v12.7h21.2v-7.322h4.8A18.992,18.992,0,0,0,115.038,266.4v-.229h1.19a2.817,2.817,0,0,0,2.336-4.292,30.031,30.031,0,0,1-4.594-15.692H70.038Zm0,0" transform="translate(-57.015 -201.849)" fill="#faded2"/>
    <path id="Trazado_1220012" data-name="Trazado 1220012" d="M179.1,261.879a30.042,30.042,0,0,1-4.594-15.692H166.6c0,7.48,1.068,19.984,1.068,19.984v.229a18.992,18.992,0,0,1-18.992,18.992h-4.8v7.322h7.906v-7.322h4.8A18.992,18.992,0,0,0,175.577,266.4v-.229h1.19A2.816,2.816,0,0,0,179.1,261.879Zm0,0" transform="translate(-117.554 -201.848)" fill="#fad7c8"/>
    <path id="Trazado_1220013" data-name="Trazado 1220013" d="M147.446,30.788l.034-10.291c.026-4.75-2.363-9.344-6.751-12.978-4.428,3.656-6.868,8.262-6.894,13.011L133.8,30.788l1.392,3.252a6.76,6.76,0,0,0,5.377,2.617,6.881,6.881,0,0,0,5.4-2.635Zm0,0" transform="translate(-109.294 -6.165)" fill="#e1e2e5"/>
    <path id="Trazado_1220014" data-name="Trazado 1220014" d="M157.992,7.52a22.431,22.431,0,0,0-2.975,2.948,15.621,15.621,0,0,1,3.8,10.03l-.034,10.291L157.3,34.022a6.932,6.932,0,0,1-2.447,1.959,6.782,6.782,0,0,0,2.977.675,6.881,6.881,0,0,0,5.4-2.635l1.477-3.234.034-10.29c.026-4.75-2.363-9.344-6.751-12.978Zm0,0" transform="translate(-126.557 -6.165)" fill="#c1c5cc"/>
    <path id="Trazado_1220015" data-name="Trazado 1220015" d="M141.335,7.519c-3.938,3.252-6.3,7.254-6.8,11.441l13.467-.021c-.445-4.19-2.766-8.185-6.672-11.42Zm0,0" transform="translate(-109.899 -6.165)" fill="#f0a8d0"/>
    <path id="Trazado_1220016" data-name="Trazado 1220016" d="M141.335,7.52a22.391,22.391,0,0,0-2.975,2.948,16.025,16.025,0,0,1,3.717,8.472l-7.536.012s0,.006,0,.009l13.467-.021c-.445-4.19-2.766-8.185-6.672-11.42Zm0,0" transform="translate(-109.899 -6.165)" fill="#ea89bf"/>
    <path id="Trazado_1220017" data-name="Trazado 1220017" d="M125.332,119.913c-.008,1.417-5.692,8.42-5.692,8.42s.038-6.879.046-8.406a2.82,2.82,0,0,1,2.838-2.771,2.767,2.767,0,0,1,2.807,2.757Zm0,0" transform="translate(-97.684 -96.056)" fill="#f0a8d0"/>
    <path id="Trazado_1220018" data-name="Trazado 1220018" d="M191.926,119.751c-.008,1.417,5.6,8.392,5.6,8.392s.037-6.878.046-8.406a2.767,2.767,0,0,0-2.808-2.757,2.821,2.821,0,0,0-2.838,2.771Zm0,0" transform="translate(-156.95 -95.912)" fill="#f0a8d0"/>
    <path id="Trazado_1220019" data-name="Trazado 1220019" d="M30.725,138.243l-10.317-8.669-2.8,13.411,7.676.542Zm0,0" transform="translate(-14.026 -106.238)" fill="#fce49d"/>
    <path id="Trazado_1220020" data-name="Trazado 1220020" d="M35.163,190.9l-4.438-13.19-5.591,5.236-7.528-.494,3,8.807Zm0,0" transform="translate(-14.026 -145.701)" fill="#feda5f"/>
    <path id="Trazado_1220021" data-name="Trazado 1220021" d="M29.247,129.574l-.86,4.117,4.094-1.4Zm0,0" transform="translate(-22.865 -106.237)" fill="#86919e"/>
    <path id="Trazado_1220022" data-name="Trazado 1220022" d="M64.77,177.707l-5.591,5.236-.05,0,2.713,8.139,7.366-.182Zm0,0" transform="translate(-48.071 -145.701)" fill="#f4c84e"/>
    <path id="Trazado_1220023" data-name="Trazado 1220023" d="M30.812,267.838a6.2,6.2,0,0,1,0-12.4,7.046,7.046,0,0,1,5.3,2.922s5.75-3.641,5.75-12.176H9.161s-6.289,23.855,10.152,33.869A23.117,23.117,0,0,0,30.9,267.838" transform="translate(-6.133 -201.848)" fill="#86919e"/>
    <path id="Trazado_1220024" data-name="Trazado 1220024" d="M62.7,157.832a28.606,28.606,0,0,1-4.4-14.992,1.347,1.347,0,0,0-1.347-1.347h-.288l5.859-11.967a4.486,4.486,0,0,0-2.063-6.005l-6-2.928a4.5,4.5,0,0,0-6.007,2.063l-9.222,18.837H35.238v-8.218a1.348,1.348,0,0,0-2.7,0v8.218H30.207v-8.218a1.348,1.348,0,0,0-2.7,0v8.218H21.861l-3.886-11.421a1.36,1.36,0,0,0-.409-.6L7.249,120.806a1.347,1.347,0,0,0-2.186.756l-2.8,13.412a1.367,1.367,0,0,0,.043.71l1.977,5.81H3.028a1.348,1.348,0,0,0-1.3,1A46.038,46.038,0,0,0,.5,153.083c-.023,7.943,2.054,14.714,6,19.582a1.348,1.348,0,0,0,2.092-1.7C1.179,161.829,3.327,148,4.107,144.188H34.328a13.359,13.359,0,0,1-4.174,8.975,8.242,8.242,0,0,0-5.476-2.417A7.547,7.547,0,0,0,22.793,165.6a22.208,22.208,0,0,1-9.815,9.721,1.347,1.347,0,0,0-1.3,1.345v12.7a1.348,1.348,0,0,0,1.347,1.348h21.2a1.348,1.348,0,0,0,1.348-1.348v-5.974h3.456A20.365,20.365,0,0,0,59.34,164.168a4.078,4.078,0,0,0,3.444-2.126,4.146,4.146,0,0,0-.083-4.209ZM50.873,123.842a1.8,1.8,0,0,1,2.406-.827l6,2.928a1.807,1.807,0,0,1,.823,2.4L59.047,130.5l-2.367-1.154a1.348,1.348,0,0,0-1.182,2.422l2.364,1.153L55.8,137.133l-3.843-1.874a1.348,1.348,0,0,0-1.181,2.422l3.839,1.873-.95,1.94H42.232ZM14.4,141.493l-1.767-5.331,3.464-3.244,2.918,8.575ZM6.681,127l2.683-.893,5.305,4.458-4.057,3.8-5.4-.354Zm-1.175,9.728,4.574.3,1.48,4.467H7.128Zm54.92,24.009a1.405,1.405,0,0,1-1.229.741H58.023a1.416,1.416,0,0,0-1.348,1.577A17.664,17.664,0,0,1,39.031,180.7h-4.8a1.348,1.348,0,0,0-1.347,1.348v5.974H14.371V177.645a24.51,24.51,0,0,0,11.648-12.654,1.347,1.347,0,0,0-1.306-1.846h-.035a4.852,4.852,0,0,1,0-9.7,5.738,5.738,0,0,1,4.211,2.367,1.347,1.347,0,0,0,1.811.346,15.555,15.555,0,0,0,6.327-11.966H55.638a31.51,31.51,0,0,0,4.76,15.044,1.48,1.48,0,0,1,.028,1.5Zm0,0" transform="translate(0 -98.501)"/>
    <path id="Trazado_1220025" data-name="Trazado 1220025" d="M231.76,276.8a4.946,4.946,0,0,0-4.94,4.941,1.348,1.348,0,0,0,2.7,0,2.245,2.245,0,1,1,4.491,0,1.348,1.348,0,0,0,2.7,0,4.946,4.946,0,0,0-4.941-4.941Zm0,0" transform="translate(-185.56 -226.945)"/>
    <path id="Trazado_1220026" data-name="Trazado 1220026" d="M39.385,42.591h1.4v1.4a1.348,1.348,0,0,0,2.7,0v-1.4h1.4a1.348,1.348,0,0,0,0-2.7h-1.4V38.5a1.348,1.348,0,0,0-2.7,0v1.4h-1.4A1.348,1.348,0,0,0,39.385,42.591Zm0,0" transform="translate(-30.814 -30.496)"/>
    <path id="Trazado_1220027" data-name="Trazado 1220027" d="M234.3,5.677h1.4v1.4a1.348,1.348,0,0,0,2.7,0v-1.4h1.4a1.348,1.348,0,0,0,0-2.7h-1.4v-1.4a1.348,1.348,0,0,0-2.7,0v1.4h-1.4a1.349,1.349,0,0,0,0,2.7Zm0,0" transform="translate(-190.628 -0.23)"/>
    <path id="Trazado_1220028" data-name="Trazado 1220028" d="M286.182,61.547h1.4v1.4a1.348,1.348,0,0,0,2.7,0v-1.4h1.4a1.348,1.348,0,0,0,0-2.7h-1.4v-1.4a1.348,1.348,0,0,0-2.7,0v1.4h-1.4A1.348,1.348,0,0,0,286.182,61.547Zm0,0" transform="translate(-233.161 -46.038)"/>
    <path id="Trazado_1220029" data-name="Trazado 1220029" d="M113.053,33.546a1.407,1.407,0,0,0,1.5-.419c.056-.069,1.338-1.65,2.7-3.478a8.069,8.069,0,0,0,5.559,2.191h.021a8.178,8.178,0,0,0,5.6-2.218c1.335,1.816,2.594,3.385,2.649,3.454a1.362,1.362,0,0,0,2.4-.837l.046-8.406a4.036,4.036,0,0,0-1.188-2.891,4.134,4.134,0,0,0-1.278-.87l.032-5.732c.028-5.153-2.543-10.133-7.239-14.023a1.348,1.348,0,0,0-1.719,2.075,16.777,16.777,0,0,1,5.942,9.033l-10.274.025a14.639,14.639,0,0,1,1.9-4.434,1.349,1.349,0,0,0-2.279-1.44,16.432,16.432,0,0,0-2.674,8.783l-.032,5.746a4.146,4.146,0,0,0-2.507,3.76l-.046,8.406a1.346,1.346,0,0,0,.893,1.276Zm1.847-9.666a1.473,1.473,0,0,1,1.494-1.431h0a1.468,1.468,0,0,1,1.05.429,1.361,1.361,0,0,1,.4.9,26.3,26.3,0,0,1-2.974,4.543ZM130.8,28.3a25.871,25.871,0,0,1-2.924-4.525,1.477,1.477,0,0,1,1.491-1.361h0a1.47,1.47,0,0,1,1.051.43,1.363,1.363,0,0,1,.4.973ZM128.388,14.12c0,.068,0,.136,0,.205l-.03,5.519a4.161,4.161,0,0,0-3.181,3.988c0,.516.148,1.271,1.672,3.556a5.505,5.505,0,0,1-4.028,1.756h-.014a5.394,5.394,0,0,1-3.972-1.719c1.548-2.291,1.707-3.045,1.71-3.56a4.037,4.037,0,0,0-1.189-2.891,4.118,4.118,0,0,0-1.948-1.1l.03-5.506c0-.076,0-.151,0-.227Zm0,0" transform="translate(-91.551)"/>
    <path id="Trazado_1220030" data-name="Trazado 1220030" d="M126.832,324.1a1.348,1.348,0,0,0,0,2.7A1.348,1.348,0,0,0,126.832,324.1Zm0,0" transform="translate(-102.513 -265.73)"/>
  </g>
</svg>
