<svg xmlns="http://www.w3.org/2000/svg" xmlns:xlink="http://www.w3.org/1999/xlink" width="777.258" height="629" viewBox="0 0 777.258 629">
  <defs>
    <clipPath id="clip-path">
      <rect id="Rectángulo_424196" data-name="Rectángulo 424196" width="602" height="629" transform="translate(489 4610)" fill="#fff" stroke="#707070" stroke-width="1"/>
    </clipPath>
    <clipPath id="clip-path-2">
      <rect id="Rectángulo_424194" data-name="Rectángulo 424194" width="628" height="628" transform="translate(0.237 0.237)" fill="none"/>
    </clipPath>
    <clipPath id="clip-path-3">
      <rect id="Rectángulo_424176" data-name="Rectángulo 424176" width="509.046" height="427.892" fill="none"/>
    </clipPath>
    <clipPath id="clip-path-4">
      <rect id="Rectángulo_424177" data-name="Rectángulo 424177" width="8.337" height="8.245" fill="none"/>
    </clipPath>
    <clipPath id="clip-path-5">
      <rect id="Rectángulo_424178" data-name="Rectángulo 424178" width="16.822" height="16.822" fill="none"/>
    </clipPath>
    <clipPath id="clip-path-6">
      <rect id="Rectángulo_424179" data-name="Rectángulo 424179" width="13.039" height="13.513" fill="none"/>
    </clipPath>
    <clipPath id="clip-path-7">
      <rect id="Rectángulo_424180" data-name="Rectángulo 424180" width="16.648" height="16.65" fill="none"/>
    </clipPath>
    <clipPath id="clip-path-8">
      <rect id="Rectángulo_424181" data-name="Rectángulo 424181" width="10.243" height="10.243" fill="none"/>
    </clipPath>
    <clipPath id="clip-path-9">
      <rect id="Rectángulo_424182" data-name="Rectángulo 424182" width="12.869" height="13.677" fill="none"/>
    </clipPath>
    <clipPath id="clip-path-10">
      <rect id="Rectángulo_424183" data-name="Rectángulo 424183" width="16.651" height="16.651" fill="none"/>
    </clipPath>
    <clipPath id="clip-path-11">
      <rect id="Rectángulo_424184" data-name="Rectángulo 424184" width="10.244" height="10.244" fill="none"/>
    </clipPath>
    <clipPath id="clip-path-12">
      <rect id="Rectángulo_424185" data-name="Rectángulo 424185" width="24.918" height="30.251" fill="none"/>
    </clipPath>
    <clipPath id="clip-path-13">
      <rect id="Rectángulo_424186" data-name="Rectángulo 424186" width="68.18" height="54.67" fill="none"/>
    </clipPath>
    <clipPath id="clip-path-14">
      <rect id="Rectángulo_424193" data-name="Rectángulo 424193" width="37.246" height="37.244" fill="none"/>
    </clipPath>
  </defs>
  <g id="Grupo_1241669" data-name="Grupo 1241669" transform="translate(-416.715 -4628)">
    <g id="Enmascarar_grupo_1211476" data-name="Enmascarar grupo 1211476" transform="translate(0 18)" clip-path="url(#clip-path)">
      <g id="Grupo_1241658" data-name="Grupo 1241658">
        <g id="Grupo_1241656" data-name="Grupo 1241656" transform="translate(475.763 4625.763)">
          <g id="Grupo_1241657" data-name="Grupo 1241657">
            <g id="Grupo_1241654" data-name="Grupo 1241654">
              <g id="Grupo_1241653" data-name="Grupo 1241653" clip-path="url(#clip-path-2)">
                <g id="Grupo_1241619" data-name="Grupo 1241619" transform="translate(59.596 53.291)" opacity="0.5" style="mix-blend-mode: screen;isolation: isolate">
                  <g id="Grupo_1241618" data-name="Grupo 1241618">
                    <g id="Grupo_1241617" data-name="Grupo 1241617" clip-path="url(#clip-path-3)">
                      <path id="Trazado_1219648" data-name="Trazado 1219648" d="M48.7,250.858c12.4,99.542,97.1,188.117,203.073,212.367,66.123,15.132,139.008,5.987,196.768-27.193s98.99-90.518,106.653-152.639-19.463-127.565-72.019-167.367C403.353,55.571,271.062,18.779,173.2,59.779,91.651,93.942,38.4,168.145,48.7,250.858" transform="translate(-47.431 -42.413)" fill="#5da4d9"/>
                    </g>
                  </g>
                </g>
                <g id="Grupo_1241622" data-name="Grupo 1241622" transform="translate(133.269 76.484)" opacity="0.5" style="mix-blend-mode: screen;isolation: isolate">
                  <g id="Grupo_1241621" data-name="Grupo 1241621">
                    <g id="Grupo_1241620" data-name="Grupo 1241620" clip-path="url(#clip-path-4)">
                      <path id="Trazado_1219649" data-name="Trazado 1219649" d="M111.4,68.937a4.145,4.145,0,0,1-4.9-2.053c-1.53-3.037,1.127-6.937,5.432-5.815,3.856,2.228,2.816,6.849-.533,7.868" transform="translate(-106.066 -60.872)" fill="#5da4d9"/>
                    </g>
                  </g>
                </g>
                <g id="Grupo_1241625" data-name="Grupo 1241625" transform="translate(113.657 82.346)" opacity="0.5" style="mix-blend-mode: screen;isolation: isolate">
                  <g id="Grupo_1241624" data-name="Grupo 1241624">
                    <g id="Grupo_1241623" data-name="Grupo 1241623" clip-path="url(#clip-path-5)">
                      <path id="Trazado_1219650" data-name="Trazado 1219650" d="M91.08,77.121a8.409,8.409,0,1,1,10.96,4.614,8.409,8.409,0,0,1-10.96-4.614" transform="translate(-90.457 -65.537)" fill="#5da4d9"/>
                    </g>
                  </g>
                </g>
                <g id="Grupo_1241628" data-name="Grupo 1241628" transform="translate(124.546 418.525)" opacity="0.5" style="mix-blend-mode: screen;isolation: isolate">
                  <g id="Grupo_1241627" data-name="Grupo 1241627">
                    <g id="Grupo_1241626" data-name="Grupo 1241626" clip-path="url(#clip-path-6)">
                      <path id="Trazado_1219651" data-name="Trazado 1219651" d="M100.137,343.094a6.407,6.407,0,1,1,9,2.684,6.647,6.647,0,0,1-9-2.684" transform="translate(-99.123 -333.095)" fill="#5da4d9"/>
                    </g>
                  </g>
                </g>
                <g id="Grupo_1241631" data-name="Grupo 1241631" transform="translate(168.964 461.076)" opacity="0.5" style="mix-blend-mode: screen;isolation: isolate">
                  <g id="Grupo_1241630" data-name="Grupo 1241630">
                    <g id="Grupo_1241629" data-name="Grupo 1241629" clip-path="url(#clip-path-7)">
                      <path id="Trazado_1219652" data-name="Trazado 1219652" d="M135.627,379.508a8.324,8.324,0,1,1,11.395,2.949,8.324,8.324,0,0,1-11.395-2.949" transform="translate(-134.475 -366.96)" fill="#5da4d9"/>
                    </g>
                  </g>
                </g>
                <g id="Grupo_1241634" data-name="Grupo 1241634" transform="translate(192.143 467.298)" opacity="0.5" style="mix-blend-mode: screen;isolation: isolate">
                  <g id="Grupo_1241633" data-name="Grupo 1241633">
                    <g id="Grupo_1241632" data-name="Grupo 1241632" clip-path="url(#clip-path-8)">
                      <path id="Trazado_1219653" data-name="Trazado 1219653" d="M153.631,379.632a5.12,5.12,0,1,1,7.01,1.814,5.119,5.119,0,0,1-7.01-1.814" transform="translate(-152.922 -371.912)" fill="#5da4d9"/>
                    </g>
                  </g>
                </g>
                <g id="Grupo_1241637" data-name="Grupo 1241637" transform="translate(569.088 179.249)" opacity="0.5" style="mix-blend-mode: screen;isolation: isolate">
                  <g id="Grupo_1241636" data-name="Grupo 1241636">
                    <g id="Grupo_1241635" data-name="Grupo 1241635" clip-path="url(#clip-path-9)">
                      <path id="Trazado_1219654" data-name="Trazado 1219654" d="M465.471,147.634a6.407,6.407,0,1,1-8.118-4.714,6.647,6.647,0,0,1,8.118,4.714" transform="translate(-452.924 -142.66)" fill="#5da4d9"/>
                    </g>
                  </g>
                </g>
                <g id="Grupo_1241640" data-name="Grupo 1241640" transform="translate(532.578 124.053)" opacity="0.5" style="mix-blend-mode: screen;isolation: isolate">
                  <g id="Grupo_1241639" data-name="Grupo 1241639">
                    <g id="Grupo_1241638" data-name="Grupo 1241638" clip-path="url(#clip-path-10)">
                      <path id="Trazado_1219655" data-name="Trazado 1219655" d="M440.154,104.629a8.324,8.324,0,1,1-10.39-5.534,8.324,8.324,0,0,1,10.39,5.534" transform="translate(-423.867 -98.731)" fill="#5da4d9"/>
                    </g>
                  </g>
                </g>
                <g id="Grupo_1241643" data-name="Grupo 1241643" transform="translate(517.067 119.648)" opacity="0.5" style="mix-blend-mode: screen;isolation: isolate">
                  <g id="Grupo_1241642" data-name="Grupo 1241642">
                    <g id="Grupo_1241641" data-name="Grupo 1241641" clip-path="url(#clip-path-11)">
                      <path id="Trazado_1219656" data-name="Trazado 1219656" d="M421.541,98.854a5.121,5.121,0,1,1-6.392-3.4,5.12,5.12,0,0,1,6.392,3.4" transform="translate(-411.522 -95.225)" fill="#5da4d9"/>
                    </g>
                  </g>
                </g>
                <path id="Trazado_1219657" data-name="Trazado 1219657" d="M268.749,164c-36.9,12.988-95.566-11.18-116.257-52.816-13.178-26.517-6.187-49.681,11.154-49.529,12.945.112,27.289,17.358,5.619,31.886-26.378,17.682-69.019,17.212-89.32,10.547" transform="translate(20.504 15.812)" fill="none" stroke="#000f39" stroke-miterlimit="10" stroke-width="1" stroke-dasharray="5.517 5.517"/>
                <path id="Trazado_1219658" data-name="Trazado 1219658" d="M71.71,108.536l8.138-9.969,19.766,7.443L89.519,87.654,21.578,66.437Z" transform="translate(5.534 17.039)" fill="#ea9b7a"/>
                <path id="Trazado_1219659" data-name="Trazado 1219659" d="M71.71,108.536l8.138-9.969,19.766,7.443L89.519,87.654,21.578,66.437Z" transform="translate(5.534 17.039)" fill="#edb538"/>
                <path id="Trazado_1219660" data-name="Trazado 1219660" d="M21.578,66.437l78.905,4.522L89.52,87.654Z" transform="translate(5.534 17.039)" fill="#eec75b"/>
                <path id="Trazado_1219661" data-name="Trazado 1219661" d="M21.578,66.437l58.27,32.131L74.14,121.24Z" transform="translate(5.534 17.039)" fill="#eec75b"/>
                <line id="Línea_688" data-name="Línea 688" x2="41.467" y2="43.235" transform="translate(38.208 95.045)" fill="none" stroke="#000f39" stroke-linecap="round" stroke-linejoin="round" stroke-width="0.84"/>
                <path id="Trazado_1219662" data-name="Trazado 1219662" d="M50,330.764c19.913-15.045,45.454-24.6,69.766-22.727,29.523,2.277,45.83,20.151,36.811,34.964-6.732,11.057-28.891,14.535-30.258-11.519-1.662-31.713,20.6-68.085,36.727-82.1" transform="translate(12.824 63.96)" fill="none" stroke="#000f39" stroke-miterlimit="10" stroke-width="1" stroke-dasharray="5.517 5.517"/>
                <path id="Trazado_1219663" data-name="Trazado 1219663" d="M97.252,330.771,72.218,291.246,58.649,301.737l26.52,33.784Z" transform="translate(15.042 74.697)" fill="#000f39"/>
                <path id="Trazado_1219664" data-name="Trazado 1219664" d="M94.824,330.6,70.853,293.97a66.291,66.291,0,0,1-8.779-5.982s16.344,33.426,22.708,39.488S94.824,330.6,94.824,330.6" transform="translate(15.92 73.862)" fill="#fff"/>
                <path id="Trazado_1219665" data-name="Trazado 1219665" d="M60.955,297.129c-14.345,14-28.036,26.644-40.641,37.046A324.73,324.73,0,0,1,38.9,369.129c2.843,3.406,5.668,5.745,8.484,6.879l59.7-43.958c-3.534-2.106-7.5-5.817-11.8-10.711L82.149,301.577l-5.419-8.158L75.655,291.8l-3.689-5.547q-5.567,5.552-11.012,10.876" transform="translate(5.21 73.417)" fill="#5f64c1"/>
                <g id="Grupo_1241646" data-name="Grupo 1241646" transform="translate(62.827 372.884)" opacity="0.5" style="mix-blend-mode: multiply;isolation: isolate">
                  <g id="Grupo_1241645" data-name="Grupo 1241645">
                    <g id="Grupo_1241644" data-name="Grupo 1241644" clip-path="url(#clip-path-12)">
                      <path id="Trazado_1219666" data-name="Trazado 1219666" d="M61.612,297.384l13,17.407a1.527,1.527,0,0,1-.215,2.062l-11.135,9.788a1.528,1.528,0,0,1-2.337-.392L50.2,307.4a1.53,1.53,0,0,1,.28-1.868l8.858-8.345a1.528,1.528,0,0,1,2.272.2" transform="translate(-50.002 -296.77)" fill="#5f64c1"/>
                    </g>
                  </g>
                </g>
                <path id="Trazado_1219667" data-name="Trazado 1219667" d="M35.107,361.966c2.843,3.406,5.668,5.745,8.484,6.88l59.7-43.958c-3.534-2.107-7.5-5.817-11.8-10.713Z" transform="translate(9.004 80.578)" fill="#5f64c1"/>
                <g id="Grupo_1241649" data-name="Grupo 1241649" transform="translate(44.111 394.754)" opacity="0.5" style="mix-blend-mode: multiply;isolation: isolate">
                  <g id="Grupo_1241648" data-name="Grupo 1241648">
                    <g id="Grupo_1241647" data-name="Grupo 1241647" clip-path="url(#clip-path-13)">
                      <path id="Trazado_1219668" data-name="Trazado 1219668" d="M35.107,361.966c2.843,3.406,5.668,5.745,8.484,6.88l59.7-43.958c-3.534-2.107-7.5-5.817-11.8-10.713Z" transform="translate(-35.107 -314.176)" fill="#5f64c1"/>
                    </g>
                  </g>
                </g>
                <path id="Trazado_1219669" data-name="Trazado 1219669" d="M80.746,332.259,51.691,353.833a11.125,11.125,0,0,1-3.793-4.168l27.276-22.8a19.973,19.973,0,0,0,5.572,5.4" transform="translate(12.285 83.832)" fill="#5f64c1"/>
                <line id="Línea_689" data-name="Línea 689" x1="16.991" y1="26.346" transform="translate(87.376 370.354)" fill="none" stroke="#000f39" stroke-linecap="round" stroke-linejoin="round" stroke-width="0.537"/>
                <line id="Línea_690" data-name="Línea 690" x2="13.785" y2="22.066" transform="translate(85.324 368.623)" fill="none" stroke="#000f39" stroke-linecap="round" stroke-linejoin="round" stroke-width="0.537"/>
                <path id="Trazado_1219670" data-name="Trazado 1219670" d="M281.832,185.265c10.51-37.677,63.948-71.893,109.925-64.975,29.281,4.405,44.252,23.412,34.186,37.533-7.514,10.542-29.868,12.408-29.346-13.677.633-31.75,25.466-66.417,42.566-79.23" transform="translate(72.283 16.65)" fill="none" stroke="#000f39" stroke-miterlimit="10" stroke-width="1" stroke-dasharray="5.517 5.517"/>
                <path id="Trazado_1219671" data-name="Trazado 1219671" d="M383.535,40.644l.893-9.035c19.24,8.515,25.46,22.942,25.46,22.942a53.842,53.842,0,0,1,28.643-14.625l-3,9.754s-14.344,10.242-26.571,7.451-25.425-16.486-25.425-16.486" transform="translate(98.367 8.107)" fill="#fff"/>
                <path id="Trazado_1219672" data-name="Trazado 1219672" d="M378.641,47.874c.03-.126,1.656-13.432,1.656-13.432,16.854,3.9,30.741,20.38,30.741,20.38,19.431-12.826,36.891-9.05,36.891-9.05l-5.767,15.561s-18.218,11.472-34.9,4.635a103.765,103.765,0,0,1-28.62-18.094" transform="translate(97.112 8.833)" fill="#d8ebe4"/>
                <path id="Trazado_1219673" data-name="Trazado 1219673" d="M375.663,35.555l2.556-.089,28.63,18.053c3.037,1.66,8.319,2.724,10.4,2.254l33.944-3.186,1.954,1.589s-21.439,9.19-40.864,5.077-36.617-23.7-36.617-23.7" transform="translate(96.348 9.096)" fill="#000f39"/>
                <path id="Trazado_1219674" data-name="Trazado 1219674" d="M406.914,54.33,376.86,35.537l-5.866,41.549A163.131,163.131,0,0,1,399.618,94.87Z" transform="translate(95.151 9.114)" fill="#eec75b"/>
                <path id="Trazado_1219675" data-name="Trazado 1219675" d="M446.968,50.358l-9.9,28.78-3.751,10.895q-2.744-.028-5.535.055c-1.615.043-3.242.118-4.884.211-1.1.062-2.205.136-3.313.226-6.47.485-13.1,1.312-19.845,2.343L411.66,53.443l4.385-.382,4.1-.361,1.946-.167,6.638-.58Z" transform="translate(102.522 12.916)" fill="#eec75b"/>
                <line id="Línea_691" data-name="Línea 691" x1="12.075" y2="37.841" transform="translate(504.682 67.27)" fill="none" stroke="#000f39" stroke-linecap="round" stroke-linejoin="round" stroke-width="0.537"/>
                <path id="Trazado_1219676" data-name="Trazado 1219676" d="M434.553,57.241a1.523,1.523,0,0,1-1.656-1.833l-16.1,1.759a1.525,1.525,0,0,1-1.287,1.052l-2.735,8.55a1.524,1.524,0,0,1,1.517,1.988l16.784-.709a1.523,1.523,0,0,1,1.426-1.2Z" transform="translate(105.868 14.211)" fill="#5f64c1"/>
                <path id="Trazado_1219677" data-name="Trazado 1219677" d="M401.071,50.494c4.6,3.635,12.117,2.913,12.117,2.913L401.265,92.835a9.236,9.236,0,0,1-7.49-1.8Z" transform="translate(100.993 12.95)" fill="#edb538"/>
                <path id="Trazado_1219678" data-name="Trazado 1219678" d="M345.862,320.22c20.494-14.243,46.394-22.78,70.613-19.943,29.409,3.447,44.993,21.953,35.395,36.4-7.166,10.781-29.445,13.376-29.777-12.71-.4-31.755,23.281-67.215,39.953-80.58" transform="translate(88.705 62.422)" fill="none" stroke="#000f39" stroke-miterlimit="10" stroke-width="1" stroke-dasharray="5.517 5.517"/>
                <path id="Trazado_1219679" data-name="Trazado 1219679" d="M479.958,208.086c0-20.455-15.117-37.038-32.592-37.038s-32.749,16.583-32.749,37.038a39.616,39.616,0,0,0,6.8,22.328l12.939,22.529H459.8l13.14-22.143a39.769,39.769,0,0,0,7.017-22.713" transform="translate(106.339 43.869)" fill="#eec75b"/>
                <path id="Trazado_1219680" data-name="Trazado 1219680" d="M452.839,246.366H432.55a2.823,2.823,0,1,1,0-5.647h20.288a2.823,2.823,0,0,1,0,5.647" transform="translate(110.214 61.738)" fill="#5f64c1"/>
                <line id="Línea_692" data-name="Línea 692" x2="8.32" y2="45.427" transform="translate(541.691 254.208)" fill="none" stroke="#000f39" stroke-linecap="round" stroke-miterlimit="10" stroke-width="0.84"/>
                <line id="Línea_693" data-name="Línea 693" x1="4.809" y2="45.932" transform="translate(559.597 253.955)" fill="none" stroke="#000f39" stroke-linecap="round" stroke-miterlimit="10" stroke-width="0.84"/>
                <path id="Trazado_1219681" data-name="Trazado 1219681" d="M426.2,211.539l5.282-4.969a2.429,2.429,0,0,1,3.229-.088l4.267,3.6a2.427,2.427,0,0,0,3.3-.157l.92-.94a2.427,2.427,0,0,1,3.7.27,2.427,2.427,0,0,0,3.668.3l2.8-2.758a2.426,2.426,0,0,1,3.44.031l4.6,4.708" transform="translate(109.309 52.811)" fill="none" stroke="#000f39" stroke-linecap="round" stroke-miterlimit="10" stroke-width="0.42"/>
                <path id="Trazado_1219682" data-name="Trazado 1219682" d="M450.186,246.978c0,3.405-3.8,6.164-8.482,6.164s-8.484-2.759-8.484-6.164,3.8-6.164,8.484-6.164,8.482,2.759,8.482,6.164" transform="translate(111.11 61.763)" fill="#5f64c1"/>
                <path id="Trazado_1219683" data-name="Trazado 1219683" d="M456.108,241.872H430.64a2.823,2.823,0,1,1,0-5.647h25.467a2.823,2.823,0,1,1,0,5.647" transform="translate(109.724 60.586)" fill="#5f64c1"/>
                <path id="Trazado_1219684" data-name="Trazado 1219684" d="M466.256,230.8a39.777,39.777,0,0,0,7.016-22.713c0-20.455-15.115-37.038-32.59-37.038" transform="translate(113.024 43.869)" fill="none" stroke="#000f39" stroke-linecap="round" stroke-linejoin="round" stroke-width="0.75"/>
                <path id="Trazado_1219685" data-name="Trazado 1219685" d="M449.366,247.613c-1.28,2.224-4.3,3.787-7.829,3.787-3.39,0-6.315-1.446-7.673-3.534" transform="translate(111.275 63.506)" fill="none" stroke="#000f39" stroke-linecap="round" stroke-linejoin="round" stroke-width="0.75"/>
                <line id="Línea_694" data-name="Línea 694" x2="14.554" transform="translate(542.764 302.458)" fill="none" stroke="#000f39" stroke-linecap="round" stroke-linejoin="round" stroke-width="0.75"/>
                <line id="Línea_695" data-name="Línea 695" x2="6.129" transform="translate(555.644 308.104)" fill="none" stroke="#000f39" stroke-linecap="round" stroke-linejoin="round" stroke-width="0.75"/>
                <line id="Línea_696" data-name="Línea 696" x2="14.555" transform="translate(539.941 296.812)" fill="none" stroke="#000f39" stroke-linecap="round" stroke-linejoin="round" stroke-width="0.75"/>
                <path id="Trazado_1219686" data-name="Trazado 1219686" d="M447.744,216.654a44.959,44.959,0,0,0-17.615-63.037,44.977,44.977,0,0,0-54.067-43.635,48.677,48.677,0,0,0-89.9-2.233,48.678,48.678,0,0,0-89.9,2.233A44.985,44.985,0,0,0,142.187,154c0,.382.02.759.029,1.138a58.393,58.393,0,0,0-39.986,77,48.746,48.746,0,0,0,22.022,76.867,77.868,77.868,0,0,0,29.007,39.025c2.742,41.217,33.7,73.719,71.516,73.719,26.027,0,48.815-15.393,61.389-38.427,12.574,23.034,35.361,38.427,61.388,38.427,37.815,0,68.774-32.5,71.516-73.719a77.868,77.868,0,0,0,29.007-39.025,48.753,48.753,0,0,0-.33-92.352" transform="translate(23.417 20.218)" fill="#eec75b"/>
                <path id="Trazado_1219687" data-name="Trazado 1219687" d="M250.15,145.938c.083-13.875,6.63-27.169,18.184-34.856a42.131,42.131,0,0,1,62.037,18.588,30.248,30.248,0,0,1,16.178-1.581,30.571,30.571,0,0,1,23.945,39.162,32.957,32.957,0,0,1,18.949,54.36A45.1,45.1,0,0,1,376.319,303a23.586,23.586,0,0,1-20.511,35.272c-.025,0-.049,0-.074,0a53.392,53.392,0,0,1-106.71-2.81C249.024,333.421,249.936,181.46,250.15,145.938Z" transform="translate(63.868 26.69)" fill="none" stroke="#000f39" stroke-miterlimit="10" stroke-width="0.84"/>
                <path id="Trazado_1219688" data-name="Trazado 1219688" d="M359.147,153.4a30.346,30.346,0,1,0-60.691,0" transform="translate(76.546 31.559)" fill="none" stroke="#000f39" stroke-miterlimit="10" stroke-width="0.84"/>
                <path id="Trazado_1219689" data-name="Trazado 1219689" d="M306.44,227.8a44.349,44.349,0,0,0,88.7,0" transform="translate(78.594 58.424)" fill="none" stroke="#000f39" stroke-miterlimit="10" stroke-width="0.84"/>
                <path id="Trazado_1219690" data-name="Trazado 1219690" d="M287.734,251.191a23.5,23.5,0,0,1,47.006,0" transform="translate(73.796 58.396)" fill="none" stroke="#000f39" stroke-miterlimit="10" stroke-width="0.84"/>
                <path id="Trazado_1219691" data-name="Trazado 1219691" d="M272.077,155.052a23.5,23.5,0,0,1,39.237,25.883" transform="translate(69.781 37.058)" fill="none" stroke="#000f39" stroke-miterlimit="10" stroke-width="0.84"/>
                <path id="Trazado_1219692" data-name="Trazado 1219692" d="M351.389,235.056a20.157,20.157,0,1,1,3.776-40.137" transform="translate(85.436 49.969)" fill="none" stroke="#000f39" stroke-miterlimit="10" stroke-width="0.84"/>
                <path id="Trazado_1219693" data-name="Trazado 1219693" d="M322.463,183.143a19.982,19.982,0,1,1-4.986,39.652" transform="translate(81.425 46.972)" fill="none" stroke="#000f39" stroke-miterlimit="10" stroke-width="0.84"/>
                <path id="Trazado_1219694" data-name="Trazado 1219694" d="M305.2,200.559a22.866,22.866,0,1,1-33.075-31.581" transform="translate(68.169 43.338)" fill="none" stroke="#000f39" stroke-miterlimit="10" stroke-width="0.84"/>
                <path id="Trazado_1219695" data-name="Trazado 1219695" d="M273.266,239.216A22.866,22.866,0,0,1,304.7,206" transform="translate(68.253 51.229)" fill="none" stroke="#000f39" stroke-miterlimit="10" stroke-width="0.84"/>
                <path id="Trazado_1219696" data-name="Trazado 1219696" d="M300.717,262.524a22.866,22.866,0,0,1-40.73,20.795" transform="translate(66.68 67.331)" fill="none" stroke="#000f39" stroke-miterlimit="10" stroke-width="0.84"/>
                <path id="Trazado_1219697" data-name="Trazado 1219697" d="M265.67,306.9a22.866,22.866,0,0,1,44.7,9.684" transform="translate(68.138 74.089)" fill="none" stroke="#000f39" stroke-miterlimit="10" stroke-width="0.84"/>
                <path id="Trazado_1219698" data-name="Trazado 1219698" d="M325.813,306.975a22.866,22.866,0,1,1-20.973-40.639" transform="translate(75.007 68.308)" fill="none" stroke="#000f39" stroke-miterlimit="10" stroke-width="0.84"/>
                <path id="Trazado_1219699" data-name="Trazado 1219699" d="M276.857,145.938c-.083-13.875-6.63-27.169-18.184-34.856a42.131,42.131,0,0,0-62.037,18.588,30.248,30.248,0,0,0-16.178-1.581,30.571,30.571,0,0,0-23.945,39.162,32.957,32.957,0,0,0-18.949,54.36A45.1,45.1,0,0,0,150.688,303,23.586,23.586,0,0,0,171.2,338.268c.025,0,.049,0,.074,0a53.392,53.392,0,0,0,106.71-2.81C277.983,333.421,277.071,181.46,276.857,145.938Z" transform="translate(30.034 26.69)" fill="none" stroke="#000f39" stroke-miterlimit="10" stroke-width="0.84"/>
                <path id="Trazado_1219700" data-name="Trazado 1219700" d="M147.409,153.4a30.346,30.346,0,1,1,60.691,0" transform="translate(37.807 31.559)" fill="none" stroke="#000f39" stroke-miterlimit="10" stroke-width="0.84"/>
                <path id="Trazado_1219701" data-name="Trazado 1219701" d="M205.833,227.8a44.349,44.349,0,0,1-88.7,0" transform="translate(30.042 58.424)" fill="none" stroke="#000f39" stroke-miterlimit="10" stroke-width="0.84"/>
                <path id="Trazado_1219702" data-name="Trazado 1219702" d="M216.029,251.191a23.5,23.5,0,0,0-47.006,0" transform="translate(43.35 58.396)" fill="none" stroke="#000f39" stroke-miterlimit="10" stroke-width="0.84"/>
                <path id="Trazado_1219703" data-name="Trazado 1219703" d="M230.894,155.052a23.5,23.5,0,1,0-39.237,25.883" transform="translate(48.158 37.058)" fill="none" stroke="#000f39" stroke-miterlimit="10" stroke-width="0.84"/>
                <path id="Trazado_1219704" data-name="Trazado 1219704" d="M147.28,235.056a20.157,20.157,0,1,0-3.776-40.137" transform="translate(36.805 49.969)" fill="none" stroke="#000f39" stroke-miterlimit="10" stroke-width="0.84"/>
                <path id="Trazado_1219705" data-name="Trazado 1219705" d="M176.293,183.143a19.982,19.982,0,1,0,4.986,39.652" transform="translate(40.729 46.972)" fill="none" stroke="#000f39" stroke-miterlimit="10" stroke-width="0.84"/>
                <path id="Trazado_1219706" data-name="Trazado 1219706" d="M197.015,200.559a22.866,22.866,0,1,0,33.075-31.581" transform="translate(50.529 43.338)" fill="none" stroke="#000f39" stroke-miterlimit="10" stroke-width="0.84"/>
                <path id="Trazado_1219707" data-name="Trazado 1219707" d="M228.778,239.216A22.866,22.866,0,1,0,197.341,206" transform="translate(50.613 51.229)" fill="none" stroke="#000f39" stroke-miterlimit="10" stroke-width="0.84"/>
                <path id="Trazado_1219708" data-name="Trazado 1219708" d="M202.276,262.524a22.866,22.866,0,0,0,40.73,20.795" transform="translate(51.236 67.331)" fill="none" stroke="#000f39" stroke-miterlimit="10" stroke-width="0.84"/>
                <path id="Trazado_1219709" data-name="Trazado 1219709" d="M237.728,306.9a22.866,22.866,0,0,0-44.7,9.684" transform="translate(49.374 74.089)" fill="none" stroke="#000f39" stroke-miterlimit="10" stroke-width="0.84"/>
                <path id="Trazado_1219710" data-name="Trazado 1219710" d="M175.164,306.975a22.866,22.866,0,1,0,20.973-40.639" transform="translate(44.925 68.308)" fill="none" stroke="#000f39" stroke-miterlimit="10" stroke-width="0.84"/>
                <rect id="Rectángulo_424187" data-name="Rectángulo 424187" width="251.345" height="46.683" transform="translate(189.213 531.827)" fill="#eec75b"/>
                <rect id="Rectángulo_424188" data-name="Rectángulo 424188" width="277.481" height="23.173" transform="translate(180.631 578.51)" fill="#5f64c1"/>
                <rect id="Rectángulo_424189" data-name="Rectángulo 424189" width="3.607" height="46.683" transform="translate(217.326 531.827)" fill="#fff"/>
                <rect id="Rectángulo_424190" data-name="Rectángulo 424190" width="3.607" height="46.683" transform="translate(232.101 531.827)" fill="#fff"/>
                <rect id="Rectángulo_424191" data-name="Rectángulo 424191" width="3.607" height="46.683" transform="translate(394.063 531.827)" fill="#fff"/>
                <rect id="Rectángulo_424192" data-name="Rectángulo 424192" width="3.607" height="46.683" transform="translate(408.838 531.827)" fill="#fff"/>
                <line id="Línea_697" data-name="Línea 697" x2="218.941" transform="translate(198.01 531.656)" fill="none" stroke="#000f39" stroke-miterlimit="10" stroke-width="1"/>
                <line id="Línea_698" data-name="Línea 698" x2="179.99" transform="translate(272.457 578.51)" fill="none" stroke="#000f39" stroke-miterlimit="10" stroke-width="1"/>
                <path id="Trazado_1219711" data-name="Trazado 1219711" d="M267.573,122.174a22.932,22.932,0,1,0-2.734,32.315,22.931,22.931,0,0,0,2.734-32.315M262.06,151.2a18.622,18.622,0,1,1,2.22-26.241,18.621,18.621,0,0,1-2.22,26.241" transform="translate(58.25 29.246)" fill="#5f64c1"/>
                <g id="Grupo_1241652" data-name="Grupo 1241652" transform="translate(289.675 147.589)" opacity="0.5" style="mix-blend-mode: screen;isolation: isolate">
                  <g id="Grupo_1241651" data-name="Grupo 1241651">
                    <g id="Grupo_1241650" data-name="Grupo 1241650" clip-path="url(#clip-path-14)">
                      <path id="Trazado_1219712" data-name="Trazado 1219712" d="M234.938,148.1a18.622,18.622,0,1,1,26.241,2.22,18.621,18.621,0,0,1-26.241-2.22" transform="translate(-230.546 -117.463)" fill="#eec75b"/>
                    </g>
                  </g>
                </g>
                <path id="Trazado_1219713" data-name="Trazado 1219713" d="M263.4,124.074a18.622,18.622,0,1,1-26.241-2.22A18.622,18.622,0,0,1,263.4,124.074Z" transform="translate(59.129 30.126)" fill="none" stroke="#000f39" stroke-miterlimit="10" stroke-width="1"/>
                <path id="Trazado_1219714" data-name="Trazado 1219714" d="M234.469,130.116a14.633,14.633,0,0,1,24.873-4.282" transform="translate(60.135 30.941)" fill="none" stroke="#000f39" stroke-linecap="round" stroke-miterlimit="10" stroke-width="1"/>
                <path id="Trazado_1219715" data-name="Trazado 1219715" d="M283.418,177.181h0a3.467,3.467,0,0,1-4.886-.413L260.9,155.882l5.3-4.473,17.628,20.885a3.467,3.467,0,0,1-.413,4.886" transform="translate(66.915 38.833)" fill="#5f64c1"/>
                <path id="Trazado_1219716" data-name="Trazado 1219716" d="M258.066,147.042a22.915,22.915,0,0,1-4.538,2.965l7.805,9.248,8.224-6.941-7.805-9.248a22.927,22.927,0,0,1-3.685,3.975" transform="translate(65.024 36.693)" fill="#000f39"/>
                <path id="Trazado_1219717" data-name="Trazado 1219717" d="M267.573,122.174a22.932,22.932,0,1,1-32.315-2.734A22.932,22.932,0,0,1,267.573,122.174Z" transform="translate(58.25 29.246)" fill="none" stroke="#000f39" stroke-miterlimit="10" stroke-width="1"/>
                <line id="Línea_700" data-name="Línea 700" x2="12.829" y2="15.2" transform="translate(330.996 196.066)" fill="none" stroke="#000f39" stroke-linecap="round" stroke-miterlimit="10" stroke-width="1"/>
                <path id="Trazado_1219718" data-name="Trazado 1219718" d="M294.27,174.54c-6.71-7.5-12.616-12.917-12.616-12.917-7.377,1.321-11.787,7.421-11.787,7.421l4.476,12.293,6.394,17.437c10.465,4.816,21.315,7.3,32.5,9.728.03-.261.054-.523.06-.785.219-9.554-10.112-23.212-19.026-33.177" transform="translate(69.214 41.452)" fill="#ea9b7a"/>
                <path id="Trazado_1219719" data-name="Trazado 1219719" d="M272.383,210.585l-.969.814c.2.489.395.974.588,1.461,1.674,4.231,3.013,8.743,6.03,12.141,3.888,4.384,9.856,6.147,15.5,7.719.942.261,1.891.525,2.851.763a44.377,44.377,0,0,0,3.685-4.722C307.162,218.227,316.3,202,311.5,193.6c-9.687-1.64-9.687-2.409-20.364-2.409Z" transform="translate(69.611 49.036)" fill="#fff"/>
                <path id="Trazado_1219720" data-name="Trazado 1219720" d="M293.357,171.9a62.575,62.575,0,0,0-19.928,6.8l9.136,26.479s18.573-1.746,29.757.686c.03-.261.054-.523.06-.785.219-9.554-10.112-23.212-19.026-33.177" transform="translate(70.128 44.089)" fill="#fff"/>
                <path id="Trazado_1219721" data-name="Trazado 1219721" d="M276.49,204.021c12.925,7.4,24.353,22.927,24.353,22.927S288.19,244.8,271.9,247.755l-5.618-36.349Z" transform="translate(68.295 52.326)" fill="#5f64c1"/>
                <path id="Trazado_1219722" data-name="Trazado 1219722" d="M255.7,279.557s-.773,7.747-6.683,12.761c0,0-8.094-1.768-17.994-4.992-13.15-4.278-29.486-11.122-34.255-19.779-4.981-9.047,6.585-25.31,15.266-35.637a46.039,46.039,0,0,1,4.306-4.452,57.26,57.26,0,0,1,26.419-13.477l.831,36.24-4,2.69-1.084.731-7.677,5.17,14.477,12.077Z" transform="translate(50.158 54.88)" fill="#ea9b7a"/>
                <path id="Trazado_1219723" data-name="Trazado 1219723" d="M245.31,268.14a64.671,64.671,0,0,1-14.287,16.435c-13.149-4.277-29.484-11.122-34.254-19.778-4.982-9.048,6.584-25.31,15.266-35.637a45.757,45.757,0,0,1,4.306-4.453c.961.351,1.91.726,2.848,1.1,5.632,2.235,11.576,4.7,15.093,9.638,2.729,3.827,3.612,8.616,4.869,13.149.143.523.292,1.043.444,1.568l-1.086.73-7.677,5.172Z" transform="translate(50.158 57.631)" fill="#fff"/>
                <path id="Trazado_1219724" data-name="Trazado 1219724" d="M230.242,256.983c-12.067-8.73-21.781-25.383-21.781-25.383s14.477-16.412,30.987-17.617l1.725,36.741Z" transform="translate(53.465 54.881)" fill="#5f64c1"/>
                <path id="Trazado_1219725" data-name="Trazado 1219725" d="M258.919,418.351l1.583,6-58.138.014,11.188-5.794Z" transform="translate(51.901 107.296)" fill="#5f64c1"/>
                <path id="Trazado_1219726" data-name="Trazado 1219726" d="M231.515,246.709,211.267,462.588H256.8l19.259-215.534Z" transform="translate(54.185 63.275)" fill="#000f39"/>
                <line id="Línea_701" data-name="Línea 701" x1="20.604" y2="161.839" transform="translate(274.127 361.048)" fill="none" stroke="#f6f9ff" stroke-linecap="round" stroke-linejoin="round" stroke-width="1.427"/>
                <line id="Línea_702" data-name="Línea 702" x1="43.17" y1="0.209" transform="translate(267.056 522.887)" fill="none" stroke="#000f39" stroke-linecap="round" stroke-linejoin="round" stroke-width="1.427"/>
                <path id="Trazado_1219727" data-name="Trazado 1219727" d="M257.809,418.351l-1.583,6,58.138.014-11.188-5.794Z" transform="translate(65.715 107.296)" fill="#5f64c1"/>
                <path id="Trazado_1219728" data-name="Trazado 1219728" d="M242.03,247.053l19.259,215.536h45.528l-20.248-215.88Z" transform="translate(62.074 63.275)" fill="#000f39"/>
                <line id="Línea_703" data-name="Línea 703" y1="10.307" x2="11.296" transform="translate(321.94 349.567)" fill="none" stroke="#f6f9ff" stroke-linecap="round" stroke-linejoin="round" stroke-width="1.427"/>
                <line id="Línea_704" data-name="Línea 704" y1="0.209" x2="7.808" transform="translate(323.658 364.402)" fill="none" stroke="#f6f9ff" stroke-linecap="round" stroke-linejoin="round" stroke-width="1.427"/>
                <line id="Línea_705" data-name="Línea 705" x2="20.604" y2="161.839" transform="translate(340.708 361.048)" fill="none" stroke="#f6f9ff" stroke-linecap="round" stroke-linejoin="round" stroke-width="1.427"/>
                <line id="Línea_706" data-name="Línea 706" y1="0.209" x2="43.17" transform="translate(324.118 522.887)" fill="none" stroke="#000f39" stroke-linecap="round" stroke-linejoin="round" stroke-width="1.427"/>
                <path id="Trazado_1219729" data-name="Trazado 1219729" d="M279.919,209.375l9.525,47.439S262,270.541,227.018,262.207l7.31-47.035,20.626-4.18Z" transform="translate(58.224 53.699)" fill="#5f64c1"/>
                <path id="Trazado_1219730" data-name="Trazado 1219730" d="M245.091,195.827l-3.725,22.531,15.195-.985-6.683-21.546Z" transform="translate(61.904 50.225)" fill="#ea9b7a"/>
                <line id="Línea_707" data-name="Línea 707" x1="11.296" y1="10.307" transform="translate(304.745 349.567)" fill="none" stroke="#f6f9ff" stroke-linecap="round" stroke-linejoin="round" stroke-width="1.427"/>
                <line id="Línea_708" data-name="Línea 708" x1="7.808" y1="0.209" transform="translate(306.515 364.402)" fill="none" stroke="#f6f9ff" stroke-linecap="round" stroke-linejoin="round" stroke-width="1.427"/>
                <path id="Trazado_1219731" data-name="Trazado 1219731" d="M228.73,250.492c7.391-14.1,5.9-32.975,5.9-32.975" transform="translate(58.663 55.788)" fill="none" stroke="#000f39" stroke-linecap="round" stroke-linejoin="round" stroke-width="1.427"/>
                <path id="Trazado_1219732" data-name="Trazado 1219732" d="M275.888,245.872c-7.391-14.1-5.9-32.975-5.9-32.975" transform="translate(69.214 54.603)" fill="none" stroke="#000f39" stroke-linecap="round" stroke-linejoin="round" stroke-width="1.427"/>
                <path id="Trazado_1219733" data-name="Trazado 1219733" d="M271.682,172.692l-8.151-7.015c1.44-1.654,7.148-.024,7.148-.024s.368-5.276-.441-7.834-5.506-5.684-4.8-6.85,3.127.494,3.127.494-1.549-1.975-.647-2.838,3.376,1.547,3.376,1.547-.281-1.361.646-1.642,3.5,2.1,3.5,2.1-.544-1.06.038-1.458,5.835,3.641,6.622,6.326a76.2,76.2,0,0,1,1.361,9.773Z" transform="translate(67.589 38.07)" fill="#ea9b7a"/>
                <path id="Trazado_1219734" data-name="Trazado 1219734" d="M267.82,151.068a12.87,12.87,0,0,1,3.59,4.53" transform="translate(68.689 38.745)" fill="none" stroke="#000f39" stroke-linecap="round" stroke-linejoin="round" stroke-width="0.613"/>
                <path id="Trazado_1219735" data-name="Trazado 1219735" d="M269.966,150.15a22.277,22.277,0,0,1,2.446,3.2" transform="translate(69.239 38.51)" fill="none" stroke="#000f39" stroke-linecap="round" stroke-linejoin="round" stroke-width="0.613"/>
                <path id="Trazado_1219736" data-name="Trazado 1219736" d="M273.284,150.431a9.748,9.748,0,0,1,1.411,2.406" transform="translate(70.09 38.582)" fill="none" stroke="#000f39" stroke-linecap="round" stroke-linejoin="round" stroke-width="0.613"/>
                <path id="Trazado_1219737" data-name="Trazado 1219737" d="M258.386,197.31c.519,3.909-4.452,12.748-9.049,12.748s-11.614-8.765-11.614-12.709,3.3-7.457,10.719-7.139c4.592.2,9.347,2.606,9.944,7.1" transform="translate(60.97 48.779)" fill="#000f39"/>
                <path id="Trazado_1219738" data-name="Trazado 1219738" d="M239.071,201.675l-1.535-6.487a2.929,2.929,0,0,1,1.248-2.945,6.843,6.843,0,0,0,2.876-4.678c.416-2.079,1.836-3.258,3.292-3.016s1.248,1.871,1.248,1.871,1.836-2.91,4.851-2.147a2.235,2.235,0,0,1,1.559,3.43s4.954-1.628,5.959.763-1.94,3.836-1.94,3.836,2.46,2.713-2.01,4.065Z" transform="translate(60.91 47.229)" fill="#000f39"/>
              </g>
            </g>
          </g>
        </g>
        <g id="Rectángulo_424195" data-name="Rectángulo 424195" transform="translate(516 5227)" fill="#000f39" stroke="#000f39" stroke-width="1">
          <rect width="549" height="12" rx="5" stroke="none"/>
          <rect x="0.5" y="0.5" width="548" height="11" rx="4.5" fill="none"/>
        </g>
      </g>
    </g>
    <g id="Grupo_1242439" data-name="Grupo 1242439">
      <g id="Trazado_1215065" data-name="Trazado 1215065" transform="translate(1080.903 4887)" fill="#fff">
        <path d="M 102.4369430541992 33.5078125 L 10.6326208114624 33.5078125 C 8.049497604370117 33.5078125 5.600128650665283 31.98781394958496 3.735713243484497 29.22782897949219 C 1.810343980789185 26.37759780883789 0.7500055432319641 22.57401466369629 0.7500055432319641 18.51773643493652 L 0.7500055432319641 15.74007511138916 C 0.7500055432319641 11.68379878997803 1.810343980789185 7.880213737487793 3.735713243484497 5.029983043670654 C 5.600128650665283 2.269998550415039 8.049497604370117 0.7499985694885254 10.6326208114624 0.7499985694885254 L 102.4369430541992 0.7499985694885254 C 105.0200653076172 0.7499985694885254 107.4694366455078 2.269998550415039 109.3338394165039 5.029983043670654 C 111.2592086791992 7.880213737487793 112.3195419311523 11.68379878997803 112.3195419311523 15.74007511138916 L 112.3195419311523 18.51773643493652 C 112.3195419311523 22.57401466369629 111.2592086791992 26.37759780883789 109.3338394165039 29.22782897949219 C 107.4694366455078 31.98781394958496 105.0200653076172 33.5078125 102.4369430541992 33.5078125 Z" stroke="none"/>
        <path d="M 10.63260650634766 1.5 C 8.306419372558594 1.5 6.077774047851562 2.902736663818359 4.357192993164062 5.449813842773438 C 2.51470947265625 8.177352905273438 1.500007629394531 11.83184432983398 1.500007629394531 15.74007606506348 L 1.500007629394531 18.51773834228516 C 1.500007629394531 22.42596817016602 2.51470947265625 26.08045959472656 4.357192993164062 28.80799865722656 C 6.077774047851562 31.35507583618164 8.306419372558594 32.7578125 10.63260650634766 32.7578125 L 102.4369430541992 32.7578125 C 104.7631301879883 32.7578125 106.9917755126953 31.35507583618164 108.7123413085938 28.80799865722656 C 110.5548400878906 26.08045959472656 111.5695419311523 22.42596817016602 111.5695419311523 18.51773834228516 L 111.5695419311523 15.74007606506348 C 111.5695419311523 11.83184432983398 110.5548400878906 8.177352905273438 108.7123413085938 5.449813842773438 C 106.9917755126953 2.902736663818359 104.7631301879883 1.5 102.4369430541992 1.5 L 10.63260650634766 1.5 M 10.63260650634766 0 L 102.4369430541992 0 C 108.3091583251953 0 113.0695419311523 7.047075271606445 113.0695419311523 15.74007606506348 L 113.0695419311523 18.51773834228516 C 113.0695419311523 27.21073722839355 108.3091583251953 34.2578125 102.4369430541992 34.2578125 L 10.63260650634766 34.2578125 C 4.7603759765625 34.2578125 7.62939453125e-06 27.21073722839355 7.62939453125e-06 18.51773834228516 L 7.62939453125e-06 15.74007606506348 C 7.62939453125e-06 7.047075271606445 4.7603759765625 0 10.63260650634766 0 Z" stroke="none" fill="#453179"/>
      </g>
      <path id="Trazado_1221504" data-name="Trazado 1221504" d="M7,0H1.121V-9.8H6.774V-8H3.329v2.181H6.535v1.791H3.329v2.242H7Zm8.027-7-2.6,7H9.961L7.48-7H9.79l1.217,4.313a6.3,6.3,0,0,1,.239,1.244h.027a7.061,7.061,0,0,1,.253-1.2L12.771-7Zm6.537,7H19.519V-1h-.027A2.281,2.281,0,0,1,17.407.171a2.181,2.181,0,0,1-1.6-.578,2.07,2.07,0,0,1-.584-1.542q0-2.037,2.413-2.352l1.9-.253q0-1.148-1.244-1.148a4.247,4.247,0,0,0-2.379.745V-6.583a5.352,5.352,0,0,1,1.234-.41,6.486,6.486,0,0,1,1.425-.178,2.643,2.643,0,0,1,2.994,2.987Zm-2.03-2.844v-.472l-1.271.164q-1.053.137-1.053.95a.785.785,0,0,0,.256.6.985.985,0,0,0,.694.236,1.279,1.279,0,0,0,.991-.42A1.518,1.518,0,0,0,19.533-2.844ZM25.434,0h-2.16V-10.363h2.16Zm8.471,0H31.752V-1.066h-.034A2.443,2.443,0,0,1,29.578.171q-2.434,0-2.434-2.946V-7H29.3v4.033q0,1.483,1.176,1.483a1.163,1.163,0,0,0,.93-.407,1.64,1.64,0,0,0,.349-1.1V-7h2.153Zm7.644,0H39.505V-1h-.027A2.281,2.281,0,0,1,37.393.171a2.181,2.181,0,0,1-1.6-.578,2.07,2.07,0,0,1-.584-1.542q0-2.037,2.413-2.352l1.9-.253q0-1.148-1.244-1.148a4.247,4.247,0,0,0-2.379.745V-6.583a5.352,5.352,0,0,1,1.234-.41,6.486,6.486,0,0,1,1.425-.178,2.643,2.643,0,0,1,2.994,2.987Zm-2.03-2.844v-.472l-1.271.164q-1.053.137-1.053.95a.785.785,0,0,0,.256.6.985.985,0,0,0,.694.236,1.279,1.279,0,0,0,.991-.42A1.518,1.518,0,0,0,39.519-2.844ZM48.564-.253a4.271,4.271,0,0,1-2.112.424A3.572,3.572,0,0,1,43.84-.807a3.376,3.376,0,0,1-1-2.522,3.719,3.719,0,0,1,1.07-2.813,3.954,3.954,0,0,1,2.861-1.029,3.671,3.671,0,0,1,1.791.328v1.832a2.463,2.463,0,0,0-1.511-.506,1.991,1.991,0,0,0-1.473.543,2.028,2.028,0,0,0-.543,1.5,2,2,0,0,0,.52,1.459,1.909,1.909,0,0,0,1.429.53,2.851,2.851,0,0,0,1.579-.506Zm2.51-7.854a1.262,1.262,0,0,1-.9-.325,1.046,1.046,0,0,1-.349-.8,1.009,1.009,0,0,1,.349-.793,1.3,1.3,0,0,1,.9-.308,1.3,1.3,0,0,1,.9.308,1.013,1.013,0,0,1,.345.793,1.042,1.042,0,0,1-.345.807A1.283,1.283,0,0,1,51.074-8.107ZM52.141,0h-2.16V-7h2.16ZM57.3.171A3.763,3.763,0,0,1,54.545-.81a3.556,3.556,0,0,1-1-2.663A3.556,3.556,0,0,1,54.582-6.19a3.926,3.926,0,0,1,2.81-.981,3.718,3.718,0,0,1,2.734.981A3.487,3.487,0,0,1,61.118-3.6,3.7,3.7,0,0,1,60.1-.841,3.8,3.8,0,0,1,57.3.171Zm.055-5.687a1.441,1.441,0,0,0-1.189.526,2.321,2.321,0,0,0-.424,1.49q0,2.017,1.627,2.017,1.552,0,1.552-2.071Q58.916-5.517,57.351-5.517Zm2.317-4.8-2.14,2.208H55.97l1.777-2.208ZM69.274,0H67.121V-3.89q0-1.627-1.162-1.627a1.153,1.153,0,0,0-.923.431,1.641,1.641,0,0,0-.362,1.094V0h-2.16V-7h2.16v1.107H64.7A2.475,2.475,0,0,1,66.95-7.171q2.324,0,2.324,2.885Z" transform="translate(1109.902 4909)" fill="#0b0a0a"/>
      <g id="Trazado_1160533" data-name="Trazado 1160533" transform="translate(1048.903 4873.14)" fill="#fff">
        <path d="M 27.50000190734863 53.25 C 23.88675117492676 53.25 20.38210105895996 52.555419921875 17.08340263366699 51.1855583190918 C 13.89773178100586 49.86262893676758 11.03678226470947 47.96881866455078 8.580012321472168 45.55670928955078 C 6.124191761016846 43.14553833007812 4.196301937103271 40.3382682800293 2.849891901016235 37.212890625 C 1.456501960754395 33.97845077514648 0.7500019073486328 30.54233932495117 0.7500019073486328 27 C 0.7500019073486328 23.45766067504883 1.456501960754395 20.02154922485352 2.849891901016235 16.787109375 C 4.196301937103271 13.66172981262207 6.124191761016846 10.85445976257324 8.580012321472168 8.443289756774902 C 11.03678226470947 6.031179904937744 13.89773178100586 4.137370109558105 17.08340263366699 2.814440011978149 C 20.38210105895996 1.44457995891571 23.88675117492676 0.75 27.50000190734863 0.75 C 31.11325263977051 0.75 34.61790084838867 1.44457995891571 37.91660308837891 2.814440011978149 C 41.10227203369141 4.137370109558105 43.96322250366211 6.031179904937744 46.42000198364258 8.443289756774902 C 48.87582015991211 10.85445976257324 50.8037109375 13.66172981262207 52.15012359619141 16.7871208190918 C 53.54350280761719 20.02154922485352 54.2500114440918 23.45766067504883 54.2500114440918 27 C 54.2500114440918 30.54233932495117 53.54350280761719 33.97845077514648 52.15012359619141 37.2128791809082 C 50.8037109375 40.3382682800293 48.87582015991211 43.14553833007812 46.42000198364258 45.55670928955078 C 43.96322250366211 47.96881866455078 41.10227203369141 49.86262893676758 37.91660308837891 51.1855583190918 C 34.61790084838867 52.555419921875 31.11325263977051 53.25 27.50000190734863 53.25 Z" stroke="none"/>
        <path d="M 27.50000190734863 1.5 C 23.98597145080566 1.5 20.57810211181641 2.175281524658203 17.37104034423828 3.507091522216797 C 14.27439117431641 4.793048858642578 11.49344253540039 6.633888244628906 9.105442047119141 8.978458404541016 C 6.7193603515625 11.32115936279297 4.846431732177734 14.04821014404297 3.538681030273438 17.0838508605957 C 2.1859130859375 20.22401809692383 1.499992370605469 23.56030082702637 1.499992370605469 27 C 1.499992370605469 30.43969917297363 2.1859130859375 33.77597808837891 3.538681030273438 36.9161491394043 C 4.846431732177734 39.95178985595703 6.7193603515625 42.67884063720703 9.105442047119141 45.02153778076172 C 11.49344253540039 47.36611175537109 14.27439117431641 49.20695114135742 17.37104034423828 50.4929084777832 C 20.57810211181641 51.8247184753418 23.98597145080566 52.5 27.50000190734863 52.5 C 31.0140323638916 52.5 34.42190170288086 51.8247184753418 37.62895965576172 50.4929084777832 C 40.72561264038086 49.20695114135742 43.50656127929688 47.36611938476562 45.89455413818359 45.02153778076172 C 48.28064346313477 42.67884063720703 50.15356063842773 39.95178985595703 51.46131134033203 36.9161491394043 C 52.81409072875977 33.77597808837891 53.5 30.43969917297363 53.5 27 C 53.5 23.56030082702637 52.81409072875977 20.22401809692383 51.46131134033203 17.0838508605957 C 50.15356063842773 14.04821014404297 48.28064346313477 11.32115936279297 45.89455413818359 8.978458404541016 C 43.50656127929688 6.633880615234375 40.72561264038086 4.793048858642578 37.62895965576172 3.507091522216797 C 34.42190170288086 2.175281524658203 31.0140323638916 1.5 27.50000190734863 1.5 M 27.50000190734863 0 C 42.68783187866211 0 55 12.08831024169922 55 27 C 55 41.91168975830078 42.68783187866211 54 27.50000190734863 54 C 12.31217193603516 54 -7.62939453125e-06 41.91168975830078 -7.62939453125e-06 27 C -7.62939453125e-06 12.08831024169922 12.31217193603516 0 27.50000190734863 0 Z" stroke="none" fill="#453179"/>
      </g>
      <g id="Trazado_1215065-2" data-name="Trazado 1215065" transform="translate(416.715 4780.582)" fill="#fff">
        <path d="M 116.0006713867188 33.50780487060547 L 12.04048538208008 33.50780487060547 C 5.81488561630249 33.50780487060547 0.7500022053718567 26.78328895568848 0.7500022053718567 18.51774024963379 L 0.7500022053718567 15.74007320404053 C 0.7500022053718567 7.474523067474365 5.81488561630249 0.7500062584877014 12.04048538208008 0.7500062584877014 L 116.0006713867188 0.7500062584877014 C 122.2262496948242 0.7500062584877014 127.2911376953125 7.474523067474365 127.2911376953125 15.74007320404053 L 127.2911376953125 18.51774024963379 C 127.2911376953125 26.78328895568848 122.2262496948242 33.50780487060547 116.0006713867188 33.50780487060547 Z" stroke="none"/>
        <path d="M 12.04048156738281 1.499996185302734 C 9.302261352539062 1.499996185302734 6.701751708984375 2.928197860717773 4.717971801757812 5.521524429321289 C 2.642845153808594 8.234270095825195 1.500007629394531 11.86328887939453 1.500007629394531 15.74007034301758 L 1.500007629394531 18.51774215698242 C 1.500007629394531 22.39452362060547 2.642845153808594 26.0235424041748 4.717971801757812 28.73628807067871 C 6.701751708984375 31.32961463928223 9.302261352539062 32.75781631469727 12.04048156738281 32.75781631469727 L 116.0006561279297 32.75781631469727 C 118.7388763427734 32.75781631469727 121.3393859863281 31.32961463928223 123.3231658935547 28.73628807067871 C 125.3982925415039 26.0235424041748 126.541130065918 22.39452362060547 126.541130065918 18.51774215698242 L 126.541130065918 15.74007034301758 C 126.541130065918 11.86328887939453 125.3982925415039 8.234270095825195 123.3231658935547 5.521524429321289 C 121.3393859863281 2.928197860717773 118.7388763427734 1.499996185302734 116.0006561279297 1.499996185302734 L 12.04048156738281 1.499996185302734 M 12.04048156738281 -3.814697265625e-06 L 116.0006561279297 -3.814697265625e-06 C 122.6504211425781 -3.814697265625e-06 128.0411376953125 7.047069549560547 128.0411376953125 15.74007034301758 L 128.0411376953125 18.51774215698242 C 128.0411376953125 27.21074295043945 122.6504211425781 34.25781631469727 116.0006561279297 34.25781631469727 L 12.04048156738281 34.25781631469727 C 5.390716552734375 34.25781631469727 0 27.21074295043945 0 18.51774215698242 L 0 15.74007034301758 C 0 7.047069549560547 5.390716552734375 -3.814697265625e-06 12.04048156738281 -3.814697265625e-06 Z" stroke="none" fill="#453179"/>
      </g>
      <path id="Trazado_1221502" data-name="Trazado 1221502" d="M3.329-3.377V0H1.121V-9.8H4.58q3.705,0,3.705,3.124A3,3,0,0,1,7.222-4.29a4.211,4.211,0,0,1-2.84.913Zm0-4.73v3.056H4.2q1.764,0,1.764-1.545,0-1.511-1.764-1.511ZM11.67,0H9.51V-10.363h2.16Zm7.644,0H17.27V-1h-.027A2.281,2.281,0,0,1,15.158.171a2.181,2.181,0,0,1-1.6-.578,2.07,2.07,0,0,1-.584-1.542q0-2.037,2.413-2.352l1.9-.253q0-1.148-1.244-1.148a4.247,4.247,0,0,0-2.379.745V-6.583a5.352,5.352,0,0,1,1.234-.41,6.486,6.486,0,0,1,1.425-.178,2.643,2.643,0,0,1,2.994,2.987Zm-2.03-2.844v-.472l-1.271.164q-1.053.137-1.053.95a.785.785,0,0,0,.256.6.985.985,0,0,0,.694.236,1.279,1.279,0,0,0,.991-.42A1.518,1.518,0,0,0,17.284-2.844ZM27.785,0H25.632V-3.89q0-1.627-1.162-1.627a1.153,1.153,0,0,0-.923.431,1.641,1.641,0,0,0-.362,1.094V0h-2.16V-7h2.16v1.107h.027a2.475,2.475,0,0,1,2.249-1.278q2.324,0,2.324,2.885Zm2.8-8.107a1.262,1.262,0,0,1-.9-.325,1.046,1.046,0,0,1-.349-.8,1.009,1.009,0,0,1,.349-.793,1.3,1.3,0,0,1,.9-.308,1.3,1.3,0,0,1,.9.308,1.013,1.013,0,0,1,.345.793,1.042,1.042,0,0,1-.345.807A1.283,1.283,0,0,1,30.59-8.107ZM31.656,0H29.5V-7h2.16Zm6.386-8.709a2.182,2.182,0,0,0-.8-.164q-1.039,0-1.039,1.128V-7h1.6v1.593H36.2V0H34.05V-5.407H32.874V-7H34.05v-.868A2.52,2.52,0,0,1,34.829-9.8a2.972,2.972,0,0,1,2.119-.731,3.722,3.722,0,0,1,1.094.137Zm1.895.6a1.262,1.262,0,0,1-.9-.325,1.046,1.046,0,0,1-.349-.8,1.009,1.009,0,0,1,.349-.793,1.3,1.3,0,0,1,.9-.308,1.3,1.3,0,0,1,.9.308,1.013,1.013,0,0,1,.345.793,1.042,1.042,0,0,1-.345.807A1.283,1.283,0,0,1,39.937-8.107ZM41,0h-2.16V-7H41Zm7.124-.253a4.271,4.271,0,0,1-2.112.424A3.572,3.572,0,0,1,43.4-.807a3.376,3.376,0,0,1-1-2.522,3.719,3.719,0,0,1,1.07-2.813,3.954,3.954,0,0,1,2.861-1.029,3.671,3.671,0,0,1,1.791.328v1.832a2.463,2.463,0,0,0-1.511-.506,1.991,1.991,0,0,0-1.473.543,2.028,2.028,0,0,0-.543,1.5,2,2,0,0,0,.52,1.459,1.909,1.909,0,0,0,1.429.53,2.851,2.851,0,0,0,1.579-.506ZM55.369,0H53.325V-1H53.3A2.281,2.281,0,0,1,51.212.171a2.181,2.181,0,0,1-1.6-.578,2.07,2.07,0,0,1-.584-1.542q0-2.037,2.413-2.352l1.9-.253q0-1.148-1.244-1.148a4.247,4.247,0,0,0-2.379.745V-6.583a5.352,5.352,0,0,1,1.234-.41,6.486,6.486,0,0,1,1.425-.178,2.643,2.643,0,0,1,2.994,2.987Zm-2.03-2.844v-.472l-1.271.164q-1.053.137-1.053.95a.785.785,0,0,0,.256.6.985.985,0,0,0,.694.236,1.279,1.279,0,0,0,.991-.42A1.518,1.518,0,0,0,53.338-2.844ZM62.384-.253a4.271,4.271,0,0,1-2.112.424A3.572,3.572,0,0,1,57.66-.807a3.376,3.376,0,0,1-1-2.522,3.719,3.719,0,0,1,1.07-2.813,3.954,3.954,0,0,1,2.861-1.029,3.671,3.671,0,0,1,1.791.328v1.832a2.463,2.463,0,0,0-1.511-.506,1.991,1.991,0,0,0-1.473.543,2.028,2.028,0,0,0-.543,1.5,2,2,0,0,0,.52,1.459,1.909,1.909,0,0,0,1.429.53,2.851,2.851,0,0,0,1.579-.506Zm2.51-7.854a1.262,1.262,0,0,1-.9-.325,1.046,1.046,0,0,1-.349-.8A1.009,1.009,0,0,1,64-10.021a1.3,1.3,0,0,1,.9-.308,1.3,1.3,0,0,1,.9.308,1.013,1.013,0,0,1,.345.793,1.042,1.042,0,0,1-.345.807A1.283,1.283,0,0,1,64.894-8.107ZM65.96,0H63.8V-7h2.16Zm5.156.171A3.763,3.763,0,0,1,68.365-.81a3.556,3.556,0,0,1-1-2.663A3.556,3.556,0,0,1,68.4-6.19a3.926,3.926,0,0,1,2.81-.981,3.718,3.718,0,0,1,2.734.981A3.487,3.487,0,0,1,74.937-3.6,3.7,3.7,0,0,1,73.915-.841,3.8,3.8,0,0,1,71.116.171Zm.055-5.687a1.441,1.441,0,0,0-1.189.526,2.321,2.321,0,0,0-.424,1.49q0,2.017,1.627,2.017,1.552,0,1.552-2.071Q72.736-5.517,71.171-5.517Zm2.317-4.8-2.14,2.208H69.79l1.777-2.208ZM83.094,0H80.941V-3.89q0-1.627-1.162-1.627a1.153,1.153,0,0,0-.923.431,1.641,1.641,0,0,0-.362,1.094V0h-2.16V-7h2.16v1.107h.027A2.475,2.475,0,0,1,80.77-7.171q2.324,0,2.324,2.885Z" transform="translate(429.756 4802.582)" fill="#0b0a0a"/>
      <g id="Trazado_1160533-2" data-name="Trazado 1160533" transform="translate(522.756 4770.14)" fill="#fff">
        <path d="M 27.50000190734863 53.25 C 23.88675117492676 53.25 20.38210105895996 52.555419921875 17.08340263366699 51.1855583190918 C 13.89773178100586 49.86262893676758 11.03678226470947 47.96881866455078 8.580012321472168 45.55670928955078 C 6.124191761016846 43.14553833007812 4.196301937103271 40.3382682800293 2.849891901016235 37.212890625 C 1.456501960754395 33.97845077514648 0.7500019073486328 30.54233932495117 0.7500019073486328 27 C 0.7500019073486328 23.45766067504883 1.456501960754395 20.02154922485352 2.849891901016235 16.787109375 C 4.196301937103271 13.66172981262207 6.124191761016846 10.85445976257324 8.580012321472168 8.443289756774902 C 11.03678226470947 6.031179904937744 13.89773178100586 4.137370109558105 17.08340263366699 2.814440011978149 C 20.38210105895996 1.44457995891571 23.88675117492676 0.75 27.50000190734863 0.75 C 31.11325263977051 0.75 34.61790084838867 1.44457995891571 37.91660308837891 2.814440011978149 C 41.10227203369141 4.137370109558105 43.96322250366211 6.031179904937744 46.42000198364258 8.443289756774902 C 48.87582015991211 10.85445976257324 50.8037109375 13.66172981262207 52.15012359619141 16.7871208190918 C 53.54350280761719 20.02154922485352 54.2500114440918 23.45766067504883 54.2500114440918 27 C 54.2500114440918 30.54233932495117 53.54350280761719 33.97845077514648 52.15012359619141 37.2128791809082 C 50.8037109375 40.3382682800293 48.87582015991211 43.14553833007812 46.42000198364258 45.55670928955078 C 43.96322250366211 47.96881866455078 41.10227203369141 49.86262893676758 37.91660308837891 51.1855583190918 C 34.61790084838867 52.555419921875 31.11325263977051 53.25 27.50000190734863 53.25 Z" stroke="none"/>
        <path d="M 27.50000190734863 1.5 C 23.98597145080566 1.5 20.57810211181641 2.175281524658203 17.37104034423828 3.507091522216797 C 14.27439117431641 4.793048858642578 11.49344253540039 6.633888244628906 9.105442047119141 8.978458404541016 C 6.7193603515625 11.32115936279297 4.846431732177734 14.04821014404297 3.538681030273438 17.0838508605957 C 2.1859130859375 20.22401809692383 1.499992370605469 23.56030082702637 1.499992370605469 27 C 1.499992370605469 30.43969917297363 2.1859130859375 33.77597808837891 3.538681030273438 36.9161491394043 C 4.846431732177734 39.95178985595703 6.7193603515625 42.67884063720703 9.105442047119141 45.02153778076172 C 11.49344253540039 47.36611175537109 14.27439117431641 49.20695114135742 17.37104034423828 50.4929084777832 C 20.57810211181641 51.8247184753418 23.98597145080566 52.5 27.50000190734863 52.5 C 31.0140323638916 52.5 34.42190170288086 51.8247184753418 37.62895965576172 50.4929084777832 C 40.72561264038086 49.20695114135742 43.50656127929688 47.36611938476562 45.89455413818359 45.02153778076172 C 48.28064346313477 42.67884063720703 50.15356063842773 39.95178985595703 51.46131134033203 36.9161491394043 C 52.81409072875977 33.77597808837891 53.5 30.43969917297363 53.5 27 C 53.5 23.56030082702637 52.81409072875977 20.22401809692383 51.46131134033203 17.0838508605957 C 50.15356063842773 14.04821014404297 48.28064346313477 11.32115936279297 45.89455413818359 8.978458404541016 C 43.50656127929688 6.633880615234375 40.72561264038086 4.793048858642578 37.62895965576172 3.507091522216797 C 34.42190170288086 2.175281524658203 31.0140323638916 1.5 27.50000190734863 1.5 M 27.50000190734863 0 C 42.68783187866211 0 55 12.08831024169922 55 27 C 55 41.91168975830078 42.68783187866211 54 27.50000190734863 54 C 12.31217193603516 54 -7.62939453125e-06 41.91168975830078 -7.62939453125e-06 27 C -7.62939453125e-06 12.08831024169922 12.31217193603516 0 27.50000190734863 0 Z" stroke="none" fill="#453179"/>
      </g>
      <g id="Trazado_1215065-3" data-name="Trazado 1215065" transform="translate(435.353 4973.582)" fill="#fff">
        <path d="M 101.8326950073242 33.50782012939453 L 10.5698938369751 33.50782012939453 C 8.004379272460938 33.50782012939453 5.571165561676025 31.98843574523926 3.718493938446045 29.22953414916992 C 1.804236769676208 26.37891960144043 0.750008225440979 22.57473564147949 0.750008225440979 18.51773452758789 L 0.750008225440979 15.74007797241211 C 0.750008225440979 11.68307781219482 1.804236769676208 7.878891944885254 3.718493938446045 5.028292179107666 C 5.571165561676025 2.269392013549805 8.004379272460938 0.7500062584877014 10.5698938369751 0.7500062584877014 L 101.8326950073242 0.7500062584877014 C 104.3982238769531 0.7500062584877014 106.8314208984375 2.269392013549805 108.6841049194336 5.028292179107666 C 110.5983657836914 7.878891944885254 111.6525955200195 11.68307781219482 111.6525955200195 15.74007797241211 L 111.6525955200195 18.51773452758789 C 111.6525955200195 22.57473564147949 110.5983657836914 26.37891960144043 108.6841049194336 29.22953414916992 C 106.8314208984375 31.98843574523926 104.3982238769531 33.50782012939453 101.8326950073242 33.50782012939453 Z" stroke="none"/>
        <path d="M 10.56989288330078 1.5 C 8.262168884277344 1.5 6.050079345703125 2.901521682739258 4.34112548828125 5.44639778137207 C 2.509002685546875 8.174690246582031 1.5 11.83039855957031 1.5 15.74007606506348 L 1.5 18.51773834228516 C 1.5 22.42741394042969 2.509002685546875 26.08312225341797 4.34112548828125 28.8114128112793 C 6.050079345703125 31.35629081726074 8.262168884277344 32.7578125 10.56989288330078 32.7578125 L 101.8326950073242 32.7578125 C 104.1404190063477 32.7578125 106.3525085449219 31.35629081726074 108.0614624023438 28.8114128112793 C 109.8935852050781 26.08312225341797 110.902587890625 22.42741394042969 110.902587890625 18.51773834228516 L 110.902587890625 15.74007606506348 C 110.902587890625 11.83039855957031 109.8935852050781 8.174690246582031 108.0614624023438 5.44639778137207 C 106.3525085449219 2.901521682739258 104.1404190063477 1.5 101.8326950073242 1.5 L 10.56989288330078 1.5 M 10.56989288330078 0 L 101.8326950073242 0 C 107.670280456543 0 112.402587890625 7.047075271606445 112.402587890625 15.74007606506348 L 112.402587890625 18.51773834228516 C 112.402587890625 27.21073722839355 107.670280456543 34.2578125 101.8326950073242 34.2578125 L 10.56989288330078 34.2578125 C 4.732307434082031 34.2578125 0 27.21073722839355 0 18.51773834228516 L 0 15.74007606506348 C 0 7.047075271606445 4.732307434082031 0 10.56989288330078 0 Z" stroke="none" fill="#453179"/>
      </g>
      <path id="Trazado_1221503" data-name="Trazado 1221503" d="M12.291,0H10.11V-5.865q0-.95.082-2.1h-.055a10.327,10.327,0,0,1-.308,1.3L7.533,0h-1.8L3.391-6.6a12.837,12.837,0,0,1-.308-1.367H3.021q.089,1.449.089,2.543V0H1.121V-9.8H4.354l2,5.811a8.181,8.181,0,0,1,.349,1.4h.041a14.111,14.111,0,0,1,.39-1.415l2-5.8h3.151Zm5.354.171A3.763,3.763,0,0,1,14.893-.81a3.556,3.556,0,0,1-1-2.663A3.556,3.556,0,0,1,14.931-6.19a3.926,3.926,0,0,1,2.81-.981,3.718,3.718,0,0,1,2.734.981A3.487,3.487,0,0,1,21.466-3.6,3.7,3.7,0,0,1,20.444-.841,3.8,3.8,0,0,1,17.645.171ZM17.7-5.517a1.441,1.441,0,0,0-1.189.526,2.321,2.321,0,0,0-.424,1.49q0,2.017,1.627,2.017,1.552,0,1.552-2.071Q19.265-5.517,17.7-5.517ZM29.63,0H27.476V-3.89q0-1.627-1.162-1.627a1.153,1.153,0,0,0-.923.431,1.641,1.641,0,0,0-.362,1.094V0h-2.16V-7h2.16v1.107h.027a2.475,2.475,0,0,1,2.249-1.278q2.324,0,2.324,2.885Zm2.8-8.107a1.262,1.262,0,0,1-.9-.325,1.046,1.046,0,0,1-.349-.8,1.009,1.009,0,0,1,.349-.793,1.3,1.3,0,0,1,.9-.308,1.3,1.3,0,0,1,.9.308,1.013,1.013,0,0,1,.345.793,1.042,1.042,0,0,1-.345.807A1.283,1.283,0,0,1,32.434-8.107ZM33.5,0H31.34V-7H33.5Zm6.051-.082a3.193,3.193,0,0,1-1.442.253q-2.283,0-2.283-2.372V-5.407H34.691V-7h1.135V-8.511l2.153-.615V-7h1.572v1.593H37.979v2.83q0,1.094.868,1.094a1.464,1.464,0,0,0,.7-.2Zm4.5.253A3.763,3.763,0,0,1,41.3-.81a3.556,3.556,0,0,1-1-2.663A3.556,3.556,0,0,1,41.337-6.19a3.926,3.926,0,0,1,2.81-.981,3.718,3.718,0,0,1,2.734.981A3.487,3.487,0,0,1,47.872-3.6,3.7,3.7,0,0,1,46.85-.841,3.8,3.8,0,0,1,44.051.171Zm.055-5.687a1.441,1.441,0,0,0-1.189.526,2.321,2.321,0,0,0-.424,1.49q0,2.017,1.627,2.017,1.552,0,1.552-2.071Q45.671-5.517,44.106-5.517Zm9.736.465a1.874,1.874,0,0,0-.909-.212,1.31,1.31,0,0,0-1.1.516,2.252,2.252,0,0,0-.4,1.4V0h-2.16V-7h2.16v1.3h.027a1.869,1.869,0,0,1,1.846-1.422,1.391,1.391,0,0,1,.533.082Zm7.241,2.167H56.516q.109,1.524,1.921,1.524a3.75,3.75,0,0,0,2.03-.547V-.349a5.334,5.334,0,0,1-2.522.52,3.551,3.551,0,0,1-2.632-.94,3.551,3.551,0,0,1-.937-2.622,3.746,3.746,0,0,1,1.012-2.762,3.371,3.371,0,0,1,2.488-1.019,3.059,3.059,0,0,1,2.369.909,3.5,3.5,0,0,1,.837,2.468Zm-2-1.326q0-1.5-1.217-1.5a1.162,1.162,0,0,0-.9.431A1.955,1.955,0,0,0,56.5-4.211ZM65.7.171A3.763,3.763,0,0,1,62.953-.81a3.556,3.556,0,0,1-1-2.663A3.556,3.556,0,0,1,62.991-6.19a3.926,3.926,0,0,1,2.81-.981,3.718,3.718,0,0,1,2.734.981A3.487,3.487,0,0,1,69.526-3.6,3.7,3.7,0,0,1,68.5-.841,3.8,3.8,0,0,1,65.7.171Zm.055-5.687a1.441,1.441,0,0,0-1.189.526,2.321,2.321,0,0,0-.424,1.49q0,2.017,1.627,2.017,1.552,0,1.552-2.071Q67.325-5.517,65.759-5.517Z" transform="translate(449.756 4995.582)" fill="#0b0a0a"/>
      <g id="Trazado_1160533-3" data-name="Trazado 1160533" transform="translate(525.756 4963.14)" fill="#fff">
        <path d="M 27.50000190734863 53.25 C 23.88675117492676 53.25 20.38210105895996 52.555419921875 17.08340263366699 51.1855583190918 C 13.89773178100586 49.86262893676758 11.03678226470947 47.96881866455078 8.580012321472168 45.55670928955078 C 6.124191761016846 43.14553833007812 4.196301937103271 40.3382682800293 2.849891901016235 37.212890625 C 1.456501960754395 33.97845077514648 0.7500019073486328 30.54233932495117 0.7500019073486328 27 C 0.7500019073486328 23.45766067504883 1.456501960754395 20.02154922485352 2.849891901016235 16.787109375 C 4.196301937103271 13.66172981262207 6.124191761016846 10.85445976257324 8.580012321472168 8.443289756774902 C 11.03678226470947 6.031179904937744 13.89773178100586 4.137370109558105 17.08340263366699 2.814440011978149 C 20.38210105895996 1.44457995891571 23.88675117492676 0.75 27.50000190734863 0.75 C 31.11325263977051 0.75 34.61790084838867 1.44457995891571 37.91660308837891 2.814440011978149 C 41.10227203369141 4.137370109558105 43.96322250366211 6.031179904937744 46.42000198364258 8.443289756774902 C 48.87582015991211 10.85445976257324 50.8037109375 13.66172981262207 52.15012359619141 16.7871208190918 C 53.54350280761719 20.02154922485352 54.2500114440918 23.45766067504883 54.2500114440918 27 C 54.2500114440918 30.54233932495117 53.54350280761719 33.97845077514648 52.15012359619141 37.2128791809082 C 50.8037109375 40.3382682800293 48.87582015991211 43.14553833007812 46.42000198364258 45.55670928955078 C 43.96322250366211 47.96881866455078 41.10227203369141 49.86262893676758 37.91660308837891 51.1855583190918 C 34.61790084838867 52.555419921875 31.11325263977051 53.25 27.50000190734863 53.25 Z" stroke="none"/>
        <path d="M 27.50000190734863 1.5 C 23.98597145080566 1.5 20.57810211181641 2.175281524658203 17.37104034423828 3.507091522216797 C 14.27439117431641 4.793048858642578 11.49344253540039 6.633888244628906 9.105442047119141 8.978458404541016 C 6.7193603515625 11.32115936279297 4.846431732177734 14.04821014404297 3.538681030273438 17.0838508605957 C 2.1859130859375 20.22401809692383 1.499992370605469 23.56030082702637 1.499992370605469 27 C 1.499992370605469 30.43969917297363 2.1859130859375 33.77597808837891 3.538681030273438 36.9161491394043 C 4.846431732177734 39.95178985595703 6.7193603515625 42.67884063720703 9.105442047119141 45.02153778076172 C 11.49344253540039 47.36611175537109 14.27439117431641 49.20695114135742 17.37104034423828 50.4929084777832 C 20.57810211181641 51.8247184753418 23.98597145080566 52.5 27.50000190734863 52.5 C 31.0140323638916 52.5 34.42190170288086 51.8247184753418 37.62895965576172 50.4929084777832 C 40.72561264038086 49.20695114135742 43.50656127929688 47.36611938476562 45.89455413818359 45.02153778076172 C 48.28064346313477 42.67884063720703 50.15356063842773 39.95178985595703 51.46131134033203 36.9161491394043 C 52.81409072875977 33.77597808837891 53.5 30.43969917297363 53.5 27 C 53.5 23.56030082702637 52.81409072875977 20.22401809692383 51.46131134033203 17.0838508605957 C 50.15356063842773 14.04821014404297 48.28064346313477 11.32115936279297 45.89455413818359 8.978458404541016 C 43.50656127929688 6.633880615234375 40.72561264038086 4.793048858642578 37.62895965576172 3.507091522216797 C 34.42190170288086 2.175281524658203 31.0140323638916 1.5 27.50000190734863 1.5 M 27.50000190734863 0 C 42.68783187866211 0 55 12.08831024169922 55 27 C 55 41.91168975830078 42.68783187866211 54 27.50000190734863 54 C 12.31217193603516 54 -7.62939453125e-06 41.91168975830078 -7.62939453125e-06 27 C -7.62939453125e-06 12.08831024169922 12.31217193603516 0 27.50000190734863 0 Z" stroke="none" fill="#453179"/>
      </g>
    </g>
  </g>
</svg>
