<svg xmlns="http://www.w3.org/2000/svg" xmlns:xlink="http://www.w3.org/1999/xlink" width="103" height="103" viewBox="0 0 103 103">
  <defs>
    <filter id="Trazado_904820" x="0" y="0" width="103" height="103" filterUnits="userSpaceOnUse">
      <feOffset dy="3" input="SourceAlpha"/>
      <feGaussianBlur stdDeviation="3" result="blur"/>
      <feFlood flood-opacity="0.161"/>
      <feComposite operator="in" in2="blur"/>
      <feComposite in="SourceGraphic"/>
    </filter>
  </defs>
  <g id="Grupo_1241742" data-name="Grupo 1241742" transform="translate(-171 -5982.981)">
    <g id="Grupo_1241216" data-name="Grupo 1241216" transform="translate(0.001 3468.257)">
      <g id="Grupo_1225971" data-name="Grupo 1225971" transform="translate(-0.001 1206.945)">
        <g id="Grupo_1224992" data-name="Grupo 1224992" transform="translate(180 1313.779)">
          <g id="Grupo_1223798" data-name="Grupo 1223798" transform="translate(0 0)">
            <g id="Grupo_1223164" data-name="Grupo 1223164" transform="translate(0 0)">
              <g id="Grupo_1203639" data-name="Grupo 1203639">
                <g id="Grupo_1202437" data-name="Grupo 1202437">
                  <g id="Grupo_1177315" data-name="Grupo 1177315">
                    <g id="Grupo_1173585" data-name="Grupo 1173585">
                      <g id="Grupo_1173428" data-name="Grupo 1173428">
                        <g id="Grupo_1171958" data-name="Grupo 1171958">
                          <g id="Grupo_1167341" data-name="Grupo 1167341">
                            <g id="Grupo_1166792" data-name="Grupo 1166792">
                              <g transform="matrix(1, 0, 0, 1, -9, -6)" filter="url(#Trazado_904820)">
                                <g id="Trazado_904820-2" data-name="Trazado 904820" transform="translate(9 6)" fill="#ebe9f0">
                                  <path d="M 42.49993515014648 83.49986267089844 C 36.96432495117188 83.49986267089844 31.59508895874023 82.41603851318359 26.5413703918457 80.27849578857422 C 21.65931129455566 78.21355438232422 17.27445220947266 75.25711059570312 13.50860595703125 71.49126434326172 C 9.742758750915527 67.72541046142578 6.786311626434326 63.34055328369141 4.721370220184326 58.45849609375 C 2.583829164505005 53.40477752685547 1.500005722045898 48.03554153442383 1.500005722045898 42.49993133544922 C 1.500005722045898 36.96430969238281 2.583829164505005 31.59507179260254 4.721370220184326 26.54136657714844 C 6.786311626434326 21.6593074798584 9.742758750915527 17.27444839477539 13.50860595703125 13.50860214233398 C 17.27445220947266 9.742754936218262 21.65931129455566 6.786295890808105 26.5413703918457 4.721366405487061 C 31.59508895874023 2.583825349807739 36.96432495117188 1.500001907348633 42.49993515014648 1.500001907348633 C 48.03555679321289 1.500001907348633 53.40479278564453 2.583825349807739 58.45849990844727 4.721366405487061 C 63.34056854248047 6.786295890808105 67.72542572021484 9.742754936218262 71.49127960205078 13.50860214233398 C 75.25712585449219 17.27444839477539 78.21356964111328 21.6593074798584 80.27851104736328 26.54136657714844 C 82.41605377197266 31.59507179260254 83.4998779296875 36.96430969238281 83.4998779296875 42.49993133544922 C 83.4998779296875 48.03554153442383 82.41605377197266 53.40477752685547 80.27851104736328 58.45849609375 C 78.21356964111328 63.34055328369141 75.25712585449219 67.72541046142578 71.49127960205078 71.49126434326172 C 67.72542572021484 75.25711059570312 63.34056854248047 78.21355438232422 58.45849990844727 80.27849578857422 C 53.40479278564453 82.41603851318359 48.03555679321289 83.49986267089844 42.49993515014648 83.49986267089844 Z" stroke="none"/>
                                  <path d="M 42.49993515014648 3 C 37.16616058349609 3 31.99352264404297 4.043960571289062 27.12569427490234 6.102867126464844 C 22.42242813110352 8.092185974121094 18.19784545898438 10.94068908691406 14.56926727294922 14.56926727294922 C 10.94069671630859 18.19783782958984 8.092185974121094 22.42242431640625 6.102867126464844 27.12569046020508 C 4.043960571289062 31.9935188293457 3 37.16615676879883 3 42.49993133544922 C 3 47.83370590209961 4.043960571289062 53.00634384155273 6.102867126464844 57.87417221069336 C 8.092185974121094 62.57743835449219 10.94069671630859 66.80202484130859 14.56926727294922 70.43059539794922 C 18.19784545898438 74.05917358398438 22.42242813110352 76.90767669677734 27.12569427490234 78.89699554443359 C 31.99352264404297 80.95590209960938 37.16616058349609 81.99986267089844 42.49993515014648 81.99986267089844 C 47.83370971679688 81.99986267089844 53.00634765625 80.95590209960938 57.87417602539062 78.89699554443359 C 62.57744216918945 76.90767669677734 66.80203247070312 74.05917358398438 70.43060302734375 70.43059539794922 C 74.05917358398438 66.80202484130859 76.90768432617188 62.57743835449219 78.89700317382812 57.87417221069336 C 80.95590972900391 53.00634384155273 81.99987030029297 47.83370590209961 81.99987030029297 42.49993133544922 C 81.99987030029297 37.16615676879883 80.95590972900391 31.9935188293457 78.89700317382812 27.12569046020508 C 76.90768432617188 22.42242431640625 74.05917358398438 18.19783782958984 70.43060302734375 14.56926727294922 C 66.80203247070312 10.94068908691406 62.57744216918945 8.092185974121094 57.87417602539062 6.102867126464844 C 53.00634765625 4.043960571289062 47.83370971679688 3 42.49993515014648 3 M 42.49993515014648 0 C 65.97200012207031 0 84.99987030029297 19.02786254882812 84.99987030029297 42.49993133544922 C 84.99987030029297 65.97200012207031 65.97200012207031 84.99986267089844 42.49993515014648 84.99986267089844 C 19.02787017822266 84.99986267089844 0 65.97200012207031 0 42.49993133544922 C 0 19.02786254882812 19.02787017822266 0 42.49993515014648 0 Z" stroke="none" fill="#c6c0d6"/>
                                </g>
                              </g>
                            </g>
                          </g>
                        </g>
                      </g>
                    </g>
                  </g>
                </g>
              </g>
            </g>
          </g>
        </g>
      </g>
    </g>
    <g id="lluvia-de-ideas_4_" data-name="lluvia-de-ideas (4)" transform="translate(196.635 6004)">
      <path id="Trazado_1220031" data-name="Trazado 1220031" d="M215.121,136.841v2.35a.844.844,0,0,0,.844.844h1.9a.844.844,0,0,0,.844-.844v-2.35a.844.844,0,0,0-.844-.844h-1.9A.844.844,0,0,0,215.121,136.841Zm0,0" transform="translate(-189.989 -120.108)" fill="#86919e"/>
      <path id="Trazado_1220032" data-name="Trazado 1220032" d="M24.773,98.622,15.556,83.338a2.2,2.2,0,0,0-3.022-.746L8.529,85.014a2.206,2.206,0,0,0-.747,3.027l9.47,15.705Zm0,0" transform="translate(-6.593 -72.661)" fill="#84eaf5"/>
      <path id="Trazado_1220033" data-name="Trazado 1220033" d="M185.487,14.332a6.86,6.86,0,1,0-9.6,6.287v1.63a1.5,1.5,0,0,0,1.5,1.5h2.481a1.5,1.5,0,0,0,1.5-1.5v-1.63a6.86,6.86,0,0,0,4.116-6.287Zm0,0" transform="translate(-151.7 -6.598)" fill="#feda5f"/>
      <path id="Trazado_1220034" data-name="Trazado 1220034" d="M339.419,98.193,343.7,91.1l-.059-8.828L335.8,86.346l-4.222,7Zm0,0" transform="translate(-292.84 -72.661)" fill="#fce49d"/>
      <path id="Trazado_1220035" data-name="Trazado 1220035" d="M310.1,120.6h0l-3.289-3.471-8.057,13.383,2.97,4.017,4.716,1.106,8.268-13.75Zm0,0" transform="translate(-263.851 -103.444)" fill="#f4c84e"/>
      <path id="Trazado_1220036" data-name="Trazado 1220036" d="M339.889,161.865l8.268-13.75-4.606-1.286-6.922,11.427Zm0,0" transform="translate(-297.301 -129.674)" fill="#feda5f"/>
      <path id="Trazado_1220037" data-name="Trazado 1220037" d="M413.639,82.273l-2.8,1.454,2.82,1.736Zm0,0" transform="translate(-362.842 -72.661)" fill="#86919e"/>
      <path id="Trazado_1220038" data-name="Trazado 1220038" d="M66.885,218.887h11.38a6.724,6.724,0,0,0,.465-13.432A6.724,6.724,0,0,0,68.9,198.1a6.726,6.726,0,0,0-12.426,0,6.724,6.724,0,0,0-9.822,7.37,6.725,6.725,0,0,0,.7,13.414Zm0,0" transform="translate(-35.882 -171.293)" fill="#f0a8d0"/>
      <path id="Trazado_1220039" data-name="Trazado 1220039" d="M297.8,230.424a6.724,6.724,0,0,0-9.122-7.691,6.723,6.723,0,0,1,4,7.691,6.724,6.724,0,0,1-.465,13.432h5.124a6.724,6.724,0,0,0,.466-13.432Zm0,0" transform="translate(-254.95 -196.263)" fill="#ea89bf"/>
      <path id="Trazado_1220040" data-name="Trazado 1220040" d="M177.731,293.324l6.361.08-3.514,9.079,5.811.152L174.005,318.01l4.309-11.364-5.369-.067Zm0,0" transform="translate(-152.74 -259.055)" fill="#feda5f"/>
      <path id="Trazado_1220041" data-name="Trazado 1220041" d="M296.74,110.149l1.863,1.165a.874.874,0,0,0,.926-1.481l-1.863-1.164A.874.874,0,0,0,296.74,110.149Zm0,0" transform="translate(-261.717 -95.849)"/>
      <path id="Trazado_1220042" data-name="Trazado 1220042" d="M299.248,3.806a.871.871,0,0,0,.462-.133l1.863-1.165a.874.874,0,0,0-.926-1.481l-1.863,1.165a.88.88,0,0,0,.463,1.614Zm0,0" transform="translate(-263.529 -0.784)"/>
      <path id="Trazado_1220043" data-name="Trazado 1220043" d="M310.219,60.623a.873.873,0,0,0,.873.873h2.329a.874.874,0,0,0,0-1.747h-2.329A.873.873,0,0,0,310.219,60.623Zm0,0" transform="translate(-273.976 -52.769)"/>
      <path id="Trazado_1220044" data-name="Trazado 1220044" d="M136.153,108.67l-1.863,1.164a.874.874,0,0,0,.926,1.481l1.863-1.165A.874.874,0,0,0,136.153,108.67Zm0,0" transform="translate(-118.247 -95.851)"/>
      <path id="Trazado_1220045" data-name="Trazado 1220045" d="M132.287,2.507l1.863,1.164a.874.874,0,0,0,.926-1.481l-1.863-1.165a.874.874,0,0,0-.926,1.481Zm0,0" transform="translate(-116.477 -0.783)"/>
      <path id="Trazado_1220046" data-name="Trazado 1220046" d="M116.952,61.5h2.329a.874.874,0,0,0,0-1.747h-2.329A.874.874,0,0,0,116.952,61.5Zm0,0" transform="translate(-102.542 -52.769)"/>
      <path id="Trazado_1220047" data-name="Trazado 1220047" d="M168.4,14.568v1.083a2.372,2.372,0,0,0,.949,1.9v2.38a.873.873,0,0,0,.873.873h3.589a.873.873,0,0,0,.873-.873v-2.38a2.371,2.371,0,0,0,.949-1.9V14.568a7.74,7.74,0,0,0,4.07-7.683.874.874,0,0,0-1.736.19,5.994,5.994,0,0,1-3.557,6.145.874.874,0,0,0-.523.8v1.63a.631.631,0,0,1-.63.63H170.78a.631.631,0,0,1-.63-.63v-1.63a.872.872,0,0,0-.523-.8,5.987,5.987,0,1,1,5.747-10.448.874.874,0,0,0,.979-1.446A7.733,7.733,0,1,0,168.4,14.568Zm2.7,4.485V18.027h1.842v1.026Zm0,0" transform="translate(-145.094 0)"/>
      <path id="Trazado_1220048" data-name="Trazado 1220048" d="M47.323,92.042l0-.005L51.6,84.945a.888.888,0,0,0,.126-.457l-.059-8.828a.881.881,0,0,0-1.276-.769l-7.838,4.072c-.507.263-.765,1.021-1.036,1.47L34.992,91.257a7.605,7.605,0,0,0-1.565.445,7.6,7.6,0,0,0-13.236,0,7.63,7.63,0,0,0-1.435-.423l-9.045-15a3.073,3.073,0,0,0-4.222-1.042l-4,2.422A3.084,3.084,0,0,0,.441,81.884l9.4,15.589a7.606,7.606,0,0,0-.068,2.041,7.6,7.6,0,0,0,1.7,15.007h2.647a.874.874,0,0,0,0-1.747H11.471a5.852,5.852,0,0,1-.607-11.673.881.881,0,0,0,.762-1.062,5.849,5.849,0,0,1,5.705-7.15,6,6,0,0,1,4.8,2.489.874.874,0,0,0,1.384-1.065,9.3,9.3,0,0,0-1.794-1.769,5.853,5.853,0,0,1,10.493.652.882.882,0,0,0,1.231.428,5.852,5.852,0,0,1,8.692,5.116,5.758,5.758,0,0,1-.041.68,6.266,6.266,0,0,0-3.478,1.455.874.874,0,0,0,1.235,1.235,4.936,4.936,0,0,1,3.018-.991c2.985,0,5.361,2.966,5.361,5.8a5.858,5.858,0,0,1-5.852,5.852H32.242l2.087-2.591a.887.887,0,0,0-.658-1.421l-4.572-.12,3.066-7.924a.881.881,0,0,0-.8-1.188L25,99.45a.868.868,0,0,0-.832.577l-4.778,13.234a.887.887,0,0,0,.782,1.26h4.135L20.449,124.7a.879.879,0,0,0,1.5.858l8.9-11.051a.878.878,0,0,0,.156.015h11.38A7.6,7.6,0,0,0,43.85,99.468c.045-.469-.171-1.385.057-1.762ZM10.565,95.291,1.937,80.981a1.334,1.334,0,0,1,.451-1.828l4-2.422a1.325,1.325,0,0,1,1.822.45l.907,1.5-1.64.992a.873.873,0,0,0,.9,1.495l1.638-.991,1.771,2.936L9.17,84.7a.873.873,0,0,0,.9,1.495L12.7,84.613l1.771,2.936-1.64.992a.873.873,0,1,0,.9,1.495l1.638-.991,1.285,2.131a7.609,7.609,0,0,0-6.088,4.116Zm15.825,18.664a.873.873,0,0,0-.805-1.183l-4.142-.052L25.6,101.2l4.482.056-3.059,7.907a.873.873,0,0,0,.792,1.188l4.047.106-7.834,9.726ZM37.075,91.184,39.481,87.2l.005-.007,3.629-6.018,2.042,2.154-5.3,8.713a7.549,7.549,0,0,0-2.784-.854Zm9.639-8.753-2.324-2.453,3.544-1.841,2.013,1.213.026,3.991Zm3.22-5.129-.183-.11.181-.094ZM41.3,93.036l5.356-8.809,2.863.8L43.174,95.538a7.64,7.64,0,0,0-1.878-2.5Zm0,0" transform="translate(0 -66.054)"/>
    </g>
  </g>
</svg>
