<svg xmlns="http://www.w3.org/2000/svg" xmlns:xlink="http://www.w3.org/1999/xlink" width="610" height="222.96" viewBox="0 0 610 222.96">
  <defs>
    <clipPath id="clip-path">
      <rect id="Rectángulo_419388" data-name="Rectángulo 419388" width="610" height="222.96" fill="#fff" opacity="0.4"/>
    </clipPath>
    <clipPath id="clip-path-2">
      <rect id="Rectángulo_419389" data-name="Rectángulo 419389" width="244.001" height="222.96" fill="none"/>
    </clipPath>
    <filter id="Trazado_1043752" x="370.005" y="31.697" width="79.242" height="77.476" filterUnits="userSpaceOnUse">
      <feOffset dy="3" input="SourceAlpha"/>
      <feGaussianBlur stdDeviation="3" result="blur"/>
      <feFlood flood-opacity="0.161"/>
      <feComposite operator="in" in2="blur"/>
      <feComposite in="SourceGraphic"/>
    </filter>
    <clipPath id="clip-path-3">
      <rect id="Rectángulo_419390" data-name="Rectángulo 419390" width="67.964" height="92.116" fill="none"/>
    </clipPath>
    <clipPath id="clip-path-4">
      <rect id="Rectángulo_419391" data-name="Rectángulo 419391" width="94.115" height="96.95" fill="none"/>
    </clipPath>
  </defs>
  <g id="Enmascarar_grupo_1098809" data-name="Enmascarar grupo 1098809" clip-path="url(#clip-path)">
    <path id="Trazado_1043776" data-name="Trazado 1043776" d="M503.25,0H10.167A10.084,10.084,0,0,0,0,10v90.934a10.084,10.084,0,0,0,10.167,10H503.25a10.084,10.084,0,0,0,10.167-10V10A10.084,10.084,0,0,0,503.25,0Z" transform="translate(52.867 86.944)" fill="#6ae2f6"/>
    <g id="Grupo_1203657" data-name="Grupo 1203657" transform="translate(120.849 0)">
      <g id="Grupo_1203656" data-name="Grupo 1203656" transform="translate(0)">
        <g id="Grupo_1203648" data-name="Grupo 1203648" transform="translate(46.809)">
          <g id="Grupo_1203647" data-name="Grupo 1203647" clip-path="url(#clip-path-2)">
            <path id="Trazado_1043624" data-name="Trazado 1043624" d="M2656.969,830.543a24.567,24.567,0,0,1,2.715,6.58,6.419,6.419,0,0,1-2.136,6.183c-1.311,1.217-2.592,2.464-3.887,3.7-.543.17-.728.652-.971,1.082a3.01,3.01,0,0,1-.287.523c-1.6,1.828-3.358,3.58-2.974,6.4a4.725,4.725,0,0,1-1.281-2.217,2.359,2.359,0,0,0-2.337-1.559c-2.469-.018-4.94,0-7.407-.181a32.711,32.711,0,0,0-16.246,12.209c-2.655,3.681-3.752,8.133-4.821,12.487a44.577,44.577,0,0,0-1.036,15.984,18.339,18.339,0,0,0,2.338,6.723,59.083,59.083,0,0,0,13.669,16.629,94.711,94.711,0,0,0,8.3,6.753c.9-.09,1.043-.846,1.293-1.473,3.607-9.036,6.791-18.221,10.028-27.389,1.765-5,4.507-9.559,7.049-14.206a116.378,116.378,0,0,1,7.633-12.369,10.7,10.7,0,0,1,2.427-2.647,62.064,62.064,0,0,1,5.5-5.35c4.982-3.742,10.15-7.114,16.33-8.674,1.549-.391,1.893-.905,1.8-2.3-.2-3.117.338-3.954,3.25-5.037a1.855,1.855,0,0,0,.78-.446,3.668,3.668,0,0,0,.2-2.467,8.856,8.856,0,0,1,2.438-6.815c3.152-3.507,7.336-4.65,11.859-5.18,2.608-.305,5.23-.072,7.826-.428a.883.883,0,0,0,.281-.4,2.175,2.175,0,0,0-.252-1.574,27.87,27.87,0,0,1-2.434-8.5,2.9,2.9,0,0,0-.346-1.122c-.683-.652-.969.054-1.293.411a10.951,10.951,0,0,1-2.357,2.26,2.8,2.8,0,0,1-1.922-.273c-2.13-.517-2.821-1.927-3.085-4-.914-7.164-2.6-14.2-3.856-21.312a7.049,7.049,0,0,1-.04-2.952c-.7-1.494-1.8-1.638-2.783-.36a6.622,6.622,0,0,0-.8,1.75c.072,2.546.993,4.932,1.49,7.4,1.091,5.422,1.818,10.907,3.1,16.42-.708,0-1.052-.488-1.516-.7-.666-.235-1.134-.8-1.788-1.05a3.476,3.476,0,0,1-1.429-2.19,34.984,34.984,0,0,1-2.262-9.952c-.084-1.257-.751-2.5-.162-3.789.135-1.162,1.061-2.162.734-3.421a1.544,1.544,0,0,0-.56-.694,20.848,20.848,0,0,0-10.925-3.637,2.93,2.93,0,0,0-2.285,1.311c-.778.883-1.595,1.712-2.966,1.384a.526.526,0,0,0-.44.065c-2.362,2.062-4.738.566-6.978-.147a5.575,5.575,0,0,0-4.517.182,29.908,29.908,0,0,0-16.035,19.142c-1.667,5.83-.476,11.243,2.16,16.5a26.3,26.3,0,0,1,1.208,2.727" transform="translate(-2611.198 -748.107)" fill="#5692e8"/>
            <path id="Trazado_1043625" data-name="Trazado 1043625" d="M763.236,3566.649a235.521,235.521,0,0,0,24.308-2.479,261.372,261.372,0,0,0,33.343-7.184c1.458-1.535.857-3.483,1.01-5.253a15.624,15.624,0,0,0-.151-3.544,30.148,30.148,0,0,0-1.105-6.139c-1.7-5.166-4.06-9.941-8.173-13.735-3.114-2.873-6.509-4.452-10.976-3.644a94.168,94.168,0,0,0-12.447,3.2c-.486.227-1.017.35-1.492.605a58.229,58.229,0,0,0-6.241,2.434c-.988.459-1.923,1.02-2.905,1.492-2.236,1.156-4.384,2.463-6.6,3.659a116.1,116.1,0,0,0-13.411,9.587,4.132,4.132,0,0,1-.892.548c-2.12,1.546-4.221,3.117-6.217,4.82q-2.265,1.623-4.487,3.3c-.476.357-1.02.664-1.218,1.283-.079.719.455,1.057.929,1.42,4.379,3.357,9.023,6.341,13.644,9.357.972.635,2.035.367,3.078.276" transform="translate(-616.653 -3344.455)" fill="#201f50"/>
            <path id="Trazado_1043626" data-name="Trazado 1043626" d="M2012.455,3664.6a240.807,240.807,0,0,0,33.169,5.525,343.709,343.709,0,0,0,40.458,1.894c3.54-.053,7.077-.22,10.616-.335.318-.533-.135-.733-.462-.906-6.88-3.648-12.6-8.8-18.517-13.713-6-4.985-12.141-9.772-19.188-13.3-4.824-2.417-9.68-4.715-14.3-5.182a45.949,45.949,0,0,1,12.587,4.1c1.8.87,3.836,1.24,5.66,2.12a.975.975,0,0,0,1.135-.156c.019-1.016-.855-1.263-1.522-1.632a59.859,59.859,0,0,0-13.494-5.928,3.6,3.6,0,0,1-.414-.185c-5.463-1.488-10.973-2.594-16.692-2.01a18.365,18.365,0,0,0-2.451.321c-.451.125-.918.189-1.366.332-.834.331-1.723.506-2.55.86-.993.365-1.9.911-2.875,1.316-5.939,3.456-9.18,8.669-10.289,15.276-.281,1.674-.36,3.364-.5,5.052a38.2,38.2,0,0,1,.09,3.836,3.531,3.531,0,0,0,.909,2.719" transform="translate(-1957.249 -3449.088)" fill="#201f50"/>
            <path id="Trazado_1043627" data-name="Trazado 1043627" d="M370.656,2275.792a109.9,109.9,0,0,1,12.9-3.223,10.726,10.726,0,0,1,8.969,2.513,27.345,27.345,0,0,1,7.9,10.944c.466,1.13.86,2.289,1.288,3.435,2.15-1.09,4.344-.192,6.514-.117,4.134.143,8.276.526,12.32-.742a12.141,12.141,0,0,0,2.058-5.389c1.279-6.542-.155-12.772-2.32-18.916a19.684,19.684,0,0,1-1.256-3.818,2.1,2.1,0,0,0-.306-1.845c-1.1-2.4-2.17-4.819-3.249-7.231-.522-1.811-1.781-3.23-2.736-4.8-5.208-8.537-10-17.313-15.32-25.781a133.363,133.363,0,0,0-10.451-15.017c-.569-.678-1.056-1.675-2.292-1.255a21.162,21.162,0,0,1-2.983,3.368,4.962,4.962,0,0,0-1.306,1.816c-2.008,5.551-3.749,11.16-3.665,17.144a10.4,10.4,0,0,0,.061,1.343c.238,1.651,1.014,2.188,2.619,1.7,1.746-.532,3.546-.819,5.312-1.255a7.419,7.419,0,0,1,3.455.054c1.544.344,2.04,1.094,1.554,2.611-.791,2.47-1.872,4.838-2.717,7.292a40.219,40.219,0,0,0-1.287,5.679,1.577,1.577,0,0,0,.357,1.535c.755.392,1.262-.128,1.742-.53a49.686,49.686,0,0,0,6.8-7.363,30.92,30.92,0,0,0-2.157,3.26,36.983,36.983,0,0,1-6.4,8.257c-1.3,1.387-2.731,2.662-4.054,4.034-.484.5-1.1,1.061-.775,1.813.31.726,1.13.758,1.836.825,2.644.251,4.825-.914,6.887-2.3a69.03,69.03,0,0,0,7.979-6.8c-.429.517-.971.97-1.444,1.487-.892,1.174-2.226,1.974-2.907,3.327a18.143,18.143,0,0,1-1,1.841c-.964,1.535-.54,2.67,1.193,3.231,1.924.623,3.922,1.015,5.828,1.693,4.2,1.493,8.392,3.006,11.622,6.25a10.8,10.8,0,0,1,1.626,1.967c.324.532,1.068,1.119.654,1.68-.391.53-1.247.124-1.852-.017-1.625-.377-3.255-.758-4.84-1.286A73.537,73.537,0,0,0,384.7,2263.8c-.789-.014-1.644-.149-2.285.527.1.812.789.783,1.353.908,2.963.658,5.988.953,8.975,1.472a78.86,78.86,0,0,1,16.728,4.763,2.443,2.443,0,0,1,1.5,1.028,2.874,2.874,0,0,1-1.96.538,31.6,31.6,0,0,1-7.993-.634c-8.177-1.633-16.368-3.2-24.505-5.023-1.581-.354-3.1-.914-4.672-1.3-1.612-.4-2.116.016-1.6,1.5a3.714,3.714,0,0,1-.613,3.771,12.683,12.683,0,0,0,.151,3.462c.032.464.2.977.867.985" transform="translate(-198.28 -2091.866)" fill="#fec53b"/>
            <path id="Trazado_1043628" data-name="Trazado 1043628" d="M3322.68,2350.278a47.924,47.924,0,0,1,.894-6.637,19.976,19.976,0,0,1,8.547-12.395c.372-.246.715-.536,1.072-.806a1.422,1.422,0,0,0,.529-1.17c-.271-1.687,0-3.418-.436-5.087-.562-.9-1.193-.486-1.78-.051a21.057,21.057,0,0,0-1.955,2.081c-5.469,5.327-10.851,10.747-16.763,15.611a14.463,14.463,0,0,1-5,2.769,3.069,3.069,0,0,1-2.989-.542c-4.654-3.674-6.255-11.291-3.458-16.474a12.389,12.389,0,0,1,1.961-2.459c.419-.453,1.049-.867.693-1.654-.906-.489-1.546.1-2.177.566a18.64,18.64,0,0,0-2.889,2.93c-.807-6.2,3.4-11.2,9.892-11.756,2.908-.248,5.873-.389,8.533,1.246,1.383.232,2.7-.238,4.048-.37a77.625,77.625,0,0,1,10.258-.6,2.749,2.749,0,0,0,1.181-.212c.829-.457.5-1.081.048-1.461a60.971,60.971,0,0,1-6.99-7.243.63.63,0,0,0-.706-.125c-.906.675-.584,1.5-.251,2.292a22.788,22.788,0,0,0,2.935,4.655,8.058,8.058,0,0,1-4.24-1.989,16.928,16.928,0,0,1-5.178-7.078,32.411,32.411,0,0,1-1.851-12.306c.167-9.328,4.5-17.255,8.49-25.3.964-1.943,1.1-1.835,2.427-.11a40.961,40.961,0,0,1,6.266,10.7,25.769,25.769,0,0,1,1.848,11.86,14.1,14.1,0,0,1-7.386,11.215,6.04,6.04,0,0,1-2.494.56c-.77.076-1.492.377-1.442,1.23.075,1.268-.136,2.6.6,3.776a5,5,0,0,1,1.514,1.172,46.423,46.423,0,0,0,8.318,7.587c.174-.021.027.341.03.141,0-.061-.039-.068-.1-.085-.34-.087-.6-.064-.591.375.688.839,1.485.351,2.258.187a3.306,3.306,0,0,0,2.125-1.281,12.889,12.889,0,0,0,.939-3.758c.445-2.754,1.208-5.45,1.558-8.221.008-.579.006-1.158.007-1.737a67.308,67.308,0,0,0-6.516-29.485c-1.127-2.386-2.547-4.634-3.883-6.917a9.259,9.259,0,0,1-1.229-2.549c-.825-1.871-1.743-3.671-3.764-4.6-1.216.473-1.792,1.567-2.495,2.525-4.489,6.116-7.93,12.834-11.533,19.459-3.751,6.9-5.6,14.5-8.4,21.753-1.777,4.606-3.478,9.241-5.228,13.857a5.185,5.185,0,0,1-.55.879c-.57,2.386-1.765,4.546-2.547,6.858a27.5,27.5,0,0,0-.511,17.462,7.916,7.916,0,0,1,.181,1.019c-.306,1.469.486,2.686,1.024,3.924.911,2.1,2.026,4.083,4.291,5.1a64.336,64.336,0,0,0,8.522,3.184c3.086.042,6.016-1,9.061-1.257,1.146-.1,2.279-.365,3.429-.445a2.739,2.739,0,0,0,1.865-.813" transform="translate(-3267.958 -2141.511)" fill="#f3a62f"/>
            <path id="Trazado_1043629" data-name="Trazado 1043629" d="M53.436,1318.375l3.992,8.981a18.288,18.288,0,0,0,4.492-3.251A51.488,51.488,0,0,0,76.535,1304.8a53.436,53.436,0,0,0,3.986-17.347c1.008-13.189-2.929-24.817-11.288-35.039a66.1,66.1,0,0,0-14.683-12.82,105.4,105.4,0,0,0-28.264-13.545A130.37,130.37,0,0,0,4.564,1221.4a16.887,16.887,0,0,0-3.008-.282,2.62,2.62,0,0,0-1.507,3.015,2.041,2.041,0,0,0,1.528.526,130.239,130.239,0,0,1,43.3,12.253,59.062,59.062,0,0,1,18.684,14.116,63.523,63.523,0,0,1,10.334,14.88,38.009,38.009,0,0,1,3.967,20.87,3.953,3.953,0,0,0-.038,1.044c.741,4.538-1.485,8.112-3.954,11.565-4.9,6.851-11.182,12.306-18.109,17.088a9.132,9.132,0,0,0-2.321,1.9" transform="translate(163.326 -1158.744)" fill="#83c8f4"/>
            <path id="Trazado_1043630" data-name="Trazado 1043630" d="M1563.006,47.128c.583-1.737.362-3.546.424-5.317a41.9,41.9,0,0,0-1.376-13.918,19.748,19.748,0,0,0-7.927-11.128c1.547-1.337,3.059-2.633,2.943-4.827a4.228,4.228,0,0,0-1.181-2.737c-.788,3.372-2.077,4.11-5.5,3.292-3.212-.768-6.115-2.371-9.262-3.317-3.519-1.058-7.035-1.489-10.545-.007a2.07,2.07,0,0,1-1.6-.066,17.029,17.029,0,0,0-3.9-1.029c1.107-1.361,2.179-2.59,3.148-3.893,1.084-1.458.77-2.05-1.088-2.255a9.22,9.22,0,0,0-6.66,1.991,24.405,24.405,0,0,0-3.584,3.271c.808-2.285,1.684-4.544.545-7.185-2.618,4.608-6.638,6.646-11.5,7.45-2.59.429-5.01,1.238-6.424,3.878-.189-1.429.4-2.573.595-3.794-1.76.815-2.52,2.144-2.626,4.547-1.093-1.265-1.261-1.969-1.374-5.864a4.566,4.566,0,0,0-1.816,4.622,2.458,2.458,0,0,0,2.473,2.531c-.132.573-.615.7-.982.921-7.693,4.656-11.336,11.659-12.165,20.292-.133,1.388-.234,2.779-.349,4.168-1.032,2.052-.671,4.16-.262,6.269.295.5.649.869,1.307.59,1.281-.593,1.339-1.747,1.376-2.909.558-2.649.224-5.355.563-8.031a25.661,25.661,0,0,1,5.314-13.46c1.414-1.736,3.316-2.892,4.895-4.29a16.884,16.884,0,0,0-2.523,3.608,21.993,21.993,0,0,1-3.115,4.582c-1.169,1.259-.954,1.856.7,2.391.99,0,1.357-.72,1.752-1.432a27.356,27.356,0,0,1,7.588-9.012c5.567-4.119,11.94-5.991,18.777-6.466a43.634,43.634,0,0,1,17.734,2.625A27.247,27.247,0,0,1,1553.6,27.828c.443.943.753,2.013,2.089,2.094,1.62-.309,2.213-.914,2.366-2.417a6.322,6.322,0,0,0-5.259-6.8c1.348-.626,1.5-1.029.753-1.946,4.063,4.214,6.665,9.121,7.016,14.984.21,3.518.74,7.046.125,10.578a5.319,5.319,0,0,0-.208,1.6,2.1,2.1,0,0,0,1.505,1.728,1.018,1.018,0,0,0,1.017-.528" transform="translate(-1396.466 -0.004)" fill="#1f1f51"/>
            <path id="Trazado_1043631" data-name="Trazado 1043631" d="M3884.88,1695.26a30.975,30.975,0,0,0,7.237.342c1.069,0,1.707.28,1.979,1.345a19.429,19.429,0,0,0,.821,2.239c.166.422.362.882.939.791.512-.081.512-.542.554-.936.037-.345.075-.692.092-1.038.079-1.66.346-3.143,1.983-4.188a4.455,4.455,0,0,0,1.579-2.976c0-2.585,0-5.17-.006-7.755a5.129,5.129,0,0,0-5.217-5.4c-2.879-.092-5.763-.068-8.644-.016-2.192.039-4.438,1.734-4.576,3.854a44.4,44.4,0,0,0,.178,10.547,5.017,5.017,0,0,0,.3.839,2.7,2.7,0,0,0,2.779,2.352" transform="translate(-3857.602 -1591.942)" fill="#f4fefe"/>
            <path id="Trazado_1043632" data-name="Trazado 1043632" d="M4201.1,1979.274a10.941,10.941,0,0,1-2.779-2.352c-3.506,1.411-7.088,2.623-10.464,4.358-7.54,3.876-12.712,9.621-13.769,18.063a36.277,36.277,0,0,0,3.256,19.783,43.813,43.813,0,0,0,3.164,6.274c.221.332.367.713.755.906a33.373,33.373,0,0,1-2.1-12.42,50.348,50.348,0,0,1,5.16-20.987c1.9-3.89,5.3-6.6,8.717-9.2a35.376,35.376,0,0,1,8.059-4.43" transform="translate(-4173.825 -1875.955)" fill="#82c8f4"/>
            <path id="Trazado_1043633" data-name="Trazado 1043633" d="M3070.712,753.627c-.311-2.176-.009-4.365-.134-6.545a92.749,92.749,0,0,0-11.792-.62,44.266,44.266,0,0,0-22.274,5.913c-7.466,4.393-11.561,10.961-12.479,19.535-.757,7.07,1.415,13.208,5.5,18.858.063-1.719-.777-3.186-1.47-4.656-3.987-8.451-2.022-16.177,2.916-23.522a29.03,29.03,0,0,1,11.07-9.524c1.4-.725,2.685-1.193,4.4-.318a13.043,13.043,0,0,0,6.892,1.139c.865-.063.254-.792.434-1.256,1.425,1.283,2.631.076,3.1-.711,1.47-2.44,3.54-1.967,5.573-1.437a22.408,22.408,0,0,1,8.149,3.487.235.235,0,0,0,.145-.207c0-.091-.014-.137-.039-.137" transform="translate(-2983.763 -708.331)" fill="#82c7f4"/>
            <path id="Trazado_1043634" data-name="Trazado 1043634" d="M1898.189,3705.726c-1.237.017-2.079-.962-3.2-1.231-3.13-.754-5.907-2.391-8.934-3.433-3-1.033-6.094-1.3-9.153-1.876a.637.637,0,0,0-.734.271c.628.549,1.445.291,2.133.426,6.028,1.187,11.473,3.785,16.784,6.683,7.239,3.95,13.449,9.257,19.72,14.5,4.686,3.918,9.386,7.849,14.788,10.849.545.3,1.325.23,1.65.911a70.173,70.173,0,0,0,7.133-.4c-1.794.34-2.973-.852-4.281-1.688-4.311-2.755-8.53-5.64-12.627-8.7-.247-.184-.491-.349-.52-.684-.042-.733-.621-1.07-1.116-1.471-1.224-.993-2.606-1.778-3.8-2.812-5.1-3.749-10.2-7.485-15.662-10.718-.65-.385-1.267-1.065-2.185-.632" transform="translate(-1791.797 -3510.234)" fill="#2a3272"/>
            <path id="Trazado_1043635" data-name="Trazado 1043635" d="M276.706,3906.469a37.622,37.622,0,0,1-.377,8.984c7.361-2.157,14.493-4.957,21.7-7.543a9.713,9.713,0,0,0,3.171-1.714c.8-.7.72-1.179-.226-1.658a25.189,25.189,0,0,0-6.97-1.91c-.439-.081-.921.018-1.27-.36a.761.761,0,0,0-.592.025c-3.183,2.036-6.952,1.9-10.461,2.712-1.127.261-2.278.451-3.426.633a2.216,2.216,0,0,0-1.55.831" transform="translate(-72.096 -3702.923)" fill="#62b1f2"/>
            <path id="Trazado_1043636" data-name="Trazado 1043636" d="M419.65,3851.017c3.932-.687,7.857-1.42,11.8-2.038a8.237,8.237,0,0,0,4.228-2.163c.435-.936,1.341-1.586,1.633-2.61-.755-.676-1.538-.124-2.294-.024a55.448,55.448,0,0,1-13.65-.214c-1.067-.123-2.493-.693-2.889,1.1l1.171,5.952" transform="translate(-215.041 -3647.471)" fill="#f4a52c"/>
            <path id="Trazado_1043637" data-name="Trazado 1043637" d="M3650.3,4087.619a110.784,110.784,0,0,0-11.909,1.787c-.829.178-1.63.483-2.445.729a97.48,97.48,0,0,0,13.811,3.979l1.029.246a53.546,53.546,0,0,1-.485-6.741" transform="translate(-3595.583 -3878.852)" fill="#61b1f3"/>
            <path id="Trazado_1043638" data-name="Trazado 1043638" d="M1481.588,922.683l-.9.309c-.833.235-1.161.94-1.463,1.617a48.927,48.927,0,0,0-4.631,18.222,2.22,2.22,0,0,0,.164,1.313c1.391.572,1.785-.5,2.314-1.354,1.591-5.193,3.154-10.4,4.932-15.533a5.423,5.423,0,0,0,.46-2.325c.065-.886-.6-1.495-.881-2.249" transform="translate(-1315.048 -875.559)" fill="#385fb2"/>
            <path id="Trazado_1043639" data-name="Trazado 1043639" d="M4098.348,3906.814c-2.837-2.4-4.085-5.709-5.315-9.028a21.344,21.344,0,0,0-5.767,1.755c-1.833.921-1.857,1.875-.024,2.969a39.089,39.089,0,0,0,7.336,3.2,18.806,18.806,0,0,0,3.77,1.1" transform="translate(-4066.504 -3698.714)" fill="#62b1f3"/>
            <path id="Trazado_1043641" data-name="Trazado 1043641" d="M1474.568,966.712a43.24,43.24,0,0,0-2.689,7.253c-1.172,3.537-2.2,7.121-3.284,10.685,1.49.106,2.024-.4,2.066-1.958a14.121,14.121,0,0,1,1.369-2.977,64.519,64.519,0,0,0,2.744-10.835,2.77,2.77,0,0,0-.205-2.167" transform="translate(-1307.148 -917.339)" fill="#f4d23f"/>
            <path id="Trazado_1043642" data-name="Trazado 1043642" d="M1138.382,1567.908a30.286,30.286,0,0,1,3.389,4.541,2.206,2.206,0,0,0,1.145,1.7c1.692.167,2.148,1.7,2.924,2.752a24.239,24.239,0,0,1,4.121,9.042,2,2,0,0,0,.735,1.427c2.516,1.2,3.021,1.09,4.633-1.177,1.853-2.606,3.47-5.39,5.829-7.343a29.155,29.155,0,0,0-2.9,13.053,8.329,8.329,0,0,0,.363,2.5,28.452,28.452,0,0,0,10.086,18.26,4.463,4.463,0,0,0,1.983,1.049c3.065-.945,6.017-2.038,7.19-5.419a77.03,77.03,0,0,0-.038-9.4,4.766,4.766,0,0,1,.07-1.338,5.53,5.53,0,0,0,.035-1.3c-.293-1.893-.1-3.648,1.464-5.02a4.559,4.559,0,0,1,3.216-1.079c8.19,0,16.376.309,24.566.395a43.63,43.63,0,0,1,8.608.458,2.507,2.507,0,0,1,1.114.411,11.237,11.237,0,0,1,2.442,2.912,4.748,4.748,0,0,1,.439,2.462c0,3.674-.016,7.348.005,11.021.011,1.852.551,2.243,2.429,2,2.558-.336,5.131-.668,7.461.887a5.2,5.2,0,0,1,1.974,1.708c.38.535.77,1.022,1.541.9a26.938,26.938,0,0,0,8.646-7.623c4.124-5.867,6.376-12.614,8.575-18.4-.464,2.047-1.919,4.713-2.57,7.642a54.793,54.793,0,0,0-1.126,8.577,69.543,69.543,0,0,1-1.642,12.872,19.988,19.988,0,0,1-2.932,6.524c-.332.482-.891.983-.58,1.6.339.672,1.132.646,1.765.584,2.357-.233,4.747.252,7.088-.325a3.282,3.282,0,0,0,.709-.755c.8-1.827.634-3.792.847-5.705.284-2.562.732-5.1,1.059-7.658a3.334,3.334,0,0,1,.15-1.972c-.019-1.589.723-3.08.637-4.678a5.713,5.713,0,0,1-.258-2.8c.416-4.855.591-9.742,1.628-14.526a72.9,72.9,0,0,1,8.274-21.73c.184-.313.33-.624.768-.592.461-.231,1.024-.246,1.423-.623-.062-.883-.809-1.221-1.4-1.66a52.706,52.706,0,0,0-14.064-7.906c-1.095-.38-1.283-.94-.9-2.038a5.569,5.569,0,0,0-1.9-6.7,2.382,2.382,0,0,0-2.368-.64c-.125.368-.116.729-.564,1.016a25.3,25.3,0,0,0-4.339,3.445,11.717,11.717,0,0,0,2.9-3.212,4.418,4.418,0,0,1,1.92-1.812,5.38,5.38,0,0,0,.006-4.762,11.6,11.6,0,0,0-5.71-5.962c-3.463-1.9-7.281-2.384-11.144-2.532a16.48,16.48,0,0,0-5.437.25,3.687,3.687,0,0,0-1.541,3.92,1.211,1.211,0,0,0,.287.426,4.852,4.852,0,0,0,2.8.422c2.928.052,5.886-.247,8.737.693,1.641.541,3.3,1.078,3.974,2.909a5.257,5.257,0,0,1-.518,3.816c-.311.774-.891,1.413-1.171,2.2a4.3,4.3,0,0,1-1.842,3.127c-5.242,4.165-10.3,8.564-15.9,12.275-.83.549-1.756,1.124-1.4,2.386a6.2,6.2,0,0,0,.753,1.082,2.285,2.285,0,0,1-.264,2.963c-.406.478-1.007.823-1.1,1.523a.931.931,0,0,0,1.262.92c1.716-.532,3.521-.275,5.247-.732a18.91,18.91,0,0,0,4.953-2.194,3.684,3.684,0,0,1,2.105-.741,41.128,41.128,0,0,0,9.488-5.543c-2.674,2.012-4.821,4.133-7.221,5.969a36,36,0,0,1-16.309,6.792,3.368,3.368,0,0,0-1.587.439,5.769,5.769,0,0,0-.9,4.129,11.573,11.573,0,0,0,3.627,7.829,2.325,2.325,0,0,1,.884,1.31,12,12,0,0,1-5.052-9.441c-.061-1.071.255-2.2-.468-3.188a2.55,2.55,0,0,0-2.023-.407,68.871,68.871,0,0,1-8.632.495c-.643-.017-1.34-.121-1.824.483-.544,1.135-.266,2.348-.3,3.528a12.84,12.84,0,0,1-2.978,8.123,5.068,5.068,0,0,1-.725.761.468.468,0,0,1-.5.061c-.148-.557.366-.82.648-1.165a12.867,12.867,0,0,0,2.8-10.633,2.169,2.169,0,0,0-.656-1.466c-5.063.21-9.39-1.922-13.693-4.15a48.907,48.907,0,0,1-12.585-9.239,16.5,16.5,0,0,1-3.054-3.973,14.267,14.267,0,0,1,3.808,1.474c2.791,1.52,5.455,3.234,8.1,4.985a5.444,5.444,0,0,0,2.008,1.019,5.278,5.278,0,0,1,2.594,1.083,38.449,38.449,0,0,0,6.347,2.635,1.751,1.751,0,0,0,2.271-.574,2.065,2.065,0,0,0,.266-.835c.12-1.074.6-1.8,1.816-1.633a1.777,1.777,0,0,1,1.669,2.055,4.939,4.939,0,0,0,0,1.029,2.428,2.428,0,0,0,2.029,2.425,4.305,4.305,0,0,1,1.109.465c3.667,2.184,7.394,1.739,11.163.3a5.861,5.861,0,0,0,1.79-1.072,1.775,1.775,0,0,0,.433-2.157,18.36,18.36,0,0,1-.693-2.551,1.815,1.815,0,0,0-1.652-1.239c-1.729.38-2.981,1.588-4.4,2.5-1.677,1.083-1.882,1.132-3.461-.006-1.663-1.2-3.264-2.472-4.819-3.8a6.781,6.781,0,0,0-.672-.522,7.514,7.514,0,0,0-2.274-1.564,12.176,12.176,0,0,1-3.693-2.552c-3.08-2.486-6.639-4.321-9.672-6.829-2.012-1.665-4.36-3.09-5.6-5.545-.439-.668-.984-1.256-1.45-1.9-2.25-3.128-1.174-6.552,2.5-7.876,2.167-.78,4.467-.649,6.715-.859.95-.089,1.914.007,2.871-.033a2.14,2.14,0,0,0,1.789-.616c.466-.862.128-1.766.145-2.651a.875.875,0,0,0-.463-.66c-6.432-.42-12.729-.18-18.263,3.688a4.586,4.586,0,0,0-1.73,1.828,8.677,8.677,0,0,0,1.126,10.394,54.891,54.891,0,0,0,12.526,10.738c1.675,1.072,3.343,2.155,5.031,3.207-4.5-2.763-8.846-5.747-13.158-8.781a62.161,62.161,0,0,1-6.045-4.974c-.538-.491-1.006-1.172-1.919-.963a4.113,4.113,0,0,0-4.4,5.367c.214.882.3,1.5-.871,1.76-6.275,1.39-11.51,4.761-16.558,8.485a33.71,33.71,0,0,0-5.9,5.767" transform="translate(-1080.768 -1452.648)" fill="#fec53d"/>
            <path id="Trazado_1043643" data-name="Trazado 1043643" d="M1822.782,625.166a40.682,40.682,0,0,0,3.163,11.169,21.03,21.03,0,0,0,13,9.781,18.649,18.649,0,0,0,19.72-7.727,5.315,5.315,0,0,1,1.834-2.2,20.54,20.54,0,0,0,3.74-9.113c.1-.482.176-.968.3-1.445.125-1.021.5-1.994.59-3.023.1-1.7.654-3.315.914-4.984-.23-2.026.5-3.927.82-5.877.623-3.8,1.149-7.586.5-11.432a7.354,7.354,0,0,0-.217-1.023c-.449-1.4-1.185-1.752-2.521-1.117a24.437,24.437,0,0,1-3.057,1.318,6.325,6.325,0,0,1-7.185-2.149,17.41,17.41,0,0,1-2.474-4.6c-.716-1.778-1.221-2.081-3.135-1.644a10.129,10.129,0,0,1-9.436-2.381c-.482-.422-.988-1.053-1.69-.788-.816.309-.848,1.17-.905,1.915a5.049,5.049,0,0,0,.784,3.139,7.516,7.516,0,0,0,3.405,2.873c.562.253,1.527.185,1.557.958.034.862-.774,1.343-1.491,1.735a6.2,6.2,0,0,1-4.723.317,12.538,12.538,0,0,1-7.659-5.262,8.154,8.154,0,0,0-1.365-1.786c-.6-.522-1.085-.473-1.359.337a.956.956,0,0,0-.075.289c-.025,2.958-1.592,4.8-4.295,5.9a2.263,2.263,0,0,0-1.221,1.945,31.146,31.146,0,0,0,.2,8.168c.093.985.086,1.983.254,2.964.305,2.636.719,5.259.784,7.917.371,1.954.083,4.044,1.239,5.837" transform="translate(-1718.167 -557.837)" fill="#febd84"/>
            <path id="Trazado_1043644" data-name="Trazado 1043644" d="M1591.267,321.59a29.885,29.885,0,0,0-.745-5.812c-.823-6.209-2.51-12.263-3.414-18.457.493,3.284,1.15,6.538,1.873,9.778.078.349-.094,1.019.7.775.019-.006.027-.079.023-.119a.745.745,0,0,0-.044-.143c-.241-3.674-.767-7.338-.34-11.035.073-.631.1-1.174.848-1.39,3.381-.98,4.7-3.367,4.681-6.667a4.051,4.051,0,0,1,.129-.613c.7,1.037,1.251,1.952,1.893,2.8a13.12,13.12,0,0,0,9.567,5.428,5.288,5.288,0,0,0,5.3-2.518c.515-.8.6-1.276-.62-1.432a6.26,6.26,0,0,1-4.035-2.185,5.319,5.319,0,0,1-.949-5.563c.712.607,1.321,1.188,1.993,1.688a10.443,10.443,0,0,0,9.886,1.744c.975-.313,1.334-.145,1.615.793a15.5,15.5,0,0,0,2.495,5.085c2.326,3.025,5.1,3.836,8.69,2.513a17.567,17.567,0,0,0,2.191-1.024c1.815-.971,1.884-.96,2.241,1.141.748,4.4.075,8.736-.7,13.064a17.122,17.122,0,0,0-.478,4.44c1,.068,1.045-.8,1.272-1.375,1.622-4.106,2.775-8.359,4-12.589a12.17,12.17,0,0,0,.438-1.579c-1.674,7.081-4.458,13.816-6.646,20.737a8.172,8.172,0,0,0-.526,2.956,4.228,4.228,0,0,0,1.923,3.149,1.286,1.286,0,0,0,1.529.15,3.424,3.424,0,0,0,.845-1.715c2.681-8.327,5.125-16.722,7.449-25.151a4.6,4.6,0,0,1,1.46-2.853c-.485-2.375.432-4.185,2.2-5.787,1.066-.968.931-2.33-.142-3.933a3.521,3.521,0,0,0-2.485-1.75,5.633,5.633,0,0,0-1.872.93c-1.306.708-1.5.669-2.106-.741a21.834,21.834,0,0,0-7.281-9.135,32.051,32.051,0,0,0-15.815-6.786,37.469,37.469,0,0,0-19.129,1.891,30.176,30.176,0,0,0-8.113,4.906,40.421,40.421,0,0,0-5.6,6.8c-.512.732-.872,1.373-1.747.352a1.111,1.111,0,0,0-1.628-.142,2.971,2.971,0,0,0-.61,2.093c-.032.941.025,1.885-.034,2.825a5.556,5.556,0,0,1-2.814,4.95c-.566.313-1.24.676-.958,1.474s1.052.828,1.773.837a3.357,3.357,0,0,0,1.734-.455c.95-.548,1.266-.072,1.37.786,1.62,8.5,3.12,17.014,4.552,25.542.116.692.036,1.393.141,2.081.133.87.081,1.808.839,2.476,1.521-.645,2.335-1.963,3.193-3.24" transform="translate(-1486.651 -254.261)" fill="#201f51"/>
            <path id="Trazado_1043645" data-name="Trazado 1043645" d="M2771.616,793.154c-.96,0-1.656.687-2.521.936a1.328,1.328,0,0,0-.628,1.6q1.949,10.1,3.808,20.212a39.565,39.565,0,0,1,.606,4.124,2.327,2.327,0,0,0,2.015,2.373,12.358,12.358,0,0,1,1.552.554,3.134,3.134,0,0,0,.459-2.837c-1.3-8.534-2.828-17.03-4.669-25.47a3.053,3.053,0,0,0-.621-1.494" transform="translate(-2676.778 -752.645)" fill="#3659ac"/>
            <path id="Trazado_1043646" data-name="Trazado 1043646" d="M4194.211,2742.008c-1.354-1.449-.319-2.723-.343-3.925-.018-.911.663-2.145-.13-2.657-.875-.564-2.1-.076-3.126.416-3.528,1.7-3.642,2.263-.924,4.938a10.257,10.257,0,0,0,4.028,2.752,10.725,10.725,0,0,1,2.721,1.849,1.723,1.723,0,0,0,2.22.02c1.414-.949,2.472-2.177,2.315-3.894a6.2,6.2,0,0,0-3.4-5.148,1.062,1.062,0,0,0-.141-.055c-2-.71-2.556-1.453-2.517,1.6a23.471,23.471,0,0,1-.707,4.1" transform="translate(-4174.435 -2595.48)" fill="#93cdf8"/>
            <path id="Trazado_1043647" data-name="Trazado 1043647" d="M2025.505,1538.785c-1.245,1.229-2.415,2.545-3.748,3.674a17.992,17.992,0,0,1-24.13-.659c-1.66-1.518-3.166-3.2-4.744-4.8a.255.255,0,0,1,0,.247q.067.316.134.633c1.672,6.519,9.146,12.43,15.96,12.536,1.382.022,2.836.536,4.162-.312,4.45-1.093,7.653-3.877,10.325-7.379.575-.753,1.1-1.539,1.666-2.3a1.524,1.524,0,0,0,.378-1.635" transform="translate(-1885.105 -1458.497)" fill="#1a1749"/>
            <path id="Trazado_1043648" data-name="Trazado 1043648" d="M2745.993,787.36a3.261,3.261,0,0,0,.092,1.9c1.718,8.123,3.268,16.276,4.48,24.488.167,1.127.175,2.276.257,3.416.55.319,1.086.723,1.756.262-.548-8.022-2.441-15.839-3.743-23.746-.308-1.868-.65-3.729-.991-5.592-.068-.373.01-.825-.456-1.035l-1.4.312" transform="translate(-2651.156 -746.851)" fill="#f9d444"/>
            <path id="Trazado_1043649" data-name="Trazado 1043649" d="M2921.735,885.7q-.054.172-.107.344c.076,1.167-1.18,1.977-.887,3.2.318,2.423,1.253,4.695,1.8,7.065.611,2.668,1.346,5.31,1.811,8.009a2.639,2.639,0,0,0,.642,1.481,4.273,4.273,0,0,0,1.465.92c.738-.515.625-1.3.656-2.032.172-4.052-.716-7.984-1.445-11.93a33.087,33.087,0,0,0-1.389-5.617c-.279-.746-.523-1.7-1.731-1.468a.705.705,0,0,1-.81.027" transform="translate(-2834.785 -840.409)" fill="#395cad"/>
            <path id="Trazado_1043650" data-name="Trazado 1043650" d="M2620.615,1659.429c2.8,2.348,5.461,4.854,8.481,6.96,4.377,3.053,8.939,5.809,13.512,8.555.155.093.335.255.6.006a9.064,9.064,0,0,0-2.505-1.79,88.089,88.089,0,0,1-14.536-11.422c-3.2-3.167-4.712-6.631-3.212-11.041a4.019,4.019,0,0,0,.1-.888,8.673,8.673,0,0,0-2.575,7.568,4.728,4.728,0,0,1,.136,2.052" transform="translate(-2535.273 -1565.549)" fill="#eea12e"/>
            <path id="Trazado_1043651" data-name="Trazado 1043651" d="M3167.1,1479.205c2.579-.006,3.184-.379,3.593-2.024.305-1.23-.855-3.522-2.011-4.186-.512-.293-.73.167-1.1.206a4.187,4.187,0,0,0-3.1,2.147c-1.278,1.992-.737,3.214,1.573,3.716a9.657,9.657,0,0,0,1.042.141" transform="translate(-3091.021 -1397.673)" fill="#92cefa"/>
            <path id="Trazado_1043652" data-name="Trazado 1043652" d="M2881.783,834.9c.887.333,1.028,1.174,1.269,1.9a51.648,51.648,0,0,1,2.64,19.143l2.7,1.861c-.779-3.956-1.53-7.588-2.205-11.234-.868-4.688-1.75-9.372-2.837-14.017l-.289-.427a3.172,3.172,0,0,1-1.276,2.77" transform="translate(-2794.024 -789.628)" fill="#222b70"/>
            <path id="Trazado_1043653" data-name="Trazado 1043653" d="M3811.59,2406.169a1.624,1.624,0,0,0,1.854-.963,3.026,3.026,0,0,0-.452-3.215c-1.418-1.734-4.933-1.349-6.021.594a1.038,1.038,0,0,0,.166,1.36,6.685,6.685,0,0,0,4.453,2.224" transform="translate(-3767.375 -2278.265)" fill="#95d0fb"/>
            <path id="Trazado_1043654" data-name="Trazado 1043654" d="M2965.824,972.852c.2-2.023-.549-3.9-.978-5.815a84.852,84.852,0,0,0-2.445-9.174,3.789,3.789,0,0,0-.825-1.566c-.544,1.271-.135,2.557-.022,3.826a37.278,37.278,0,0,0,2.649,11.125c.321.772.712,1.429,1.621,1.6" transform="translate(-2875.621 -907.456)" fill="#f1d043"/>
            <path id="Trazado_1043655" data-name="Trazado 1043655" d="M3019.494,1319.493c-1.35-1.329-1.183-2.972-1.116-4.588.029-.714-.5-.9-1.02-1.112-1.91-.786-3.831-1.548-5.722-2.375-.9-.391-1.235-.168-1.133.763.139,1.266.292,2.53.449,3.881.581-.2.6-.606.7-.958.513-1.923.513-1.924,2.331-1.273.474.17.937.379,1.42.518,1.269.365,1.99,1.05,1.76,2.474-.262,1.619,1.2,1.988,2.334,2.671" transform="translate(-2931.811 -1244.265)" fill="#cff2fa"/>
            <path id="Trazado_1043656" data-name="Trazado 1043656" d="M4202.063,2251.3c1.149.052,1.6-.587,1.543-1.293a1.8,1.8,0,0,0-1.9-1.6c-.879-.006-1.893.645-1.812,1.48.113,1.167,1.472,1.107,2.166,1.409" transform="translate(-4177.686 -2133.58)" fill="#98d0fa"/>
            <path id="Trazado_1043657" data-name="Trazado 1043657" d="M1717.6,3638.095c4.673-3.558,9.311-7.164,14.329-10.254,1.669-1.264,1.635-1.662-.358-2.445a33.189,33.189,0,0,1-5.829-2.864c-2.641-1.689-5.728-1.418-8.665-1.768a1.93,1.93,0,0,0-1.551.825,5.608,5.608,0,0,1-2.873,2.485,72.316,72.316,0,0,1-8.45,2.24,32.213,32.213,0,0,1-14.9-1.472c-1.069-.349-2.163-.421-3.22-.722-.6-.088-1.3-.244-1.638.389-.321.606.145,1.154.529,1.6a26.836,26.836,0,0,0,7.215,6.106c4.807,2.7,9.786,5.019,15.432,5.485a6.641,6.641,0,0,0,1.813,0c2.138-.411,4.319-.522,6.458-.879,1.22-.2,1.757.037,1.708,1.271" transform="translate(-1576.581 -3435.833)" fill="#f3a630"/>
            <path id="Trazado_1043658" data-name="Trazado 1043658" d="M2015.214,3644.622a.78.78,0,0,0,.039-.144c.051-.644,1.3-.913.769-1.558-.477-.578-1.421-.265-2.164-.163a57.536,57.536,0,0,1-7.759,1,22.74,22.74,0,0,1-8.511-1.863,40.1,40.1,0,0,1-10.68-5.827,23.244,23.244,0,0,1-4.67-4.8c.472-.438.936-.2,1.361-.238,1.372.149,2.744.27,4.107.524a2.986,2.986,0,0,0,2.433-.376c.419-.773-.286-.8-.7-.948a4.72,4.72,0,0,0-1.646-.136c-2.718-.005-5.437-.056-8.152.014a7.373,7.373,0,0,1-5.865-2.179,2.142,2.142,0,0,0-1.6-.253,20.362,20.362,0,0,0-5.761,1.751,1.606,1.606,0,0,0-1.132,1.285,69.76,69.76,0,0,1,13.778,6.178c.52.3,1.017.64,1.525.961a103.993,103.993,0,0,1,11.32,7.253c2.1,1.474,4.084,3.108,6.309,4.409a26.643,26.643,0,0,0,10.825-.3q2.5-1.878,4.993-3.755c.385-.289.785-.56,1.178-.839" transform="translate(-1874.198 -3442.359)" fill="#ed992f"/>
            <path id="Trazado_1043659" data-name="Trazado 1043659" d="M1396.906,2648.952h-8.691c4.363-5.313,5.013-11.489,5.367-17.7a68.572,68.572,0,0,1,3.339-18.546,9.493,9.493,0,0,0,.478-2.3c-1.286,3.6-3.36,6.835-4.665,10.416a30.982,30.982,0,0,1-12.087,15.8,3,3,0,0,0-1.08,1.018.653.653,0,0,0-.024.82c.752,1.092,1.5,2.184,2.21,3.3a.915.915,0,0,0,.888.436c.9-.464,1.3-1.371,1.857-2.12a60.9,60.9,0,0,0,4.736-7.111,5.006,5.006,0,0,1,1.275-1.461,22.652,22.652,0,0,1-3,9.388c-.932,1.594-2.057,3.071-2.911,4.711.141,1.753,1.564,2.676,2.639,3.783.753.775,1.621,1.46,2.413,2.213a1.917,1.917,0,0,0,1.227.533,1.042,1.042,0,0,0,.74-.476c.26-.4-.017-1.111.588-1.266.562-.143.873.409,1.2.755,2.207,2.322,3.974,4.842,3.984,8.216,0,.8.03,1.733,1.074,2.081l1.273-.433c-.653-1.464-.233-3.077-.653-4.574.447-1.573-.5-2.773-1.15-4.037a14.451,14.451,0,0,0-2-2.379c.133-.564,1.211-.221.975-1.069" transform="translate(-1227.362 -2477.086)" fill="#f3a42f"/>
            <path id="Trazado_1043660" data-name="Trazado 1043660" d="M1551.909,3413.062l-.914-.573a1.275,1.275,0,0,0-.348,1.233,17.941,17.941,0,0,1-1.7,8.405c-1.161,2.82-2.68,3.485-5.643,2.586a27.12,27.12,0,0,1-4.5-2.148,4.579,4.579,0,0,0-4.3-.42c-1.378.6-2.977-.143-4.486-.181-.5-.012-1-.143-1.509-.122-1.113.046-1.731.5-1.441,1.7a1.019,1.019,0,0,0,.472.834c1.229-1.633,2.819-.419,4.211-.434a12.528,12.528,0,0,1,7.429,2.555,19.413,19.413,0,0,0,3.869,1.676c1.76.721,1.763.714.685,2.033l6.654-3.711c2.657-3.725,2.917-7.951,2.615-12.281-.041-.587-.251-1.214-1.1-1.157" transform="translate(-1388.393 -3238.203)" fill="#f69b6c"/>
            <path id="Trazado_1043661" data-name="Trazado 1043661" d="M1411.195,3388.509c-.956-1.419-.435-3.1-.866-4.632-.8-2.851-2.749-4.909-4.7-6.983a.876.876,0,0,0-1.24-.062,1.37,1.37,0,0,0-.175,1.893,4.356,4.356,0,0,0,.569,1.523,11.939,11.939,0,0,1,.212,8.583c-.243.719-.7,1.473-.181,2.272l6.379-2.593" transform="translate(-1240.092 -3204.15)" fill="#fdc33d"/>
            <path id="Trazado_1043662" data-name="Trazado 1043662" d="M1500.909,3430.495c.943-2.777,1.961-5.529,1.253-8.557a7.135,7.135,0,0,0-1.853-3.821l-.608.286c.648.352.585.965.61,1.56a21.018,21.018,0,0,1-2.2,11.322c-.074.134.042.369.069.557l2.726-1.346" transform="translate(-1336.185 -3243.543)" fill="#ea744b"/>
            <path id="Trazado_1043663" data-name="Trazado 1043663" d="M2113.039,4045.2c-.979-.637-1.944.056-2.919.038-2.05-.039-4.1-.009-6.151-.01a3.4,3.4,0,0,0-1.755.27,63.452,63.452,0,0,0,5.134,3.97,60.092,60.092,0,0,0,5.691-4.268" transform="translate(-1978.194 -3838.342)" fill="#e17f25"/>
            <path id="Trazado_1043664" data-name="Trazado 1043664" d="M2505.674,3088.472a19.29,19.29,0,0,1,8.244-2.685,1.772,1.772,0,0,0,1.741.063,49.627,49.627,0,0,0,8.4-3.451,4.836,4.836,0,0,0,2.556-2.638c.275-.833.44-1.68-.588-2.194a39.484,39.484,0,0,1-7.268,1.913,52.583,52.583,0,0,1-11.165.259,3.725,3.725,0,0,1-2.433-.993.477.477,0,0,1,.594-.165c2.385,1.771,5.176,1.375,7.845,1.31a40.21,40.21,0,0,0,8.841-1.119c1.273-.319,2.363-1.137,3.709-1.218a3.485,3.485,0,0,0,2.842-2.178,2.377,2.377,0,0,0-.172-2.8c-.737-.88-1.687-.725-2.639-.415a8.285,8.285,0,0,1-4.371.994,45.41,45.41,0,0,1-13.627-1.618,8.059,8.059,0,0,1-3.555-1.864c1.92.649,3.552,1.291,5.222,1.813a30.487,30.487,0,0,0,14.473,1.331,9.457,9.457,0,0,0,1.979-.691,2.072,2.072,0,0,0,1.685-2.458,3.06,3.06,0,0,0-2.7-2.643c-1.757-.176-3.525-.279-5.289-.379a41.584,41.584,0,0,1-6.57-1.069,1.8,1.8,0,0,1-1.657-2.074c.058-1.79.031-3.583,0-5.374-.01-.688.045-1.414-.6-1.916a3.324,3.324,0,0,1-2.173,2.218c-1.588.683-2.7,2.242-4.556,2.457a2.633,2.633,0,0,0-2.032.8,21.406,21.406,0,0,0-5.162,5.565,16.264,16.264,0,0,1-5.628,5.226c-2.76,2.967-3.337,6.5-2.632,10.3.234,1.259.913,2.482-.3,3.6,5.8-.389,11.412.72,16.987,2.1" transform="translate(-2414.585 -2900.119)" fill="#fdbe87"/>
            <path id="Trazado_1043665" data-name="Trazado 1043665" d="M2976.866,2800.272c3.31-1.155,4.853-4.072,6.781-6.6a21.064,21.064,0,0,1,5.652-5.145c-6.675-4.711-10.234-11.243-11.533-19.094-.981-.605-1.514.047-1.961.736a6.654,6.654,0,0,0-.758,2.558c-.812,4.586-.6,9.215-.616,13.834,0,.8.049,1.595-.032,2.385a2.4,2.4,0,0,1-1.24,2.225,3.334,3.334,0,0,0-.434,2.817c.185,1.362.2,2.738.444,4.094a1.656,1.656,0,0,1-.426,1.765,10.319,10.319,0,0,1-.855.874c-3.347,3.606-3.314,8.022-3.053,12.477a1.5,1.5,0,0,0,1.093,1.468,2.042,2.042,0,0,0,1.163-.305c.427-.462.311-1.025.3-1.567a34.279,34.279,0,0,1,.029-4.93c.425-3.456,1.807-6.329,5.447-7.592" transform="translate(-2899.448 -2627.764)" fill="#ec962f"/>
            <path id="Trazado_1043666" data-name="Trazado 1043666" d="M3292.993,3369.2l.591-.467c-1.111-1.036-2.216-.564-3.322.01l-1.816.746c-2.54,1.97-3.329,4.76-3.739,7.727a1.472,1.472,0,0,0,.352,1.252c-.142,2.2.275,4.373.313,6.564l2.752-1.247c.233-3.627.553-7.239,2-10.643a8.309,8.309,0,0,1,2.867-3.941" transform="translate(-3220.137 -3196.105)" fill="#fde366"/>
            <path id="Trazado_1043667" data-name="Trazado 1043667" d="M3214.334,3376.751c-2.255-.336-3.419,1.1-4.41,2.707-2.207,3.579-1.893,7.473-1.365,11.382a8,8,0,0,0,2.457-.343.983.983,0,0,1,.822-.3c.84-.015,1.038-.334.718-1.134a11.651,11.651,0,0,1,1.778-12.314" transform="translate(-3136.915 -3204.244)" fill="#fec33f"/>
            <path id="Trazado_1043668" data-name="Trazado 1043668" d="M3301.526,3389.241c-2.362,1.026-3.115,3.249-3.958,5.332-1.049,2.594-1.033,5.415-1.5,8.135a1.141,1.141,0,0,0,.586,1.118l2.494-.781a6.742,6.742,0,0,1-.652-4.177c.2-3.447.315-6.937,3.027-9.626" transform="translate(-3228.67 -3216.142)" fill="#f8be3c"/>
            <path id="Trazado_1043669" data-name="Trazado 1043669" d="M46.842,874.686c-1.741-.444-2.237-2.064-3.186-3.257-.33,1.3-.67,2.594-.988,3.9a18.844,18.844,0,0,1-3.112,6.575.431.431,0,0,0,.074.581c4.8-.027,9.606-.131,14.2,1.568a13.093,13.093,0,0,1,7,5.408,6.816,6.816,0,0,1,.636,5.875c-.119.349.055.549.36.682a4.966,4.966,0,0,1,3.865,7.18c-.762,1.71-.764,1.714,1.048,2.359a53.131,53.131,0,0,1,15.774,9.24,2.292,2.292,0,0,0,1.81,1.508,24.037,24.037,0,0,1,4.658,5.453c5.868,8.076,10.854,16.69,15.869,25.287,3.17,5.435,6.408,10.832,9.615,16.246,1.919-.6,3.377-1.942,4.933-3.087a74.894,74.894,0,0,0,9.64-8.166c3.941-4.088,7.628-8.377,9.866-13.657a6.4,6.4,0,0,0,.563-3.612,25.581,25.581,0,0,1,.171-4.749,39.361,39.361,0,0,0-2.526-15.5,61.785,61.785,0,0,0-11.738-18.5,62.862,62.862,0,0,0-18.743-14.456,115.621,115.621,0,0,0-19.187-7.435A105.944,105.944,0,0,0,72.468,870.4a86.818,86.818,0,0,0-11.25-1.388c-.6.745-.883,1.808-2.066,1.958a3.591,3.591,0,0,1-1.536,1.4c-.666-.231-1.247.194-2.022.363,2.541-6.226,3.289-12.794,5.73-18.881a9.139,9.139,0,0,0,.769-4.32c.04-.488.451-.911.265-1.44a1.469,1.469,0,0,0-1.92-1.108c-1,.649-1.1,1.748-1.353,2.74-1.682,6.562-3.449,13.1-5.376,19.6-.043.143-.072.29-.114.433-1.124,3.835-1.125,3.835-5.14,4.69a4.489,4.489,0,0,0-1.612.243" transform="translate(102.294 -803.656)" fill="#5692e8"/>
            <path id="Trazado_1043670" data-name="Trazado 1043670" d="M876.374,2788.643c-.467.51-.214,1.148-.314,1.723a2.269,2.269,0,0,1,1.153,1.637c1.128,4.007,2.761,7.866,3.613,11.956a2.788,2.788,0,0,0,.583,1.2,4.077,4.077,0,0,0,3.144.418,9.006,9.006,0,0,0,3.124-1.763c3.419-2.564,6.5-5.524,9.826-8.19a15.722,15.722,0,0,0,2.618-3.077l2.752-2.986c-.41-1.07-.826-.212-1.12.046-1.8,1.586-3.388,3.435-5.448,4.71-2.627,1.626-4.754,3.849-7.24,5.634a2.817,2.817,0,0,1-4.3-1.437,52.346,52.346,0,0,1-1.193-6.265c.117.865.988,1.326,2.168,1.357a6.613,6.613,0,0,0,4.185-1.526c3.253-2.442,5.655-5.636,8.032-8.848a6.2,6.2,0,0,1,.946-1.156,23.894,23.894,0,0,0,2.838-4.837c-3.155,3.049-5.638,6.723-9.231,9.331-2.147.268-3.257-1.306-4.5-2.546-.523-.522-.036-1.234.247-1.807.952-1.926,1.783-3.9,2.7-5.848.273-.581.616-1.249.017-1.8-.523-.479-1.157-.162-1.722.034-1.385.481-2.712,1.1-4.069,1.654-1.429.579-2.739.645-3.908-.543a1.3,1.3,0,0,0-1.371-.431c-.763.432-.824,1.2-.947,1.934-.6,3.575-1.519,7.086-2.177,10.649a1.1,1.1,0,0,1-.4.78" transform="translate(-704.362 -2632.623)" fill="#e9902b"/>
            <path id="Trazado_1043671" data-name="Trazado 1043671" d="M548.2,3131.2c-3.085,2.683-6.146,5.392-9.262,8.038a37.112,37.112,0,0,1-5.96,4.486,2.921,2.921,0,0,0,3.647.056,75.021,75.021,0,0,1,24.734,3.525c1.9.631,3.9.978,5.864,1.443.494.117,1.054.24,1.4-.234.375-.51-.088-.952-.322-1.356a17.948,17.948,0,0,0-7.952-7.074,66,66,0,0,0-12.553-4.34c-1.088-.288-1.254-.77-.929-1.719.34-.995,1.171-1.757,1.331-2.825" transform="translate(-352.438 -2971.279)" fill="#f3a52f"/>
            <path id="Trazado_1043672" data-name="Trazado 1043672" d="M996.616,2206.59c.1.02.246.005.29.065,1.977,2.648,4.282,1.607,6.595.585.969-.428,1.946-.842,2.938-1.214.295-.11.683-.416.972-.049.257.327-.036.662-.181.967-1.021,2.161-2,4.342-3.1,6.466a1.893,1.893,0,0,0,.485,2.729,25.336,25.336,0,0,1,2.492,1.907,1.305,1.305,0,0,0,1.977-.375c-.452-.478-.229-1-.155-1.545.6-4.43,2.451-8.474,3.982-12.619.785-2.124.049-3.091-2.165-3.537-3.042-.613-5.775.551-8.571,1.246-1.867.464-2.108.4-2.231-1.582-.287-4.6.914-8.96,2.091-13.329.219-.813.59-1.592.764-2.413a9.657,9.657,0,0,1,3.5-5.242,2.833,2.833,0,0,0,1.254-2.278,3.68,3.68,0,0,0-1.81-1.508,1.026,1.026,0,0,0-1.213.318c-.527.083-.725.5-.924.9a65.965,65.965,0,0,0-5.4,14.074,4.733,4.733,0,0,0-.16,1.331,10.324,10.324,0,0,1-.513,3.951c-.715,3.191-.7,6.472-1.37,9.663a1.363,1.363,0,0,0,.442,1.485" transform="translate(-820.941 -2063.729)" fill="#f3a62f"/>
            <path id="Trazado_1043673" data-name="Trazado 1043673" d="M598.171,3355.333l-3.647-.055a10.2,10.2,0,0,1-3.4-.218c-.47-.561-1.1-.345-1.7-.364-1.852-.055-3.756.374-5.516-.557l-.379.56c-.6.637-1.477.029-2.322.605a12.121,12.121,0,0,1,4.5,6.88c2.261-1.392.857-3.122.383-4.94,2.205.6,4.28,1.251,6.4,1.719,9.2,2.031,18.415,4,27.716,5.525a16.074,16.074,0,0,0,6.483-.186c.434-.109,1.022-.106,1.108-.615.1-.565-.458-.889-.888-1.085-1.466-.667-2.946-1.317-4.459-1.869a87.949,87.949,0,0,0-17.62-4.232,56.989,56.989,0,0,1-6.659-1.17" transform="translate(-413.987 -3182.834)" fill="#fadf61"/>
            <path id="Trazado_1043674" data-name="Trazado 1043674" d="M700.821,2297.072c-.092,1.852.98,3.248,2.053,4.542,5.144,6.2,9.885,12.705,14.838,19.05a40.238,40.238,0,0,0,3.485,3.542c.171.17.372.407.648.269.344-.171.286-.522.176-.785a13.952,13.952,0,0,0-.855-1.749c-3.3-5.53-6.553-11.091-9.959-16.559a47.6,47.6,0,0,0-6.832-9.1,4.134,4.134,0,0,0-.661-.615c-.666-.41-1.328-1.156-2.164-.739-.818.409-.744,1.338-.731,2.141" transform="translate(-514.496 -2177.605)" fill="#fce265"/>
            <path id="Trazado_1043675" data-name="Trazado 1043675" d="M847.739,2926.166c-1.666.67-2.245,2.343-3.288,3.564a38.8,38.8,0,0,1-6.267,6.249,5.856,5.856,0,0,1-3.509,1.249c-1.539.005-2.031-.544-1.908-2.11a1.473,1.473,0,0,0-.019-.44c-.019-.08-.116-.143-.268-.316-.774,1.729-.355,3.425-.141,5.086.139,1.079.519,2.125.731,3.2.247,1.249.725,2.232,2.253,2.056.927-.106.546.729.842,1.092,2.516-1.408,4.459-3.462,6.709-5.124a62.081,62.081,0,0,0,7.733-6.7c.276-.285.555-.828,1.1-.321.625-.579,1.26-1.147,1.87-1.741.235-.229.626-.495.277-.865s-.715-.179-1.041.137c-1.584,1.533-3.187,3.043-4.838,4.511a22.792,22.792,0,0,1-7.082,4.483,7.831,7.831,0,0,1-3.432.28c-.356-.024-.892-.049-1.012-.5-.113-.423.275-.717.553-1,2.181-2.212,4.528-4.268,6.486-6.687,1.566-1.934,3.3-3.754,4.245-6.107" transform="translate(-653.2 -2776.718)" fill="#f3a52f"/>
            <path id="Trazado_1043676" data-name="Trazado 1043676" d="M3391.426,2446.327c-.537-1.212-.177-2.545-.529-3.793-.131-.466.307-.685.771-.694,4.467-.085,6.8-3.079,8.785-6.395,2.79-4.666,2.292-9.636,1.063-14.618-1.438-5.833-4.668-10.733-8.3-15.427-.684-.882-1.129-.927-1.67.079-3.643,6.771-7.306,13.58-8.717,21.183-1.333,7.187-1.206,14.385,2.646,20.971,1.869,3.194,4.388,5.841,8.278,6.725.363.083.858.372,1.133-.03.355-.518-.226-.786-.508-1.092a19.207,19.207,0,0,1-2.986-4.65,1.612,1.612,0,0,1,.1-1.7.367.367,0,0,0-.064-.564" transform="translate(-3334.109 -2281.915)" fill="#fec53d"/>
            <path id="Trazado_1043677" data-name="Trazado 1043677" d="M3417.165,3399.93a17.424,17.424,0,0,1,3.387-8.979c-.718.061-1.435.606-2.156.009a.591.591,0,0,0-.877-.049,86.862,86.862,0,0,0-16.119,1.245,1.562,1.562,0,0,0-1.159.219,27.809,27.809,0,0,1-5.015,2.062,19.683,19.683,0,0,0-6.164,3.689c-.448.376-.986.744-.789,1.471a20.4,20.4,0,0,0-2.737,3.154c-2.669,4.73-2.451,9.5.2,14.194a12.71,12.71,0,0,0,2.41,3.038c1.725,1.618,2.811,1.828,5.045.864a21.344,21.344,0,0,0,5.774-3.787q7.658-6.874,14.969-14.108c.708-.7,1.318-1.5,2-2.232.335-.361.659-.775,1.234-.79" transform="translate(-3352.244 -3217.564)" fill="#fec53c"/>
            <path id="Trazado_1043678" data-name="Trazado 1043678" d="M3758.274,3396.508a20.806,20.806,0,0,1,9.257-5.448,10.981,10.981,0,0,0,3.87-1.995c-.47-1.157-1.619-1.114-2.555-1.267-4.9-.8-9.478-.2-13.32,3.238a7.845,7.845,0,0,0-3.027,6.694c.089,1.113.015,2.238.015,3.71,2.087-1.885,3.134-4.331,5.76-4.932" transform="translate(-3722.245 -3214.475)" fill="#ea8320"/>
            <path id="Trazado_1043679" data-name="Trazado 1043679" d="M3279.279,2347.217c-.641-.327-.72-1.077-1.194-1.53-.451.426-.011.708.178,1.023a79.234,79.234,0,0,1,8.439,18.248,57.95,57.95,0,0,1,2.673,14.886c.043,1.577.29,3.157.269,4.748.168.211.113.467.153.705.149.892.477.511.8.1.657-2.03-.031-4.043-.18-6.043-.162-2.171-.286-4.353-.416-6.521a35.04,35.04,0,0,0-2.281-11.319c-1.371-1.626-1.632-3.764-2.632-5.564a34.99,34.99,0,0,0-2.056-3.773c-1.238-.937-1.676-2.427-2.572-3.6-.328-.429-.506-.972-.983-1.291l-.2-.07" transform="translate(-3217.081 -2225.886)" fill="#df7b1c"/>
            <path id="Trazado_1043680" data-name="Trazado 1043680" d="M3265.024,3148.632c1.108.277,2.214-.168,3.322-.01.932-.073,1.107-.555.988-1.425a48.25,48.25,0,0,1-.659-7.7c.8-.834.429-1.716.116-2.6-.333-.479-.632-1.06-1.362-.5q-1.2,6.12-2.406,12.24" transform="translate(-3194.9 -2975.991)" fill="#62addc"/>
            <path id="Trazado_1043681" data-name="Trazado 1043681" d="M3414.5,3226.24l.877.049c.3-.041.7.022.865-.145.291-.3-.12-.53-.32-.679a79.42,79.42,0,0,1-8.853-8.1.347.347,0,0,0-.527-.056q.031.282.063.564a53.626,53.626,0,0,0,7.9,8.371" transform="translate(-3349.229 -3052.893)" fill="#de7b1c"/>
            <path id="Trazado_1043682" data-name="Trazado 1043682" d="M3278.29,3109.138c.512-.215.68.183.9.488.405-.513.6-.987-.242-1.27-.642-.016-.146-.789-.627-.913q-.016.847-.032,1.695" transform="translate(-3205.76 -2948.737)" fill="#ec962f"/>
            <path id="Trazado_1043683" data-name="Trazado 1043683" d="M1516.633,898.224q-2.252,7.721-4.5,15.442a61.128,61.128,0,0,1-3.056,8.781,8.9,8.9,0,0,0,3.08-1.385,52.106,52.106,0,0,1,1.7-11.172,42.933,42.933,0,0,1,4.037-10.108,3.351,3.351,0,0,1-1.256-1.559" transform="translate(-1352.247 -852.349)" fill="#242d72"/>
            <path id="Trazado_1043685" data-name="Trazado 1043685" d="M2015.712,2749.02c.024,2.688.1,5.377.045,8.063a1.5,1.5,0,0,0,1.362,1.747,45.173,45.173,0,0,0,11.423,1.4,3.579,3.579,0,0,1,2.583.631c1.363,1.186,1.212,2.771-.415,3.98-.122.029-.17.073-.146.134s.058.1.092.1c1.019-.047,2.174-.184,2.634.948a2.545,2.545,0,0,1-1.073,3.015c-.5.411-1.041.779-1.563,1.167q-.315.094-.051.287c.523,1.736.14,2.727-1.565,3.862a30.211,30.211,0,0,1-5.868,2.67c-1.536.6-3.133,1.054-4.7,1.572.841,2.1,2.7,2.528,4.659,2.6,3.371.123,6.748.115,10.122.175.65.012,1.3.087,1.947.133.464.694,1.2.664,1.905.667,4.709.021,9.418.05,14.126-.016,1.449-.021,2.874-.439,4.321-.6a4.328,4.328,0,0,0,2.737-2.445q0-.473-.005-.945a2.867,2.867,0,0,0-1.871-.864,25.121,25.121,0,0,1-4.226-1.176,2.154,2.154,0,0,1-1.567-1.982,2.957,2.957,0,0,0-.63-1.657,2.044,2.044,0,0,1-.4-1.826,1.592,1.592,0,0,0-1.079-2.024c-1.026-.466-1.635-1.136-1.281-2.352a1.271,1.271,0,0,0-.741-1.485,2.458,2.458,0,0,1-1.443-2.567c.241-1.313,1.325-1.829,2.5-2.085,2.421-.526,4.9-.715,7.339-1.127,1.171-.2,2.455-.143,3.365-1.131a2.539,2.539,0,0,0,.191-1.312c-.019-1.458-.447-1.805-1.859-1.434a22.159,22.159,0,0,1-3.655.847,6.932,6.932,0,0,0-1.021.062,4.964,4.964,0,0,1-3.375-.107,7.239,7.239,0,0,1-2-.673,1.465,1.465,0,0,1-.853-1.46c.066-.681.672-.829,1.208-.94,3.161-.647,6.3-1.395,9.453-2.076,2.061-.445,2.128-.524,2.108-2.531-.039-3.869.1-7.74-.076-11.609-1.935-2.785-4.593-3.84-8.035-3.921q-11.166-.263-22.331-.238a18.015,18.015,0,0,0-2.124.047c-1.187.222-1.406.859-.71,1.779a17.978,17.978,0,0,0,3.769,4.021c2.054,1.467,3.409,3.622,5.115,5.435a81.064,81.064,0,0,1,5.241,6.33c.568.323,1.147.627,1.741.9a5.028,5.028,0,0,1,2.677,5.212,5.344,5.344,0,0,1-5.144,4.257c-.2,0-.4,0-.606-.011-2.43-.335-4.254-1.388-4.814-3.935a7.531,7.531,0,0,1-.272-2.607,2.308,2.308,0,0,0-1.1-1.7c-4.966-4.128-9.65-8.553-14.272-13.046-.548-.533-.842-1.369-1.715-1.562q-.044,5.7-.087,11.405" transform="translate(-1919.132 -2592.93)" fill="#263173"/>
            <path id="Trazado_1043686" data-name="Trazado 1043686" d="M1575.765,2764.509c.019,4.129.019,8.259.072,12.388.01.761-.4.888-.993,1.01-3.562.738-7.123,1.481-10.676,2.258-.634.138-1.528-.023-1.673.946a2.229,2.229,0,0,0,1.02,2.464,4.855,4.855,0,0,0,2.579.763,10.771,10.771,0,0,0,3.389,0l.887-.086c.048-.2-.09-.3-.228-.393,2.063,0,3.9-.934,5.847-1.376,1.767-.4,3.6-.711,5.3.315.334.2.859.345.8.794s-.585.464-.987.513c-1.648.459-3.363.662-4.972,1.264a2.546,2.546,0,0,0-.556.441c-3.2.492-6.406.979-9.608,1.48a11.364,11.364,0,0,0-1.777.386,2.752,2.752,0,0,0-2.225,2.369,2.847,2.847,0,0,0,1.605,2.975c.658.343.905.536.506,1.355-.5,1.024.318,2.14,1.778,2.682.73.271,1.6.361.652,1.368a.856.856,0,0,0-.12.427c-.073.449-.183,1.039.179,1.282,1.64,1.1.39,3.949,3.051,4.519,2.07.443,4.1,1.093,6.211,1.38-.237-.7-.158-1.172.775-1.083,1.355.13,2.723.173,4.067.373,1.151.171,2.244.547,3.227-.5.381-.4.963-.088,1.42.135,1.808.884,3.6,1.793,5.423,2.657a8.438,8.438,0,0,0,2.485.623c2.266.318,3.581-.921,4.324-2.75,1.351-3.327,2.625-6.7,1.735-10.407-1.164-1.557-2.932-2.531-4.08-4.113a8.062,8.062,0,0,1-1.082-1.586.971.971,0,0,0-.267-.317,10.827,10.827,0,0,1-2.169-2.831c-1.776-2.585-3.548-5.171-5.463-7.66-2.37-2.061-5.206-1.605-7.935-1.267-2.159.267-2.142.425-2.139-1.79.005-3.828.02-7.655.018-11.483,0-.785.1-1.615-.667-2.183a2.234,2.234,0,0,0,.264,2.657" transform="translate(-1436.684 -2620.796)" fill="#fdbe86"/>
            <path id="Trazado_1043687" data-name="Trazado 1043687" d="M2003.806,1532.571q-.037-.29-.074-.581c-.409.733-1.314,1.125-1.449,2.045-2.668,4.356-5.733,8.31-10.766,10.266-.565.219-1.138.417-1.707.625-.2.391-.337.816-.832,1a17,17,0,0,0-1.585.871c-4.36,2.186-7.149,1.709-10.689-1.61a27.933,27.933,0,0,1-5.032-7.216,7.687,7.687,0,0,0-.918-1.539c-.438-.482-.9-.65-1.366-.008a5.825,5.825,0,0,0-.272,2.637,38.755,38.755,0,0,1-.679,7.964c-.067,1.543-1.634,2.123-2.225,3.331a3.017,3.017,0,0,0,.635,3.52,19.112,19.112,0,0,1,1.962,2.6c1.556,1.247,3.066,2.551,4.716,3.683a27.461,27.461,0,0,0,5.218,1.466,3.167,3.167,0,0,0,2.069-.066c.828-1.36-.153-2.5-.952-3.087-1.529-1.121-.764-2.5-.87-3.75-.052-.611.766-.529,1.216-.6a26.389,26.389,0,0,0,11.261-4.89c4.034-2.82,6.913-6.641,9.57-10.657.592-.754.8-1.739,1.513-2.423a5.06,5.06,0,0,1,1.255-3.589" transform="translate(-1861.882 -1453.747)" fill="#f39a6d"/>
            <path id="Trazado_1043688" data-name="Trazado 1043688" d="M2405.609,2744.168c-1.435-2.773-3.789-4.842-5.733-7.225-1.036-1.27-2.188-2.449-3.212-3.728-.5-.622-1.236-.826-1.808-1.281a23.533,23.533,0,0,1-3.523-4.046c-.25-.314.061-.4.309-.466-.114-.728-.732-.773-1.259-.8a22.633,22.633,0,0,0-4.521.057A4.108,4.108,0,0,0,2382,2730.7q-.019.636-.039,1.272a3.623,3.623,0,0,0,1.329,1.872c1.265,1.065,2.393,2.287,3.571,3.451,3.562,3.522,7.372,6.776,11.177,10.036a1.369,1.369,0,0,1,.6.814c.665.031.8-.562,1.023-.944a5.312,5.312,0,0,1,4.618-2.552c.49-.032,1.025.056,1.33-.476" transform="translate(-2285.29 -2587.282)" fill="#2d408a"/>
            <path id="Trazado_1043689" data-name="Trazado 1043689" d="M2635.333,1619.792c.864-1.918.615-3.993.814-6,.176-1.775.066-3.577.083-5.367a.182.182,0,0,0-.053-.292,52.436,52.436,0,0,0-10.425.607,6.538,6.538,0,0,0-3.941,2.366,5.2,5.2,0,0,0,.083,6.389c.56.763,1.219,1.456,1.834,2.181.774.636,1.141,1.776,2.372,1.848a28.708,28.708,0,0,0,7.447-.759,2.629,2.629,0,0,0,1.786-.976" transform="translate(-2528.362 -1525.994)" fill="#e6791c"/>
            <path id="Trazado_1043690" data-name="Trazado 1043690" d="M3132.492,2478.86c.366.371.265.828.242,1.27q.172,1.307.344,2.614c.371.416.719.5,1.053-.048a4.568,4.568,0,0,0,.781-2.513c-.037-3.471-.091-6.944.012-10.412a37.521,37.521,0,0,1,.915-7.186c.207-.914.615-1.708,1.783-1.674-.824-4.073.091-7.972,1.165-11.873.475-1.726,1.547-3.209,2.032-4.971a42.457,42.457,0,0,0-4.049,3.694,38.557,38.557,0,0,0-3.6,5.142c-.855,1.412-1.817,1.744-3.215.872-.177-.111-.347-.205-.544-.045-.326.3,0,.607,0,.91a3.29,3.29,0,0,0,.284,1.445,27.575,27.575,0,0,1,1.86,9.288c.3,4.5.621,8.991.933,13.487" transform="translate(-3059.304 -2319.241)" fill="#f3a52f"/>
            <path id="Trazado_1043691" data-name="Trazado 1043691" d="M2468.362,2033.049c-3.192-2-6.273-4.171-9.587-5.99a23.369,23.369,0,0,0-5.2-2.019c.288,1.892,1.553,3.105,2.659,4.266a50.355,50.355,0,0,0,22.853,14,20.522,20.522,0,0,0,2.667.5,1.534,1.534,0,0,0,1.74-.586c.7-1.02.019-1.795-.473-2.6-2.947-2.547-6.648-3.732-10.1-5.35-1.192-.558-2.291-1.257-3.447-1.865-.359-.189-.667-.45-1.11-.353" transform="translate(-2367.195 -1921.615)" fill="#f4a52e"/>
            <path id="Trazado_1043692" data-name="Trazado 1043692" d="M1696.5,1623.67a3.533,3.533,0,0,0-2.1-2.556,13.8,13.8,0,0,0-6.231-1.614c-2.57-.093-5.147-.02-7.721-.019a1.5,1.5,0,0,0-.738,1.229,15.174,15.174,0,0,0,.735,8.142,1.5,1.5,0,0,0,.549.691c1.369.594,2.759.273,4.155.106a26.1,26.1,0,0,0,7.408-1.96,6.385,6.385,0,0,0,3.944-4.02" transform="translate(-1539.707 -1536.742)" fill="#e6791c"/>
            <path id="Trazado_1043693" data-name="Trazado 1043693" d="M2018.871,2708.028c1.1-2.718,2.282-3.537,5.293-3.5,1.451.016,2.926-.254,4.354.232,6.12.026,12.241-.036,18.357.118,2.826.071,5.658.1,8.482.249a7.454,7.454,0,0,1,5.048,2.726c.209.223.215.924.842.481a5.574,5.574,0,0,0-.264-2.658,6.706,6.706,0,0,0-1.961-2.379,3.679,3.679,0,0,0-1.923-.306c-10.78-.261-21.563-.4-32.347-.318a16.467,16.467,0,0,0-4.478.367c-1.871,1.283-1.449,3.188-1.4,4.992" transform="translate(-1922.166 -2564.615)" fill="#487bc9"/>
            <path id="Trazado_1043694" data-name="Trazado 1043694" d="M1168.527,2189.031c1.1-4.138,2.174-8.277,4.3-12.073a39.829,39.829,0,0,0,1.756-4.125c-.85-1.2-1.032.062-1.249.408a56.879,56.879,0,0,0-4.813,9.806,67.026,67.026,0,0,0-4.654,19.363c-.208,2.873-.62,5.731-.545,8.62.014.534-.149,1.108.281,1.573.679-.175.708-.748.837-1.281,1.032-4.294,1.841-8.629,2.452-13,.37-2.645.922-5.256,1.546-7.851a2.325,2.325,0,0,0,.094-1.44" transform="translate(-990.982 -2061.379)" fill="#fce267"/>
            <path id="Trazado_1043695" data-name="Trazado 1043695" d="M2228.669,1556.986q.019.147.053.292c.8.163.868.91,1.157,1.45a29.873,29.873,0,0,0,5.779,8.279c4.4,4.068,8.242,3.253,13.047.033.415-.278.674-.635.077-1.02a15.093,15.093,0,0,1-9.078-.876,20.086,20.086,0,0,1-9.884-9.128c-.346-.6-.7-1.2-1.057-1.8q-.047,1.383-.095,2.765" transform="translate(-2120.855 -1474.842)" fill="#ec845e"/>
            <path id="Trazado_1043696" data-name="Trazado 1043696" d="M1287.7,3090.431c-.03.833.432,1.134,1.216,1.1,2-.095,4.006.106,6-.177a58.435,58.435,0,0,0-2.333-8.613c-.6-1.893-1.2-3.786-1.839-5.667-.262-.773-.652-1.312-1.268-.2l-1.774,13.563" transform="translate(-1117.776 -2919.125)" fill="#5fb0f0"/>
            <path id="Trazado_1043697" data-name="Trazado 1043697" d="M1863.771,1864.372c-2.719.106-5.19-1-7.775-1.541.788,1.291,2.122,1.952,3.313,2.778l2.085,1.424c4.042.729,7.92-.063,11.776-1.183a40.784,40.784,0,0,0,13.437-7.331,12.137,12.137,0,0,0,3.306-3.416.635.635,0,0,0,.2,1.033.851.851,0,0,0,1.126-.515c.516-1.056,1.705-2.008.673-3.372a4.14,4.14,0,0,0-2.247-.807,1.269,1.269,0,0,0-1.053.466c-.27.441-.033,1.036-.454,1.433a18.526,18.526,0,0,1-7.725,6.934c-4.616,2.234-9.425,3.793-14.668,3.633a2.35,2.35,0,0,0-1.989.465" transform="translate(-1744.686 -1756.883)" fill="#66a3e6"/>
            <path id="Trazado_1043698" data-name="Trazado 1043698" d="M2063.485,2681.241a.552.552,0,0,0,.645.471c8.523-.509,17.056-.188,25.581-.143,2.556.014,5.133.169,7.7.2a20.25,20.25,0,0,0,4.82-.275c-1.228-1.209-2.831-1.213-4.386-1.244-6.269-.125-12.538-.194-18.807-.306-3.994-.072-7.986-.194-11.979-.267a3.959,3.959,0,0,0-3.575,1.561" transform="translate(-1965.376 -2542.82)" fill="#62a7e8"/>
            <path id="Trazado_1043699" data-name="Trazado 1043699" d="M2055.193,2160.568a3.587,3.587,0,0,0,.647,2.65c.566.688.039,1.279-.265,1.877a6.408,6.408,0,0,0-1.319,2.972c-.252.638.172,1.228.139,1.851-.268,3.89.281,7.566,3,10.633a19.619,19.619,0,0,0,1.968,1.854c.4.341.81.778,1.4.146.7-.754-.12-.972-.446-1.249a11.35,11.35,0,0,1-4.215-10.643c.072-.577.24-1.144.364-1.715.486-.33.445-.913.679-1.363a17.728,17.728,0,0,1,1.525-3.711c.417-.344.861-.662,1.246-1.038,1.392-1.358,1.1-3.235-.7-4.619a2.691,2.691,0,0,0-4.018,2.355" transform="translate(-1923.699 -2047.651)" fill="#1a1949"/>
            <path id="Trazado_1043700" data-name="Trazado 1043700" d="M2111.731,2097.972a43.3,43.3,0,0,0,5.97,4.8c.76.567,1.409.271,2.075-.178,1.582-1.067,3.176-2.118,4.764-3.175a8.109,8.109,0,0,0,3.417-2.043c.389-.327.906-.7.47-1.343-.077-.047-.245-.132-.241-.141.184-.406.948-.642.537-1.2-.44-.6-1.04-.148-1.506.064a32.854,32.854,0,0,1-14.368,2.927c-.39-.007-.822-.1-1.119.286" transform="translate(-1994.493 -1987.429)" fill="#5fa4ec"/>
            <path id="Trazado_1043701" data-name="Trazado 1043701" d="M1650.088,2117.185a2.508,2.508,0,0,0-.241,1.4,31.069,31.069,0,0,0,13.369-3.894,47.351,47.351,0,0,0,11.657-9.161c.126-.13.216-.292.543-.742l-10.073,5.72c-1.254.03-2.027,1.02-3.062,1.491a118.468,118.468,0,0,1-12.193,5.183" transform="translate(-1517.082 -1997.292)" fill="#f0a12f"/>
            <path id="Trazado_1043702" data-name="Trazado 1043702" d="M1681.161,1709.944l2.409.853a5.115,5.115,0,0,0,2.952,1.193,8.079,8.079,0,0,0,4.676-3.667c1.387-1.877,2.448-3.858,2.06-6.3-3.892,5.01-9.578,5.353-15.271,5.678-.35,1.245.612,1.691,1.406,2.241.588.212,1.177-.122,1.767,0" transform="translate(-1536.463 -1615.099)" fill="#d05c14"/>
            <path id="Trazado_1043703" data-name="Trazado 1043703" d="M2420.043,2195.552a5.32,5.32,0,0,1,.79,2.379c1.335,5.154.25,9.649-3.807,13.3,1.006,1.191,1.746,1,2.671-.123a14.428,14.428,0,0,0,3.336-10.284c-.027-.546-.032-1.094-.048-1.642-.023-1.051.245-2.138-.391-3.114a7.121,7.121,0,0,0-1.19-2.481,2.259,2.259,0,0,1-.441-1.913c.42-1.766.063-2.853-1.081-3.292-2.212-.851-3.419.122-3.325,2.679a1.343,1.343,0,0,0,.716,1.376,13.414,13.414,0,0,1,2.771,3.12" transform="translate(-2304.532 -2076.324)" fill="#1e1b4b"/>
            <path id="Trazado_1043704" data-name="Trazado 1043704" d="M1840.219,1874.632a16.6,16.6,0,0,0-3.075-.884c.266,1.471-.854,2.293-1.526,3.332-.052-.955.887-1.59.782-2.963-2.393,3.67-5.625,5.957-8.932,8.13a32.625,32.625,0,0,1-19.243,5.765,2.392,2.392,0,0,0-1.479.188l.531.393c5.8.078,11.46-.593,16.753-3.24-.358.9-1.471.8-1.894,1.59.727.341,1.324-.272,1.971-.112a1.815,1.815,0,0,0,1.782-.576c4.3-3.464,8.885-6.557,13.227-9.964.54-.423,1.175-.825,1.1-1.66" transform="translate(-1690.037 -1778.05)" fill="#4886d6"/>
            <path id="Trazado_1043705" data-name="Trazado 1043705" d="M1738.576,1828.68c-5.162,4.334-10.711,8.173-16.114,12.2l-4.021,3.212a1.622,1.622,0,0,1,1.447.924,3.637,3.637,0,0,1,4.018-2.355,1.84,1.84,0,0,1,.883-1.407c5.893-3.869,11.2-8.483,16.715-12.829,1-.787,1.852-1.679,1.626-3.1l-4.554,3.357" transform="translate(-1588.395 -1732.098)" fill="#f9dd5a"/>
            <path id="Trazado_1043706" data-name="Trazado 1043706" d="M2159.723,2258.432a.89.89,0,0,0-.2,1.187c.505,1.114.988,2.237,1.48,3.357,2.531,1.8,5.5,1.68,8.369,1.633,1.633-.027,3.45.094,4.9-1.061l.9-3.015c-4.3,2.006-8.592,2.834-12.995.217-1.026-.61-2.428-.721-2.451-2.317" transform="translate(-2043.292 -2143.087)" fill="#fce265"/>
            <path id="Trazado_1043707" data-name="Trazado 1043707" d="M1280.781,2499.416c-1.4,5.637-2.386,11.357-3.545,17.042-.444,2.18-.922,4.353-1.385,6.53l-.6,4.8c.277.7.44.089.492-.078a34.532,34.532,0,0,0,1.014-3.56c.53-2.719,1.341-5.382,1.671-8.144a2.013,2.013,0,0,1,.486-1.378,106.511,106.511,0,0,1,1.892-13.51c.13-.576.427-1.136-.021-1.7" transform="translate(-1103.236 -2371.763)" fill="#d8741e"/>
            <path id="Trazado_1043708" data-name="Trazado 1043708" d="M1843.828,2219.079c.235.474.565.22.891.125,5.162-1.5,9.786-4.1,14.364-6.8-.725-.577-1.277.048-1.764.352-2.654,1.659-5.413,2.913-8.667,2.67a4.395,4.395,0,0,0-1.58.488c-.542.163-1.109.279-1.282-.508-1.481.8-1.672,2.26-1.963,3.672" transform="translate(-1710.822 -2099.186)" fill="#fde061"/>
            <path id="Trazado_1043709" data-name="Trazado 1043709" d="M2190.04,2347.944a7.31,7.31,0,0,0-2.688.287c-3.618.646-7.094-.087-10.578-.86q.374,1.484.746,2.966c.141-.6.6-.358.966-.348a57.092,57.092,0,0,0,9.575-.541,1.777,1.777,0,0,1,1.7.3,3.859,3.859,0,0,0,.278-1.808" transform="translate(-2059.067 -2227.484)" fill="#f3a833"/>
            <path id="Trazado_1043710" data-name="Trazado 1043710" d="M3354.489,2381.982c.3-.3-.053-.607,0-.91a37.368,37.368,0,0,0-3.011-8.063,26.119,26.119,0,0,0-3.756-5.026c-.34-.361-.716-.846-1.146-.069v-.005c1.322,1.569,2.106,3.479,3.349,5.1l4.565,8.975" transform="translate(-3284.377 -2246.583)" fill="#fce164"/>
            <path id="Trazado_1043711" data-name="Trazado 1043711" d="M2510.917,1849.395l-3.311-2.776-4.067-3.32c-1.528-1.924-3.919-2.833-5.579-4.6-.933-.665-1.777-1.441-2.688-2.135a2.214,2.214,0,0,0-1.486-.608l-2.127-1.6a5.308,5.308,0,0,0,1.736,2.214c3.2,3.211,7.086,5.543,10.783,8.12,1.646,1.148,3.2,2.427,4.8,3.636a3.636,3.636,0,0,0,1.94,1.07" transform="translate(-2396.294 -1740.668)" fill="#f6e083"/>
            <path id="Trazado_1043712" data-name="Trazado 1043712" d="M2488.906,2185.311a4.475,4.475,0,0,0-2.332-3.378,5.389,5.389,0,0,1-1.154-1.119c-.518.592-1.1.472-1.782.266a37.268,37.268,0,0,1-7.759-3.351c-.411-.236-.778-.741-1.317-.212,4.006,2.574,8.485,4.281,12.6,6.654.6.347,1.165.758,1.745,1.14" transform="translate(-2373.396 -2066.083)" fill="#fbdc5f"/>
            <path id="Trazado_1043713" data-name="Trazado 1043713" d="M1925.44,1625.836c-.581-.646-1.44-1.072-1.647-2.014-1.513-2.557-1.186-5.342-1.03-8.1.033-.591.162-1.177.247-1.765-.024-.109-.048-.217-.073-.325-1.5-.038-1.116,1.474-1.794,2.114a11.688,11.688,0,0,0,3.846,11.273,1.771,1.771,0,0,0,1.316.633c.407-.437.189-.789-.159-1.123-.086-.378-.4-.527-.706-.692" transform="translate(-1782.267 -1531.216)" fill="#fcd8ac"/>
            <path id="Trazado_1043714" data-name="Trazado 1043714" d="M1537.78,1789.414l-.36-.681c-.321-.065-.6-.692-.972-.052a32.369,32.369,0,0,1-4.8,6.2c1.938-1.625,4.114-2.895,6.087-4.436.424-.332.588-.666.041-1.032" transform="translate(-1373.656 -1697.056)" fill="#ec9d2b"/>
            <path id="Trazado_1043715" data-name="Trazado 1043715" d="M1671.724,3089.275c.04,1.406,1.318,2.1,1.948,3.164,1.437,2.43,3.121,4.72,4.728,7.051.209.3.324.949.975.515a3.941,3.941,0,0,0-1.948-3.443l-3.04-4.514c-.963-.854-1.536-2.072-2.664-2.773" transform="translate(-1522.183 -2931.496)" fill="#fcdaae"/>
            <path id="Trazado_1043716" data-name="Trazado 1043716" d="M2107.679,1396.683c-3.091,0-6.183,0-9.274.006-.39,0-.886-.169-1.14.2-.293.422.2.722.39,1.033,1.69,2.7,3.739,5.046,7.073,5.7,4.816.94,9.824-.156,12.64-4.386a7.811,7.811,0,0,0,.57-1.05c.459-.993.381-1.545-.988-1.513-3.09.073-6.182.023-9.273.023Z" transform="translate(-1983.086 -1325.319)" fill="#f48c61"/>
            <path id="Trazado_1043717" data-name="Trazado 1043717" d="M1899.942,898.9a15.259,15.259,0,0,0-5.684,1.167c-.723.3-1.452.706-1.2,1.64.27.987,1.075,1.062,1.958.868a20.7,20.7,0,0,1,5.418-.616,14.54,14.54,0,0,1,5.668,1.545c.808.388,1.679.708,2.26-.291s-.2-1.609-.9-2.088a13,13,0,0,0-7.525-2.225" transform="translate(-1762.864 -852.995)" fill="#1a1850"/>
            <path id="Trazado_1043718" data-name="Trazado 1043718" d="M2409.694,900.2a3.338,3.338,0,0,0,1.589-.46,14.286,14.286,0,0,1,9.2-.928c.88.18,2.075.743,2.481-.56s-.8-1.679-1.741-2.008a12.555,12.555,0,0,0-11.85,1.547,1.483,1.483,0,0,0-.768,1.776c.167.519.615.609,1.09.634" transform="translate(-2304.104 -849.686)" fill="#19184e"/>
            <path id="Trazado_1043719" data-name="Trazado 1043719" d="M1732.263,853.087a75.135,75.135,0,0,0,4.423-11.543c1.03-3.165,1.932-6.371,2.861-9.566.12-.412.642-1.072-.084-1.254-.763-.191-.694.622-.848,1.12-1.53,4.931-2.691,9.976-4.7,14.76a3,3,0,0,1-.714,1.288l-.935,5.194" transform="translate(-1585.787 -788.27)" fill="#3f5099"/>
            <path id="Trazado_1043720" data-name="Trazado 1043720" d="M2701.946,825.69c-.911-2.01-1.053-4.2-1.541-6.314-.325-1.4-.469-2.846-.755-4.259-.09-.442-.1-1.027-.913-1.211.371,2.14.685,4.212,1.095,6.265.886,4.44,1.819,8.87,2.742,13.3a1.362,1.362,0,0,0,.232.381c-.123-2.738-.472-5.453-.86-8.165" transform="translate(-2598.935 -772.339)" fill="#424986"/>
            <path id="Trazado_1043721" data-name="Trazado 1043721" d="M2226.374,1272.632l-.915-.782c-.372,1.508.382,2.759,2.012,3.439a5.608,5.608,0,0,0,6.529-2.319c-.546-.356-.924.264-1.409.233-2.125.365-4.281,1.043-6.218-.572" transform="translate(-2105.55 -1206.893)" fill="#24173e"/>
            <path id="Trazado_1043722" data-name="Trazado 1043722" d="M2415.059,1047.382c1.514-.768,1.567-1.226.26-2.112-2.323-1.575-4.72-2.176-7.323-.623-.459.274-.821.477-.162.9.652.554,1.256-.054,1.844-.144a5.418,5.418,0,0,1,5.381,1.974" transform="translate(-2297.256 -990.435)" fill="#e99570"/>
            <path id="Trazado_1043723" data-name="Trazado 1043723" d="M1978.141,1071.068c.752.038,1.18.239.481,1.107,2.876-1.282,5.524-1.381,7.853,1.362-.54-3.285-5.071-4.465-8.334-2.469" transform="translate(-1845.188 -1015.439)" fill="#261c3c"/>
            <path id="Trazado_1043724" data-name="Trazado 1043724" d="M2437.431,1066.536c.293-.82-.352-1.162-.855-1.528-2.047-1.487-4.194-1.295-6.371-.3-.429.354-1.036.553-1.21,1.389a12.019,12.019,0,0,1,3.794-1.063c1.783-.063,3.093,1.02,4.642,1.5" transform="translate(-2319.627 -1009.589)" fill="#201335"/>
            <path id="Trazado_1043725" data-name="Trazado 1043725" d="M2252.486,1287.161c1.469,1.806,3.462,1.989,6.218.571-2.081-.106-4.2.237-6.218-.571" transform="translate(-2131.662 -1221.422)" fill="#d5886d"/>
            <path id="Trazado_1043726" data-name="Trazado 1043726" d="M1618.182,833.827a1.567,1.567,0,0,0,1.6.343,3.864,3.864,0,0,0,1.5-2.334c2.379-7.558,4.385-15.22,6.539-22.84.272-.961.63-1.889.988-2.82a1.658,1.658,0,0,0-.509-2.254l.008.031c-1.245-.4-1.415.47-1.651,1.317-2.088,7.509-4.214,15.008-6.556,22.445q-.962,3.054-1.915,6.112" transform="translate(-1469.046 -762.797)" fill="#f6d44b"/>
            <path id="Trazado_1043727" data-name="Trazado 1043727" d="M2099.017,3692.313l-20.351-.048-6.662.095c5.073,1.414,10.087,3.087,15.5,2.676a25.519,25.519,0,0,0,8.927-2.018c.844-.39,1.835-.094,2.585-.705" transform="translate(-1962.604 -3503.69)" fill="#fac23a"/>
            <path id="Trazado_1043728" data-name="Trazado 1043728" d="M1546.281,3010.173l1.948,3.444a1.577,1.577,0,0,1,.247.078,25.166,25.166,0,0,0,6.271-15.458c-3.225,3.7-5.731,7.9-8.467,11.937" transform="translate(-1391.036 -2845.107)" fill="#e58223"/>
            <path id="Trazado_1043729" data-name="Trazado 1043729" d="M2573.076,3305.854a2.113,2.113,0,0,0,.054-.237c-3.122,1.352-6.332.813-9.531.417a47.84,47.84,0,0,1-11.742-3.351,6.709,6.709,0,0,0-1.013-.306,1.733,1.733,0,0,0-.539.1,4.5,4.5,0,0,0,2.42,2.351,33.87,33.87,0,0,0,18.877,1.694,2.231,2.231,0,0,0,1.475-.671" transform="translate(-2461.552 -3133.708)" fill="#f39c6b"/>
            <path id="Trazado_1043730" data-name="Trazado 1043730" d="M2573.694,3471.329a.762.762,0,0,0,.052-.287c-2.658.548-5.295,1.251-7.979,1.606a30.546,30.546,0,0,1-11.406-.181c-.024-.406.575-.163.555-.5s-.329-.314-.564-.317c-.943-.01-1.885,0-2.954,0a3.934,3.934,0,0,0,3.469,2.276,49.066,49.066,0,0,0,9.634-.036c1.449-.13,2.881-.454,4.33-.592,1.836-.174,3.157-1.517,4.864-1.961" transform="translate(-2462.224 -3293.766)" fill="#f6a16f"/>
            <path id="Trazado_1043731" data-name="Trazado 1043731" d="M1569.592,805.222a1.546,1.546,0,0,1,.254,1.536c-2.635,6.652-3.918,13.692-6.081,20.479a68.306,68.306,0,0,1-2.688,8.232,11.045,11.045,0,0,1,2.218-.446c1.78,0,2.33-1.074,2.791-2.523,2.353-7.393,4.267-14.9,6.242-22.394a5.645,5.645,0,0,1,.958-2.47,10.862,10.862,0,0,0-3.694-2.415" transform="translate(-1410.343 -764.097)" fill="#385db2"/>
            <path id="Trazado_1043732" data-name="Trazado 1043732" d="M906.754,1718.19c.321,5.167,1.338,5.023,5.417,3.885a8.331,8.331,0,0,0,4.132-2.631c1.682-1.92.359-6.182-2.143-6.851-3.158-.844-7.41,2.369-7.406,5.6" transform="translate(-720.137 -1624.997)" fill="#91cdf9"/>
            <path id="Trazado_1043733" data-name="Trazado 1043733" d="M325.6,1958.23a8.207,8.207,0,0,0-4.488,1.342c-1.826,1.153-2.14,2.61-.965,4.44a14.156,14.156,0,0,0,1.687,2.1,3.584,3.584,0,0,0,4.882.364c1.833-1.285,2.722-3.762,1.9-5.332a13.458,13.458,0,0,1-.793-1.439c-.429-1.15-1.176-1.7-2.224-1.47" transform="translate(-101.511 -1858.168)" fill="#92cefa"/>
            <path id="Trazado_1043734" data-name="Trazado 1043734" d="M425.826,2404.706a3.267,3.267,0,0,0-2.856,1.886,2.207,2.207,0,0,0,.422,2.741c1.009,1.173,2.01,2.4,3.836,2.262,1.055-.08,2.181-.382,2.547-1.321a4.007,4.007,0,0,0-.121-3.583,4.166,4.166,0,0,0-3.827-1.985" transform="translate(-208.082 -2281.888)" fill="#93cefa"/>
            <path id="Trazado_1043735" data-name="Trazado 1043735" d="M1125.915,1378.818c-1.566-1.143-1.576-1.285.046-2.143.534-.282.8-.5.53-1.132a4.623,4.623,0,0,0-4.9-2.433,2.636,2.636,0,0,0-1.907,3.464,4.99,4.99,0,0,0,3.617,3.419c1.13.338,1.614-.973,2.616-1.175" transform="translate(-940.729 -1302.891)" fill="#93cef8"/>
            <path id="Trazado_1043736" data-name="Trazado 1043736" d="M608.048,2048.99c.2.676.4,1.444,1.317,1.316a1.449,1.449,0,0,0,1.351-1.521,1.145,1.145,0,0,0-1.336-1.1,1.254,1.254,0,0,0-1.331,1.307" transform="translate(-398.289 -1943.101)" fill="#93d0fa"/>
            <path id="Trazado_1043737" data-name="Trazado 1043737" d="M3509.349,3442.791l8.879.589c-.073.665-.577.782-.916,1.026a47.621,47.621,0,0,0-12.2,12.1,9.506,9.506,0,0,0-1.582,6.25c.034.4.021.847.483,1,.43.145.765-.158,1.1-.385a3.817,3.817,0,0,0,1.339-2.6c1.308-5.838,4.788-10.05,9.943-13.035a70.121,70.121,0,0,0,6.764-4.787c.307-.23.736-.482.617-.946-.144-.566-.685-.5-1.13-.512a95.633,95.633,0,0,0-11.174.733c-.7.06-1.391.159-2.086.24q-.015.166-.031.331" transform="translate(-3461.705 -3265.705)" fill="#fce46c"/>
            <path id="Trazado_1043738" data-name="Trazado 1043738" d="M3440.153,2380.641c-.868-1.857-1.626-3.784-3.349-5.1a16.56,16.56,0,0,0,3.349,5.1" transform="translate(-3374.606 -2254.217)" fill="#fec53d"/>
            <path id="Trazado_1043739" data-name="Trazado 1043739" d="M2297.813,3084.325a5.249,5.249,0,0,0,5.216,4.083c.8-.464,1.763-.335,2.607-.713a5.076,5.076,0,0,0,2.949-6.64,5.5,5.5,0,0,0-6.678-3.2c-3.132.915-4.45,3-4.094,6.474" transform="translate(-2184.249 -2920.446)" fill="#7ebaf0"/>
            <path id="Trazado_1043740" data-name="Trazado 1043740" d="M2289.293,3078.211c.176-3.635,1.287-5.29,4.124-6.137a4.97,4.97,0,0,1,6.427,3.4c.773,2.845-.71,5.218-3.684,6.011-.576.154-1.387-.006-1.651.813a5.849,5.849,0,0,0,6.265-4.52c.538-2.37-1.112-5.12-3.726-6.2-.326-.135-.666-.239-1-.357-3.246-.243-5.674.905-6.972,3.972.028,1.01-.32,2.046.216,3.021" transform="translate(-2175.73 -2914.332)" fill="#6697da"/>
            <path id="Trazado_1043741" data-name="Trazado 1043741" d="M1881.865,3152.085l.585-.053c.053-.193-.021.035.083-.122.444-.672-.32-2.063.79-2.115,1.453-.068,3.125-.284,4.291,1.064l1.99-.7c-2.063-2.8-5.051-2.632-7.912-1.719a31.892,31.892,0,0,1-6.47,1.6c.434.431,1.078.063,1.438.482a11.705,11.705,0,0,0,3.838-.8c1.115-.4,1.61-.239,1.429,1.019a13.185,13.185,0,0,0-.062,1.338" transform="translate(-1742.972 -2987.073)" fill="#eb966a"/>
            <path id="Trazado_1043742" data-name="Trazado 1043742" d="M2534.3,2795.413c-.771.039-1.131.342-1.117,1.122s.558.955,1.08.936a1.065,1.065,0,0,0,1.14-1.137c-.034-.682-.543-.887-1.1-.921" transform="translate(-2422.936 -2652.643)" fill="#abc2e3"/>
            <path id="Trazado_1043743" data-name="Trazado 1043743" d="M2144.972,3202.056l-3.389,0a5.653,5.653,0,0,0,3.389,0" transform="translate(-2012.172 -3038.518)" fill="#eb966a"/>
            <path id="Trazado_1043744" data-name="Trazado 1043744" d="M1884.385,3319.511a38.537,38.537,0,0,0-6.634.167c.925-.778,2.116-.527,3.164-.749a26.607,26.607,0,0,1,3.283-.139c-4.753-.883-9.012.923-13.4,2.446a1.6,1.6,0,0,0,1.539.572,102.438,102.438,0,0,0,11.755-2c.04-.01.068-.065.29-.295" transform="translate(-1737.524 -3149.068)" fill="#f29b6b"/>
            <path id="Trazado_1043745" data-name="Trazado 1043745" d="M1915.3,3174.134c.456-.759.048-1.115-.658-1.235-1.223-.209-2.451-.408-3.686-.521-.965-.088-1.129.589-1.121,1.362a2.747,2.747,0,0,0,.3,1.567l5.164-1.174" transform="translate(-1770.657 -3010.348)" fill="#f5a736"/>
            <path id="Trazado_1043746" data-name="Trazado 1043746" d="M1953.168,1666.939c-2.189-2.106-4.16-4.293-4.643-7.481-.224-1.475.026-3-.519-4.425-1.984,2.568-3.71,5.34-6.084,7.6-4.388,4.177-9.435,7.145-15.6,7.924-1.141.144-1.411.442-.592,1.325a.608.608,0,0,1-.09,1.016.9.9,0,0,0,.091,1.613c1.372.824,1.74,2.27,2.487,3.485,9.178.385,17.248-2.079,23.6-8.914a6.533,6.533,0,0,0,1.349-2.142" transform="translate(-1809.13 -1570.505)" fill="#fdbe86"/>
            <path id="Trazado_1043747" data-name="Trazado 1043747" d="M2639.049,1838.042l3.886,3.065a2.618,2.618,0,0,0,3.164-1.532c.9-.934,2.152-1.6,2.427-3.021a44.149,44.149,0,0,1-7.736,1.2c-.589.023-1.225-.176-1.742.288" transform="translate(-2541.557 -1742.757)" fill="#d45e12"/>
            <path id="Trazado_1043748" data-name="Trazado 1043748" d="M2636.91,1895.706c-.787,1.045-2.18.88-3.164,1.531,1.637,1.848,3.83,2.961,5.867,4.28a14,14,0,0,0-2.084-3.036c-.572-.8-1.308-1.58-.29-2.553l-.329-.221" transform="translate(-2532.368 -1798.887)" fill="#638bbc"/>
            <path id="Trazado_1043749" data-name="Trazado 1043749" d="M1912.4,1851.1c.034.429.35.58.706.691.167-.34.535-.335.822-.465a1.857,1.857,0,0,0-1.528-.226" transform="translate(-1769.225 -1756.476)" fill="#fdbe86"/>
            <path id="Trazado_1043750" data-name="Trazado 1043750" d="M2142.377,1414.55c-5.91-.081-11.606-.028-17.371-.368,2.747,5.212,13.943,5.506,17.371.368" transform="translate(-2008.716 -1341.956)" fill="#fcfbf9"/>
            <path id="Trazado_1043751" data-name="Trazado 1043751" d="M2546.595,2808.969a.554.554,0,0,0,.417.582.485.485,0,0,0,.644-.4.4.4,0,0,0-.384-.5.591.591,0,0,0-.677.32" transform="translate(-2435.897 -2665.193)" fill="#3d5181"/>
          </g>
        </g>
        <g id="Grupo_1203650" data-name="Grupo 1203650" transform="translate(258.156 37.697)">
          <g id="Grupo_1203651" data-name="Grupo 1203651">
            <g transform="matrix(1, 0, 0, 1, -379, -37.7)" filter="url(#Trazado_1043752)">
              <path id="Trazado_1043752-2" data-name="Trazado 1043752" d="M33.333.056A29.8,29.8,0,0,0,15.7,4.821,29.084,29.084,0,0,0,3.019,22.926,28.524,28.524,0,0,0,7.458,45.042L0,59.477l15.952-6.508,3.477,1.782a29.148,29.148,0,0,0,9.646,2.47,29.369,29.369,0,0,0,32.1-26.994,28.039,28.039,0,0,0-6.756-20.2C48.9,3.795,41.641.647,33.333.056" transform="translate(379.01 37.7)" fill="#f6f3ef"/>
            </g>
            <path id="Trazado_1043753" data-name="Trazado 1043753" d="M27.025,51.358l-.02.256c-.226,4.613,2.869,10.5,5.99,13.746a23.862,23.862,0,0,0,16.34,7.363,23.312,23.312,0,0,0,24.34-22.04,21.811,21.811,0,0,0-6.3-16.285,23.923,23.923,0,0,0-33.2-.516c-4.1,4.016-7.185,9.8-7.153,15.6a14.521,14.521,0,0,1,0,1.874" transform="translate(-18.488 -21.391)" fill="#fec53d"/>
            <path id="Trazado_1043754" data-name="Trazado 1043754" d="M37.054,104.2c1.627,0,16.647-.122,16.788-.02a5.166,5.166,0,0,1,.453.99c.65,1.414,1.421,3.82,2.643,4.771a1.641,1.641,0,0,0,1.323-.242,7.154,7.154,0,0,0,.962-2.55l1.3-4.906,1.867,6.371.973,4.118a5.082,5.082,0,0,0,.814,2.538,1.225,1.225,0,0,0,1.054-.14c.957-1.5,1.276-4.446,1.663-6.2l1.993-9.32a14.552,14.552,0,0,0,.9,3.726,1.446,1.446,0,0,0,.921.835,14.907,14.907,0,0,0,2.49.031H78.68a9.875,9.875,0,0,0,2.19-.044,3.135,3.135,0,0,0,.525-.427,1.387,1.387,0,0,0-.168-1.2,9.752,9.752,0,0,0-3.284-.215l-6.593.017-1.506-6.509a1.448,1.448,0,0,0-1.125-.594,3.169,3.169,0,0,0-.542.381A5,5,0,0,0,67.747,97l-.892,3.983L64.714,110.1l-2.1-6.956c-.3-1.037-.652-3.3-1.361-4.071-.395-.432-.634-.369-1.195-.42-.868.611-.977,1.949-1.213,2.937l-1.406,6.038a43.587,43.587,0,0,0-2.636-5.238,56.626,56.626,0,0,0-6.093-.071l-11.652.011a14.521,14.521,0,0,1,0,1.874" transform="translate(-28.518 -74.233)" fill="#263173"/>
          </g>
        </g>
        <g id="Grupo_1203653" data-name="Grupo 1203653" transform="translate(0 105.762)">
          <g id="Grupo_1203652" data-name="Grupo 1203652" clip-path="url(#clip-path-3)">
            <path id="Trazado_1043755" data-name="Trazado 1043755" d="M229.467,72.759c.019-1.14.362-3.581-.457-4.406-.846-.851-4.474-.5-5.8-.5-.8,0-2.73-.235-3.291.326a1.794,1.794,0,0,0-.538.961,22.47,22.47,0,0,0-.033,3.521l-.015,8.876c-.015.945-.323,3.536.192,4.24a3.054,3.054,0,0,0,1.591.089,9.226,9.226,0,0,1,2.107-.089l4.6.023a2.69,2.69,0,0,0,1.434-.139l.164-.594a46.69,46.69,0,0,0,.006-6.266Z" transform="translate(-204.012 -54.882)" fill="#747eca"/>
            <path id="Trazado_1043756" data-name="Trazado 1043756" d="M220,140.079c-.015.945-.323,3.536.192,4.24a3.054,3.054,0,0,0,1.591.089,9.225,9.225,0,0,1,2.107-.089l4.6.023a2.69,2.69,0,0,0,1.434-.139l.164-.594-.019-3.476Z" transform="translate(-204.675 -113.418)" fill="#303a72"/>
            <path id="Trazado_1043757" data-name="Trazado 1043757" d="M165.566,437.2l-4.334-.065a11.954,11.954,0,0,0-2.175.01l-.132.012-.05,1.577c-.443.344-1.279.205-1.852.2L152,438.931a18.178,18.178,0,0,0-2.964.093c-3.959.68-6.159,3.355-7.262,6.973l40.531.015a7.153,7.153,0,0,0-2.463-4.712c-2.529-2.4-5.226-2.361-8.5-2.365l-5.77.048Z" transform="translate(-141.773 -353.896)" fill="#303a72"/>
            <path id="Trazado_1043758" data-name="Trazado 1043758" d="M234.782,437.2l-4.334-.065a11.954,11.954,0,0,0-2.175.01v1.673a1.213,1.213,0,0,0,.234.209c.292.147,5.244.028,5.923,0l.352-.042Z" transform="translate(-210.99 -353.896)" fill="#1a275f"/>
            <path id="Trazado_1043759" data-name="Trazado 1043759" d="M27.705,27.286c-.141-1.677-.006-3.478-.006-5.166l0-10.908c0-2.313.445-5.562-.588-7.653a6.247,6.247,0,0,0-3.76-3.2A7.569,7.569,0,0,0,20.834.074L9.738.067a25.3,25.3,0,0,0-5.1.127,6.024,6.024,0,0,0-2.87,1.6A5.869,5.869,0,0,0,.187,4.5,20.658,20.658,0,0,0,.04,8.829L.015,17.88l.01,6.044.017,7.049c0,1.475-.207,3.244.354,4.625A6.271,6.271,0,0,0,2.98,38.5a6.4,6.4,0,0,0,2.448.829,30.192,30.192,0,0,0,3.216.036l6.221-.012h4.8a11.755,11.755,0,0,0,2.786-.153,6.932,6.932,0,0,0,3.44-1.816c2.479-2.512,1.8-6.854,1.809-10.1" transform="translate(40.173 0)" fill="#303a72"/>
            <path id="Trazado_1043760" data-name="Trazado 1043760" d="M234.793,162.313l-4.6-.023a9.226,9.226,0,0,0-2.107.089l-.01,6.813,6.736-.013Z" transform="translate(-210.977 -131.389)" fill="#1a275f"/>
            <path id="Trazado_1043761" data-name="Trazado 1043761" d="M158.261,93.932l-14.733,0-.035,6.048H158.27Z" transform="translate(-118.072 -76.052)" fill="#6c58aa"/>
            <path id="Trazado_1043762" data-name="Trazado 1043762" d="M234.809,198.557l-6.736.013.056,45.457.132-.012a11.952,11.952,0,0,1,2.175-.01l4.334.065Z" transform="translate(-210.977 -160.766)" fill="#747eca"/>
          </g>
        </g>
        <g id="Grupo_1203655" data-name="Grupo 1203655" transform="translate(298.453 100.927)">
          <g id="Grupo_1203654" data-name="Grupo 1203654" clip-path="url(#clip-path-4)">
            <path id="Trazado_1043763" data-name="Trazado 1043763" d="M82.2,199.541c-.206-.358-16.833-8.474-18.208-9a17.385,17.385,0,0,1-2.269,3.234l11.615,5.693a39.624,39.624,0,0,0,5.7,2.8,2,2,0,0,0,1.271-.1c.962-.331,1.357-1.406,1.734-2.248Z" transform="translate(-0.276 -153.514)" fill="#141e54"/>
            <path id="Trazado_1043764" data-name="Trazado 1043764" d="M48.165,144.989c1.119,2.875,1.538,5.83.233,8.743l-.05.108c1.375.527,18,8.644,18.208,9l2.006-3.929c.521-1.018.911-1.725.5-2.865a2.335,2.335,0,0,0-.932-1.2,59.566,59.566,0,0,0-6.275-3.136Z" transform="translate(15.366 -116.815)" fill="#1a275f"/>
            <path id="Trazado_1043765" data-name="Trazado 1043765" d="M231.778,79.867l-.882-.517a28.245,28.245,0,0,1-4.763,10.762l14.807,7.429a13.617,13.617,0,0,1,.642-4.314c.913-2.718,2.891-4.39,5.308-5.82Z" transform="translate(-197.45 -63.931)" fill="#1a275f"/>
            <path id="Trazado_1043766" data-name="Trazado 1043766" d="M258.647,79.867l-.882-.517A28.244,28.244,0,0,1,253,90.112l14.807,7.429a13.617,13.617,0,0,1,.642-4.314l-12.416-6.193a28.736,28.736,0,0,0,2.612-7.166" transform="translate(-224.319 -63.931)" fill="#141e54"/>
            <path id="Trazado_1043767" data-name="Trazado 1043767" d="M327.7,35.165a7.633,7.633,0,0,0,.1-4.251c-.748-2.264-3.021-3.045-4.981-4.042L318.1,24.508a26.865,26.865,0,0,1-.012,4.606,23.955,23.955,0,0,1-5.948,12.625,17.752,17.752,0,0,1-6.878,4.834l9.093,4.736a4.582,4.582,0,0,0,2.307.2c2.3-.379,4.984-3.757,6.278-5.579A28.245,28.245,0,0,0,327.7,35.165" transform="translate(-294.255 -19.746)" fill="#303a72"/>
            <path id="Trazado_1043768" data-name="Trazado 1043768" d="M169.579,120.845l-.087-.174a10.147,10.147,0,0,0-6.009-5.156,10.731,10.731,0,0,0-7.995.632c-2.417,1.43-4.4,3.1-5.308,5.82a13.617,13.617,0,0,0-.642,4.314,10.9,10.9,0,0,0,4.391,7.523,2.684,2.684,0,0,0,.705.42,5.538,5.538,0,0,0-.156,2.367l.359.416a18.187,18.187,0,0,0,10.015.276,2.2,2.2,0,0,0,1.1-.881,3.454,3.454,0,0,0-.188-2.228,11.765,11.765,0,0,0,1.725-1.243,17.386,17.386,0,0,0,2.269-3.234l.05-.108c1.3-2.913.886-5.868-.233-8.743" transform="translate(-106.048 -92.671)" fill="#303a72"/>
            <path id="Trazado_1043769" data-name="Trazado 1043769" d="M183.85,213.576c-2.815,1.394-5.495,2.023-8.583,1.042l-2.551-.992a5.538,5.538,0,0,0-.156,2.367l.359.416a18.187,18.187,0,0,0,10.015.276,2.2,2.2,0,0,0,1.1-.881,3.454,3.454,0,0,0-.188-2.228" transform="translate(-124.131 -172.074)" fill="#1a275f"/>
            <path id="Trazado_1043770" data-name="Trazado 1043770" d="M177.649,134.939a6.91,6.91,0,0,0-3.988.765,6.557,6.557,0,0,0-3.16,3.878,6.1,6.1,0,0,0,.64,4.827,6.737,6.737,0,0,0,4.444,3.125,6.85,6.85,0,0,0,4.737-.976,6.27,6.27,0,0,0,1.856-8.713,6.809,6.809,0,0,0-4.529-2.906" transform="translate(-122.719 -108.694)" fill="#747eca"/>
            <path id="Trazado_1043771" data-name="Trazado 1043771" d="M47.588,228.429a18.187,18.187,0,0,1-10.015-.276,25.831,25.831,0,0,1-2.495,3.791L16.592,257.839,0,280.768H3.783l16.753-23.355,15.821-22.028c.486-.7,2.771-4.373,3.4-4.44l1.053.052c.4,1.053.13,2.951.126,4.115l-.029,10.293.022,28.8-6.646.009a15.853,15.853,0,0,0-2.905.054,1.749,1.749,0,0,0-.811.472c-.958.921-.515,4.578-.516,5.948l23.835-.006c.006-1.375.441-4.979-.525-5.964a2.339,2.339,0,0,0-.612-.423,8.238,8.238,0,0,0-2.516-.132l-6.3.055.042-32.743-.025-7.555a8.674,8.674,0,0,1,.125-2.9,5.354,5.354,0,0,1,1.55,0l33.5,49.652H82.9Z" transform="translate(11.215 -183.818)" fill="#303a72"/>
            <path id="Trazado_1043772" data-name="Trazado 1043772" d="M370.132,0a13.941,13.941,0,0,0-10.493,3.984,14.82,14.82,0,0,0-4.42,10.483c-.013,2.706.889,6.006,2.9,7.946a5.487,5.487,0,0,0,1.272.92l1.437.735,4.131,2.059,1.265.7a17.752,17.752,0,0,0,6.878-4.834A23.955,23.955,0,0,0,379.05,9.369a26.865,26.865,0,0,0,.012-4.606l-1.308-.773a.651.651,0,0,0-.05-.251c-.583-1.542-3.274-2.476-4.685-3.09L371.51.175Z" transform="translate(-355.219 0)" fill="#303a72"/>
            <path id="Trazado_1043773" data-name="Trazado 1043773" d="M397.882,1.372,396.374.9c.184,1.3.514,2.576.6,3.882a19.461,19.461,0,0,1-4.235,13.237A16.686,16.686,0,0,1,386.6,23a10.136,10.136,0,0,0-2.348,1.057l1.437.735c3.343-1.475,5.919-3.006,8.085-6.006a21.323,21.323,0,0,0,4.105-17.415" transform="translate(-380.083 -0.724)" fill="#141e54"/>
            <path id="Trazado_1043774" data-name="Trazado 1043774" d="M367.409,3.336A21.324,21.324,0,0,1,363.3,20.751c-2.166,3-4.742,4.531-8.085,6.006l4.131,2.059,1.265.7a17.752,17.752,0,0,0,6.878-4.834,23.955,23.955,0,0,0,5.948-12.625,26.868,26.868,0,0,0,.012-4.606l-1.308-.773a.652.652,0,0,0-.05-.251c-.583-1.542-3.274-2.476-4.685-3.09" transform="translate(-349.61 -2.688)" fill="#303a72"/>
            <path id="Trazado_1043775" data-name="Trazado 1043775" d="M369.321,21.3l-1.308-.773a29.712,29.712,0,0,1,.03,5.058,23.113,23.113,0,0,1-5.876,12.323,17.389,17.389,0,0,1-4.861,3.9,16.852,16.852,0,0,0-2.087.863l1.265.7a17.752,17.752,0,0,0,6.878-4.834,23.955,23.955,0,0,0,5.948-12.625,26.865,26.865,0,0,0,.012-4.606" transform="translate(-345.478 -16.541)" fill="#141e54"/>
          </g>
        </g>
      </g>
    </g>
  </g>
</svg>
