<svg xmlns="http://www.w3.org/2000/svg" xmlns:xlink="http://www.w3.org/1999/xlink" width="108" height="108" viewBox="0 0 108 108">
  <defs>
    <filter id="Trazado_904820" x="0" y="0" width="108" height="108" filterUnits="userSpaceOnUse">
      <feOffset dy="3" input="SourceAlpha"/>
      <feGaussianBlur stdDeviation="3" result="blur"/>
      <feFlood flood-opacity="0.161"/>
      <feComposite operator="in" in2="blur"/>
      <feComposite in="SourceGraphic"/>
    </filter>
  </defs>
  <g id="Grupo_1241788" data-name="Grupo 1241788" transform="translate(-200.058 -487.641)">
    <g id="Grupo_1241241" data-name="Grupo 1241241" transform="translate(209.059 493.641)">
      <g id="Grupo_1225969" data-name="Grupo 1225969" transform="translate(0 0)">
        <g id="Grupo_1223550" data-name="Grupo 1223550" transform="translate(0)">
          <g id="Grupo_1223164" data-name="Grupo 1223164">
            <g id="Grupo_1203639" data-name="Grupo 1203639">
              <g id="Grupo_1202437" data-name="Grupo 1202437">
                <g id="Grupo_1177315" data-name="Grupo 1177315">
                  <g id="Grupo_1173585" data-name="Grupo 1173585">
                    <g id="Grupo_1173428" data-name="Grupo 1173428">
                      <g id="Grupo_1171958" data-name="Grupo 1171958">
                        <g id="Grupo_1167341" data-name="Grupo 1167341">
                          <g id="Grupo_1166792" data-name="Grupo 1166792">
                            <g transform="matrix(1, 0, 0, 1, -9, -6)" filter="url(#Trazado_904820)">
                              <g id="Trazado_904820-2" data-name="Trazado 904820" transform="translate(9 6)" fill="#ebe9f0">
                                <path d="M 44.99999618530273 88.49999237060547 C 39.12687301635742 88.49999237060547 33.43022155761719 87.35006713867188 28.06829643249512 85.08216857910156 C 22.88852119445801 82.89130401611328 18.23629570007324 79.75457763671875 14.24084663391113 75.75914001464844 C 10.24540901184082 71.76369476318359 7.108683586120605 67.11146545410156 4.917821407318115 61.93169403076172 C 2.649921178817749 56.56976699829102 1.499996185302734 50.87311553955078 1.499996185302734 44.99999237060547 C 1.499996185302734 39.12686920166016 2.649921178817749 33.43021774291992 4.917821407318115 28.06829261779785 C 7.108683586120605 22.88851737976074 10.24540901184082 18.23630523681641 14.24084663391113 14.24085521697998 C 18.23629570007324 10.24540519714355 22.88852119445801 7.108692169189453 28.06829643249512 4.917829990386963 C 33.43022155761719 2.649929761886597 39.12687301635742 1.500004887580872 44.99999618530273 1.500004887580872 C 50.87311935424805 1.500004887580872 56.56977081298828 2.649929761886597 61.93169784545898 4.917829990386963 C 67.11147308349609 7.108692169189453 71.76369476318359 10.24540519714355 75.75914764404297 14.24085521697998 C 79.75458526611328 18.23630523681641 82.89131164550781 22.88851737976074 85.08216857910156 28.06829261779785 C 87.35007476806641 33.43021774291992 88.5 39.12686920166016 88.5 44.99999237060547 C 88.5 50.87311553955078 87.35007476806641 56.56976699829102 85.08216857910156 61.93169403076172 C 82.89131164550781 67.11146545410156 79.75458526611328 71.76369476318359 75.75914764404297 75.75914001464844 C 71.76369476318359 79.75457763671875 67.11147308349609 82.89130401611328 61.93169784545898 85.08216857910156 C 56.56977081298828 87.35006713867188 50.87311935424805 88.49999237060547 44.99999618530273 88.49999237060547 Z" stroke="none"/>
                                <path d="M 44.99999618530273 2.999992370605469 C 39.32870864868164 2.999992370605469 33.82865142822266 4.11004638671875 28.65262603759766 6.299331665039062 C 23.65165710449219 8.414566040039062 19.15968322753906 11.44333648681641 15.301513671875 15.30150604248047 C 11.44333648681641 19.15967559814453 8.414566040039062 23.65164947509766 6.299339294433594 28.65262222290039 C 4.110054016113281 33.82864761352539 2.999992370605469 39.32870483398438 2.999992370605469 44.99999237060547 C 2.999992370605469 50.67127990722656 4.110054016113281 56.17132186889648 6.299339294433594 61.34736633300781 C 8.414566040039062 66.34833526611328 11.44333648681641 70.84029388427734 15.301513671875 74.69846343994141 C 19.15968322753906 78.55663299560547 23.65165710449219 81.58540344238281 28.65262603759766 83.70063781738281 C 33.82865142822266 85.88992309570312 39.32870864868164 86.99997711181641 44.99999618530273 86.99997711181641 C 50.67128372192383 86.99997711181641 56.17134094238281 85.88992309570312 61.34736633300781 83.70063781738281 C 66.34834289550781 81.58540344238281 70.84030914306641 78.55663299560547 74.69847869873047 74.69846343994141 C 78.55665588378906 70.84029388427734 81.58542633056641 66.34833526611328 83.70065307617188 61.34736633300781 C 85.88993835449219 56.17132186889648 87 50.67127990722656 87 44.99999237060547 C 87 39.32870483398438 85.88993835449219 33.82864761352539 83.70065307617188 28.65262222290039 C 81.58542633056641 23.65164947509766 78.55665588378906 19.15967559814453 74.69847869873047 15.30150604248047 C 70.84030914306641 11.44333648681641 66.34834289550781 8.414566040039062 61.34736633300781 6.299331665039062 C 56.17134094238281 4.11004638671875 50.67128372192383 2.999992370605469 44.99999618530273 2.999992370605469 M 44.99999618530273 -7.62939453125e-06 C 69.85281372070312 -7.62939453125e-06 90 20.14717864990234 90 44.99999237060547 C 90 69.85279083251953 69.85281372070312 89.99997711181641 44.99999618530273 89.99997711181641 C 20.14717864990234 89.99997711181641 -7.62939453125e-06 69.85279083251953 -7.62939453125e-06 44.99999237060547 C -7.62939453125e-06 20.14717864990234 20.14717864990234 -7.62939453125e-06 44.99999618530273 -7.62939453125e-06 Z" stroke="none" fill="#453179"/>
                              </g>
                            </g>
                          </g>
                        </g>
                      </g>
                    </g>
                  </g>
                </g>
              </g>
            </g>
          </g>
        </g>
      </g>
    </g>
    <g id="maestro_11_" data-name="maestro (11)" transform="translate(205.809 506.428)">
      <g id="Grupo_1241786" data-name="Grupo 1241786" transform="translate(21.149 0.915)">
        <g id="Grupo_1241783" data-name="Grupo 1241783">
          <path id="Trazado_1220243" data-name="Trazado 1220243" d="M94.925,32.575a3.953,3.953,0,0,0-2.47-6.081,19.274,19.274,0,0,0-38.543,0,3.953,3.953,0,0,0-2.47,6.081,7.812,7.812,0,0,0,3.835,13.355,5.426,5.426,0,0,0,4.883,7.788H86.206a5.426,5.426,0,0,0,4.883-7.788,7.812,7.812,0,0,0,3.835-13.355Z" transform="translate(-48.98 -7.496)" fill="#596c76"/>
          <path id="Trazado_1220244" data-name="Trazado 1220244" d="M74.837,53.724H60.158a5.424,5.424,0,0,1-4.883-7.788A7.812,7.812,0,0,1,51.44,32.579a3.892,3.892,0,0,1-.5-1.034A3.956,3.956,0,0,1,53.91,26.5,19.292,19.292,0,0,1,78.146,8.146,19.29,19.29,0,0,0,63.839,26.5s.569,4.007.069,4.442Z" transform="translate(-48.978 -7.5)" fill="#465a61"/>
          <path id="Trazado_1220245" data-name="Trazado 1220245" d="M174.645,376.433V382.2a.811.811,0,0,1-.812.812H152.016a.812.812,0,0,1-.812-.812v-5.771a10.27,10.27,0,0,1,2.415-6.632,10.375,10.375,0,0,1,2.819-2.344,10.251,10.251,0,0,1,5.078-1.337h2.815a10.314,10.314,0,0,1,10.313,10.313Z" transform="translate(-138.721 -322.329)" fill="#97da7b"/>
          <path id="Trazado_1220246" data-name="Trazado 1220246" d="M166.135,366.281a10.316,10.316,0,0,0-8.514,10.156v6.583h-5.6a.812.812,0,0,1-.812-.812v-5.77a10.313,10.313,0,0,1,10.313-10.313h2.815A10.393,10.393,0,0,1,166.135,366.281Z" transform="translate(-138.725 -322.333)" fill="#80d261"/>
          <path id="Trazado_1220247" data-name="Trazado 1220247" d="M207.043,332.551a6.487,6.487,0,0,1-12.974,0,10.2,10.2,0,0,1,3.467-1.211V326.36h6.09v4.989A10.2,10.2,0,0,1,207.043,332.551Z" transform="translate(-176.352 -287.424)" fill="#ffdfcf"/>
          <path id="Trazado_1220248" data-name="Trazado 1220248" d="M199.869,330.91v6.012a10.365,10.365,0,0,0-3.708,4.354,6.463,6.463,0,0,1-2.092-4.729,10.2,10.2,0,0,1,3.467-1.211V330.91Z" transform="translate(-176.352 -291.419)" fill="#ffcebf"/>
          <path id="Trazado_1220249" data-name="Trazado 1220249" d="M123.779,176.556a4.413,4.413,0,0,1,6.272,5.143c-.678,2.34-3.53,5.1-5.872,4.419a2.62,2.62,0,0,1-.5-.206H98.98a2.611,2.611,0,0,1-.5.206c-2.342.678-5.194-2.078-5.871-4.419a4.412,4.412,0,0,1,6.27-5.143Z" transform="translate(-87.123 -155.477)" fill="#ffcebf"/>
          <path id="Trazado_1220250" data-name="Trazado 1220250" d="M170.119,131.572V141.1a12.452,12.452,0,0,1-24.9,0v-9.067a1.039,1.039,0,0,1,1.313-1,18.777,18.777,0,0,0,4.827.648,17.152,17.152,0,0,0,11.813-4.6.779.779,0,0,1,1.189.169,6.805,6.805,0,0,0,4.843,3.293A1.047,1.047,0,0,1,170.119,131.572Z" transform="translate(-133.464 -112.297)" fill="#ffdfcf"/>
          <path id="Trazado_1220251" data-name="Trazado 1220251" d="M160.738,182.767A12.464,12.464,0,0,1,145.215,170.7v-9.067a1.039,1.039,0,0,1,1.313-1,18.777,18.777,0,0,0,4.827.648V170.7A12.456,12.456,0,0,0,160.738,182.767Z" transform="translate(-133.464 -141.893)" fill="#ffcebf"/>
        </g>
        <g id="Grupo_1241784" data-name="Grupo 1241784" transform="translate(32.692 44.348)">
          <path id="Trazado_1220252" data-name="Trazado 1220252" d="M334.9,370.737l-7.784,1.819-7.784-1.819a2.139,2.139,0,0,0-2.625,2.083V384.88a2.139,2.139,0,0,0,2.139,2.139h16.542a2.139,2.139,0,0,0,2.139-2.139V372.819A2.139,2.139,0,0,0,334.9,370.737Z" transform="translate(-316.71 -370.68)" fill="#fd8087"/>
          <path id="Trazado_1220253" data-name="Trazado 1220253" d="M322.02,387.026h-3.171a2.139,2.139,0,0,1-2.139-2.139V372.826a2.138,2.138,0,0,1,2.625-2.082l1.449.338a2.124,2.124,0,0,0-.9,1.744v12.061A2.138,2.138,0,0,0,322.02,387.026Z" transform="translate(-316.71 -370.686)" fill="#fe646f"/>
          <path id="Trazado_1220254" data-name="Trazado 1220254" d="M366.951,454.7h-1.868a3.057,3.057,0,0,0-3.057,3.057v3.022h7.981v-3.022a3.057,3.057,0,0,0-3.057-3.057Z" transform="translate(-356.493 -444.441)" fill="#ffdfcf"/>
          <path id="Trazado_1220255" data-name="Trazado 1220255" d="M367.392,454.744a3.057,3.057,0,0,0-2.541,3.012v3.023h-2.9v-3.023a3.057,3.057,0,0,1,3.056-3.056h1.868A2.988,2.988,0,0,1,367.392,454.744Z" transform="translate(-356.428 -444.44)" fill="#ffcebf"/>
        </g>
        <g id="Grupo_1241785" data-name="Grupo 1241785" transform="translate(6.993 53.351)">
          <path id="Trazado_1220256" data-name="Trazado 1220256" d="M110.478,444.42h-1.126a3.1,3.1,0,0,0-3.1,3.1v1.126a3.1,3.1,0,0,0,3.1,3.1h1.126a3.1,3.1,0,0,0,3.1-3.1v-1.126a3.1,3.1,0,0,0-3.1-3.1Z" transform="translate(-106.247 -444.42)" fill="#ffdfcf"/>
          <path id="Trazado_1220257" data-name="Trazado 1220257" d="M111.261,451.652a3.107,3.107,0,0,1-.781.1h-1.126a3.1,3.1,0,0,1-3.105-3.1V447.52a3.1,3.1,0,0,1,3.105-3.1h1.126a3.109,3.109,0,0,1,.781.1,3.106,3.106,0,0,0-2.322,3.005v1.127A3.106,3.106,0,0,0,111.261,451.652Z" transform="translate(-106.248 -444.416)" fill="#ffcebf"/>
        </g>
      </g>
      <g id="Grupo_1241787" data-name="Grupo 1241787" transform="translate(17.278 0)">
        <path id="Trazado_1220258" data-name="Trazado 1220258" d="M202.275,189.421a.916.916,0,0,0-1.832,0v1.615a.916.916,0,1,0,1.832,0Z" transform="translate(-178.077 -165.487)"/>
        <path id="Trazado_1220259" data-name="Trazado 1220259" d="M280.773,191.036v-1.615a.916.916,0,1,0-1.832,0v1.615a.916.916,0,1,0,1.832,0Z" transform="translate(-246.99 -165.487)"/>
        <path id="Trazado_1220260" data-name="Trazado 1220260" d="M217.383,259.19a5.467,5.467,0,0,0,3.878-1.6.916.916,0,1,0-1.3-1.3,3.657,3.657,0,0,1-5.166,0,.916.916,0,0,0-1.3,1.3A5.467,5.467,0,0,0,217.383,259.19Z" transform="translate(-189.308 -224.761)"/>
        <path id="Trazado_1220261" data-name="Trazado 1220261" d="M74.42,45.009a3.038,3.038,0,0,0-2.593-.581l-1.23.287a.916.916,0,0,0,.416,1.784l1.23-.287a1.222,1.222,0,0,1,1.5,1.19V59.463a1.225,1.225,0,0,1-1.224,1.224H68.271V58.579A3.979,3.979,0,0,0,65.166,54.7V47.865l1.795-.42a.916.916,0,1,0-.417-1.784l-2.294.536-1.144-.267a6.331,6.331,0,0,0,1.444-5.655q-.035-.15-.077-.3a8.75,8.75,0,0,0,6-8.292,8.708,8.708,0,0,0-2.242-5.839,4.873,4.873,0,0,0-.652-5.156,4.9,4.9,0,0,0-2.058-1.468,20.19,20.19,0,0,0-40.333,0,4.873,4.873,0,0,0-2.947,6.009,4.8,4.8,0,0,0,.238.615,8.73,8.73,0,0,0,3.754,14.13,6.369,6.369,0,0,0,.232,4.145.916.916,0,1,0,1.693-.7,4.521,4.521,0,0,1,.115-3.674.916.916,0,0,0-.648-1.3,6.9,6.9,0,0,1-5.557-6.767,6.833,6.833,0,0,1,2.172-5.023.916.916,0,0,0,.132-1.179,3.028,3.028,0,0,1-.519-1.7,3.046,3.046,0,0,1,2.416-2.973.916.916,0,0,0,.73-.884,18.358,18.358,0,0,1,36.712,0,.916.916,0,0,0,.729.884,3.051,3.051,0,0,1,1.726,1.044,3.037,3.037,0,0,1,.173,3.627.916.916,0,0,0,.131,1.181,6.9,6.9,0,0,1-3.385,11.79.916.916,0,0,0-.647,1.3,4.505,4.505,0,0,1,.451,1.965,4.528,4.528,0,0,1-1.948,3.709l-4.261-1A3.059,3.059,0,0,0,53.316,45.9a11.244,11.244,0,0,0-1.024-.659h0a11.1,11.1,0,0,0-2.953-1.158V42.478a13.417,13.417,0,0,0,9.082-9.941,3.706,3.706,0,0,0,.541.04,5.432,5.432,0,0,0,3.385-1.392,8.11,8.11,0,0,0,2.61-3.794A5.329,5.329,0,0,0,58.72,20.7V20.19a1.972,1.972,0,0,0-1.714-1.941,5.411,5.411,0,0,1-.923-.205.916.916,0,1,0-.556,1.745,7.233,7.233,0,0,0,1.237.276.134.134,0,0,1,.125.125v8.037c0,.006,0,.011,0,.017s0,0,0,.007v1.466a11.536,11.536,0,1,1-23.072,0V20.65a.121.121,0,0,1,.05-.1.115.115,0,0,1,.1-.021,19.666,19.666,0,0,0,5.117.677,18.038,18.038,0,0,0,12.26-4.726c.114.178.237.354.365.525a.916.916,0,1,0,1.465-1.1c-.128-.171-.248-.347-.358-.525a1.7,1.7,0,0,0-2.583-.366,16.678,16.678,0,0,1-15.784,3.747,1.955,1.955,0,0,0-2.469,1.888V20.7a5.329,5.329,0,0,0-6.237,6.691,8.11,8.11,0,0,0,2.61,3.794,5.431,5.431,0,0,0,3.385,1.391,3.7,3.7,0,0,0,.542-.04,13.416,13.416,0,0,0,9.132,9.957v1.583a11.075,11.075,0,0,0-3,1.17h0a11.415,11.415,0,0,0-1.451.976H32.328a4.469,4.469,0,0,1-1.709-.335.916.916,0,1,0-.7,1.694,6.291,6.291,0,0,0,2.406.473h2.8a11.139,11.139,0,0,0-2.294,5.324,4.035,4.035,0,0,0-.462-.027H31.246a4.021,4.021,0,0,0-.844.09L18.963,35.734a.916.916,0,1,0-1.539.994l11.31,17.507a4.014,4.014,0,0,0-1.509,3.136V58.5a4.025,4.025,0,0,0,4.02,4.02H72.521a3.059,3.059,0,0,0,3.055-3.055V47.4a3.038,3.038,0,0,0-1.156-2.393ZM60.808,22.553A3.5,3.5,0,0,1,63.2,26.883a6.309,6.309,0,0,1-2.014,2.888,3.405,3.405,0,0,1-2.5.952q.037-.5.038-1.006V28.236A2.131,2.131,0,0,1,60.3,26.188a.916.916,0,1,0-.474-1.769,3.94,3.94,0,0,0-1.1.486V22.6a3.487,3.487,0,0,1,2.088-.045ZM29.522,29.772a6.309,6.309,0,0,1-2.014-2.888A3.5,3.5,0,0,1,31.985,22.6v2.307a3.936,3.936,0,0,0-1.1-.486.916.916,0,1,0-.474,1.769,2.131,2.131,0,0,1,1.576,2.056s0,.007,0,.011v1.462q0,.508.038,1.006a3.405,3.405,0,0,1-2.5-.952ZM66.44,58.579v2.107H60.29V58.579a2.143,2.143,0,0,1,2.141-2.141H64.3a2.143,2.143,0,0,1,2.141,2.141ZM42.474,45.737a.916.916,0,0,0,.774-.9V42.92a13.4,13.4,0,0,0,4.258-.008V44.84a.916.916,0,0,0,.77.9,9.263,9.263,0,0,1,2.618.834,5.572,5.572,0,0,1-11.084,0,9.267,9.267,0,0,1,2.664-.842Zm-4.341,1.9a7.432,7.432,0,0,0,6.3,5.712V56.3a.916.916,0,0,0,1.832,0V53.346a7.433,7.433,0,0,0,6.3-5.71c.121.1.238.194.354.3V59.463a3.038,3.038,0,0,0,.256,1.224H35.742a4,4,0,0,0,.651-2.189V57.371A4.019,4.019,0,0,0,34.6,54.026a9.324,9.324,0,0,1,3.534-6.393ZM31.246,60.686A2.191,2.191,0,0,1,29.058,58.5V57.371a2.191,2.191,0,0,1,2.189-2.189h1.126a2.191,2.191,0,0,1,2.189,2.189V58.5a2.191,2.191,0,0,1-2.189,2.189Zm24.733,0a1.224,1.224,0,0,1-1.222-1.224V47.4a1.222,1.222,0,0,1,1.5-1.19l7.077,1.653v6.742h-.9a3.977,3.977,0,0,0-3.973,3.973v2.107Z" transform="translate(-17.278 0)"/>
        <path id="Trazado_1220262" data-name="Trazado 1220262" d="M419.912,404.478a.915.915,0,0,0,1.1.683l4.679-1.093a.916.916,0,0,0-.417-1.784l-4.679,1.093A.916.916,0,0,0,419.912,404.478Z" transform="translate(-370.726 -353.141)"/>
      </g>
    </g>
  </g>
</svg>
