<svg xmlns="http://www.w3.org/2000/svg" xmlns:xlink="http://www.w3.org/1999/xlink" width="113" height="113" viewBox="0 0 113 113">
  <defs>
    <filter id="Trazado_982547" x="0" y="0" width="113" height="113" filterUnits="userSpaceOnUse">
      <feOffset dy="3" input="SourceAlpha"/>
      <feGaussianBlur stdDeviation="3" result="blur"/>
      <feFlood flood-opacity="0.161"/>
      <feComposite operator="in" in2="blur"/>
      <feComposite in="SourceGraphic"/>
    </filter>
  </defs>
  <g id="Grupo_1242207" data-name="Grupo 1242207" transform="translate(-585.75 -5862.898)">
    <g id="Grupo_1241428" data-name="Grupo 1241428" transform="translate(-84.74 -6820.269)">
      <g id="Grupo_1240427" data-name="Grupo 1240427" transform="translate(679.49 12689.167)">
        <g id="Grupo_1239780" data-name="Grupo 1239780" transform="translate(0 0)">
          <g id="Grupo_1236603" data-name="Grupo 1236603">
            <g id="Grupo_1236145" data-name="Grupo 1236145">
              <g id="Grupo_1235107" data-name="Grupo 1235107">
                <g id="Grupo_1223796" data-name="Grupo 1223796">
                  <g id="Grupo_1208038" data-name="Grupo 1208038">
                    <g id="Grupo_1202104" data-name="Grupo 1202104">
                      <g id="Grupo_1201923" data-name="Grupo 1201923">
                        <g id="Grupo_1176928" data-name="Grupo 1176928" transform="translate(0)">
                          <g id="Grupo_1172322" data-name="Grupo 1172322">
                            <g id="Grupo_1164700" data-name="Grupo 1164700">
                              <g id="Grupo_1160931" data-name="Grupo 1160931">
                                <g id="Grupo_1160749" data-name="Grupo 1160749">
                                  <g id="Grupo_1158891" data-name="Grupo 1158891">
                                    <g id="Grupo_1157406" data-name="Grupo 1157406">
                                      <g id="Grupo_1155793" data-name="Grupo 1155793">
                                        <g id="Grupo_1154704" data-name="Grupo 1154704">
                                          <g id="Grupo_1150790" data-name="Grupo 1150790">
                                            <g id="Grupo_1154214" data-name="Grupo 1154214" transform="translate(0)">
                                              <g id="Grupo_1152583" data-name="Grupo 1152583">
                                                <g id="Grupo_1146973" data-name="Grupo 1146973">
                                                  <g id="Grupo_1146954" data-name="Grupo 1146954">
                                                    <g transform="matrix(1, 0, 0, 1, -9, -6)" filter="url(#Trazado_982547)">
                                                      <g id="Trazado_982547-2" data-name="Trazado 982547" transform="translate(9 6)" fill="#d9d5e3">
                                                        <path d="M 47.50000762939453 93.49986267089844 C 41.28937911987305 93.49986267089844 35.26534271240234 92.28383636474609 29.59519386291504 89.88558197021484 C 24.11772727966309 87.56880950927734 19.19814109802246 84.25183868408203 14.97310066223145 80.02679443359375 C 10.74804782867432 75.8017578125 7.431074142456055 70.88218688964844 5.114300727844238 65.40471649169922 C 2.716034412384033 59.73458480834961 1.500007629394531 53.71054458618164 1.500007629394531 47.49993133544922 C 1.500007629394531 41.2893180847168 2.716034412384033 35.26527786254883 5.114300727844238 29.59514427185059 C 7.431074142456055 24.11767768859863 10.74804782867432 19.19810485839844 14.97310066223145 14.97306442260742 C 19.19814109802246 10.74802494049072 24.11772727966309 7.431051254272461 29.59519386291504 5.114277839660645 C 35.26534271240234 2.71602463722229 41.28937911987305 1.499997973442078 47.50000762939453 1.499997973442078 C 53.71063613891602 1.499997973442078 59.73467254638672 2.71602463722229 65.40482330322266 5.114277839660645 C 70.88228607177734 7.431051254272461 75.80187225341797 10.74802494049072 80.02691650390625 14.97306442260742 C 84.25196838378906 19.19810485839844 87.56893920898438 24.11767768859863 89.88571166992188 29.59514427185059 C 92.28398132324219 35.26527786254883 93.50000762939453 41.2893180847168 93.50000762939453 47.49993133544922 C 93.50000762939453 53.71054458618164 92.28398132324219 59.73458480834961 89.88571166992188 65.40471649169922 C 87.56893920898438 70.88218688964844 84.25196838378906 75.8017578125 80.02691650390625 80.02679443359375 C 75.80187225341797 84.25183868408203 70.88228607177734 87.56880950927734 65.40482330322266 89.88558197021484 C 59.73467254638672 92.28383636474609 53.71063613891602 93.49986267089844 47.50000762939453 93.49986267089844 Z" stroke="none"/>
                                                        <path d="M 47.50000762939453 2.999992370605469 C 41.4912223815918 2.999992370605469 35.66377639770508 4.1761474609375 30.17951202392578 6.495796203613281 C 24.88085174560547 8.736930847167969 20.12152862548828 11.94596099853516 16.03376007080078 16.03372955322266 C 11.94597625732422 20.12148284912109 8.736961364746094 24.88080596923828 6.495803833007812 30.17946624755859 C 4.176162719726562 35.66371536254883 3.000007629394531 41.49116134643555 3.000007629394531 47.49993133544922 C 3.000007629394531 53.50870132446289 4.176162719726562 59.33614730834961 6.495803833007812 64.82038879394531 C 8.736961364746094 70.11905670166016 11.94597625732422 74.87836456298828 16.03376007080078 78.96613311767578 C 20.12152862548828 83.05390167236328 24.88085174560547 86.26291656494141 30.17951202392578 88.50406646728516 C 35.66377639770508 90.82369995117188 41.4912223815918 91.99985504150391 47.50000762939453 91.99985504150391 C 53.50879287719727 91.99985504150391 59.33623886108398 90.82369995117188 64.82049560546875 88.50406646728516 C 70.11916351318359 86.26291656494141 74.87848663330078 83.05390167236328 78.96625518798828 78.96613311767578 C 83.05403900146484 74.87836456298828 86.26305389404297 70.11905670166016 88.50421142578125 64.82038879394531 C 90.8238525390625 59.33614730834961 92.00000762939453 53.50870132446289 92.00000762939453 47.49993133544922 C 92.00000762939453 41.49116134643555 90.8238525390625 35.66371536254883 88.50421142578125 30.17946624755859 C 86.26305389404297 24.88080596923828 83.05403900146484 20.12148284912109 78.96625518798828 16.03372955322266 C 74.87848663330078 11.94596099853516 70.11916351318359 8.736930847167969 64.82049560546875 6.495796203613281 C 59.33623886108398 4.1761474609375 53.50879287719727 2.999992370605469 47.50000762939453 2.999992370605469 M 47.50000762939453 -7.62939453125e-06 C 73.73352813720703 -7.62939453125e-06 95.00000762939453 21.26644134521484 95.00000762939453 47.49993133544922 C 95.00000762939453 73.73342132568359 73.73352813720703 94.99985504150391 47.50000762939453 94.99985504150391 C 21.26648712158203 94.99985504150391 7.62939453125e-06 73.73342132568359 7.62939453125e-06 47.49993133544922 C 7.62939453125e-06 21.26644134521484 21.26648712158203 -7.62939453125e-06 47.50000762939453 -7.62939453125e-06 Z" stroke="none" fill="#453179"/>
                                                      </g>
                                                    </g>
                                                  </g>
                                                </g>
                                              </g>
                                            </g>
                                          </g>
                                        </g>
                                      </g>
                                    </g>
                                  </g>
                                </g>
                              </g>
                            </g>
                          </g>
                        </g>
                      </g>
                    </g>
                  </g>
                </g>
              </g>
            </g>
          </g>
        </g>
      </g>
    </g>
    <g id="confuso_1_" data-name="confuso (1)" transform="translate(607.286 5884.206)">
      <path id="Trazado_1221085" data-name="Trazado 1221085" d="M127.252,381.751a2.08,2.08,0,0,0,2.056-2.363,17.659,17.659,0,0,0-35,0,2.08,2.08,0,0,0,2.056,2.363Z" transform="translate(-79.16 -318.309)" fill="#8fd9a9"/>
      <path id="Trazado_1221086" data-name="Trazado 1221086" d="M124.71,375.735l-1.9-4.423,2.774-.4c.845,1.9,3.611,4.319,8.777,5.016a17.663,17.663,0,0,0-33.345,0c5.167-.7,7.932-3.111,8.777-5.016l2.774.4-1.9,4.423a1.309,1.309,0,0,0,.512,1.632,12.108,12.108,0,0,1,3.781,4.384h5.452a12.107,12.107,0,0,1,3.781-4.384A1.308,1.308,0,0,0,124.71,375.735Z" transform="translate(-85.043 -318.309)" fill="#6ac65e"/>
      <ellipse id="Elipse_11607" data-name="Elipse 11607" cx="7.736" cy="6.325" rx="7.736" ry="6.325" transform="translate(4.686 29.781)" fill="#ffd3bd"/>
      <ellipse id="Elipse_11608" data-name="Elipse 11608" cx="7.736" cy="6.325" rx="7.736" ry="6.325" transform="translate(45.138 29.781)" fill="#ffbe9d"/>
      <path id="Trazado_1221087" data-name="Trazado 1221087" d="M101.892,160.752c0,10.994-9.907,18.481-22.128,18.481s-22.128-7.487-22.128-18.481,9.907-19.907,22.128-19.907S101.892,149.758,101.892,160.752Z" transform="translate(-47.116 -123.134)" fill="#ffd3bd"/>
      <path id="Trazado_1221088" data-name="Trazado 1221088" d="M79.763,185.921a27.469,27.469,0,0,0,8.742-1.386c-29.473-3.114-24.864-26.264-15.552-36.041-8.889,2.584-15.319,10.088-15.319,18.945C57.635,178.434,67.542,185.921,79.763,185.921Z" transform="translate(-47.115 -129.822)" fill="#ffbe9d"/>
      <g id="Grupo_1242206" data-name="Grupo 1242206" transform="translate(17.248 37.937)">
        <g id="Grupo_1242205" data-name="Grupo 1242205">
          <ellipse id="Elipse_11609" data-name="Elipse 11609" cx="4.151" cy="3.305" rx="4.151" ry="3.305" fill="#eda1ab"/>
          <ellipse id="Elipse_11610" data-name="Elipse 11610" cx="4.151" cy="3.305" rx="4.151" ry="3.305" transform="translate(22.498)" fill="#eda1ab"/>
        </g>
      </g>
      <path id="Trazado_1221089" data-name="Trazado 1221089" d="M56.567,97.547a10.809,10.809,0,0,1,6.453,2.212,1.193,1.193,0,0,0,1.424-.075c4.9-4.045,14.344-6.331,20.968-6.384a9.3,9.3,0,0,1,9.4,9.2,9.171,9.171,0,0,1-9.17,9.138c-4.772,0-16.731-.846-23.415-4.467a1.184,1.184,0,0,0-1.445.26,5.93,5.93,0,0,1-10.348-3.884,6.006,6.006,0,0,1,6.132-6Z" transform="translate(-40.82 -81.567)" fill="#cb9d82"/>
      <path id="Trazado_1221090" data-name="Trazado 1221090" d="M6.413,17.652a.985.985,0,1,0-.589-1.262A.985.985,0,0,0,6.413,17.652Zm1.979-8.2L7.2,12.719a.943.943,0,1,0,1.773.645L10.458,9.3a.943.943,0,0,0-.564-1.209,3.2,3.2,0,1,1,4.1-1.911.943.943,0,0,0,1.772.645A5.084,5.084,0,1,0,8.392,9.456Zm58.574,9.821a5.086,5.086,0,0,0-5.685-3.535l-1.188-3.263a.943.943,0,0,0-1.773.645L59.8,17.192a.944.944,0,0,0,1.209.564,3.2,3.2,0,1,1-1.911,4.1.943.943,0,0,0-1.772.645,5.084,5.084,0,0,0,9.639-3.222ZM39.018,4.146a.985.985,0,1,0-1.393,0A.985.985,0,0,0,39.018,4.146Zm19.419,6.542a.985.985,0,1,0-1.262-.589A.985.985,0,0,0,58.438,10.688ZM24.919,33.717a2.143,2.143,0,0,1-2.2,0,.943.943,0,0,0-.971,1.617,4.013,4.013,0,0,0,1.294.5.939.939,0,0,0-.165.533v1.7a.943.943,0,0,0,1.886,0v-1.7a.939.939,0,0,0-.165-.533,4.013,4.013,0,0,0,1.294-.5.943.943,0,0,0-.971-1.617ZM35.333,38.2a14.005,14.005,0,0,0-4.978-.695H30.32a.943.943,0,0,0,0,1.886h.033a12.657,12.657,0,0,1,4.266.555.943.943,0,0,0,.714-1.746Zm6.145-2.777a.943.943,0,0,0-.943.943v1.7a.943.943,0,0,0,1.886,0v-1.7A.943.943,0,0,0,41.478,35.421ZM30.719,22.959a.943.943,0,1,0-.674,1.762A31.858,31.858,0,0,0,41.714,26a.943.943,0,1,0-.254-1.869,30.58,30.58,0,0,1-10.741-1.172ZM53.59,28.866c-.279-.545-.582-1.081-.914-1.6a10.06,10.06,0,0,0,2.261-6.324A10.244,10.244,0,0,0,44.584,10.789a43.786,43.786,0,0,0-9.463,1.231,5.059,5.059,0,0,0-.874-3.161L36.7,6.4a.943.943,0,1,0-1.334-1.334L32.308,8.131a.943.943,0,0,0,0,1.334,3.186,3.186,0,0,1,.829,3.075,38.648,38.648,0,0,0-4.96,1.779,3.2,3.2,0,0,1-.391-4.853A.943.943,0,1,0,26.452,8.13a5.083,5.083,0,0,0-.107,7.079,19.918,19.918,0,0,0-3.323,2.18.25.25,0,0,1-.3.018,12.316,12.316,0,0,0-5.319-2.247.943.943,0,0,0-.269,1.867,10.482,10.482,0,0,1,4.539,1.948,2.124,2.124,0,0,0,2.549-.132c4.82-3.982,14.332-6.168,20.439-6.168a8.353,8.353,0,0,1,8.387,8.256,8.242,8.242,0,0,1-8.227,8.2,78.79,78.79,0,0,1-10.85-.865,38.639,38.639,0,0,1-12.116-3.488,2.12,2.12,0,0,0-2.6.46,4.976,4.976,0,1,1-5.991-7.727.943.943,0,0,0-.874-1.671,6.838,6.838,0,0,0-.17,12.082c-.182.312-.357.628-.52.947A9.446,9.446,0,0,0,6.31,30.942a6.685,6.685,0,0,0-2.567,5.165c0,3.424,2.786,6.322,6.707,7.077a18.471,18.471,0,0,0,7.1,9.394,18.5,18.5,0,0,0-3.34,8.375A3.024,3.024,0,0,0,17.2,64.385H44.781a.943.943,0,1,0,0-1.886H37.048a9.674,9.674,0,0,1,2.6-2.637,2.263,2.263,0,0,0,.886-2.808l-.417-.972q.832-.223,1.637-.5a14.019,14.019,0,0,0,6.852,2.875,16.59,16.59,0,0,1,.608,2.742,1.138,1.138,0,0,1-.507,1.114A.943.943,0,1,0,49.738,63.9a3.049,3.049,0,0,0,1.345-2.943,18.5,18.5,0,0,0-3.34-8.375,18.471,18.471,0,0,0,7.1-9.394c3.921-.755,6.707-3.653,6.707-7.077,0-4.014-3.727-6.952-7.964-7.24ZM9.91,41.1c-2.517-.806-4.281-2.786-4.281-5,0-2.511,2.218-4.646,5.184-5.224a18.841,18.841,0,0,0-.9,10.22Zm9.234,12.5a23.417,23.417,0,0,0,2.313,1.178,12.8,12.8,0,0,1-3.958,1.6A16.69,16.69,0,0,1,19.144,53.6ZM17.2,62.5a1.136,1.136,0,0,1-1.122-1.3,16.588,16.588,0,0,1,.608-2.742,14.02,14.02,0,0,0,6.852-2.875q.8.273,1.637.5l-.417.972a2.263,2.263,0,0,0,.886,2.808,9.673,9.673,0,0,1,2.6,2.636Zm14.5,0H30.483a12.718,12.718,0,0,0-3.849-4.244A.366.366,0,0,1,26.5,57.8l.552-1.286a29.208,29.208,0,0,0,4.657.514Zm6.957-4.245A12.718,12.718,0,0,0,34.813,62.5H33.591V57.026a29.222,29.222,0,0,0,4.657-.514L38.8,57.8A.366.366,0,0,1,38.662,58.254ZM47.8,56.377a12.792,12.792,0,0,1-3.958-1.6A23.431,23.431,0,0,0,46.152,53.6,16.706,16.706,0,0,1,47.8,56.377ZM32.648,55.156c-11.28,0-21.185-6.752-21.185-17.538a17.4,17.4,0,0,1,2.544-9.012,6.864,6.864,0,0,0,6.659-2.112.241.241,0,0,1,.293-.06c6.689,3.624,18.535,4.581,23.864,4.581a10.065,10.065,0,0,0,6.489-2.368,17.375,17.375,0,0,1,2.521,8.97C53.833,48.4,43.941,55.156,32.648,55.156ZM55.386,41.1a18.833,18.833,0,0,0-.9-10.22c2.966.578,5.184,2.713,5.184,5.225C59.667,38.315,57.9,40.3,55.386,41.1Zm-14-23.714c1.082-.141,3.957-.514,5.1.875a.943.943,0,1,0,1.457-1.2c-1.8-2.2-5.3-1.742-6.8-1.548a.943.943,0,0,0,.243,1.871Z" transform="translate(0 0)"/>
    </g>
  </g>
</svg>
