<svg xmlns="http://www.w3.org/2000/svg" xmlns:xlink="http://www.w3.org/1999/xlink" width="113" height="113" viewBox="0 0 113 113">
  <defs>
    <filter id="Trazado_982547" x="0" y="0" width="113" height="113" filterUnits="userSpaceOnUse">
      <feOffset dy="3" input="SourceAlpha"/>
      <feGaussianBlur stdDeviation="3" result="blur"/>
      <feFlood flood-opacity="0.161"/>
      <feComposite operator="in" in2="blur"/>
      <feComposite in="SourceGraphic"/>
    </filter>
  </defs>
  <g id="Grupo_1242209" data-name="Grupo 1242209" transform="translate(-900.751 -5862.899)">
    <g id="Grupo_1241429" data-name="Grupo 1241429" transform="translate(545.407 -6820.269)">
      <g id="Grupo_1240425" data-name="Grupo 1240425" transform="translate(364.344 12689.168)">
        <g id="Grupo_1239772" data-name="Grupo 1239772" transform="translate(0 0)">
          <g id="Grupo_1236602" data-name="Grupo 1236602">
            <g id="Grupo_1236144" data-name="Grupo 1236144">
              <g id="Grupo_1235105" data-name="Grupo 1235105">
                <g id="Grupo_1223793" data-name="Grupo 1223793">
                  <g id="Grupo_1208028" data-name="Grupo 1208028">
                    <g id="Grupo_1177675" data-name="Grupo 1177675">
                      <g id="Grupo_1176928" data-name="Grupo 1176928" transform="translate(0)">
                        <g id="Grupo_1172322" data-name="Grupo 1172322">
                          <g id="Grupo_1164700" data-name="Grupo 1164700">
                            <g id="Grupo_1160931" data-name="Grupo 1160931">
                              <g id="Grupo_1160749" data-name="Grupo 1160749">
                                <g id="Grupo_1158891" data-name="Grupo 1158891">
                                  <g id="Grupo_1157406" data-name="Grupo 1157406">
                                    <g id="Grupo_1155793" data-name="Grupo 1155793">
                                      <g id="Grupo_1154704" data-name="Grupo 1154704">
                                        <g id="Grupo_1150790" data-name="Grupo 1150790">
                                          <g id="Grupo_1154214" data-name="Grupo 1154214" transform="translate(0)">
                                            <g id="Grupo_1152583" data-name="Grupo 1152583">
                                              <g id="Grupo_1146973" data-name="Grupo 1146973">
                                                <g id="Grupo_1146954" data-name="Grupo 1146954">
                                                  <g transform="matrix(1, 0, 0, 1, -9, -6)" filter="url(#Trazado_982547)">
                                                    <g id="Trazado_982547-2" data-name="Trazado 982547" transform="translate(9 6)" fill="#d9d5e3">
                                                      <path d="M 47.50000762939453 93.49986267089844 C 41.28937911987305 93.49986267089844 35.26534271240234 92.28383636474609 29.59519386291504 89.88558197021484 C 24.11772727966309 87.56880950927734 19.19814109802246 84.25183868408203 14.97310066223145 80.02679443359375 C 10.74804782867432 75.8017578125 7.431074142456055 70.88218688964844 5.114300727844238 65.40471649169922 C 2.716034412384033 59.73458480834961 1.500007629394531 53.71054458618164 1.500007629394531 47.49993133544922 C 1.500007629394531 41.2893180847168 2.716034412384033 35.26527786254883 5.114300727844238 29.59514427185059 C 7.431074142456055 24.11767768859863 10.74804782867432 19.19810485839844 14.97310066223145 14.97306442260742 C 19.19814109802246 10.74802494049072 24.11772727966309 7.431051254272461 29.59519386291504 5.114277839660645 C 35.26534271240234 2.71602463722229 41.28937911987305 1.499997973442078 47.50000762939453 1.499997973442078 C 53.71063613891602 1.499997973442078 59.73467254638672 2.71602463722229 65.40482330322266 5.114277839660645 C 70.88228607177734 7.431051254272461 75.80187225341797 10.74802494049072 80.02691650390625 14.97306442260742 C 84.25196838378906 19.19810485839844 87.56893920898438 24.11767768859863 89.88571166992188 29.59514427185059 C 92.28398132324219 35.26527786254883 93.50000762939453 41.2893180847168 93.50000762939453 47.49993133544922 C 93.50000762939453 53.71054458618164 92.28398132324219 59.73458480834961 89.88571166992188 65.40471649169922 C 87.56893920898438 70.88218688964844 84.25196838378906 75.8017578125 80.02691650390625 80.02679443359375 C 75.80187225341797 84.25183868408203 70.88228607177734 87.56880950927734 65.40482330322266 89.88558197021484 C 59.73467254638672 92.28383636474609 53.71063613891602 93.49986267089844 47.50000762939453 93.49986267089844 Z" stroke="none"/>
                                                      <path d="M 47.50000762939453 2.999992370605469 C 41.4912223815918 2.999992370605469 35.66377639770508 4.1761474609375 30.17951202392578 6.495796203613281 C 24.88085174560547 8.736930847167969 20.12152862548828 11.94596099853516 16.03376007080078 16.03372955322266 C 11.94597625732422 20.12148284912109 8.736961364746094 24.88080596923828 6.495803833007812 30.17946624755859 C 4.176162719726562 35.66371536254883 3.000007629394531 41.49116134643555 3.000007629394531 47.49993133544922 C 3.000007629394531 53.50870132446289 4.176162719726562 59.33614730834961 6.495803833007812 64.82038879394531 C 8.736961364746094 70.11905670166016 11.94597625732422 74.87836456298828 16.03376007080078 78.96613311767578 C 20.12152862548828 83.05390167236328 24.88085174560547 86.26291656494141 30.17951202392578 88.50406646728516 C 35.66377639770508 90.82369995117188 41.4912223815918 91.99985504150391 47.50000762939453 91.99985504150391 C 53.50879287719727 91.99985504150391 59.33623886108398 90.82369995117188 64.82049560546875 88.50406646728516 C 70.11916351318359 86.26291656494141 74.87848663330078 83.05390167236328 78.96625518798828 78.96613311767578 C 83.05403900146484 74.87836456298828 86.26305389404297 70.11905670166016 88.50421142578125 64.82038879394531 C 90.8238525390625 59.33614730834961 92.00000762939453 53.50870132446289 92.00000762939453 47.49993133544922 C 92.00000762939453 41.49116134643555 90.8238525390625 35.66371536254883 88.50421142578125 30.17946624755859 C 86.26305389404297 24.88080596923828 83.05403900146484 20.12148284912109 78.96625518798828 16.03372955322266 C 74.87848663330078 11.94596099853516 70.11916351318359 8.736930847167969 64.82049560546875 6.495796203613281 C 59.33623886108398 4.1761474609375 53.50879287719727 2.999992370605469 47.50000762939453 2.999992370605469 M 47.50000762939453 -7.62939453125e-06 C 73.73352813720703 -7.62939453125e-06 95.00000762939453 21.26644134521484 95.00000762939453 47.49993133544922 C 95.00000762939453 73.73342132568359 73.73352813720703 94.99985504150391 47.50000762939453 94.99985504150391 C 21.26648712158203 94.99985504150391 7.62939453125e-06 73.73342132568359 7.62939453125e-06 47.49993133544922 C 7.62939453125e-06 21.26644134521484 21.26648712158203 -7.62939453125e-06 47.50000762939453 -7.62939453125e-06 Z" stroke="none" fill="#453179"/>
                                                    </g>
                                                  </g>
                                                </g>
                                              </g>
                                            </g>
                                          </g>
                                        </g>
                                      </g>
                                    </g>
                                  </g>
                                </g>
                              </g>
                            </g>
                          </g>
                        </g>
                      </g>
                    </g>
                  </g>
                </g>
              </g>
            </g>
          </g>
        </g>
      </g>
    </g>
    <g id="imaginacion" transform="translate(925.547 5884.696)">
      <path id="Trazado_1221091" data-name="Trazado 1221091" d="M20.894,120.205a4.809,4.809,0,0,0-8.719-1.877,1.924,1.924,0,0,0-2.751,1.736q0,.082.007.162a2.886,2.886,0,0,0,.955,5.609H20a2.886,2.886,0,0,0,.892-5.63Z" transform="translate(-6.571 -101.826)" fill="#c8effe"/>
      <path id="Trazado_1221092" data-name="Trazado 1221092" d="M29.988,241.774h-1.6A7.43,7.43,0,0,1,21.1,235.8l-1.007-5.033a4.869,4.869,0,0,1,6.314-5.574l3.58,1.193v15.387Z" transform="translate(-17.518 -197.081)" fill="#ffbd86"/>
      <path id="Trazado_1221093" data-name="Trazado 1221093" d="M411.312,241.774h1.6A7.43,7.43,0,0,0,420.2,235.8l1.007-5.033a4.869,4.869,0,0,0-6.314-5.574l-3.58,1.193v15.387Z" transform="translate(-360.375 -197.081)" fill="#f6a96c"/>
      <path id="Trazado_1221094" data-name="Trazado 1221094" d="M157.081,54.094c-7.481,0-13.716,7.947-13.982,15.387L145.54,71.4l1.409-1.923a10.145,10.145,0,0,1,20.263,0l1.409,1.923,2.441-1.923C170.8,62.041,164.562,54.094,157.081,54.094Z" transform="translate(-125.378 -47.395)" fill="#46cc8d"/>
      <path id="Trazado_1221095" data-name="Trazado 1221095" d="M334.688,160.821l1.409,1.923,2.441-1.923a15,15,0,0,0-.3-2.477h-3.991A9.922,9.922,0,0,1,334.688,160.821Z" transform="translate(-292.854 -138.735)" fill="#00c27a"/>
      <path id="Trazado_1221096" data-name="Trazado 1221096" d="M143.4,158.344a14.987,14.987,0,0,0-.3,2.477l2.441,1.923,1.409-1.923a9.923,9.923,0,0,1,.441-2.477Z" transform="translate(-125.378 -138.735)" fill="#00c27a"/>
      <path id="Trazado_1221097" data-name="Trazado 1221097" d="M129.852,23.031c-9.584,0-17.564,9.681-17.83,19.234l2.443,1.923,1.405-1.923a13.992,13.992,0,0,1,27.963,0l1.406,1.923,2.443-1.923C147.416,32.712,139.436,23.031,129.852,23.031Z" transform="translate(-98.149 -20.179)" fill="#fee903"/>
      <g id="Grupo_1242208" data-name="Grupo 1242208" transform="translate(13.873 8.497)">
        <path id="Trazado_1221098" data-name="Trazado 1221098" d="M352.958,73.137a21.808,21.808,0,0,0-3.259-4.526,2.885,2.885,0,0,0,2.373,4.526h.886Z" transform="translate(-319.816 -68.611)" fill="#f4d902"/>
        <path id="Trazado_1221099" data-name="Trazado 1221099" d="M366.669,160.821l1.406,1.923,2.443-1.923a18.513,18.513,0,0,0-.239-2.477h-3.925A13.72,13.72,0,0,1,366.669,160.821Z" transform="translate(-334.857 -147.231)" fill="#f4d902"/>
        <path id="Trazado_1221100" data-name="Trazado 1221100" d="M112.261,158.344a18.531,18.531,0,0,0-.239,2.477l2.443,1.923,1.405-1.923a13.716,13.716,0,0,1,.315-2.477Z" transform="translate(-112.022 -147.231)" fill="#f4d902"/>
      </g>
      <path id="Trazado_1221101" data-name="Trazado 1221101" d="M102.627,11.347a17.929,17.929,0,0,1,17.83,17.311l1.4,1.923,2.444-1.923a21.685,21.685,0,0,0-43.357,0l2.444,1.923,1.4-1.923A17.929,17.929,0,0,1,102.627,11.347Z" transform="translate(-70.924 -6.571)" fill="#e53950"/>
      <path id="Trazado_1221102" data-name="Trazado 1221102" d="M350.462,51.61a18.137,18.137,0,0,1,3.313,3.829h4.442a21.8,21.8,0,0,0-5.522-7.027,1.916,1.916,0,0,0-.468,1.257c0,.054,0,.108.007.162A2.892,2.892,0,0,0,350.462,51.61Z" transform="translate(-307.061 -42.416)" fill="#ca2e43"/>
      <path id="Trazado_1221103" data-name="Trazado 1221103" d="M398.241,160.821l1.4,1.923,2.444-1.923a21.694,21.694,0,0,0-.2-2.477h-3.895A17.552,17.552,0,0,1,398.241,160.821Z" transform="translate(-348.707 -138.735)" fill="#ca2e43"/>
      <path id="Trazado_1221104" data-name="Trazado 1221104" d="M81.149,158.344a21.668,21.668,0,0,0-.2,2.477l2.444,1.923,1.4-1.923a17.521,17.521,0,0,1,.246-2.477Z" transform="translate(-70.925 -138.735)" fill="#ca2e43"/>
      <path id="Trazado_1221105" data-name="Trazado 1221105" d="M52.963,10.874a9.877,9.877,0,0,0-3.372,3.372,9.9,9.9,0,0,0-3.374-3.372A9.935,9.935,0,0,0,49.591,7.5,9.913,9.913,0,0,0,52.963,10.874Z" transform="translate(-40.493 -6.571)" fill="#fee903"/>
      <path id="Trazado_1221106" data-name="Trazado 1221106" d="M463.677,119.1a8.449,8.449,0,0,0-2.884,2.884,8.468,8.468,0,0,0-2.886-2.884,8.5,8.5,0,0,0,2.886-2.886A8.481,8.481,0,0,0,463.677,119.1Z" transform="translate(-401.2 -101.826)" fill="#fee903"/>
      <path id="Trazado_1221107" data-name="Trazado 1221107" d="M80.908,178.344q-.021.931.037,1.878l1.207,19.316a20.474,20.474,0,0,0,40.867,0l1.207-19.316q.059-.947.037-1.878Z" transform="translate(-70.884 -156.258)" fill="#fed2a4"/>
      <path id="Trazado_1221108" data-name="Trazado 1221108" d="M196.036,178.344h-5.028l-1.17,18.718a20.486,20.486,0,0,1-27.02,18.113,20.475,20.475,0,0,0,31.973-15.636L196,180.222Q196.058,179.275,196.036,178.344Z" transform="translate(-142.655 -156.258)" fill="#ffbd86"/>
      <path id="Trazado_1221109" data-name="Trazado 1221109" d="M362.582,11.487a4.809,4.809,0,0,0-8.719-1.877,1.924,1.924,0,0,0-2.751,1.736q0,.082.007.162a2.886,2.886,0,0,0,.955,5.608h9.617a2.886,2.886,0,0,0,.892-5.63Z" transform="translate(-305.944 -6.571)" fill="#c8effe"/>
      <path id="Trazado_1221110" data-name="Trazado 1221110" d="M244.867,289.114a4.029,4.029,0,0,0,4.025-4.025v-4.6a.929.929,0,0,0-1.858,0v4.6a2.17,2.17,0,0,1-2.167,2.167h-1.5a.929.929,0,1,0,0,1.858Z" transform="translate(-212.413 -244.942)"/>
      <path id="Trazado_1221111" data-name="Trazado 1221111" d="M182.878,392.322a.929.929,0,0,0,0,1.313,12.469,12.469,0,0,0,17.634,0,.929.929,0,1,0-1.314-1.313,10.612,10.612,0,0,1-15.007,0A.929.929,0,0,0,182.878,392.322Z" transform="translate(-159.992 -343.499)"/>
      <path id="Trazado_1221112" data-name="Trazado 1221112" d="M39.169,5.1a8.992,8.992,0,0,1,3.057,3.055.929.929,0,0,0,1.591,0A8.969,8.969,0,0,1,46.871,5.1a.929.929,0,0,0,0-1.592A9.009,9.009,0,0,1,43.816.45a.929.929,0,0,0-1.591,0,9.033,9.033,0,0,1-3.058,3.058.929.929,0,0,0,0,1.592ZM43.02,2.553A10.913,10.913,0,0,0,44.767,4.3,10.866,10.866,0,0,0,43.02,6.05,10.881,10.881,0,0,0,41.272,4.3,10.938,10.938,0,0,0,43.02,2.553Z" transform="translate(-33.923 0)"/>
      <path id="Trazado_1221113" data-name="Trazado 1221113" d="M457.585,111.738a7.573,7.573,0,0,1-2.568-2.569.929.929,0,0,0-1.591,0,7.592,7.592,0,0,1-2.57,2.57.929.929,0,0,0,0,1.592,7.559,7.559,0,0,1,2.569,2.568.929.929,0,0,0,1.591,0,7.535,7.535,0,0,1,2.567-2.567.929.929,0,0,0,0-1.591Zm-3.365,2.076a9.441,9.441,0,0,0-1.282-1.282,9.486,9.486,0,0,0,1.282-1.282,9.468,9.468,0,0,0,1.281,1.282A9.425,9.425,0,0,0,454.22,113.815Z" transform="translate(-394.627 -95.255)"/>
      <path id="Trazado_1221114" data-name="Trazado 1221114" d="M59.895,28.385a5.741,5.741,0,0,0-5.671-1.154l-.157.052.2-3.261c.04-.64.053-1.288.04-1.927,0-.01,0-.021,0-.031a22.474,22.474,0,0,0-2.924-10.59h4.36A3.815,3.815,0,0,0,57.44,4.242a5.739,5.739,0,0,0-9.863-2.278,2.858,2.858,0,0,0-3.2,1.92,22.633,22.633,0,0,0-25.5.1.929.929,0,0,0,1.055,1.529A20.777,20.777,0,0,1,43.142,5.29a3.818,3.818,0,0,0-.8,1.913A18.607,18.607,0,0,0,31.7,3.847,18.894,18.894,0,0,0,12.992,21.157H11a20.674,20.674,0,0,1,5.746-12.93A.929.929,0,1,0,15.4,6.94a22.643,22.643,0,0,0-4.458,6.686,5.748,5.748,0,0,0-5.684,1.8,2.857,2.857,0,0,0-3.3,2.363,3.814,3.814,0,0,0,1.856,7.147H9.192l.147,2.345-.157-.052a5.8,5.8,0,0,0-7.519,6.637L2.67,38.9a8.383,8.383,0,0,0,7.936,6.716A21.276,21.276,0,0,0,11.968,50.3a.929.929,0,0,0,1.712-.72A19.5,19.5,0,0,1,12.2,43.223C10.976,23.7,10.97,23.895,10.952,23.015h41.5c-.013.637.077-.936-1.244,20.208A19.547,19.547,0,0,1,15.719,53.254a.929.929,0,1,0-1.518,1.07,21.405,21.405,0,0,0,38.6-8.707,8.368,8.368,0,0,0,1.8-.252.929.929,0,1,0-.456-1.8,6.489,6.489,0,0,1-1.1.18c.024-.3-.029.528.649-10.321l2.344-.781a.335.335,0,0,1,.042-.011.151.151,0,0,1,.07.051.177.177,0,0,1,.014.019.153.153,0,0,1,0,.048l-.667,3.334a.929.929,0,0,0,1.822.364l.667-3.333a1.9,1.9,0,0,0-.394-1.61,1.918,1.918,0,0,0-2.136-.624l-1.632.544.134-2.141.869-.29a3.94,3.94,0,0,1,5.11,4.511l-1.007,5.033a6.5,6.5,0,0,1-1.58,3.116A.929.929,0,1,0,58.7,42.909,8.353,8.353,0,0,0,60.736,38.9l1.007-5.033a5.741,5.741,0,0,0-1.848-5.484ZM52.41,21.157h-2a18.566,18.566,0,0,0-3.655-9.683h2.459A20.618,20.618,0,0,1,52.41,21.157ZM46.1,4.86a1,1,0,0,1,.991-1.079.984.984,0,0,1,.427.1.929.929,0,0,0,1.169-.316,3.881,3.881,0,0,1,7.035,1.513.929.929,0,0,0,.628.726,1.957,1.957,0,0,1-.6,3.818H46.129a1.957,1.957,0,0,1-.648-3.8A.929.929,0,0,0,46.1,4.86ZM31.7,5.7A17.025,17.025,0,0,1,48.551,21.157h-2a14.926,14.926,0,0,0-29.7,0h-2A17.024,17.024,0,0,1,31.7,5.7ZM42.683,21.157a11.08,11.08,0,0,0-21.959,0h-2a13.064,13.064,0,0,1,25.965,0Zm-1.878,0H22.6a9.217,9.217,0,0,1,18.2,0ZM1.858,21.124a1.959,1.959,0,0,1,1.309-1.847.929.929,0,0,0,.618-.954,1,1,0,0,1,.991-1.079.984.984,0,0,1,.428.1.929.929,0,0,0,1.169-.316,3.89,3.89,0,0,1,3.9-1.643A22.508,22.508,0,0,0,9.1,22.065c0,.011,0,.022,0,.033-.007.326-.007.654,0,.983H3.814a1.958,1.958,0,0,1-1.956-1.956ZM4.492,38.538,3.485,33.5A3.94,3.94,0,0,1,8.6,28.994l.869.29L9.6,31.425l-1.632-.544a1.918,1.918,0,0,0-2.136.625,1.9,1.9,0,0,0-.394,1.609L6.1,36.448a.929.929,0,0,0,1.822-.364L7.257,32.75a.187.187,0,0,1,0-.046.112.112,0,0,1,.014-.021.172.172,0,0,1,.066-.051.188.188,0,0,1,.046.011l2.344.781c.677,10.833.625,10.025.649,10.321a6.521,6.521,0,0,1-5.88-5.207Z" transform="translate(0 0)"/>
    </g>
  </g>
</svg>
