<svg xmlns="http://www.w3.org/2000/svg" xmlns:xlink="http://www.w3.org/1999/xlink" width="113" height="113" viewBox="0 0 113 113">
  <defs>
    <filter id="Trazado_982547" x="0" y="0" width="113" height="113" filterUnits="userSpaceOnUse">
      <feOffset dy="3" input="SourceAlpha"/>
      <feGaussianBlur stdDeviation="3" result="blur"/>
      <feFlood flood-opacity="0.161"/>
      <feComposite operator="in" in2="blur"/>
      <feComposite in="SourceGraphic"/>
    </filter>
  </defs>
  <g id="Grupo_1242210" data-name="Grupo 1242210" transform="translate(-1215.897 -5862.898)">
    <g id="Grupo_1241430" data-name="Grupo 1241430" transform="translate(545.407 -6820.269)">
      <g id="Grupo_1240427" data-name="Grupo 1240427" transform="translate(679.49 12689.167)">
        <g id="Grupo_1239780" data-name="Grupo 1239780" transform="translate(0 0)">
          <g id="Grupo_1236603" data-name="Grupo 1236603">
            <g id="Grupo_1236145" data-name="Grupo 1236145">
              <g id="Grupo_1235107" data-name="Grupo 1235107">
                <g id="Grupo_1223796" data-name="Grupo 1223796">
                  <g id="Grupo_1208038" data-name="Grupo 1208038">
                    <g id="Grupo_1202104" data-name="Grupo 1202104">
                      <g id="Grupo_1201923" data-name="Grupo 1201923">
                        <g id="Grupo_1176928" data-name="Grupo 1176928" transform="translate(0)">
                          <g id="Grupo_1172322" data-name="Grupo 1172322">
                            <g id="Grupo_1164700" data-name="Grupo 1164700">
                              <g id="Grupo_1160931" data-name="Grupo 1160931">
                                <g id="Grupo_1160749" data-name="Grupo 1160749">
                                  <g id="Grupo_1158891" data-name="Grupo 1158891">
                                    <g id="Grupo_1157406" data-name="Grupo 1157406">
                                      <g id="Grupo_1155793" data-name="Grupo 1155793">
                                        <g id="Grupo_1154704" data-name="Grupo 1154704">
                                          <g id="Grupo_1150790" data-name="Grupo 1150790">
                                            <g id="Grupo_1154214" data-name="Grupo 1154214" transform="translate(0)">
                                              <g id="Grupo_1152583" data-name="Grupo 1152583">
                                                <g id="Grupo_1146973" data-name="Grupo 1146973">
                                                  <g id="Grupo_1146954" data-name="Grupo 1146954">
                                                    <g transform="matrix(1, 0, 0, 1, -9, -6)" filter="url(#Trazado_982547)">
                                                      <g id="Trazado_982547-2" data-name="Trazado 982547" transform="translate(9 6)" fill="#d9d5e3">
                                                        <path d="M 47.50000762939453 93.49986267089844 C 41.28937911987305 93.49986267089844 35.26534271240234 92.28383636474609 29.59519386291504 89.88558197021484 C 24.11772727966309 87.56880950927734 19.19814109802246 84.25183868408203 14.97310066223145 80.02679443359375 C 10.74804782867432 75.8017578125 7.431074142456055 70.88218688964844 5.114300727844238 65.40471649169922 C 2.716034412384033 59.73458480834961 1.500007629394531 53.71054458618164 1.500007629394531 47.49993133544922 C 1.500007629394531 41.2893180847168 2.716034412384033 35.26527786254883 5.114300727844238 29.59514427185059 C 7.431074142456055 24.11767768859863 10.74804782867432 19.19810485839844 14.97310066223145 14.97306442260742 C 19.19814109802246 10.74802494049072 24.11772727966309 7.431051254272461 29.59519386291504 5.114277839660645 C 35.26534271240234 2.71602463722229 41.28937911987305 1.499997973442078 47.50000762939453 1.499997973442078 C 53.71063613891602 1.499997973442078 59.73467254638672 2.71602463722229 65.40482330322266 5.114277839660645 C 70.88228607177734 7.431051254272461 75.80187225341797 10.74802494049072 80.02691650390625 14.97306442260742 C 84.25196838378906 19.19810485839844 87.56893920898438 24.11767768859863 89.88571166992188 29.59514427185059 C 92.28398132324219 35.26527786254883 93.50000762939453 41.2893180847168 93.50000762939453 47.49993133544922 C 93.50000762939453 53.71054458618164 92.28398132324219 59.73458480834961 89.88571166992188 65.40471649169922 C 87.56893920898438 70.88218688964844 84.25196838378906 75.8017578125 80.02691650390625 80.02679443359375 C 75.80187225341797 84.25183868408203 70.88228607177734 87.56880950927734 65.40482330322266 89.88558197021484 C 59.73467254638672 92.28383636474609 53.71063613891602 93.49986267089844 47.50000762939453 93.49986267089844 Z" stroke="none"/>
                                                        <path d="M 47.50000762939453 2.999992370605469 C 41.4912223815918 2.999992370605469 35.66377639770508 4.1761474609375 30.17951202392578 6.495796203613281 C 24.88085174560547 8.736930847167969 20.12152862548828 11.94596099853516 16.03376007080078 16.03372955322266 C 11.94597625732422 20.12148284912109 8.736961364746094 24.88080596923828 6.495803833007812 30.17946624755859 C 4.176162719726562 35.66371536254883 3.000007629394531 41.49116134643555 3.000007629394531 47.49993133544922 C 3.000007629394531 53.50870132446289 4.176162719726562 59.33614730834961 6.495803833007812 64.82038879394531 C 8.736961364746094 70.11905670166016 11.94597625732422 74.87836456298828 16.03376007080078 78.96613311767578 C 20.12152862548828 83.05390167236328 24.88085174560547 86.26291656494141 30.17951202392578 88.50406646728516 C 35.66377639770508 90.82369995117188 41.4912223815918 91.99985504150391 47.50000762939453 91.99985504150391 C 53.50879287719727 91.99985504150391 59.33623886108398 90.82369995117188 64.82049560546875 88.50406646728516 C 70.11916351318359 86.26291656494141 74.87848663330078 83.05390167236328 78.96625518798828 78.96613311767578 C 83.05403900146484 74.87836456298828 86.26305389404297 70.11905670166016 88.50421142578125 64.82038879394531 C 90.8238525390625 59.33614730834961 92.00000762939453 53.50870132446289 92.00000762939453 47.49993133544922 C 92.00000762939453 41.49116134643555 90.8238525390625 35.66371536254883 88.50421142578125 30.17946624755859 C 86.26305389404297 24.88080596923828 83.05403900146484 20.12148284912109 78.96625518798828 16.03372955322266 C 74.87848663330078 11.94596099853516 70.11916351318359 8.736930847167969 64.82049560546875 6.495796203613281 C 59.33623886108398 4.1761474609375 53.50879287719727 2.999992370605469 47.50000762939453 2.999992370605469 M 47.50000762939453 -7.62939453125e-06 C 73.73352813720703 -7.62939453125e-06 95.00000762939453 21.26644134521484 95.00000762939453 47.49993133544922 C 95.00000762939453 73.73342132568359 73.73352813720703 94.99985504150391 47.50000762939453 94.99985504150391 C 21.26648712158203 94.99985504150391 7.62939453125e-06 73.73342132568359 7.62939453125e-06 47.49993133544922 C 7.62939453125e-06 21.26644134521484 21.26648712158203 -7.62939453125e-06 47.50000762939453 -7.62939453125e-06 Z" stroke="none" fill="#453179"/>
                                                      </g>
                                                    </g>
                                                  </g>
                                                </g>
                                              </g>
                                            </g>
                                          </g>
                                        </g>
                                      </g>
                                    </g>
                                  </g>
                                </g>
                              </g>
                            </g>
                          </g>
                        </g>
                      </g>
                    </g>
                  </g>
                </g>
              </g>
            </g>
          </g>
        </g>
      </g>
    </g>
    <g id="Page-1" transform="translate(1242.916 5886.399)">
      <g id="_035---Creative-Thinking" data-name="035---Creative-Thinking" transform="translate(0 -1)">
        <path id="Shape" d="M55.79,27.57q-.2.42-.39.9L50.71,39.79,49.2,37.62,45.28,32l2.73-6.6c.12-.3.24-.59.34-.86l5.37,2.19Z" fill="#c81e1e"/>
        <path id="Shape-2" data-name="Shape" d="M53.72,26.73c-.11.23-.21.48-.32.74L49.2,37.62,45.28,32l2.73-6.6c.12-.3.24-.59.34-.86Z" fill="#f44335"/>
        <path id="Shape-3" data-name="Shape" d="M40.72,24.09c-.1,2-.31,4-.61,6l-6.98,1.13c-.01-.11-.01-.21-.02-.32a50.239,50.239,0,0,1,.15-7.15c0-.04.01-.08.01-.12v-.01Z" fill="#0377bc"/>
        <path id="Shape-4" data-name="Shape" d="M38.72,24.09c-.1,2-.31,4-.61,6l-5,.81a50.239,50.239,0,0,1,.15-7.15Z" fill="#02a9f4"/>
        <path id="Shape-5" data-name="Shape" d="M21.75,20.31a1.521,1.521,0,0,1-.6.03c-2.7-.31-5.15-6.66-5.15-6.66l.19-5.12c.44.16.67-.72.93-1.62.23-.8.48-1.63.92-1.73.94-.22,2.7,2.78,3.31,2.14l2.44,4.5S24.67,19.63,21.75,20.31Z" fill="#dfc49c"/>
        <path id="Shape-6" data-name="Shape" d="M21.15,20.34c-2.7-.31-5.15-6.66-5.15-6.66l.19-5.12c.44.16.67-.72.93-1.62.87.77,1.85,2.07,2.27,1.63l2.44,4.5S22.39,17.98,21.15,20.34Z" fill="#ffe0b2"/>
        <path id="Shape-7" data-name="Shape" d="M29.05,34.34,27,41l-.56-.48-1.81-1.57L21.23,36,16.49,15.78,16,13.68a5.075,5.075,0,0,0,2.16,1.81,3.859,3.859,0,0,0,2.42.19,4.237,4.237,0,0,0,1.02-.38,4.709,4.709,0,0,0,2.19-3.45Z" fill="#c81e1e"/>
        <path id="Shape-8" data-name="Shape" d="M26.05,34.34l-1.42,4.61L21.23,36,16.49,15.78a3.818,3.818,0,0,0,1.09-.1,3.285,3.285,0,0,0,.58-.19,3.859,3.859,0,0,0,2.42.19,4.237,4.237,0,0,0,1.02-.38Z" fill="#f44335"/>
        <path id="Shape-9" data-name="Shape" d="M17.08,36.57,17,49l-2.99-1.11-4.9-1.81L1.13,26.83a1,1,0,0,1,.54-1.31l5.99-2.48,2.33-.96a1.008,1.008,0,0,1,1.31.54l.76,1.85.38.92.38.92.77,1.85.38.92.39.93.76,1.85.38.92.38.92,1.16,2.78Z" fill="#fec108"/>
        <path id="Shape-10" data-name="Shape" d="M14.08,37.57l-.07,10.32-4.9-1.81L1.13,26.83a1,1,0,0,1,.54-1.31l5.99-2.48a1.1,1.1,0,0,1,.64.58l.76,1.85.38.92.38.92.77,1.85.38.92.39.93.76,1.85.38.92.38.92,1.16,2.78Z" fill="#ffdc00"/>
        <path id="Shape-11" data-name="Shape" d="M59,53a7,7,0,0,1-7,7H8A7,7,0,0,1,6.51,46.16h.01a2.639,2.639,0,0,1,.49-.08A5.367,5.367,0,0,1,8,46a6.907,6.907,0,0,1,2,.29,10.5,10.5,0,0,1,8.99-10.18A10.731,10.731,0,0,1,20.5,36a10.355,10.355,0,0,1,3.91.76A10.56,10.56,0,0,1,26.8,38.1a12.512,12.512,0,0,1,10.23-8.01A11.842,11.842,0,0,1,38.5,30,12.514,12.514,0,0,1,50.46,46.15c-.01.01-.01.01-.01.02.02,0,.03-.01.05-.01A7.415,7.415,0,0,1,52,46a7,7,0,0,1,7,7Z" fill="#cfd8dc"/>
        <path id="Shape-12" data-name="Shape" d="M56,53a7,7,0,0,1-7,7H8A7,7,0,0,1,6.51,46.16h.01c.16.04.32.08.48.13a1.477,1.477,0,0,1,.01-.21A5.367,5.367,0,0,1,8,46a6.907,6.907,0,0,1,2,.29,10.5,10.5,0,0,1,8.99-10.18c1.79.25,3.419-.19,4.8.84.17-.46.381.24.621-.19A10.559,10.559,0,0,1,26.8,38.1a12.512,12.512,0,0,1,10.23-8.01A12.515,12.515,0,0,1,48,42.5a12.346,12.346,0,0,1-.55,3.67A7.214,7.214,0,0,1,49,46a7.022,7.022,0,0,1,1.46.15.076.076,0,0,0,.04.01A7,7,0,0,1,56,53Z" fill="#f5f5f5"/>
        <path id="Shape-13" data-name="Shape" d="M21.35,7.35a5.069,5.069,0,0,1-2.37,1.52,5.075,5.075,0,0,1-2.79-.31l.19-5.28a1.312,1.312,0,0,1,1-1.23,1.428,1.428,0,0,1,.29-.03,1.314,1.314,0,0,1,1.16.69Z" fill="#37474f"/>
        <path id="Shape-14" data-name="Shape" d="M40.72,24.09a19.725,19.725,0,0,1-2.76.04c-1.68-.07-3.22-.32-4.69-.51.15-1.59.36-3.16.61-4.73.01-.04.01-.08.02-.12,2.25.14,4.52.28,6.83.42A44.5,44.5,0,0,1,40.72,24.09Z" fill="#707070"/>
        <path id="Shape-15" data-name="Shape" d="M38.72,24.09c-.26.02-.51.04-.76.04-1.68-.07-3.22-.32-4.69-.51.15-1.59.36-3.16.61-4.73,1.6.1,3.21.2,4.85.3A44.5,44.5,0,0,1,38.72,24.09Z" fill="#9e9e9e"/>
        <path id="Shape-16" data-name="Shape" d="M40.68,19.19l-2.86-.18-3.92-.24s-4.02-3.65-.37-7.67c2.21-2.43,3.45-4.31,3.92-5.98a5.51,5.51,0,0,0,.24-1.81.491.491,0,0,1,.84-.37C40.99,5.35,46.55,12.08,40.68,19.19Z" fill="#624421"/>
        <path id="Shape-17" data-name="Shape" d="M37.82,19.01l-3.92-.24s-4.02-3.65-.37-7.67c2.21-2.43,3.45-4.31,3.92-5.98C39.86,8.3,42.21,13.53,37.82,19.01Z" fill="#825a2c"/>
        <path id="Shape-18" data-name="Shape" d="M58.94,22.11a.524.524,0,0,1-.12.45,17.875,17.875,0,0,0-3.03,5.01,3.458,3.458,0,0,1-1.18.57,4.586,4.586,0,0,1-2.55-.03,4.778,4.778,0,0,1-.73-.24c-.01,0-.01-.01-.02-.01a4.9,4.9,0,0,1-2.53-2.14,3.537,3.537,0,0,1-.43-1.18,18.316,18.316,0,0,0,1.41-5.73.494.494,0,0,1,.24-.4l4.77-2.98.84-.52L57.06,14l.39,1.67Z" fill="#fec108"/>
        <path id="Shape-19" data-name="Shape" d="M56.32,22.11a.6.6,0,0,1-.12.45,17.539,17.539,0,0,0-3.04,5.01,3.334,3.334,0,0,1-1.1.54,4.778,4.778,0,0,1-.73-.24c-.01,0-.01-.01-.02-.01a4.9,4.9,0,0,1-2.53-2.14,3.537,3.537,0,0,1-.43-1.18,18.316,18.316,0,0,0,1.41-5.73.494.494,0,0,1,.24-.4l4.77-2.98.06.24Z" fill="#ffdc00"/>
        <path id="Shape-20" data-name="Shape" d="M52,61H8A8,8,0,1,1,9.086,45.073,11.569,11.569,0,0,1,20.5,35a11.432,11.432,0,0,1,5.856,1.6A13.5,13.5,0,0,1,51.768,45,8,8,0,0,1,52,61ZM8,47A6,6,0,0,0,8,59H52a6,6,0,0,0,0-12,6.243,6.243,0,0,0-1.335.146,1,1,0,0,1-1.17-1.272,11.5,11.5,0,0,0-21.759-7.422,1,1,0,0,1-1.533.45A9.5,9.5,0,0,0,11,46.309a1,1,0,0,1-1.289.939A5.891,5.891,0,0,0,8,47Z"/>
        <path id="Shape-21" data-name="Shape" d="M9.11,47.081a1,1,0,0,1-.924-.618L.206,27.213A2.006,2.006,0,0,1,1.289,24.6l8.319-3.439a2.021,2.021,0,0,1,2.61,1.069L17.963,36.1a1.042,1.042,0,0,1-.507,1.347.958.958,0,0,1-1.289-.466l-.041-.09L10.375,23,2.052,26.444,10.034,45.7a1,1,0,0,1-.924,1.384Z"/>
        <path id="Shape-22" data-name="Shape" d="M7.824,28.3a1,1,0,0,1-.383-1.924l4.619-1.914a1,1,0,0,1,.766,1.848L8.207,28.227A1.013,1.013,0,0,1,7.824,28.3Z"/>
        <path id="Shape-23" data-name="Shape" d="M11.2,31.233a1,1,0,0,1-.384-1.924l2.772-1.148a1,1,0,0,1,.765,1.848l-2.771,1.148A1.017,1.017,0,0,1,11.2,31.233Z"/>
        <path id="Shape-24" data-name="Shape" d="M10.886,35.694A1,1,0,0,1,10.5,33.77l4.62-1.914a1,1,0,1,1,.765,1.848l-4.619,1.914A1.011,1.011,0,0,1,10.886,35.694Z"/>
        <path id="Shape-25" data-name="Shape" d="M21.229,37a1,1,0,0,1-.972-.772l-5.23-22.32a1,1,0,0,1,1.947-.456l5.23,22.32A1,1,0,0,1,21.229,37Z"/>
        <path id="Shape-26" data-name="Shape" d="M29.049,35.34a1,1,0,0,1-.973-.773l-5.26-22.489a1,1,0,1,1,1.948-.455l5.259,22.489a1,1,0,0,1-.746,1.2A.932.932,0,0,1,29.049,35.34Z"/>
        <path id="Shape-27" data-name="Shape" d="M19.617,16.8a5.651,5.651,0,0,1-4.469-2.6A1.017,1.017,0,0,1,15,13.64l.376-10.4a2.309,2.309,0,0,1,4.338-1.016l4.954,9.146a1,1,0,0,1,.117.567c-.014.159-.4,3.877-3.978,4.716A5.2,5.2,0,0,1,19.617,16.8Zm-2.605-3.426a3.32,3.32,0,0,0,3.339,1.337,3.317,3.317,0,0,0,2.4-2.682l-4.8-8.848a.309.309,0,0,0-.581.136Z"/>
        <path id="Shape-28" data-name="Shape" d="M53.384,29.3a6.347,6.347,0,0,1-2.447-.516,5.315,5.315,0,0,1-3.545-4.231,1,1,0,1,1,1.994-.143A3.4,3.4,0,0,0,51.7,26.935a3.4,3.4,0,0,0,3.435-.159,1,1,0,0,1,1.3,1.52A4.869,4.869,0,0,1,53.384,29.3Z"/>
        <path id="Shape-29" data-name="Shape" d="M18.194,9.956A7,7,0,0,1,15.849,9.5a1,1,0,0,1,.677-1.882,4.11,4.11,0,0,0,2.227.278,4.1,4.1,0,0,0,1.873-1.239,1,1,0,1,1,1.443,1.385,5.962,5.962,0,0,1-2.859,1.8A4.456,4.456,0,0,1,18.194,9.956Z"/>
        <path id="Shape-30" data-name="Shape" d="M25.56,37.95a1,1,0,0,1-.973-.772l-2.93-12.5a1,1,0,0,1,1.947-.456l2.93,12.5a1,1,0,0,1-.974,1.228Z"/>
        <path id="Shape-31" data-name="Shape" d="M21.491,20.579a1,1,0,0,1-.973-.772L19.6,15.913a1,1,0,0,1,1.948-.456l.912,3.894a1,1,0,0,1-.974,1.228Z"/>
        <path id="Shape-32" data-name="Shape" d="M45.279,33a1,1,0,0,1-.924-1.382l2.731-6.6a1,1,0,1,1,1.848.764l-2.73,6.6A1,1,0,0,1,45.279,33Z"/>
        <path id="Shape-33" data-name="Shape" d="M50.71,40.791a1,1,0,0,1-.924-1.384l4.691-11.32a1,1,0,1,1,1.847.766l-4.69,11.32A1,1,0,0,1,50.71,40.791Z"/>
        <path id="Shape-34" data-name="Shape" d="M55.4,29.465a1.013,1.013,0,0,1-.382-.076,1,1,0,0,1-.541-1.307,21.767,21.767,0,0,1,3.43-6l-1.115-4.813L55.305,20.85a1,1,0,1,1-1.848-.766l2.679-6.467a1,1,0,0,1,1.9.157l1.878,8.11a1.491,1.491,0,0,1-.369,1.365,18.768,18.768,0,0,0-3.222,5.6A1,1,0,0,1,55.4,29.465Z"/>
        <path id="Shape-35" data-name="Shape" d="M48.006,26.4a1.014,1.014,0,0,1-.383-.076,1,1,0,0,1-.541-1.307,18.771,18.771,0,0,0,1.681-6.233,1.492,1.492,0,0,1,.706-1.23l7.061-4.407a1,1,0,0,1,1.453,1.232L55.305,20.85a1,1,0,1,1-1.848-.766L54.941,16.5l-4.192,2.616a21.742,21.742,0,0,1-1.819,6.671A1,1,0,0,1,48.006,26.4Z"/>
        <path id="Shape-36" data-name="Shape" d="M33.129,32.22a1,1,0,0,1-1-.936,49.347,49.347,0,0,1,.146-7.748c.145-1.579.353-3.191.635-4.926a.984.984,0,0,1,1.049-.838q3.369.21,6.83.418a1,1,0,0,1,.937.944A54.687,54.687,0,0,1,41.1,30.241a1,1,0,1,1-1.978-.3,54.307,54.307,0,0,0,.654-9.814l-5.024-.307c-.2,1.354-.362,2.635-.478,3.894a47.451,47.451,0,0,0-.141,7.437,1,1,0,0,1-.934,1.062Z"/>
        <path id="Shape-37" data-name="Shape" d="M40.674,20.188a1,1,0,0,1-.77-1.637,9.12,9.12,0,0,0,2.326-6.908,13.374,13.374,0,0,0-3.609-7.168c-.32,2.115-1.7,4.368-4.351,7.3a4.26,4.26,0,0,0,.309,6.259,1,1,0,1,1-1.347,1.479,7.812,7.812,0,0,1-1.815-2.7,5.852,5.852,0,0,1,1.371-6.377c3.8-4.2,4.25-6.238,3.735-8.172a1,1,0,0,1,1.585-1.05c.225.177,5.492,4.386,6.111,10.216a11.042,11.042,0,0,1-2.773,8.4A1,1,0,0,1,40.674,20.188Z"/>
        <path id="Shape-38" data-name="Shape" d="M38.685,16.7a1,1,0,0,1-.8-1.6,5.555,5.555,0,0,0,1-4.17,1,1,0,1,1,1.932-.515,7.5,7.5,0,0,1-1.33,5.888A1,1,0,0,1,38.685,16.7Z"/>
        <path id="Shape-39" data-name="Shape" d="M38.377,25.084a28.486,28.486,0,0,1-3.893-.331c-.339-.045-.673-.09-1-.13a1,1,0,1,1,.24-1.986c.338.041.681.087,1.03.134a20.652,20.652,0,0,0,5.144.235,1,1,0,0,1,.212,1.988A16.179,16.179,0,0,1,38.377,25.084Z"/>
        <path id="Shape-40" data-name="Shape" d="M25.78,54a1,1,0,0,1-.92-.608A6.072,6.072,0,0,1,24.37,51,6,6,0,0,1,35.8,48.444a1,1,0,1,1-1.81.852A3.96,3.96,0,0,0,30.37,47a4,4,0,0,0-4,4,4.074,4.074,0,0,0,.33,1.608,1,1,0,0,1-.528,1.312A.989.989,0,0,1,25.78,54Z"/>
        <path id="Shape-41" data-name="Shape" d="M41,51.33a1,1,0,0,1-.91-.585A3,3,0,0,0,37.37,49a2.949,2.949,0,0,0-1.856.652,1,1,0,0,1-1.247-1.564A4.926,4.926,0,0,1,37.37,47a5,5,0,0,1,4.54,2.915A1,1,0,0,1,41,51.33Z"/>
        <path id="Shape-42" data-name="Shape" d="M15,46a1,1,0,0,1-1-1c0-3.678,3.533-4.9,3.684-4.949a1,1,0,0,1,.638,1.9A3.438,3.438,0,0,0,16,45,1,1,0,0,1,15,46Z"/>
        <path id="Shape-43" data-name="Shape" d="M32,39a.979.979,0,0,1-.244-.03,1,1,0,0,1-.727-1.213A6.229,6.229,0,0,1,37,33a1,1,0,0,1,.005,2,4.265,4.265,0,0,0-4.035,3.243A1,1,0,0,1,32,39Z"/>
      </g>
    </g>
  </g>
</svg>
