<svg xmlns="http://www.w3.org/2000/svg" xmlns:xlink="http://www.w3.org/1999/xlink" width="113" height="113" viewBox="0 0 113 113">
  <defs>
    <filter id="Trazado_982547" x="0" y="0" width="113" height="113" filterUnits="userSpaceOnUse">
      <feOffset dy="3" input="SourceAlpha"/>
      <feGaussianBlur stdDeviation="3" result="blur"/>
      <feFlood flood-opacity="0.161"/>
      <feComposite operator="in" in2="blur"/>
      <feComposite in="SourceGraphic"/>
    </filter>
  </defs>
  <g id="Grupo_1241756" data-name="Grupo 1241756" transform="translate(-1111 -6864.148)">
    <g id="Grupo_1241233" data-name="Grupo 1241233" transform="translate(1120 6870.148)">
      <g id="Grupo_1240427" data-name="Grupo 1240427" transform="translate(0 0)">
        <g id="Grupo_1239780" data-name="Grupo 1239780">
          <g id="Grupo_1236603" data-name="Grupo 1236603">
            <g id="Grupo_1236145" data-name="Grupo 1236145">
              <g id="Grupo_1235107" data-name="Grupo 1235107">
                <g id="Grupo_1223796" data-name="Grupo 1223796">
                  <g id="Grupo_1208038" data-name="Grupo 1208038">
                    <g id="Grupo_1202104" data-name="Grupo 1202104">
                      <g id="Grupo_1201923" data-name="Grupo 1201923">
                        <g id="Grupo_1176928" data-name="Grupo 1176928" transform="translate(0)">
                          <g id="Grupo_1172322" data-name="Grupo 1172322">
                            <g id="Grupo_1164700" data-name="Grupo 1164700">
                              <g id="Grupo_1160931" data-name="Grupo 1160931">
                                <g id="Grupo_1160749" data-name="Grupo 1160749">
                                  <g id="Grupo_1158891" data-name="Grupo 1158891">
                                    <g id="Grupo_1157406" data-name="Grupo 1157406">
                                      <g id="Grupo_1155793" data-name="Grupo 1155793">
                                        <g id="Grupo_1154704" data-name="Grupo 1154704">
                                          <g id="Grupo_1150790" data-name="Grupo 1150790">
                                            <g id="Grupo_1154214" data-name="Grupo 1154214" transform="translate(0)">
                                              <g id="Grupo_1152583" data-name="Grupo 1152583">
                                                <g id="Grupo_1146973" data-name="Grupo 1146973">
                                                  <g id="Grupo_1146954" data-name="Grupo 1146954">
                                                    <g transform="matrix(1, 0, 0, 1, -9, -6)" filter="url(#Trazado_982547)">
                                                      <g id="Trazado_982547-2" data-name="Trazado 982547" transform="translate(9 6)" fill="#d9d5e3">
                                                        <path d="M 47.50000762939453 93.49986267089844 C 41.28937911987305 93.49986267089844 35.26534271240234 92.28383636474609 29.59519386291504 89.88558197021484 C 24.11772727966309 87.56880950927734 19.19814109802246 84.25183868408203 14.97310066223145 80.02679443359375 C 10.74804782867432 75.8017578125 7.431074142456055 70.88218688964844 5.114300727844238 65.40471649169922 C 2.716034412384033 59.73458480834961 1.500007629394531 53.71054458618164 1.500007629394531 47.49993133544922 C 1.500007629394531 41.2893180847168 2.716034412384033 35.26527786254883 5.114300727844238 29.59514427185059 C 7.431074142456055 24.11767768859863 10.74804782867432 19.19810485839844 14.97310066223145 14.97306442260742 C 19.19814109802246 10.74802494049072 24.11772727966309 7.431051254272461 29.59519386291504 5.114277839660645 C 35.26534271240234 2.71602463722229 41.28937911987305 1.499997973442078 47.50000762939453 1.499997973442078 C 53.71063613891602 1.499997973442078 59.73467254638672 2.71602463722229 65.40482330322266 5.114277839660645 C 70.88228607177734 7.431051254272461 75.80187225341797 10.74802494049072 80.02691650390625 14.97306442260742 C 84.25196838378906 19.19810485839844 87.56893920898438 24.11767768859863 89.88571166992188 29.59514427185059 C 92.28398132324219 35.26527786254883 93.50000762939453 41.2893180847168 93.50000762939453 47.49993133544922 C 93.50000762939453 53.71054458618164 92.28398132324219 59.73458480834961 89.88571166992188 65.40471649169922 C 87.56893920898438 70.88218688964844 84.25196838378906 75.8017578125 80.02691650390625 80.02679443359375 C 75.80187225341797 84.25183868408203 70.88228607177734 87.56880950927734 65.40482330322266 89.88558197021484 C 59.73467254638672 92.28383636474609 53.71063613891602 93.49986267089844 47.50000762939453 93.49986267089844 Z" stroke="none"/>
                                                        <path d="M 47.50000762939453 2.999992370605469 C 41.4912223815918 2.999992370605469 35.66377639770508 4.1761474609375 30.17951202392578 6.495796203613281 C 24.88085174560547 8.736930847167969 20.12152862548828 11.94596099853516 16.03376007080078 16.03372955322266 C 11.94597625732422 20.12148284912109 8.736961364746094 24.88080596923828 6.495803833007812 30.17946624755859 C 4.176162719726562 35.66371536254883 3.000007629394531 41.49116134643555 3.000007629394531 47.49993133544922 C 3.000007629394531 53.50870132446289 4.176162719726562 59.33614730834961 6.495803833007812 64.82038879394531 C 8.736961364746094 70.11905670166016 11.94597625732422 74.87836456298828 16.03376007080078 78.96613311767578 C 20.12152862548828 83.05390167236328 24.88085174560547 86.26291656494141 30.17951202392578 88.50406646728516 C 35.66377639770508 90.82369995117188 41.4912223815918 91.99985504150391 47.50000762939453 91.99985504150391 C 53.50879287719727 91.99985504150391 59.33623886108398 90.82369995117188 64.82049560546875 88.50406646728516 C 70.11916351318359 86.26291656494141 74.87848663330078 83.05390167236328 78.96625518798828 78.96613311767578 C 83.05403900146484 74.87836456298828 86.26305389404297 70.11905670166016 88.50421142578125 64.82038879394531 C 90.8238525390625 59.33614730834961 92.00000762939453 53.50870132446289 92.00000762939453 47.49993133544922 C 92.00000762939453 41.49116134643555 90.8238525390625 35.66371536254883 88.50421142578125 30.17946624755859 C 86.26305389404297 24.88080596923828 83.05403900146484 20.12148284912109 78.96625518798828 16.03372955322266 C 74.87848663330078 11.94596099853516 70.11916351318359 8.736930847167969 64.82049560546875 6.495796203613281 C 59.33623886108398 4.1761474609375 53.50879287719727 2.999992370605469 47.50000762939453 2.999992370605469 M 47.50000762939453 -7.62939453125e-06 C 73.73352813720703 -7.62939453125e-06 95.00000762939453 21.26644134521484 95.00000762939453 47.49993133544922 C 95.00000762939453 73.73342132568359 73.73352813720703 94.99985504150391 47.50000762939453 94.99985504150391 C 21.26648712158203 94.99985504150391 7.62939453125e-06 73.73342132568359 7.62939453125e-06 47.49993133544922 C 7.62939453125e-06 21.26644134521484 21.26648712158203 -7.62939453125e-06 47.50000762939453 -7.62939453125e-06 Z" stroke="none" fill="#453179"/>
                                                      </g>
                                                    </g>
                                                  </g>
                                                </g>
                                              </g>
                                            </g>
                                          </g>
                                        </g>
                                      </g>
                                    </g>
                                  </g>
                                </g>
                              </g>
                            </g>
                          </g>
                        </g>
                      </g>
                    </g>
                  </g>
                </g>
              </g>
            </g>
          </g>
        </g>
      </g>
    </g>
    <g id="educacion_14_" data-name="educacion (14)" transform="translate(1137.359 6883.112)">
      <g id="Grupo_1241755" data-name="Grupo 1241755" transform="translate(1.032 5.723)">
        <path id="Trazado_1220166" data-name="Trazado 1220166" d="M100.308,233.724a11.862,11.862,0,0,0-.071,8.785l.968,1.9H59.44s-7.776-4.369,0-12.145l41.4-.853Z" transform="translate(-50.425 -205.488)" fill="#f1f2f2"/>
        <path id="Trazado_1220167" data-name="Trazado 1220167" d="M101.207,244.4H59.443s-7.775-4.369,0-12.145l41.4-.854-.537,2.318a11.372,11.372,0,0,0-.59,1.884h-37.9a2.661,2.661,0,1,0,0,5.323H99.734a10.223,10.223,0,0,0,.505,1.578Z" transform="translate(-50.427 -205.487)" fill="#dee1e1"/>
        <path id="Trazado_1220168" data-name="Trazado 1220168" d="M84.569,235.551l-38.176-.06c-4.574,0-8.5-2.918-8.5-7.491a10.42,10.42,0,0,1,.155-3.23,8.284,8.284,0,0,1,7.769-5.408H84.981a1.868,1.868,0,1,1,0,3.736H55.341l-2.895.679-2.517-.679H45.817a4.545,4.545,0,1,0,0,9.091H84.981a1.869,1.869,0,0,1,1.855,2.088C86.728,235.2,85.526,235.551,84.569,235.551Z" transform="translate(-34.422 -194.862)" fill="#b7e546"/>
        <path id="Trazado_1220169" data-name="Trazado 1220169" d="M84.509,271.219a1.867,1.867,0,0,1-1.854,1.648l-19.349,1.16-19.816-1.16a8.285,8.285,0,0,1-7.575-11.633v1.7a8.281,8.281,0,0,0,8.282,8.282Z" transform="translate(-32.095 -231.805)" fill="#abd641"/>
        <path id="Trazado_1220170" data-name="Trazado 1220170" d="M147.025,256.538v-5.446h-3.882l-1.378.138.083,5.072a.235.235,0,0,0,.321.219l.974-.238,1.09-.427a.235.235,0,0,1,.172,0l2.3.9A.236.236,0,0,0,147.025,256.538Z" transform="translate(-126.106 -222.856)" fill="#ef5227"/>
        <path id="Trazado_1220171" data-name="Trazado 1220171" d="M142,251.1v5.191l-1.209.473a.236.236,0,0,1-.321-.219V251.1Z" transform="translate(-124.964 -222.859)" fill="#d83724"/>
        <path id="Trazado_1220172" data-name="Trazado 1220172" d="M136.716,173.207v2.655l-.118,1.177a.824.824,0,0,1-.824.824l-31.378-.118a.824.824,0,0,1-.824-.824l-.235-3.715,16.108-.77Z" transform="translate(-92.202 -153.462)" fill="#fdcd08"/>
        <path id="Trazado_1220173" data-name="Trazado 1220173" d="M438.023,197.8c-.737,1.817-1.479,3.609-2.216,5.426a1.649,1.649,0,0,0,1.514,2.276l1.363.118H442a1.649,1.649,0,0,0,1.514-2.276l-1.537-3.789-.967-1.755h-2.986Z" transform="translate(-385.419 -175.837)" fill="#fdcd08"/>
        <path id="Trazado_1220174" data-name="Trazado 1220174" d="M438.33,197.9a4.476,4.476,0,0,0,2.766-.67l-.827-2.066-1.366.408h0l-1.781-.238c-.225.555-.552,1.342-.777,1.9h0l-1.537,3.788a1.649,1.649,0,0,0,1.513,2.276h1.884a1.649,1.649,0,0,1-1.513-2.276l1.148-2.828A.476.476,0,0,1,438.33,197.9Z" transform="translate(-384.54 -173.511)" fill="#faab18"/>
        <path id="Trazado_1220175" data-name="Trazado 1220175" d="M452.716,160.561a2.743,2.743,0,0,0-1.835-2.6c-.277-.1-.679.075-.988.075a2.312,2.312,0,0,0-2.425,2.521,2.4,2.4,0,0,0,2.624,2.424c.309,0,.512.267.789.171A2.743,2.743,0,0,0,452.716,160.561Z" transform="translate(-395.816 -140.669)" fill="#fdcd08"/>
        <path id="Trazado_1220176" data-name="Trazado 1220176" d="M449.477,162.264a2.679,2.679,0,0,1-.883.148,2.744,2.744,0,0,1,0-5.488,2.678,2.678,0,0,1,.883.148,2.753,2.753,0,0,0,0,5.191Z" transform="translate(-394.412 -139.777)" fill="#faab18"/>
        <path id="Trazado_1220177" data-name="Trazado 1220177" d="M67.541,22.109,59.775,24.8l-2.119-.217L42.582,30.749a4.94,4.94,0,0,1-3.233,0L24.276,24.82,22.157,24.8,14.39,22.109a.988.988,0,0,1,0-1.868L39.644,11.5a4.04,4.04,0,0,1,2.643,0l25.254,8.742A.988.988,0,0,1,67.541,22.109Z" transform="translate(-13.142 -11.277)" fill="#868491"/>
        <path id="Trazado_1220178" data-name="Trazado 1220178" d="M122.955,83.146v.8l-17.193,5.952a4.94,4.94,0,0,1-3.233,0L85.336,83.943v-.8a3.464,3.464,0,0,1,2.854-3.412,90.427,90.427,0,0,1,31.911,0,3.467,3.467,0,0,1,2.854,3.412Z" transform="translate(-76.321 -70.422)" fill="#77777f"/>
        <path id="Trazado_1220179" data-name="Trazado 1220179" d="M138.481,99.027v7.021H105.454l-.118-6.785a1.347,1.347,0,0,1,1.109-1.326c.336-.06.438-.354.775-.41a88.28,88.28,0,0,1,30.152.175,1.348,1.348,0,0,1,1.109,1.326Z" transform="translate(-93.966 -86.303)" fill="#868491"/>
        <path id="Trazado_1220180" data-name="Trazado 1220180" d="M136.716,175.862v1.3a.824.824,0,0,1-.824.824H104.16a.824.824,0,0,1-.824-.824v-3.95l1.06-.77,1.06.77v2.066a.589.589,0,0,0,.589.589Z" transform="translate(-92.202 -153.462)" fill="#faab18"/>
        <path id="Trazado_1220181" data-name="Trazado 1220181" d="M105.455,106.6v8.521h-2.119V108.1a1.347,1.347,0,0,1,1.109-1.326C104.782,106.719,105.119,106.66,105.455,106.6Z" transform="translate(-92.202 -95.381)" fill="#77777f"/>
        <path id="Trazado_1220182" data-name="Trazado 1220182" d="M83.488,390.681a11.078,11.078,0,0,1,0-8.479l.358-1.592H35.7s-5.42,5.892.352,11.664l48.106.361Z" transform="translate(-30.495 -337.126)" fill="#f1f2f2"/>
        <path id="Trazado_1220183" data-name="Trazado 1220183" d="M84.16,392.638l-48.106-.36c-5.773-5.772-.352-11.663-.352-11.663l48.376.089-.589,1.5a11.033,11.033,0,0,0-.526,1.606H38.776a2.661,2.661,0,1,0,0,5.323h44.2a11.167,11.167,0,0,0,.512,1.551Z" transform="translate(-30.494 -337.13)" fill="#dee1e1"/>
        <path id="Trazado_1220184" data-name="Trazado 1220184" d="M66.365,376.183l-43.528-.08c-4.574,0-8.6-2.581-8.6-7.154,0-1.451-.355-3.45.3-4.636a8.279,8.279,0,0,1,7.252-4.279H67.183a1.868,1.868,0,0,1,0,3.736H55.937L53,364.419l-2.473-.651H21.792a4.545,4.545,0,0,0,0,9.091H67.183a1.87,1.87,0,0,1,1.838,2.205c-.159.871-1.739,1.118-2.656,1.118Z" transform="translate(-13.511 -318.971)" fill="#ef5227"/>
        <path id="Trazado_1220185" data-name="Trazado 1220185" d="M64.278,403.784a1.87,1.87,0,0,1-1.838,1.531H17.05a8.283,8.283,0,0,1-6.987-12.73V395.5a8.281,8.281,0,0,0,8.282,8.282Z" transform="translate(-8.768 -347.69)" fill="#d83724"/>
        <path id="Trazado_1220186" data-name="Trazado 1220186" d="M329.667,397.239v-5.49h-3.646l-1.617.1.087,5.156a.235.235,0,0,0,.321.219l1.209-.33.854-.335a.235.235,0,0,1,.172,0l2.3.9A.235.235,0,0,0,329.667,397.239Z" transform="translate(-287.242 -346.953)" fill="#fdcd08"/>
        <path id="Trazado_1220187" data-name="Trazado 1220187" d="M324.906,391.745v5.144l-1.445.565a.236.236,0,0,1-.321-.219v-5.49Z" transform="translate(-286.126 -346.949)" fill="#faab18"/>
      </g>
      <path id="Trazado_1220188" data-name="Trazado 1220188" d="M60.1,32.512l-1.96-4.831a3.587,3.587,0,0,0-1.821-5.789c0-.232,0-6.051,0-6.3a1.832,1.832,0,0,0-1.248-1.752L30.241,5.248a4.875,4.875,0,0,0-3.177,0l-6.181,2.14a.883.883,0,1,0,.578,1.669l6.181-2.14a3.1,3.1,0,0,1,2.021,0L54.49,15.511a.088.088,0,0,1,0,.167l-8.546,2.959v-.264A2.2,2.2,0,0,0,44.126,16.2a87.364,87.364,0,0,0-30.945,0,2.205,2.205,0,0,0-1.818,2.172v.264L2.817,15.678a.088.088,0,0,1,0-.167L17.5,10.429a.883.883,0,1,0-.578-1.669L2.239,13.842a1.854,1.854,0,0,0,0,3.5l9.124,3.159v8.739A9.161,9.161,0,0,0,7.186,45.979,9.163,9.163,0,0,0,9.164,64.09H54.555a2.751,2.751,0,0,0,.056-5.5,10.116,10.116,0,0,1-.021-7.327,2.751,2.751,0,0,0-.034-5.5H54.01a2.75,2.75,0,0,0-2.568-3.736h-.024a10.11,10.11,0,0,1-.167-6.86,2.48,2.48,0,0,0,1.823.8h4.715a2.484,2.484,0,0,0,2.062-1.1,2.513,2.513,0,0,0,.244-2.353Zm-2.875-7.152a1.789,1.789,0,1,1-1.789-1.814A1.8,1.8,0,0,1,57.221,25.361Zm-2.672-7.834v4.366a3.587,3.587,0,0,0-1.821,5.789L52.113,29.2H45.943V20.505Zm-41.057.412a85.62,85.62,0,0,1,30.322,0,.441.441,0,0,1,.363.434v6.018H38.736a.883.883,0,1,0,0,1.766h5.441V29.2H13.129V26.157H34.615a.883.883,0,0,0,0-1.766H13.129V18.372a.441.441,0,0,1,.363-.434ZM55.54,48.512a.986.986,0,0,1-.985.985H9.164a5.428,5.428,0,1,0,0,10.857h34.87a.883.883,0,1,0,0-1.766H9.164a3.662,3.662,0,1,1,0-7.324H37.013v4.95a.883.883,0,0,0,1.205.822L40.6,56.1l2.384.934a.883.883,0,0,0,1.205-.822v-4.95h8.524a11.852,11.852,0,0,0,.017,7.325H48.155a.883.883,0,1,0,0,1.766h6.4a.985.985,0,0,1,0,1.97H9.164a7.4,7.4,0,0,1,0-14.8H54.555a.986.986,0,0,1,.985.985ZM38.78,51.263h3.646v3.656l-1.5-.588a.883.883,0,0,0-.644,0l-1.5.588ZM23.665,43.791H51.442a.985.985,0,1,1,0,1.97H12.277a7.4,7.4,0,0,1,0-14.8H51.4c-.218.586-.621,1.416-.757,1.97H12.277a5.428,5.428,0,1,0,0,10.857h7.267a.883.883,0,1,0,0-1.766H12.277a3.662,3.662,0,1,1,0-7.324h3.229v4.908a.883.883,0,0,0,1.205.822L19.1,39.5l2.384.934a.883.883,0,0,0,1.205-.822V34.7H49.543a11.853,11.853,0,0,0,0,7.325H23.665a.883.883,0,0,0,0,1.766ZM17.272,34.7h3.646v3.613l-1.5-.588a.883.883,0,0,0-.644,0l-1.5.588Zm41.115-.823a.716.716,0,0,1-.6.321H53.075a.716.716,0,0,1-.6-.321.74.74,0,0,1-.073-.7l1.807-4.453a3.535,3.535,0,0,0,2.441,0l1.806,4.453a.74.74,0,0,1-.072.7Z"/>
    </g>
  </g>
</svg>
