<svg xmlns="http://www.w3.org/2000/svg" xmlns:xlink="http://www.w3.org/1999/xlink" width="113" height="113" viewBox="0 0 113 113">
  <defs>
    <filter id="Trazado_982547" x="0" y="0" width="113" height="113" filterUnits="userSpaceOnUse">
      <feOffset dy="3" input="SourceAlpha"/>
      <feGaussianBlur stdDeviation="3" result="blur"/>
      <feFlood flood-opacity="0.161"/>
      <feComposite operator="in" in2="blur"/>
      <feComposite in="SourceGraphic"/>
    </filter>
  </defs>
  <g id="Grupo_1241760" data-name="Grupo 1241760" transform="translate(2145 -6864.168)">
    <g id="Grupo_1241235" data-name="Grupo 1241235" transform="translate(-2136 6870.168)">
      <g id="Grupo_1240425" data-name="Grupo 1240425" transform="translate(0 0)">
        <g id="Grupo_1239772" data-name="Grupo 1239772">
          <g id="Grupo_1236602" data-name="Grupo 1236602">
            <g id="Grupo_1236144" data-name="Grupo 1236144">
              <g id="Grupo_1235105" data-name="Grupo 1235105">
                <g id="Grupo_1223793" data-name="Grupo 1223793">
                  <g id="Grupo_1208028" data-name="Grupo 1208028">
                    <g id="Grupo_1177675" data-name="Grupo 1177675">
                      <g id="Grupo_1176928" data-name="Grupo 1176928" transform="translate(0)">
                        <g id="Grupo_1172322" data-name="Grupo 1172322">
                          <g id="Grupo_1164700" data-name="Grupo 1164700">
                            <g id="Grupo_1160931" data-name="Grupo 1160931">
                              <g id="Grupo_1160749" data-name="Grupo 1160749">
                                <g id="Grupo_1158891" data-name="Grupo 1158891">
                                  <g id="Grupo_1157406" data-name="Grupo 1157406">
                                    <g id="Grupo_1155793" data-name="Grupo 1155793">
                                      <g id="Grupo_1154704" data-name="Grupo 1154704">
                                        <g id="Grupo_1150790" data-name="Grupo 1150790">
                                          <g id="Grupo_1154214" data-name="Grupo 1154214" transform="translate(0)">
                                            <g id="Grupo_1152583" data-name="Grupo 1152583">
                                              <g id="Grupo_1146973" data-name="Grupo 1146973">
                                                <g id="Grupo_1146954" data-name="Grupo 1146954">
                                                  <g transform="matrix(1, 0, 0, 1, -9, -6)" filter="url(#Trazado_982547)">
                                                    <g id="Trazado_982547-2" data-name="Trazado 982547" transform="translate(9 6)" fill="#d9d5e3">
                                                      <path d="M 47.50000762939453 93.49986267089844 C 41.28937911987305 93.49986267089844 35.26534271240234 92.28383636474609 29.59519386291504 89.88558197021484 C 24.11772727966309 87.56880950927734 19.19814109802246 84.25183868408203 14.97310066223145 80.02679443359375 C 10.74804782867432 75.8017578125 7.431074142456055 70.88218688964844 5.114300727844238 65.40471649169922 C 2.716034412384033 59.73458480834961 1.500007629394531 53.71054458618164 1.500007629394531 47.49993133544922 C 1.500007629394531 41.2893180847168 2.716034412384033 35.26527786254883 5.114300727844238 29.59514427185059 C 7.431074142456055 24.11767768859863 10.74804782867432 19.19810485839844 14.97310066223145 14.97306442260742 C 19.19814109802246 10.74802494049072 24.11772727966309 7.431051254272461 29.59519386291504 5.114277839660645 C 35.26534271240234 2.71602463722229 41.28937911987305 1.499997973442078 47.50000762939453 1.499997973442078 C 53.71063613891602 1.499997973442078 59.73467254638672 2.71602463722229 65.40482330322266 5.114277839660645 C 70.88228607177734 7.431051254272461 75.80187225341797 10.74802494049072 80.02691650390625 14.97306442260742 C 84.25196838378906 19.19810485839844 87.56893920898438 24.11767768859863 89.88571166992188 29.59514427185059 C 92.28398132324219 35.26527786254883 93.50000762939453 41.2893180847168 93.50000762939453 47.49993133544922 C 93.50000762939453 53.71054458618164 92.28398132324219 59.73458480834961 89.88571166992188 65.40471649169922 C 87.56893920898438 70.88218688964844 84.25196838378906 75.8017578125 80.02691650390625 80.02679443359375 C 75.80187225341797 84.25183868408203 70.88228607177734 87.56880950927734 65.40482330322266 89.88558197021484 C 59.73467254638672 92.28383636474609 53.71063613891602 93.49986267089844 47.50000762939453 93.49986267089844 Z" stroke="none"/>
                                                      <path d="M 47.50000762939453 2.999992370605469 C 41.4912223815918 2.999992370605469 35.66377639770508 4.1761474609375 30.17951202392578 6.495796203613281 C 24.88085174560547 8.736930847167969 20.12152862548828 11.94596099853516 16.03376007080078 16.03372955322266 C 11.94597625732422 20.12148284912109 8.736961364746094 24.88080596923828 6.495803833007812 30.17946624755859 C 4.176162719726562 35.66371536254883 3.000007629394531 41.49116134643555 3.000007629394531 47.49993133544922 C 3.000007629394531 53.50870132446289 4.176162719726562 59.33614730834961 6.495803833007812 64.82038879394531 C 8.736961364746094 70.11905670166016 11.94597625732422 74.87836456298828 16.03376007080078 78.96613311767578 C 20.12152862548828 83.05390167236328 24.88085174560547 86.26291656494141 30.17951202392578 88.50406646728516 C 35.66377639770508 90.82369995117188 41.4912223815918 91.99985504150391 47.50000762939453 91.99985504150391 C 53.50879287719727 91.99985504150391 59.33623886108398 90.82369995117188 64.82049560546875 88.50406646728516 C 70.11916351318359 86.26291656494141 74.87848663330078 83.05390167236328 78.96625518798828 78.96613311767578 C 83.05403900146484 74.87836456298828 86.26305389404297 70.11905670166016 88.50421142578125 64.82038879394531 C 90.8238525390625 59.33614730834961 92.00000762939453 53.50870132446289 92.00000762939453 47.49993133544922 C 92.00000762939453 41.49116134643555 90.8238525390625 35.66371536254883 88.50421142578125 30.17946624755859 C 86.26305389404297 24.88080596923828 83.05403900146484 20.12148284912109 78.96625518798828 16.03372955322266 C 74.87848663330078 11.94596099853516 70.11916351318359 8.736930847167969 64.82049560546875 6.495796203613281 C 59.33623886108398 4.1761474609375 53.50879287719727 2.999992370605469 47.50000762939453 2.999992370605469 M 47.50000762939453 -7.62939453125e-06 C 73.73352813720703 -7.62939453125e-06 95.00000762939453 21.26644134521484 95.00000762939453 47.49993133544922 C 95.00000762939453 73.73342132568359 73.73352813720703 94.99985504150391 47.50000762939453 94.99985504150391 C 21.26648712158203 94.99985504150391 7.62939453125e-06 73.73342132568359 7.62939453125e-06 47.49993133544922 C 7.62939453125e-06 21.26644134521484 21.26648712158203 -7.62939453125e-06 47.50000762939453 -7.62939453125e-06 Z" stroke="none" fill="#453179"/>
                                                    </g>
                                                  </g>
                                                </g>
                                              </g>
                                            </g>
                                          </g>
                                        </g>
                                      </g>
                                    </g>
                                  </g>
                                </g>
                              </g>
                            </g>
                          </g>
                        </g>
                      </g>
                    </g>
                  </g>
                </g>
              </g>
            </g>
          </g>
        </g>
      </g>
    </g>
    <g id="masculino" transform="translate(-2121.293 6861.535)">
      <path id="Trazado_1220189" data-name="Trazado 1220189" d="M64.3,34.266H57.575a4.44,4.44,0,0,0-4.1,2.725h-1.5a4.05,4.05,0,0,0-4.05,4.05V53.125H70.857v-12.3A6.559,6.559,0,0,0,64.3,34.266Z" transform="translate(-41.795 -6.537)" fill="#785252"/>
      <path id="Trazado_1220190" data-name="Trazado 1220190" d="M109.781,205.953h7.077V218.2h-7.077Z" transform="translate(-95.718 -156.232)" fill="#ffcdbe"/>
      <path id="Trazado_1220191" data-name="Trazado 1220191" d="M116.858,205.953h-7.077v8.374a7.263,7.263,0,0,0,3.114.7h.848a7.263,7.263,0,0,0,3.115-.7Z" transform="translate(-95.718 -156.232)" fill="#ebae9d"/>
      <g id="Grupo_1241757" data-name="Grupo 1241757" transform="translate(4.868 43.911)">
        <path id="Trazado_1220192" data-name="Trazado 1220192" d="M38,163.076a2.48,2.48,0,0,0,2.48,2.48H60.986a2.48,2.48,0,0,0,0-4.961H40.478A2.48,2.48,0,0,0,38,163.076Z" transform="translate(-37.998 -160.596)" fill="#ffcdbe"/>
      </g>
      <path id="Trazado_1220193" data-name="Trazado 1220193" d="M92.6,94.314v10.522a7.294,7.294,0,0,1-7.294,7.294h-.848a7.292,7.292,0,0,1-7.292-7.292V92.89a2.011,2.011,0,0,1,2.011-2.011H80.43a2.637,2.637,0,0,1,1.244.316,18.759,18.759,0,0,0,9.9,2.16.963.963,0,0,1,1.025.959Z" transform="translate(-67.278 -55.898)" fill="#ffcdbe"/>
      <path id="Trazado_1220194" data-name="Trazado 1220194" d="M40.782,299.818v17.357H13.4v-9.047H7.5v-8.31a4.731,4.731,0,0,1,4.73-4.73H36.052A4.731,4.731,0,0,1,40.782,299.818Z" transform="translate(-6.539 -233.948)" fill="#e5936a"/>
      <path id="Trazado_1220195" data-name="Trazado 1220195" d="M222.407,295.088a1.173,1.173,0,0,0-1.173,1.173v20.914h5.9V299.818A4.73,4.73,0,0,0,222.407,295.088Z" transform="translate(-192.894 -233.948)" fill="#e27c48"/>
      <path id="Trazado_1220196" data-name="Trazado 1220196" d="M267.813,81.847v20.926a.641.641,0,0,0,.641.64h27.117a.641.641,0,0,0,.641-.64V81.847Z" transform="translate(-233.506 -48.023)" fill="#ddebfd"/>
      <path id="Trazado_1220197" data-name="Trazado 1220197" d="M295.571,220.836H268.453a.641.641,0,0,1-.641-.641v3.2a.641.641,0,0,0,.641.641h27.117a.641.641,0,0,0,.641-.641v-3.2a.641.641,0,0,1-.641.641Z" transform="translate(-233.506 -168.65)" fill="#bed9fd"/>
      <path id="Trazado_1220198" data-name="Trazado 1220198" d="M252.817,60.322V58.534a.641.641,0,0,1,.641-.64h30.959a.641.641,0,0,1,.641.64v1.787a.641.641,0,0,1-.641.64H253.457a.641.641,0,0,1-.64-.64Z" transform="translate(-220.431 -27.139)" fill="#80b6fc"/>
      <path id="Trazado_1220199" data-name="Trazado 1220199" d="M26.29,303.9,13.4,311.34V296.261a1.173,1.173,0,0,0-1.173-1.173,4.731,4.731,0,0,0-4.73,4.726v14.856a3.816,3.816,0,0,0,3.816,3.816h.494a3.815,3.815,0,0,0,1.908-.511l15.523-8.962Z" transform="translate(-6.54 -233.948)" fill="#e27c48"/>
      <path id="Trazado_1220200" data-name="Trazado 1220200" d="M32.277,393.567l-15.523,8.962a3.815,3.815,0,0,1-1.908.511h-.494a3.8,3.8,0,0,1-2.077-.615,3.812,3.812,0,0,0,3.2,1.745h.494a3.815,3.815,0,0,0,1.908-.511L33.4,394.7l-.771-1.335Z" transform="translate(-10.703 -319.633)" fill="#df6937"/>
      <path id="Trazado_1220201" data-name="Trazado 1220201" d="M154.175,344.267l4.3-2.486a2.951,2.951,0,0,1,2.951,5.111l-4.3,2.485Z" transform="translate(-134.425 -274.315)" fill="#ffcdbe"/>
      <path id="Trazado_1220202" data-name="Trazado 1220202" d="M177.352,345.444a2.937,2.937,0,0,0-1.109-1.1,2.951,2.951,0,0,1-1.1,4l-3.949,2.28.771,1.335,4.3-2.485A2.951,2.951,0,0,0,177.352,345.444Z" transform="translate(-149.266 -276.897)" fill="#ebae9d"/>
      <g id="Grupo_1241758" data-name="Grupo 1241758" transform="translate(9.587 61.14)">
        <path id="Trazado_1220203" data-name="Trazado 1220203" d="M137.406,295.088l2.359,3.962a.64.64,0,0,0,.973.153l4.682-4.116Z" transform="translate(-129.391 -295.088)" fill="#4980ac"/>
        <path id="Trazado_1220204" data-name="Trazado 1220204" d="M82.855,295.088,80.5,299.05a.64.64,0,0,1-.973.153l-4.682-4.116Z" transform="translate(-74.84 -295.088)" fill="#4980ac"/>
      </g>
      <g id="Grupo_1241759" data-name="Grupo 1241759" transform="translate(0 26.768)">
        <path id="Trazado_1220205" data-name="Trazado 1220205" d="M117.847,208.367a3.511,3.511,0,0,0,2.452-1,.961.961,0,0,0-1.336-1.381,1.6,1.6,0,0,1-1.115.457h-.3a1.6,1.6,0,0,1-1.115-.457.961.961,0,1,0-1.336,1.381,3.511,3.511,0,0,0,2.452,1Z" transform="translate(-100.095 -182.795)"/>
        <path id="Trazado_1220206" data-name="Trazado 1220206" d="M63.986,29.794H33.026a1.6,1.6,0,0,0-1.6,1.6v1.787a1.6,1.6,0,0,0,1.6,1.6h.32V54.75a1.6,1.6,0,0,0,1.6,1.6h.4l-3.324,4.413a5.655,5.655,0,0,0-2.51-.585H22.1V56.11a8.267,8.267,0,0,0,4.129-6.278h1.625a3.439,3.439,0,0,0,2.169-6.109V34.287A7.529,7.529,0,0,0,22.5,26.768H15.781a5.387,5.387,0,0,0-4.692,2.725h-.9A5.016,5.016,0,0,0,5.18,34.5v1.734a.961.961,0,1,0,1.921,0V34.5a3.092,3.092,0,0,1,3.088-3.088h1.495a.961.961,0,0,0,.886-.589,3.472,3.472,0,0,1,3.209-2.135H22.5a5.6,5.6,0,0,1,5.6,5.6v8.673c-.082-.006-.164-.01-.247-.01H26.279V38.415A1.924,1.924,0,0,0,24.237,36.5a17.91,17.91,0,0,1-9.388-2.048,3.613,3.613,0,0,0-1.7-.43H11.895a2.975,2.975,0,0,0-2.971,2.971v5.96s-1.74,0-1.822.01v-2.24a.961.961,0,1,0-1.921,0v3a3.439,3.439,0,0,0,2.167,6.11H8.973A8.266,8.266,0,0,0,13.1,56.111v4.068H5.69A5.7,5.7,0,0,0,0,65.865V80.721A4.782,4.782,0,0,0,4.776,85.5H5.27a4.782,4.782,0,0,0,2.388-.64l1.16-.67H34.242a.961.961,0,0,0,.961-.961V65.869a5.671,5.671,0,0,0-1.625-3.976l4.174-5.542H47.68v1.392a3.014,3.014,0,1,0,1.921,0V56.351H62.065a1.6,1.6,0,0,0,1.6-1.6V34.784h.32a1.6,1.6,0,0,0,1.6-1.6V31.4a1.6,1.6,0,0,0-1.6-1.6ZM15.911,62.1l-1.3,2.179L12.135,62.1Zm7.157,0-2.479,2.179-1.3-2.179Zm4.787-17.228a1.519,1.519,0,1,1,0,3.038H26.279V44.872h1.576ZM5.828,46.392a1.521,1.521,0,0,1,1.519-1.519H8.924v3.039H7.348A1.521,1.521,0,0,1,5.828,46.392Zm5.017,2.547V36.991a1.051,1.051,0,0,1,1.05-1.05h1.257a1.685,1.685,0,0,1,.791.2,19.852,19.852,0,0,0,10.415,2.271V48.937a6.34,6.34,0,0,1-6.333,6.333h-.848A6.339,6.339,0,0,1,10.845,48.938ZM15.023,56.9a8.232,8.232,0,0,0,2.153.287h.848a8.233,8.233,0,0,0,2.154-.287v3.275H15.023Zm18.258,8.965v16.4H29.3v-5.36a.961.961,0,0,0-1.921,0v5.36H12.147l4.1-2.368a.961.961,0,0,0-.961-1.664L6.7,83.193a2.857,2.857,0,0,1-1.427.383H4.776a2.858,2.858,0,0,1-2.855-2.855V65.866A3.774,3.774,0,0,1,5.69,62.1H9.225l4.41,3.877a1.6,1.6,0,0,0,1.055.4,1.63,1.63,0,0,0,.251-.02,1.6,1.6,0,0,0,1.126-.763L17.6,63.017l1.534,2.576a1.6,1.6,0,0,0,1.126.763,1.615,1.615,0,0,0,.251.02,1.6,1.6,0,0,0,1.056-.4l4.41-3.876h3.535a3.751,3.751,0,0,1,1.322.24l-3.27,4.341a3.915,3.915,0,0,0-3.991-.048L7.824,75.727V72.9a.961.961,0,1,0-1.921,0v4.493a.961.961,0,0,0,1.441.832L19.4,71.264l1.99,3.447-2.119,1.223A.961.961,0,1,0,20.23,77.6l7.256-4.189a3.912,3.912,0,0,0,1.436-5.336l3.48-4.621a3.752,3.752,0,0,1,.879,2.416ZM23.052,73.75,21.062,70.3,24.535,68.3a1.99,1.99,0,0,1,1.99,3.448ZM48.641,61.692A1.093,1.093,0,1,1,49.734,60.6,1.094,1.094,0,0,1,48.641,61.692ZM33.346,31.716H63.665v1.147H33.346Zm28.4,22.714H39.2l1.862-2.472A.961.961,0,1,0,39.526,50.8l-2.732,3.628H35.267V34.784H61.744Z" transform="translate(0 -26.768)"/>
      </g>
    </g>
  </g>
</svg>
