<svg xmlns="http://www.w3.org/2000/svg" xmlns:xlink="http://www.w3.org/1999/xlink" width="113" height="113" viewBox="0 0 113 113">
  <defs>
    <filter id="Trazado_982547" x="0" y="0" width="113" height="113" filterUnits="userSpaceOnUse">
      <feOffset dy="3" input="SourceAlpha"/>
      <feGaussianBlur stdDeviation="3" result="blur"/>
      <feFlood flood-opacity="0.161"/>
      <feComposite operator="in" in2="blur"/>
      <feComposite in="SourceGraphic"/>
    </filter>
  </defs>
  <g id="Grupo_1241763" data-name="Grupo 1241763" transform="translate(1830 -6864.167)">
    <g id="Grupo_1241236" data-name="Grupo 1241236" transform="translate(-1821 6870.167)">
      <g id="Grupo_1240427" data-name="Grupo 1240427" transform="translate(0 0)">
        <g id="Grupo_1239780" data-name="Grupo 1239780">
          <g id="Grupo_1236603" data-name="Grupo 1236603">
            <g id="Grupo_1236145" data-name="Grupo 1236145">
              <g id="Grupo_1235107" data-name="Grupo 1235107">
                <g id="Grupo_1223796" data-name="Grupo 1223796">
                  <g id="Grupo_1208038" data-name="Grupo 1208038">
                    <g id="Grupo_1202104" data-name="Grupo 1202104">
                      <g id="Grupo_1201923" data-name="Grupo 1201923">
                        <g id="Grupo_1176928" data-name="Grupo 1176928" transform="translate(0)">
                          <g id="Grupo_1172322" data-name="Grupo 1172322">
                            <g id="Grupo_1164700" data-name="Grupo 1164700">
                              <g id="Grupo_1160931" data-name="Grupo 1160931">
                                <g id="Grupo_1160749" data-name="Grupo 1160749">
                                  <g id="Grupo_1158891" data-name="Grupo 1158891">
                                    <g id="Grupo_1157406" data-name="Grupo 1157406">
                                      <g id="Grupo_1155793" data-name="Grupo 1155793">
                                        <g id="Grupo_1154704" data-name="Grupo 1154704">
                                          <g id="Grupo_1150790" data-name="Grupo 1150790">
                                            <g id="Grupo_1154214" data-name="Grupo 1154214" transform="translate(0)">
                                              <g id="Grupo_1152583" data-name="Grupo 1152583">
                                                <g id="Grupo_1146973" data-name="Grupo 1146973">
                                                  <g id="Grupo_1146954" data-name="Grupo 1146954">
                                                    <g transform="matrix(1, 0, 0, 1, -9, -6)" filter="url(#Trazado_982547)">
                                                      <g id="Trazado_982547-2" data-name="Trazado 982547" transform="translate(9 6)" fill="#d9d5e3">
                                                        <path d="M 47.50000762939453 93.49986267089844 C 41.28937911987305 93.49986267089844 35.26534271240234 92.28383636474609 29.59519386291504 89.88558197021484 C 24.11772727966309 87.56880950927734 19.19814109802246 84.25183868408203 14.97310066223145 80.02679443359375 C 10.74804782867432 75.8017578125 7.431074142456055 70.88218688964844 5.114300727844238 65.40471649169922 C 2.716034412384033 59.73458480834961 1.500007629394531 53.71054458618164 1.500007629394531 47.49993133544922 C 1.500007629394531 41.2893180847168 2.716034412384033 35.26527786254883 5.114300727844238 29.59514427185059 C 7.431074142456055 24.11767768859863 10.74804782867432 19.19810485839844 14.97310066223145 14.97306442260742 C 19.19814109802246 10.74802494049072 24.11772727966309 7.431051254272461 29.59519386291504 5.114277839660645 C 35.26534271240234 2.71602463722229 41.28937911987305 1.499997973442078 47.50000762939453 1.499997973442078 C 53.71063613891602 1.499997973442078 59.73467254638672 2.71602463722229 65.40482330322266 5.114277839660645 C 70.88228607177734 7.431051254272461 75.80187225341797 10.74802494049072 80.02691650390625 14.97306442260742 C 84.25196838378906 19.19810485839844 87.56893920898438 24.11767768859863 89.88571166992188 29.59514427185059 C 92.28398132324219 35.26527786254883 93.50000762939453 41.2893180847168 93.50000762939453 47.49993133544922 C 93.50000762939453 53.71054458618164 92.28398132324219 59.73458480834961 89.88571166992188 65.40471649169922 C 87.56893920898438 70.88218688964844 84.25196838378906 75.8017578125 80.02691650390625 80.02679443359375 C 75.80187225341797 84.25183868408203 70.88228607177734 87.56880950927734 65.40482330322266 89.88558197021484 C 59.73467254638672 92.28383636474609 53.71063613891602 93.49986267089844 47.50000762939453 93.49986267089844 Z" stroke="none"/>
                                                        <path d="M 47.50000762939453 2.999992370605469 C 41.4912223815918 2.999992370605469 35.66377639770508 4.1761474609375 30.17951202392578 6.495796203613281 C 24.88085174560547 8.736930847167969 20.12152862548828 11.94596099853516 16.03376007080078 16.03372955322266 C 11.94597625732422 20.12148284912109 8.736961364746094 24.88080596923828 6.495803833007812 30.17946624755859 C 4.176162719726562 35.66371536254883 3.000007629394531 41.49116134643555 3.000007629394531 47.49993133544922 C 3.000007629394531 53.50870132446289 4.176162719726562 59.33614730834961 6.495803833007812 64.82038879394531 C 8.736961364746094 70.11905670166016 11.94597625732422 74.87836456298828 16.03376007080078 78.96613311767578 C 20.12152862548828 83.05390167236328 24.88085174560547 86.26291656494141 30.17951202392578 88.50406646728516 C 35.66377639770508 90.82369995117188 41.4912223815918 91.99985504150391 47.50000762939453 91.99985504150391 C 53.50879287719727 91.99985504150391 59.33623886108398 90.82369995117188 64.82049560546875 88.50406646728516 C 70.11916351318359 86.26291656494141 74.87848663330078 83.05390167236328 78.96625518798828 78.96613311767578 C 83.05403900146484 74.87836456298828 86.26305389404297 70.11905670166016 88.50421142578125 64.82038879394531 C 90.8238525390625 59.33614730834961 92.00000762939453 53.50870132446289 92.00000762939453 47.49993133544922 C 92.00000762939453 41.49116134643555 90.8238525390625 35.66371536254883 88.50421142578125 30.17946624755859 C 86.26305389404297 24.88080596923828 83.05403900146484 20.12148284912109 78.96625518798828 16.03372955322266 C 74.87848663330078 11.94596099853516 70.11916351318359 8.736930847167969 64.82049560546875 6.495796203613281 C 59.33623886108398 4.1761474609375 53.50879287719727 2.999992370605469 47.50000762939453 2.999992370605469 M 47.50000762939453 -7.62939453125e-06 C 73.73352813720703 -7.62939453125e-06 95.00000762939453 21.26644134521484 95.00000762939453 47.49993133544922 C 95.00000762939453 73.73342132568359 73.73352813720703 94.99985504150391 47.50000762939453 94.99985504150391 C 21.26648712158203 94.99985504150391 7.62939453125e-06 73.73342132568359 7.62939453125e-06 47.49993133544922 C 7.62939453125e-06 21.26644134521484 21.26648712158203 -7.62939453125e-06 47.50000762939453 -7.62939453125e-06 Z" stroke="none" fill="#453179"/>
                                                      </g>
                                                    </g>
                                                  </g>
                                                </g>
                                              </g>
                                            </g>
                                          </g>
                                        </g>
                                      </g>
                                    </g>
                                  </g>
                                </g>
                              </g>
                            </g>
                          </g>
                        </g>
                      </g>
                    </g>
                  </g>
                </g>
              </g>
            </g>
          </g>
        </g>
      </g>
    </g>
    <g id="pareja" transform="translate(-1805.6 6885.568)">
      <g id="Grupo_1241761" data-name="Grupo 1241761" transform="translate(0.941 0.94)">
        <path id="Trazado_1220207" data-name="Trazado 1220207" d="M141.072,19.222l-1.24,3.785-2.348,7.169a3.762,3.762,0,0,1-3.762,3.762h-4.836a.941.941,0,0,1-.919-1.135,3.777,3.777,0,0,0-3.444-4.521,3.647,3.647,0,0,0-.438,0,3.78,3.78,0,0,0-3.521,4.532.938.938,0,0,1-.92,1.127h-4.836a3.762,3.762,0,0,1-3.762-3.762V25.34a.939.939,0,0,0-1.131-.919,3.783,3.783,0,0,1-4.528-3.477,3.779,3.779,0,0,1,3.771-4,3.714,3.714,0,0,1,.761.078.94.94,0,0,0,1.127-.922V11.262A3.762,3.762,0,0,1,114.808,7.5h18.914a3.764,3.764,0,0,1,3.762,3.762Z" transform="translate(-93.105 -7.5)" fill="#a29cde"/>
        <path id="Trazado_1220208" data-name="Trazado 1220208" d="M292.412,31.676l-1.24,3.785a2.333,2.333,0,0,1-2.348-1.731,3.078,3.078,0,0,0-3.1-2.447h-1.9a5.4,5.4,0,0,1-5.4-5.4,4.141,4.141,0,0,1,4.141-4.141h5.7a3.738,3.738,0,0,1,.562,1.976Z" transform="translate(-244.446 -19.954)" fill="#827cd2"/>
        <path id="Trazado_1220209" data-name="Trazado 1220209" d="M123.494,25.759a5.187,5.187,0,0,0,.592,2.519,3.78,3.78,0,0,0-3.521,4.532.938.938,0,0,1-.92,1.127h-4.836a3.762,3.762,0,0,1-3.762-3.762V25.34a.939.939,0,0,0-1.131-.919,3.783,3.783,0,0,1-4.528-3.477,3.779,3.779,0,0,1,3.771-4,3.714,3.714,0,0,1,.761.078.94.94,0,0,0,1.127-.922V11.262A3.762,3.762,0,0,1,114.808,7.5h10.267a2.682,2.682,0,0,0-1.581,2.789Z" transform="translate(-93.105 -7.5)" fill="#827cd2"/>
        <path id="Trazado_1220210" data-name="Trazado 1220210" d="M320.059,45.166v5.681a1.881,1.881,0,0,1-1.881,1.881h-6.606a1.9,1.9,0,0,0-1.514.765,7.512,7.512,0,0,1-6.021,3.011h-1.919V47.619l.214-1.19-.214-1.257v-.006a1.882,1.882,0,0,0-1.881-1.881H297.4a3.784,3.784,0,0,1-3.783-3.783A1.88,1.88,0,0,1,295.5,37.62h8.535a7.529,7.529,0,0,1,6.9,4.516,1.894,1.894,0,0,0,1.732,1.149h5.51a1.882,1.882,0,0,1,1.881,1.881Z" transform="translate(-257.74 -33.843)" fill="#ffddcf"/>
        <path id="Trazado_1220211" data-name="Trazado 1220211" d="M169.137,267.547a3.778,3.778,0,0,1-4.528,3.478.941.941,0,0,0-1.131.92v4.836a3.762,3.762,0,0,1-3.762,3.762H140.8a3.762,3.762,0,0,1-3.762-3.762v-.015l-1.939-6.21,1.938-5.125h0v-7.564A3.762,3.762,0,0,1,140.8,254.1h4.857a.928.928,0,0,0,.9-1.129,3.837,3.837,0,0,1-.074-.9,3.8,3.8,0,0,1,3.551-3.628,3.78,3.78,0,0,1,4,3.771,3.8,3.8,0,0,1-.076.761.938.938,0,0,0,.92,1.127h4.836a3.762,3.762,0,0,1,3.762,3.762V262.7a.938.938,0,0,0,1.127.92,3.782,3.782,0,0,1,4.532,3.924Z" transform="translate(-119.099 -218.224)" fill="#fad989"/>
        <path id="Trazado_1220212" data-name="Trazado 1220212" d="M148.891,277.088a4.775,4.775,0,0,0,1.45,3.456H140.8a3.762,3.762,0,0,1-3.762-3.762v-.015l-1.939-6.21,1.938-5.125h0v-7.564a3.762,3.762,0,0,1,3.762-3.762h4.857a.928.928,0,0,0,.9-1.129,3.838,3.838,0,0,1-.074-.9,3.8,3.8,0,0,1,3.551-3.628,3.757,3.757,0,0,1,1.657.277c-1.142.529-2.8,2.043-2.8,6.379Z" transform="translate(-119.099 -218.225)" fill="#f6ca56"/>
        <path id="Trazado_1220213" data-name="Trazado 1220213" d="M33.939,325.621a3.784,3.784,0,0,1-3.783,3.783H27.323a1.882,1.882,0,0,0-1.881,1.881v0l-.509,1.622.509.8v8.914H23.523a7.516,7.516,0,0,1-6.022-3.011,1.894,1.894,0,0,0-1.457-.764H9.382A1.882,1.882,0,0,1,7.5,336.966v-5.681A1.882,1.882,0,0,1,9.382,329.4h5.51a1.846,1.846,0,0,0,.594-.1,1.912,1.912,0,0,0,1.137-1.052,7.527,7.527,0,0,1,6.9-4.515h8.535a1.88,1.88,0,0,1,1.881,1.881Z" transform="translate(-7.501 -284.082)" fill="#db9e82"/>
        <path id="Trazado_1220214" data-name="Trazado 1220214" d="M16.044,377.672H9.382A1.882,1.882,0,0,1,7.5,375.79v-5.681a1.882,1.882,0,0,1,1.881-1.881h5.51a1.846,1.846,0,0,0,.594-.1C14.633,369.552,13.132,373.139,16.044,377.672Z" transform="translate(-7.501 -322.905)" fill="#c8866a"/>
      </g>
      <g id="Grupo_1241762" data-name="Grupo 1241762" transform="translate(0 -0.001)">
        <path id="Trazado_1220215" data-name="Trazado 1220215" d="M146.982,9.441h-.344a.967.967,0,0,0-.98.912.941.941,0,0,0,.94.969h.384a.941.941,0,0,1,.941.941v5.681a.941.941,0,0,1-.941.941h-6.606a2.856,2.856,0,0,0-2.266,1.141,6.532,6.532,0,0,1-5.268,2.635h-.978V14.308a8.128,8.128,0,0,0,3.739.791.965.965,0,0,0,.976-.825.941.941,0,0,0-.934-1.057,6.173,6.173,0,0,1-3.01-.634,1.828,1.828,0,0,1-.878-1.095,2.826,2.826,0,0,0-2.714-2.049h-2.833a2.846,2.846,0,0,1-2.843-2.862.936.936,0,0,1,.94-.922h8.535a6.588,6.588,0,0,1,6.037,3.952,2.837,2.837,0,0,0,2.594,1.713h.7a.967.967,0,0,0,.98-.912.941.941,0,0,0-.94-.969h-.737a.957.957,0,0,1-.87-.585,8.469,8.469,0,0,0-7.76-5.08h-1.07A4.71,4.71,0,0,0,127.16,0H113.509a.967.967,0,0,0-.98.912.941.941,0,0,0,.94.969H127.16a2.826,2.826,0,0,1,2.665,1.9h-5.5a2.846,2.846,0,0,0-2.842,2.849,4.729,4.729,0,0,0,4.724,4.7h2.833a.941.941,0,0,1,.941.941V23.6a2.832,2.832,0,0,1-2.822,2.837l-4.833-.008a4.718,4.718,0,1,0-9.245.008h-4.836a2.822,2.822,0,0,1-2.822-2.822V18.78a1.88,1.88,0,0,0-2.259-1.841,2.793,2.793,0,0,1-2.291-.533,2.833,2.833,0,0,1,2.294-5.025,1.88,1.88,0,0,0,2.256-1.843V4.7a2.822,2.822,0,0,1,2.822-2.822h.795a.967.967,0,0,0,.98-.912A.941.941,0,0,0,109.08,0h-.834a4.708,4.708,0,0,0-4.7,4.7l.006,4.837a4.716,4.716,0,1,0-.006,9.241v4.836a4.7,4.7,0,0,0,4.7,4.7h4.836a1.879,1.879,0,0,0,1.842-2.256,2.837,2.837,0,1,1,5.559-.007,1.882,1.882,0,0,0,1.841,2.263h4.836a4.714,4.714,0,0,0,4.609-3.777h1.072a8.4,8.4,0,0,0,6.772-3.386.952.952,0,0,1,.762-.39h6.606a2.822,2.822,0,0,0,2.822-2.822V12.262A2.821,2.821,0,0,0,146.982,9.441Z" transform="translate(-85.603 0.001)"/>
        <path id="Trazado_1220216" data-name="Trazado 1220216" d="M46.26,256.142v-4.836a4.708,4.708,0,0,0-4.7-4.7H36.722a4.718,4.718,0,1,0-9.245,0c0,.013,0,0-4.834,0a4.71,4.71,0,0,0-4.611,3.777h-1.07A8.468,8.468,0,0,0,9.2,255.46a.959.959,0,0,1-.871.586H2.822A2.825,2.825,0,0,0,0,258.867v5.681a2.825,2.825,0,0,0,2.822,2.822H9.428a.949.949,0,0,1,.761.389,8.4,8.4,0,0,0,6.773,3.387h1.072a4.714,4.714,0,0,0,4.609,3.777H36.37a.941.941,0,0,0,0-1.881H22.643a2.832,2.832,0,0,1-2.822-2.837V258.867a.942.942,0,0,1,.941-.941H23.6A4.729,4.729,0,0,0,28.32,253.2a2.825,2.825,0,0,0-2.822-2.822h-5.52a2.826,2.826,0,0,1,2.665-1.9H27.5a1.868,1.868,0,0,0,1.821-2.256,2.837,2.837,0,1,1,5.558,0,1.879,1.879,0,0,0,1.842,2.258h4.836a2.825,2.825,0,0,1,2.822,2.822v4.836a1.879,1.879,0,0,0,2.256,1.842,2.837,2.837,0,1,1,0,5.558,1.881,1.881,0,0,0-2.26,1.842v4.836a2.825,2.825,0,0,1-2.822,2.822h-.8a.941.941,0,1,0,0,1.881h.8a4.708,4.708,0,0,0,4.7-4.7l0-4.834a4.718,4.718,0,1,0,0-9.244Zm-19.821-2.958a2.846,2.846,0,0,1-2.843,2.862H20.762a2.827,2.827,0,0,0-2.714,2.049,1.813,1.813,0,0,1-.856,1.082,6.114,6.114,0,0,1-3.005.646.963.963,0,0,0-.967.906.94.94,0,0,0,.94.975,8.159,8.159,0,0,0,3.781-.792v8.352h-.978a6.536,6.536,0,0,1-5.269-2.636,2.851,2.851,0,0,0-2.265-1.141H2.822a.941.941,0,0,1-.941-.941v-5.681a.941.941,0,0,1,.941-.941h5.51a2.839,2.839,0,0,0,2.594-1.714,6.587,6.587,0,0,1,6.036-3.951H25.5a.936.936,0,0,1,.941.922Z" transform="translate(0 -210.722)"/>
        <path id="Trazado_1220217" data-name="Trazado 1220217" d="M186.022,420.059v1.5a.941.941,0,1,0,1.881,0v-1.5a.941.941,0,1,0-1.881,0Z" transform="translate(-162.694 -366.558)"/>
        <path id="Trazado_1220218" data-name="Trazado 1220218" d="M312.8,421.563v-1.5a.941.941,0,1,0-1.881,0v1.5a.941.941,0,1,0,1.881,0Z" transform="translate(-271.928 -366.558)"/>
        <path id="Trazado_1220219" data-name="Trazado 1220219" d="M236.367,431.083a1.794,1.794,0,0,1-2.711,0,.941.941,0,0,0-1.418,1.236,3.678,3.678,0,0,0,5.548,0,.941.941,0,0,0-1.418-1.236Z" transform="translate(-202.911 -376.74)"/>
      </g>
    </g>
  </g>
</svg>
