<svg xmlns="http://www.w3.org/2000/svg" xmlns:xlink="http://www.w3.org/1999/xlink" width="113" height="113" viewBox="0 0 113 113">
  <defs>
    <filter id="Trazado_982547" x="0" y="0" width="113" height="113" filterUnits="userSpaceOnUse">
      <feOffset dy="3" input="SourceAlpha"/>
      <feGaussianBlur stdDeviation="3" result="blur"/>
      <feFlood flood-opacity="0.161"/>
      <feComposite operator="in" in2="blur"/>
      <feComposite in="SourceGraphic"/>
    </filter>
  </defs>
  <g id="Grupo_1241782" data-name="Grupo 1241782" transform="translate(1830 -7238.167)">
    <g id="Grupo_1241237" data-name="Grupo 1241237" transform="translate(-1821 7244.167)">
      <g id="Grupo_1240427" data-name="Grupo 1240427" transform="translate(0 0)">
        <g id="Grupo_1239780" data-name="Grupo 1239780">
          <g id="Grupo_1236603" data-name="Grupo 1236603">
            <g id="Grupo_1236145" data-name="Grupo 1236145">
              <g id="Grupo_1235107" data-name="Grupo 1235107">
                <g id="Grupo_1223796" data-name="Grupo 1223796">
                  <g id="Grupo_1208038" data-name="Grupo 1208038">
                    <g id="Grupo_1202104" data-name="Grupo 1202104">
                      <g id="Grupo_1201923" data-name="Grupo 1201923">
                        <g id="Grupo_1176928" data-name="Grupo 1176928" transform="translate(0)">
                          <g id="Grupo_1172322" data-name="Grupo 1172322">
                            <g id="Grupo_1164700" data-name="Grupo 1164700">
                              <g id="Grupo_1160931" data-name="Grupo 1160931">
                                <g id="Grupo_1160749" data-name="Grupo 1160749">
                                  <g id="Grupo_1158891" data-name="Grupo 1158891">
                                    <g id="Grupo_1157406" data-name="Grupo 1157406">
                                      <g id="Grupo_1155793" data-name="Grupo 1155793">
                                        <g id="Grupo_1154704" data-name="Grupo 1154704">
                                          <g id="Grupo_1150790" data-name="Grupo 1150790">
                                            <g id="Grupo_1154214" data-name="Grupo 1154214" transform="translate(0)">
                                              <g id="Grupo_1152583" data-name="Grupo 1152583">
                                                <g id="Grupo_1146973" data-name="Grupo 1146973">
                                                  <g id="Grupo_1146954" data-name="Grupo 1146954">
                                                    <g transform="matrix(1, 0, 0, 1, -9, -6)" filter="url(#Trazado_982547)">
                                                      <g id="Trazado_982547-2" data-name="Trazado 982547" transform="translate(9 6)" fill="#d9d5e3">
                                                        <path d="M 47.50000762939453 93.49986267089844 C 41.28937911987305 93.49986267089844 35.26534271240234 92.28383636474609 29.59519386291504 89.88558197021484 C 24.11772727966309 87.56880950927734 19.19814109802246 84.25183868408203 14.97310066223145 80.02679443359375 C 10.74804782867432 75.8017578125 7.431074142456055 70.88218688964844 5.114300727844238 65.40471649169922 C 2.716034412384033 59.73458480834961 1.500007629394531 53.71054458618164 1.500007629394531 47.49993133544922 C 1.500007629394531 41.2893180847168 2.716034412384033 35.26527786254883 5.114300727844238 29.59514427185059 C 7.431074142456055 24.11767768859863 10.74804782867432 19.19810485839844 14.97310066223145 14.97306442260742 C 19.19814109802246 10.74802494049072 24.11772727966309 7.431051254272461 29.59519386291504 5.114277839660645 C 35.26534271240234 2.71602463722229 41.28937911987305 1.499997973442078 47.50000762939453 1.499997973442078 C 53.71063613891602 1.499997973442078 59.73467254638672 2.71602463722229 65.40482330322266 5.114277839660645 C 70.88228607177734 7.431051254272461 75.80187225341797 10.74802494049072 80.02691650390625 14.97306442260742 C 84.25196838378906 19.19810485839844 87.56893920898438 24.11767768859863 89.88571166992188 29.59514427185059 C 92.28398132324219 35.26527786254883 93.50000762939453 41.2893180847168 93.50000762939453 47.49993133544922 C 93.50000762939453 53.71054458618164 92.28398132324219 59.73458480834961 89.88571166992188 65.40471649169922 C 87.56893920898438 70.88218688964844 84.25196838378906 75.8017578125 80.02691650390625 80.02679443359375 C 75.80187225341797 84.25183868408203 70.88228607177734 87.56880950927734 65.40482330322266 89.88558197021484 C 59.73467254638672 92.28383636474609 53.71063613891602 93.49986267089844 47.50000762939453 93.49986267089844 Z" stroke="none"/>
                                                        <path d="M 47.50000762939453 2.999992370605469 C 41.4912223815918 2.999992370605469 35.66377639770508 4.1761474609375 30.17951202392578 6.495796203613281 C 24.88085174560547 8.736930847167969 20.12152862548828 11.94596099853516 16.03376007080078 16.03372955322266 C 11.94597625732422 20.12148284912109 8.736961364746094 24.88080596923828 6.495803833007812 30.17946624755859 C 4.176162719726562 35.66371536254883 3.000007629394531 41.49116134643555 3.000007629394531 47.49993133544922 C 3.000007629394531 53.50870132446289 4.176162719726562 59.33614730834961 6.495803833007812 64.82038879394531 C 8.736961364746094 70.11905670166016 11.94597625732422 74.87836456298828 16.03376007080078 78.96613311767578 C 20.12152862548828 83.05390167236328 24.88085174560547 86.26291656494141 30.17951202392578 88.50406646728516 C 35.66377639770508 90.82369995117188 41.4912223815918 91.99985504150391 47.50000762939453 91.99985504150391 C 53.50879287719727 91.99985504150391 59.33623886108398 90.82369995117188 64.82049560546875 88.50406646728516 C 70.11916351318359 86.26291656494141 74.87848663330078 83.05390167236328 78.96625518798828 78.96613311767578 C 83.05403900146484 74.87836456298828 86.26305389404297 70.11905670166016 88.50421142578125 64.82038879394531 C 90.8238525390625 59.33614730834961 92.00000762939453 53.50870132446289 92.00000762939453 47.49993133544922 C 92.00000762939453 41.49116134643555 90.8238525390625 35.66371536254883 88.50421142578125 30.17946624755859 C 86.26305389404297 24.88080596923828 83.05403900146484 20.12148284912109 78.96625518798828 16.03372955322266 C 74.87848663330078 11.94596099853516 70.11916351318359 8.736930847167969 64.82049560546875 6.495796203613281 C 59.33623886108398 4.1761474609375 53.50879287719727 2.999992370605469 47.50000762939453 2.999992370605469 M 47.50000762939453 -7.62939453125e-06 C 73.73352813720703 -7.62939453125e-06 95.00000762939453 21.26644134521484 95.00000762939453 47.49993133544922 C 95.00000762939453 73.73342132568359 73.73352813720703 94.99985504150391 47.50000762939453 94.99985504150391 C 21.26648712158203 94.99985504150391 7.62939453125e-06 73.73342132568359 7.62939453125e-06 47.49993133544922 C 7.62939453125e-06 21.26644134521484 21.26648712158203 -7.62939453125e-06 47.50000762939453 -7.62939453125e-06 Z" stroke="none" fill="#453179"/>
                                                      </g>
                                                    </g>
                                                  </g>
                                                </g>
                                              </g>
                                            </g>
                                          </g>
                                        </g>
                                      </g>
                                    </g>
                                  </g>
                                </g>
                              </g>
                            </g>
                          </g>
                        </g>
                      </g>
                    </g>
                  </g>
                </g>
              </g>
            </g>
          </g>
        </g>
      </g>
    </g>
    <g id="educacion-a-distancia_1_" data-name="educacion-a-distancia (1)" transform="translate(-1804 7261)">
      <g id="Grupo_1241780" data-name="Grupo 1241780">
        <g id="Grupo_1241764" data-name="Grupo 1241764">
          <path id="Trazado_1220220" data-name="Trazado 1220220" d="M22.67,61H13V51.33A9.671,9.671,0,0,0,22.67,61Z" fill="#fcd770"/>
        </g>
        <g id="Grupo_1241765" data-name="Grupo 1241765">
          <path id="Trazado_1220221" data-name="Trazado 1220221" d="M22,53h7v8H22.67A9.671,9.671,0,0,1,13,51.33a4.329,4.329,0,0,1,8.6-.71Z" fill="#fcd770"/>
        </g>
        <g id="Grupo_1241766" data-name="Grupo 1241766">
          <path id="Trazado_1220222" data-name="Trazado 1220222" d="M13,51.33V61H9V50a1,1,0,0,1,1-1h2a1,1,0,0,1,1,1Z" fill="#838f9b"/>
        </g>
        <g id="Grupo_1241767" data-name="Grupo 1241767">
          <path id="Trazado_1220223" data-name="Trazado 1220223" d="M47,57l-.62,2.49A1.992,1.992,0,0,1,44.44,61H29V57H47Z" fill="#aab2bd"/>
        </g>
        <g id="Grupo_1241768" data-name="Grupo 1241768">
          <path id="Trazado_1220224" data-name="Trazado 1220224" d="M51,40.78a2.024,2.024,0,0,1-.05.43L47,57H42l4.64-16.7a1.756,1.756,0,0,1,.63-.94A1.8,1.8,0,0,1,48.35,39h.87A1.784,1.784,0,0,1,51,40.78Z" fill="#ccd1d9"/>
        </g>
        <g id="Grupo_1241769" data-name="Grupo 1241769">
          <path id="Trazado_1220225" data-name="Trazado 1220225" d="M43,1a18,18,0,0,1,3.64,35.63A18.194,18.194,0,0,1,43,37a17.954,17.954,0,0,1-10.19-3.16A1.991,1.991,0,0,0,31,31V25a9.993,9.993,0,0,0-4-8V13h3a1,1,0,0,0,1-1V10a1,1,0,0,0-1-1H28.03A18,18,0,0,1,43,1Z" fill="#69d6f4"/>
        </g>
        <g id="Grupo_1241770" data-name="Grupo 1241770">
          <path id="Trazado_1220226" data-name="Trazado 1220226" d="M19.49,6.94,20,9H14l.51-2.06a2.568,2.568,0,0,1,4.98,0Z" fill="#969faa"/>
        </g>
        <g id="Grupo_1241771" data-name="Grupo 1241771">
          <path id="Trazado_1220227" data-name="Trazado 1220227" d="M31,10v2a1,1,0,0,1-1,1H4a1,1,0,0,1-1-1V10A1,1,0,0,1,4,9H30a1,1,0,0,1,1,1Z" fill="#aab2bd"/>
        </g>
        <g id="Grupo_1241772" data-name="Grupo 1241772">
          <path id="Trazado_1220228" data-name="Trazado 1220228" d="M7,13H27v4H7Z" fill="#ccd1d9"/>
        </g>
        <g id="Grupo_1241773" data-name="Grupo 1241773">
          <path id="Trazado_1220229" data-name="Trazado 1220229" d="M15.89,26.19a10.223,10.223,0,0,1-3.98.81,2.885,2.885,0,0,1-2.06-.85l-.59-.85-2.37.95A2.986,2.986,0,0,0,5,29.03V31H3V25a10.3,10.3,0,0,1,.2-2.01A2.006,2.006,0,0,0,5,21a1.982,1.982,0,0,0-.48-1.3A9.941,9.941,0,0,1,7,17H27a9.993,9.993,0,0,1,4,8v6H29V29.03a2.986,2.986,0,0,0-1.89-2.78L24,25l-.43.28A10.185,10.185,0,0,1,17.91,27a2.858,2.858,0,0,1-2.02-.81Z" fill="#b27946"/>
        </g>
        <g id="Grupo_1241774" data-name="Grupo 1241774">
          <path id="Trazado_1220230" data-name="Trazado 1220230" d="M33,57H29V53A4,4,0,0,1,33,57Z" fill="#f0d0b4"/>
        </g>
        <g id="Grupo_1241775" data-name="Grupo 1241775">
          <path id="Trazado_1220231" data-name="Trazado 1220231" d="M33,33a1.988,1.988,0,0,1-.19.84,1.733,1.733,0,0,1-.4.57A1.955,1.955,0,0,1,31,35H29V31h2A2.006,2.006,0,0,1,33,33Z" fill="#f0d0b4"/>
        </g>
        <g id="Grupo_1241776" data-name="Grupo 1241776">
          <path id="Trazado_1220232" data-name="Trazado 1220232" d="M5,31v4H3a1.955,1.955,0,0,1-1.41-.59A1.955,1.955,0,0,1,1,33a2.006,2.006,0,0,1,2-2Z" fill="#f0d0b4"/>
        </g>
        <g id="Grupo_1241777" data-name="Grupo 1241777">
          <path id="Trazado_1220233" data-name="Trazado 1220233" d="M9.26,25.3l.59.85a2.885,2.885,0,0,0,2.06.85,10.223,10.223,0,0,0,3.98-.81,2.858,2.858,0,0,0,2.02.81,10.185,10.185,0,0,0,5.66-1.72L24,25l3.11,1.25A2.986,2.986,0,0,1,29,29.03V35A11.973,11.973,0,0,1,17.33,46.99c-.11.01-.22.01-.33.01A12,12,0,0,1,5,35V29.03a2.986,2.986,0,0,1,1.89-2.78Z" fill="#f0d0b4"/>
        </g>
        <g id="Grupo_1241778" data-name="Grupo 1241778">
          <path id="Trazado_1220234" data-name="Trazado 1220234" d="M21,39l-.27,1.09a3.846,3.846,0,0,1-7.46,0L13,39Z" fill="#ff826e"/>
        </g>
        <g id="Grupo_1241779" data-name="Grupo 1241779">
          <path id="Trazado_1220235" data-name="Trazado 1220235" d="M4.52,19.7A1.982,1.982,0,0,1,5,21a2.006,2.006,0,0,1-1.8,1.99A1.275,1.275,0,0,1,3,23a2,2,0,1,1,1.52-3.3Z" fill="#fcd770"/>
        </g>
      </g>
      <g id="Grupo_1241781" data-name="Grupo 1241781">
        <path id="Trazado_1220236" data-name="Trazado 1220236" d="M12.3,40.332a4.841,4.841,0,0,0,9.394,0L22.281,38H11.719ZM19.715,40a2.843,2.843,0,0,1-5.43,0Z"/>
        <path id="Trazado_1220237" data-name="Trazado 1220237" d="M12,34h2V33a3,3,0,0,0-6,0v1h2V33a1,1,0,0,1,2,0Z"/>
        <path id="Trazado_1220238" data-name="Trazado 1220238" d="M23,30a3,3,0,0,0-3,3v1h2V33a1,1,0,0,1,2,0v1h2V33A3,3,0,0,0,23,30Z"/>
        <path id="Trazado_1220239" data-name="Trazado 1220239" d="M30,44h2v2H30Z"/>
        <path id="Trazado_1220240" data-name="Trazado 1220240" d="M34,44h2v2H34Z"/>
        <path id="Trazado_1220241" data-name="Trazado 1220241" d="M38,44h2v2H38Z"/>
        <path id="Trazado_1220242" data-name="Trazado 1220242" d="M62,19A18.994,18.994,0,0,0,27.517,8H20.78l-.325-1.3a3.561,3.561,0,0,0-6.91,0L13.22,8H4a2,2,0,0,0-2,2v8.184a2.981,2.981,0,0,0,.064,5.652A11.029,11.029,0,0,0,2,25v5.184A2.993,2.993,0,0,0,3,36H4.051A13.01,13.01,0,0,0,13.6,47.533a5.3,5.3,0,0,0-.618.735A1.978,1.978,0,0,0,12,48H10a2,2,0,0,0-2,2V62H44.438a3,3,0,0,0,2.91-2.272l4.569-18.274A2.726,2.726,0,0,0,52,40.781,2.785,2.785,0,0,0,49.219,38h-.865a2.789,2.789,0,0,0-2.68,2.037L41.24,56H33.9A5.009,5.009,0,0,0,29,52H22.848l-.258-1.545a5.311,5.311,0,0,0-1.675-3.06A13.021,13.021,0,0,0,29.95,36H31a2.981,2.981,0,0,0,2.052-.823A18.987,18.987,0,0,0,62,19ZM32,30.184V28h3.794a23.775,23.775,0,0,0,3.422,5.872L40.8,35.849a16.863,16.863,0,0,1-6.837-2.462A2.916,2.916,0,0,0,34,33,3,3,0,0,0,32,30.184ZM6,16.53A10.9,10.9,0,0,0,4.28,18.3,2.735,2.735,0,0,0,4,18.184V14H6ZM8,14H26v2H8Zm20,0h2a2,2,0,0,0,2-2h3.079a23.784,23.784,0,0,0-1.036,6H29.478A10.916,10.916,0,0,0,28,16.539Zm20.832-2a21.811,21.811,0,0,1,1.125,6H36.043a21.811,21.811,0,0,1,1.125-6ZM37.953,10a21.747,21.747,0,0,1,2.826-4.622L43,2.6l2.222,2.776A21.729,21.729,0,0,1,48.048,10Zm22,8H51.957a23.829,23.829,0,0,0-1.036-6h7.554A16.857,16.857,0,0,1,59.949,18ZM37.168,26a21.811,21.811,0,0,1-1.125-6H49.957a21.811,21.811,0,0,1-1.125,6Zm10.879,2a21.747,21.747,0,0,1-2.826,4.622L43,35.4l-2.222-2.776A21.729,21.729,0,0,1,37.952,28Zm3.91-8h7.992a16.858,16.858,0,0,1-1.475,6H50.92A23.786,23.786,0,0,0,51.957,20ZM34.043,20a23.829,23.829,0,0,0,1.036,6H32V25a10.991,10.991,0,0,0-1.215-5ZM45.21,35.839l1.574-1.968A23.775,23.775,0,0,0,50.206,28H57.4a17,17,0,0,1-12.185,7.84ZM57.4,10H50.207a23.775,23.775,0,0,0-3.422-5.872L45.21,2.161A17,17,0,0,1,57.4,10ZM40.8,2.144,39.215,4.128A23.8,23.8,0,0,0,35.794,10H32a2,2,0,0,0-1.961-2A16.973,16.973,0,0,1,40.8,2.144ZM15.484,7.183a1.563,1.563,0,0,1,3.032,0l.2.817H15.28ZM4,10H30v2H4V10ZM3,20a1,1,0,1,1-1,1A1,1,0,0,1,3,20ZM2,33a1,1,0,0,1,1-1H4v2H3A1,1,0,0,1,2,33ZM12,60H10V50h2Zm2,0V57.526A10.738,10.738,0,0,0,16.474,60Zm30.438,0H30V58H45.72l-.311,1.242A1,1,0,0,1,44.438,60ZM47.6,40.571A.781.781,0,0,1,48.354,40h.865a.782.782,0,0,1,.781.781.843.843,0,0,1-.022.189L46.22,56h-2.9ZM31.816,56H30V54.184A3,3,0,0,1,31.816,56ZM28,54v6H22.669A8.679,8.679,0,0,1,14,51.331a3.331,3.331,0,0,1,6.617-.548l.331,1.991-1.781,2.671,1.664,1.109L22.535,54Zm0-19A11,11,0,0,1,6,35V29.031a1.989,1.989,0,0,1,1.257-1.857l1.618-.647A3.88,3.88,0,0,0,11.905,28a11.153,11.153,0,0,0,3.805-.679,3.877,3.877,0,0,0,2.2.679,11.19,11.19,0,0,0,6.212-1.876l2.626,1.05A1.989,1.989,0,0,1,28,29.031Zm-.515-9.683-3.6-1.44-.863.575A9.2,9.2,0,0,1,17.905,26a1.906,1.906,0,0,1-.6-3.714l1.013-.338-.633-1.9-1.013.338a3.892,3.892,0,0,0-2.336,5.275,9.147,9.147,0,0,1-2.43.336,1.906,1.906,0,0,1-.6-3.714l1.013-.338-.633-1.9-1.013.338A3.8,3.8,0,0,0,8.061,24.7l-1.546.619A3.981,3.981,0,0,0,4,29.031V25a9.12,9.12,0,0,1,.092-1.213A2.969,2.969,0,0,0,5.71,19.734,8.964,8.964,0,0,1,7.357,18H26.636A9.038,9.038,0,0,1,30,25v4.031A3.981,3.981,0,0,0,27.485,25.317ZM31,34H30V32h1a1,1,0,0,1,0,2Z"/>
      </g>
    </g>
  </g>
</svg>
