<svg xmlns="http://www.w3.org/2000/svg" xmlns:xlink="http://www.w3.org/1999/xlink" width="97.533" height="97.533" viewBox="0 0 97.533 97.533">
  <defs>
    <filter id="Trazado_982547" x="0" y="0" width="97.533" height="97.533" filterUnits="userSpaceOnUse">
      <feOffset dy="3" input="SourceAlpha"/>
      <feGaussianBlur stdDeviation="3" result="blur"/>
      <feFlood flood-opacity="0.161"/>
      <feComposite operator="in" in2="blur"/>
      <feComposite in="SourceGraphic"/>
    </filter>
  </defs>
  <g id="Grupo_1242211" data-name="Grupo 1242211" transform="translate(-189.717 -8015.867)">
    <g id="Grupo_1241606" data-name="Grupo 1241606" transform="translate(-1.249 3394.144)">
      <g id="Grupo_1224767" data-name="Grupo 1224767" transform="translate(-0.001 3721.724)">
        <g id="Grupo_1203701" data-name="Grupo 1203701" transform="translate(199.967 906)">
          <g id="Grupo_1203355" data-name="Grupo 1203355" transform="translate(0)">
            <g id="Grupo_1202156" data-name="Grupo 1202156">
              <g id="Grupo_1177900" data-name="Grupo 1177900">
                <g id="Grupo_1172010" data-name="Grupo 1172010">
                  <g id="Grupo_1171046" data-name="Grupo 1171046">
                    <g id="Grupo_1148525" data-name="Grupo 1148525">
                      <g transform="matrix(1, 0, 0, 1, -9, -6)" filter="url(#Trazado_982547)">
                        <g id="Trazado_982547-2" data-name="Trazado 982547" transform="translate(9 6)" fill="#fdfbec">
                          <path d="M 39.7666015625 78.033203125 C 34.59997940063477 78.033203125 29.58870124816895 77.02164459228516 24.87196731567383 75.02663421630859 C 20.31538963317871 73.099365234375 16.22284507751465 70.34000396728516 12.70802402496338 66.82518005371094 C 9.193202018737793 63.31035614013672 6.433835029602051 59.21781158447266 4.506568431854248 54.66123580932617 C 2.511557102203369 49.94449996948242 1.500001549720764 44.93322372436523 1.500001549720764 39.7666015625 C 1.500001549720764 34.59997940063477 2.511557102203369 29.58870124816895 4.506568431854248 24.87196731567383 C 6.433835029602051 20.31538963317871 9.193202018737793 16.22284507751465 12.70802402496338 12.70802402496338 C 16.22284507751465 9.193202018737793 20.31538963317871 6.433835029602051 24.87196731567383 4.506568431854248 C 29.58870124816895 2.511557102203369 34.59997940063477 1.500001549720764 39.7666015625 1.500001549720764 C 44.93322372436523 1.500001549720764 49.94449996948242 2.511557102203369 54.66123580932617 4.506568431854248 C 59.21781158447266 6.433835029602051 63.31035614013672 9.193202018737793 66.82518005371094 12.70802402496338 C 70.34000396728516 16.22284507751465 73.099365234375 20.31538963317871 75.02663421630859 24.87196731567383 C 77.02164459228516 29.58870124816895 78.033203125 34.59997940063477 78.033203125 39.7666015625 C 78.033203125 44.93322372436523 77.02164459228516 49.94449996948242 75.02663421630859 54.66123580932617 C 73.099365234375 59.21781158447266 70.34000396728516 63.31035614013672 66.82518005371094 66.82518005371094 C 63.31035614013672 70.34000396728516 59.21781158447266 73.099365234375 54.66123580932617 75.02663421630859 C 49.94449996948242 77.02164459228516 44.93322372436523 78.033203125 39.7666015625 78.033203125 Z" stroke="none"/>
                          <path d="M 39.7666015625 3 C 34.80181503295898 3 29.98714065551758 3.971687316894531 25.45630264282227 5.888076782226562 C 21.07851409912109 7.739715576171875 17.146240234375 10.39113616943359 13.76869201660156 13.76869201660156 C 10.39113616943359 17.146240234375 7.739715576171875 21.07851409912109 5.888076782226562 25.45630264282227 C 3.971687316894531 29.98714065551758 3 34.80181503295898 3 39.7666015625 C 3 44.73138809204102 3.971687316894531 49.54606628417969 5.888076782226562 54.076904296875 C 7.739715576171875 58.45468902587891 10.39113616943359 62.386962890625 13.76869201660156 65.76451110839844 C 17.146240234375 69.14206695556641 21.07851409912109 71.79348754882812 25.45630264282227 73.64512634277344 C 29.98714065551758 75.56151580810547 34.80181503295898 76.533203125 39.7666015625 76.533203125 C 44.73138809204102 76.533203125 49.54606628417969 75.56151580810547 54.076904296875 73.64512634277344 C 58.45468902587891 71.79348754882812 62.386962890625 69.14206695556641 65.76451110839844 65.76451110839844 C 69.14206695556641 62.386962890625 71.79348754882812 58.45468902587891 73.64512634277344 54.076904296875 C 75.56151580810547 49.54606628417969 76.533203125 44.73138809204102 76.533203125 39.7666015625 C 76.533203125 34.80181503295898 75.56151580810547 29.98714065551758 73.64512634277344 25.45630264282227 C 71.79348754882812 21.07851409912109 69.14206695556641 17.146240234375 65.76451110839844 13.76869201660156 C 62.386962890625 10.39113616943359 58.45468902587891 7.739715576171875 54.076904296875 5.888076782226562 C 49.54606628417969 3.971687316894531 44.73138809204102 3 39.7666015625 3 M 39.7666015625 0 C 61.72908782958984 0 79.533203125 17.80411529541016 79.533203125 39.7666015625 C 79.533203125 61.72908782958984 61.72908782958984 79.533203125 39.7666015625 79.533203125 C 17.80411529541016 79.533203125 0 61.72908782958984 0 39.7666015625 C 0 17.80411529541016 17.80411529541016 0 39.7666015625 0 Z" stroke="none" fill="#83793c"/>
                        </g>
                      </g>
                    </g>
                  </g>
                </g>
              </g>
            </g>
          </g>
        </g>
      </g>
    </g>
    <g id="percepcion" transform="translate(201.379 7959.763)">
      <path id="Trazado_1221115" data-name="Trazado 1221115" d="M241.437,134.669v5.851h13.135v-5.851c-.055-5.326,7.672-7.421,7.106-19.694-.315-6.869-4.574-12.486-14.262-11.967-7.53.4-12.45,5.94-12.45,13.175l-4.284,7.867a1.1,1.1,0,0,0,.949,1.638h3.335v1.874c0,3.661,1.991,7.106,6.47,7.106Z" transform="translate(-196.321 -19.018)" fill="#efc7a4" fill-rule="evenodd"/>
      <path id="Trazado_1221116" data-name="Trazado 1221116" d="M315.862,158.046c-.785-.63-.938,0-1.942,0a2.532,2.532,0,0,1-.111-5.062,2.533,2.533,0,0,1,3.738-2.151,2.848,2.848,0,0,1,4.827-.552,3.438,3.438,0,0,1,3.922,5.559,2.207,2.207,0,0,1-1.18,3.177,1.753,1.753,0,0,0-.763,2.628.259.259,0,0,1-.231.375h-2.088a.259.259,0,0,1-.259-.254,3.077,3.077,0,0,0-1.814-2.788A3.966,3.966,0,0,1,315.862,158.046Z" transform="translate(-267.638 -59.784)" fill="#f76c82" fill-rule="evenodd"/>
      <path id="Trazado_1221117" data-name="Trazado 1221117" d="M48.689,105.434a.589.589,0,0,1,0,1.08L15.825,120.848a.589.589,0,0,1-.825-.54V91.641a.589.589,0,0,1,.825-.54Z" transform="translate(-6.177 -8.5)" fill="#c6ea94" fill-rule="evenodd"/>
      <path id="Trazado_1221118" data-name="Trazado 1221118" d="M47.845,157.011a.589.589,0,0,1,1.054,0l2.24,4.479a.589.589,0,0,1-.527.853H46.132a.589.589,0,0,1-.527-.853Z" transform="translate(-33.121 -66.4)" fill="#66d4f1" fill-rule="evenodd"/>
      <path id="Trazado_1221119" data-name="Trazado 1221119" d="M48.839,231.266a.589.589,0,0,0-.589-.589H43.042a.589.589,0,0,0-.589.589v5.207a.589.589,0,0,0,.589.589H48.25a.589.589,0,0,0,.589-.589Z" transform="translate(-30.395 -131.672)" fill="#f76c82" fill-rule="evenodd"/>
      <circle id="Elipse_11611" data-name="Elipse 11611" cx="3.223" cy="3.223" r="3.223" transform="translate(21.272 94.251)" fill="#fdcd56"/>
      <path id="Trazado_1221120" data-name="Trazado 1221120" d="M37.876,95.812,8.493,83a.825.825,0,1,1,.66-1.512L38.109,94.114c1.2-6.148,6.038-10.578,12.942-10.948,5.127-.275,8.807,1.112,11.258,3.438a13.393,13.393,0,0,1,3.872,9.314c.352,7.64-2.386,11.481-4.626,14.522-1.321,1.793-2.5,3.247-2.48,5.2v5.86a.825.825,0,0,1-.825.825H45.116a.825.825,0,0,1-.825-.825v-5.063c-4.447-.4-6.47-4.023-6.47-7.9V107.5h-2.51a1.925,1.925,0,0,1-1.673-2.858l1.323-2.43L9.153,113.463a.825.825,0,1,1-.66-1.512l27.753-12.1,1.576-2.895Q37.829,96.375,37.876,95.812Zm-.452,5.321-2.338,4.293h0a.276.276,0,0,0,.225.418h3.335a.825.825,0,0,1,.825.825v1.874c0,3.217,1.709,6.282,5.645,6.282a.825.825,0,0,1,.825.825v5.027H57.426v-5.02c-.023-2.306,1.243-4.078,2.8-6.194a18.7,18.7,0,0,0,4.306-13.468h0a11.765,11.765,0,0,0-3.36-8.193c-2.18-2.069-5.473-3.232-10.033-2.987a11.775,11.775,0,0,0-11.473,9.98l3.3,1.437a3.361,3.361,0,0,1,2.477-3.75,3.36,3.36,0,0,1,4.126-2.449,3.673,3.673,0,0,1,5.382-.513,4.262,4.262,0,0,1,4.675,6.7,2.889,2.889,0,0,1-.038,1.988,3.335,3.335,0,0,1-1.757,1.77h0a1.129,1.129,0,0,0-.49.376.8.8,0,0,0-.067.63,2.354,2.354,0,0,0,.337.769.825.825,0,0,1-.67,1.306h-2.8a.825.825,0,0,1-.822-.889,2.336,2.336,0,0,0-1.087-2.1,4.624,4.624,0,0,1-4.52-1.163,1.346,1.346,0,0,0-.13-.089l-.323.109a2.966,2.966,0,0,1-.974.161,3.345,3.345,0,0,1-2.229-.846Zm2.061-4.619q-.014.323-.014.651a.825.825,0,0,1-.1.395l-.661,1.213,2.977-1.3Zm9.256,1.105a3.255,3.255,0,0,0,3.37.78.825.825,0,0,1,.543.04,3.784,3.784,0,0,1,2.249,2.974h.772c-.006-.024-.011-.048-.017-.072a2.432,2.432,0,0,1,.3-1.883,2.721,2.721,0,0,1,1.177-.972,1.709,1.709,0,0,0,.918-.877,1.4,1.4,0,0,0-.122-1.172.825.825,0,0,1,.164-.979,2.613,2.613,0,0,0-2.981-4.225A.825.825,0,0,1,54.086,91a2.023,2.023,0,0,0-3.429.392.825.825,0,0,1-1.142.377A1.708,1.708,0,0,0,47,93.223a.825.825,0,0,1-.788.8,1.707,1.707,0,0,0,.074,3.413,2.228,2.228,0,0,0,.816-.2A1.545,1.545,0,0,1,48.741,97.619Zm-32.752-8.43,3.193,6.386a.825.825,0,0,1-.738,1.194H12.058a.825.825,0,0,1-.738-1.194l3.193-6.386a.825.825,0,0,1,1.476,0ZM15.251,91.4l-1.858,3.716h3.716ZM19.269,99v6.386a.825.825,0,0,1-.825.825H12.058a.825.825,0,0,1-.825-.825V99a.825.825,0,0,1,.825-.825h6.386A.825.825,0,0,1,19.269,99Zm-1.65.825H12.883v4.736h4.736Zm6.875-6.4a4.048,4.048,0,1,1-4.047,4.048A4.049,4.049,0,0,1,24.494,93.426Zm0,1.65a2.4,2.4,0,1,0,2.4,2.4A2.4,2.4,0,0,0,24.494,95.076Z" fill-rule="evenodd"/>
    </g>
  </g>
</svg>
