<svg xmlns="http://www.w3.org/2000/svg" xmlns:xlink="http://www.w3.org/1999/xlink" width="97.533" height="97.533" viewBox="0 0 97.533 97.533">
  <defs>
    <filter id="Trazado_982547" x="0" y="0" width="97.533" height="97.533" filterUnits="userSpaceOnUse">
      <feOffset dy="3" input="SourceAlpha"/>
      <feGaussianBlur stdDeviation="3" result="blur"/>
      <feFlood flood-opacity="0.161"/>
      <feComposite operator="in" in2="blur"/>
      <feComposite in="SourceGraphic"/>
    </filter>
  </defs>
  <g id="Grupo_1242233" data-name="Grupo 1242233" transform="translate(-189.717 -8168.867)">
    <g id="Grupo_1241608" data-name="Grupo 1241608" transform="translate(-1.249 3547.144)">
      <g id="Grupo_1224767" data-name="Grupo 1224767" transform="translate(-0.001 3721.724)">
        <g id="Grupo_1203701" data-name="Grupo 1203701" transform="translate(199.967 906)">
          <g id="Grupo_1203355" data-name="Grupo 1203355" transform="translate(0)">
            <g id="Grupo_1202156" data-name="Grupo 1202156">
              <g id="Grupo_1177900" data-name="Grupo 1177900">
                <g id="Grupo_1172010" data-name="Grupo 1172010">
                  <g id="Grupo_1171046" data-name="Grupo 1171046">
                    <g id="Grupo_1148525" data-name="Grupo 1148525">
                      <g transform="matrix(1, 0, 0, 1, -9, -6)" filter="url(#Trazado_982547)">
                        <g id="Trazado_982547-2" data-name="Trazado 982547" transform="translate(9 6)" fill="#fdfbec">
                          <path d="M 39.7666015625 78.033203125 C 34.59997940063477 78.033203125 29.58870124816895 77.02164459228516 24.87196731567383 75.02663421630859 C 20.31538963317871 73.099365234375 16.22284507751465 70.34000396728516 12.70802402496338 66.82518005371094 C 9.193202018737793 63.31035614013672 6.433835029602051 59.21781158447266 4.506568431854248 54.66123580932617 C 2.511557102203369 49.94449996948242 1.500001549720764 44.93322372436523 1.500001549720764 39.7666015625 C 1.500001549720764 34.59997940063477 2.511557102203369 29.58870124816895 4.506568431854248 24.87196731567383 C 6.433835029602051 20.31538963317871 9.193202018737793 16.22284507751465 12.70802402496338 12.70802402496338 C 16.22284507751465 9.193202018737793 20.31538963317871 6.433835029602051 24.87196731567383 4.506568431854248 C 29.58870124816895 2.511557102203369 34.59997940063477 1.500001549720764 39.7666015625 1.500001549720764 C 44.93322372436523 1.500001549720764 49.94449996948242 2.511557102203369 54.66123580932617 4.506568431854248 C 59.21781158447266 6.433835029602051 63.31035614013672 9.193202018737793 66.82518005371094 12.70802402496338 C 70.34000396728516 16.22284507751465 73.099365234375 20.31538963317871 75.02663421630859 24.87196731567383 C 77.02164459228516 29.58870124816895 78.033203125 34.59997940063477 78.033203125 39.7666015625 C 78.033203125 44.93322372436523 77.02164459228516 49.94449996948242 75.02663421630859 54.66123580932617 C 73.099365234375 59.21781158447266 70.34000396728516 63.31035614013672 66.82518005371094 66.82518005371094 C 63.31035614013672 70.34000396728516 59.21781158447266 73.099365234375 54.66123580932617 75.02663421630859 C 49.94449996948242 77.02164459228516 44.93322372436523 78.033203125 39.7666015625 78.033203125 Z" stroke="none"/>
                          <path d="M 39.7666015625 3 C 34.80181503295898 3 29.98714065551758 3.971687316894531 25.45630264282227 5.888076782226562 C 21.07851409912109 7.739715576171875 17.146240234375 10.39113616943359 13.76869201660156 13.76869201660156 C 10.39113616943359 17.146240234375 7.739715576171875 21.07851409912109 5.888076782226562 25.45630264282227 C 3.971687316894531 29.98714065551758 3 34.80181503295898 3 39.7666015625 C 3 44.73138809204102 3.971687316894531 49.54606628417969 5.888076782226562 54.076904296875 C 7.739715576171875 58.45468902587891 10.39113616943359 62.386962890625 13.76869201660156 65.76451110839844 C 17.146240234375 69.14206695556641 21.07851409912109 71.79348754882812 25.45630264282227 73.64512634277344 C 29.98714065551758 75.56151580810547 34.80181503295898 76.533203125 39.7666015625 76.533203125 C 44.73138809204102 76.533203125 49.54606628417969 75.56151580810547 54.076904296875 73.64512634277344 C 58.45468902587891 71.79348754882812 62.386962890625 69.14206695556641 65.76451110839844 65.76451110839844 C 69.14206695556641 62.386962890625 71.79348754882812 58.45468902587891 73.64512634277344 54.076904296875 C 75.56151580810547 49.54606628417969 76.533203125 44.73138809204102 76.533203125 39.7666015625 C 76.533203125 34.80181503295898 75.56151580810547 29.98714065551758 73.64512634277344 25.45630264282227 C 71.79348754882812 21.07851409912109 69.14206695556641 17.146240234375 65.76451110839844 13.76869201660156 C 62.386962890625 10.39113616943359 58.45468902587891 7.739715576171875 54.076904296875 5.888076782226562 C 49.54606628417969 3.971687316894531 44.73138809204102 3 39.7666015625 3 M 39.7666015625 0 C 61.72908782958984 0 79.533203125 17.80411529541016 79.533203125 39.7666015625 C 79.533203125 61.72908782958984 61.72908782958984 79.533203125 39.7666015625 79.533203125 C 17.80411529541016 79.533203125 0 61.72908782958984 0 39.7666015625 C 0 17.80411529541016 17.80411529541016 0 39.7666015625 0 Z" stroke="none" fill="#83793c"/>
                        </g>
                      </g>
                    </g>
                  </g>
                </g>
              </g>
            </g>
          </g>
        </g>
      </g>
    </g>
    <g id="auditivo_2_" data-name="auditivo (2)" transform="translate(196.319 8187.714)">
      <g id="Grupo_1242231" data-name="Grupo 1242231" transform="translate(32.302 0.79)">
        <path id="Trazado_1221149" data-name="Trazado 1221149" d="M196.158,25.08a17.106,17.106,0,1,0-34.2,0V46.935a12.825,12.825,0,0,0,25.649,0V42.7a4.588,4.588,0,0,1,1.779-3.613A17.723,17.723,0,0,0,196.158,25.08Z" transform="translate(-161.959 -7.5)" fill="#ffcfc5"/>
        <path id="Trazado_1221150" data-name="Trazado 1221150" d="M279.061,7.5c-.354,0-.7.012-1.053.034A17.381,17.381,0,0,1,294.054,25.08a17.723,17.723,0,0,1-6.771,14.011A4.587,4.587,0,0,0,285.5,42.7v4.231a12.825,12.825,0,0,1-11.771,12.781c.347.028.7.043,1.053.043a12.825,12.825,0,0,0,12.825-12.825V42.7a4.587,4.587,0,0,1,1.779-3.613A17.723,17.723,0,0,0,296.16,25.08a17.345,17.345,0,0,0-17.1-17.58Z" transform="translate(-261.962 -7.5)" fill="#ffac9a"/>
        <path id="Trazado_1221151" data-name="Trazado 1221151" d="M228.6,62.869a11.529,11.529,0,0,0-11.268,11.749V78.76a4.284,4.284,0,1,1,0,8.569v5.179a6.993,6.993,0,1,0,13.987,0v-.266a10.357,10.357,0,0,1,4.023-8.21,11.835,11.835,0,0,0,4.527-9.414A11.529,11.529,0,0,0,228.6,62.869Z" transform="translate(-211.497 -57.038)" fill="#ffac9a"/>
        <g id="Grupo_1242230" data-name="Grupo 1242230" transform="translate(5.831 5.831)">
          <path id="Trazado_1221152" data-name="Trazado 1221152" d="M279.061,62.869c-.355,0-.706.018-1.053.052a11.587,11.587,0,0,1,10.215,11.7,11.835,11.835,0,0,1-4.527,9.414,10.357,10.357,0,0,0-4.023,8.21v.266a7,7,0,0,1-5.94,6.914,7,7,0,0,0,8.047-6.914v-.266a10.357,10.357,0,0,1,4.023-8.21,11.835,11.835,0,0,0,4.527-9.414A11.529,11.529,0,0,0,279.061,62.869Z" transform="translate(-267.793 -62.869)" fill="#ff9680"/>
          <path id="Trazado_1221153" data-name="Trazado 1221153" d="M232.277,129.707a9.3,9.3,0,0,0-9.121-9.478,8.842,8.842,0,0,0-5.133,1.642,12.14,12.14,0,0,0-.7,4.066v4.142a4.284,4.284,0,0,1,0,8.569v5.179a6.985,6.985,0,0,0,.175,1.549,8.959,8.959,0,0,0,.962.053,7.7,7.7,0,0,0,6.869-3.942,13.632,13.632,0,0,1,3.434-4.308A9.6,9.6,0,0,0,232.277,129.707Z" transform="translate(-217.327 -114.188)" fill="#ff9680"/>
        </g>
      </g>
      <g id="Grupo_1242232" data-name="Grupo 1242232" transform="translate(17.04 0)">
        <path id="Trazado_1221154" data-name="Trazado 1221154" d="M204.809,47.711l-1.1,1.133a17.111,17.111,0,0,1-1.35,25.6,5.347,5.347,0,0,0-2.083,4.236v4.231A12.036,12.036,0,0,1,178.3,89.7L177,90.6a13.615,13.615,0,0,0,24.855-7.683V78.681a3.777,3.777,0,0,1,1.475-2.99,18.691,18.691,0,0,0,1.479-27.98Z" transform="translate(-160.154 -42.686)"/>
        <path id="Trazado_1221155" data-name="Trazado 1221155" d="M156.039,40.225V18.37A16.574,16.574,0,0,1,172.348,1.58a15.856,15.856,0,0,1,10,3.522l.987-1.234A17.42,17.42,0,0,0,172.348,0a18.155,18.155,0,0,0-17.889,18.37V40.225a13.654,13.654,0,0,0,1.509,6.235l1.4-.724A11.9,11.9,0,0,1,156.039,40.225Z" transform="translate(-139.987 0)"/>
        <path id="Trazado_1221156" data-name="Trazado 1221156" d="M209.827,82.947V85.8a7.783,7.783,0,0,0,15.566,0v-.266a9.572,9.572,0,0,1,3.719-7.587,12.62,12.62,0,0,0,4.831-10.037,12.067,12.067,0,1,0-24.116,0v4.932h.79a3.494,3.494,0,1,1,0,6.989v1.58a5.074,5.074,0,0,0,.79-10.087V67.909a11.367,11.367,0,0,1,.568-3.562,8.039,8.039,0,0,1,4.47-1.357,8.525,8.525,0,0,1,8.332,8.688,8.776,8.776,0,0,1-3.218,6.86,14.383,14.383,0,0,0-3.636,4.555l1.4.732a12.818,12.818,0,0,1,3.232-4.061,10.349,10.349,0,0,0,3.8-8.086,10.106,10.106,0,0,0-9.911-10.268,9.585,9.585,0,0,0-3.4.622,10.381,10.381,0,0,1,8.841-5.083,10.739,10.739,0,0,1,10.478,10.959A11.05,11.05,0,0,1,228.14,76.7a11.142,11.142,0,0,0-4.327,8.832V85.8a6.2,6.2,0,0,1-12.407,0V82.947h-1.58Z" transform="translate(-189.524 -49.539)"/>
        <path id="Trazado_1221157" data-name="Trazado 1221157" d="M17.04,187.344a25.457,25.457,0,0,1,1.071,7.322,25.532,25.532,0,0,1-.775,6.252l1.532.387a27.116,27.116,0,0,0,.823-6.64,27.036,27.036,0,0,0-1.138-7.776Z" transform="translate(-17.04 -167.208)"/>
        <path id="Trazado_1221158" data-name="Trazado 1221158" d="M61.258,170.606a29.421,29.421,0,0,1,.327,17.035l1.52.43a31,31,0,0,0-.344-17.952Z" transform="translate(-56.601 -152.202)"/>
        <path id="Trazado_1221159" data-name="Trazado 1221159" d="M102.548,149.629a37.051,37.051,0,0,1,.411,21.453l1.52.43a38.631,38.631,0,0,0-.429-22.371Z" transform="translate(-93.543 -133.434)"/>
        <path id="Trazado_1221160" data-name="Trazado 1221160" d="M308.178,421.7l-.467-1.509a8.545,8.545,0,0,0,1.338-.542l.715,1.408A10.12,10.12,0,0,1,308.178,421.7Zm3.041-1.544-.942-1.268a8.66,8.66,0,0,0,1.084-.956l1.14,1.094A10.244,10.244,0,0,1,311.219,420.154Zm2.359-2.46-1.307-.888a8.59,8.59,0,0,0,.708-1.259l1.437.656A10.191,10.191,0,0,1,313.578,417.695Z" transform="translate(-277.099 -371.785)" fill="#fff"/>
      </g>
    </g>
  </g>
</svg>
