<svg xmlns="http://www.w3.org/2000/svg" xmlns:xlink="http://www.w3.org/1999/xlink" width="97.533" height="97.533" viewBox="0 0 97.533 97.533">
  <defs>
    <filter id="Trazado_982547" x="0" y="0" width="97.533" height="97.533" filterUnits="userSpaceOnUse">
      <feOffset dy="3" input="SourceAlpha"/>
      <feGaussianBlur stdDeviation="3" result="blur"/>
      <feFlood flood-opacity="0.161"/>
      <feComposite operator="in" in2="blur"/>
      <feComposite in="SourceGraphic"/>
    </filter>
  </defs>
  <g id="Grupo_1242257" data-name="Grupo 1242257" transform="translate(-819.717 -8168.867)">
    <g id="Grupo_1241609" data-name="Grupo 1241609" transform="translate(-1.249 3547.144)">
      <g id="Grupo_1226148" data-name="Grupo 1226148" transform="translate(629.999 3721.724)">
        <g id="Grupo_1203701" data-name="Grupo 1203701" transform="translate(199.967 906)">
          <g id="Grupo_1203355" data-name="Grupo 1203355" transform="translate(0)">
            <g id="Grupo_1202156" data-name="Grupo 1202156">
              <g id="Grupo_1177900" data-name="Grupo 1177900">
                <g id="Grupo_1172010" data-name="Grupo 1172010">
                  <g id="Grupo_1171046" data-name="Grupo 1171046">
                    <g id="Grupo_1148525" data-name="Grupo 1148525">
                      <g transform="matrix(1, 0, 0, 1, -9, -6)" filter="url(#Trazado_982547)">
                        <g id="Trazado_982547-2" data-name="Trazado 982547" transform="translate(9 6)" fill="#fdfbec">
                          <path d="M 39.7666015625 78.033203125 C 34.59997940063477 78.033203125 29.58870124816895 77.02164459228516 24.87196731567383 75.02663421630859 C 20.31538963317871 73.099365234375 16.22284507751465 70.34000396728516 12.70802402496338 66.82518005371094 C 9.193202018737793 63.31035614013672 6.433835029602051 59.21781158447266 4.506568431854248 54.66123580932617 C 2.511557102203369 49.94449996948242 1.500001549720764 44.93322372436523 1.500001549720764 39.7666015625 C 1.500001549720764 34.59997940063477 2.511557102203369 29.58870124816895 4.506568431854248 24.87196731567383 C 6.433835029602051 20.31538963317871 9.193202018737793 16.22284507751465 12.70802402496338 12.70802402496338 C 16.22284507751465 9.193202018737793 20.31538963317871 6.433835029602051 24.87196731567383 4.506568431854248 C 29.58870124816895 2.511557102203369 34.59997940063477 1.500001549720764 39.7666015625 1.500001549720764 C 44.93322372436523 1.500001549720764 49.94449996948242 2.511557102203369 54.66123580932617 4.506568431854248 C 59.21781158447266 6.433835029602051 63.31035614013672 9.193202018737793 66.82518005371094 12.70802402496338 C 70.34000396728516 16.22284507751465 73.099365234375 20.31538963317871 75.02663421630859 24.87196731567383 C 77.02164459228516 29.58870124816895 78.033203125 34.59997940063477 78.033203125 39.7666015625 C 78.033203125 44.93322372436523 77.02164459228516 49.94449996948242 75.02663421630859 54.66123580932617 C 73.099365234375 59.21781158447266 70.34000396728516 63.31035614013672 66.82518005371094 66.82518005371094 C 63.31035614013672 70.34000396728516 59.21781158447266 73.099365234375 54.66123580932617 75.02663421630859 C 49.94449996948242 77.02164459228516 44.93322372436523 78.033203125 39.7666015625 78.033203125 Z" stroke="none"/>
                          <path d="M 39.7666015625 3 C 34.80181503295898 3 29.98714065551758 3.971687316894531 25.45630264282227 5.888076782226562 C 21.07851409912109 7.739715576171875 17.146240234375 10.39113616943359 13.76869201660156 13.76869201660156 C 10.39113616943359 17.146240234375 7.739715576171875 21.07851409912109 5.888076782226562 25.45630264282227 C 3.971687316894531 29.98714065551758 3 34.80181503295898 3 39.7666015625 C 3 44.73138809204102 3.971687316894531 49.54606628417969 5.888076782226562 54.076904296875 C 7.739715576171875 58.45468902587891 10.39113616943359 62.386962890625 13.76869201660156 65.76451110839844 C 17.146240234375 69.14206695556641 21.07851409912109 71.79348754882812 25.45630264282227 73.64512634277344 C 29.98714065551758 75.56151580810547 34.80181503295898 76.533203125 39.7666015625 76.533203125 C 44.73138809204102 76.533203125 49.54606628417969 75.56151580810547 54.076904296875 73.64512634277344 C 58.45468902587891 71.79348754882812 62.386962890625 69.14206695556641 65.76451110839844 65.76451110839844 C 69.14206695556641 62.386962890625 71.79348754882812 58.45468902587891 73.64512634277344 54.076904296875 C 75.56151580810547 49.54606628417969 76.533203125 44.73138809204102 76.533203125 39.7666015625 C 76.533203125 34.80181503295898 75.56151580810547 29.98714065551758 73.64512634277344 25.45630264282227 C 71.79348754882812 21.07851409912109 69.14206695556641 17.146240234375 65.76451110839844 13.76869201660156 C 62.386962890625 10.39113616943359 58.45468902587891 7.739715576171875 54.076904296875 5.888076782226562 C 49.54606628417969 3.971687316894531 44.73138809204102 3 39.7666015625 3 M 39.7666015625 0 C 61.72908782958984 0 79.533203125 17.80411529541016 79.533203125 39.7666015625 C 79.533203125 61.72908782958984 61.72908782958984 79.533203125 39.7666015625 79.533203125 C 17.80411529541016 79.533203125 0 61.72908782958984 0 39.7666015625 C 0 17.80411529541016 17.80411529541016 0 39.7666015625 0 Z" stroke="none" fill="#83793c"/>
                        </g>
                      </g>
                    </g>
                  </g>
                </g>
              </g>
            </g>
          </g>
        </g>
      </g>
    </g>
    <g id="trabajo-en-equipo_12_" data-name="trabajo-en-equipo (12)" transform="translate(842.913 8187.712)">
      <g id="Grupo_1242255" data-name="Grupo 1242255" transform="translate(1.053 0.868)">
        <g id="Grupo_1242234" data-name="Grupo 1242234" transform="translate(1.053 24.399)">
          <ellipse id="Elipse_11612" data-name="Elipse 11612" cx="14.213" cy="13.686" rx="14.213" ry="13.686" transform="translate(0 0)" fill="#ffeaa7"/>
        </g>
        <g id="Grupo_1242235" data-name="Grupo 1242235" transform="translate(24.214 8.607)">
          <circle id="Elipse_11613" data-name="Elipse 11613" cx="13.686" cy="13.686" r="13.686" transform="translate(0 0)" fill="#ffeaa7"/>
        </g>
        <g id="Grupo_1242236" data-name="Grupo 1242236" transform="translate(0 3.343)">
          <ellipse id="Elipse_11614" data-name="Elipse 11614" cx="13.686" cy="14.213" rx="13.686" ry="14.213" transform="translate(0 0)" fill="#ffeaa7"/>
        </g>
        <g id="Grupo_1242237" data-name="Grupo 1242237" transform="translate(38.009 27.79)">
          <path id="Trazado_1221161" data-name="Trazado 1221161" d="M47.6,33a6.54,6.54,0,0,1,2.657,1.416c.052.043.1.1.148.139a6.2,6.2,0,0,1,1.65,2.753l.6,2.076a13.79,13.79,0,0,1-7.66,2.3H44.98L45,40.816a14.549,14.549,0,0,0,2.249-5.7l.061-.382Z" transform="translate(-44.98 -33)" fill="#ff826e"/>
        </g>
        <g id="Grupo_1242238" data-name="Grupo 1242238" transform="translate(30.367 27.79)">
          <path id="Trazado_1221162" data-name="Trazado 1221162" d="M41.53,34.737l.061.382a14.549,14.549,0,0,0,2.249,5.7l-.017.868a13.781,13.781,0,0,1-7.642-2.3l.6-2.076a6.2,6.2,0,0,1,1.65-2.753c.043-.043.1-.1.148-.139A6.54,6.54,0,0,1,41.234,33Z" transform="translate(-36.18 -33)" fill="#ff826e"/>
        </g>
        <g id="Grupo_1242239" data-name="Grupo 1242239" transform="translate(35.717 29.527)">
          <path id="Trazado_1221163" data-name="Trazado 1221163" d="M46.96,35l-.061.382a14.549,14.549,0,0,1-2.249,5.7,14.549,14.549,0,0,1-2.249-5.7L42.34,35Z" transform="translate(-42.34 -35)" fill="#b4dd7f"/>
        </g>
        <g id="Grupo_1242240" data-name="Grupo 1242240" transform="translate(27.605 5.211)">
          <path id="Trazado_1221164" data-name="Trazado 1221164" d="M38.506,25.81l2.979,1.754-.669,2.015a6.54,6.54,0,0,0-2.657,1.416A8.385,8.385,0,0,1,33,23.257V17.421a10.3,10.3,0,0,1,.33-2.605,10.419,10.419,0,0,1,20.182,0,10.3,10.3,0,0,1,.33,2.605v5.836a8.385,8.385,0,0,1-5.158,7.738,6.54,6.54,0,0,0-2.657-1.416l-.669-2.015a6.94,6.94,0,0,0,5.011-6.67V17.274a1.745,1.745,0,0,0-1.581-1.737l-4.108-.373a6.944,6.944,0,0,1-2.97-.973l-3.977,1.138A1.73,1.73,0,0,0,36.474,17v3.9a6.96,6.96,0,0,0,2.032,4.915Z" transform="translate(-33 -7)" fill="#656d78"/>
        </g>
        <g id="Grupo_1242241" data-name="Grupo 1242241" transform="translate(5.026)">
          <path id="Trazado_1221165" data-name="Trazado 1221165" d="M13.973,8.191,10,9.328A1.73,1.73,0,0,0,8.737,11v2.162H7V8.816a8.107,8.107,0,0,1,.122-1.389A7.824,7.824,0,0,1,14.816,1h1.737a7.824,7.824,0,0,1,7.694,6.426,8.107,8.107,0,0,1,.122,1.389v4.342H22.632V11.274a1.745,1.745,0,0,0-1.581-1.737l-4.108-.373A6.943,6.943,0,0,1,13.973,8.191Z" transform="translate(-7 -1)" fill="#656d78"/>
        </g>
        <g id="Grupo_1242242" data-name="Grupo 1242242" transform="translate(5.026 19.105)">
          <path id="Trazado_1221166" data-name="Trazado 1221166" d="M15.71,31.927l-3.977,1.138a1.73,1.73,0,0,0-1.259,1.667v2.162H8.737l-1-1.989a7.113,7.113,0,0,1-.66-2.084,6.428,6.428,0,0,1-.069-.7C7,32,7,31.884,7,31.762a7.023,7.023,0,0,1,7.026-7.026h6.34A10.372,10.372,0,0,0,26.105,23l.182.365c.035.078.078.156.113.234a14.945,14.945,0,0,1,1.442,6.348,14.72,14.72,0,0,1-.252,2.692,14.462,14.462,0,0,1-1.3,3.891l-.182.365H24.369V35.01a1.745,1.745,0,0,0-1.581-1.737L18.68,32.9a6.943,6.943,0,0,1-2.97-.973Z" transform="translate(-7 -23)" fill="#b27946"/>
        </g>
        <g id="Grupo_1242243" data-name="Grupo 1242243" transform="translate(15.43 43.421)">
          <path id="Trazado_1221167" data-name="Trazado 1221167" d="M21.6,51a6.184,6.184,0,0,1,4.455,4.307l.6,2.076a13.79,13.79,0,0,1-7.66,2.3H18.98L19,58.816l1.737-2.605-.868-3.474Z" transform="translate(-18.98 -51)" fill="#e6e9ed"/>
        </g>
        <g id="Grupo_1242244" data-name="Grupo 1242244" transform="translate(7.788 43.421)">
          <path id="Trazado_1221168" data-name="Trazado 1221168" d="M16.1,56.211l1.737,2.605-.017.868a13.8,13.8,0,0,1-7.642-2.3l.6-2.076A6.184,6.184,0,0,1,15.234,51l1.737,1.737Z" transform="translate(-10.18 -51)" fill="#e6e9ed"/>
        </g>
        <g id="Grupo_1242245" data-name="Grupo 1242245" transform="translate(13.711 45.158)">
          <path id="Trazado_1221169" data-name="Trazado 1221169" d="M19.605,53l.868,3.474-1.737,2.605L17,56.474,17.868,53Z" transform="translate(-17 -53)" fill="#ff826e"/>
        </g>
        <g id="Grupo_1242246" data-name="Grupo 1242246" transform="translate(22.178 33)">
          <path id="Trazado_1221170" data-name="Trazado 1221170" d="M28.7,39a1.742,1.742,0,0,1,1.737,1.737A1.75,1.75,0,0,1,28.7,42.474H26.75a7.155,7.155,0,0,0,.217-1.737V39Z" transform="translate(-26.75 -39)" fill="#f0d0b4"/>
        </g>
        <g id="Grupo_1242247" data-name="Grupo 1242247" transform="translate(12.842 41.407)">
          <path id="Trazado_1221171" data-name="Trazado 1221171" d="M20.542,48.68l.669,2.015-1.737,1.737H17.737L16,50.695l.669-2.015a6.887,6.887,0,0,0,3.873,0Z" transform="translate(-16 -48.68)" fill="#f0d0b4"/>
        </g>
        <g id="Grupo_1242248" data-name="Grupo 1242248" transform="translate(8.5 28.033)">
          <path id="Trazado_1221172" data-name="Trazado 1221172" d="M24.895,38.247v1.737a7.155,7.155,0,0,1-.217,1.737,6.972,6.972,0,0,1-4.794,4.933,6.887,6.887,0,0,1-3.873,0L13.032,44.9a7.053,7.053,0,0,1-1.815-3.178A7.155,7.155,0,0,1,11,39.984v-3.9a1.73,1.73,0,0,1,1.259-1.667l3.977-1.138a6.943,6.943,0,0,0,2.97.973l4.108.373a1.745,1.745,0,0,1,1.581,1.737Z" transform="translate(-11 -33.28)" fill="#f0d0b4"/>
        </g>
        <g id="Grupo_1242249" data-name="Grupo 1242249" transform="translate(5.026 33)">
          <path id="Trazado_1221173" data-name="Trazado 1221173" d="M10.474,39v1.737a7.155,7.155,0,0,0,.217,1.737H8.737A1.75,1.75,0,0,1,7,40.737,1.742,1.742,0,0,1,8.737,39Z" transform="translate(-7 -39)" fill="#f0d0b4"/>
        </g>
        <g id="Grupo_1242250" data-name="Grupo 1242250" transform="translate(35.421 25.775)">
          <path id="Trazado_1221174" data-name="Trazado 1221174" d="M46.542,30.68l.669,2.015-.3,1.737H42.3L42,32.695l.669-2.015a6.887,6.887,0,0,0,3.873,0Z" transform="translate(-42 -30.68)" fill="#f0d0b4"/>
        </g>
        <g id="Grupo_1242251" data-name="Grupo 1242251" transform="translate(31.079 12.401)">
          <path id="Trazado_1221175" data-name="Trazado 1221175" d="M50.895,18.363v3.621a6.94,6.94,0,0,1-5.011,6.67,6.887,6.887,0,0,1-3.873,0L39.032,26.9A6.96,6.96,0,0,1,37,21.984v-3.9a1.73,1.73,0,0,1,1.259-1.667l3.977-1.138a6.943,6.943,0,0,0,2.97.973l4.108.373a1.745,1.745,0,0,1,1.581,1.737Z" transform="translate(-37 -15.28)" fill="#f0d0b4"/>
        </g>
        <g id="Grupo_1242252" data-name="Grupo 1242252" transform="translate(20.441 12.158)">
          <path id="Trazado_1221176" data-name="Trazado 1221176" d="M26.7,15a1.742,1.742,0,0,1,1.737,1.737A1.75,1.75,0,0,1,26.7,18.474H24.75a7.155,7.155,0,0,0,.217-1.737V15Z" transform="translate(-24.75 -15)" fill="#f0d0b4"/>
        </g>
        <g id="Grupo_1242253" data-name="Grupo 1242253" transform="translate(6.763 7.191)">
          <path id="Trazado_1221177" data-name="Trazado 1221177" d="M22.895,14.247v1.737a7.155,7.155,0,0,1-.217,1.737A6.955,6.955,0,0,1,11.032,20.9a7.053,7.053,0,0,1-1.815-3.178A7.155,7.155,0,0,1,9,15.984v-3.9a1.73,1.73,0,0,1,1.259-1.667L14.237,9.28a6.943,6.943,0,0,0,2.97.973l4.108.373a1.745,1.745,0,0,1,1.581,1.737Z" transform="translate(-9 -9.28)" fill="#f0d0b4"/>
        </g>
        <g id="Grupo_1242254" data-name="Grupo 1242254" transform="translate(3.289 12.158)">
          <path id="Trazado_1221178" data-name="Trazado 1221178" d="M8.691,18.474H6.737A1.75,1.75,0,0,1,5,16.737,1.742,1.742,0,0,1,6.737,15H8.474v1.737A7.155,7.155,0,0,0,8.691,18.474Z" transform="translate(-5 -15)" fill="#f0d0b4"/>
        </g>
      </g>
      <g id="Grupo_1242256" data-name="Grupo 1242256" transform="translate(0)">
        <ellipse id="Elipse_11615" data-name="Elipse 11615" cx="0.526" cy="1.053" rx="0.526" ry="1.053" transform="translate(12.634 32.637)"/>
        <circle id="Elipse_11616" data-name="Elipse 11616" cx="1.053" cy="1.053" r="1.053" transform="translate(18.95 32.637)"/>
        <path id="Trazado_1221179" data-name="Trazado 1221179" d="M20.225,42.736a1.942,1.942,0,0,1-3.474,0l-.091-.183-1.554.777.091.183a3.679,3.679,0,0,0,6.581,0l.091-.183-1.554-.777Z" transform="translate(-1.988 -5.599)"/>
        <ellipse id="Elipse_11617" data-name="Elipse 11617" cx="1.053" cy="0.526" rx="1.053" ry="0.526" transform="translate(10.528 12.634)"/>
        <ellipse id="Elipse_11618" data-name="Elipse 11618" cx="1.053" cy="0.526" rx="1.053" ry="0.526" transform="translate(16.845 12.634)"/>
        <path id="Trazado_1221180" data-name="Trazado 1221180" d="M18.225,18.736a1.942,1.942,0,0,1-3.474,0l-.091-.183-1.554.777.091.183a3.679,3.679,0,0,0,6.581,0l.091-.183-1.554-.777Z" transform="translate(-1.724 -2.441)"/>
        <circle id="Elipse_11619" data-name="Elipse 11619" cx="1.053" cy="1.053" r="1.053" transform="translate(34.742 16.845)"/>
        <ellipse id="Elipse_11620" data-name="Elipse 11620" cx="0.526" cy="1.053" rx="0.526" ry="1.053" transform="translate(42.112 16.845)"/>
        <path id="Trazado_1221181" data-name="Trazado 1221181" d="M46.225,24.736a1.942,1.942,0,0,1-3.474,0l-.091-.183-1.554.777.091.183a3.679,3.679,0,0,0,6.581,0l.091-.183-1.554-.777Z" transform="translate(-5.408 -3.23)"/>
        <path id="Trazado_1221182" data-name="Trazado 1221182" d="M49.942,13.462a11.273,11.273,0,0,0-21.491-.731,14.858,14.858,0,0,0-4.34-5.909A8.7,8.7,0,0,0,15.632,0H13.895a8.7,8.7,0,0,0-8.48,6.829A14.721,14.721,0,0,0,5.256,29.51a.167.167,0,0,1,0,.021,14.778,14.778,0,1,0,25.6,6.176,14.618,14.618,0,0,0,8.22,2.5A14.754,14.754,0,0,0,49.942,13.462ZM39.079,6.947A9.564,9.564,0,0,1,48.632,16.5v5.836a7.473,7.473,0,0,1-4.188,6.716,7.055,7.055,0,0,0-2.079-1.1l-.257-.771A7.83,7.83,0,0,0,46.9,19.974V16.349a2.592,2.592,0,0,0-2.37-2.594l-4.105-.373a6.067,6.067,0,0,1-4.907-3.349l-1.554.777A7.893,7.893,0,0,0,35.478,12.9l-2.325.664a2.615,2.615,0,0,0-1.89,2.5v3.9a7.828,7.828,0,0,0,4.788,7.2l-.257.771a7.055,7.055,0,0,0-2.079,1.1,7.471,7.471,0,0,1-4.188-6.715V16.5a9.564,9.564,0,0,1,9.553-9.553ZM29.713,32.494a14.79,14.79,0,0,0-2.122-3.137,15.4,15.4,0,0,0-1.2-8.863,12.938,12.938,0,0,1,1.394-3.535v5.377a9.214,9.214,0,0,0,4.616,8,7.036,7.036,0,0,0-1.224,2.393l-.248.867A13.153,13.153,0,0,1,29.713,32.494ZM16.69,46.9l.611,2.443-.8,1.2-.8-1.2L16.31,46.9Zm-3.036-1.618,1.015,1.015-.842,3.369L15.42,52.05a12.916,12.916,0,0,1-5.556-1.783l.408-1.429a5.346,5.346,0,0,1,3.383-3.561Zm5.519,4.386-.842-3.37,1.015-1.015a5.344,5.344,0,0,1,3.383,3.562l.408,1.429a12.908,12.908,0,0,1-5.555,1.782Zm-1.061-5.607-1.1,1.1H15.991l-1.1-1.1.254-.76a7.388,7.388,0,0,0,2.716,0ZM16.5,41.685a6.086,6.086,0,0,1-6.079-6.079v-3.9a.87.87,0,0,1,.63-.835l3.612-1.033a7.855,7.855,0,0,0,3.021.906l4.105.373a.864.864,0,0,1,.79.864v3.624A6.088,6.088,0,0,1,16.5,41.685Zm5.446-12.3-4.105-.373a6.067,6.067,0,0,1-4.907-3.349l-1.554.777A7.893,7.893,0,0,0,12.9,28.537l-2.325.664a2.615,2.615,0,0,0-1.89,2.5V33H8.353L7.6,31.49A6.158,6.158,0,0,1,13.1,22.579h6.343a11.171,11.171,0,0,0,5.371-1.37A13.806,13.806,0,0,1,24.639,33h-.323v-1.02A2.592,2.592,0,0,0,21.946,29.387Zm-14.13,5.35h.868v.868a7.759,7.759,0,0,0,.051.868h-.92a.868.868,0,0,1,0-1.737Zm6.947-13.895a6.086,6.086,0,0,1-6.079-6.079v-3.9a.87.87,0,0,1,.63-.835L12.927,9a7.855,7.855,0,0,0,3.021.906l4.105.373a.864.864,0,0,1,.79.864v3.624A6.088,6.088,0,0,1,14.763,20.842Zm9.553,14.763v-.868h.868a.868.868,0,0,1,0,1.737h-.92A7.759,7.759,0,0,0,24.316,35.606Zm8.536-2.4a5.343,5.343,0,0,1,2.936-3.384l.183,1.1a15.349,15.349,0,0,0,2.069,5.5,12.843,12.843,0,0,1-5.6-1.773Zm6.227-7.155A6.086,6.086,0,0,1,33,19.974v-3.9a.87.87,0,0,1,.63-.835l3.612-1.033a7.855,7.855,0,0,0,3.021.906l4.105.373a.864.864,0,0,1,.79.864v3.624a6.088,6.088,0,0,1-6.08,6.079Zm0,1.737a7.868,7.868,0,0,0,1.358-.126l.355,1.066-.133.8H37.5l-.133-.8.355-1.066A7.784,7.784,0,0,0,39.079,27.79Zm1.265,3.474a13.561,13.561,0,0,1-1.265,3.516,13.593,13.593,0,0,1-1.265-3.516Zm1.843-.341.183-1.1a5.343,5.343,0,0,1,2.936,3.384l.408,1.429a12.917,12.917,0,0,1-5.6,1.785A15.332,15.332,0,0,0,42.187,30.922ZM27.266,14.6a14.712,14.712,0,0,0-2.279,4.458l-.284.189a9.443,9.443,0,0,1-5.026,1.582,7.849,7.849,0,0,0,2.447-3.465h1.323a2.6,2.6,0,0,0,.868-5.051V9.386A13.086,13.086,0,0,1,27.266,14.6Zm-4.687.159v-.868h.868a.868.868,0,0,1,0,1.737h-.92A7.759,7.759,0,0,0,22.579,14.763ZM6.947,8.684a6.956,6.956,0,0,1,6.947-6.947h1.737a6.956,6.956,0,0,1,6.947,6.947v2.454a2.592,2.592,0,0,0-2.37-2.594L16.1,8.171A6.067,6.067,0,0,1,11.2,4.822L9.644,5.6a7.893,7.893,0,0,0,1.518,2.095l-2.325.664a2.615,2.615,0,0,0-1.89,2.5Zm-.868,5.211h.868v.868A7.759,7.759,0,0,0,7,15.632h-.92a.868.868,0,1,1,0-1.737ZM1.737,18.237A12.927,12.927,0,0,1,5.211,9.406v2.912a2.6,2.6,0,0,0,.868,5.051H7.4a7.844,7.844,0,0,0,3.084,3.93,7.913,7.913,0,0,0-5.129,5.937A12.948,12.948,0,0,1,1.737,18.237ZM3.474,39.079a12.993,12.993,0,0,1,2.319-7.4c.079.2.156.4.251.586l.531,1.062a2.6,2.6,0,0,0,1.241,4.881H9.14a7.854,7.854,0,0,0,4.333,4.6l-.257.771A7.091,7.091,0,0,0,8.6,48.364l-.248.866a13,13,0,0,1-4.881-10.15Zm21.171,10.15-.248-.866a7.093,7.093,0,0,0-4.613-4.782l-.257-.771a7.851,7.851,0,0,0,4.333-4.6h1.324a2.6,2.6,0,0,0,1.224-4.891,15.568,15.568,0,0,0,.682-1.8,12.98,12.98,0,0,1-2.445,17.713ZM47.224,33.6l-.248-.866a7.028,7.028,0,0,0-1.224-2.393,9.217,9.217,0,0,0,4.616-8V16.972A12.975,12.975,0,0,1,47.224,33.6Z" transform="translate(0)"/>
      </g>
    </g>
  </g>
</svg>
