<svg xmlns="http://www.w3.org/2000/svg" xmlns:xlink="http://www.w3.org/1999/xlink" width="97.533" height="97.533" viewBox="0 0 97.533 97.533">
  <defs>
    <filter id="Trazado_982547" x="0" y="0" width="97.533" height="97.533" filterUnits="userSpaceOnUse">
      <feOffset dy="3" input="SourceAlpha"/>
      <feGaussianBlur stdDeviation="3" result="blur"/>
      <feFlood flood-opacity="0.161"/>
      <feComposite operator="in" in2="blur"/>
      <feComposite in="SourceGraphic"/>
    </filter>
  </defs>
  <g id="Grupo_1242261" data-name="Grupo 1242261" transform="translate(-189.717 -9406.143)">
    <g id="Grupo_1241613" data-name="Grupo 1241613" transform="translate(-0.25 3552.91)">
      <g id="Grupo_1226208" data-name="Grupo 1226208" transform="translate(-1 4953.233)">
        <g id="Grupo_1203701" data-name="Grupo 1203701" transform="translate(199.967 906)">
          <g id="Grupo_1203355" data-name="Grupo 1203355" transform="translate(0)">
            <g id="Grupo_1202156" data-name="Grupo 1202156">
              <g id="Grupo_1177900" data-name="Grupo 1177900">
                <g id="Grupo_1172010" data-name="Grupo 1172010">
                  <g id="Grupo_1171046" data-name="Grupo 1171046">
                    <g id="Grupo_1148525" data-name="Grupo 1148525">
                      <g transform="matrix(1, 0, 0, 1, -9, -6)" filter="url(#Trazado_982547)">
                        <g id="Trazado_982547-2" data-name="Trazado 982547" transform="translate(9 6)" fill="#fdfbec">
                          <path d="M 39.7666015625 78.033203125 C 34.59997940063477 78.033203125 29.58870124816895 77.02164459228516 24.87196731567383 75.02663421630859 C 20.31538963317871 73.099365234375 16.22284507751465 70.34000396728516 12.70802402496338 66.82518005371094 C 9.193202018737793 63.31035614013672 6.433835029602051 59.21781158447266 4.506568431854248 54.66123580932617 C 2.511557102203369 49.94449996948242 1.500001549720764 44.93322372436523 1.500001549720764 39.7666015625 C 1.500001549720764 34.59997940063477 2.511557102203369 29.58870124816895 4.506568431854248 24.87196731567383 C 6.433835029602051 20.31538963317871 9.193202018737793 16.22284507751465 12.70802402496338 12.70802402496338 C 16.22284507751465 9.193202018737793 20.31538963317871 6.433835029602051 24.87196731567383 4.506568431854248 C 29.58870124816895 2.511557102203369 34.59997940063477 1.500001549720764 39.7666015625 1.500001549720764 C 44.93322372436523 1.500001549720764 49.94449996948242 2.511557102203369 54.66123580932617 4.506568431854248 C 59.21781158447266 6.433835029602051 63.31035614013672 9.193202018737793 66.82518005371094 12.70802402496338 C 70.34000396728516 16.22284507751465 73.099365234375 20.31538963317871 75.02663421630859 24.87196731567383 C 77.02164459228516 29.58870124816895 78.033203125 34.59997940063477 78.033203125 39.7666015625 C 78.033203125 44.93322372436523 77.02164459228516 49.94449996948242 75.02663421630859 54.66123580932617 C 73.099365234375 59.21781158447266 70.34000396728516 63.31035614013672 66.82518005371094 66.82518005371094 C 63.31035614013672 70.34000396728516 59.21781158447266 73.099365234375 54.66123580932617 75.02663421630859 C 49.94449996948242 77.02164459228516 44.93322372436523 78.033203125 39.7666015625 78.033203125 Z" stroke="none"/>
                          <path d="M 39.7666015625 3 C 34.80181503295898 3 29.98714065551758 3.971687316894531 25.45630264282227 5.888076782226562 C 21.07851409912109 7.739715576171875 17.146240234375 10.39113616943359 13.76869201660156 13.76869201660156 C 10.39113616943359 17.146240234375 7.739715576171875 21.07851409912109 5.888076782226562 25.45630264282227 C 3.971687316894531 29.98714065551758 3 34.80181503295898 3 39.7666015625 C 3 44.73138809204102 3.971687316894531 49.54606628417969 5.888076782226562 54.076904296875 C 7.739715576171875 58.45468902587891 10.39113616943359 62.386962890625 13.76869201660156 65.76451110839844 C 17.146240234375 69.14206695556641 21.07851409912109 71.79348754882812 25.45630264282227 73.64512634277344 C 29.98714065551758 75.56151580810547 34.80181503295898 76.533203125 39.7666015625 76.533203125 C 44.73138809204102 76.533203125 49.54606628417969 75.56151580810547 54.076904296875 73.64512634277344 C 58.45468902587891 71.79348754882812 62.386962890625 69.14206695556641 65.76451110839844 65.76451110839844 C 69.14206695556641 62.386962890625 71.79348754882812 58.45468902587891 73.64512634277344 54.076904296875 C 75.56151580810547 49.54606628417969 76.533203125 44.73138809204102 76.533203125 39.7666015625 C 76.533203125 34.80181503295898 75.56151580810547 29.98714065551758 73.64512634277344 25.45630264282227 C 71.79348754882812 21.07851409912109 69.14206695556641 17.146240234375 65.76451110839844 13.76869201660156 C 62.386962890625 10.39113616943359 58.45468902587891 7.739715576171875 54.076904296875 5.888076782226562 C 49.54606628417969 3.971687316894531 44.73138809204102 3 39.7666015625 3 M 39.7666015625 0 C 61.72908782958984 0 79.533203125 17.80411529541016 79.533203125 39.7666015625 C 79.533203125 61.72908782958984 61.72908782958984 79.533203125 39.7666015625 79.533203125 C 17.80411529541016 79.533203125 0 61.72908782958984 0 39.7666015625 C 0 17.80411529541016 17.80411529541016 0 39.7666015625 0 Z" stroke="none" fill="#83793c"/>
                        </g>
                      </g>
                    </g>
                  </g>
                </g>
              </g>
            </g>
          </g>
        </g>
      </g>
    </g>
    <g id="pistas" transform="translate(213.434 9426.865)">
      <g id="Grupo_1242259" data-name="Grupo 1242259" transform="translate(3.38 3.079)">
        <path id="Trazado_1221183" data-name="Trazado 1221183" d="M135.286,47.125c-2.831-11.118-5.837-14.224-5.837-14.224l-13.915,4.728L107.594,49.8s15.693,2.977,15.693,1.937c0-2.336-.069-6.681,3.332-7.406,2.171-.463,3.712.967,4.232,3.17a6.065,6.065,0,0,0,4.435-.379Z" transform="translate(-100.444 -32.762)" fill="#dc8995"/>
        <path id="Trazado_1221184" data-name="Trazado 1221184" d="M236.8,45.178l-4.316-12.7a1.471,1.471,0,0,0-1.866-.919l-.178.06,4.346,12.789a.734.734,0,0,1-.459.931l-1.689.574a.736.736,0,0,1-.944-.5,4.229,4.229,0,1,0-7.813,3.121.727.727,0,0,1-.473.518l-3.872,1.316.336.987,1.915.48L226.31,50.3a.736.736,0,0,0,.254-1.241,3.131,3.131,0,0,1,1.351-5.309,3.074,3.074,0,0,1,.772-.1,3.126,3.126,0,0,1,3.1,2.558,3.1,3.1,0,0,1,.01,1.09.733.733,0,0,0,.959.813l3.127-1.063A1.47,1.47,0,0,0,236.8,45.178Z" transform="translate(-201.438 -31.48)" fill="#d5717f"/>
        <path id="Trazado_1221185" data-name="Trazado 1221185" d="M52.08,91.945a3.131,3.131,0,1,1-1.766-5.234.733.733,0,0,0,.817-.959l-1.536-4.52L35.5,86.022a1.47,1.47,0,0,0-.919,1.866l4.789,14.093,10.662,6.672,3.872-9.58.272-4.356L53.321,92.2A.736.736,0,0,0,52.08,91.945Z" transform="translate(-34.504 -76.366)" fill="#f7e365"/>
        <path id="Trazado_1221186" data-name="Trazado 1221186" d="M221.592,220.29l1.063,3.127.952-2.354-.68-2-.876.3A.734.734,0,0,0,221.592,220.29Z" transform="translate(-203.254 -200.711)" fill="#f3d332"/>
        <path id="Trazado_1221187" data-name="Trazado 1221187" d="M102.147,254.076c5.87-1.357,4.788-3.958,3.343-5.775a3.13,3.13,0,0,0-2.971.908.747.747,0,0,1-.628.235,2.536,2.536,0,0,1-1.859-1.513c-.509-.991-1.859-2.961-1.859-2.961l-2.949,1a.736.736,0,0,0-.254,1.241,3.131,3.131,0,1,1-5.234,1.766.733.733,0,0,0-.959-.817l-4.52,1.536,4.582,13.484,15.011-3.834S101.916,254.13,102.147,254.076Z" transform="translate(-79.39 -224.084)" fill="#dc8995"/>
        <path id="Trazado_1221188" data-name="Trazado 1221188" d="M230.211,244.525a.719.719,0,0,1-.613-.489l-1.536-4.519-1.57.534,1.351,3.977a.734.734,0,0,0,.695.5Z" transform="translate(-207.71 -219.164)" fill="#d5717f"/>
        <path id="Trazado_1221189" data-name="Trazado 1221189" d="M147.744,279.024a3.288,3.288,0,0,1-1.756,4.484,2.3,2.3,0,0,1-1.241.232,3.4,3.4,0,0,1-.4-.1.734.734,0,0,0-.9.94l1.325,3.9a.734.734,0,0,1-.459.931l-13.22,4.492.207.609a1.471,1.471,0,0,0,1.866.919l12.7-4.316a1.471,1.471,0,0,0,.919-1.866l-1.063-3.127a.731.731,0,0,1,.807-.96,3.122,3.122,0,0,0,2.855-1l.717-2.8h0A3.129,3.129,0,0,0,147.744,279.024Z" transform="translate(-121.644 -254.806)" fill="#d5717f"/>
        <path id="Trazado_1221190" data-name="Trazado 1221190" d="M332.384,248.319h-2.817s-1.145-.036-1.284-.5c-.211-.7.54-2.067.426-3.211a2.8,2.8,0,0,0-1.255-1.7,3.078,3.078,0,0,0-1.068-.272,3.131,3.131,0,0,0-2.987,4.592.736.736,0,0,1-.639,1.093h-3.3a1.471,1.471,0,0,0-1.471,1.471v2.369a4.576,4.576,0,0,1,3.127.265,4.363,4.363,0,0,1,2.559,4.3,3.131,3.131,0,0,1-4.6,2.537.733.733,0,0,0-1.082.645v2.817l15.373.979Z" transform="translate(-290.253 -221.969)" fill="#f7e365"/>
        <g id="Grupo_1242258" data-name="Grupo 1242258" transform="translate(27.733 20.936)">
          <path id="Trazado_1221191" data-name="Trazado 1221191" d="M320.55,332.962a4.022,4.022,0,0,0-2.563.691v.934a.736.736,0,0,0,1.093.639,3.131,3.131,0,0,1,4.592,2.561v-1.762A3.2,3.2,0,0,0,320.55,332.962Z" transform="translate(-317.987 -324.4)" fill="#f3d332"/>
          <path id="Trazado_1221192" data-name="Trazado 1221192" d="M414.153,249.736a.733.733,0,0,0,.6,1.161H416.2a.733.733,0,0,1-.645-1.082,3.129,3.129,0,0,0-1.469-4.332,3.086,3.086,0,0,1,.766,1.7A3.625,3.625,0,0,1,414.153,249.736Z" transform="translate(-404.619 -245.484)" fill="#f3d332"/>
          <path id="Trazado_1221193" data-name="Trazado 1221193" d="M332.871,300.819h-.486v13.664a.734.734,0,0,1-.734.734H317.987v.486a1.471,1.471,0,0,0,1.471,1.471h13.414a1.471,1.471,0,0,0,1.471-1.471V302.29A1.471,1.471,0,0,0,332.871,300.819Z" transform="translate(-317.987 -295.406)" fill="#f3d332"/>
        </g>
      </g>
      <g id="Grupo_1242260" data-name="Grupo 1242260" transform="translate(0.005 -0.001)">
        <path id="Trazado_1221194" data-name="Trazado 1221194" d="M70.349,50.322h-3.3a3.864,3.864,0,1,0-6.818-.014.026.026,0,0,1,0,.015h-3.3a2.207,2.207,0,0,0-.293.02,3.822,3.822,0,0,0-1.675-1.771,3.865,3.865,0,0,0-4.643.758.027.027,0,0,1-.012.009l-1.3-3.821,3.824-1.3a1.448,1.448,0,0,0,.958-1.073,1.475,1.475,0,0,0-.439-1.4A2.4,2.4,0,0,1,54.4,37.682a2.4,2.4,0,0,1,2.972,2.712,1.467,1.467,0,0,0,1.918,1.633l3.127-1.063a2.2,2.2,0,0,0,1.378-2.8l-4.316-12.7a2.2,2.2,0,0,0-2.8-1.378L45.618,27.849a.734.734,0,0,0,.472,1.389L57.151,25.48a.737.737,0,0,1,.935.461L62.4,38.64a.737.737,0,0,1-.461.935l-3.126,1.062a3.865,3.865,0,1,0-7.471.608,7.4,7.4,0,0,0,1.02,1.584l-3.821,1.3-.28-.824a.734.734,0,1,0-1.389.472l.28.824-3.824,1.3a1.448,1.448,0,0,0-.958,1.073,1.475,1.475,0,0,0,.439,1.4,2.4,2.4,0,0,1-1.037,4.065A2.4,2.4,0,0,1,38.8,49.723a1.467,1.467,0,0,0-1.918-1.633l-3.825,1.3L28.5,35.992a.738.738,0,0,1,.461-.935l13.4-4.553,1.3,3.824a3.865,3.865,0,1,0,2.18,6.46.027.027,0,0,1,.012-.009l.136.4a.734.734,0,1,0,1.389-.472l-.137-.4a1.449,1.449,0,0,0-1.073-.958,1.476,1.476,0,0,0-1.4.439,2.4,2.4,0,0,1-4.065-1.037,2.4,2.4,0,0,1,2.712-2.972,1.467,1.467,0,0,0,1.633-1.918l-1.536-4.52a.734.734,0,0,0-.931-.459L28.493,33.668a2.2,2.2,0,0,0-1.378,2.8L36.693,64.65a2.2,2.2,0,0,0,2.8,1.378l12.7-4.316a2.2,2.2,0,0,0,1.378-2.8l-1.062-3.126c1.367.257,2.1-.123,2.225-.291v.331a1.449,1.449,0,0,0,.708,1.253,1.475,1.475,0,0,0,1.465.034,2.4,2.4,0,0,1,3.515,2.289,2.4,2.4,0,0,1-3.524,1.941,1.467,1.467,0,0,0-2.163,1.291v3.3a2.207,2.207,0,0,0,2.2,2.2H70.349a2.207,2.207,0,0,0,2.2-2.2v-5.1a.734.734,0,0,0-1.467,0v5.1a.738.738,0,0,1-.737.737H56.935a.738.738,0,0,1-.737-.737v-3.3a3.864,3.864,0,1,0,.014-6.818s-.015-3.294-.015-3.294a.738.738,0,0,1,.737-.737h3.3a1.449,1.449,0,0,0,1.253-.708,1.475,1.475,0,0,0,.034-1.465A2.4,2.4,0,0,1,63.814,46.1a2.4,2.4,0,0,1,1.941,3.524,1.467,1.467,0,0,0,1.291,2.163h3.3a.738.738,0,0,1,.737.737v5.381a.734.734,0,0,0,1.467,0V52.527a2.207,2.207,0,0,0-2.2-2.2ZM54.046,54.2a2.4,2.4,0,0,1-1.3.145,1.467,1.467,0,0,0-1.633,1.918l1.063,3.127a.737.737,0,0,1-.461.935l-12.7,4.316a.737.737,0,0,1-.935-.461l-4.553-13.4,3.824-1.3a3.864,3.864,0,1,0,6.46-2.18s3.812-1.311,3.812-1.311l1.3,3.824A1.449,1.449,0,0,0,50,50.772a1.475,1.475,0,0,0,1.4-.439,2.4,2.4,0,0,1,3.94.679,2.2,2.2,0,0,0-.6,1.514V53.77a2.338,2.338,0,0,1-.685.427Z" transform="translate(-24.356 -21.626)"/>
        <path id="Trazado_1221195" data-name="Trazado 1221195" d="M11.467,392.114a.734.734,0,0,0-1.389.472,3.014,3.014,0,0,1,.107.4A2.977,2.977,0,1,1,6.3,390.726a.734.734,0,0,0,.459-.931l-1.249-3.674a.734.734,0,1,0-1.389.472l1.032,3.035A4.45,4.45,0,0,0,3.133,395.2a4.46,4.46,0,0,0,4.136,2.793,4.442,4.442,0,0,0,4.357-5.274,4.539,4.539,0,0,0-.159-.6Z" transform="translate(-2.537 -347.897)"/>
        <path id="Trazado_1221196" data-name="Trazado 1221196" d="M424.848,8.358a4.45,4.45,0,0,0,2.021-5.567,4.445,4.445,0,0,0-8.493,2.481,4.5,4.5,0,0,0,.159.6.734.734,0,0,0,1.389-.472,3.026,3.026,0,0,1-.107-.4A2.977,2.977,0,1,1,423.7,7.261a.734.734,0,0,0-.459.931l1.249,3.674a.734.734,0,1,0,1.389-.472Z" transform="translate(-377.375 0.001)"/>
        <circle id="Elipse_11621" data-name="Elipse 11621" cx="0.734" cy="0.734" r="0.734" transform="translate(48.622 15.444)"/>
        <circle id="Elipse_11622" data-name="Elipse 11622" cx="0.734" cy="0.734" r="0.734" transform="translate(0 33.179)"/>
      </g>
    </g>
  </g>
</svg>
