<svg xmlns="http://www.w3.org/2000/svg" xmlns:xlink="http://www.w3.org/1999/xlink" width="97.533" height="97.533" viewBox="0 0 97.533 97.533">
  <defs>
    <filter id="Trazado_982547" x="0" y="0" width="97.533" height="97.533" filterUnits="userSpaceOnUse">
      <feOffset dy="3" input="SourceAlpha"/>
      <feGaussianBlur stdDeviation="3" result="blur"/>
      <feFlood flood-opacity="0.161"/>
      <feComposite operator="in" in2="blur"/>
      <feComposite in="SourceGraphic"/>
    </filter>
  </defs>
  <g id="Grupo_1242276" data-name="Grupo 1242276" transform="translate(-1029.717 -9406.143)">
    <g id="Grupo_1241615" data-name="Grupo 1241615" transform="translate(-0.25 3552.91)">
      <g id="Grupo_1226210" data-name="Grupo 1226210" transform="translate(839 4953.233)">
        <g id="Grupo_1203701" data-name="Grupo 1203701" transform="translate(199.967 906)">
          <g id="Grupo_1203355" data-name="Grupo 1203355" transform="translate(0)">
            <g id="Grupo_1202156" data-name="Grupo 1202156">
              <g id="Grupo_1177900" data-name="Grupo 1177900">
                <g id="Grupo_1172010" data-name="Grupo 1172010">
                  <g id="Grupo_1171046" data-name="Grupo 1171046">
                    <g id="Grupo_1148525" data-name="Grupo 1148525">
                      <g transform="matrix(1, 0, 0, 1, -9, -6)" filter="url(#Trazado_982547)">
                        <g id="Trazado_982547-2" data-name="Trazado 982547" transform="translate(9 6)" fill="#fdfbec">
                          <path d="M 39.7666015625 78.033203125 C 34.59997940063477 78.033203125 29.58870124816895 77.02164459228516 24.87196731567383 75.02663421630859 C 20.31538963317871 73.099365234375 16.22284507751465 70.34000396728516 12.70802402496338 66.82518005371094 C 9.193202018737793 63.31035614013672 6.433835029602051 59.21781158447266 4.506568431854248 54.66123580932617 C 2.511557102203369 49.94449996948242 1.500001549720764 44.93322372436523 1.500001549720764 39.7666015625 C 1.500001549720764 34.59997940063477 2.511557102203369 29.58870124816895 4.506568431854248 24.87196731567383 C 6.433835029602051 20.31538963317871 9.193202018737793 16.22284507751465 12.70802402496338 12.70802402496338 C 16.22284507751465 9.193202018737793 20.31538963317871 6.433835029602051 24.87196731567383 4.506568431854248 C 29.58870124816895 2.511557102203369 34.59997940063477 1.500001549720764 39.7666015625 1.500001549720764 C 44.93322372436523 1.500001549720764 49.94449996948242 2.511557102203369 54.66123580932617 4.506568431854248 C 59.21781158447266 6.433835029602051 63.31035614013672 9.193202018737793 66.82518005371094 12.70802402496338 C 70.34000396728516 16.22284507751465 73.099365234375 20.31538963317871 75.02663421630859 24.87196731567383 C 77.02164459228516 29.58870124816895 78.033203125 34.59997940063477 78.033203125 39.7666015625 C 78.033203125 44.93322372436523 77.02164459228516 49.94449996948242 75.02663421630859 54.66123580932617 C 73.099365234375 59.21781158447266 70.34000396728516 63.31035614013672 66.82518005371094 66.82518005371094 C 63.31035614013672 70.34000396728516 59.21781158447266 73.099365234375 54.66123580932617 75.02663421630859 C 49.94449996948242 77.02164459228516 44.93322372436523 78.033203125 39.7666015625 78.033203125 Z" stroke="none"/>
                          <path d="M 39.7666015625 3 C 34.80181503295898 3 29.98714065551758 3.971687316894531 25.45630264282227 5.888076782226562 C 21.07851409912109 7.739715576171875 17.146240234375 10.39113616943359 13.76869201660156 13.76869201660156 C 10.39113616943359 17.146240234375 7.739715576171875 21.07851409912109 5.888076782226562 25.45630264282227 C 3.971687316894531 29.98714065551758 3 34.80181503295898 3 39.7666015625 C 3 44.73138809204102 3.971687316894531 49.54606628417969 5.888076782226562 54.076904296875 C 7.739715576171875 58.45468902587891 10.39113616943359 62.386962890625 13.76869201660156 65.76451110839844 C 17.146240234375 69.14206695556641 21.07851409912109 71.79348754882812 25.45630264282227 73.64512634277344 C 29.98714065551758 75.56151580810547 34.80181503295898 76.533203125 39.7666015625 76.533203125 C 44.73138809204102 76.533203125 49.54606628417969 75.56151580810547 54.076904296875 73.64512634277344 C 58.45468902587891 71.79348754882812 62.386962890625 69.14206695556641 65.76451110839844 65.76451110839844 C 69.14206695556641 62.386962890625 71.79348754882812 58.45468902587891 73.64512634277344 54.076904296875 C 75.56151580810547 49.54606628417969 76.533203125 44.73138809204102 76.533203125 39.7666015625 C 76.533203125 34.80181503295898 75.56151580810547 29.98714065551758 73.64512634277344 25.45630264282227 C 71.79348754882812 21.07851409912109 69.14206695556641 17.146240234375 65.76451110839844 13.76869201660156 C 62.386962890625 10.39113616943359 58.45468902587891 7.739715576171875 54.076904296875 5.888076782226562 C 49.54606628417969 3.971687316894531 44.73138809204102 3 39.7666015625 3 M 39.7666015625 0 C 61.72908782958984 0 79.533203125 17.80411529541016 79.533203125 39.7666015625 C 79.533203125 61.72908782958984 61.72908782958984 79.533203125 39.7666015625 79.533203125 C 17.80411529541016 79.533203125 0 61.72908782958984 0 39.7666015625 C 0 17.80411529541016 17.80411529541016 0 39.7666015625 0 Z" stroke="none" fill="#83793c"/>
                        </g>
                      </g>
                    </g>
                  </g>
                </g>
              </g>
            </g>
          </g>
        </g>
      </g>
    </g>
    <g id="presentacion_4_" data-name="presentacion (4)" transform="translate(1053.989 9429.91)">
      <g id="Grupo_1242274" data-name="Grupo 1242274" transform="translate(0.718 0.718)">
        <g id="Grupo_1242273" data-name="Grupo 1242273">
          <g id="Grupo_1242270" data-name="Grupo 1242270">
            <path id="Trazado_1221214" data-name="Trazado 1221214" d="M55.055,54.7H7.5V28.371A2.87,2.87,0,0,1,10.371,25.5H52.184a2.87,2.87,0,0,1,2.871,2.871Z" transform="translate(-7.5 -23.778)" fill="#a6e4ff"/>
            <path id="Trazado_1221215" data-name="Trazado 1221215" d="M438.327,25.5H434.5a2.87,2.87,0,0,1,2.871,2.871V54.7H441.2V28.371A2.87,2.87,0,0,0,438.327,25.5Z" transform="translate(-393.643 -23.778)" fill="#8cdcff"/>
            <path id="Trazado_1221216" data-name="Trazado 1221216" d="M125.252,10.945H98.162a1.722,1.722,0,1,1,0-3.445h27.09a1.722,1.722,0,0,1,0,3.445Z" transform="translate(-87.93 -7.5)" fill="#ff8fe9"/>
            <path id="Trazado_1221217" data-name="Trazado 1221217" d="M361.387,7.5H357.56a1.722,1.722,0,1,1,0,3.445h3.827a1.722,1.722,0,1,0,0-3.445Z" transform="translate(-324.065 -7.5)" fill="#ff75e4"/>
            <path id="Trazado_1221218" data-name="Trazado 1221218" d="M52.184,334.894H10.371A2.87,2.87,0,0,1,7.5,332.023V330.65H55.055v1.373A2.87,2.87,0,0,1,52.184,334.894Z" transform="translate(-7.5 -299.73)" fill="#51acdb"/>
            <path id="Trazado_1221219" data-name="Trazado 1221219" d="M437.371,330.65v1.373a2.87,2.87,0,0,1-2.871,2.871h3.827a2.87,2.87,0,0,0,2.871-2.871V330.65Z" transform="translate(-393.643 -299.73)" fill="#32a2db"/>
          </g>
          <g id="Grupo_1242272" data-name="Grupo 1242272" transform="translate(16.962 7.695)">
            <g id="Grupo_1242271" data-name="Grupo 1242271">
              <path id="Trazado_1221220" data-name="Trazado 1221220" d="M236.606,253.623a2.05,2.05,0,0,1-2.049-2.049v-2.049h4.1v2.049A2.049,2.049,0,0,1,236.606,253.623Z" transform="translate(-229.793 -234.061)" fill="#8e58d1"/>
              <path id="Trazado_1221221" data-name="Trazado 1221221" d="M198.4,94.736a6.813,6.813,0,1,0-10.524,5.714,1.162,1.162,0,0,1,.482.918c0,1.783,1.445,2.529,3.228,2.529s3.228-.746,3.228-2.529a1.149,1.149,0,0,1,.473-.912A6.806,6.806,0,0,0,198.4,94.736Z" transform="translate(-184.771 -87.923)" fill="#fdfd95"/>
            </g>
          </g>
        </g>
      </g>
      <g id="Grupo_1242275" data-name="Grupo 1242275" transform="translate(0)">
        <path id="Trazado_1221222" data-name="Trazado 1221222" d="M45.4,1.722h-5.03A2.444,2.444,0,0,0,38.04,0H17.062a.718.718,0,0,0,0,1.435H38.04a1,1,0,0,1,0,2.009H10.95a1,1,0,0,1,0-2.009h2.286a.718.718,0,0,0,0-1.435H10.95A2.444,2.444,0,0,0,8.618,1.722H3.588A3.592,3.592,0,0,0,0,5.31v27.7A3.592,3.592,0,0,0,3.588,36.6H23.777v5.965a3.253,3.253,0,1,0,1.435,0V36.6h8.851a.718.718,0,0,0,0-1.435H3.588a2.155,2.155,0,0,1-2.153-2.153v-.655h46.12v.655A2.155,2.155,0,0,1,45.4,35.164H37.891a.718.718,0,0,0,0,1.435H45.4a3.592,3.592,0,0,0,3.588-3.588V5.31A3.592,3.592,0,0,0,45.4,1.722ZM26.313,45.737A1.818,1.818,0,1,1,24.5,43.919,1.82,1.82,0,0,1,26.313,45.737ZM1.435,30.92V5.31A2.155,2.155,0,0,1,3.588,3.158h5.03A2.444,2.444,0,0,0,10.95,4.88H38.04a2.444,2.444,0,0,0,2.332-1.722H45.4A2.155,2.155,0,0,1,47.555,5.31V30.92Z" transform="translate(0)"/>
        <path id="Trazado_1221223" data-name="Trazado 1221223" d="M184.817,80.436A7.546,7.546,0,0,0,180.9,94.28a.458.458,0,0,1,.155.317,2.945,2.945,0,0,0,1.179,2.467v1.6a2.767,2.767,0,0,0,5.534,0v-1.6a2.945,2.945,0,0,0,1.179-2.467.454.454,0,0,1,.146-.31C195.432,90.158,192.336,80.331,184.817,80.436Zm1.514,18.228a1.332,1.332,0,0,1-2.664,0V97.7a6.289,6.289,0,0,0,2.664,0Zm1.979-5.582a1.861,1.861,0,0,0-.8,1.514c0,.721-.332,1.562-1.793,1.765V90.351a2.733,2.733,0,0,0,2.615-.705.718.718,0,0,0-1.015-1.015,1.29,1.29,0,0,1-1.81,0,.727.727,0,0,0-1.015,0,1.291,1.291,0,0,1-1.81,0,.718.718,0,0,0-1.015,1.015,2.733,2.733,0,0,0,2.615.705v6.01c-1.461-.2-1.793-1.045-1.793-1.765a1.874,1.874,0,0,0-.808-1.52,6.1,6.1,0,1,1,6.63.005Z" transform="translate(-160.506 -72.739)"/>
        <path id="Trazado_1221224" data-name="Trazado 1221224" d="M124.01,153.344h2.248a.718.718,0,0,0,0-1.435H124.01A.718.718,0,0,0,124.01,153.344Z" transform="translate(-111.501 -137.374)"/>
        <path id="Trazado_1221225" data-name="Trazado 1221225" d="M142.285,202.648l-1.964,1.095a.718.718,0,1,0,.7,1.254l1.964-1.095a.718.718,0,0,0-.7-1.254Z" transform="translate(-126.561 -183.173)"/>
        <path id="Trazado_1221226" data-name="Trazado 1221226" d="M338.819,204.618a.72.72,0,0,0,.369-1.334l-1.93-1.154a.718.718,0,1,0-.736,1.232l1.93,1.154A.713.713,0,0,0,338.819,204.618Z" transform="translate(-304.005 -182.698)"/>
        <path id="Trazado_1221227" data-name="Trazado 1221227" d="M349.6,151.988a.718.718,0,0,0,.718.718h2.248a.718.718,0,0,0,0-1.435h-2.248A.718.718,0,0,0,349.6,151.988Z" transform="translate(-316.152 -136.796)"/>
        <path id="Trazado_1221228" data-name="Trazado 1221228" d="M336.6,91.658a.715.715,0,0,0,.349-.091l1.964-1.095a.718.718,0,0,0-.7-1.254l-1.964,1.095A.719.719,0,0,0,336.6,91.658Z" transform="translate(-303.748 -80.597)"/>
        <path id="Trazado_1221229" data-name="Trazado 1221229" d="M140.33,90.4l1.93,1.154A.718.718,0,1,0,143,90.317l-1.93-1.154A.718.718,0,0,0,140.33,90.4Z" transform="translate(-126.586 -80.537)"/>
        <path id="Trazado_1221230" data-name="Trazado 1221230" d="M358.245,274.916h-9.264a.718.718,0,0,0,0,1.435h9.264A.718.718,0,0,0,358.245,274.916Z" transform="translate(-314.941 -248.611)"/>
        <path id="Trazado_1221231" data-name="Trazado 1221231" d="M61.9,274.916H52.639a.718.718,0,1,0,0,1.435H61.9A.718.718,0,0,0,61.9,274.916Z" transform="translate(-46.953 -248.611)"/>
        <path id="Trazado_1221232" data-name="Trazado 1221232" d="M52.7,243.459h3.1a.718.718,0,0,0,0-1.435H52.7a.718.718,0,0,0,0,1.435Z" transform="translate(-47.013 -218.866)"/>
        <path id="Trazado_1221233" data-name="Trazado 1221233" d="M416.552,242.024h-3.1a.718.718,0,0,0,0,1.435h3.1A.718.718,0,0,0,416.552,242.024Z" transform="translate(-373.247 -218.866)"/>
      </g>
    </g>
  </g>
</svg>
