<svg xmlns="http://www.w3.org/2000/svg" xmlns:xlink="http://www.w3.org/1999/xlink" width="97.533" height="97.533" viewBox="0 0 97.533 97.533">
  <defs>
    <filter id="Trazado_982547" x="0" y="0" width="97.533" height="97.533" filterUnits="userSpaceOnUse">
      <feOffset dy="3" input="SourceAlpha"/>
      <feGaussianBlur stdDeviation="3" result="blur"/>
      <feFlood flood-opacity="0.161"/>
      <feComposite operator="in" in2="blur"/>
      <feComposite in="SourceGraphic"/>
    </filter>
  </defs>
  <g id="Grupo_1241904" data-name="Grupo 1241904" transform="translate(-609.717 -2681.233)">
    <g id="Grupo_1241243" data-name="Grupo 1241243" transform="translate(-0.25 -3172)">
      <g id="Grupo_1226209" data-name="Grupo 1226209" transform="translate(419 4953.233)">
        <g id="Grupo_1203701" data-name="Grupo 1203701" transform="translate(199.967 906)">
          <g id="Grupo_1203355" data-name="Grupo 1203355" transform="translate(0)">
            <g id="Grupo_1202156" data-name="Grupo 1202156">
              <g id="Grupo_1177900" data-name="Grupo 1177900">
                <g id="Grupo_1172010" data-name="Grupo 1172010">
                  <g id="Grupo_1171046" data-name="Grupo 1171046">
                    <g id="Grupo_1148525" data-name="Grupo 1148525">
                      <g transform="matrix(1, 0, 0, 1, -9, -6)" filter="url(#Trazado_982547)">
                        <g id="Trazado_982547-2" data-name="Trazado 982547" transform="translate(9 6)" fill="#fdfbec">
                          <path d="M 39.7666015625 78.033203125 C 34.59997940063477 78.033203125 29.58870124816895 77.02164459228516 24.87196731567383 75.02663421630859 C 20.31538963317871 73.099365234375 16.22284507751465 70.34000396728516 12.70802402496338 66.82518005371094 C 9.193202018737793 63.31035614013672 6.433835029602051 59.21781158447266 4.506568431854248 54.66123580932617 C 2.511557102203369 49.94449996948242 1.500001549720764 44.93322372436523 1.500001549720764 39.7666015625 C 1.500001549720764 34.59997940063477 2.511557102203369 29.58870124816895 4.506568431854248 24.87196731567383 C 6.433835029602051 20.31538963317871 9.193202018737793 16.22284507751465 12.70802402496338 12.70802402496338 C 16.22284507751465 9.193202018737793 20.31538963317871 6.433835029602051 24.87196731567383 4.506568431854248 C 29.58870124816895 2.511557102203369 34.59997940063477 1.500001549720764 39.7666015625 1.500001549720764 C 44.93322372436523 1.500001549720764 49.94449996948242 2.511557102203369 54.66123580932617 4.506568431854248 C 59.21781158447266 6.433835029602051 63.31035614013672 9.193202018737793 66.82518005371094 12.70802402496338 C 70.34000396728516 16.22284507751465 73.099365234375 20.31538963317871 75.02663421630859 24.87196731567383 C 77.02164459228516 29.58870124816895 78.033203125 34.59997940063477 78.033203125 39.7666015625 C 78.033203125 44.93322372436523 77.02164459228516 49.94449996948242 75.02663421630859 54.66123580932617 C 73.099365234375 59.21781158447266 70.34000396728516 63.31035614013672 66.82518005371094 66.82518005371094 C 63.31035614013672 70.34000396728516 59.21781158447266 73.099365234375 54.66123580932617 75.02663421630859 C 49.94449996948242 77.02164459228516 44.93322372436523 78.033203125 39.7666015625 78.033203125 Z" stroke="none"/>
                          <path d="M 39.7666015625 3 C 34.80181503295898 3 29.98714065551758 3.971687316894531 25.45630264282227 5.888076782226562 C 21.07851409912109 7.739715576171875 17.146240234375 10.39113616943359 13.76869201660156 13.76869201660156 C 10.39113616943359 17.146240234375 7.739715576171875 21.07851409912109 5.888076782226562 25.45630264282227 C 3.971687316894531 29.98714065551758 3 34.80181503295898 3 39.7666015625 C 3 44.73138809204102 3.971687316894531 49.54606628417969 5.888076782226562 54.076904296875 C 7.739715576171875 58.45468902587891 10.39113616943359 62.386962890625 13.76869201660156 65.76451110839844 C 17.146240234375 69.14206695556641 21.07851409912109 71.79348754882812 25.45630264282227 73.64512634277344 C 29.98714065551758 75.56151580810547 34.80181503295898 76.533203125 39.7666015625 76.533203125 C 44.73138809204102 76.533203125 49.54606628417969 75.56151580810547 54.076904296875 73.64512634277344 C 58.45468902587891 71.79348754882812 62.386962890625 69.14206695556641 65.76451110839844 65.76451110839844 C 69.14206695556641 62.386962890625 71.79348754882812 58.45468902587891 73.64512634277344 54.076904296875 C 75.56151580810547 49.54606628417969 76.533203125 44.73138809204102 76.533203125 39.7666015625 C 76.533203125 34.80181503295898 75.56151580810547 29.98714065551758 73.64512634277344 25.45630264282227 C 71.79348754882812 21.07851409912109 69.14206695556641 17.146240234375 65.76451110839844 13.76869201660156 C 62.386962890625 10.39113616943359 58.45468902587891 7.739715576171875 54.076904296875 5.888076782226562 C 49.54606628417969 3.971687316894531 44.73138809204102 3 39.7666015625 3 M 39.7666015625 0 C 61.72908782958984 0 79.533203125 17.80411529541016 79.533203125 39.7666015625 C 79.533203125 61.72908782958984 61.72908782958984 79.533203125 39.7666015625 79.533203125 C 17.80411529541016 79.533203125 0 61.72908782958984 0 39.7666015625 C 0 17.80411529541016 17.80411529541016 0 39.7666015625 0 Z" stroke="none" fill="#83793c"/>
                        </g>
                      </g>
                    </g>
                  </g>
                </g>
              </g>
            </g>
          </g>
        </g>
      </g>
    </g>
    <g id="funcion-cognitiva_5_" data-name="funcion-cognitiva (5)" transform="translate(626.285 2699.769)">
      <g id="Grupo_1241901" data-name="Grupo 1241901" transform="translate(6.356 0.798)">
        <g id="Grupo_1241900" data-name="Grupo 1241900" transform="translate(0 2.579)">
          <path id="Trazado_1220407" data-name="Trazado 1220407" d="M167.079,329.289l-3.61-20.855H144.711l-3.769,20.855Z" transform="translate(-127.339 -279.003)" fill="#ffbd86"/>
          <path id="Trazado_1220408" data-name="Trazado 1220408" d="M167.546,308.434H148.789l-3.284,18.17a18.212,18.212,0,0,0,13.829-7.081l1.1-1.425a21.579,21.579,0,0,0,7.983-4.637Z" transform="translate(-131.416 -279.003)" fill="#f6a96c"/>
          <path id="Trazado_1220409" data-name="Trazado 1220409" d="M53.886,50.2a18.455,18.455,0,1,0-36.909.177v1.761a8.226,8.226,0,0,1-1.053,4.027l-2.7,4.8a1.3,1.3,0,0,0-.148.387,1.244,1.244,0,0,0,.906,1.447l2.992.779L16.482,65.1a.693.693,0,0,0,.286.8l.644.411a.693.693,0,0,1,.117,1.075.692.692,0,0,0-.091.867l.585.9a.694.694,0,0,1,.112.377v2.91a3.691,3.691,0,0,0,3.691,3.691h4.721A14.994,14.994,0,0,0,38.421,70.3l1-1.3a3.8,3.8,0,0,1,1.821-1.278A18.462,18.462,0,0,0,53.886,50.2Z" transform="translate(-13.055 -31.744)" fill="#fed2a4"/>
          <path id="Trazado_1220410" data-name="Trazado 1220410" d="M96.6,58.895a18.462,18.462,0,0,0-12.35-17.42,4.648,4.648,0,0,0,.532,3.559,4.678,4.678,0,0,0,0,9.078A4.678,4.678,0,0,0,91.2,60.531a4.665,4.665,0,0,0,.809,1.7,2.147,2.147,0,0,1,.161,2.328,18.508,18.508,0,0,1-10.417,8.648,3.7,3.7,0,0,0-1.767,1.261l-1,1.3A14.994,14.994,0,0,1,67.109,81.6H62.388a3.676,3.676,0,0,1-1.539-.336,3.69,3.69,0,0,0,3.688,3.56h4.721a14.994,14.994,0,0,0,11.873-5.837l1-1.3a3.8,3.8,0,0,1,1.821-1.278A18.462,18.462,0,0,0,96.6,58.895Z" transform="translate(-55.765 -40.44)" fill="#ffbd86"/>
        </g>
        <path id="Trazado_1220411" data-name="Trazado 1220411" d="M232.392,234l2.2,3.807a7.677,7.677,0,0,1,1.027,3.836v.523a.86.86,0,0,0,.86.86h1.719a.86.86,0,0,0,.86-.86V234Z" transform="translate(-209.061 -209.906)" fill="#fe646f"/>
        <path id="Trazado_1220412" data-name="Trazado 1220412" d="M131.338,75.75a4.49,4.49,0,0,0-2.18-3.852,2.915,2.915,0,0,0-2.448-2.805,6.735,6.735,0,0,0-4.681-2.718,2.914,2.914,0,0,0-3.809-1.058,4.492,4.492,0,0,0-5.863.966,3.887,3.887,0,0,0-5.249,3.64,2.914,2.914,0,0,0-2.172,4.858,2.915,2.915,0,0,0,3.141,4.692,3.885,3.885,0,0,0,6.024,2.935,4.5,4.5,0,0,0,4.836,1.2,6.739,6.739,0,0,0,11.124-4.721A4.477,4.477,0,0,0,131.338,75.75Z" transform="translate(-94.499 -58.554)" fill="#fe99a0"/>
        <path id="Trazado_1220413" data-name="Trazado 1220413" d="M262.559,93.543a4.492,4.492,0,0,0-.9-6.99,2.915,2.915,0,0,0-2.448-2.805,6.735,6.735,0,0,0-4.672-2.717,4.683,4.683,0,0,0,1.217,8.359.213.213,0,0,1,.126.3,4.679,4.679,0,0,0,5.977,6.48,6.707,6.707,0,0,0,.7-2.631Z" transform="translate(-226.997 -73.21)" fill="#fd8087"/>
        <path id="Trazado_1220414" data-name="Trazado 1220414" d="M302.15,19.212a1.883,1.883,0,0,0-1.592-1.861l-2.143-.335a8.222,8.222,0,0,0-.785-1.892l1.279-1.753a1.883,1.883,0,0,0-2.631-2.631l-1.753,1.279a8.22,8.22,0,0,0-1.892-.785L292.3,9.092a1.883,1.883,0,0,0-3.721,0l-.335,2.143a8.219,8.219,0,0,0-1.892.785L284.6,10.741a1.883,1.883,0,0,0-2.631,2.631l1.279,1.753a8.22,8.22,0,0,0-.785,1.892l-2.143.335a1.883,1.883,0,0,0,0,3.721l2.143.335a8.218,8.218,0,0,0,.785,1.892l-1.279,1.753a1.883,1.883,0,0,0,2.631,2.631l1.753-1.279a8.221,8.221,0,0,0,1.892.785l.335,2.143a1.883,1.883,0,0,0,3.721,0l.335-2.143a8.218,8.218,0,0,0,1.892-.785l1.753,1.279a1.883,1.883,0,0,0,2.631-2.631L297.63,23.3a8.221,8.221,0,0,0,.785-1.892l2.143-.335A1.883,1.883,0,0,0,302.15,19.212Z" transform="translate(-250.467 -7.5)" fill="#80d261"/>
        <path id="Trazado_1220415" data-name="Trazado 1220415" d="M381.077,41.537l-2.143-.335a8.221,8.221,0,0,0-.785-1.892l1.279-1.753a1.883,1.883,0,0,0-2.631-2.631l-1.209.882a10.575,10.575,0,0,1-6.759,16l.267,1.711a1.883,1.883,0,0,0,3.721,0l.335-2.143a8.22,8.22,0,0,0,1.892-.785l1.753,1.279a1.883,1.883,0,0,0,2.631-2.631l-1.279-1.753a8.22,8.22,0,0,0,.785-1.892l2.143-.335a1.883,1.883,0,0,0,0-3.721Z" transform="translate(-330.986 -31.686)" fill="#68ca44"/>
        <circle id="Elipse_11598" data-name="Elipse 11598" cx="3.438" cy="3.438" r="3.438" transform="translate(36.533 8.274)" fill="#4fc123"/>
      </g>
      <g id="Grupo_1241902" data-name="Grupo 1241902" transform="translate(5.559 0)">
        <path id="Trazado_1220416" data-name="Trazado 1220416" d="M368.15,424.861a.8.8,0,0,0-1.572.272l1.34,7.744a.8.8,0,0,0,.785.662.812.812,0,0,0,.137-.012.8.8,0,0,0,.65-.922Z" transform="translate(-328.166 -379.077)"/>
        <path id="Trazado_1220417" data-name="Trazado 1220417" d="M56.571,9.861,54.921,9.6a9.034,9.034,0,0,0-.462-1.114l.985-1.349A2.681,2.681,0,0,0,51.7,3.394l-1.349.985a9.034,9.034,0,0,0-1.114-.462l-.258-1.65a2.681,2.681,0,0,0-5.3,0l-.258,1.65a9.042,9.042,0,0,0-1.114.462l-1.349-.985a2.668,2.668,0,0,0-3.476.27,2.7,2.7,0,0,0-.532.755,19.3,19.3,0,0,0-8.215-1.84h-.013A18.956,18.956,0,0,0,17.392,6.316.8.8,0,1,0,18.34,7.6,17.372,17.372,0,0,1,28.723,4.174h.012A17.683,17.683,0,0,1,36.75,6.1a2.691,2.691,0,0,0,.462,1.043L38.2,8.489a9.035,9.035,0,0,0-.392.917A7.447,7.447,0,0,0,34.34,7.875,3.687,3.687,0,0,0,31.408,6.44a3.726,3.726,0,0,0-1.283.23,5.291,5.291,0,0,0-6.16.946,4.684,4.684,0,0,0-5.741,3.827A3.712,3.712,0,0,0,15.8,17.023a3.712,3.712,0,0,0,3.163,5.656q.166,0,.33-.015a4.683,4.683,0,0,0,6.538,2.973,5.266,5.266,0,0,0,4.077,1.237L31.192,29.1a6.887,6.887,0,0,1,.92,3.437v.523a1.659,1.659,0,0,0,1.657,1.657h1.719a1.659,1.659,0,0,0,1.657-1.657V28.021a7.543,7.543,0,0,0,5.546-6.553,5.285,5.285,0,0,0,.379-.492c.116.045.233.088.35.128l.258,1.65A2.666,2.666,0,0,0,46.1,25.009,17.723,17.723,0,0,1,34.294,38.594a4.584,4.584,0,0,0-2.2,1.549l-1,1.3a14.289,14.289,0,0,1-11.242,5.526H15.128a2.9,2.9,0,0,1-2.893-2.893v-2.91A1.511,1.511,0,0,0,12,40.352l-.541-.832a1.492,1.492,0,0,0-.311-2.25l-.575-.367.47-1.446a.8.8,0,0,0-.558-1.018L7.485,33.66a.443.443,0,0,1-.323-.521.541.541,0,0,1,.061-.15l2.7-4.8a9.053,9.053,0,0,0,1.155-4.417V22.009A17.886,17.886,0,0,1,15.7,9.99a.8.8,0,1,0-1.183-1.07A19.479,19.479,0,0,0,9.481,22.009v1.759A7.454,7.454,0,0,1,8.53,27.4l-2.7,4.807a2.142,2.142,0,0,0-.233.62A2.048,2.048,0,0,0,7.084,35.2l2.174.565-.233.717A1.491,1.491,0,0,0,9.641,38.2l.539.344a1.5,1.5,0,0,0-.11,1.771l.568.874v2.881a4.494,4.494,0,0,0,4.489,4.489h4.721c.074,0,.148,0,.223,0l-.9,4.962a.8.8,0,0,0,.643.927.807.807,0,0,0,.143.013.8.8,0,0,0,.784-.656l.968-5.355a15.78,15.78,0,0,0,10.642-6.035l1-1.3a2.994,2.994,0,0,1,1.44-1.009,19.2,19.2,0,0,0,7.368-4.494l1.173,6.773a.8.8,0,1,0,1.572-.272l-1.381-7.978a19.226,19.226,0,0,0,4.262-9.55,2.668,2.668,0,0,0,1.188-1.836l.258-1.65a9.022,9.022,0,0,0,1.114-.462l1.349.985a2.681,2.681,0,0,0,3.746-3.746l-.985-1.349a9.025,9.025,0,0,0,.462-1.114l1.65-.258a2.681,2.681,0,0,0,0-5.3Zm-21.019,23.2a.062.062,0,0,1-.062.062H33.77a.062.062,0,0,1-.062-.062v-.523A8.485,8.485,0,0,0,32.574,28.3l-.365-.632a7.534,7.534,0,0,0,2.979.614q.182,0,.363-.009v4.784Zm-.363-6.371a5.941,5.941,0,0,1-3.874-1.438.8.8,0,0,0-.789-.146,3.7,3.7,0,0,1-3.977-.989.8.8,0,0,0-1.032-.126,3.086,3.086,0,0,1-4.786-2.333.8.8,0,0,0-1.061-.691,2.116,2.116,0,0,1-2.281-3.407.8.8,0,0,0,0-1.065,2.116,2.116,0,0,1,1.577-3.528.8.8,0,0,0,.8-.8,3.087,3.087,0,0,1,4.171-2.892.8.8,0,0,0,.9-.242,3.694,3.694,0,0,1,4.821-.8.8.8,0,0,0,.788.034,2.115,2.115,0,0,1,2.767.769.8.8,0,0,0,.589.372,5.905,5.905,0,0,1,1.9.544,2.68,2.68,0,0,0,.391,5.2l1.65.258A9.025,9.025,0,0,0,38.2,16.53l-.985,1.349a2.681,2.681,0,0,0,3.746,3.746l.119-.087a5.945,5.945,0,0,1-5.888,5.146Zm21.136-13.1-2.143.335a.8.8,0,0,0-.646.577,7.431,7.431,0,0,1-.709,1.709.8.8,0,0,0,.049.865l1.279,1.753a1.085,1.085,0,0,1-1.517,1.516l-1.753-1.279a.8.8,0,0,0-.865-.049,7.43,7.43,0,0,1-1.709.708.8.8,0,0,0-.577.646L47.4,22.506a1.085,1.085,0,0,1-2.145,0l-.335-2.143a.8.8,0,0,0-.577-.646,7.429,7.429,0,0,1-1.709-.708.8.8,0,0,0-.865.049l-1.753,1.279A1.085,1.085,0,0,1,38.5,18.82l1.279-1.753a.8.8,0,0,0,.049-.865,7.435,7.435,0,0,1-.709-1.709.8.8,0,0,0-.646-.577l-2.143-.335a1.085,1.085,0,0,1,0-2.145l2.143-.335a.8.8,0,0,0,.646-.577,7.428,7.428,0,0,1,.709-1.709.8.8,0,0,0-.049-.865L38.5,6.2a1.085,1.085,0,0,1,1.517-1.517L41.77,5.962a.8.8,0,0,0,.865.049A7.432,7.432,0,0,1,44.344,5.3a.8.8,0,0,0,.577-.646l.335-2.143a1.085,1.085,0,0,1,2.145,0l.335,2.143a.8.8,0,0,0,.577.646,7.427,7.427,0,0,1,1.709.708.8.8,0,0,0,.865-.049l1.753-1.279A1.085,1.085,0,0,1,54.155,6.2L52.876,7.952a.8.8,0,0,0-.049.865,7.432,7.432,0,0,1,.709,1.709.8.8,0,0,0,.646.577l2.143.335a1.085,1.085,0,0,1,0,2.145Z" transform="translate(-5.559 0)"/>
        <path id="Trazado_1220418" data-name="Trazado 1220418" d="M355.829,79.647a.8.8,0,0,0-.295,1.089,2.641,2.641,0,1,1-2.428-1.324.8.8,0,1,0-.081-1.593,4.235,4.235,0,1,0,3.893,2.123.8.8,0,0,0-1.089-.295Z" transform="translate(-312.475 -69.54)"/>
      </g>
    </g>
  </g>
</svg>
